<svg fill="none" height="32" viewBox="0 0 64 32" width="64" xmlns="http://www.w3.org/2000/svg"><path d="m.0798454 9.37712c-.2162504.50819.0204116 1.09548.5285996 1.31168l8.281395 3.524c.50818.2163 1.09546-.0204 1.31166-.5286.2163-.5082-.0204-1.0954-.52855-1.3117l-7.36124-3.13242 3.13244-7.36124c.21625-.50819-.02041-1.095459-.5286-1.311709s-1.09546.020412-1.31171.528599zm1.2939346 1.31908c16.41852-6.61643 29.97412-3.43542 40.25902 2.3804 10.3245 5.8383 17.35 14.3336 20.5911 18.3227l1.5522-1.2612c-3.2589-4.011-10.4834-12.7657-21.1589-18.8024-10.7151-6.05912-24.9095-9.37812-41.990976-2.49454z" fill="#edf1f7"/></svg>