<svg fill="none" height="52" viewBox="0 0 143 52" width="143" xmlns="http://www.w3.org/2000/svg"><path d="m131.507 30.5096c4.793 3.3093 7.608 14.0265 8.416 18.9714l-136.93701.7132 1.71201-21.2537c3.423-3.9465 11.383-12.2102 15.833-13.6937s15.168.6182 19.97 1.8544c3.614-5.3729 15.291-15.74777 33.093-14.26429 17.802 1.48349 28.434 16.40389 31.524 23.67869l5.563-2.1397c4.945.6657 16.033 2.8243 20.826 6.1337z" fill="#fff"/><g stroke="#29193e" stroke-linecap="round" stroke-linejoin="round" stroke-width="3.92973"><path d="m95.953 35.3259s6.977-11.3075 21.065-11.1377c14.087.1698 22.849 15.156 23.731 25.7424l-138.26099-.0001"/><path d="m105.781 26.4726c-4.077-8.268-15.63-22.08595-34.318-23.44505s-29.561 10.64655-31.6 14.27085"/><path d="m45.3 22.3952c-3.738-5.4366-13.942-9.559-22.426-7.4752-19.367 4.757-22.085994 24.4643-20.04699 33.9782"/></g></svg>