<svg fill="none" height="73" viewBox="0 0 158 73" width="158" xmlns="http://www.w3.org/2000/svg"><path d="m4.22435 45.7792c-6.19082 14.0896.42686 24.1233 1.06738 25.1907l147.30127-.6404 2.562-12.5953-1.708-7.0449c-4.91-15.7975-26.899-20.2806-34.37-19.2132-2.989-20.4941-18.787-28.60639-31.8089-28.60639-13.0223 0-25.1907 10.03359-32.876 23.05589-7.0448-6.8314-23.0558-4.4831-27.3254-4.2697-4.2697.2135-16.6515 10.0336-22.84235 24.1233z" fill="#fff"/><g stroke="#29193e" stroke-linecap="round" stroke-linejoin="round" stroke-width="3.92973"><path d="m56.291 24.6519c3.1425-12.0459 20.4257-23.56809 35.6141-21.47309 15.1879 2.0949 26.7109 16.23579 27.2339 28.28169"/><path d="m114.319 33.9107s13.992-6.4773 27.467 2.8826c13.475 9.3598 16.121 23.6771 11.118 33.0435-3.567.5931-104.8214.9019-148.51954.8247"/><path d="m65.4819 38.458c.2063 1.0318-5.572-17.9544-28.4795-17.748-22.9075.2063-40.86169 24.7646-32.81316 49.7358"/></g></svg>