<svg fill="none" height="27" viewBox="0 0 25 27" width="25" xmlns="http://www.w3.org/2000/svg"><g stroke="#29193e" stroke-linecap="round" stroke-linejoin="round" stroke-width="1.09469"><path d="m23.9435 14.763c0 6.151-5.376 10.758-10.95 10.774-6.15123 0-8.5993-3.624-9.39516-4.888-.79587-1.264-2.36396-6.12-2.36396-6.12l20.78932-7.352s1.5446 3.267 1.9198 7.586z" fill="#31cb9e"/><path d="m12.1378 23.2758c6.1512 0 11.1378-4.9866 11.1378-11.1378 0-6.15125-4.9866-11.13782-11.1378-11.13782-6.15124 0-11.1378 4.98657-11.1378 11.13782 0 6.1512 4.98656 11.1378 11.1378 11.1378z" fill="#31cb9e"/><path d="m21.7334 17.89.4256 2.244"/><path d="m20.2744 19.835.4256 2.243"/></g><path d="m11.6979 12.494 4.7119.635c.0382.006.0773.002.1133-.013.036-.014.0676-.037.0915-.068.024-.03.0393-.066.0446-.105.0053-.038.0003-.077-.0145-.113l-1.6398-4.03199c-.0142-.036-.0377-.06801-.0683-.09201-.0305-.024-.0669-.03899-.1054-.04399-.0384-.005-.0775.00099-.1131.01599s-.0664.04-.0892.071z" fill="#fff"/><path d="m14.1534 7.81302-3.3939-.859c-.0355-.01-.0729-.01101-.1088-.00301s-.0693.025-.0972.049-.0495.05501-.0628.08901-.018.072-.0136.108l.7866 4.66798 3.0004-3.71399c.0233-.027.0392-.06.0462-.095s.0048-.07099-.0064-.10499c-.0111-.034-.0308-.06401-.0572-.08901-.0263-.024-.0585-.04099-.0933-.04899z" fill="#fff"/><path d="m14.8884 17.116 1.8342-2.985c.0196-.03.031-.065.0332-.101s-.0049-.073-.0206-.105c-.0158-.033-.0396-.061-.0693-.081-.0297-.021-.0642-.034-.1002-.037l-4.7425-.566 2.6945 3.892c.0214.03.05.055.0831.071s.0697.024.1066.023c.0369-.002.0729-.012.1047-.031s.0584-.045.0775-.077" fill="#fff"/><path d="m10.6722 12.818-.896-5.05101c-.0081-.042-.0284-.08-.0583-.11s-.0681-.05-.1097-.058c-.0416-.009-.0847-.00401-.1237.01199-.039.017-.0723.045-.0955.08l-1.75146 2.98702c-.04435.076-.07062.161-.07677.248-.00614.088.008.175.04133.256l2.014 4.953c.0322.083.0833.157.1493.217.0659.059.1449.103.2305.126l3.3244.916c.0413.009.0845.006.124-.009.0394-.016.0734-.043.0975-.078.024-.034.0372-.076.0377-.118s-.0117-.084-.0349-.119z" fill="#fff"/></svg>