<svg fill="none" height="41" viewBox="0 0 38 41" width="38" xmlns="http://www.w3.org/2000/svg"><g stroke="#29193e" stroke-linecap="round" stroke-linejoin="round" stroke-width="1.71701"><path d="m36.9861 22.5866c0 9.6481-8.4321 16.8739-17.1749 16.9-9.6481 0-13.4879-5.6845-14.7362-7.6674s-3.7078-9.5998-3.7078-9.5998l32.6077-11.5302s2.4227 5.1229 3.0112 11.8974z" fill="#50af95"/><path d="m18.4695 35.939c9.6481 0 17.4695-7.8214 17.4695-17.4695 0-9.64814-7.8214-17.4695-17.4695-17.4695-9.64814 0-17.4695 7.82136-17.4695 17.4695 0 9.6481 7.82136 17.4695 17.4695 17.4695z" fill="#50af95"/><path d="m33.5195 27.4922.6676 3.5186"/><path d="m31.2324 30.5425.6676 3.5185"/></g><path clip-rule="evenodd" d="m20.4328 18.7763-.0006-.0017c-.093.04-.5749.2399-1.6727.6201-.8765.3035-1.5026.4911-1.7231.5558l.0009.0026c-3.4256 1.0201-6.1475 1.3046-6.3909.6017-.2431-.7021 2.0719-2.1617 5.3938-3.4811l.7945 2.2945c.2259-.0607.8706-.2422 1.7436-.5445 1.0475-.3627 1.5575-.5879 1.6526-.6306l-.7943-2.2936c3.4192-1.0159 6.135-1.2984 6.3778-.5972.2435.7029-2.0661 2.1587-5.3816 3.474zm-1.0788-3.1155-.7111-2.0533 4.6985-1.627-1.0843-3.1312-12.79281 4.43 1.08431 3.1312 4.6985-1.6271.7107 2.0525c-3.7578 1.4976-6.3674 3.2487-6.0536 4.1548.3137.906 3.4471.6674 7.3266-.4787l2.2786 6.58 3.3958-1.176-2.2791-6.5817c3.7517-1.4954 6.3546-3.2433 6.0412-4.1485-.3135-.9051-3.4399-.669-7.3133.475z" fill="#fff" fill-rule="evenodd"/></svg>