<svg fill="none" height="44" viewBox="0 0 41 44" width="41" xmlns="http://www.w3.org/2000/svg"><g stroke="#29193e" stroke-linecap="round" stroke-linejoin="round" stroke-width="1.86279"><path d="m40.0415 24.419c0 10.468-9.148 18.307-18.6331 18.335-10.4673 0-14.63303-6.167-15.98731-8.318-1.35429-2.151-4.02265-10.415-4.02265-10.415l35.37626-12.509s2.6284 5.558 3.2668 12.907z" fill="#4659ab"/><path d="m19.9527 38.9057c10.4673 0 18.9527-8.4854 18.9527-18.9527 0-10.46728-8.4854-18.95269-18.9527-18.95269-10.46729 0-18.9527 8.48541-18.9527 18.95269 0 10.4673 8.48541 18.9527 18.9527 18.9527z" fill="#4659ab"/><path d="m36.2812 29.742.7243 3.817"/><path d="m33.7988 33.051.7243 3.817"/></g><path d="m20.2812 8.54102 10.0413 5.71398v11.428l-10.0413 5.714-10.0413-5.714v-11.428z" fill="#f9fbef"/><path d="m20.2819 13.841 5.3844 3.064v6.128l-5.3844 3.064-5.3845-3.064v-6.128z" fill="#4659ab"/></svg>