<svg fill="none" height="27" viewBox="0 0 25 27" width="25" xmlns="http://www.w3.org/2000/svg"><g stroke="#29193e" stroke-linecap="round" stroke-linejoin="round" stroke-width="1.11533"><path d="m24.376 15.022c0 6.267-5.478 10.961-11.157 10.978-6.26699 0-8.76099-3.692-9.57199-4.98s-2.409-6.236-2.409-6.236l21.18199-7.48999s1.573 3.32799 1.956 7.72799z" fill="#fda029"/><path d="m12.348 23.6958c6.2672 0 11.3478-5.0806 11.3478-11.3478 0-6.26723-5.0806-11.34782-11.3478-11.34782-6.26722 0-11.3478 5.08059-11.3478 11.34782 0 6.2672 5.08058 11.3478 11.3478 11.3478z" fill="#fda029"/><path d="m22.124 18.209.434 2.286"/><path d="m20.639 20.19.433 2.286"/></g><path d="m13.087 12.151 3.271-1.383c.07-.03.103-.044.069-.137-.114-.344-.255-.67901-.423-1.00101-.027-.065-.071-.07799-.141-.04799l-6.51001 2.754c-.08.034-.09099.07-.05899.145l.405.958c.053.123.05299.123.18199.069zm2.04-3.57701c-.001-.028-.013-.05499-.032-.07499-.105-.096-.218-.18201-.338-.25701-.19-.134-.394-.24499-.61-.33199-.11-.061-.228-.107-.35-.137-.633-.2-1.305-.246-1.96-.135-.329.059-.649.157-.956.29l-2.88901 1.222c-.08.034-.07799.071-.04799.141l.808 1.91c.034.08.043.102.146.059l6.208-2.627s.049-.033.047-.07l-.027.01099zm1.447 3.42201c-.096.028-.188.067-.275.116l-5.966 2.524c-.081.034-.108.046-.063.153l.79 1.867c.037.086.046.108.154.063l2.754-1.166c.136-.045.264-.11.381-.193.388-.197.744-.45 1.059-.752.116-.105.222-.222.315-.349l.038-.016c.503-.609.805-1.358.861-2.146 0 0 .004-.097-.048-.101zm-6.14 6.193-.013-.032-.531-1.253-.179-.425-.535-1.265c-.03-.07-.034-.08-.12-.044l-1.168.494c-.065.028-.091.039-.128-.047l-.432-1.022 1.24799-.528c.07-.03.09701-.041.05801-.133l-.428-1.011c-.027-.065-.034-.081-.12-.044l-1.167.493c-.065.028-.092.039-.128-.047l-.401-.947c-.025-.059-.031-.075.055-.111l1.156-.489c.081-.035.103-.044.059-.146l-1.227-2.9c-.036-.086-.045-.108.063-.153l4.035-1.707c.297-.112.602-.20301.912-.27201.64-.141 1.299-.16999 1.948-.08799.432.057.854.168 1.256.331.307.131.6.289.879.472.278.187.536.40299.768.64499.046.07.139.09.209.045l.963-.40699c.123-.052.123-.052.179.064l.373.88299c.037.086.014.12101-.073.15701l-.742.31499c-.075.031-.097.04001-.051.13501.168.315.307.644.417.984.038.092.043.103.146.059l.849-.35901c.058.032.041.09701.062.14501.031.061.058.124.079.188l.276.652c.038.091.023.129-.058.164l-1.017.43c-.076.016-.126.091-.113.168.025.732-.124 1.46-.433 2.124-.113.242-.24.479-.38.706-.163.216-.318.433-.496.629-.329.355-.698.67-1.099.94-.384.25-.79.462-1.216.635l-3.733 1.58-.003-.006z" fill="#fffeeb"/></svg>