<svg width="80" height="80" viewBox="0 0 80 80" fill="none" xmlns="http://www.w3.org/2000/svg">
<g clip-path="url(#clip0)">
<circle cx="42.2967" cy="36.5965" r="15.0212" transform="rotate(-18.0684 42.2967 36.5965)" stroke="#8AD0FF" stroke-width="15.6734" stroke-linecap="round" stroke-linejoin="round"/>
<path d="M65.885 34.5219C65.2527 33.9589 64.3744 31.7797 64.204 30.8941L60.5049 50.795C60.8118 50.189 61.906 48.8635 62.7789 48.3321C63.3312 47.9958 65.2136 48.213 67.2964 48.5815C69.297 48.9355 71.2455 47.687 71.6669 45.6995L72.8795 39.9802C73.3118 37.9413 71.9622 35.9726 69.913 35.5919C68.0204 35.2402 66.2554 34.8517 65.885 34.5219Z" fill="#8AD0FF"/>
<path d="M21.5748 25.1592C22.3808 24.9001 24.0656 23.2626 24.5797 22.5216L19.9116 42.2177C19.876 41.5394 19.4116 39.8845 18.8284 39.0454C18.4593 38.5145 16.65 37.9515 14.5962 37.446C12.6234 36.9603 11.3465 35.0303 11.7652 33.0422L12.97 27.3213C13.3995 25.2818 15.4302 24.0273 17.4583 24.5082C19.3314 24.9523 21.1026 25.311 21.5748 25.1592Z" fill="#8AD0FF"/>
<path d="M52.2869 15.1394C51.4832 15.4054 49.1569 15.0765 48.3047 14.7812L63.6898 27.9352C63.3185 27.3664 62.7177 25.7561 62.6939 24.7344C62.6788 24.088 63.8081 22.5663 65.1686 20.9469C66.4755 19.3913 66.3686 17.0796 64.858 15.7209L60.5113 11.8111C58.9617 10.4172 56.5819 10.6017 55.2276 12.186C53.9767 13.6492 52.7578 14.9835 52.2869 15.1394Z" fill="#8AD0FF"/>
<path d="M22.0236 48.8309C22.2023 48.0033 21.6265 45.7254 21.2418 44.9097L35.9651 58.8005C35.3599 58.4921 33.6945 58.0669 32.6762 58.1524C32.0319 58.2066 30.6397 59.4921 29.175 61.0179C27.768 62.4836 25.458 62.6244 23.9457 61.2677L19.5936 57.3639C18.0421 55.9721 17.9711 53.5863 19.4015 52.0704C20.7227 50.6702 21.919 49.3157 22.0236 48.8309Z" fill="#8AD0FF"/>
<path d="M28.7022 17.2245C28.5307 18.0536 27.0827 19.9038 26.4009 20.4942L45.4852 13.7473C44.8069 13.7844 43.1119 13.4996 42.2152 13.0094C41.6479 12.6992 40.8947 10.9604 40.1725 8.97244C39.4788 7.06286 37.4233 5.99958 35.4913 6.62841L29.932 8.43791C27.9501 9.083 26.9199 11.2362 27.6148 13.2012C28.2566 15.0161 28.8026 16.7388 28.7022 17.2245Z" fill="#8AD0FF"/>
<path d="M42.7486 60.2791C42.1212 59.7106 39.8606 59.0702 38.9618 58.9955L58.3533 53.1902C57.7836 53.5602 56.5826 54.7898 56.1476 55.7144C55.8723 56.2995 56.2894 58.148 56.8785 60.1793C57.4443 62.1307 56.4113 64.2015 54.4802 64.833L48.9234 66.65C46.9423 67.2978 44.8406 66.1664 44.243 64.1696C43.691 62.3254 43.1161 60.6121 42.7486 60.2791Z" fill="#8AD0FF"/>
<path d="M33.9908 44.9974L5.6604 46.2422L14.3237 54.8147L2.73439 66.9682L13.1451 77.0903L24.8427 64.9246L33.7321 73.8234L33.9908 44.9974Z" stroke="#29193E" stroke-width="2.84773" stroke-linecap="round" stroke-linejoin="round"/>
</g>
<defs>
<clipPath id="clip0">
<rect width="80" height="80" fill="white"/>
</clipPath>
</defs>
</svg>
