<svg fill="none" height="70" viewBox="0 0 80 70" width="80" xmlns="http://www.w3.org/2000/svg"><path d="m23.8826 26.8265c.1141-5.108 1.7402-10.0675 4.6729-14.2513 2.9327-4.18377 7.0401-7.40396 11.8029-9.25335 4.7628-1.8494 9.9671-2.24492 14.9547-1.13656s9.5345 3.67083 13.0657 7.36335c3.5313 3.69256 5.8883 8.34926 6.773 13.38136s.2573 10.2135-1.8028 14.889c-2.0601 4.6756-5.4604 8.6352-9.7709 11.3782-4.3105 2.7431-9.3376 4.1463-14.4456 4.0323l.5766-25.8265z" fill="#8ad0ff"/><path d="m6 28.1821h42.3595v29.5204h-42.3595z" stroke="#29193e" stroke-linecap="round" stroke-linejoin="round" stroke-width="3.07838"/><path d="m6 57.6647h42.3595v7.0589h-42.3595z" stroke="#29193e" stroke-linecap="round" stroke-linejoin="round" stroke-width="3.07838"/><circle cx="26.9562" cy="43.217" fill="#8ad0ff" r="7.11046"/><path d="m23.207 41.0899 3.6617 3.8963 7.2085-6.2341" stroke="#29193e" stroke-linecap="round" stroke-linejoin="round" stroke-width="3.07838"/></svg>