<svg fill="none" height="80" viewBox="0 0 80 80" width="80" xmlns="http://www.w3.org/2000/svg"><path d="m29.7301 47.4013 1.7711-32.8568 31.002 34.0715z" fill="#8ad0ff"/><path d="m0 0h26.546v23.2602h-26.546z" fill="#8ad0ff" transform="matrix(.673003 .73964 .73964 -.673003 34.0273 25.441)"/><g stroke="#29193e" stroke-linecap="round" stroke-linejoin="round" stroke-width="2.84773"><circle cx="26.7584" cy="50.8254" r="14.4341"/><path d="m41.1925 50.6568v5.6583c0 7.9718-6.4624 13.338-14.4341 13.338-7.9718 0-14.4342-5.3662-14.4342-13.338v-6.276"/><path d="m29.3449 46.0351c-1.8059-2.0291-5.722-1.0146-5.7017 1.4203s6.3902 2.9523 6.3902 6.126c0 3.1738-5.4659 3.3501-6.4797.7935"/><path d="m26.4404 44.9508v-2.2458"/><path d="m26.4404 58.5696v-1.9009"/></g></svg>