<svg fill="none" height="48" viewBox="0 0 48 48" width="48" xmlns="http://www.w3.org/2000/svg"><path d="m24 0c13.2561 0 24 10.7461 24 24 0 13.2561-10.7439 24-24 24-13.2539 0-24-10.745-24-24 0-13.2539 10.7461-24 24-24z" fill="#f5ac37"/><path d="m24.767 25.1636h6.2688c.1336 0 .1967 0 .2064-.1752.0512-.6377.0512-1.2792 0-1.9176 0-.124-.0616-.1752-.196-.1752h-12.476c-.1544 0-.196.0512-.196.196v1.8352c0 .2368 0 .2368.2473.2368zm5.7751-4.4128c.0178-.0468.0178-.098 0-.144-.1047-.228-.2287-.4455-.3727-.6496-.2168-.349-.4721-.6704-.7632-.9592-.1373-.1745-.2962-.3311-.4743-.464-.8924-.7595-1.9533-1.297-3.0936-1.5672-.5754-.1292-1.1633-.1908-1.7528-.1856h-5.5368c-.1544 0-.1752.0616-.1752.196v3.66c0 .1544 0 .196.196.196h11.8984s.1032-.0208.1239-.0824h-.0504zm0 6.5576c-.1752-.0193-.3519-.0193-.5271 0h-11.4344c-.1544 0-.2064 0-.2064.2063v3.5784c0 .1648 0 .2064.2064.2064h5.2792c.2524.0193.5048.0015.752-.0512.7662-.055 1.5197-.2213 2.2384-.4952.2613-.0906.5137-.2086.752-.3504h.072c1.2376-.6437 2.2428-1.6548 2.8768-2.8961 0 0 .072-.1559-.0089-.1968zm-14.2399 5.8463v-.0616-2.4024-.8144-2.4232c0-.1343 0-.1544-.1648-.1544h-2.2376c-.124 0-.1752 0-.1752-.1648v-1.9592h2.392c.1336 0 .1856 0 .1856-.1752v-1.9384c0-.124 0-.1544-.1648-.1544h-2.2376c-.124 0-.1752 0-.1752-.1648v-1.8144c0-.1136 0-.1441.1648-.1441h2.2168c.1544 0 .196 0 .196-.1959v-5.5576c0-.1648 0-.2064.2064-.2064h7.7328c.5612.0223 1.1188.0839 1.6704.1856 1.1366.2101 2.2287.6162 3.2272 1.196.6622.3897 1.2717.8604 1.8144 1.4024.4083.4239.7765.8827 1.1032 1.3712.3244.4952.5939 1.0245.8055 1.5776.026.144.1641.2412.3081.2168h1.8456c.2368 0 .2368 0 .2472.2271v1.6912c0 .1648-.0616.2064-.2272.2064h-1.4231c-.1441 0-.1856 0-.1752.1856.0564.6281.0564 1.2584 0 1.8864 0 .1752 0 .196.1967.196h1.6281c.072.0928 0 .1856 0 .2792.0104.1195.0104.2405 0 .36v1.248c0 .1752-.0513.2272-.2064.2272h-1.9488c-.1359-.026-.268.0608-.2992.1959-.464 1.2064-1.2064 2.2881-2.1656 3.1552-.3504.3155-.7186.6125-1.1032.8865-.4127.2375-.8144.4847-1.2375.6807-.7788.3504-1.5955.6088-2.4336.7729-.7959.1425-1.6029.2071-2.4128.196h-7.156v-.0104z" fill="#fefefd"/></svg>