<svg fill="none" height="44" viewBox="0 0 48 44" width="48" xmlns="http://www.w3.org/2000/svg"><path clip-rule="evenodd" d="m0 13.5099c0 3.6796 1.47106 7.0156 3.85715 9.4521l-.03566.002 20.03661 20.2379 19.9852-20.1306-.0309-.0019c2.4487-2.4453 3.9636-5.8255 3.9636-9.5595 0-7.46131-6.0486-13.50989201-13.5099-13.50989201-4.1707 0-7.8999 1.88988201-10.3781 4.85997201-2.4782-2.9701-6.2075-4.85998-10.3781-4.85998-7.46132 0-13.5099 6.04858-13.5099 13.5099zm11.8231 6.9748 6.5859-6.0793 10.7231-.1688 7.8524 5.5727-6.417 4.3061-10.5542 2.0264z" fill="#8ad0ff" fill-rule="evenodd"/><path d="m11.135 19.4414c4.0011-4.3841 14.9047-10.42859 26.5095.4664" stroke="#29193e" stroke-linecap="round" stroke-linejoin="round" stroke-width="2.84773"/><path d="m11.0381 19.8013c3.7763 4.5793 14.1805 10.8232 26.3171.5239" stroke="#29193e" stroke-linecap="round" stroke-linejoin="round" stroke-width="2.84773"/><circle cx="23.9538" cy="19.7503" fill="#29193e" r="2.73776"/></svg>