<svg fill="none" height="48" viewBox="0 0 48 48" width="48" xmlns="http://www.w3.org/2000/svg"><path d="m24 48c13.3001 0 24-10.6999 24-24s-10.6999-24-24-24-24 10.6999-24 24 10.6999 24 24 24z" fill="#2775ca"/><g fill="#e0e8ff"><path d="m31 27.5352c0-3.4854-2.194-4.6804-6.5821-5.1782-3.1344-.3984-3.7612-1.195-3.7612-2.5894 0-1.3943 1.0448-2.2904 3.1343-2.2904 1.8806 0 2.9255.5975 3.4478 2.0913.1045.2988.418.4979.7314.4979h1.6715c.418 0 .7314-.2988.7314-.697v-.0996c-.418-2.191-2.2986-3.8838-4.7015-4.0829v-2.3901c0-.3984-.3134-.6971-.8357-.7968h-1.5672c-.418 0-.7314.2988-.836.7968v2.2904c-3.1343.3984-5.1193 2.39-5.1193 4.8797 0 3.2863 2.0895 4.5808 6.4776 5.0789 2.9255.4978 3.8658 1.0953 3.8658 2.6887 0 1.5935-1.4629 2.6888-3.4478 2.6888-2.7166 0-3.6569-1.0956-3.9703-2.5893-.1044-.3982-.4178-.5975-.7312-.5975h-1.7763c-.4178 0-.7312.2987-.7312.6971v.0997c.4177 2.4895 2.0895 4.282 5.5373 4.7801v2.39c0 .3982.3134.6969.8357.7966h1.5672c.418 0 .7314-.2988.836-.7966v-2.39c3.1343-.4981 5.2238-2.5894 5.2238-5.2782z"/><path d="m18.9138 38.6618c-7.7789-2.8322-11.76816-11.6328-8.8758-19.422 1.4959-4.2486 4.787-7.4855 8.8758-9.0029.399-.2022.5984-.50567.5984-1.01162v-1.41611c0-.40471-.1994-.70818-.5984-.80917-.0998 0-.2992 0-.399.10099-9.47422 3.03471-14.66024 13.25171-11.66835 22.86151 1.79513 5.6646 6.08355 10.0145 11.66835 11.8353.399.2022.798 0 .8976-.4047.0998-.101.0998-.2023.0998-.4045v-1.4164c0-.3034-.2992-.7079-.5984-.9104zm10.5714-31.56081c-.399-.20223-.798 0-.8976.40471-.0998.10124-.0998.20223-.0998.40471v1.41611c0 .40471.2992.80918.5984 1.01168 7.7789 2.8322 11.7682 11.6328 8.8758 19.422-1.4959 4.2486-4.787 7.4855-8.8758 9.0029-.399.2022-.5984.5057-.5984 1.0116v1.4161c0 .4047.1994.7082.5984.8092.0998 0 .2992 0 .399-.101 9.4742-3.0347 14.6602-13.2517 11.6684-22.8615-1.7952-5.7659-6.1834-10.11569-11.6684-11.93651z"/></g></svg>