<svg fill="none" height="48" viewBox="0 0 48 48" width="48" xmlns="http://www.w3.org/2000/svg"><rect fill="#56b298" height="48" rx="24" width="48"/><path clip-rule="evenodd" d="m26.8485 26.4388c-.1591.0116-.9811.0591-2.8147.0591-1.4584 0-2.4939-.0424-2.8571-.0591-5.6361-.2403-9.8429-1.1913-9.8429-2.33 0-1.1386 4.2068-2.0883 9.8429-2.3325v3.7153c.3685.0257 1.4239.0862 2.8823.0862 1.7501 0 2.6264-.0707 2.7842-.0849v-3.714c5.6242.2428 9.8217 1.1939 9.8217 2.3299 0 1.1361-4.1962 2.0871-9.8217 2.3287zm0-5.0442v-3.3247h7.8489v-5.0699h-21.3696v5.0699h7.8475v3.3234c-6.3785.284-11.1753 1.5088-11.1753 2.9764 0 1.4677 4.7968 2.6911 11.1753 2.9764v10.6539h5.6719v-10.6577c6.3639-.2841 11.1528-1.5075 11.1528-2.9739 0-1.4663-4.7849-2.6898-11.1528-2.9751z" fill="#fff" fill-rule="evenodd"/></svg>