<svg fill="none" height="80" viewBox="0 0 80 80" width="80" xmlns="http://www.w3.org/2000/svg"><circle cx="49.2267" cy="32.1393" fill="#29193e" r="4.60556"/><circle cx="49.2267" cy="32.1393" r="12.1964" stroke="#29193e" stroke-linecap="round" stroke-linejoin="round" stroke-width="2.84773"/><circle cx="49.2265" cy="32.1396" r="22.7734" stroke="#29193e" stroke-linecap="round" stroke-linejoin="round" stroke-width="2.84773"/><path clip-rule="evenodd" d="m28.2328 70.709c-.321-.1035-.6625-.2112-1.021-.3242-4.1908-1.3209-10.7163-3.3777-14.3693-8.2483-2.93353-3.9114-3.33696-13.2444-3.68193-21.225-.12166-2.8146-.23605-5.4609-.45159-7.6418l19.50692.6745 19.5105-.6747c-.2156 2.181-.3299 4.8273-.4516 7.6418-.345 7.9806-.7484 17.3137-3.6819 21.2251-3.6607 4.8808-10.1731 6.936-14.3578 8.2566-.3484.11-.6807.2149-.9939.3159l-.0002.0027c-.0014-.0004-.0028-.0009-.0042-.0013-.0012.0004-.0025.0008-.0037.0012z" fill="#8ad0ff" fill-rule="evenodd"/></svg>