<svg fill="none" height="33" viewBox="0 0 104 33" width="104" xmlns="http://www.w3.org/2000/svg"><g fill="#000"><path d="m97.435 19.2238c0 2.3937 1.3217 3.7143 3.835 3.7143 1.083 0 1.95-.2063 2.708-.5571l-.758-2.2699c-.405.2117-.859.3251-1.322.3302-.953 0-1.43-.5365-1.43-1.527v-3.281h2.969v-2.3111h-2.99v-3.2396l-3.012.9492z"/><path d="m77.5667 16.9333c.1252-.4431.402-.8339.7865-1.1104.3846-.2766.855-.4231 1.3368-.4165.975 0 1.7333.5365 2.015 1.5269zm7.1716 1.0318c-.0433-2.8889-2.1233-4.9524-5.0483-4.9524-2.9683 0-5.2 2.146-5.2 4.9524 0 2.6825 2.0583 4.9524 5.1783 4.9524 2.2534 0 4.29-1.3413 4.8967-3.1985h-2.925c-.4333.5778-1.0833.8667-1.9717.8667-1.0833 0-1.9283-.7016-2.1666-1.8571h7.2366z"/><path d="m92.8633 22.6492h2.99v-5.7365c0-1.1556-.3683-2.1254-1.04-2.827-.343-.3479-.7602-.6218-1.2236-.8033s-.9623-.2664-1.463-.2491c-.5716-.0069-1.1384.0996-1.6644.3128-.526.2131-.9996.5283-1.3906.9253v-.9698h-3.0334v9.3476h3.0334v-4.3333c0-1.7127.7366-2.6413 2.0583-2.6413 1.04 0 1.7333.7429 1.7333 1.8572z"/><path d="m70.2433 22.6492h2.99v-5.6333c0-2.4349-1.4733-3.9619-3.6616-3.9619-1.4517 0-2.6434.5571-3.4667 1.6095-.65-1.0318-1.755-1.6095-3.1417-1.6095-1.2133 0-2.1666.392-2.8816 1.1762v-.9286h-3.0334v9.3476h3.0334v-4.5809c0-1.527.65-2.3937 1.8633-2.3937 1.1267 0 1.69.6191 1.69 1.754v5.2206h3.0333v-4.5809c0-1.527.6934-2.3937 1.95-2.3937.975 0 1.625.7635 1.625 1.8159z"/><path d="m51.8917 22.6492v-2.9508c0-2.6 1.235-3.6524 3.2066-3.6524.4984 0 .8234.0619.8234.0619v-2.8476c-.2167-.0619-.4117-.0825-.6934-.0825-1.4516 0-2.535.6809-3.3366 2.0016v-1.8572h-3.0334v9.327z"/><path d="m40.3867 16.9333c.1252-.4431.402-.8339.7865-1.1104.3846-.2766.855-.4231 1.3368-.4165.9967 0 1.755.5365 2.015 1.5269zm7.1933 1.0318c-.065-2.8889-2.1667-4.9524-5.07-4.9524-2.9683 0-5.2 2.146-5.2 4.9524 0 2.6825 2.0583 4.9524 5.2 4.9524 2.2317 0 4.29-1.3413 4.875-3.1985h-2.925c-.4333.5778-1.0833.8667-1.95.8667-1.0833 0-1.95-.7016-2.1667-1.8571h7.2367z"/><path d="m26.2817 15.6333h4.2033v3.5905c0 2.3937 1.3 3.7143 3.835 3.7143 1.0833 0 1.95-.2063 2.7083-.5571l-.78-2.2699c-.3989.2085-.845.3218-1.3.3302-.975 0-1.4516-.5365-1.4516-1.527v-3.281h2.9683v-2.3111h-2.9683v-3.2396l-3.0117.9492v2.2698h-4.2033v-3.1778l-3.0117.908v8.192c0 2.3937 1.3 3.7143 3.835 3.7143 1.0833 0 1.95-.2063 2.7083-.5571l-.78-2.2699c-.3989.2085-.845.3218-1.3.3302-.975 0-1.4516-.5365-1.4516-1.527z"/><path d="m14.8417 16.9333c.1252-.4431.402-.8339.7865-1.1104.3846-.2766.855-.4231 1.3368-.4165.975 0 1.755.5365 2.015 1.5269zm7.1716 1.0318c-.0433-2.8889-2.1233-4.9524-5.0483-4.9524-2.9683 0-5.2 2.146-5.2 4.9524 0 2.6825 2.0583 4.9524 5.1783 4.9524 2.2534 0 4.29-1.3413 4.8967-3.1985h-2.925c-.4333.5778-1.0833.8667-1.9717.8667-1.0833 0-1.9283-.7016-2.1666-1.8571h7.2366z"/><path d="m6.13167 20.2143h-3.09834v-2.5175h3.09834c.715 0 1.43.4334 1.43 1.2794 0 .7222-.585 1.2381-1.43 1.2381zm-3.09834-7.4079h2.70834c.99666 0 1.43.619 1.43 1.2381 0 .8873-.73667 1.3-1.43 1.3h-2.70834zm5.785 3.3841s1.58167-.7841 1.58167-2.6826c0-1.4857-1.365-3.1571-4.07333-3.1571h-6.32667v12.319h6.32667c3.46666 0 4.42003-2.0634 4.42003-3.4666 0-2.2492-1.92837-3.0127-1.92837-3.0127z"/></g></svg>