<svg fill="none" height="35" viewBox="0 0 35 35" width="35" xmlns="http://www.w3.org/2000/svg" xmlns:xlink="http://www.w3.org/1999/xlink"><radialGradient id="a" cx="-1.16861" cy="3.96878" gradientUnits="userSpaceOnUse" r="59.0253"><stop offset="0" stop-color="#f1c38c"/><stop offset=".2437" stop-color="#e7b983"/><stop offset=".659" stop-color="#cc9d6a"/><stop offset=".7129" stop-color="#c89966"/></radialGradient><path d="m24.3403 13.9626c.4147-.6221.9953-.9953 1.7003-1.2026 1.1611-.1659 1.949.3732 2.5296 1.327.2073 1.327-.7879 1.8661-1.6588 2.4467-.8293.5391-1.7003.4561-2.4467-.2074-.4147-.7464-.4561-1.5343-.1244-2.3637zm.1659 1.3685c.5805-1.2856.8294-1.41 2.1149-1.4929.3733 0 .705-.083 1.0783-.1659-.4562-.5391-1.1612-.705-1.8662-.4562-.9952.4148-1.3685.9953-1.327 2.115z" fill="#a05d40"/><path d="m30.1877 22.6713c.0416.0829.1245.1244.166.2073.2902.6221.539 1.2856.5805 1.9906 0 .4561-.1659.7465-.622.8708-.9953.2903-2.032.5392-3.0273 0-.7879-.9952-.9124-1.8246-.2903-2.5711.705-.8708 1.9491-1.1196 3.0687-.5805.0415 0 .083.0414.1244.0829zm-3.1102 1.7417c.166-.3732.3318-.6635.6221-.705.6635-.0829 1.1612-.4561 1.7417-.705.083-.0414.2488 0 .2074-.1658 0-.083-.1244-.1659-.2074-.1659-.7879-.1244-1.5344 0-2.0734.5806-.2074.2488-.4977.5805-.2904 1.1611z" fill="#a05d40"/><path d="m24.2157 30.6748c-.9538.705-2.032.7879-2.8199.2488-.8294-.6221-1.2441-1.8247-.9538-2.9029.0415-.1244.0415-.2073.0829-.3317.7465-.9538 1.4929-.9953 2.3223-.1659.3732.3732.705.705 1.0367 1.0782.705.705.7879 1.2026.3318 2.0735zm-2.6126-3.3591c-.1659.0415-.3732.1244-.5806.3318-.1244.1244-.2488.2903-.1659.4562.083.2073.2489.1244.4148.1244.3317 0 .5806.1659.8708.3317.2488.1659.4977.2488.7465.2488s.3317-.1244.2902-.3317c-.0829-.3732-1.0782-1.1612-1.5758-1.1612z" fill="#a05d40"/><path d="m23.179 17.5707c.2074 0 .3732-.0415.5806 0 .4976.1244.8294.4146.9538.9123.1244.4976-.1244.8708-.5391 1.1197-.3318.2073-.705.3317-1.0782.3317-.705-.1658-.9539-.4146-.5806-1.4099.1659-.3318.3732-.6636.6635-.9538zm1.0782.8294c0-.2074-.1659-.2903-.3317-.3732-.3318-.166-.5806-.0416-.7879.1658-.1244.1244-.3318.2903-.2074.4976.083.1659.2903.0415.4147 0 .2073-.0414.3733-.0414.5806-.0414.1658 0 .3317-.0415.3317-.2488z" fill="#a05d40"/><path d="m16.9587 34.5315c-2.4467.3732-4.9763-.3732-7.34006-1.7417-1.99056-1.1612-3.69079-2.6541-5.22516-4.3958-.29026-.3317-.49766-.6635-.82938-.9538-1.86617-1.8246-2.52969-4.2714-3.15167-6.7595-.829452-3.2761-.290329-6.3863.580519-9.538.497661-1.82465 1.451441-3.31756 2.819941-4.6446 1.24411-1.2441 2.48815-2.48814 3.93958-3.56639 1.90763-1.40997 4.10553-2.07342 6.34483-2.529612 5.5155-1.202643 10.2845.37319 14.6388 3.649322 1.4099 1.07818 2.6955 2.23935 3.3175 3.98105.4148 1.11971.9123 2.15643 1.4929 3.19313 1.2441 2.3638 1.7003 4.9349 1.3271 7.589-.2489 1.949-.7879 3.8152-1.7003 5.5154-1.327 2.4881-2.9028 4.8105-4.9763 6.6766-1.4515 1.2856-3.3176 1.8662-5.1008 2.6541-1.8246.7879-3.8152.8708-6.1375.8708z" fill="#703420"/><path d="m16.4195 33.9924c1.7002.0415 3.1931.0415 4.6446-.2903 2.1979-.4976 4.1469-1.5343 6.096-2.5711.7464-.4147 1.3685-.9953 1.9075-1.6588.6221-.8708 1.2856-1.7002 1.9077-2.5296 2.4052-3.1932 3.8152-6.7181 3.4834-10.7821-.0829-1.2026-.2903-2.4052-.7464-3.5249-.5391-1.2855-1.3271-2.4052-1.7418-3.69081-.2488-.78791-.5805-1.53436-1.0367-2.15642-.9538-1.2855-2.2393-2.28082-3.5249-3.19313-2.1979-1.53437-4.6861-2.40522-7.2987-2.902873-1.2025-.207328-2.4052-.414656-3.6492-.248793-1.0368.124396-2.032.414656-3.0688.622056-1.5344.24879-3.0273.66352-4.39573 1.53437-1.86616 1.1611-3.44199 2.61254-4.9349 4.22984-1.11971 1.20264-2.07349 2.40528-2.52961 4.06406-.704982 2.7785-1.4928996 5.5154-.912381 8.4597.37326 1.8247.704981 3.6494 1.534371 5.3081.41472.8709 1.11971 1.5345 1.74176 2.2809 1.45144 1.8246 3.06874 3.4419 5.01776 4.7275 2.32233 1.5758 4.85193 2.654 7.50603 2.3223z" fill="url(#a)"/><g fill="#a05d40"><path d="m2.94245 20.6805c.58052-1.1611 1.45137-1.327 2.36375-.4561.29026.2902.58052.622.91232.9123.62205.5806.99524 1.2026.66352 2.0735-.82939.7464-1.99056.9538-2.81995.4976-.82938-.4561-1.32704-1.7002-1.16117-2.7785.04153-.0829.04153-.1659.04153-.2488zm1.32697-.5806c-.1244-.0414-.24879.083-.41465.1245-.24887.1244-.49766.2902-.41473.622.04147.2903.33179.1659.53912.1659.20733.0415.37319.0829.53913.2073.29025.1659.58051.2488.91231.3318.29026.0829.37319-.083.29026-.3318-.1244-.4147-.99525-1.1197-1.45144-1.1197z"/><path d="m19.2812 31.3381c0-1.4099.7465-2.3637 2.0735-2.6954.9538-.2489 1.5759.0829 2.0321.9537.0829.705-.3318 1.2027-.8294 1.6173-.5806.4562-1.1612.788-1.9076.8709-.6221.0415-1.0782-.1659-1.3686-.7465zm2.5297-2.4466c-.3318 0-.9537.2073-1.2026.4147-.1244.1244-.3317.2073-.2073.4146.0829.1659.2902.1244.4146.083.4147-.1244.8295-.1244 1.2441 0 .2074.0414.4977.083.5806-.2074.0829-.2902-.1244-.4561-.3318-.5805-.1658-.083-.3317-.1244-.4976-.1244z"/><path d="m9.20428 28.8917c1.03672-.7879 1.32692-.7465 2.15632.2073.3318.4147.6636.788 1.1612 1.0368.3733.2073.5391.5391.5391.9538-.3318.5806-.8294.7464-1.4514.7049-1.1612-.0414-2.28082-.7879-2.52969-1.6587-.16586-.4562.083-.8294.12447-1.2441zm.66345.6635c.16597-.1244.37327-.0829.58057-.0829.1659 0 .4147.0414.4562-.2074.0415-.2074-.1244-.3318-.2903-.4562-.3317-.2073-.8294-.0414-1.03673.2903-.16586.3318-.04146.4147.29026.4562z"/><path d="m30.8093 19.2706c-.4562-.4976-.4976-1.0782-.2488-1.7002.1244-.3318.2488-.6636.3318-.9953.2488-.9953.7464-1.2441 1.7002-.7464.0829.0414.1244.0829.2073.1244.8294.8708.166 2.6954-.7464 3.2346-.4147.2073-.8294.2488-1.2441.0829zm.1244-.6635c.2074-.2903.2488-.5805.3318-.8709.1243-.4976.2903-.9952.9953-.9952.1658 0 .4146-.1244.2902-.3318-.1244-.2073-.3732-.3732-.6635-.3732-.2488 0-.4561.0829-.4977.3317-.1243.5806-.2902 1.1612-.539 1.7003-.0829.1659-.0829.2903.0829.5391z"/><path d="m23.469 4.96377c-.3317-.04147-.622-.16586-.9123-.37326-.2903-.2488-.6635-.41466-1.0368-.49759-.4146-.08293-.8293-.16586-.9537-.62205-.1244-.53913.1658-.91232.5806-1.24411.8293-.33173 1.5758-.41466 2.3222.24886.8294.70499.8294 1.94902 0 2.48815zm-.7464-2.48815c-.8294-.24886-1.3685-.04146-1.6588.49759-.0829.16593-.2073.33179 0 .45619.2074.16586.3732 0 .4976-.16586.2489-.45619.6221-.70499 1.1612-.78792z"/><path d="m24.4236 29.472c-.4976-.7879-.4562-1.327.1244-1.8247.5806-.4561 1.2441-.4146 1.8247.166.0829.539.1244 1.0781-.2488 1.5343-.3733.5806-.9953.5806-1.7003.1244zm.6636-1.0367c.3731 0 .6634-.0415.7049-.4147.0415-.2488-.2074-.2903-.4147-.2903-.2902.0415-.622.1244-.6635.4147-.0829.3318.2488.2903.3733.2903z"/><path d="m23.9672 12.3039c-.6635-1.0368-.6635-1.6173.083-2.52971.2487-.29026.3731-.62199.3317-.99525-.0415-.33172.1244-.58059.4562-.74645.9123-.45612 2.1149-.24879 2.8199.49766.1244.66352.2073 1.3685.2073 2.03205.0415.7879-.2902 1.3684-.9537 1.7831-.9539.6636-1.9491.6221-2.9444-.0414zm-.0829-1.2856c.4146-.4977.8294-.9538 1.0367-1.53437.1244-.41466.4562-.53913.8708-.53913.3733 0 .788.04147 1.1612-.08293.1659-.04146.3318-.12439.2074-.29026-.2488-.41472-.705-.41472-1.1612-.37326-.4561.04147-.9538-.04146-1.2441.41473-.0414.04146 0 .1244 0 .16586.0415.58059-.2488.99525-.5805 1.36846-.2074.2074-.4562.4562-.2903.8709z"/><path d="m6.79831 6.8713c.37326-.53912.87092-.95384 1.4929-1.20264.95385-.24879 1.74179 0 2.44679.70499.0414.04146.0829.08293.0829.16586.0415.08293.0829.1244.1244.20733.4562 1.3685-.5806 1.94909-1.45144 2.57115-.82939.58059-1.6173.53912-2.48815-.1244-.45619-.74645-.45619-1.4929-.2074-2.32229zm.24886 1.36844c.3732-1.11964.82939-1.45144 1.90756-1.4929.29033 0 .58059-.08293.82938-.1244.12447 0 .24889 0 .29029-.12439 0-.08294-.08289-.16587-.16582-.2488-.083-.12439-.24886-.16593-.37326-.24886-1.24411-.41466-2.57108.70498-2.48815 2.23935z"/><path d="m9.78475 18.4828c-.87092-.9952-.91239-1.949-.16593-2.7369.82938-.8709 2.15638-.9539 3.11028-.166.2902.5392.539 1.1612.622 1.7833.0829.622-.1244 1.0367-.7879 1.2025-.9124.2074-1.8247.2904-2.77845-.0829zm2.40525-2.8614c-.705-.4976-1.3685-.2488-1.9491.083-.49762.2903-.78795.7465-.78795 1.4929.20733-.3732.37326-.6635.70495-.705.7465-.083 1.3271-.5806 2.0321-.8709z"/><path d="m20.4834 20.5565c.1244-1.3271 1.1612-2.1979 2.4882-2.0735.3317.0415.5805.1659.7465.4562.3317.4976.6219.9952.8293 1.5343.1659 1.4929-.9538 2.0321-1.9905 1.8661-1.0367-.2073-1.7832-.7464-2.0735-1.7831zm.4977.2488c.4146-.7879.5391-.9123 1.5343-.9123.2488 0 .4562-.083.6635-.1659.2488-.0829.2074-.3318.2074-.5391 0-.2074-.1244-.2903-.3318-.3318-1.0367-.2073-2.5711.705-2.0734 1.9491z"/><path d="m5.76229 12.8015c-.08293 0-.16587 0-.2488 0-.74645-.4147-.82938-.5805-.45619-1.4099.16593-.3733.41473-.705.70499-.9953.37326-.0415.66352 0 .99531.2074.74645.4976.70499 1.327 0 1.8246-.2074.1659-.49766.2488-.74645.3317-.12447-.0829-.2074-.0414-.24886.0415zm.24886-1.2855c.24879-.1244.70499.1659.70499-.3318 0-.3317-.37326-.3732-.66352-.4147-.37326-.0414-.62206.2074-.62206.5391.04147.3733.41466.1245.58059.2074z"/></g></svg>