<svg fill="none" height="70" viewBox="0 0 80 70" width="80" xmlns="http://www.w3.org/2000/svg"><g stroke="#29193e" stroke-linecap="round" stroke-linejoin="round" stroke-width="2.84773"><path d="m31.3796 32.6749c-2.0338-2.2852-6.4442-1.1427-6.4214 1.5996.0229 2.7422 7.1968 3.3249 7.1968 6.8992 0 3.5744-6.1558 3.7729-7.2976.8936"/><path d="m28.1094 31.4538v-2.5292"/><path d="m28.1094 46.7917v-2.1408"/><path d="m15 17.4039 12.496-10.4039 24.9913.00007v45.41613h-37.4873z"/><path d="m29.3223 15.8632h16.0296"/><path d="m23.4376 23.3707h22.3197"/><path d="m16.5938 18.2144h11.1051v-10.11824"/></g><path d="m55.3015 32.1751-17.7781-.6148c.6452 6.5279.1291 18.3982 3.2257 22.527s8.8384 5.6666 12.0166 6.6918z" fill="#8ad0ff"/><path d="m50.1936 32.1751 17.7781-.6148c-.6451 6.5279-.1291 18.3982-3.2257 22.527s-8.8082 5.6666-11.9864 6.6918z" fill="#8ad0ff"/></svg>