<svg fill="none" height="70" viewBox="0 0 60 70" width="60" xmlns="http://www.w3.org/2000/svg"><g stroke="#29193e" stroke-linecap="round" stroke-linejoin="round" stroke-width="2.84773"><ellipse cx="18.8734" cy="42.6892" rx="15.0726" ry="4.66975"/><ellipse cx="40.7903" cy="54.7132" rx="15.0726" ry="4.66975"/><path d="m33.9459 47.9828c0 2.579-6.7482 4.6697-15.0725 4.6697-8.3244 0-15.07262-2.0907-15.07262-4.6697"/><path d="m25.7178 55.6009v4.406c0 2.579 6.7482 4.6697 15.0725 4.6697 8.3244 0 15.0726-2.0907 15.0726-4.6697v-4.6931"/></g><path clip-rule="evenodd" d="m35.3698 43.2297c0-.7864-.6375-1.4239-1.4238-1.4239-.7864 0-1.4239.6375-1.4239 1.4239v8.25l2.8477-.7513zm-9.6515 15.2146c-2.0847.3169-4.408.4912-6.8449.4912-4.2643 0-8.1811-.5337-11.0793-1.4316-1.44049-.4463-2.70986-1.0069-3.6502-1.6957-.91065-.6671-1.76695-1.6522-1.76695-2.9664v-9.4413c0-.7864.63749-1.4239 1.42387-1.4239s1.42387.6375 1.42387 1.4239v9.4413c0 .0034.00014.0131.00698.034.00733.0224.02438.0632.06348.1224.08189.124.24268.3011.53154.5126.58509.4286 1.52305.8742 2.81016 1.273 2.55705.7922 6.17645 1.3039 10.23655 1.3039 2.7366 0 5.273-.2325 7.4188-.6266l-.6513 2.3796z" fill="#29193e" fill-rule="evenodd"/><circle cx="40.5804" cy="20.9388" fill="#8ad0ff" r="16.9388"/><path d="m43.6154 15.3175c-2.1192-2.3812-6.7149-1.1907-6.6911 1.6668.0239 2.8574 7.4991 3.4646 7.4991 7.189 0 3.7245-6.4143 3.9314-7.6041.9311" stroke="#29193e" stroke-linecap="round" stroke-linejoin="round" stroke-width="2.84773"/><path d="m40.208 14.0449v-2.6355" stroke="#29193e" stroke-linecap="round" stroke-linejoin="round" stroke-width="2.84773"/><path d="m40.208 30.027v-2.2307" stroke="#29193e" stroke-linecap="round" stroke-linejoin="round" stroke-width="2.84773"/></svg>