<svg fill="none" height="65" viewBox="0 0 70 65" width="70" xmlns="http://www.w3.org/2000/svg"><path d="m59.1314 29.849c1.3082 5.6883.697 11.6497-1.7385 16.9542-2.4354 5.3044-6.5581 9.6536-11.7247 12.3691-5.1667 2.7155-11.0869 3.6446-16.8371 2.6423-5.7501-1.0023-11.0068-3.8796-14.95-8.1831-3.94324-4.3034-6.35123-9.791-6.84833-15.6066s.94464-11.6323 4.10033-16.5425c3.1557-4.9102 7.8478-8.6379 13.3444-10.6016 5.4966-1.96361 11.4886-2.05275 17.0412-.2535l-8.1484 25.1464z" fill="#8ad0ff"/><path d="m66.0953 27.4226c-1.4187-5.5593-4.2302-10.6655-8.1694-14.837-3.9392-4.17147-8.8761-7.27067-14.3451-9.00521l-10.2104 32.19331z" stroke="#29193e" stroke-linecap="round" stroke-linejoin="round" stroke-width="2.84773"/></svg>