<svg width="38" height="38" viewBox="0 0 38 38" fill="none" xmlns="http://www.w3.org/2000/svg">
<circle cx="19" cy="19" r="18.25" fill="url(#paint0_linear)" stroke="url(#paint1_linear)" stroke-width="1.5"/>
<path d="M15.0195 8.37086C14.7325 8.32751 14.7188 8.31307 14.8555 8.29862C15.1151 8.25527 15.7165 8.31307 16.1401 8.4142C17.1241 8.65982 18.0124 9.29552 18.9553 10.408L19.2013 10.7114L19.5566 10.6536C21.0736 10.3936 22.6315 10.5958 23.9298 11.2315C24.2851 11.4049 24.8454 11.7517 24.9137 11.8383C24.941 11.8672 24.982 12.0551 25.0094 12.2429C25.105 12.9219 25.064 13.4276 24.8591 13.8177C24.7497 14.0344 24.7497 14.0922 24.8181 14.28C24.8727 14.4245 25.0367 14.5257 25.187 14.5257C25.515 14.5257 25.8567 13.9766 26.0207 13.2109L26.089 12.9075L26.212 13.052C26.909 13.8755 27.4556 15.0169 27.5376 15.826L27.5649 16.0427L27.4419 15.8549C27.2369 15.5226 27.0456 15.3058 26.786 15.118C26.3213 14.7857 25.8293 14.6846 24.5311 14.6123C23.3558 14.5401 22.6861 14.439 22.0302 14.2078C20.9096 13.8177 20.3356 13.312 19.01 11.4483C18.4223 10.6247 18.0533 10.1768 17.6844 9.8012C16.8781 8.97767 16.0718 8.54423 15.0195 8.37086Z" fill="#FF007A"/>
<path d="M25.2012 10.2063C25.2285 9.65725 25.2969 9.29606 25.4472 8.96375C25.5018 8.83372 25.5565 8.71814 25.5702 8.71814C25.5838 8.71814 25.5565 8.81927 25.5155 8.93486C25.4062 9.25271 25.3925 9.7006 25.4608 10.2063C25.5565 10.8564 25.5975 10.9431 26.2535 11.6511C26.5541 11.9834 26.9095 12.4024 27.0461 12.5757L27.2784 12.8936L27.0461 12.6624C26.7591 12.3735 26.1032 11.8244 25.9528 11.7522C25.8572 11.6944 25.8435 11.6944 25.7752 11.7666C25.7205 11.8244 25.7068 11.9111 25.7068 12.3301C25.6932 12.9803 25.6112 13.3848 25.4062 13.8038C25.2969 14.0205 25.2832 13.9772 25.3789 13.7316C25.4472 13.5437 25.4608 13.457 25.4608 12.8358C25.4608 11.5788 25.3242 11.2754 24.4906 10.7697C24.2856 10.6397 23.9302 10.4519 23.7252 10.3508C23.5066 10.2496 23.3426 10.1629 23.3563 10.1629C23.3836 10.134 24.1899 10.3796 24.5042 10.5241C24.9825 10.7264 25.0645 10.7408 25.1192 10.7264C25.1602 10.6831 25.1875 10.5675 25.2012 10.2063Z" fill="#FF007A"/>
<path d="M15.5803 12.3595C15.0064 11.5216 14.6374 10.2212 14.7194 9.25323L14.7467 8.94983L14.8834 8.97872C15.1294 9.02207 15.553 9.19544 15.758 9.32547C16.3046 9.67222 16.5506 10.149 16.783 11.3337C16.8513 11.6805 16.947 12.085 16.9879 12.2151C17.0563 12.4318 17.3159 12.9374 17.5346 13.2553C17.6849 13.4865 17.5893 13.602 17.2476 13.5732C16.7283 13.5154 16.0313 13.0097 15.5803 12.3595Z" fill="#FF007A"/>
<path d="M24.5043 18.6439C21.7984 17.4881 20.8418 16.4912 20.8418 14.8008C20.8418 14.5552 20.8555 14.3529 20.8555 14.3529C20.8691 14.3529 20.9648 14.4396 21.0878 14.5407C21.6344 15.0031 22.2494 15.2053 23.9577 15.4654C24.9553 15.6243 25.5293 15.7399 26.0486 15.9277C27.7022 16.5056 28.7271 17.6904 28.9731 19.2941C29.0415 19.7564 29.0005 20.6377 28.8911 21.1001C28.7955 21.4613 28.5221 22.1259 28.4538 22.1403C28.4401 22.1403 28.4128 22.0681 28.4128 21.9525C28.3855 21.3457 28.0985 20.7678 27.6202 20.3199C27.0462 19.7998 26.3082 19.4097 24.5043 18.6439Z" fill="#FF007A"/>
<path d="M22.5906 19.12C22.5633 18.9033 22.4949 18.6288 22.4539 18.5132L22.3856 18.2965L22.5086 18.4554C22.6862 18.6722 22.8229 18.9322 22.9459 19.2934C23.0416 19.5679 23.0416 19.6546 23.0416 20.1025C23.0416 20.5359 23.0279 20.6371 22.9459 20.8827C22.8092 21.2728 22.6453 21.5473 22.3719 21.8507C21.88 22.3852 21.2376 22.6742 20.322 22.8042C20.158 22.8187 19.6934 22.862 19.2834 22.8909C18.2584 22.9487 17.5751 23.0643 16.9602 23.2955C16.8782 23.3244 16.7962 23.3532 16.7825 23.3388C16.7552 23.3099 17.1788 23.0498 17.5205 22.8765C17.9988 22.6309 18.4908 22.5008 19.5704 22.2986C20.1034 22.2119 20.65 22.0963 20.7867 22.0385C22.1396 21.5906 22.8092 20.4781 22.5906 19.12Z" fill="#FF007A"/>
<path d="M23.8347 21.4466C23.4794 20.6231 23.3974 19.8429 23.5887 19.106C23.6161 19.0338 23.6434 18.9615 23.6707 18.9615C23.6981 18.9615 23.7801 19.0049 23.862 19.0627C24.026 19.1783 24.3677 19.3805 25.2423 19.8862C26.3493 20.5219 26.9779 21.0131 27.4152 21.5766C27.7979 22.0678 28.0302 22.6313 28.1395 23.3248C28.2078 23.7149 28.1668 24.654 28.0712 25.0441C27.7705 26.2722 27.0872 27.2546 26.0896 27.8181C25.9393 27.9048 25.8163 27.9626 25.8026 27.9626C25.789 27.9626 25.8436 27.8181 25.9256 27.6447C26.2536 26.9079 26.2946 26.1999 26.0486 25.4053C25.8983 24.9141 25.584 24.3217 24.9553 23.3248C24.2037 22.169 24.026 21.8656 23.8347 21.4466Z" fill="#FF007A"/>
<path d="M13.6522 25.8674C14.6635 24.9716 15.9071 24.3359 17.0551 24.1337C17.5471 24.047 18.367 24.0759 18.818 24.2059C19.5423 24.4082 20.1983 24.8416 20.5399 25.3762C20.8679 25.8963 21.0182 26.3442 21.1686 27.3411C21.2232 27.7312 21.2916 28.1357 21.3052 28.2224C21.4145 28.7425 21.6332 29.1471 21.9065 29.3638C22.3302 29.6961 23.0681 29.7105 23.7924 29.4216C23.9154 29.3782 24.0248 29.3349 24.0248 29.3493C24.0521 29.3782 23.6831 29.6383 23.4371 29.7683C23.0955 29.9562 22.8222 30.0139 22.4532 30.0139C21.7972 30.0139 21.2369 29.6527 20.7859 28.9304C20.6902 28.7859 20.4989 28.3669 20.3349 27.9768C19.8566 26.8065 19.6106 26.4598 19.0503 26.0697C18.5583 25.7374 17.9297 25.6651 17.4514 25.9107C16.8228 26.2286 16.6588 27.081 17.0961 27.6011C17.2737 27.8179 17.6017 27.9912 17.875 28.0346C18.3807 28.1068 18.818 27.6878 18.818 27.1533C18.818 26.8065 18.695 26.6042 18.367 26.4453C17.9297 26.243 17.4514 26.4742 17.4651 26.9221C17.4651 27.1099 17.5471 27.2255 17.7247 27.3122C17.834 27.37 17.834 27.37 17.752 27.3555C17.3557 27.2688 17.2601 26.7487 17.5744 26.4164C17.957 26.0119 18.7633 26.1853 19.0367 26.7487C19.146 26.9799 19.1596 27.4422 19.064 27.7312C18.8317 28.3669 18.1757 28.6992 17.5061 28.5114C17.0551 28.3813 16.8637 28.2513 16.3171 27.6589C15.3605 26.6187 14.9915 26.4164 13.6249 26.1997L13.3652 26.1564L13.6522 25.8674Z" fill="#FF007A"/>
<path fill-rule="evenodd" clip-rule="evenodd" d="M9.14397 7.99992C12.2531 11.8283 14.337 13.215 14.583 13.5618C14.788 13.8507 14.9247 13.9773 14.583 14.1796C14.3917 14.2952 13.9954 14.4108 13.804 14.4108C13.5854 14.4108 13.3257 14.2952 13.1481 14.1074C13.0251 13.9773 11.6808 11.9704 11.6808 11.9704L10.7144 10.5827L11.1481 11.5429C11.1481 11.5429 12.5878 14.194 12.5878 14.2807C12.5878 14.4686 12.5331 14.5697 12.3144 14.8298C11.9454 15.2632 11.7815 15.7544 11.6585 16.7802C11.5218 17.9216 11.1528 18.7307 10.1005 20.1032C9.48555 20.9123 9.38989 21.0568 9.23957 21.3891C9.04824 21.7936 8.99358 22.0248 8.96624 22.5449C8.93891 23.094 8.99358 23.4407 9.1439 23.9609C9.28056 24.4232 9.43089 24.7266 9.79987 25.319C10.1142 25.8391 10.3055 26.2292 10.3055 26.3736C10.3055 26.4892 10.3329 26.4892 10.8248 26.3736C12.0001 26.0847 12.9704 25.5935 13.5034 24.9867C13.8314 24.611 13.9134 24.4087 13.9134 23.8886C13.9134 23.5563 13.8997 23.484 13.8177 23.2818C13.681 22.9639 13.4214 22.7039 12.8611 22.2993C12.1231 21.7647 11.8088 21.3313 11.7268 20.7534C11.6585 20.2622 11.7405 19.9298 12.1504 19.0196C12.5741 18.0805 12.6834 17.6904 12.7517 16.7369C12.7927 16.13 12.8611 15.8844 13.0251 15.6966C13.2027 15.4943 13.3531 15.4221 13.7767 15.3643C14.4737 15.2632 14.9247 15.0754 15.28 14.7142C15.5943 14.4108 15.731 14.1074 15.7446 13.6595L15.7583 13.3272L15.5806 13.1249C14.9383 12.3447 8.72032 7.37866 8.67932 7.37866C8.66565 7.37866 8.88431 7.65317 9.14397 7.99992ZM10.6608 23.1662C10.8112 22.8917 10.7292 22.5449 10.4832 22.3716C10.2509 22.2126 9.89553 22.2849 9.89553 22.5016C9.89553 22.5594 9.92287 22.6172 10.0049 22.6461C10.1279 22.7183 10.1415 22.7905 10.0459 22.9495C9.9502 23.1084 9.9502 23.2529 10.0732 23.354C10.2645 23.5129 10.5242 23.4263 10.6608 23.1662Z" fill="#FF007A"/>
<path fill-rule="evenodd" clip-rule="evenodd" d="M16.1945 15.5658C15.8666 15.667 15.5522 16.0426 15.4566 16.4183C15.4019 16.6494 15.4292 17.0684 15.5249 17.1985C15.6752 17.4007 15.8119 17.4585 16.1945 17.4585C16.9462 17.4585 17.5885 17.1118 17.6568 16.6928C17.7251 16.346 17.4381 15.8692 17.0418 15.6525C16.8368 15.5369 16.4132 15.4936 16.1945 15.5658ZM17.0692 16.2882C17.1785 16.1149 17.1375 15.927 16.9325 15.797C16.5635 15.5514 16.0032 15.7537 16.0032 16.1293C16.0032 16.3171 16.2902 16.5194 16.5635 16.5194C16.7412 16.5194 16.9872 16.4038 17.0692 16.2882Z" fill="#FF007A"/>
<defs>
<linearGradient id="paint0_linear" x1="0" y1="0" x2="38" y2="38" gradientUnits="userSpaceOnUse">
<stop stop-color="#FCF8FA"/>
<stop offset="1" stop-color="#FEE9F3"/>
</linearGradient>
<linearGradient id="paint1_linear" x1="0" y1="0" x2="38" y2="38" gradientUnits="userSpaceOnUse">
<stop stop-color="#F9EDF4"/>
<stop offset="1" stop-color="#FCC1DD"/>
</linearGradient>
</defs>
</svg>
