<svg width="38" height="38" viewBox="0 0 38 38" fill="none" xmlns="http://www.w3.org/2000/svg">
<circle cx="19" cy="19" r="19" fill="#41365B"/>
<path fill-rule="evenodd" clip-rule="evenodd" d="M22.62 18.3728C23.4699 17.9128 24.0017 17.1027 23.8775 15.753C23.7102 13.9086 22.2112 13.2901 20.319 13.114L20.3187 10.5556H18.8525L18.8521 13.0467C18.4664 13.0467 18.0731 13.0548 17.6817 13.0631L17.6814 10.5559L16.2166 10.5558L16.2163 13.1135C15.8989 13.1204 15.5871 13.127 15.2827 13.127V13.1194L13.2605 13.1185L13.2607 14.7815C13.2607 14.7815 14.3434 14.7599 14.3256 14.7809C14.9192 14.7813 15.113 15.1476 15.1688 15.4637L15.1692 22.4722C15.1431 22.6705 15.0331 22.9875 14.6181 22.9881C14.6369 23.0058 13.5516 22.988 13.5516 22.988L13.2607 24.8475H15.1683C15.4012 24.8478 15.6314 24.8504 15.8588 24.853C15.9782 24.8543 16.0978 24.8557 16.2157 24.8567L16.217 27.4441L17.6814 27.4445L17.681 24.8843C18.0839 24.893 18.4728 24.8968 18.8526 24.8963L18.8522 27.4445H20.3183L20.3191 24.8615C22.7835 24.7111 24.5088 24.0515 24.7232 21.5927C24.8961 19.6132 24.0192 18.7296 22.62 18.3728ZM17.7167 14.8938C17.8004 14.8938 17.9022 14.8909 18.0177 14.8876C19.0433 14.8588 21.1441 14.7997 21.1445 16.4491C21.1441 18.0619 18.9595 18.0235 17.958 18.006C17.8669 18.0044 17.7857 18.0029 17.7167 18.0029V14.8938ZM17.7161 23.0008L17.7167 19.5726C17.8161 19.5725 17.9368 19.5695 18.0734 19.566C19.3026 19.5348 21.8263 19.4707 21.8266 21.2859C21.827 23.0608 19.2028 23.0216 18.0022 23.0037C17.8944 23.0021 17.798 23.0007 17.7161 23.0008Z" fill="white"/>
<path d="M19.0027 8.2821C15.9681 8.2821 13.2281 9.54326 11.2781 11.57L10.3949 10.7213C12.5678 8.46264 15.6211 7.05719 19.0027 7.05719C22.3862 7.05719 25.4411 8.46422 27.6142 10.7251L26.7352 11.5782C24.7848 9.54665 22.0414 8.2821 19.0027 8.2821Z" fill="white"/>
<path d="M9.59086 11.6474L10.4792 12.5011C9.1025 14.304 8.28479 16.5565 8.28479 19C8.28479 21.9125 9.44642 24.5536 11.3316 26.4853L10.4513 27.337C8.35275 25.1848 7.05988 22.2434 7.05988 19C7.05988 16.2269 8.00507 13.6745 9.59086 11.6474Z" fill="white"/>
<path d="M12.2374 27.3134L11.3514 28.1704C13.4237 29.9013 16.0916 30.9429 19.0027 30.9429C21.9226 30.9429 24.5978 29.8951 26.6727 28.1549L25.7869 27.298C23.9391 28.8105 21.5769 29.718 19.0027 29.718C16.4373 29.718 14.0824 28.8167 12.2374 27.3134Z" fill="white"/>
<path d="M27.571 27.3197L26.6907 26.468C28.566 24.5378 29.7207 21.9038 29.7207 19C29.7207 16.5607 28.9058 14.3118 27.5334 12.5105L28.4181 11.6518C30.0018 13.6782 30.9456 16.2289 30.9456 19C30.9456 22.2347 29.6596 25.1691 27.571 27.3197Z" fill="white"/>
<path fill-rule="evenodd" clip-rule="evenodd" d="M34.2027 19C34.2027 27.3948 27.3975 34.2 19.0027 34.2C10.608 34.2 3.80273 27.3948 3.80273 19C3.80273 10.6053 10.608 3.80005 19.0027 3.80005C27.3975 3.80005 34.2027 10.6053 34.2027 19ZM19.0027 33.1143C26.7978 33.1143 33.117 26.7952 33.117 19C33.117 11.2049 26.7978 4.88576 19.0027 4.88576C11.2076 4.88576 4.88845 11.2049 4.88845 19C4.88845 26.7952 11.2076 33.1143 19.0027 33.1143Z" fill="white"/>
</svg>
