<svg fill="none" height="33" viewBox="0 0 28 33" width="28" xmlns="http://www.w3.org/2000/svg" xmlns:xlink="http://www.w3.org/1999/xlink"><clipPath id="a"><path d="m0 0h28v33h-28z"/></clipPath><g clip-path="url(#a)" fill="#464d62"><path d="m21.6797 16.675h3.281v7.8562h-3.281z"/><path d="m15.4658 16.675h3.2813v7.8562h-3.2813z"/><path d="m9.25293 16.675h3.28127v7.8562h-3.28127z"/><path d="m3.03906 16.675h3.28104v7.8562h-3.28104z"/><path d="m26.0542 14.2141v-.8203h-24.10889v.8203c0 .4531.36722.8203.82031.8203h22.46828c.4528 0 .8203-.3672.8203-.8203z"/><path d="m27.1794 26.1719h-26.358111c-.453094 0-.82031244.3672-.82031244.8203v2.1875c0 .4531.36721844.8203.82031244.8203h26.358111c.4531 0 .8203-.3672.8203-.8203v-2.1875c0-.4531-.3672-.8203-.8203-.8203z"/><path d="m.820239 11.7532h26.359361c.367 0 .6894-.2438.7893-.5969.0998-.3531-.0467-.7297-.3593-.922l-13.1797-8.11253c-.2636-.16236-.5962-.16236-.86 0l-13.179684 8.11253c-.3125304.1925-.4590758.5689-.3591003.922.0999753.3531.4223323.5969.7891233.5969zm12.622161-4.92831h1.1153c.4531 0 .8203.36722.8203.82031 0 .4531-.3672.82032-.8203.82032h-1.1153c-.4531 0-.8203-.36722-.8203-.82032 0-.45309.3672-.82031.8203-.82031z"/></g></svg>