<svg fill="none" height="65" viewBox="0 0 70 65" width="70" xmlns="http://www.w3.org/2000/svg"><path d="m20.5425 24.9778c.1055-4.7252 1.6098-9.3131 4.3228-13.1834 2.7129-3.87036 6.5126-6.84929 10.9185-8.56011 4.406-1.71083 9.2203-2.07672 13.8342-1.0514s8.8202 3.39579 12.0869 6.81166c3.2666 3.41585 5.447 7.72375 6.2654 12.37875.8184 4.6551.2381 9.4483-1.6677 13.7735-1.9057 4.3252-5.0512 7.9882-9.0388 10.5257-3.9875 2.5375-8.638 3.8356-13.3632 3.7301l.5333-23.8914z" fill="#8ad0ff"/><path d="m4 26.2316h39.1857v27.3086h-39.1857z" stroke="#29193e" stroke-linecap="round" stroke-linejoin="round" stroke-width="2.84773"/><path d="m4 53.5056h39.1857v6.53001h-39.1857z" stroke="#29193e" stroke-linecap="round" stroke-linejoin="round" stroke-width="2.84773"/><circle cx="23.3863" cy="40.1404" fill="#8ad0ff" r="6.57771"/><path d="m19.918 38.1724 3.3873 3.6044 6.6684-5.7671" stroke="#29193e" stroke-linecap="round" stroke-linejoin="round" stroke-width="2.84773"/></svg>