<svg fill="none" height="60" viewBox="0 0 60 60" width="60" xmlns="http://www.w3.org/2000/svg"><circle cx="41.3907" cy="19.3585" r="15.6661" stroke="#29193e" stroke-linecap="round" stroke-linejoin="round" stroke-width="2.84773"/><path d="m44.1976 14.1594c-1.96-2.2023-6.2104-1.1012-6.1884 1.5415.0221 2.6427 6.9357 3.2043 6.9357 6.6489s-5.9324 3.636-7.0328.8612" stroke="#29193e" stroke-linecap="round" stroke-linejoin="round" stroke-width="2.84773"/><path d="m41.0459 12.9825v-2.4374" stroke="#29193e" stroke-linecap="round" stroke-linejoin="round" stroke-width="2.84773"/><path d="m41.0459 27.7638v-2.0631" stroke="#29193e" stroke-linecap="round" stroke-linejoin="round" stroke-width="2.84773"/><circle cx="20.7775" cy="37.8278" fill="#8ad0ff" r="18.9318"/><g fill="#29193e"><circle cx="11.3626" cy="29.1131" r="2.22978"/><circle r="2.90917" transform="matrix(-.66764 -.744484 -.744484 .66764 26.18 31.7081)"/><circle r="1.99443" transform="matrix(-.66764 -.744484 -.744484 .66764 22.6153 48.9217)"/><circle r="1.99443" transform="matrix(-.66764 -.744484 -.744484 .66764 9.91213 42.0814)"/><circle cx="17.8923" cy="37.371" r="1.17938"/><circle r="1.17938" transform="matrix(-.66764 -.744484 -.744484 .66764 32.3785 40.6812)"/></g></svg>