<svg fill="none" height="60" viewBox="0 0 60 60" width="60" xmlns="http://www.w3.org/2000/svg"><path d="m44.8967 29.6395c2.6899 3.4743 1.3271 4.367 1.0936 8.7547s-2.0364 8.5453-5.0799 11.7146c-3.0435 3.1692-7.1247 5.1388-11.4994 5.5497-4.3747.4108-8.7513-.7645-12.3316-3.3117-3.5803-2.5471-6.1258-6.2963-7.17211-10.5638-1.04635-4.2676-.52387-8.769 1.47211-12.6834 1.9961-3.9144 5.3326-6.9809 9.4012-8.6403 4.0685-1.6593 6.0549-.3964 10.2192 1.0056l-3.3016 15.9559z" stroke="#29193e" stroke-linecap="round" stroke-linejoin="round" stroke-width="2.84773"/><path d="m48.2889 24.796c1.5263 3.7835 1.7296 7.9716.5769 11.8852-1.1527 3.9135-3.5937 7.3228-6.9271 9.675-3.3334 2.3521-7.3637 3.5091-11.4372 3.2833s-7.9513-1.8212-11.0043-4.5273c-3.053-2.7062-5.1022-6.3644-5.8153-10.3814-.7131-4.0169-.0481-8.157 1.8869-11.7486 1.9351-3.5916 5.0268-6.4242 8.7737-8.0382s7.9292-1.9149 11.8685-.8537l-4.7077 17.477z" fill="#8ad0ff"/><path d="m44.0925 3.99999-5.3298 18.62861 18.0256-8.0712c-3.2285-5.81127-9.7364-9.12253-12.6958-10.55741z" stroke="#29193e" stroke-linecap="round" stroke-linejoin="round" stroke-width="2.84773"/></svg>