<svg fill="none" height="90" viewBox="0 0 72 90" width="72" xmlns="http://www.w3.org/2000/svg"><path d="m35.048 4c3.929 0 8.1911 1.35491 8.1911 1.35491l-.0174.09002c-.0094 0 0 .0221.0174.0679.1058.22266.5417 2.40663.5432 3.18674 0 1.16067.7896 1.90763.6933 2.02293-.938 1.0927.7501 1.1322-.0774 2.1997-.3674.4918-.5806 1.0815-.6127 1.6945-.0916 1.7576 1.4449 3.6431 3.1583 4.2842.7606.2654 1.4289.7439 1.925 1.3786.4201.4927.8133.7169.8528.8812.2005.8401-.068 1.1543.0457 1.6486.2653 1.1465 2.3577 2.2471 3.8137 1.7371 1.5381-.5354 1.895-2.6972 2.9199-2.5425.2068.03.3395.1406.5653.3285 1.0012.8354.6948 2.0529 1.2238 2.2108.3885.1169.9475-.4311 1.6471-1.1307.4532-.45.5811-.6885.9475-.8006.4895-.1579.9917.0584 1.336.259.0007-.0074.0007-.0148 0-.0221.6016 1.5791 1.9723 5.6328 1.9723 10.2645.0067 3.8294-.7426 7.6224-2.2049 11.1616s-3.6087 6.755-6.3164 9.4629c-2.7076 2.7079-5.9231 4.8548-9.4622 6.3174-3.539 1.4627-7.332 2.2124-11.1614 2.2061-1.4716.0005-2.9411-.1093-4.3963-.3284-6.8871-1.0473-13.1703-4.5297-17.7085-9.8149-4.53818-5.2852-7.03047-12.0227-7.02424-18.9889 0-16.0869 13.04064-29.1291 29.12904-29.1291zm21.9677 39.8294c.0158-.3426.0489-1.0612-.4738-1.5791-.3146-.2927-.7248-.4611-1.1543-.4738-1.0439-.06-1.7371.7596-1.8366.8717-.1311.1106-.8654.7485-.8701 1.7371-.0199.4245.1135.8421.3758 1.1765.5575.6616 1.4876.5874 1.7655.5653.5529-.0307 1.0776-.2542 1.4828-.6317.443-.4428.6976-1.0397.7107-1.666zm-23.6352 9.1591c.1437-.559-.2496-1.1591-.6586-1.4591-.619-.4532-1.5444-.4232-2.3071.0947-1.2996.2385-2.1413.8654-2.1192 1.4118s.9585.9475 1.178 1.0359c.9665.398 1.8682.1343 2.3072 0 .6553-.2037 1.4354-.4437 1.5997-1.0849zm-1.1765-43.31302c.1058-.10896.6316-.63956.5179-1.27122-.1184-.69641-.9159-1.03908-1.1306-1.13067-1.5981-.68536-3.4536.72483-3.6716.89538-.1042.15791-.45.7501-.2353 1.26332.2464.59851 1.0691.70751 1.7892.80061.6538.0916 1.9329.2574 2.7304-.55742zm-6.732 40.11052c.8086-.7548.7707-1.9424.7533-2.4951-.0805-2.4903-2.0971-4.1216-2.5898-4.5195-.6664-.5401-2.2345-1.8081-4.0963-1.4607-.4328.0843-.8471.2447-1.2239.4737-.4169.2669-1.3612.9554-1.6486 2.1193-.4422 1.797 1.0201 3.3651 1.7892 4.191.5985.6412 2.0276 1.9455 4.1437 2.2108.818.1011 2.0402.2543 2.8724-.5195zm-7.1567-29.426c.3427-1.3186.5069-1.9897.1879-2.5424-.5748-.9964-2.2739-1.3596-3.4362-.8464-.6806.3-1.2002 1.4907-2.2108 3.8594-.8149 1.9092-.9365 2.5267-.6585 3.1078.3711.7896 1.2396 1.0675 1.4591 1.1307 1.2633.36 2.3687-.4248 2.6372-.6127 1.1733-.8307 1.4986-2.0829 2.0213-4.0964z" fill="#c8975e"/><path d="m56.5454 42.2535c.5195.5148.4863 1.2333.4737 1.5792-.0106.628-.2641 1.2274-.7075 1.6723-.4052.3774-.9299.6009-1.4828.6317-.2779.0221-1.208.0963-1.7655-.5654-.2623-.3344-.3957-.7519-.3758-1.1764 0-.9933.739-1.6313.8701-1.7371.0932-.1121.7896-.9317 1.8366-.8717.4275.0117.8364.1778 1.1512.4674z" fill="#b66c43"/><path d="m52.8591 82.3167c.1855.3018.2951.644.3195.9974.0245.3533-.0369.7074-.1789 1.0318-.3995.9775-1.3439 1.4623-1.6013 1.5792l-7.2499.2211c-.6443-.1421-1.4512-.4185-2.0245-.9965-.3861-.404-.6334-.9207-.7058-1.4749-.1943-1.407-.2969-10.1271-.2353-22.0734 2.1896-.4695 4.3173-1.1918 6.3403-2.1524 0-.0995.1579 14.2819.1579 21.2033l.3774.2953c.9415-.2569 1.9362-.2444 2.8709.0363.3743.1279 1.3834.4611 1.9297 1.3328z" fill="#c8975e"/><path d="m32.7218 51.523c.409.3001.8022.9002.6585 1.4592-.1579.6411-.9475.8811-1.5997 1.0833-.439.1342-1.3407.3979-2.3071 0-.2195-.09-1.1544-.4738-1.1781-1.036-.0237-.5621.8196-1.1733 2.1192-1.4117.7628-.5132 1.6881-.5432 2.3072-.0948z" fill="#b66c43"/><path d="m32.7217 8.40267c.1074.63166-.4121 1.16226-.5179 1.27122-.8023.81641-2.0766.65061-2.7304.56371-.7201-.0931-1.5428-.2021-1.7892-.80058-.2147-.51954.1311-1.10541.2353-1.26332.2179-.17055 2.0734-1.57916 3.6715-.89538.2148.08527 1.0123.42795 1.1307 1.12435z" fill="#b66c43"/><path d="m30.6516 61.9296c.0585 11.7821-.0442 20.3601-.2368 21.7545-.0725.5542-.3198 1.0708-.7059 1.4749-.5733.578-1.3802.8543-2.0245.9964l-7.2515-.2211c-.2574-.1231-1.2001-.6079-1.5997-1.5791-.1424-.3244-.204-.6785-.1795-1.0319s.1343-.6957.3201-.9973c.5464-.8749 1.5539-1.2081 1.9313-1.3265.9347-.2807 1.9294-.2933 2.8709-.0363l.3774-.2953v-20.5148c2.0896.8431 4.2704 1.4393 6.4982 1.7765z" fill="#c8975e"/><path d="m26.2252 47.2909c.0174.5528.0553 1.7371-.7532 2.4951-.8086.758-2.0529.6206-2.8725.518-2.1161-.2669-3.5452-1.5713-4.1437-2.2108-.7691-.8259-2.2314-2.394-1.7892-4.1911.2874-1.1639 1.2317-1.8524 1.6486-2.1192.3768-.2291.7911-.3895 1.2239-.4738 1.8618-.3474 3.4299.9207 4.0963 1.4607.4927.3996 2.5093 2.0308 2.5898 4.5211z" fill="#b66c43"/><path d="m18.5032 17.8175c.3158.5527.1579 1.2239-.188 2.5425-.5227 2.0134-.848 3.2657-2.0244 4.0963-.2669.1879-1.3786.9728-2.6372.6127-.2195-.0632-1.0881-.3458-1.4592-1.1307-.2779-.5858-.1579-1.1985.6585-3.1077 1.0139-2.3688 1.5334-3.5595 2.2109-3.8595 1.1654-.5053 2.8645-.15 3.4394.8464z" fill="#b66c43"/><g stroke="#1d1d1b" stroke-width="1.2557"><path d="m62.2 22.8567c.6017 1.5791 1.9724 5.6328 1.9724 10.2645.0056 3.827-.7438 7.6175-2.2052 11.1544-1.4615 3.537-3.6063 6.7509-6.3117 9.4577-2.7053 2.7068-5.9181 4.8534-9.4542 6.3168-3.5362 1.4633-7.3263 2.2148-11.1533 2.2112-1.4716.0005-2.9411-.1093-4.3963-.3284-6.8871-1.0473-13.1703-4.5297-17.7085-9.8149-4.53818-5.2852-7.03047-12.0227-7.02424-18.9889 0-16.0869 13.04064-29.1291 29.12904-29.1291 3.929 0 8.1911 1.35491 8.1911 1.35491" stroke-miterlimit="10"/><path d="m62.1191 22.6387.0837.2132" stroke-miterlimit="10"/><path d="m43.2215 5.44482c-.0095 0 0 .02211.0174.06791.1058.22266.5416 2.40663.5432 3.18673 0 1.16068.7896 1.90764.6933 2.02294-.938 1.0927.7501 1.1322-.0774 2.1997-.3674.4918-.5807 1.0815-.6127 1.6945-.0916 1.7576 1.4449 3.6431 3.1583 4.2842.7606.2654 1.4288.7439 1.925 1.3786.42.4927.8132.7169.8527.8812.2006.8401-.0679 1.1543.0458 1.6486.2653 1.1465 2.3577 2.2471 3.8137 1.7371 1.5381-.5354 1.895-2.6972 2.9198-2.5425.2069.03.3395.1406.5654.3285 1.0012.8354.6948 2.0529 1.2238 2.2108.3885.1169.9475-.4311 1.6471-1.1307.4532-.45.5811-.6885.9475-.8006.4895-.1579.9917.0584 1.3359.259.0007-.0074.0007-.0148 0-.0221" stroke-miterlimit="10"/><path d="m15.0673 16.9711c-.6806.3-1.2001 1.4907-2.2108 3.8595-.8148 1.9092-.9364 2.5266-.6585 3.1077.3711.7896 1.2397 1.0675 1.4592 1.1307 1.2633.3601 2.3687-.4248 2.6372-.6127 1.1764-.8306 1.5017-2.0829 2.0244-4.0963.3427-1.3186.5069-1.9898.1879-2.5425-.5779-.9964-2.2771-1.3517-3.4394-.8464z" stroke-miterlimit="10"/><path d="m27.9195 8.16736c-.1042.15792-.45.7501-.2353 1.26333.2464.59851 1.0691.70741 1.7892.80061.6538.0869 1.9281.2527 2.7304-.56374.1058-.10896.6316-.63956.5179-1.27122-.1184-.69641-.9159-1.03908-1.1307-1.13067-1.5981-.67904-3.4536.73114-3.6715.90169z" stroke-miterlimit="10"/><path d="m18.3152 41.7813c-.4169.2669-1.3612.9554-1.6486 2.1192-.4422 1.7971 1.0201 3.3652 1.7892 4.1911.5985.6411 2.0276 1.9455 4.1437 2.2108.818.1026 2.0402.2558 2.8725-.518.8322-.7738.7706-1.9423.7532-2.495-.0805-2.4904-2.0971-4.1216-2.5898-4.5196-.6664-.54-2.2345-1.8081-4.0963-1.4607-.4327.0838-.847.2437-1.2239.4722z" stroke-miterlimit="10"/><path d="m30.4146 51.6225c-1.2997.2385-2.1414.8654-2.1193 1.4118.0222.5464.9586.9475 1.1781 1.0359.9664.398 1.8681.1343 2.3071 0 .6554-.2021 1.4355-.4421 1.5997-1.0833.1437-.559-.2495-1.1591-.6585-1.4591-.619-.4532-1.5444-.4232-2.3071.0947z" stroke-miterlimit="10"/><path d="m53.5547 42.653c-.1311.1105-.8654.7485-.8701 1.7371-.0199.4245.1135.842.3758 1.1764.5574.6617 1.4876.5875 1.7655.5654.5529-.0308 1.0776-.2543 1.4828-.6317.4433-.4449.6969-1.0443.7075-1.6723.0158-.3427.0489-1.0612-.4738-1.5792-.3146-.2926-.7248-.461-1.1543-.4737-1.0407-.0537-1.7403.7659-1.8334.878z" stroke-miterlimit="10"/><path d="m24.1534 60.0505v20.6112l-.3774.2953c-.9415-.257-1.9362-.2444-2.8709.0363-.3774.1184-1.3849.4516-1.9313 1.3265-.1858.3016-.2956.6439-.3201.9973s.0371.7075.1795 1.0319c.3996.9775 1.3423 1.4623 1.5997 1.5791l7.2515.2211c.6443-.1421 1.4512-.4184 2.0245-.9964.3861-.4041.6334-.9207.7059-1.475.1926-1.3943.2953-9.9723.2368-21.7544 0-.1105 0-.2211 0-.3316" stroke-miterlimit="10"/><path d="m47.5235 59.4583c0-.0995.158 14.2819.158 21.2033l.3774.2953c.9415-.257 1.9362-.2444 2.8709.0363.3774.1184 1.3849.4516 1.9313 1.3265.1854.3018.295.644.3195.9973.0245.3534-.0369.7074-.179 1.0319-.3995.9775-1.3438 1.4623-1.6012 1.5792l-7.2499.221c-.6443-.1421-1.4513-.4184-2.0245-.9964-.3862-.4041-.6334-.9207-.7059-1.4749-.1942-1.4071-.2969-10.1271-.2353-22.0734v-.0127" stroke-miterlimit="10"/><path d="m51.6913 12.2273c-.6791.4327-1.0912 1.1322-1.036 1.8365.0585.747.6206 1.2018.9475 1.4592.2859.2321 1.1923.9632 2.0245.6127.9696-.409.9475-1.9108.9475-2.0245-.0079-.2716-.0395-1.3597-.9475-1.8839-.908-.5243-1.8602-.0379-1.936 0z" fill="#a76944" stroke-miterlimit="10"/><path d="m58.2699 16.4249c-.076.2551-.081.526-.0145.7836.0665.2577.202.4923.3919.6787.4137.3822 1.1749.5701 1.5523.188.3363-.338.2384-.9902-.0458-1.3644-.3711-.4912-1.1575-.6412-1.8839-.2859z" fill="#a76944" stroke-miterlimit="10"/><path d="m56.041 10.0623c.0051.1511.0437.2992.1131.4336s.1678.2517.288.3433c.2574.1816.687.2795.9886.0474.3363-.2606.36-.8101.0947-1.15436-.1432-.17345-.3468-.28618-.5698-.31548s-.4488.027-.6319.15757c-.1484.12462-.2484.29727-.2827.48797z" fill="#a76944" stroke-miterlimit="10"/><path d="m54.4451 12.769 1.3881 1.036.2116 1.3422-.259.9175s-.5448.4233-.6317.3775c-.0868-.0458-1.6707-.2369-1.6707-.2369l.9175-.7991.3758-1.3186z" fill="#a76944" stroke-miterlimit="10"/><path d="m25.8936 31.7947c.8904 0 1.6123-.7219 1.6123-1.6123 0-.8905-.7219-1.6123-1.6123-1.6123-.8905 0-1.6124.7218-1.6124 1.6123 0 .8904.7219 1.6123 1.6124 1.6123z" fill="#1d1d1b" stroke-linecap="round" stroke-linejoin="round"/><path d="m45.0567 31.7947c.8904 0 1.6123-.7219 1.6123-1.6123 0-.8905-.7219-1.6123-1.6123-1.6123-.8905 0-1.6124.7218-1.6124 1.6123 0 .8904.7219 1.6123 1.6124 1.6123z" fill="#1d1d1b" stroke-linecap="round" stroke-linejoin="round"/></g><path d="m32.9863 33.9424.0758 1.1054c.0253.3663 0 .7659.1374 1.1054.1004.2773.255.5319.4548.7488s.4409.3918.7091.5145c.4986.2321 1.0673.2638 1.5886.0884.2987-.109.5719-.2782.8025-.4971.2306-.219.4138-.483.5382-.7757.0703-.1409.131-.2866.1816-.4358.0443-.2144.0571-.4341.0379-.6522l.0142-1.3075c0-.1571-.0624-.3077-.1735-.4188-.111-.111-.2616-.1734-.4187-.1734-.157 0-.3077.0624-.4187.1734-.1111.1111-.1735.2617-.1735.4188 0 .3274-.0037.6543-.011.9806v.458c-.0048.0762-.0048.1527 0 .229.011.0884.0347-.0553 0 0 0 .0079-.0363.0994-.0174.0489.019-.0505-.0095.0221-.0142.0316-.0158.0379-.0332.0742-.0505.1105-.0477.0975-.1004.1923-.158.2843-.0297.0493-.0624.0968-.0979.1421.0695-.0884-.0268.0253-.0537.0521-.0268.0269-.131.1058-.0394.0442-.0537.0364-.1074.0711-.1579.1027l-.0901.0458c.0221-.0111.1058-.0363 0 0-.0584.0189-.1168.0363-.1768.0505l-.079.0158c.0253 0 .1137 0 0 0-.0742 0-.1484 0-.2226 0-.0222 0-.1122-.0174-.0127 0l-.0868-.0174-.0442-.011c-.0411-.0127-.0806-.0285-.1201-.0427-.0773-.0237.1501.0727.0348.0142-.0316-.0157-.0648-.03-.0963-.0473-.0316-.0174-.0711-.0395-.1043-.0616-.0331-.0221-.1579-.0932-.0805-.0505.0774.0426-.0458-.0395-.0663-.0585-.0206-.0189-.0727-.0726-.1074-.1105-.0127-.0142-.0695-.09-.0253-.0284.0442.0615 0 0-.0079-.0158s-.0363-.0537-.0521-.0821c-.0158-.0285-.0663-.1264-.0395-.0695.0269.0568-.011-.0285-.0126-.0332-.0126-.0379-.0237-.0758-.0347-.1153-.0111-.0394-.0111-.041-.0158-.0616.03.1248 0-.0126 0-.0426l-.0379-.5527-.0758-1.1054c-.0029-.1562-.0662-.3052-.1766-.4156-.1105-.1105-.2595-.1738-.4156-.1766-.3016.0142-.6143.2621-.5922.5922z" fill="#1d1d1b"/></svg>