<svg xmlns="http://www.w3.org/2000/svg" xmlns:xlink="http://www.w3.org/1999/xlink" width="527" height="608" fill="none" xmlns:v="https://vecta.io/nano"><style><![CDATA[.B{fill:#fff}.C{opacity:.1}.D{fill:#f75f71}.E{fill:#26a675}.F{fill-rule:evenodd}.G{fill:#8b8b8b}.H{fill:#343434}.I{fill:#0096fa}.J{stroke-width:.328}.K{fill:#636f8c}.L{fill:#8695ac}.M{fill:#49413b}.N{stroke:#8695ac}]]></style><g filter="url(#A)"><path d="M6 49C6 25.252 25.252 6 49 6h401c23.748 0 43 19.252 43 43v482c0 23.748-19.252 43-43 43H49c-23.748 0-43-19.252-43-43V49z" fill="url(#B)"/></g><g filter="url(#A)" class="F"><path d="M450 7H49C25.804 7 7 25.804 7 49v482c0 23.196 18.804 42 42 42h401c23.196 0 42-18.804 42-42V49c0-23.196-18.804-42-42-42zM49 6C25.252 6 6 25.252 6 49v482c0 23.748 19.252 43 43 43h401c23.748 0 43-19.252 43-43V49c0-23.748-19.252-43-43-43H49z" fill="url(#C)"/></g><path d="M55.587 464.156a14.14 14.14 0 0 1-10.248 4.154 13.88 13.88 0 0 1-5.513-1.027 13.89 13.89 0 0 1-4.657-3.127 13.8 13.8 0 0 1-3.141-4.66c-.717-1.752-1.065-3.634-1.025-5.527 0-4.146 1.388-7.6 4.165-10.362 1.325-1.346 2.91-2.408 4.659-3.12s3.624-1.06 5.511-1.022a14.15 14.15 0 0 1 5.544 1.028c1.761.712 3.36 1.771 4.704 3.114 2.841 2.762 4.261 6.216 4.261 10.362.037 1.901-.323 3.79-1.057 5.544a13.66 13.66 0 0 1-3.204 4.643h0z" fill="#dfe3eb"/><path d="M45.425 443.996l-5.77 9.832 5.77-2.694v-7.138z" class="G"/><path d="M45.425 451.133l-5.77 2.695 5.77 3.501v-6.196z" fill="#393939"/><path d="M45.426 443.995v7.139l5.764 2.694-5.764-9.833z" class="H"/><path d="M45.426 451.133v6.196l5.764-3.501-5.764-2.695z" fill="#161616"/><path d="M39.655 454.95l5.77 8.352v-4.848l-5.77-3.504z" class="G"/><path d="M51.196 454.95l-5.77 3.504v4.848l5.77-8.352z" class="H"/><g class="K"><path d="M48.572 388.583H45.58v1.943c.131-.182.324-.329.58-.443.256-.119.531-.179.827-.179.472 0 .855.099 1.151.298s.506.446.631.759a2.47 2.47 0 0 1 .196.98 2.54 2.54 0 0 1-.23 1.1 1.74 1.74 0 0 1-.707.767c-.313.188-.702.281-1.168.281-.597 0-1.08-.153-1.449-.46s-.594-.716-.673-1.227h.759c.074.323.23.576.469.758s.54.273.904.273c.449 0 .787-.134 1.014-.401s.341-.63.341-1.074-.114-.784-.341-1.023-.563-.366-1.006-.366a1.43 1.43 0 0 0-.793.221 1.24 1.24 0 0 0-.486.589h-.733v-3.478h3.708v.682zm5.745.818l-2.813 6.87h-.801l.921-2.25-1.884-4.62h.861l1.466 3.785 1.449-3.785h.801zm19.626-.784v-.708h1.603v6.163h-.784v-5.455h-.818zm7.257.784l-2.813 6.87h-.801l.921-2.25-1.884-4.62h.861l1.466 3.785 1.449-3.785h.801zm25.889-.025c-.125-.631-.514-.947-1.167-.947-.506 0-.884.196-1.134.589-.25.386-.372 1.025-.367 1.917.131-.295.347-.525.648-.69.307-.17.648-.256 1.023-.256.585 0 1.051.182 1.398.546.352.364.529.866.529 1.509 0 .386-.077.733-.231 1.04-.147.306-.375.551-.682.733-.301.181-.667.272-1.099.272-.585 0-1.043-.13-1.372-.392s-.56-.622-.691-1.082-.196-1.029-.196-1.705c0-2.086.727-3.128 2.182-3.128.557 0 .995.15 1.313.451s.506.682.562 1.143h-.716zm-1.159 1.27c-.244 0-.474.051-.69.153a1.27 1.27 0 0 0-.529.452c-.13.199-.196.443-.196.733 0 .432.125.784.375 1.057.25.267.608.401 1.074.401.398 0 .713-.123.946-.367.239-.25.358-.585.358-1.006 0-.443-.113-.79-.341-1.04s-.559-.383-.997-.383zm9.051-1.33c.363 0 .687.077.971.23s.509.372.674.673.247.668.247 1.1v2.753h-.767v-2.642c0-.466-.117-.821-.35-1.066-.227-.25-.537-.375-.929-.375-.403 0-.724.131-.963.392s-.358.628-.358 1.117v2.574h-.767v-2.642c0-.466-.117-.821-.35-1.066-.227-.25-.537-.375-.929-.375-.403 0-.724.131-.963.392s-.358.628-.358 1.117v2.574h-.776v-4.671h.776v.674c.153-.245.358-.432.614-.563a1.89 1.89 0 0 1 .861-.196c.392 0 .738.088 1.04.264s.525.435.673.776c.131-.33.347-.585.648-.767s.636-.273 1.006-.273zm18.818.145c.04-.523.241-.932.605-1.228s.835-.443 1.415-.443c.386 0 .719.071.997.213.284.137.498.324.64.563s.221.508.221.81c0 .352-.102.656-.307.912-.199.255-.46.42-.784.494v.043c.37.091.662.27.878.537s.324.616.324 1.048a1.75 1.75 0 0 1-.222.878c-.147.256-.369.458-.664.605s-.651.222-1.066.222c-.602 0-1.097-.156-1.483-.469s-.602-.767-.648-1.347h.75c.04.341.179.62.418.836s.557.324.955.324.699-.103.903-.307c.21-.211.315-.48.315-.81 0-.426-.142-.733-.426-.921s-.713-.281-1.287-.281h-.196v-.648h.205c.522-.005.917-.091 1.185-.255.267-.171.4-.432.4-.785 0-.301-.099-.542-.298-.724-.193-.182-.472-.273-.836-.273-.352 0-.636.091-.852.273s-.344.426-.384.733h-.758zm10.952-.145c.364 0 .688.077.972.23s.508.372.673.673.247.668.247 1.1v2.753h-.767v-2.642c0-.466-.116-.821-.349-1.066-.228-.25-.537-.375-.929-.375-.404 0-.725.131-.964.392s-.358.628-.358 1.117v2.574h-.767v-2.642c0-.466-.116-.821-.349-1.066s-.537-.375-.929-.375c-.404 0-.725.131-.964.392s-.358.628-.358 1.117v2.574h-.775v-4.671h.775v.674a1.54 1.54 0 0 1 .614-.563c.262-.131.548-.196.861-.196.392 0 .739.088 1.04.264s.526.435.673.776c.131-.33.347-.585.648-.767s.637-.273 1.006-.273zm23.156-.733h-2.992v1.943c.131-.182.324-.329.58-.443.256-.119.531-.179.827-.179.471 0 .855.099 1.15.298s.506.446.631.759a2.47 2.47 0 0 1 .196.98c0 .409-.077.776-.23 1.1a1.74 1.74 0 0 1-.707.767c-.313.188-.702.281-1.168.281-.597 0-1.08-.153-1.449-.46s-.594-.716-.674-1.227h.759c.074.323.23.576.469.758s.54.273.903.273c.449 0 .787-.134 1.015-.401s.341-.63.341-1.074-.114-.784-.341-1.023-.563-.366-1.006-.366a1.42 1.42 0 0 0-.793.222c-.222.142-.384.338-.486.588h-.733v-3.478h3.708v.682zm1.431 3.137c0-.478.097-.895.29-1.253.194-.364.458-.645.793-.844.341-.199.722-.299 1.142-.299.364 0 .702.086 1.015.256s.551.384.716.656v-2.471h.784v6.307h-.784v-.878a1.85 1.85 0 0 1-.682.691c-.301.176-.654.264-1.057.264-.415 0-.793-.102-1.134-.307-.335-.204-.599-.491-.793-.861s-.29-.79-.29-1.261zm3.956.008c0-.352-.071-.659-.213-.92a1.47 1.47 0 0 0-.58-.597c-.239-.142-.503-.213-.793-.213s-.554.068-.793.204-.429.336-.571.597-.213.568-.213.921a1.98 1.98 0 0 0 .213.937 1.51 1.51 0 0 0 .571.605c.238.142.503.205.793.205s.554-.068.793-.205a1.53 1.53 0 0 0 .58-.605 1.95 1.95 0 0 0 .213-.929zm234.039 1.714h2.08v.63h-2.855v-5.941h.775v5.311zm5.112.707c-.438 0-.836-.099-1.194-.298a2.17 2.17 0 0 1-.835-.844c-.199-.37-.298-.796-.298-1.279 0-.477.102-.898.306-1.261.211-.37.495-.651.853-.844a2.43 2.43 0 0 1 1.202-.299c.443 0 .844.1 1.202.299.358.193.639.471.843.835.211.364.316.787.316 1.27s-.108.909-.324 1.279c-.21.363-.497.645-.861.844a2.48 2.48 0 0 1-1.21.298zm0-.682c.278 0 .539-.065.784-.196a1.47 1.47 0 0 0 .588-.588c.153-.262.23-.58.23-.955s-.074-.693-.222-.954-.34-.455-.579-.58c-.239-.131-.497-.196-.776-.196s-.545.065-.784.196c-.233.125-.421.318-.563.58s-.213.579-.213.954c0 .381.068.702.205.963s.329.458.562.589a1.6 1.6 0 0 0 .768.187zm5.512-4.143a2.06 2.06 0 0 1 1.057.265c.306.176.534.397.681.665v-.853h.785v4.774c0 .426-.091.804-.273 1.133a1.92 1.92 0 0 1-.784.784c-.336.188-.728.282-1.177.282-.613 0-1.125-.145-1.534-.435s-.651-.685-.724-1.185h.767a1.2 1.2 0 0 0 .528.682 1.71 1.71 0 0 0 .963.264c.427 0 .773-.133 1.04-.4.273-.267.409-.642.409-1.125v-.981c-.153.273-.38.5-.681.682s-.654.273-1.057.273c-.415 0-.793-.102-1.134-.307-.335-.204-.6-.491-.793-.861s-.29-.79-.29-1.261c0-.478.097-.895.29-1.253.193-.364.458-.645.793-.844a2.21 2.21 0 0 1 1.134-.299zm1.738 2.404c0-.352-.071-.659-.213-.92s-.335-.461-.579-.597c-.239-.142-.503-.213-.793-.213s-.554.068-.793.204-.429.336-.571.597-.213.568-.213.921a1.98 1.98 0 0 0 .213.937 1.52 1.52 0 0 0 .571.606c.239.136.503.204.793.204s.554-.068.793-.204a1.53 1.53 0 0 0 .579-.606c.142-.267.213-.576.213-.929zm20.095 1.023h-2.591l-.477 1.321h-.819l2.148-5.907h.895l2.14 5.907h-.818l-.478-1.321zm-.221-.631l-1.074-3-1.074 3h2.148zm6.766-2.719v4.671h-.776v-.69a1.53 1.53 0 0 1-.622.562 1.91 1.91 0 0 1-.869.196 2.12 2.12 0 0 1-.98-.221c-.29-.154-.52-.381-.691-.682-.165-.301-.247-.668-.247-1.1v-2.736h.767v2.634c0 .46.117.815.35 1.066.233.244.551.366.954.366.415 0 .742-.128.98-.384s.358-.627.358-1.116v-2.566h.776zm2.426.639v2.754c0 .227.049.389.145.486.097.09.265.136.503.136h.571v.656h-.699c-.431 0-.755-.099-.971-.298s-.324-.526-.324-.98v-2.754h-.605v-.639h.605v-1.176h.775v1.176h1.219v.639h-1.219zm4.367 4.109a2.41 2.41 0 0 1-1.193-.298c-.353-.199-.631-.481-.836-.844-.199-.37-.298-.796-.298-1.279 0-.477.102-.898.307-1.261.21-.37.494-.651.852-.844.358-.199.759-.299 1.202-.299s.844.1 1.202.299c.358.193.639.471.844.835s.315.787.315 1.27-.108.909-.324 1.279c-.21.363-.497.645-.861.844a2.48 2.48 0 0 1-1.21.298zm0-.682c.278 0 .54-.065.784-.196a1.46 1.46 0 0 0 .588-.588c.154-.262.23-.58.23-.955s-.073-.693-.221-.955-.341-.454-.58-.579c-.238-.131-.497-.196-.775-.196-.285 0-.546.065-.785.196-.233.125-.42.318-.562.579s-.213.58-.213.955c0 .381.068.702.204.963.142.262.33.458.563.589.233.125.489.187.767.187z"/><use xlink:href="#M"/><use xlink:href="#N"/><path d="M435.641 200.54c0-.827.134-1.471.403-1.933s.741-.699 1.414-.699 1.137.233 1.407.699.403 1.106.403 1.933c0 .842-.134 1.496-.403 1.962s-.739.7-1.407.7-1.144-.234-1.414-.7-.403-1.12-.403-1.962zm2.978 0c0-.418-.029-.772-.086-1.06s-.166-.529-.339-.707-.414-.267-.736-.267-.577.089-.75.267a1.4 1.4 0 0 0-.339.707c-.053.288-.079.642-.079 1.06 0 .433.026.796.079 1.089a1.36 1.36 0 0 0 .339.707c.168.178.423.267.75.267s.567-.089.736-.267a1.32 1.32 0 0 0 .339-.707c.057-.293.086-.656.086-1.089zm1.55 0c0-.827.135-1.471.404-1.933s.741-.699 1.414-.699 1.137.233 1.407.699.403 1.106.403 1.933c0 .842-.134 1.496-.403 1.962s-.739.7-1.407.7-1.144-.234-1.414-.7-.404-1.12-.404-1.962zm2.979 0c0-.418-.029-.772-.086-1.06s-.166-.529-.339-.707-.414-.267-.736-.267-.577.089-.75.267a1.4 1.4 0 0 0-.339.707c-.053.288-.079.642-.079 1.06 0 .433.026.796.079 1.089a1.36 1.36 0 0 0 .339.707c.168.178.423.267.75.267s.567-.089.736-.267a1.32 1.32 0 0 0 .339-.707c.057-.293.086-.656.086-1.089z"/><use xlink:href="#O"/><path d="M446.213 200.54c0-.827.134-1.471.404-1.933s.74-.699 1.413-.699 1.138.233 1.407.699.404 1.106.404 1.933c0 .842-.135 1.496-.404 1.962s-.738.7-1.407.7-1.144-.234-1.413-.7-.404-1.12-.404-1.962zm2.979 0a5.48 5.48 0 0 0-.087-1.06c-.053-.293-.166-.529-.339-.707s-.413-.267-.736-.267-.577.089-.75.267a1.4 1.4 0 0 0-.339.707c-.053.288-.079.642-.079 1.06 0 .433.026.796.079 1.089.058.294.171.529.339.707.173.178.423.267.75.267s.568-.089.736-.267a1.32 1.32 0 0 0 .339-.707c.058-.293.087-.656.087-1.089z"/><use xlink:href="#P"/><use xlink:href="#M" x="-59.343" y="158.92"/><use xlink:href="#Q"/><path d="M304.975 361.595l1.435-1.204a5.91 5.91 0 0 0 .873-.989c.24-.346.36-.685.36-1.017 0-.312-.077-.557-.231-.735s-.391-.274-.728-.274c-.327 0-.582.103-.765.31-.177.202-.274.473-.288.815h-.635c.019-.539.183-.955.491-1.248s.704-.44 1.19-.44c.495 0 .887.137 1.175.411.294.274.44.652.44 1.133 0 .399-.12.788-.36 1.168a5.14 5.14 0 0 1-.808.995l-1.161.996h2.481v.548h-3.469v-.469zm4.228-2.135c0-.827.134-1.471.403-1.933s.741-.699 1.414-.699 1.137.233 1.407.699.404 1.106.404 1.933c0 .842-.135 1.496-.404 1.962s-.738.7-1.407.7-1.144-.234-1.414-.7-.403-1.12-.403-1.962zm2.978 0c0-.418-.028-.772-.086-1.06s-.166-.529-.339-.707-.414-.267-.736-.267-.577.089-.75.267a1.4 1.4 0 0 0-.339.707c-.053.288-.079.642-.079 1.06 0 .433.026.796.079 1.089a1.36 1.36 0 0 0 .339.707c.168.178.423.267.75.267s.568-.089.736-.267a1.32 1.32 0 0 0 .339-.707c.058-.293.086-.656.086-1.089zm1.471 2.135l1.436-1.204a5.86 5.86 0 0 0 .872-.989c.241-.346.361-.685.361-1.017 0-.312-.077-.557-.231-.735s-.392-.274-.728-.274c-.327 0-.582.103-.765.31s-.274.473-.288.815h-.635c.019-.539.183-.955.49-1.248s.705-.44 1.19-.44c.496 0 .888.137 1.176.411s.44.652.44 1.133c0 .399-.12.788-.361 1.168-.235.375-.504.707-.807.995l-1.162.996h2.481v.548h-3.469v-.469z"/><use xlink:href="#M" x="-110.914" y="158.92"/><use xlink:href="#M" x="-179.849" y="158.92"/><use xlink:href="#Q" x="-120.506"/><path d="M185.114 360.131c0-.404.082-.757.245-1.06s.388-.546.671-.714a1.88 1.88 0 0 1 .967-.253c.307 0 .594.072.858.217.264.139.466.324.606.555v-2.092h.663v5.338h-.663v-.743c-.13.235-.322.43-.577.584a1.74 1.74 0 0 1-.894.224c-.351 0-.671-.087-.96-.26-.283-.173-.507-.416-.671-.729s-.245-.668-.245-1.067zm3.347.007c0-.298-.06-.558-.18-.779a1.25 1.25 0 0 0-.491-.505c-.202-.12-.425-.18-.671-.18a1.33 1.33 0 0 0-.67.173 1.26 1.26 0 0 0-.484.505c-.12.221-.18.481-.18.779s.06.567.18.793.282.392.484.512a1.32 1.32 0 0 0 .67.174 1.32 1.32 0 0 0 .671-.174 1.29 1.29 0 0 0 .491-.512c.12-.226.18-.488.18-.786zm5.379-.144c0 .125-.007.257-.022.397h-3.159c.024.389.156.694.397.916.245.216.541.324.887.324.284 0 .519-.065.707-.195a1.06 1.06 0 0 0 .404-.533h.707c-.106.38-.318.69-.635.93s-.712.354-1.183.354c-.375 0-.712-.085-1.01-.253s-.524-.406-.692-.714-.253-.673-.253-1.082.082-.767.246-1.075.391-.543.685-.706c.298-.169.639-.253 1.024-.253.375 0 .707.082.995.245s.51.39.664.678a2.01 2.01 0 0 1 .238.967zm-.678-.137c0-.25-.055-.464-.166-.642s-.262-.32-.454-.411a1.36 1.36 0 0 0-.628-.144c-.332 0-.615.105-.851.317s-.363.505-.397.88h2.496zm1.299.281c0-.409.082-.764.245-1.067a1.77 1.77 0 0 1 .678-.714c.294-.169.628-.253 1.003-.253.485 0 .885.118 1.197.354a1.66 1.66 0 0 1 .628.981h-.707a1.01 1.01 0 0 0-.397-.57c-.192-.14-.433-.209-.721-.209-.375 0-.678.129-.909.389s-.346.618-.346 1.089.115.844.346 1.104.534.389.909.389c.288 0 .529-.067.721-.202s.325-.327.397-.577h.707c-.106.404-.318.729-.635.974s-.714.361-1.19.361c-.375 0-.709-.085-1.003-.253a1.77 1.77 0 0 1-.678-.714c-.163-.308-.245-.668-.245-1.082zm-127.199-2.041c.481 0 .87.147 1.168.44s.447.707.447 1.255v2.33h-.649v-2.236c0-.395-.099-.695-.296-.902s-.466-.317-.808-.317-.623.108-.83.324-.303.532-.303.945v2.186h-.656v-3.953h.656v.563c.13-.202.305-.359.526-.469a1.66 1.66 0 0 1 .743-.166zm4.411 4.089c-.37 0-.707-.084-1.01-.252a1.83 1.83 0 0 1-.707-.714 2.25 2.25 0 0 1-.252-1.082c0-.404.087-.76.26-1.067a1.8 1.8 0 0 1 .721-.714 2.05 2.05 0 0 1 1.017-.253 2.05 2.05 0 0 1 1.017.253 1.77 1.77 0 0 1 .714.706 2.11 2.11 0 0 1 .267 1.075c0 .409-.091.769-.274 1.082a1.85 1.85 0 0 1-.728.714 2.1 2.1 0 0 1-1.024.252zm0-.577a1.39 1.39 0 0 0 .663-.165c.207-.111.373-.277.498-.498a1.62 1.62 0 0 0 .195-.808 1.62 1.62 0 0 0-.187-.808c-.125-.221-.288-.384-.49-.49a1.34 1.34 0 0 0-.656-.166c-.24 0-.462.055-.664.166s-.356.269-.476.49-.18.491-.18.808.058.594.173.815.279.387.476.498a1.35 1.35 0 0 0 .649.158zm4.361-.093l1.226-3.347h.7l-1.551 3.953h-.765l-1.551-3.953h.707l1.233 3.347zm52.233-4.01v-.599h1.356v5.215h-.664v-4.616h-.692zm2.324 3.454v-.497l2.532-3.506h.786v3.434h.721v.569h-.721v1.162h-.649v-1.162h-2.669zm2.698-3.317l-1.94 2.748h1.94v-2.748zm295.426-24.831l1.435-1.204c.346-.318.637-.647.873-.988s.36-.685.36-1.017c0-.313-.076-.558-.23-.736s-.392-.274-.729-.274c-.327 0-.582.103-.764.31s-.274.474-.289.815h-.635c.02-.538.183-.954.491-1.248s.704-.44 1.19-.44c.495 0 .887.137 1.176.412s.44.651.44 1.132c0 .399-.121.788-.361 1.168a5.18 5.18 0 0 1-.808.996l-1.161.995h2.481v.548h-3.469v-.469zm4.228-2.135c0-.827.134-1.471.404-1.933s.74-.699 1.413-.699 1.138.233 1.407.699.404 1.106.404 1.933c0 .842-.135 1.496-.404 1.962s-.738.7-1.407.7-1.144-.233-1.413-.7-.404-1.12-.404-1.962zm2.979 0c0-.418-.029-.771-.087-1.06s-.166-.529-.339-.707-.413-.267-.736-.267-.577.089-.75.267a1.4 1.4 0 0 0-.339.707c-.053.289-.079.642-.079 1.06 0 .433.026.796.079 1.09s.171.528.339.706.423.267.75.267.568-.089.736-.267.286-.413.339-.706a6.19 6.19 0 0 0 .087-1.09zm1.55 0c0-.827.134-1.471.404-1.933s.74-.699 1.413-.699 1.138.233 1.407.699.404 1.106.404 1.933c0 .842-.135 1.496-.404 1.962s-.738.7-1.407.7-1.144-.233-1.413-.7-.404-1.12-.404-1.962zm2.979 0c0-.418-.029-.771-.087-1.06s-.166-.529-.339-.707-.413-.267-.736-.267-.577.089-.75.267a1.4 1.4 0 0 0-.339.707c-.053.289-.079.642-.079 1.06 0 .433.026.796.079 1.09s.171.528.339.706.423.267.75.267.568-.089.736-.267.286-.413.339-.706.087-.657.087-1.09zm1.867 2.705a.43.43 0 1 1 0-.894.4.4 0 0 1 .303.13.43.43 0 0 1 .13.317.43.43 0 0 1-.13.317.4.4 0 0 1-.303.13zm1.197-2.705c0-.827.135-1.471.404-1.933s.741-.699 1.414-.699 1.137.233 1.406.699.404 1.106.404 1.933c0 .842-.135 1.496-.404 1.962s-.738.7-1.406.7-1.145-.233-1.414-.7-.404-1.12-.404-1.962zm2.979 0c0-.418-.029-.771-.087-1.06a1.31 1.31 0 0 0-.339-.707c-.168-.178-.413-.267-.735-.267s-.577.089-.75.267-.282.414-.339.707-.08.642-.08 1.06c0 .433.027.796.08 1.09s.17.528.339.706.423.267.75.267.567-.089.735-.267c.174-.178.287-.413.339-.706.058-.294.087-.657.087-1.09zm1.55 0c0-.827.135-1.471.404-1.933s.741-.699 1.414-.699 1.137.233 1.406.699.404 1.106.404 1.933c0 .842-.135 1.496-.404 1.962s-.738.7-1.406.7-1.145-.233-1.414-.7-.404-1.12-.404-1.962zm2.979 0c0-.418-.029-.771-.087-1.06s-.166-.529-.339-.707-.413-.267-.735-.267-.577.089-.75.267-.282.414-.339.707-.08.642-.08 1.06c0 .433.027.796.08 1.09s.17.528.339.706.423.267.75.267.567-.089.735-.267.286-.413.339-.706.087-.657.087-1.09z"/><use xlink:href="#N" x="-2.31" y="108.5"/><use xlink:href="#R"/><use xlink:href="#S"/><use xlink:href="#O" x="-2.31" y="108.5"/><path d="M443.903 309.04c0-.827.134-1.471.404-1.933s.74-.699 1.413-.699 1.138.233 1.407.699.404 1.106.404 1.933c0 .842-.135 1.496-.404 1.962s-.738.7-1.407.7-1.144-.234-1.413-.7-.404-1.12-.404-1.962zm2.979 0a5.48 5.48 0 0 0-.087-1.06c-.053-.293-.166-.529-.339-.707s-.413-.267-.736-.267-.577.089-.75.267a1.4 1.4 0 0 0-.339.707c-.053.288-.079.642-.079 1.06 0 .433.026.796.079 1.089s.171.529.339.707.423.267.75.267.568-.089.736-.267a1.32 1.32 0 0 0 .339-.707c.058-.293.087-.656.087-1.089zm1.55 0c0-.827.134-1.471.404-1.933s.74-.699 1.413-.699 1.138.233 1.407.699.404 1.106.404 1.933c0 .842-.135 1.496-.404 1.962s-.738.7-1.407.7-1.144-.234-1.413-.7-.404-1.12-.404-1.962zm2.979 0a5.48 5.48 0 0 0-.087-1.06c-.053-.293-.166-.529-.339-.707s-.414-.267-.736-.267-.577.089-.75.267a1.4 1.4 0 0 0-.339.707c-.053.288-.079.642-.079 1.06 0 .433.026.796.079 1.089a1.36 1.36 0 0 0 .339.707c.168.178.423.267.75.267s.568-.089.736-.267a1.32 1.32 0 0 0 .339-.707c.058-.293.087-.656.087-1.089zm-20.467-21.494c.341 0 .643.076.905.229.267.146.475.356.622.629s.22.574.22.921-.079.655-.236.928a1.67 1.67 0 0 1-.638.645c-.272.152-.582.228-.928.228-.677 0-1.199-.236-1.566-.708s-.551-1.143-.551-2.014c0-.629.084-1.17.252-1.621s.42-.795.74-1.031.713-.354 1.164-.354c.326 0 .64.061.945.181a2.45 2.45 0 0 1 .81.512l-.244.495c-.262-.22-.514-.382-.755-.487a1.84 1.84 0 0 0-.74-.158c-.482 0-.858.215-1.125.645s-.401 1.034-.401 1.81v.118c.12-.299.317-.535.59-.708a1.71 1.71 0 0 1 .936-.26zm-.086 3.037c.356 0 .645-.112.865-.338s.331-.535.331-.913c0-.372-.113-.671-.339-.897-.22-.23-.509-.346-.865-.346-.368 0-.666.116-.897.346s-.347.53-.347.897c0 .373.116.674.347.905s.532.346.905.346zm4.568.543c-.64 0-1.128-.241-1.464-.723-.33-.488-.495-1.202-.495-2.141s.165-1.649.495-2.132c.336-.488.824-.732 1.464-.732s1.125.244 1.456.732.503 1.191.503 2.124c0 .939-.168 1.653-.503 2.141s-.816.731-1.456.731zm0-.543c.446 0 .774-.188.983-.566.216-.378.323-.965.323-1.763 0-.792-.105-1.374-.315-1.746s-.54-.559-.991-.559-.776.186-.991.559-.315.954-.315 1.746.105 1.38.315 1.763a1.06 1.06 0 0 0 .991.566zm4.718.543c-.64 0-1.128-.241-1.464-.723-.33-.488-.495-1.202-.495-2.141s.165-1.649.495-2.132c.336-.488.824-.732 1.464-.732s1.125.244 1.455.732c.336.483.504 1.191.504 2.124 0 .939-.168 1.653-.504 2.141-.33.487-.815.731-1.455.731zm0-.543c.446 0 .774-.188.983-.566.215-.378.323-.965.323-1.763 0-.792-.105-1.374-.315-1.746s-.54-.559-.991-.559a1.06 1.06 0 0 0-.992.559c-.209.372-.314.954-.314 1.746s.105 1.38.314 1.763c.215.378.546.566.992.566zm3.671-.33v.81h-.81v-.81h.81zm2.868.873c-.64 0-1.128-.241-1.464-.723-.33-.488-.495-1.202-.495-2.141s.165-1.649.495-2.132c.336-.488.824-.732 1.464-.732s1.125.244 1.455.732c.336.483.504 1.191.504 2.124 0 .939-.168 1.653-.504 2.141-.33.487-.815.731-1.455.731zm0-.543c.446 0 .773-.188.983-.566s.323-.965.323-1.763c0-.792-.105-1.374-.315-1.746s-.54-.559-.991-.559-.777.186-.992.559c-.209.372-.314.954-.314 1.746s.105 1.38.314 1.763c.215.378.546.566.992.566zm4.718.543c-.64 0-1.128-.241-1.464-.723-.33-.488-.496-1.202-.496-2.141s.166-1.649.496-2.132c.336-.488.824-.732 1.464-.732s1.125.244 1.455.732c.336.483.504 1.191.504 2.124 0 .939-.168 1.653-.504 2.141-.33.487-.815.731-1.455.731zm0-.543c.446 0 .773-.188.983-.566s.323-.965.323-1.763c0-.792-.105-1.374-.315-1.746s-.54-.559-.991-.559a1.06 1.06 0 0 0-.992.559c-.21.372-.314.954-.314 1.746s.104 1.38.314 1.763.546.566.992.566zm-21.654-24.869c-.27-.105-.476-.259-.621-.461s-.216-.447-.216-.736c0-.26.065-.493.195-.7a1.31 1.31 0 0 1 .577-.497c.259-.125.572-.188.937-.188s.676.063.931.188.454.286.584.497a1.25 1.25 0 0 1 .202.7 1.24 1.24 0 0 1-.224.736 1.33 1.33 0 0 1-.613.461 1.35 1.35 0 0 1 .707.484c.178.226.267.5.267.822a1.47 1.47 0 0 1-.231.822c-.154.231-.372.411-.656.541s-.601.187-.967.187-.687-.062-.966-.187-.488-.31-.642-.541a1.47 1.47 0 0 1-.231-.822c0-.322.087-.599.26-.83a1.32 1.32 0 0 1 .707-.476zm1.954-1.118c0-.293-.096-.519-.288-.678s-.457-.238-.794-.238c-.331 0-.593.08-.786.238s-.288.387-.288.686a.8.8 0 0 0 .296.649c.201.163.461.245.778.245.323 0 .582-.082.779-.245.202-.169.303-.387.303-.657zm-1.082 1.407c-.355 0-.646.084-.872.252s-.339.411-.339.743c0 .308.108.556.324.743.222.188.517.281.887.281s.664-.093.88-.281.325-.435.325-.743c0-.322-.111-.567-.332-.736s-.512-.259-.873-.259z"/><use xlink:href="#T"/><use xlink:href="#T" x="4.529"/><path d="M442.72 268.47c-.125 0-.231-.044-.317-.13s-.13-.193-.13-.318a.43.43 0 0 1 .447-.447.4.4 0 0 1 .303.13.43.43 0 0 1 .13.317c0 .125-.043.231-.13.318s-.183.13-.303.13zm1.197-2.705c0-.827.135-1.472.404-1.933.269-.467.741-.7 1.414-.7s1.137.233 1.406.7c.269.461.404 1.106.404 1.933 0 .841-.135 1.495-.404 1.962s-.738.699-1.406.699-1.145-.233-1.414-.699-.404-1.121-.404-1.962zm2.979 0c0-.419-.029-.772-.087-1.06-.053-.294-.165-.529-.339-.707-.168-.178-.413-.267-.735-.267s-.577.089-.75.267a1.38 1.38 0 0 0-.339.707 5.97 5.97 0 0 0-.08 1.06c0 .433.027.796.08 1.089s.17.529.339.707.423.267.75.267.567-.089.735-.267c.174-.178.286-.414.339-.707s.087-.656.087-1.089zm1.55 0c0-.827.135-1.472.404-1.933.269-.467.741-.7 1.414-.7s1.137.233 1.406.7c.269.461.404 1.106.404 1.933 0 .841-.135 1.495-.404 1.962s-.738.699-1.406.699-1.145-.233-1.414-.699-.404-1.121-.404-1.962zm2.979 0c0-.419-.029-.772-.087-1.06a1.32 1.32 0 0 0-.339-.707c-.168-.178-.413-.267-.735-.267s-.577.089-.75.267a1.38 1.38 0 0 0-.339.707 5.97 5.97 0 0 0-.08 1.06c0 .433.027.796.08 1.089s.17.529.339.707.423.267.75.267.567-.089.735-.267a1.36 1.36 0 0 0 .339-.707c.053-.293.087-.656.087-1.089zm-22.804-23.593v-.598h1.356v5.215h-.663v-4.617h-.693z"/><use xlink:href="#R" x="-2.226" y="-64.913"/><use xlink:href="#S" x="-2.226" y="-64.913"/><use xlink:href="#S" x="2.303" y="-64.913"/><path d="M445.009 246.832c-.125 0-.231-.043-.318-.13s-.129-.192-.129-.317.043-.231.129-.318.193-.13.318-.13.221.044.303.13.13.193.13.318-.044.23-.13.317a.4.4 0 0 1-.303.13z"/><use xlink:href="#P" x="-4.536" y="43.587"/><use xlink:href="#P" x="-0.007" y="43.587"/><use xlink:href="#M" y="22.604"/><path d="M431.025 225.28l1.435-1.205c.347-.317.638-.647.873-.988.241-.346.361-.685.361-1.017 0-.313-.077-.558-.231-.736s-.392-.274-.728-.274c-.327 0-.582.104-.765.31s-.274.474-.289.815h-.634c.019-.538.182-.954.49-1.247s.705-.44 1.19-.44c.496 0 .887.137 1.176.411s.44.651.44 1.132c0 .399-.12.789-.361 1.169-.235.375-.505.706-.808.995l-1.161.995h2.481v.548h-3.469v-.468zm4.228-2.135c0-.827.135-1.472.404-1.933.269-.467.741-.7 1.414-.7s1.137.233 1.406.7c.269.461.404 1.106.404 1.933 0 .841-.135 1.495-.404 1.962s-.738.699-1.406.699-1.145-.233-1.414-.699-.404-1.121-.404-1.962zm2.979 0a5.49 5.49 0 0 0-.087-1.061c-.053-.293-.166-.528-.339-.706s-.413-.267-.735-.267-.577.089-.75.267-.282.413-.339.706a5.99 5.99 0 0 0-.08 1.061 6.27 6.27 0 0 0 .08 1.089c.057.293.17.529.339.707s.423.266.75.266.567-.088.735-.266a1.36 1.36 0 0 0 .339-.707c.053-.293.087-.657.087-1.089zm1.55 0c0-.827.135-1.472.404-1.933.269-.467.74-.7 1.414-.7.668 0 1.137.233 1.406.7.269.461.404 1.106.404 1.933 0 .841-.135 1.495-.404 1.962s-.738.699-1.406.699c-.674 0-1.145-.233-1.414-.699s-.404-1.121-.404-1.962zm2.979 0a5.49 5.49 0 0 0-.087-1.061c-.053-.293-.166-.528-.339-.706s-.413-.267-.735-.267-.577.089-.75.267-.282.413-.339.706a5.99 5.99 0 0 0-.08 1.061 6.27 6.27 0 0 0 .08 1.089c.057.293.17.529.339.707s.423.266.75.266.567-.088.735-.266a1.36 1.36 0 0 0 .339-.707c.058-.294.087-.657.087-1.089zm1.867 2.704c-.125 0-.23-.043-.317-.129a.43.43 0 0 1-.13-.318c0-.125.044-.231.13-.317a.43.43 0 0 1 .317-.13c.121 0 .222.043.303.13a.43.43 0 0 1 .13.317c0 .125-.043.231-.13.318a.4.4 0 0 1-.303.129zm1.197-2.704c0-.827.135-1.472.404-1.933.27-.467.741-.7 1.414-.7s1.137.233 1.406.7c.27.461.404 1.106.404 1.933 0 .841-.134 1.495-.404 1.962s-.738.699-1.406.699-1.144-.233-1.414-.699-.404-1.121-.404-1.962zm2.979 0a5.58 5.58 0 0 0-.086-1.061c-.053-.293-.166-.528-.339-.706s-.414-.267-.736-.267-.577.089-.75.267-.281.413-.339.706-.079.642-.079 1.061c0 .432.026.795.079 1.089a1.4 1.4 0 0 0 .339.707c.173.178.423.266.75.266s.567-.088.736-.266.286-.414.339-.707a5.84 5.84 0 0 0 .086-1.089zm1.55 0c0-.827.135-1.472.404-1.933.27-.467.741-.7 1.414-.7s1.137.233 1.406.7c.27.461.404 1.106.404 1.933 0 .841-.134 1.495-.404 1.962s-.738.699-1.406.699-1.144-.233-1.414-.699-.404-1.121-.404-1.962zm2.979 0a5.58 5.58 0 0 0-.086-1.061c-.053-.293-.166-.528-.339-.706s-.414-.267-.736-.267-.577.089-.75.267-.281.413-.339.706-.079.642-.079 1.061c0 .432.026.795.079 1.089a1.4 1.4 0 0 0 .339.707c.173.178.423.266.75.266s.567-.088.736-.266.286-.414.339-.707a5.84 5.84 0 0 0 .086-1.089z"/></g><g class="B F"><use xlink:href="#U" class="C"/><path d="M422.164 309.699h-2.273v-.655h2.273v.655z" class="C"/><use xlink:href="#U" y="-43.154" class="C"/><use xlink:href="#U" y="-64.731" class="C"/><use xlink:href="#U" y="-86.308" class="C"/><path d="M422.164 223.392h-2.273v-.655h2.273v.655z" class="C"/><use xlink:href="#U" y="-129.461" class="C"/></g><g class="E"><path d="M310.206 275.625h-.557v2.752h-1.116v11.795h1.116v.786h.557v-.786h1.116v-11.795h-1.116v-2.752zm-10.039 13.367h-.557v1.18h-1.116v1.572h1.116v.393h.557v-.393h1.116v-1.572h-1.116v-1.18zm-26.773-.786h-.558v3.538h-1.115v.787h1.115v1.179h.558v-1.179h1.115v-.787h-1.115v-3.538zm20.079 0h-.558v.393H291.8v3.539h1.115v1.179h.558v-1.179h1.116v-3.539h-1.116v-.393zm-13.386-3.932h-.557v.393h-1.116v2.359h1.116v1.18h.557v-1.18h1.116v-2.359h-1.116v-.393zm-13.386 7.863h-.558v1.18h-1.116v2.359h1.116v.393h.558v-.393h1.115v-2.359h-1.115v-1.18zm-16.733-.786h-.558v1.966h-1.115v1.966h1.115v1.966h.558v-1.966h1.116v-1.966h-1.116v-1.966zM69.417 315.797h-.558v1.966h-1.116v1.965h1.116v1.966h.558v-1.966h1.115v-1.965h-1.115v-1.966zm177.205-21.694h-.557v.786h-1.116v4.325h1.116v1.966h.557v-1.966h1.116v-4.325h-1.116v-.786zm-180.55 24.446h-.558v.786h-1.116v4.325h1.116v1.966h.558v-1.966h1.115v-4.325h-1.115v-.786z"/><use xlink:href="#V"/><use xlink:href="#W"/><use xlink:href="#V"/><use xlink:href="#W"/><path d="M229.889 295.676h-.558v.786h-1.115v7.47h1.115v1.966h.558v-1.966h1.116v-7.47h-1.116v-.786zM49.337 320.122h-.558v.786h-1.116v7.47h1.116v1.966h.558v-1.966h1.116v-7.47h-1.116v-.786zm177.206-18.942h-.557v1.966h-1.116v8.649h1.116v2.752h.557v-2.752h1.116v-8.649h-1.116v-1.966zM45.992 325.625h-.558v1.966h-1.116v8.65h1.116v2.752h.558v-2.752h1.116v-8.65h-1.116v-1.966zm167.164-21.693h-.558v1.966h-1.116v5.897h1.116v1.573h.558v-1.573h1.115v-5.897h-1.115v-1.966zm10.04 5.111h-.558v.786h-1.116v.787h1.116v2.752h.558v-2.752h1.115v-.787h-1.115v-.786zm-3.347 0h-.558v.786h-1.115v3.146h1.115v.786h.558v-.786h1.116v-3.146h-1.116v-.786zm-13.387-4.325h-.557v.787h-1.116v3.145h1.116v.786h.557v-.786h1.116v-3.145h-1.116v-.787zm-3.345 1.573h-.558v.787h-1.116v1.572h1.116v.786h.558v-.786h1.115v-1.572h-1.115v-.787zm-26.773-12.581h-.558v.786h-1.115v2.752h1.115v.787h.558v-.787h1.116v-2.752h-1.116v-.786zm-13.386-10.615h-.557v2.359h-1.116v1.965h1.116v.787h.557v-.787h1.116v-1.965h-1.116v-2.359zm-3.347.786h-.558v2.752h-1.115v2.752h1.115v.787h.558v-.787h1.115v-2.752h-1.115v-2.752zm-16.732-7.076h-.557v1.572h-1.116v6.291h1.116v.786h.557v-.786h1.116v-6.291h-1.116v-1.572zm-3.346 1.572h-.558v2.359h-1.116v24.769h1.116v.786h.558v-.786h1.115v-24.769h-1.115v-2.359zm16.732 7.077h-.558v3.538h-1.115v1.573h1.115v.786h.558v-.786h1.116v-1.573h-1.116v-3.538zm-3.346 2.359h-.557v2.752h-1.116v4.718h1.116v1.572h.557v-1.572h1.116v-4.718h-1.116v-2.752zm-26.772 14.153h-.558v5.505h-1.115v1.179h1.115v1.573h.558v-1.573h1.115v-1.179h-1.115v-5.505zm-6.693 4.719h-.558v.786h-1.116v5.111h1.116v1.573h.558v-1.573h1.115v-5.111h-1.115v-.786zm-13.387 6.683h-.558v.786h-1.115v5.111h1.115v1.573h.558v-1.573h1.115v-5.111h-1.115v-.786zm10.04-3.145h-.558v2.359h-1.115v2.359h1.115v.786h.558v-.786h1.115v-2.359h-1.115v-2.359zm-13.387 5.504h-.558v1.179h-1.115v4.718h1.115v.787h.558v-.787h1.116v-4.718h-1.116v-1.179zm-13.386-3.539h-.558v1.18h-1.115v8.649h1.115v4.718h.558v-4.718h1.115v-8.649h-1.115v-1.18zm3.347-1.572h-.558v1.179h-1.115v4.718h1.115v.787h.558v-.787h1.115v-4.718h-1.115v-1.179zm-6.693 8.256h-.558v1.18h-1.116v4.718h1.116v1.179h.558v-1.179h1.115v-4.718h-1.115v-1.18zm26.772-6.29h-.558v2.359h-1.115v.786h1.115v.786h.558v-.786h1.116v-.786h-1.116v-2.359zm23.426-10.223h-.558v.787h-1.115v8.649h1.115v2.752h.558v-2.752h1.115v-8.649h-1.115v-.787zm60.237 2.359h-.557v.787h-1.116v1.179h1.116v.786h.557v-.786h1.116v-1.179h-1.116v-.787zm-16.732-12.187h-.558v.786h-1.115v3.932h1.115v.786h.558v-.786h1.115v-3.932h-1.115v-.786zm10.04 9.042h-.558v1.573h-1.115v1.179h1.115v4.718h.558v-4.718h1.115v-1.179h-1.115v-1.573zm63.583-13.76h-.558v1.965h-1.115v4.718h1.115v1.573h.558v-1.573h1.115v-4.718h-1.115v-1.965zM72.763 312.258h-.558v1.966H71.09v4.718h1.116v1.573h.558v-1.573h1.116v-4.718h-1.116v-1.966zm203.978-26.804h-.558v1.18h-1.116v5.111h1.116v1.179h.558v-1.179h1.115v-5.111h-1.115v-1.18z"/></g><path d="M306.86 290.172h-.558v1.179h-1.115v.787h1.115v.393h.558v-.393h1.115v-.787h-1.115v-1.179zm-16.733-1.18h-.557v1.18h-1.116v1.965h1.116v.787h.557v-.787h1.116v-1.965h-1.116v-1.18zm-3.346-1.179h-.558v1.179h-1.116v1.573h1.116v.786h.558v-.786h1.115v-1.573h-1.115v-1.179zm-23.426 6.683h-.558v1.18h-1.115v1.179h1.115v.787h.558v-.787h1.115v-1.179h-1.115v-1.18zm-20.08.393h-.558v1.966h-1.115V300h1.115v.787h.558V300h1.115v-3.145h-1.115v-1.966zM62.724 319.335h-.558v1.966h-1.115v3.145h1.115v.786h.558v-.786h1.116v-3.145h-1.116v-1.966zm153.778-10.292h-.557v1.966h-1.116v1.572h1.116v.787h.557v-.787h1.116v-1.572h-1.116v-1.966zm-7.249 0h.557v-1.966h1.116v-1.572h-1.116v-.787h-.557v.787h-1.116v1.572h1.116v1.966zm-16.733-.393h.558v-1.966h1.115v-4.718h-1.115v-.786h-.558v.786h-1.115v4.718h1.115v1.966zm-10.04-5.897h.558v-.787h1.115v-8.649h-1.115v-.786h-.558v.786h-1.115v8.649h1.115v.787zm-10.039-6.291h.558v-1.966h1.115v-8.649h-1.115v-1.573h-.558v1.573h-1.116v8.649h1.116v1.966zm-40.159 18.085h.558v-1.179h1.115v-1.966h-1.115v-1.572h-.558v1.572h-1.116v1.966h1.116v1.179zm-10.039-5.504h.558v-1.179h1.115v-1.18h-1.115v-1.572h-.558v1.572h-1.116v1.18h1.116v1.179zm-13.387 7.47h.558v-1.179h1.115v-1.18h-1.115v-1.572h-.558v1.572h-1.115v1.18h1.115v1.179zm-10.04 4.718h.558v-1.179h1.115v-5.111h-1.115v-1.573h-.558v1.573h-1.115v5.111h1.115v1.179zm-16.731 9.829h.558v-5.111h1.115v-9.043h-1.115v-1.572h-.558v1.572h-1.116v9.043h1.116v5.111zm13.385-14.154h.558v-1.179h1.116v-3.932h-1.116v-1.965h-.558v1.965h-1.115v3.932h1.115v1.179zm-16.733 2.359h.558v-.786h1.116v-3.932h-1.116v-.786h-.558v.786h-1.116v3.932h1.116v.786zm-3.346-1.965h.558v-.393h1.116v-6.291h-1.116v-1.572h-.558v1.572h-1.115v6.291h1.115v.393zm53.544-5.112h.558v-.786h1.115v-3.931h-1.115v-6.291h-.558v6.291h-1.115v3.931h1.115v.786zm36.812-23.196h.557v-1.966h1.116v-2.752h-1.116v-.786h-.557v.786h-1.116v2.752h1.116v1.966zm-20.079-1.966h.557v-1.179h1.116v-7.47h-1.116v-2.359h-.557v2.359h-1.116v7.47h1.116v1.179zm3.347 11.795h.558v-4.718h1.115v-9.042h-1.115v-.786h-.558v.786H147.9v9.042h1.115v4.718zm50.197 11.795h.558v-1.966h1.116v-3.145h-1.116v-.786h-.558v.786h-1.115v3.145h1.115v1.966zm-13.385-3.539h.557v-2.359h1.116v-2.752h-1.116v-.786h-.557v.786h-1.116v2.752h1.116v2.359zm-16.734-18.478h.558v-2.359h1.116v-.393h-1.116v-.786h-.558v.786h-1.115v.393h1.115v2.359z" class="D"/><path d="M408.283 207.348h-.525v2.302h-1.049v13.209h1.049v1.865h.525v-1.865h1.049V209.65h-1.049v-2.302z" class="E"/><path d="M394.839 228.152h-.562v1.508h-1.123v6.283h1.123v.502h.562v-.502h1.123v-6.283h-1.123v-1.508z" class="D"/><path d="M391.471 231.168h-.562v1.759h-1.123v8.042h1.123v.502h.562v-.502h1.123v-8.042h-1.123v-1.759zm-16.846 3.015h-.561v1.006h-1.124v4.021h1.124v.502h.561v-.502h1.123v-4.021h-1.123v-1.006z" class="E"/><path d="M371.256 235.189h-.562v1.508h-1.123v15.832h1.123v.503h.562v-.503h1.123v-15.832h-1.123v-1.508z" class="D"/><path d="M388.101 238.204h-.562v2.262h-1.123v2.513h1.123v.502h.562v-.502h1.123v-2.513h-1.123v-2.262zm-3.369 3.016h-.561v1.759h-1.123v3.016h1.123V247h.561v-1.005h1.124v-3.016h-1.124v-1.759zm-26.955 4.021h-.561v3.519h-1.123v5.78h1.123v1.005h.561v-1.005h1.124v-5.78h-1.124v-3.519zm-6.738 10.555h-.561v.754h-1.124v4.775h1.124v1.256h.561v-1.256h1.123v-4.775h-1.123v-.754zm-16.846 5.78h-.561v.753h-1.123v4.775h1.123v1.257h.561v-1.257h1.124v-4.775h-1.124v-.753zm-16.846 7.79h-.562v.754h-1.123v4.775h1.123v1.257h.562v-1.257h1.123v-4.775h-1.123v-.754zm30.323-24.377h-.562v5.78h-1.123v13.32h1.123v3.77h.562v-3.77h1.123v-13.32h-1.123v-5.78zm-16.848 3.268h-.561v.754h-1.123v20.858h1.123v1.257h.561v-1.257h1.123v-20.858h-1.123v-.754zm-16.844 10.303h-.562v5.78h-1.123v13.32h1.123v.502h.562v-.502h1.123v-13.32h-1.123v-5.78zm30.323 4.524h-.562v.754h-1.123v1.508h1.123v1.759h.562v-1.759h1.123v-1.508h-1.123v-.754zm-16.847 5.78h-.561v.754h-1.123v1.508h1.123v1.759h.561v-1.759h1.123v-1.508h-1.123v-.754zm13.478-4.775h-.562v.754h-1.123v3.016h1.123v2.513h.562v-2.513h1.123v-3.016h-1.123v-.754zm-16.847 4.775h-.562v.754H322.4v4.021h1.123v.754h.562v-.754h1.123v-4.021h-1.123v-.754zm43.8-20.859h-.562v.503H366.2v8.042h1.123v1.759h.562v-1.759h1.123v-8.042h-1.123v-.503z" class="E"/><path d="M404.388 241.471h.561v-1.256h1.123v-23.121h-1.123v-2.764h-.561v2.764h-1.123v23.121h1.123v1.256zm-40.433 16.838h.562v-.754h1.123v-1.257h-1.123v-1.005h-.562v1.005h-1.123v1.257h1.123v.754zm-10.107 2.01h.561v-.754h1.123v-10.303h-1.123v-.503h-.561v.503h-1.124v10.303h1.124v.754zM337 266.1h.561v-.754h1.124v-10.304h-1.124v-.502H337v.502h-1.123v10.304H337v.754zm-16.846 8.293h.562v-.754h1.123v-10.806h-1.123v-.503h-.562v.503h-1.123v10.806h1.123v.754zm40.432-17.592h.561v-.502h1.124v-2.514h-1.124v-4.021h-.561v4.021h-1.123v2.514h1.123v.502z" class="D"/><path d="M397.647 241.974h.562v-1.256h1.123v-4.272h-1.123v-.503h-.562v.503h-1.123v4.272h1.123v1.256z" class="E"/><path d="M377.432 240.718h.561v-.754h1.123v-4.775h-1.123v-1.508h-.561v1.508h-1.124v4.775h1.124v.754zm3.369 7.539h.561v-3.016h1.123v-5.78h-1.123v-.503h-.561v.503h-1.123v5.78h1.123v3.016z" class="D"/><path d="M401.017 241.723h.561v-1.508h1.123v-10.304h-1.123v-.503h-.561v.503h-1.124v10.304h1.124v1.508z" class="E"/><path d="M239.929 290.958h-.558v2.752h-1.115v3.932h1.115v8.649h.558v-8.649h1.116v-3.932h-1.116v-2.752zM59.378 315.404h-.558v2.752h-1.115v3.931h1.115v8.65h.558v-8.65h1.116v-3.931h-1.116v-2.752zm210.67-27.198h-.557v4.325h-1.116v1.572h1.116v1.966h.557v-1.966h1.116v-1.572h-1.116v-4.325zm13.386-4.325h-.558v.787h-1.115v4.717h1.115v.787h.558v-.787h1.116v-4.717h-1.116v-.787zm-23.426 6.291h-.558v1.966h-1.115v3.931h1.115v2.359h.558v-2.359h1.116v-3.931h-1.116v-1.966zm-3.346-6.684h-.558v5.111h-1.116v3.932h1.116v.786h.558v-.786h1.115v-3.932h-1.115v-5.111zm46.851 3.931h-.558v1.573h-1.115v2.359h1.115v1.179h.558v-1.179h1.116v-2.359h-1.116v-1.573zm-6.693-1.572h-.558v1.179h-1.116v3.932h1.116v7.863h.558v-7.863h1.115v-3.932h-1.115v-1.179zm-63.584 7.863h-.558v1.966h-1.116v4.717h1.116v2.753h.558v-2.753h1.115v-4.717h-1.115v-1.966zM52.685 318.156h-.558v1.965h-1.116v4.718h1.116v2.752h.558v-2.752H53.8v-4.718h-1.115v-1.965z" class="D"/><path d="M422.446 210.627h36.719v10.491h-36.719v-10.491z" fill="#2dc48a"/><path d="M429.681 213.61v-.93h1.738v5.258h-1.039v-4.328h-.699zm3.053 3.188l1.103-.959c.274-.26.503-.529.685-.808s.275-.553.275-.822c0-.245-.058-.438-.174-.577s-.293-.209-.533-.209-.426.081-.556.245c-.129.159-.197.377-.202.656h-.98c.019-.577.189-1.014.512-1.312s.74-.448 1.24-.448c.548 0 .969.147 1.262.44s.44.671.44 1.147c0 .375-.101.733-.303 1.075a4.34 4.34 0 0 1-.692.894l-1.017.909h2.128v.837h-3.563v-.751l.375-.317zm3.781.116v-.794l2.358-3.375h1.176v3.289h.635v.88h-.635v1.024h-1.01v-1.024h-2.524zm2.589-3.087l-1.479 2.207h1.479v-2.207zm2.1-.217v-.93h1.738v5.258h-1.039v-4.328h-.699zm3.298 4.378c-.183 0-.334-.055-.454-.166s-.173-.257-.173-.425.057-.308.173-.419a.63.63 0 0 1 .454-.173c.178 0 .325.058.44.173s.173.25.173.419-.057.31-.173.425-.262.166-.44.166zm4.038-3.996c-.049-.202-.133-.353-.253-.454s-.284-.151-.505-.151c-.332 0-.577.134-.735.403s-.234.698-.238 1.299c.115-.193.283-.342.504-.447a1.59 1.59 0 0 1 .722-.166c.312 0 .589.067.829.202a1.4 1.4 0 0 1 .563.591c.134.255.202.563.202.923 0 .342-.07.647-.21.916a1.46 1.46 0 0 1-.598.621c-.265.149-.58.223-.945.223-.5 0-.894-.11-1.183-.332s-.483-.529-.598-.923-.166-.889-.166-1.471c0-.88.151-1.544.454-1.991s.781-.678 1.435-.678c.505 0 .897.137 1.176.411a1.63 1.63 0 0 1 .483 1.024h-.937zm-.736 1.313a.95.95 0 0 0-.642.224c-.173.149-.26.365-.26.649s.08.507.238.671c.164.163.392.245.686.245.259 0 .464-.08.613-.238s.23-.373.23-.642c0-.279-.074-.5-.223-.664s-.358-.245-.642-.245zm2.579 1.609v-.794l2.359-3.375h1.176v3.289h.634v.88h-.634v1.024h-1.01v-1.024h-2.525zm2.59-3.087l-1.479 2.207h1.479v-2.207z" fill="#283049"/><path d="M44.77 216.2h-.657v-.656h.657v.656zm2.627 0h-1.314v-.656h1.314v.656zm2.627 0h-1.314v-.656h1.314v.656zm2.627 0h-1.314v-.656h1.314v.656zm2.627 0h-1.314v-.656h1.314v.656zm2.627 0h-1.314v-.656h1.314v.656zm2.627 0H59.22v-.656h1.314v.656zm2.627 0h-1.314v-.656h1.314v.656zm2.627 0h-1.314v-.656h1.314v.656zm2.627 0h-1.314v-.656h1.314v.656zm2.627 0H69.73v-.656h1.314v.656zm2.627 0h-1.314v-.656h1.314v.656zm2.627 0h-1.314v-.656h1.314v.656zm2.627 0h-1.314v-.656h1.314v.656zm2.627 0h-1.314v-.656h1.314v.656zm2.627 0h-1.314v-.656h1.314v.656zm2.627 0h-1.314v-.656h1.314v.656zm2.627 0h-1.314v-.656h1.314v.656zm2.627 0h-1.314v-.656h1.314v.656zm2.627 0h-1.314v-.656h1.314v.656zm2.627 0h-1.314v-.656h1.314v.656zm2.627 0H98.63v-.656h1.314v.656zm2.627 0h-1.314v-.656h1.314v.656zm2.627 0h-1.314v-.656h1.314v.656zm2.627 0h-1.313v-.656h1.313v.656zm2.628 0h-1.314v-.656h1.314v.656zm2.627 0h-1.314v-.656h1.314v.656zm2.627 0h-1.313v-.656h1.313v.656zm2.628 0h-1.314v-.656h1.314v.656zm2.627 0h-1.314v-.656h1.314v.656zm2.627 0h-1.313v-.656h1.313v.656zm2.628 0h-1.314v-.656h1.314v.656zm2.627 0h-1.314v-.656h1.314v.656zm2.627 0h-1.313v-.656h1.313v.656zm2.627 0h-1.313v-.656h1.313v.656zm2.628 0h-1.314v-.656h1.314v.656zm2.627 0h-1.314v-.656h1.314v.656zm2.627 0h-1.313v-.656h1.313v.656zm2.628 0h-1.314v-.656h1.314v.656zm2.627 0h-1.314v-.656h1.314v.656zm2.627 0h-1.313v-.656h1.313v.656zm2.628 0h-1.314v-.656h1.314v.656zm2.627 0h-1.314v-.656h1.314v.656zm2.627 0h-1.313v-.656h1.313v.656zm2.628 0h-1.314v-.656h1.314v.656zm2.627 0h-1.314v-.656h1.314v.656zm2.627 0h-1.314v-.656h1.314v.656zm2.627 0h-1.313v-.656h1.313v.656zm2.628 0h-1.314v-.656h1.314v.656zm2.627 0h-1.314v-.656h1.314v.656zm2.627 0h-1.313v-.656h1.313v.656zm2.628 0h-1.314v-.656h1.314v.656zm2.627 0h-1.314v-.656h1.314v.656zm2.627 0h-1.313v-.656h1.313v.656zm2.628 0h-1.314v-.656h1.314v.656zm2.627 0h-1.314v-.656h1.314v.656zm2.627 0h-1.313v-.656h1.313v.656zm2.628 0h-1.314v-.656h1.314v.656zm2.627 0h-1.314v-.656h1.314v.656zm2.627 0h-1.313v-.656h1.313v.656zm2.628 0h-1.314v-.656h1.314v.656zm2.627 0h-1.314v-.656h1.314v.656zm2.627 0h-1.313v-.656h1.313v.656zm2.628 0h-1.314v-.656h1.314v.656zm2.627 0h-1.314v-.656h1.314v.656zm2.627 0h-1.313v-.656h1.313v.656zm2.627 0h-1.313v-.656h1.313v.656zm2.628 0h-1.314v-.656h1.314v.656zm2.627 0h-1.314v-.656h1.314v.656zm2.627 0h-1.313v-.656h1.313v.656zm2.628 0h-1.314v-.656h1.314v.656zm2.627 0h-1.314v-.656h1.314v.656zm2.627 0h-1.313v-.656h1.313v.656zm2.628 0h-1.314v-.656h1.314v.656zm2.627 0h-1.314v-.656h1.314v.656zm2.627 0h-1.313v-.656h1.313v.656zm2.628 0h-1.314v-.656h1.314v.656zm2.627 0h-1.314v-.656h1.314v.656zm2.627 0h-1.313v-.656h1.313v.656zm2.628 0h-1.314v-.656h1.314v.656zm2.627 0h-1.314v-.656h1.314v.656zm2.627 0h-1.313v-.656h1.313v.656zm2.628 0h-1.314v-.656h1.314v.656zm2.627 0h-1.314v-.656h1.314v.656zm2.627 0h-1.313v-.656h1.313v.656zm2.628 0h-1.314v-.656h1.314v.656zm2.627 0h-1.314v-.656h1.314v.656zm2.627 0h-1.313v-.656h1.313v.656zm2.628 0h-1.314v-.656h1.314v.656zm2.627 0h-1.314v-.656h1.314v.656zm2.627 0h-1.314v-.656h1.314v.656zm2.627 0h-1.313v-.656h1.313v.656zm2.628 0h-1.314v-.656h1.314v.656zm2.627 0h-1.314v-.656h1.314v.656zm2.627 0h-1.313v-.656h1.313v.656zm2.628 0h-1.314v-.656h1.314v.656zm2.627 0h-1.314v-.656h1.314v.656zm2.627 0h-1.313v-.656h1.313v.656zm2.628 0h-1.314v-.656h1.314v.656zm2.627 0h-1.314v-.656h1.314v.656zm2.627 0h-1.313v-.656h1.313v.656zm2.628 0h-1.314v-.656h1.314v.656zm2.627 0h-1.314v-.656h1.314v.656zm2.627 0h-1.313v-.656h1.313v.656zm2.628 0h-1.314v-.656h1.314v.656zm2.627 0h-1.314v-.656h1.314v.656zm2.627 0h-1.313v-.656h1.313v.656zm2.628 0h-1.314v-.656h1.314v.656zm2.627 0h-1.314v-.656h1.314v.656zm2.627 0h-1.313v-.656h1.313v.656zm2.628 0h-1.314v-.656h1.314v.656zm2.627 0h-1.314v-.656h1.314v.656zm2.627 0h-1.313v-.656h1.313v.656zm2.627 0h-1.313v-.656h1.313v.656zm2.628 0h-1.314v-.656h1.314v.656zm2.627 0h-1.314v-.656h1.314v.656zm2.627 0h-1.313v-.656h1.313v.656zm2.628 0h-1.314v-.656h1.314v.656zm2.627 0h-1.314v-.656h1.314v.656zm2.627 0h-1.313v-.656h1.313v.656zm2.628 0h-1.314v-.656h1.314v.656zm2.627 0h-1.314v-.656h1.314v.656zm2.627 0h-1.313v-.656h1.313v.656zm2.628 0h-1.314v-.656h1.314v.656zm2.627 0h-1.314v-.656h1.314v.656zm2.627 0h-1.313v-.656h1.313v.656zm2.628 0h-1.314v-.656h1.314v.656zm2.627 0h-1.314v-.656h1.314v.656zm2.627 0h-1.313v-.656h1.313v.656zm2.628 0h-1.314v-.656h1.314v.656zm2.627 0h-1.314v-.656h1.314v.656zm2.627 0h-1.313v-.656h1.313v.656zm2.628 0h-1.314v-.656h1.314v.656zm2.627 0h-1.314v-.656h1.314v.656zm2.627 0h-1.313v-.656h1.313v.656zm2.628 0h-1.314v-.656h1.314v.656zm2.627 0h-1.314v-.656h1.314v.656zm2.627 0h-1.314v-.656h1.314v.656zm2.627 0h-1.313v-.656h1.313v.656zm2.628 0h-1.314v-.656h1.314v.656zm2.627 0h-1.314v-.656h1.314v.656zm2.627 0h-1.313v-.656h1.313v.656zm2.628 0h-1.314v-.656h1.314v.656zm2.627 0h-1.314v-.656h1.314v.656zm1.969 0h-.655v-.656h.655v.656z" fill="#1cd8c4" class="F"/><path d="M227.765 353.039h.567v3.082h-.567v-3.082z" class="L"/><g opacity=".25" class="F L"><path d="M455.885 166.368H44.113v-.655h411.772v.655zm0-32.04H44.113v-.656h411.772v.656z"/><use xlink:href="#X"/><use xlink:href="#X" y="-21.638"/><use xlink:href="#X" y="-43.276"/><use xlink:href="#X" y="-64.913"/><use xlink:href="#X" y="-86.551"/><path d="M416.544 223.412H44.113v-.655h372.431v.655zm0-21.638H44.113v-.655h372.431v.655z"/><use xlink:href="#Y"/><path d="M311.962 166.039v186.872h-.655V166.039h.655z"/><use xlink:href="#Y" x="-120.647"/><use xlink:href="#Y" x="-180.315"/><use xlink:href="#Y" x="-240.638"/><use xlink:href="#Y" x="-301.618"/><path d="M416.872 166.04v187.199H44.113v-.655h372.103V166.04h.656zm-313.419-31.473v31.473h-.656v-31.473h.656zm35.408 0v31.473h-.656v-31.473h.656zm27.538 0v31.473h-.656v-31.473h.656zm71.471 0v31.473h-.656v-31.473h.656z"/></g><g class="K"><path d="M45.896 180.577v1.492h2.003v.946h-2.003v1.577h2.259v.971h-3.452v-5.958h3.452v.972h-2.259zm4.903 1.244v2.285c0 .159.037.275.111.349.08.069.21.103.392.103h.554v1.005h-.75c-1.006 0-1.509-.488-1.509-1.466v-2.276h-.563v-.98h.563v-1.168h1.202v1.168h1.057v.98h-1.057zm4.745-1.048a1.89 1.89 0 0 1 .955.239 1.56 1.56 0 0 1 .648.69c.159.301.239.665.239 1.091v2.77h-1.193v-2.608c0-.375-.094-.662-.281-.861s-.443-.307-.767-.307c-.33 0-.591.103-.784.307-.187.199-.281.486-.281.861v2.608h-1.193v-6.307h1.193v2.173a1.53 1.53 0 0 1 .614-.477c.256-.119.54-.179.852-.179zm7.536 2.327c0 .171-.011.324-.034.46h-3.452c.029.341.148.608.358.802a1.1 1.1 0 0 0 .776.289c.443 0 .759-.19.946-.571h1.287a2.17 2.17 0 0 1-.784 1.125c-.386.29-.861.435-1.423.435a2.51 2.51 0 0 1-1.227-.298 2.2 2.2 0 0 1-.844-.861c-.199-.369-.298-.796-.298-1.279s.099-.917.298-1.287.477-.653.835-.852.77-.299 1.236-.299a2.46 2.46 0 0 1 1.202.29 2 2 0 0 1 .827.827c.199.352.298.759.298 1.219zm-1.236-.341c-.006-.307-.116-.551-.332-.733-.216-.188-.48-.281-.793-.281-.295 0-.545.091-.75.272-.199.177-.321.424-.367.742h2.242zm3.471-1.185a1.68 1.68 0 0 1 .597-.588c.25-.142.534-.213.852-.213v1.253h-.315c-.375 0-.659.088-.852.264-.187.176-.281.483-.281.921v2.352h-1.193v-4.722h1.193v.733zm6.813 1.526a2.81 2.81 0 0 1-.034.46h-3.452c.028.341.148.608.358.802a1.1 1.1 0 0 0 .776.289c.443 0 .759-.19.946-.571h1.287a2.17 2.17 0 0 1-.784 1.125c-.386.29-.861.435-1.424.435a2.51 2.51 0 0 1-1.227-.298 2.2 2.2 0 0 1-.844-.861c-.199-.369-.298-.796-.298-1.279s.099-.917.298-1.287.477-.653.835-.852.77-.299 1.236-.299a2.46 2.46 0 0 1 1.202.29 2 2 0 0 1 .827.827c.199.352.298.759.298 1.219zm-1.236-.341c-.006-.307-.117-.551-.332-.733-.216-.188-.48-.281-.793-.281-.295 0-.546.091-.75.272s-.321.424-.367.742h2.242zm6.736-1.918v4.722h-1.202v-.596c-.153.204-.355.366-.605.486-.244.113-.511.17-.801.17-.369 0-.696-.077-.98-.23-.284-.159-.509-.389-.673-.69-.159-.307-.239-.671-.239-1.092v-2.77h1.193v2.6c0 .375.094.665.281.869s.443.299.767.299c.33 0 .588-.1.776-.299s.281-.494.281-.869v-2.6h1.202zm7.212-.068c.58 0 1.046.179 1.398.537.358.352.537.847.537 1.483v2.77h-1.193v-2.608c0-.369-.094-.651-.281-.844-.187-.199-.443-.298-.767-.298s-.582.099-.776.298c-.188.193-.281.475-.281.844v2.608h-1.193v-2.608c0-.369-.094-.651-.281-.844-.187-.199-.443-.298-.767-.298-.33 0-.591.099-.784.298-.187.193-.281.475-.281.844v2.608h-1.193v-4.722h1.193v.571a1.6 1.6 0 0 1 .588-.469c.244-.113.511-.17.801-.17.369 0 .699.08.989.239a1.61 1.61 0 0 1 .673.665c.153-.273.375-.492.665-.657a1.93 1.93 0 0 1 .955-.247zm4.542 3.537l-.997 2.396h-.767l.554-2.396h1.21zm7.514-4.696c.625 0 1.174.122 1.645.366a2.58 2.58 0 0 1 1.1 1.049c.261.449.392.971.392 1.568s-.131 1.12-.392 1.569c-.256.443-.622.787-1.1 1.031-.472.244-1.02.366-1.645.366h-2.08v-5.949h2.08zm-.043 4.935c.625 0 1.108-.17 1.449-.511s.511-.821.511-1.441-.171-1.102-.511-1.449-.824-.528-1.449-.528h-.844v3.929h.844zm-50.957-36.101v1.492h2.003v.946h-2.003v1.577h2.259v.972h-3.452v-5.959h3.452v.972h-2.259zm7.818-.963v.963h-1.586v4.987h-1.193v-4.987H49.35v-.963h4.364zm6.232 0v5.95h-1.193v-2.532h-2.549v2.532h-1.193v-5.95h1.193v2.446h2.549v-2.446h1.193zm5.232 2.404v1.005h-3.614v-1.005h3.614zm2.941-2.404v3.682c0 .404.105.713.315.929s.506.316.887.316.685-.105.895-.316.315-.525.315-.929v-3.682h1.202v3.674c0 .505-.111.935-.332 1.287a2.06 2.06 0 0 1-.878.784c-.364.176-.77.264-1.219.264-.443 0-.847-.088-1.21-.264a2.03 2.03 0 0 1-.852-.784c-.21-.352-.315-.782-.315-1.287v-3.674h1.193zm7.248 6.009c-.415 0-.79-.071-1.125-.213s-.591-.346-.784-.614-.293-.582-.298-.946h1.279c.017.245.102.438.256.58.159.142.375.213.648.213.279 0 .497-.065.656-.196s.239-.313.239-.529c0-.176-.054-.321-.162-.434s-.244-.202-.409-.264c-.159-.069-.381-.143-.665-.222-.386-.114-.702-.225-.946-.333a1.75 1.75 0 0 1-.622-.502c-.17-.228-.256-.529-.256-.904a1.61 1.61 0 0 1 .264-.921c.176-.261.423-.46.742-.596.318-.142.682-.213 1.091-.213.614 0 1.111.15 1.492.451s.6.711.639 1.245h-1.313a.66.66 0 0 0-.264-.503c-.159-.136-.372-.205-.639-.205-.233 0-.421.06-.563.179-.136.12-.205.293-.205.52a.56.56 0 0 0 .153.401c.108.102.239.188.392.256.159.062.381.136.665.221a7.08 7.08 0 0 1 .946.341 1.7 1.7 0 0 1 .631.512c.176.228.264.525.264.895a1.68 1.68 0 0 1-.247.886c-.165.273-.406.492-.725.657-.318.159-.696.238-1.134.238zm5.646-6.009c.625 0 1.173.122 1.645.366a2.58 2.58 0 0 1 1.1 1.049c.261.449.392.972.392 1.568s-.131 1.12-.392 1.569c-.256.443-.622.787-1.1 1.031-.472.244-1.02.367-1.645.367h-2.08v-5.95h2.08zm-.043 4.935c.625 0 1.108-.17 1.449-.511s.511-.821.511-1.441-.17-1.102-.511-1.449-.824-.528-1.449-.528h-.844v3.929h.844zm4.209-1.969c0-.585.131-1.108.392-1.568.267-.466.628-.827 1.082-1.083.46-.261.975-.392 1.543-.392.665 0 1.247.171 1.747.512a2.67 2.67 0 0 1 1.048 1.415H89.62a1.41 1.41 0 0 0-.58-.64c-.244-.142-.528-.213-.852-.213-.347 0-.656.083-.929.247a1.68 1.68 0 0 0-.631.682c-.148.296-.222.642-.222 1.04 0 .392.074.739.222 1.04.153.296.364.526.631.691a1.81 1.81 0 0 0 .929.238c.324 0 .608-.071.852-.213a1.47 1.47 0 0 0 .58-.648h1.372c-.199.608-.548 1.083-1.048 1.424-.494.335-1.077.503-1.747.503a3.12 3.12 0 0 1-1.543-.384 2.91 2.91 0 0 1-1.082-1.082c-.261-.461-.392-.983-.392-1.569zm25.033-1.568c.039-.517.238-.924.596-1.219.364-.301.833-.452 1.407-.452.381 0 .707.068.98.205s.477.324.614.562.213.497.213.793c0 .358-.105.668-.316.929s-.508.423-.895.486v.043c.404.079.725.255.964.528.238.267.358.619.358 1.057 0 .489-.165.889-.495 1.202-.324.307-.795.46-1.415.46-.591 0-1.077-.153-1.457-.46-.381-.313-.6-.753-.657-1.321h.58c.051.38.21.69.477.929.267.233.62.349 1.057.349s.762-.113.989-.341c.233-.227.35-.517.35-.869 0-.864-.623-1.296-1.867-1.296h-.188v-.503h.196c1.16 0 1.739-.378 1.739-1.133 0-.33-.108-.594-.324-.793-.216-.205-.522-.307-.92-.307-.387 0-.708.102-.963.307-.25.199-.398.48-.444.844h-.579zm5.182 1.44c0-.977.15-1.736.452-2.276s.841-.809 1.619-.809 1.319.27 1.62.809.452 1.299.452 2.276c0 .995-.151 1.765-.452 2.31s-.841.819-1.62.819-1.327-.273-1.628-.819c-.295-.545-.443-1.315-.443-2.31zm3.554 0c0-.528-.037-.974-.11-1.338s-.219-.656-.435-.878-.529-.332-.938-.332-.721.11-.937.332-.361.514-.435.878-.111.81-.111 1.338c0 .546.037 1.003.111 1.373.074.363.219.656.435.878s.528.332.937.332.722-.111.938-.332.361-.515.435-.878c.073-.37.11-.827.11-1.373zm10.047-1.628c.545 0 .989.174 1.33.52s.52.838.52 1.492v2.728h-.589v-2.66c0-.506-.122-.892-.366-1.159s-.577-.401-.997-.401c-.438 0-.787.145-1.049.435s-.392.71-.392 1.261v2.524h-.588v-2.66c0-.506-.122-.892-.367-1.159s-.579-.401-1.005-.401c-.438 0-.787.145-1.049.435s-.392.71-.392 1.261v2.524h-.597v-4.655h.597v.802c.148-.29.358-.509.631-.657s.577-.23.912-.23c.403 0 .756.097 1.057.29.307.193.528.477.665.852.125-.369.338-.65.639-.843a1.87 1.87 0 0 1 1.04-.299zm60.283-1.653V153h-.596v-5.958h.596zm3.704 1.219c.557 0 1.012.173 1.364.52.352.341.528.838.528 1.491V153h-.588v-2.659c0-.506-.128-.893-.383-1.16s-.594-.4-1.032-.4c-.449 0-.807.142-1.074.426s-.4.702-.4 1.253V153h-.597v-4.654h.597v.793c.147-.285.36-.5.639-.648a1.92 1.92 0 0 1 .946-.23zm3.11 2.403c0-.477.096-.895.29-1.253s.457-.642.792-.835c.341-.199.725-.298 1.151-.298a2.1 2.1 0 0 1 1.108.298c.33.199.571.457.725.776v-2.66h.596V153h-.596v-1.04c-.142.324-.375.591-.699.801s-.705.307-1.143.307c-.426 0-.809-.099-1.15-.298s-.6-.48-.793-.844c-.187-.364-.281-.784-.281-1.262zm4.066.009c0-.375-.077-.705-.23-.989a1.63 1.63 0 0 0-.631-.656 1.68 1.68 0 0 0-.87-.23c-.329 0-.625.074-.886.221s-.469.364-.622.648-.222.611-.222.997.074.716.222 1.006a1.65 1.65 0 0 0 .622.657c.261.147.557.221.886.221a1.69 1.69 0 0 0 .87-.23c.267-.153.477-.372.631-.656s.23-.614.23-.989zm2.427-3.205a.42.42 0 0 1-.307-.128c-.085-.085-.127-.19-.127-.315a.4.4 0 0 1 .127-.307.42.42 0 0 1 .307-.128.42.42 0 0 1 .307.128.4.4 0 0 1 .128.307c0 .125-.043.23-.128.315a.42.42 0 0 1-.307.128zm.299.878V153h-.597v-4.654h.597zm1.249 2.327c0-.483.096-.904.289-1.262s.461-.642.802-.835c.341-.199.73-.298 1.167-.298.574 0 1.046.142 1.415.426a1.92 1.92 0 0 1 .725 1.159h-.639c-.08-.335-.253-.597-.52-.784-.262-.193-.588-.29-.981-.29-.312 0-.593.071-.843.213s-.449.355-.597.64c-.142.278-.213.622-.213 1.031s.071.756.213 1.04c.148.284.346.497.597.639a1.68 1.68 0 0 0 .843.213c.393 0 .719-.094.981-.281.267-.193.44-.46.52-.801h.639a1.95 1.95 0 0 1-.725 1.15c-.375.29-.846.435-1.415.435-.437 0-.826-.096-1.167-.29s-.608-.477-.802-.835c-.193-.364-.289-.787-.289-1.27zm5.398-.009c0-.477.093-.895.281-1.253a2.04 2.04 0 0 1 .793-.835c.341-.199.724-.298 1.15-.298.444 0 .824.102 1.143.307s.556.466.699.784v-1.023h.596V153h-.596v-1.031c-.148.318-.384.582-.708.792-.318.205-.699.307-1.142.307a2.22 2.22 0 0 1-1.142-.298c-.336-.199-.6-.48-.793-.844s-.281-.784-.281-1.262zm4.066.009c0-.375-.077-.705-.231-.989s-.363-.503-.63-.656-.552-.23-.87-.23c-.329 0-.625.074-.886.221s-.469.364-.623.648c-.147.279-.221.611-.221.997a2.18 2.18 0 0 0 .221 1.006 1.66 1.66 0 0 0 .623.657c.261.147.557.221.886.221.318 0 .608-.077.87-.23a1.66 1.66 0 0 0 .63-.656c.153-.284.231-.614.231-.989zm2.905-1.824v2.889c0 .285.054.481.161.589s.299.162.572.162h.545V153h-.639c-.421 0-.733-.097-.938-.29-.204-.199-.307-.523-.307-.972v-2.889h-.647v-.503h.647v-1.168h.606v1.168h1.278v.503h-1.278zm4.47 4.219c-.438 0-.833-.096-1.185-.29s-.622-.477-.827-.835c-.199-.364-.298-.787-.298-1.27s.102-.904.307-1.262a2.11 2.11 0 0 1 .835-.835c.352-.199.747-.298 1.185-.298a2.37 2.37 0 0 1 1.185.298 2.04 2.04 0 0 1 .835.835c.205.358.307.779.307 1.262 0 .477-.102.898-.307 1.261a2.16 2.16 0 0 1-.844.844c-.358.199-.756.29-1.193.29zm0-.52c.307 0 .591-.068.852-.204.262-.142.472-.353.631-.631.165-.284.247-.631.247-1.04s-.079-.753-.238-1.031c-.16-.285-.37-.495-.631-.631a1.76 1.76 0 0 0-.853-.213c-.306 0-.591.071-.852.213-.261.136-.472.346-.631.631-.153.278-.23.622-.23 1.031s.077.756.23 1.04c.159.278.367.489.622.631.262.136.546.204.853.204zm4.199-3.375a1.46 1.46 0 0 1 .596-.674c.273-.159.606-.238.998-.238v.622h-.162c-.432 0-.779.116-1.04.349s-.392.623-.392 1.168v2.6h-.597v-4.654h.597v.827zm4.264 3.895c-.534 0-.971-.122-1.312-.366-.336-.25-.523-.589-.563-1.015h.614c.028.262.15.475.366.64.222.159.517.238.887.238.324 0 .577-.076.758-.23.188-.153.282-.344.282-.571 0-.159-.051-.29-.154-.392a1.05 1.05 0 0 0-.392-.239 5.05 5.05 0 0 0-.631-.196 6.47 6.47 0 0 1-.843-.273 1.49 1.49 0 0 1-.554-.4c-.148-.182-.222-.424-.222-.725 0-.227.068-.437.204-.631s.33-.346.58-.46.534-.17.853-.17c.5 0 .903.128 1.21.383s.472.597.494 1.04h-.596c-.017-.273-.125-.491-.324-.656-.194-.171-.461-.256-.802-.256-.301 0-.545.071-.733.213s-.281.318-.281.529c0 .182.054.332.162.451.114.114.253.205.418.273a8.2 8.2 0 0 0 .665.213c.335.091.602.179.801.265a1.38 1.38 0 0 1 .511.375c.142.164.216.383.222.656 0 .25-.068.475-.205.673s-.326.347-.571.461-.525.17-.844.17z"/><path d="M182.695 145.945l-2.814 2.815c-.384.384-1.007.384-1.391 0l-2.351-2.351a.33.33 0 0 0-.464 0l-2.815 2.815-.464-.464 2.815-2.815c.384-.384 1.007-.384 1.391 0l2.351 2.351a.33.33 0 0 0 .464 0l2.815-2.814.463.463zm-.887 6.326v-1.968h.656v1.968h1.967v.655h-1.967v1.967h-.656v-1.967h-1.967v-.655h1.967zm-27.402 1.578l.381-.534 2.105 1.503 2.104-1.503.381.534-2.485 1.775-2.486-1.775zm-8.333-8.135h-1.311v9.835h1.311v1.311h.656v-1.311h1.311v-9.835h-1.311v-1.312h-.656v1.312zm-.656.655v8.524h1.967v-8.524h-1.967zm4.918.656h-1.312v7.212h1.312v1.312h.656v-1.312h1.311v-7.212h-1.311v-1.312h-.656v1.312zm-.656.655v5.902h1.967v-5.902h-1.967z" class="F"/></g><path d="M68.852 452.091v1.49h2.402v1.385h-2.402v1.615h2.717v1.438h-4.511v-7.365h4.511v1.437h-2.717zm9.704-1.437v1.437h-1.951v5.928h-1.794v-5.928H72.86v-1.437h5.697zm7.803 0v7.365h-1.794v-3.032h-2.791v3.032H79.98v-7.365h1.794v2.885h2.791v-2.885h1.794z" fill="#828282"/><path d="M142 453.887c0-7.967 6.458-14.425 14.425-14.425h82.617c7.967 0 14.425 6.458 14.425 14.425h0c0 7.967-6.458 14.425-14.425 14.425h-82.617c-7.967 0-14.425-6.458-14.425-14.425h0z" fill="#e7ebf5"/><path d="M169.539 453.887c0 7.242-5.871 13.113-13.114 13.113s-13.113-5.871-13.113-13.113 5.871-13.114 13.113-13.114 13.114 5.871 13.114 13.114z" class="I"/><path d="M149.826 456.581l.325-.262 1.616-1.395c.398-.364.734-.745 1.007-1.144s.409-.787.409-1.164c0-.287-.067-.511-.2-.672s-.332-.241-.598-.241-.475.101-.629.304c-.147.196-.22.476-.22.84h-1.731c.014-.595.14-1.092.377-1.49.245-.399.563-.693.955-.881.399-.189.839-.284 1.322-.284.832 0 1.458.214 1.878.64.426.427.64.983.64 1.668 0 .749-.256 1.445-.766 2.088-.511.637-1.161 1.259-1.951 1.867h2.832v1.459h-5.266v-1.333zm11.27 1.438l-1.5-2.256-1.322 2.256h-2.035l2.36-3.746-2.413-3.619h2.088l1.479 2.224 1.301-2.224h2.035l-2.339 3.714 2.434 3.651h-2.088z" class="B"/><path d="M178.58 452.57c.023-.606.221-1.073.595-1.401s.88-.492 1.519-.492c.425 0 .787.073 1.087.22a1.57 1.57 0 0 1 .688.603c.158.255.237.541.237.858 0 .373-.093.679-.28.917-.186.232-.404.39-.653.475v.034c.322.108.577.286.764.535s.28.569.28.959c0 .351-.082.662-.246.934-.159.266-.394.476-.705.628s-.671.23-1.095.23c-.679 0-1.223-.167-1.63-.501s-.614-.838-.637-1.512h1.409c.006.25.077.448.212.595.136.141.334.212.595.212.221 0 .39-.062.509-.187.125-.13.187-.3.187-.509 0-.272-.088-.467-.263-.586-.17-.124-.445-.187-.824-.187h-.271v-1.18h.271c.289 0 .521-.048.696-.144.182-.102.272-.28.272-.535 0-.204-.056-.362-.17-.475s-.269-.17-.467-.17c-.215 0-.376.065-.484.195-.101.13-.161.291-.178.484h-1.418zm9.309 4.449l-1.214-1.826-1.069 1.826h-1.648l1.911-3.031-1.953-2.929h1.69l1.197 1.8 1.052-1.8h1.647l-1.893 3.005 1.97 2.955h-1.69zm17.91-1.104v-1.172l2.683-3.837h1.621v3.752h.696v1.257h-.696v1.104h-1.452v-1.104h-2.852zm2.954-3.413l-1.426 2.156h1.426v-2.156zm6.977 4.517l-1.214-1.826-1.07 1.826h-1.647l1.91-3.031-1.952-2.929h1.689l1.197 1.8 1.053-1.8h1.647l-1.893 3.005 1.97 2.955h-1.69zm22.05-4.933h-2.649v1.172c.113-.125.272-.227.475-.306a1.82 1.82 0 0 1 .663-.119c.424 0 .775.096 1.052.289.283.192.49.441.62.747a2.51 2.51 0 0 1 .195.993c0 .662-.186 1.189-.56 1.579s-.9.578-1.579.578c-.453 0-.846-.077-1.18-.23a1.8 1.8 0 0 1-.773-.653c-.181-.277-.28-.597-.297-.96h1.418c.034.176.116.323.246.442.13.113.309.17.535.17.266 0 .464-.085.594-.255s.196-.396.196-.679-.068-.49-.204-.637-.334-.221-.595-.221a.75.75 0 0 0-.475.145.63.63 0 0 0-.246.365h-1.401v-3.694h3.965v1.274zm5.377 4.933l-1.214-1.826-1.07 1.826h-1.647l1.911-3.031-1.953-2.929h1.689l1.198 1.8 1.052-1.8h1.647l-1.893 3.005 1.97 2.955h-1.69z" class="I"/><rect x="311.635" y="440.773" width="157.365" height="39.341" rx="19.671" fill="#2dc48a"/><path d="M358.91 460.771c.516.097.94.355 1.272.774a2.26 2.26 0 0 1 .498 1.443c0 .489-.122.922-.367 1.298-.236.367-.581.656-1.036.865s-.992.315-1.613.315h-3.947v-9.153h3.777c.62 0 1.154.1 1.599.301.455.201.796.481 1.023.84.236.358.354.765.354 1.219 0 .534-.144.979-.432 1.338-.28.358-.656.612-1.128.76zm-3.357-.681h1.678c.437 0 .774-.097 1.01-.289.236-.201.354-.485.354-.852s-.118-.652-.354-.853-.573-.301-1.01-.301h-1.678v2.295zm1.849 3.881c.446 0 .791-.105 1.036-.315.253-.209.38-.507.38-.891 0-.394-.131-.7-.393-.918-.263-.228-.617-.341-1.063-.341h-1.809v2.465h1.849zm6.551-7.658v5.665c0 .621.162 1.097.485 1.429.324.324.778.486 1.364.486.595 0 1.054-.162 1.377-.486.324-.332.485-.808.485-1.429v-5.665h1.849v5.652c0 .778-.17 1.438-.511 1.98-.332.533-.783.935-1.351 1.206-.559.271-1.184.407-1.875.407-.682 0-1.303-.136-1.862-.407a3.12 3.12 0 0 1-1.312-1.206c-.323-.542-.485-1.202-.485-1.98v-5.652h1.836zm14.612 0l-3.095 5.967v3.186h-1.835v-3.186l-3.108-5.967h2.072l1.967 4.183 1.954-4.183h2.045zm9.102-3.266l-3.541 14.793h-1.797l3.541-14.793h1.797zm6.42 10.964h3.016v1.455h-4.852v-9.153h1.836v7.698zm8.432 1.547c-.857 0-1.643-.201-2.36-.603a4.52 4.52 0 0 1-1.705-1.666c-.42-.717-.63-1.525-.63-2.426 0-.892.21-1.691.63-2.4.42-.716.988-1.276 1.705-1.678s1.503-.603 2.36-.603a4.7 4.7 0 0 1 2.361.603c.717.402 1.28.962 1.691 1.678.42.709.63 1.508.63 2.4 0 .901-.21 1.709-.63 2.426a4.42 4.42 0 0 1-1.691 1.666c-.717.402-1.504.603-2.361.603zm0-1.639c.551 0 1.036-.123 1.456-.367a2.61 2.61 0 0 0 .983-1.076c.236-.463.354-1.001.354-1.613s-.118-1.145-.354-1.6c-.236-.463-.564-.817-.983-1.062s-.905-.367-1.456-.367-1.04.122-1.469.367c-.419.245-.747.599-.983 1.062-.236.455-.354.988-.354 1.6s.118 1.15.354 1.613a2.61 2.61 0 0 0 .983 1.076c.429.244.918.367 1.469.367zm13.877 1.547h-1.836l-4.157-6.281v6.281h-1.836V456.3h1.836l4.157 6.294V456.3h1.836v9.166zm8.187-6.399c-.21-.385-.498-.678-.865-.879s-.796-.302-1.285-.302c-.543 0-1.023.123-1.443.368a2.54 2.54 0 0 0-.984 1.049c-.237.455-.354.979-.354 1.573 0 .612.118 1.146.354 1.6.245.455.582.805 1.01 1.049s.927.368 1.495.368c.7 0 1.272-.184 1.718-.551.446-.376.739-.896.879-1.561h-3.148v-1.403h4.957v1.6c-.122.638-.384 1.228-.786 1.77a4.51 4.51 0 0 1-1.561 1.312c-.629.323-1.338.485-2.124.485-.883 0-1.683-.197-2.4-.59-.708-.402-1.268-.958-1.679-1.666-.402-.708-.603-1.512-.603-2.413s.201-1.704.603-2.413c.411-.716.971-1.272 1.679-1.665.717-.402 1.512-.603 2.387-.603 1.031 0 1.927.253 2.688.76.76.499 1.285 1.202 1.573 2.112h-2.111z" class="B"/><rect x="311.635" y="496.507" width="157.365" height="39.341" rx="19.671" class="D"/><path d="M352.619 521.292c-.638 0-1.215-.109-1.731-.328-.507-.219-.909-.533-1.206-.944s-.451-.896-.459-1.456h1.967c.026.376.157.673.393.892.245.218.577.328.997.328.428 0 .765-.101 1.01-.302.244-.21.367-.481.367-.813 0-.271-.083-.494-.249-.669a1.67 1.67 0 0 0-.63-.406c-.245-.105-.586-.219-1.023-.341a12.3 12.3 0 0 1-1.455-.512 2.68 2.68 0 0 1-.958-.773c-.262-.35-.393-.813-.393-1.39 0-.542.135-1.015.406-1.417s.652-.708 1.141-.918c.49-.218 1.049-.327 1.679-.327.944 0 1.709.231 2.295.695.594.454.922 1.092.983 1.914h-2.019c-.018-.315-.153-.572-.407-.774-.245-.209-.572-.314-.983-.314-.359 0-.647.091-.866.275-.21.184-.315.45-.315.8 0 .245.079.45.237.616.166.158.367.289.603.394a13.84 13.84 0 0 0 1.023.341 10.7 10.7 0 0 1 1.455.524c.376.175.7.437.971.787s.406.809.406 1.377c0 .49-.127.944-.38 1.364s-.625.756-1.115 1.01c-.489.244-1.071.367-1.744.367zm6.667-7.764v2.295h3.082v1.456h-3.082v2.426h3.475v1.495h-5.311v-9.166h5.311v1.494h-3.475zm6.979 6.216h3.016v1.456h-4.852v-9.153h1.836v7.697zm6.019 0h3.017v1.456h-4.853v-9.153h1.836v7.697zm12.226-10.963l-3.541 14.793h-1.796l3.54-14.793h1.797zm7.745 12.511c-.638 0-1.215-.109-1.731-.328-.507-.219-.909-.533-1.207-.944s-.45-.896-.458-1.456h1.967c.026.376.157.673.393.892.245.218.577.328.997.328.428 0 .765-.101 1.009-.302a1.02 1.02 0 0 0 .368-.813c0-.271-.083-.494-.25-.669s-.376-.31-.629-.406c-.245-.105-.586-.219-1.023-.341-.594-.175-1.08-.346-1.456-.512-.367-.174-.686-.432-.957-.773-.262-.35-.393-.813-.393-1.39 0-.542.135-1.015.406-1.417s.652-.708 1.141-.918c.49-.218 1.049-.327 1.679-.327.944 0 1.709.231 2.295.695.594.454.922 1.092.983 1.914h-2.019c-.018-.315-.153-.572-.407-.774-.245-.209-.573-.314-.983-.314-.359 0-.647.091-.866.275-.21.184-.315.45-.315.8a.86.86 0 0 0 .236.616 2.11 2.11 0 0 0 .604.394c.244.096.585.21 1.022.341.595.175 1.08.349 1.456.524s.7.437.971.787.406.809.406 1.377c0 .49-.127.944-.38 1.364s-.625.756-1.115 1.01c-.489.244-1.071.367-1.744.367zm12.424-9.245v9.153h-1.836v-3.895h-3.921v3.895h-1.836v-9.153h1.836v3.763h3.921v-3.763h1.836zm6.056 9.245c-.857 0-1.644-.201-2.361-.603a4.53 4.53 0 0 1-1.705-1.666c-.419-.717-.629-1.525-.629-2.426 0-.892.21-1.692.629-2.4.42-.717.988-1.276 1.705-1.678s1.504-.603 2.361-.603c.865 0 1.652.201 2.36.603a4.39 4.39 0 0 1 1.692 1.678c.419.708.629 1.508.629 2.4 0 .901-.21 1.709-.629 2.426a4.43 4.43 0 0 1-1.692 1.666c-.717.402-1.504.603-2.36.603zm0-1.639c.55 0 1.036-.123 1.455-.368.42-.253.748-.612.984-1.075s.354-1.001.354-1.613-.118-1.145-.354-1.6a2.52 2.52 0 0 0-.984-1.062c-.419-.245-.905-.367-1.455-.367s-1.041.122-1.469.367a2.52 2.52 0 0 0-.984 1.062c-.236.455-.354.988-.354 1.6s.118 1.15.354 1.613.564.822.984 1.075c.428.245.918.368 1.469.368zm10.768 1.547l-2.02-3.567h-.865v3.567h-1.836v-9.153h3.436c.708 0 1.311.126 1.81.38.498.245.869.581 1.114 1.01.254.419.38.891.38 1.416a2.75 2.75 0 0 1-.524 1.639c-.35.481-.87.813-1.561.997l2.19 3.711h-2.124zm-2.885-4.944h1.534c.499 0 .87-.118 1.115-.354.245-.245.367-.581.367-1.01 0-.419-.122-.743-.367-.97-.245-.236-.616-.354-1.115-.354h-1.534v2.688zm12.794-4.209v1.481h-2.439v7.672h-1.836v-7.672h-2.439v-1.481h6.714z" class="B"/><path d="M37.879 499.583v5.924h-.972v-4.058l-1.807 4.058h-.673l-1.816-4.058v4.058h-.972v-5.924h1.048l2.08 4.645 2.071-4.645h1.04zm1.124 3.554c0-.472.097-.889.29-1.253.199-.364.466-.645.801-.844a2.15 2.15 0 0 1 1.125-.307 1.99 1.99 0 0 1 .963.222 1.91 1.91 0 0 1 .665.537v-.682h.98v4.697h-.98v-.699a1.94 1.94 0 0 1-.673.554c-.284.148-.608.222-.972.222a2.09 2.09 0 0 1-1.108-.307 2.28 2.28 0 0 1-.801-.87 2.73 2.73 0 0 1-.29-1.27zm3.844.017c0-.324-.068-.605-.205-.844a1.38 1.38 0 0 0-.52-.545 1.37 1.37 0 0 0-.699-.188 1.37 1.37 0 0 0-.699.188c-.216.119-.392.298-.529.537a1.68 1.68 0 0 0-.196.835 1.78 1.78 0 0 0 .196.853 1.49 1.49 0 0 0 .529.562c.222.125.455.188.699.188a1.37 1.37 0 0 0 .699-.188 1.38 1.38 0 0 0 .52-.545c.136-.245.205-.529.205-.853zm3.399-1.662c.142-.239.33-.423.563-.554.239-.136.52-.205.844-.205v1.006h-.247c-.381 0-.671.097-.869.29-.193.193-.29.529-.29 1.006v2.472h-.972v-4.697h.972v.682zm4.328 1.671l2.165 2.344h-1.313l-1.739-2.02v2.02h-.972v-6.308h.972v3.665l1.705-2.054h1.347l-2.165 2.353zm7.337-.12c0 .177-.011.336-.034.478h-3.589c.028.375.168.676.418.903a1.32 1.32 0 0 0 .921.341c.523 0 .892-.219 1.108-.656h1.049c-.142.432-.401.787-.776 1.065-.369.273-.83.41-1.381.41-.449 0-.852-.1-1.21-.299a2.23 2.23 0 0 1-.835-.852c-.199-.37-.298-.796-.298-1.279s.097-.906.29-1.27a2.1 2.1 0 0 1 .827-.852c.358-.199.767-.299 1.227-.299.443 0 .838.097 1.185.29a2.04 2.04 0 0 1 .81.819c.193.346.29.747.29 1.201zm-1.014-.306c-.006-.358-.134-.645-.384-.861s-.56-.324-.929-.324a1.24 1.24 0 0 0-.861.324c-.239.21-.381.497-.426.861h2.6zm3.275-1.134v2.6c0 .176.04.304.119.383.085.074.227.111.426.111h.597v.81h-.767c-.438 0-.773-.102-1.006-.307s-.349-.537-.349-.997v-2.6h-.554v-.793h.554v-1.168h.98v1.168h1.142v.793h-1.142zm8.735-.256c0 .301-.071.585-.213.853s-.369.485-.682.656c-.312.165-.713.247-1.202.247h-1.074v2.404h-.972v-5.924h2.046c.455 0 .838.079 1.151.238s.554.364.707.631c.159.267.239.566.239.895zm-2.097.963c.369 0 .645-.082.827-.247s.273-.409.273-.716c0-.648-.367-.972-1.1-.972h-1.074v1.935h1.074zm4.166-.818c.142-.239.33-.423.563-.554.239-.136.52-.205.844-.205v1.006h-.247c-.381 0-.671.097-.87.29-.193.193-.29.529-.29 1.006v2.472h-.972v-4.697h.972v.682zm2.965-1.304c-.176 0-.324-.06-.443-.179a.6.6 0 0 1-.179-.443c0-.177.06-.324.179-.444a.6.6 0 0 1 .443-.179c.17 0 .315.06.435.179a.6.6 0 0 1 .179.444.6.6 0 0 1-.179.443.59.59 0 0 1-.435.179zm.477.622v4.697h-.972v-4.697h.972zm1.122 2.344c0-.483.097-.906.29-1.27a2.12 2.12 0 0 1 .818-.852 2.35 2.35 0 0 1 1.193-.299c.568 0 1.037.137 1.406.41.375.267.628.65.759 1.15h-1.048c-.085-.233-.222-.415-.409-.545s-.423-.196-.707-.196c-.398 0-.716.142-.955.426-.233.278-.35.67-.35 1.176s.117.901.35 1.185c.239.284.557.426.955.426.563 0 .935-.247 1.117-.741h1.048a2.12 2.12 0 0 1-.767 1.142c-.375.278-.841.418-1.398.418a2.35 2.35 0 0 1-1.193-.299c-.347-.204-.619-.489-.818-.852-.193-.37-.29-.796-.29-1.279zm9.91-.111c0 .177-.011.336-.034.478h-3.589c.028.375.168.676.418.903a1.32 1.32 0 0 0 .921.341c.523 0 .892-.219 1.108-.656h1.048c-.142.432-.401.787-.776 1.065-.369.273-.83.41-1.381.41-.449 0-.852-.1-1.21-.299a2.23 2.23 0 0 1-.835-.852c-.199-.37-.298-.796-.298-1.279s.097-.906.29-1.27a2.1 2.1 0 0 1 .827-.852c.358-.199.767-.299 1.227-.299.443 0 .838.097 1.185.29s.617.466.81.819c.193.346.29.747.29 1.201zm-1.014-.306c-.006-.358-.134-.645-.384-.861s-.56-.324-.929-.324a1.24 1.24 0 0 0-.861.324c-.239.21-.381.497-.426.861h2.6zm59.175 1.986h2.004v.784h-2.975v-5.924h.971v5.14zm3.481-4.535c-.176 0-.324-.06-.443-.179a.6.6 0 0 1-.179-.443.6.6 0 0 1 .179-.444c.119-.119.267-.179.443-.179.17 0 .315.06.435.179a.6.6 0 0 1 .179.444.6.6 0 0 1-.179.443c-.119.119-.265.179-.435.179zm.477.622v4.697h-.971v-4.697h.971zm1.123 2.327c0-.472.096-.889.29-1.253a2.16 2.16 0 0 1 .801-.844c.341-.204.719-.307 1.133-.307.364 0 .685.074.964.222s.503.327.656.537v-.682h.98v6.93h-.98v-2.915c-.153.21-.375.389-.665.537s-.619.222-.989.222c-.403 0-.772-.103-1.108-.307a2.3 2.3 0 0 1-.792-.87c-.194-.375-.29-.798-.29-1.27zm3.844.017c0-.324-.068-.605-.205-.844-.13-.238-.304-.42-.52-.545a1.37 1.37 0 0 0-.698-.188 1.37 1.37 0 0 0-.699.188c-.216.119-.393.298-.529.537-.131.233-.196.511-.196.835a1.78 1.78 0 0 0 .196.853c.136.244.313.431.529.562a1.4 1.4 0 0 0 .699.188c.25 0 .483-.063.698-.188a1.38 1.38 0 0 0 .52-.545c.137-.245.205-.529.205-.853zm6.681-2.344v4.697h-.972v-.554c-.154.193-.355.346-.605.46a1.92 1.92 0 0 1-.785.162c-.369 0-.701-.077-.997-.23-.29-.154-.52-.381-.69-.682s-.248-.665-.248-1.091v-2.762h.964v2.617c0 .42.105.744.315.972.21.221.497.332.861.332s.651-.111.861-.332c.216-.228.324-.552.324-.972v-2.617h.972zm1.947-.622c-.177 0-.324-.06-.444-.179a.6.6 0 0 1-.179-.443c0-.176.06-.324.179-.444a.6.6 0 0 1 .444-.179.59.59 0 0 1 .434.179.6.6 0 0 1 .179.444.6.6 0 0 1-.179.443.59.59 0 0 1-.434.179zm.477.622v4.697h-.972v-4.697h.972zm1.122 2.327c0-.472.097-.889.29-1.253.199-.364.466-.645.801-.844.341-.204.719-.307 1.134-.307.307 0 .608.069.904.205s.539.307.716.528v-2.267h.98v6.308h-.98v-.708c-.16.228-.381.415-.665.563a2.04 2.04 0 0 1-.964.222 2.15 2.15 0 0 1-1.125-.307c-.335-.211-.602-.5-.801-.87-.193-.375-.29-.798-.29-1.27zm3.845.017c0-.324-.069-.605-.205-.844a1.38 1.38 0 0 0-.52-.545 1.37 1.37 0 0 0-.699-.188 1.37 1.37 0 0 0-.699.188c-.216.119-.392.298-.528.537-.131.233-.196.511-.196.835a1.78 1.78 0 0 0 .196.853c.136.244.312.431.528.562.222.125.455.188.699.188a1.37 1.37 0 0 0 .699-.188 1.38 1.38 0 0 0 .52-.545c.136-.245.205-.529.205-.853zm2.103-.017c0-.472.096-.889.289-1.253a2.16 2.16 0 0 1 .802-.844 2.15 2.15 0 0 1 1.125-.307c.369 0 .69.074.963.222.279.142.5.321.665.537v-.682h.98v4.697h-.98v-.699a1.94 1.94 0 0 1-.673.554c-.285.148-.608.222-.972.222a2.09 2.09 0 0 1-1.108-.307c-.336-.211-.603-.5-.802-.87-.193-.375-.289-.798-.289-1.27zm3.844.017c0-.324-.068-.605-.205-.844-.13-.238-.304-.42-.52-.545a1.37 1.37 0 0 0-.699-.188c-.25 0-.483.063-.698.188-.216.119-.393.298-.529.537-.131.233-.196.511-.196.835a1.78 1.78 0 0 0 .196.853c.136.244.313.431.529.562a1.4 1.4 0 0 0 .698.188 1.37 1.37 0 0 0 .699-.188c.216-.125.39-.307.52-.545.137-.245.205-.529.205-.853zm3.561-1.551v2.6c0 .176.039.304.119.383s.227.111.426.111h.597v.81h-.767c-.438 0-.773-.102-1.006-.307s-.35-.537-.35-.997v-2.6h-.554v-.793h.554v-1.168h.981v1.168h1.142v.793h-1.142zm2.702-1.415c-.176 0-.324-.06-.443-.179s-.179-.267-.179-.443.06-.324.179-.444a.6.6 0 0 1 .443-.179.59.59 0 0 1 .435.179c.119.12.179.267.179.444a.6.6 0 0 1-.179.443.59.59 0 0 1-.435.179zm.478.622v4.697h-.972v-4.697h.972zm3.483 4.774c-.443 0-.844-.1-1.202-.299-.358-.204-.639-.489-.844-.852-.204-.37-.306-.796-.306-1.279 0-.477.105-.901.315-1.27s.497-.653.861-.852.77-.299 1.219-.299.855.1 1.219.299a2.19 2.19 0 0 1 .861.852c.21.369.315.793.315 1.27s-.108.901-.324 1.27-.511.657-.886.861a2.55 2.55 0 0 1-1.228.299zm0-.844c.25 0 .483-.06.699-.179a1.36 1.36 0 0 0 .537-.537c.137-.239.205-.529.205-.87s-.066-.628-.196-.861-.304-.417-.52-.537-.449-.179-.699-.179-.483.06-.699.179a1.29 1.29 0 0 0-.503.537c-.125.233-.188.52-.188.861 0 .506.128.898.384 1.176a1.3 1.3 0 0 0 .98.41zm5.939-4.007c.369 0 .699.077.989.231a1.63 1.63 0 0 1 .69.681c.165.302.247.665.247 1.092v2.77h-.963v-2.626c0-.42-.105-.741-.315-.963s-.498-.341-.861-.341-.654.114-.87.341c-.21.222-.315.543-.315.963v2.626h-.972v-4.697h.972v.537a1.62 1.62 0 0 1 .605-.452c.25-.108.514-.162.793-.162zm9.864.614c0 .301-.071.585-.214.853s-.369.485-.681.656c-.313.165-.714.247-1.202.247h-1.074v2.404h-.972v-5.924h2.046c.454 0 .838.079 1.15.238.319.154.554.364.708.631s.239.566.239.895zm-2.097.963c.369 0 .645-.082.827-.247s.272-.409.272-.716c0-.648-.366-.972-1.099-.972h-1.074v1.935h1.074zm4.166-.818a1.5 1.5 0 0 1 .562-.554c.239-.136.52-.205.844-.205v1.006h-.247c-.381 0-.671.097-.87.29-.193.193-.289.529-.289 1.006v2.472h-.972v-4.697h.972v.682zm2.964-1.304c-.176 0-.324-.06-.443-.179s-.179-.267-.179-.443.06-.324.179-.444a.6.6 0 0 1 .443-.179c.171 0 .315.06.435.179a.6.6 0 0 1 .179.444.6.6 0 0 1-.179.443.59.59 0 0 1-.435.179zm.477.622v4.697h-.971v-4.697h.971zm1.123 2.344c0-.483.096-.906.29-1.27.199-.369.471-.653.818-.852s.744-.299 1.193-.299c.569 0 1.037.137 1.407.41.375.267.628.65.758 1.15h-1.048c-.085-.233-.222-.415-.409-.545s-.424-.196-.708-.196a1.18 1.18 0 0 0-.954.426c-.233.278-.35.67-.35 1.176s.117.901.35 1.185a1.18 1.18 0 0 0 .954.426c.563 0 .935-.247 1.117-.741h1.048c-.136.477-.392.858-.767 1.142-.375.278-.841.418-1.398.418-.449 0-.846-.1-1.193-.299-.347-.204-.619-.489-.818-.852-.194-.37-.29-.796-.29-1.279zm9.91-.111a3.13 3.13 0 0 1-.034.478h-3.589c.029.375.168.676.418.903a1.32 1.32 0 0 0 .92.341c.523 0 .893-.219 1.109-.656h1.048c-.142.432-.401.787-.776 1.065-.369.273-.829.41-1.381.41-.449 0-.852-.1-1.21-.299-.352-.204-.631-.489-.835-.852-.199-.37-.299-.796-.299-1.279s.097-.906.29-1.27a2.1 2.1 0 0 1 .827-.852c.358-.199.767-.299 1.227-.299.444 0 .839.097 1.185.29a2.04 2.04 0 0 1 .81.819c.193.346.29.747.29 1.201zm-1.015-.306c-.005-.358-.133-.645-.383-.861s-.56-.324-.929-.324a1.24 1.24 0 0 0-.861.324c-.239.21-.381.497-.426.861h2.599z" class="L"/><path d="M40.295 527.604a3.12 3.12 0 0 1-.443 1.606c-.284.492-.71.902-1.279 1.229-.557.317-1.218.503-1.983.558v1.328h-1.049v-1.345c-1.093-.098-1.972-.426-2.639-.983-.667-.568-1.011-1.333-1.033-2.295h2.459c.066.787.47 1.262 1.213 1.426v-3.131c-.787-.197-1.421-.393-1.901-.59s-.896-.514-1.246-.951-.525-1.032-.525-1.786c0-.951.339-1.727 1.016-2.328.688-.601 1.574-.945 2.655-1.033v-1.328h1.049v1.328c1.049.088 1.885.404 2.508.951.634.546.989 1.3 1.066 2.262h-2.475a1.46 1.46 0 0 0-.344-.82c-.186-.24-.437-.409-.754-.508v3.098c.82.208 1.464.41 1.934.607.481.186.896.497 1.246.934.35.426.524 1.017.524 1.771zm-6.032-5.049c0 .36.109.655.328.885.219.219.535.399.951.541v-2.836c-.393.055-.705.202-.934.443s-.344.562-.344.967zm2.328 6.606c.415-.077.738-.246.967-.508a1.36 1.36 0 0 0 .361-.951c0-.361-.115-.65-.344-.869s-.557-.399-.983-.541v2.869zm5.725-8.098v-2.114h3.951v11.949h-2.36v-9.835h-1.59zm6.939 7.245l2.508-2.18a10.35 10.35 0 0 0 1.557-1.836c.415-.634.623-1.256.623-1.868 0-.558-.131-.995-.393-1.312s-.667-.475-1.213-.475-.967.186-1.262.557c-.295.361-.448.858-.459 1.492h-2.229c.044-1.311.432-2.306 1.164-2.983.743-.678 1.683-1.017 2.82-1.017 1.246 0 2.202.334 2.869 1 .667.656 1 1.525 1 2.607 0 .852-.23 1.666-.688 2.442s-.983 1.453-1.574 2.033l-2.311 2.065H56.5v1.902h-8.098v-1.705l.852-.722zm8.593.263v-1.803l5.36-7.672h2.672v7.475h1.443v2H65.88v2.327h-2.295v-2.327h-5.737zm5.885-7.016l-3.36 5.016h3.36v-5.016zm5.051 3.213c0-1.891.339-3.372 1.016-4.443.689-1.07 1.825-1.606 3.41-1.606s2.716.536 3.393 1.606c.689 1.071 1.033 2.552 1.033 4.443 0 1.901-.344 3.393-1.033 4.475-.677 1.082-1.809 1.623-3.393 1.623s-2.721-.541-3.41-1.623c-.677-1.082-1.016-2.574-1.016-4.475zm6.59 0c0-.809-.055-1.486-.164-2.033-.098-.557-.306-1.011-.623-1.36-.306-.35-.765-.525-1.377-.525s-1.076.175-1.393.525c-.306.349-.514.803-.623 1.36-.098.547-.148 1.224-.148 2.033 0 .83.049 1.53.148 2.098.098.557.306 1.011.623 1.361.317.338.781.508 1.393.508s1.076-.17 1.393-.508c.317-.35.524-.804.623-1.361.098-.568.147-1.268.147-2.098zm5.286 6.245c-.415 0-.759-.125-1.033-.377-.262-.262-.393-.584-.393-.967s.131-.699.393-.951c.273-.262.617-.393 1.033-.393.404 0 .738.131 1 .393.262.252.393.569.393.951s-.131.705-.393.967c-.262.252-.596.377-1 .377zm2.979-6.245c0-1.891.339-3.372 1.016-4.443.688-1.07 1.825-1.606 3.41-1.606s2.716.536 3.393 1.606c.689 1.071 1.033 2.552 1.033 4.443 0 1.901-.344 3.393-1.033 4.475-.677 1.082-1.809 1.623-3.393 1.623s-2.721-.541-3.41-1.623c-.678-1.082-1.016-2.574-1.016-4.475zm6.59 0c0-.809-.055-1.486-.164-2.033-.098-.557-.306-1.011-.623-1.36-.306-.35-.765-.525-1.377-.525s-1.076.175-1.393.525c-.306.349-.514.803-.623 1.36-.098.547-.147 1.224-.147 2.033 0 .83.049 1.53.147 2.098.098.557.306 1.011.623 1.361.317.338.781.508 1.393.508s1.076-.17 1.393-.508c.317-.35.525-.804.623-1.361.098-.568.148-1.268.148-2.098zm4.007 0c0-1.891.339-3.372 1.016-4.443.688-1.07 1.825-1.606 3.41-1.606s2.716.536 3.393 1.606c.689 1.071 1.033 2.552 1.033 4.443 0 1.901-.344 3.393-1.033 4.475-.677 1.082-1.808 1.623-3.393 1.623s-2.721-.541-3.41-1.623c-.678-1.082-1.016-2.574-1.016-4.475zm6.59 0c0-.809-.055-1.486-.164-2.033-.098-.557-.306-1.011-.623-1.36-.306-.35-.765-.525-1.377-.525s-1.076.175-1.393.525c-.306.349-.514.803-.623 1.36-.098.547-.147 1.224-.147 2.033 0 .83.049 1.53.147 2.098.098.557.306 1.011.623 1.361.317.338.781.508 1.393.508s1.076-.17 1.394-.508c.317-.35.524-.804.622-1.361.099-.568.148-1.268.148-2.098z" fill="#29193e"/><path d="M151.106 527.604a3.12 3.12 0 0 1-.442 1.606c-.284.492-.711.902-1.279 1.229-.557.317-1.218.503-1.983.558v1.328h-1.049v-1.345c-1.093-.098-1.973-.426-2.64-.983-.666-.568-1.01-1.333-1.032-2.295h2.458c.066.787.47 1.262 1.214 1.426v-3.131c-.787-.197-1.421-.393-1.902-.59a3.08 3.08 0 0 1-1.246-.951c-.349-.437-.524-1.032-.524-1.786 0-.951.338-1.727 1.016-2.328.688-.601 1.574-.945 2.656-1.033v-1.328h1.049v1.328c1.049.088 1.885.404 2.508.951.633.546.989 1.3 1.065 2.262H148.5c-.033-.317-.148-.59-.344-.82-.186-.24-.437-.409-.754-.508v3.098c.819.208 1.464.41 1.934.607.481.186.896.497 1.246.934.349.426.524 1.017.524 1.771zm-6.032-5.049c0 .36.109.655.328.885.218.219.535.399.951.541v-2.836c-.394.055-.705.202-.935.443s-.344.562-.344.967zm2.328 6.606c.415-.077.737-.246.967-.508a1.36 1.36 0 0 0 .36-.951c0-.361-.114-.65-.344-.869s-.557-.399-.983-.541v2.869zm13.61-8.475l-4.36 10.212h-2.328l4.393-9.95h-5.606v-1.967h7.901v1.705zm1.096.377v-2.114h3.95v11.949h-2.36v-9.835h-1.59zm6.939 7.245l2.508-2.18a10.35 10.35 0 0 0 1.557-1.836c.415-.633.623-1.256.623-1.868 0-.558-.131-.995-.393-1.312s-.667-.475-1.214-.475-.967.186-1.262.557c-.295.361-.448.858-.459 1.492h-2.229c.044-1.311.432-2.306 1.164-2.983.743-.678 1.683-1.017 2.819-1.017 1.246 0 2.202.334 2.869 1 .667.656 1 1.525 1 2.607 0 .852-.23 1.666-.689 2.442a9.89 9.89 0 0 1-1.573 2.033l-2.312 2.065h4.836v1.902h-8.098v-1.705l.853-.722zm9.97 2.705c-.415 0-.76-.125-1.033-.377-.262-.262-.393-.584-.393-.967s.131-.699.393-.951c.273-.262.618-.393 1.033-.393.404 0 .737.131 1 .393.262.252.393.569.393.951s-.131.705-.393.967c-.263.252-.596.377-1 .377zm2.979-6.245c0-1.891.339-3.372 1.017-4.443.688-1.07 1.825-1.606 3.409-1.606s2.716.536 3.393 1.606c.689 1.071 1.033 2.552 1.033 4.443 0 1.901-.344 3.393-1.033 4.475-.677 1.082-1.808 1.623-3.393 1.623s-2.721-.541-3.409-1.623c-.678-1.082-1.017-2.574-1.017-4.475zm6.59 0c0-.809-.055-1.486-.164-2.033-.098-.557-.306-1.011-.623-1.36-.306-.35-.765-.525-1.377-.525s-1.076.175-1.393.525c-.306.349-.514.803-.623 1.36-.098.547-.148 1.224-.148 2.033 0 .83.05 1.53.148 2.098.098.557.306 1.011.623 1.361.317.338.781.508 1.393.508s1.077-.17 1.394-.508c.316-.35.524-.804.622-1.361.099-.568.148-1.268.148-2.098zm4.008 0c0-1.891.338-3.372 1.016-4.443.688-1.07 1.825-1.606 3.41-1.606s2.715.536 3.393 1.606c.688 1.071 1.032 2.552 1.032 4.443 0 1.901-.344 3.393-1.032 4.475-.678 1.082-1.809 1.623-3.393 1.623s-2.722-.541-3.41-1.623c-.678-1.082-1.016-2.574-1.016-4.475zm6.589 0c0-.809-.054-1.486-.164-2.033-.098-.557-.306-1.011-.623-1.36-.305-.35-.764-.525-1.376-.525s-1.077.175-1.394.525c-.306.349-.513.803-.623 1.36-.098.547-.147 1.224-.147 2.033 0 .83.049 1.53.147 2.098.099.557.306 1.011.623 1.361.317.338.782.508 1.394.508s1.076-.17 1.393-.508c.317-.35.524-.804.623-1.361.098-.568.147-1.268.147-2.098z" class="K"/><path d="M79.66 47.398l-6.186 8.509V40.751h-6.134v27.015h6.134v-8.136l6.29 8.136h8.11l-8.578-9.944 8.578-10.423H79.66z" fill="url(#D)"/><path d="M96.763 47.398h-6.082v20.368h6.082V47.398z" fill="url(#E)"/><path d="M93.697 46.175c.988 0 1.82-.372 2.547-1.063.676-.691 1.04-1.595 1.04-2.606s-.364-1.914-1.04-2.606a3.49 3.49 0 0 0-2.547-1.064c-.988 0-1.82.372-2.547 1.064-.676.691-1.04 1.595-1.04 2.606s.364 1.914 1.04 2.606c.728.691 1.56 1.063 2.547 1.063z" fill="url(#F)"/><use xlink:href="#Z" fill="url(#G)"/><use xlink:href="#Z" fill="url(#H)" style="mix-blend-mode:multiply"/><path d="M64.688 57.609l-.052-1.064-13.101-10.263c-5.303.904-9.306 5.637-9.306 11.327 0 6.328 5.043 11.487 11.229 11.487 2.236 0 4.367-.691 6.135-1.861l4.575-6.116c.312-1.117.52-2.287.52-3.51z" fill="url(#I)" style="mix-blend-mode:multiply"/><use xlink:href="#Z" fill="url(#J)" style="mix-blend-mode:multiply"/><path d="M42.229 64.415c6.202 0 11.229-5.143 11.229-11.487s-5.028-11.487-11.229-11.487S31 46.585 31 52.929s5.028 11.487 11.229 11.487z" fill="url(#K)"/><path d="M112.425 57.01h-3.535v-2.5h9.825v2.499h-3.587v10.21h-2.755V57.01h.052zm8.317-2.446h4.783c.624 0 1.248.053 1.82.213.571.106 1.039.319 1.507.638.416.319.78.691 1.04 1.17s.364 1.117.364 1.861c0 .904-.208 1.648-.676 2.287s-1.144 1.01-1.976 1.17l3.12 5.318h-3.276l-2.599-5.052h-1.352v5.052h-2.755V54.564zm2.755 5.265h1.612c.26 0 .52 0 .78-.053a1.63 1.63 0 0 0 .728-.16c.208-.106.416-.213.572-.425s.207-.479.207-.798-.051-.585-.207-.744c-.104-.213-.312-.319-.468-.426-.208-.106-.416-.159-.676-.213a3.61 3.61 0 0 0-.728-.053h-1.768v2.872h-.052zm13.414-5.265h2.235l5.407 12.657h-3.068l-1.091-2.712h-4.835l-1.04 2.712h-3.015l5.407-12.657zm1.039 3.669l-1.507 3.935h3.015l-1.508-3.935zm8.577-3.669h4.107a11.97 11.97 0 0 1 2.808.319c.883.213 1.663.585 2.339 1.117s1.196 1.17 1.612 1.968.571 1.808.571 2.978c0 1.01-.208 1.914-.571 2.712s-.884 1.436-1.508 1.968-1.404.957-2.235 1.223a8.66 8.66 0 0 1-2.652.425h-4.471v-12.71zm2.704 10.104h1.403c.624 0 1.196-.053 1.768-.213.52-.106.988-.372 1.403-.638.416-.319.728-.691.936-1.223a4.64 4.64 0 0 0 .364-1.808c0-.638-.104-1.17-.364-1.648-.208-.479-.52-.851-.936-1.117-.363-.319-.831-.532-1.351-.691s-1.092-.213-1.664-.213h-1.611v7.551h.052zm11.385-10.104h8.422v2.553h-5.718v2.34h5.354v2.606h-5.354v2.606h6.03v2.553h-8.734V54.564z" class="I"/><rect x="31" y="89.324" width="96.774" height="28.85" rx="6.557" fill-opacity=".5" class="B"/><path d="M54.246 109.351c-.732.734-1.605 1.312-2.565 1.701a7.7 7.7 0 0 1-3.025.564c-1.03.02-2.053-.171-3.007-.56s-1.818-.97-2.541-1.705c-.739-.721-1.322-1.586-1.713-2.542s-.581-1.982-.559-3.015c0-2.261.757-4.145 2.272-5.652.723-.734 1.587-1.314 2.541-1.702s1.977-.578 3.006-.558c1.035-.018 2.064.173 3.024.561a7.72 7.72 0 0 1 2.566 1.698c1.549 1.506 2.324 3.391 2.324 5.652.02 1.037-.176 2.067-.576 3.024a7.45 7.45 0 0 1-1.748 2.533h0z" fill="#dfe3eb"/><path d="M48.703 98.354l-3.147 5.364 3.147-1.47v-3.894z" class="G"/><path d="M48.703 102.247l-3.147 1.47 3.147 1.909v-3.379z" fill="#393939"/><path d="M48.703 98.353v3.894l3.144 1.47-3.144-5.364z" class="H"/><path d="M48.703 102.247v3.379l3.144-1.909-3.144-1.47z" fill="#161616"/><path d="M45.556 104.329l3.147 4.555v-2.644l-3.147-1.911z" class="G"/><path d="M51.85 104.329l-3.147 1.911v2.644l3.147-4.555z" class="H"/><path d="M62.447 101.895v1.606h2.157v1.019h-2.157v1.699h2.433v1.046h-3.718v-6.416h3.718v1.046h-2.433zm8.42-1.037v1.037H69.16v5.37h-1.285v-5.37h-1.707v-1.037h4.7zm6.712 0v6.407h-1.285v-2.726h-2.745v2.726h-1.285v-6.407h1.285v2.634h2.745v-2.634h1.285zm5.166-2.286l-2.479 10.355h-1.258l2.478-10.355h1.258zm3.721 2.286c.673 0 1.264.131 1.772.394a2.78 2.78 0 0 1 1.184 1.13c.282.483.422 1.046.422 1.689s-.141 1.205-.422 1.689c-.275.477-.67.847-1.184 1.11-.508.264-1.098.395-1.772.395h-2.24v-6.407h2.24zm-.046 5.315c.673 0 1.193-.184 1.561-.551s.551-.884.551-1.551-.184-1.188-.551-1.561c-.367-.379-.887-.569-1.561-.569h-.909v4.232h.909zm8.774-.129h-2.552l-.422 1.221h-1.35l2.304-6.416h1.496l2.304 6.416h-1.359l-.422-1.221zm-.349-1.028l-.927-2.68-.927 2.68h1.854zm4.735-4.158v6.407h-1.285v-6.407h1.285zm18.359 1.58h-5.246l2.623 2.623 2.623-2.623z" class="M"/><rect x="31" y="89.324" width="96.774" height="28.85" rx="6.557" stroke="#dadfe6" stroke-opacity=".5"/><g clip-path="url(#L)"><path d="M224.211 89.324h72.794v28.85h-72.794z" class="I"/><g class="B"><path d="M245.193 103.754c0-.591.128-1.117.384-1.577a2.72 2.72 0 0 1 1.065-1.083 3.11 3.11 0 0 1 1.56-.392c.711 0 1.319.188 1.824.563s.844.886 1.015 1.534h-1.603c-.119-.25-.29-.44-.511-.571a1.4 1.4 0 0 0-.742-.196 1.39 1.39 0 0 0-1.091.469c-.278.312-.417.73-.417 1.253s.139.94.417 1.253.642.468 1.091.468a1.4 1.4 0 0 0 .742-.196c.221-.13.392-.321.511-.571h1.603c-.171.648-.509 1.16-1.015 1.535-.505.369-1.113.554-1.824.554-.579 0-1.099-.128-1.56-.384a2.79 2.79 0 0 1-1.065-1.082c-.256-.461-.384-.986-.384-1.577z"/><use xlink:href="#a"/><path d="M262.746 105.697h-2.234l-.358 1.057h-1.526l2.166-5.984h1.687l2.165 5.984h-1.542l-.358-1.057zm-.375-1.125l-.742-2.191-.733 2.191h1.475zm6.412 2.182l-1.244-2.259h-.35v2.259h-1.457v-5.984h2.446c.472 0 .872.083 1.202.247a1.72 1.72 0 0 1 .75.682 1.88 1.88 0 0 1 .247.955 1.77 1.77 0 0 1-.341 1.066c-.221.312-.551.534-.989.664l1.381 2.37h-1.645zm-1.594-3.29h.904c.267 0 .466-.066.596-.196.137-.131.205-.316.205-.554 0-.228-.068-.407-.205-.537-.13-.131-.329-.196-.596-.196h-.904v1.483z"/><use xlink:href="#b"/></g><path stroke="#0096fa" d="M224.211 89.324h72.794v28.85h-72.794z" class="J"/><g class="M"><path d="M314.678 102.697a1.95 1.95 0 0 1-.238.954c-.159.285-.404.515-.733.691s-.739.264-1.228.264h-.903v2.148h-1.458v-5.984h2.361c.478 0 .881.083 1.211.247s.576.393.741.682a1.98 1.98 0 0 1 .247.998zm-2.31.75c.279 0 .486-.066.623-.196s.204-.316.204-.554-.068-.424-.204-.554-.344-.196-.623-.196h-.792v1.5h.792zm6.325 3.367c-.562 0-1.079-.131-1.551-.392a2.99 2.99 0 0 1-1.117-1.091 3.12 3.12 0 0 1-.409-1.586c0-.585.137-1.111.409-1.577a2.99 2.99 0 0 1 1.117-1.091c.472-.261.989-.392 1.551-.392s1.077.131 1.543.392a2.84 2.84 0 0 1 1.108 1.091c.273.466.41.992.41 1.577a3.11 3.11 0 0 1-.41 1.586c-.272.466-.642.829-1.108 1.091s-.98.392-1.543.392zm0-1.33c.478 0 .859-.159 1.143-.477s.434-.739.434-1.262c0-.528-.145-.949-.434-1.261-.284-.319-.665-.478-1.143-.478s-.869.157-1.159.469c-.284.313-.426.736-.426 1.27s.142.952.426 1.27c.29.313.676.469 1.159.469zm6.463 1.33c-.438 0-.83-.071-1.177-.213s-.625-.353-.835-.631c-.204-.279-.312-.614-.324-1.006h1.552c.022.222.099.392.23.512.13.113.301.17.511.17.216 0 .387-.048.512-.145a.51.51 0 0 0 .187-.418c0-.147-.051-.27-.153-.366-.097-.097-.219-.176-.367-.239a5.76 5.76 0 0 0-.614-.213c-.386-.119-.701-.239-.946-.358s-.454-.295-.631-.528-.264-.537-.264-.912c0-.557.202-.992.605-1.305s.93-.477 1.577-.477c.66 0 1.191.159 1.594.477s.62.751.648 1.313h-1.577a.6.6 0 0 0-.213-.452c-.131-.113-.298-.17-.503-.17-.176 0-.318.048-.426.145-.108.091-.162.224-.162.4a.5.5 0 0 0 .273.452c.182.108.466.225.852.35a6.75 6.75 0 0 1 .938.375 1.78 1.78 0 0 1 .631.52c.176.227.264.52.264.878 0 .341-.088.65-.264.929s-.421.5-.75.665-.719.247-1.168.247zm4.963-6.044v5.984h-1.458v-5.984h1.458zm5.787 0v1.168h-1.586v4.816h-1.457v-4.816h-1.586v-1.168h4.629zm2.615 0v5.984h-1.458v-5.984h1.458zm4.313 6.044c-.563 0-1.08-.131-1.552-.392a2.98 2.98 0 0 1-1.116-1.091 3.11 3.11 0 0 1-.41-1.586c0-.585.137-1.111.41-1.577a2.98 2.98 0 0 1 1.116-1.091c.472-.261.989-.392 1.552-.392a3.1 3.1 0 0 1 1.542.392 2.84 2.84 0 0 1 1.108 1.091c.273.466.41.992.41 1.577a3.11 3.11 0 0 1-.41 1.586c-.272.466-.642.829-1.108 1.091a3.09 3.09 0 0 1-1.542.392zm0-1.33c.477 0 .858-.159 1.142-.477.29-.319.434-.739.434-1.262 0-.528-.144-.949-.434-1.261-.284-.319-.665-.478-1.142-.478-.483 0-.87.157-1.16.469-.284.313-.426.736-.426 1.27s.142.952.426 1.27c.29.313.677.469 1.16.469zm9.65 1.27h-1.458l-2.438-3.691v3.691h-1.457v-5.984h1.457l2.438 3.708v-3.708h1.458v5.984zm3.648.06c-.438 0-.83-.071-1.177-.213s-.625-.353-.835-.631-.313-.614-.324-1.006h1.551c.023.222.1.392.231.512.13.113.301.17.511.17.216 0 .386-.048.511-.145a.51.51 0 0 0 .188-.418c0-.147-.051-.27-.153-.366-.097-.097-.219-.176-.367-.239a5.76 5.76 0 0 0-.614-.213 6.73 6.73 0 0 1-.946-.358c-.244-.119-.454-.295-.631-.528s-.264-.537-.264-.912c0-.557.202-.992.605-1.305s.929-.477 1.577-.477c.659 0 1.191.159 1.594.477s.62.751.648 1.313h-1.577a.6.6 0 0 0-.213-.452c-.131-.113-.298-.17-.503-.17-.176 0-.318.048-.426.145-.108.091-.162.224-.162.4a.5.5 0 0 0 .273.452c.182.108.466.225.852.35a6.75 6.75 0 0 1 .938.375 1.78 1.78 0 0 1 .631.52c.176.227.264.52.264.878 0 .341-.088.65-.264.929s-.421.5-.751.665-.718.247-1.167.247z"/></g><path d="M297.005 89.324h74.419v28.85h-74.419z" class="J N"/><g class="M"><path d="M389.166 100.77v1.168h-1.586v4.816h-1.457v-4.816h-1.586v-1.168h4.629zm4.209 5.984l-1.245-2.259h-.349v2.259h-1.458v-5.984h2.447c.471 0 .872.083 1.202.247s.585.393.75.682a1.88 1.88 0 0 1 .247.955 1.77 1.77 0 0 1-.341 1.066c-.222.312-.551.534-.989.664l1.381 2.37h-1.645zm-1.594-3.29h.903c.268 0 .466-.065.597-.196.137-.131.205-.316.205-.554 0-.228-.068-.407-.205-.537-.131-.131-.329-.196-.597-.196h-.903v1.483zm8.254 2.233h-2.233l-.358 1.057h-1.526l2.165-5.984h1.688l2.165 5.984h-1.543l-.358-1.057zm-.375-1.125l-.742-2.191-.733 2.191h1.475zm5.603-3.802c.631 0 1.182.125 1.653.375a2.65 2.65 0 0 1 1.092 1.057c.261.449.392.969.392 1.56s-.131 1.105-.392 1.56c-.256.455-.623.807-1.1 1.057s-1.02.375-1.645.375h-2.242v-5.984h2.242zm-.094 4.723c.551 0 .98-.151 1.287-.452s.46-.728.46-1.279-.153-.98-.46-1.287-.736-.46-1.287-.46h-.69v3.478h.69zm5.929-3.555v1.21h1.952v1.126h-1.952v1.312h2.208v1.168h-3.666v-5.984h3.666v1.168h-2.208zm10.995-1.168v5.984h-1.457v-2.463h-2.268v2.463h-1.457v-5.984h1.457v2.344h2.268v-2.344h1.457zm2.936 0v5.984h-1.457v-5.984h1.457zm3.648 6.044c-.438 0-.83-.071-1.176-.213a1.96 1.96 0 0 1-.836-.631c-.204-.279-.312-.614-.324-1.006h1.552c.022.222.099.392.23.512.131.113.301.17.511.17.216 0 .387-.048.512-.145a.51.51 0 0 0 .187-.418c0-.147-.051-.27-.153-.366a1.22 1.22 0 0 0-.367-.239c-.142-.062-.346-.133-.613-.213-.387-.119-.702-.239-.947-.358s-.454-.295-.63-.528-.265-.537-.265-.912c0-.557.202-.992.606-1.305s.929-.477 1.577-.477c.659 0 1.19.159 1.593.477s.62.751.648 1.313h-1.577a.6.6 0 0 0-.213-.452.74.74 0 0 0-.503-.17c-.176 0-.318.048-.426.145-.108.091-.162.224-.162.4a.5.5 0 0 0 .273.452c.182.108.466.225.852.35a6.75 6.75 0 0 1 .938.375c.244.119.455.292.631.52s.264.52.264.878c0 .341-.088.65-.264.929s-.421.5-.75.665-.719.247-1.168.247zm7.81-6.044v1.168h-1.586v4.816h-1.457v-4.816h-1.586v-1.168h4.629zm3.988 6.044c-.563 0-1.08-.131-1.552-.392a2.98 2.98 0 0 1-1.116-1.091 3.11 3.11 0 0 1-.41-1.586c0-.585.137-1.111.41-1.577a2.98 2.98 0 0 1 1.116-1.091c.472-.261.989-.392 1.552-.392a3.1 3.1 0 0 1 1.542.392 2.84 2.84 0 0 1 1.108 1.091c.273.466.41.992.41 1.577a3.11 3.11 0 0 1-.41 1.586c-.272.466-.642.829-1.108 1.091a3.09 3.09 0 0 1-1.542.392zm0-1.33c.477 0 .858-.159 1.142-.477.29-.319.434-.739.434-1.262 0-.528-.144-.949-.434-1.261-.284-.319-.665-.478-1.142-.478-.484 0-.87.157-1.16.469-.284.313-.426.736-.426 1.27s.142.952.426 1.27c.29.313.676.469 1.16.469zm7.348 1.27l-1.244-2.259h-.35v2.259h-1.457v-5.984h2.446c.472 0 .872.083 1.202.247a1.72 1.72 0 0 1 .75.682 1.87 1.87 0 0 1 .247.955c0 .398-.113.753-.341 1.066-.221.312-.551.534-.988.664l1.38 2.37h-1.645zm-1.594-3.29h.904c.267 0 .466-.065.597-.196s.204-.316.204-.554c0-.228-.068-.407-.204-.537s-.33-.196-.597-.196h-.904v1.483zm9.661-2.694l-2.071 4.007v1.977h-1.458v-1.977l-2.071-4.007h1.653l1.16 2.506 1.15-2.506h1.637z"/></g><path d="M371.424 89.324h97.576v28.85h-97.576z" class="J N"/></g><rect x="224.211" y="89.324" width="244.789" height="28.85" rx="6.557" class="J N"/><defs><filter id="A" x="0" y="0" width="527" height="608" filterUnits="userSpaceOnUse" color-interpolation-filters="sRGB"><feFlood flood-opacity="0" result="A"/><feColorMatrix in="SourceAlpha" values="0 0 0 0 0 0 0 0 0 0 0 0 0 0 0 0 0 0 127 0"/><feOffset dx="14" dy="14"/><feGaussianBlur stdDeviation="10"/><feColorMatrix values="0 0 0 0 0.644097 0 0 0 0 0.644097 0 0 0 0 0.729167 0 0 0 0.2 0"/><feBlend in2="A"/><feBlend in="SourceGraphic"/></filter><linearGradient id="B" x1="89" y1="574" x2="89" y2="6" xlink:href="#c"><stop offset=".259" stop-color="#f1f6fd"/><stop offset="1" stop-color="#edf1f7"/></linearGradient><radialGradient id="C" cx="0" cy="0" r="1" gradientTransform="translate(136.5 70.1611) rotate(90) scale(510.802 437.959)" xlink:href="#c"><stop stop-color="#fff"/><stop offset="1" stop-color="#fff" stop-opacity=".63"/></radialGradient><linearGradient id="D" x1="98.301" y1="76.602" x2="56.271" y2="39.722" xlink:href="#c"><stop stop-color="#004cff"/><stop offset="1" stop-color="#66d4ff"/></linearGradient><linearGradient id="E" x1="105.491" y1="68.407" x2="63.46" y2="31.528" xlink:href="#c"><stop stop-color="#004cff"/><stop offset="1" stop-color="#66d4ff"/></linearGradient><linearGradient id="F" x1="112.82" y1="60.056" x2="70.789" y2="23.177" xlink:href="#c"><stop stop-color="#004cff"/><stop offset="1" stop-color="#66d4ff"/></linearGradient><linearGradient id="G" x1="87.522" y1="88.887" x2="45.491" y2="52.008" xlink:href="#c"><stop stop-color="#004cff"/><stop offset="1" stop-color="#66d4ff"/></linearGradient><radialGradient id="H" cx="0" cy="0" r="1" gradientTransform="matrix(19.56166063809291,4.510771339813899,-4.603862874861714,19.965366541074825,51.2501,55.1574)" xlink:href="#c"><stop stop-color="#fff"/><stop offset=".373" stop-color="#fdfeff"/><stop offset=".507" stop-color="#f6f9ff"/><stop offset=".603" stop-color="#ebf1ff"/><stop offset=".68" stop-color="#dae5ff"/><stop offset=".746" stop-color="#c4d5ff"/><stop offset=".805" stop-color="#a8c2ff"/><stop offset=".858" stop-color="#88abff"/><stop offset=".907" stop-color="#6291ff"/><stop offset=".952" stop-color="#3773ff"/><stop offset=".993" stop-color="#0952ff"/><stop offset="1" stop-color="#004cff"/></radialGradient><linearGradient id="I" x1="33.962" y1="45.191" x2="62.828" y2="65.839" xlink:href="#c"><stop offset="0" stop-color="#004cff"/><stop offset=".133" stop-color="#2767ff"/><stop offset=".434" stop-color="#89acff"/><stop offset=".772" stop-color="#fff"/></linearGradient><radialGradient id="J" cx="0" cy="0" r="1" gradientTransform="matrix(18.6422,0,0,19.0696,42.1908,50.3819)" xlink:href="#c"><stop offset=".508" stop-color="#004cff"/><stop offset=".541" stop-color="#195dff" stop-opacity=".933"/><stop offset=".639" stop-color="#5e8eff" stop-opacity=".733"/><stop offset=".732" stop-color="#97b6ff" stop-opacity=".544"/><stop offset=".818" stop-color="#c4d6ff" stop-opacity=".37"/><stop offset=".893" stop-color="#e4ecff" stop-opacity=".217"/><stop offset=".957" stop-color="#f8faff" stop-opacity=".088"/><stop offset="1" stop-color="#fff" stop-opacity="0"/></radialGradient><radialGradient id="K" cx="0" cy="0" r="1" gradientTransform="translate(30.6969 43.9225) scale(37.2371 38.0909)" xlink:href="#c"><stop stop-color="#ffbe3b"/><stop offset=".134" stop-color="#ffb445"/><stop offset=".364" stop-color="#ff995e"/><stop offset=".66" stop-color="#ff6d88"/><stop offset=".713" stop-color="#ff6490"/></radialGradient><clipPath id="L"><rect x="224.211" y="89.324" width="244.789" height="28.85" rx="6.557" class="B"/></clipPath><path id="M" d="M428.621 198.586v-.599h1.356v5.215h-.663v-4.616h-.693z"/><path id="N" d="M430.946 202.04v-.497l2.531-3.506h.787v3.434h.721v.569h-.721v1.162h-.65v-1.162h-2.668zm2.697-3.317l-1.94 2.748h1.94v-2.748z"/><path id="O" d="M445.016 203.245c-.125 0-.231-.043-.318-.13a.43.43 0 0 1-.129-.317c0-.125.043-.231.129-.318s.193-.129.318-.129a.4.4 0 0 1 .303.129c.086.087.13.193.13.318s-.044.231-.13.317a.4.4 0 0 1-.303.13z"/><path id="P" d="M450.742 200.54c0-.827.134-1.471.404-1.933s.74-.699 1.413-.699 1.138.233 1.407.699.404 1.106.404 1.933c0 .842-.135 1.496-.404 1.962s-.738.7-1.407.7-1.144-.234-1.413-.7-.404-1.12-.404-1.962zm2.979 0a5.48 5.48 0 0 0-.087-1.06c-.053-.293-.166-.529-.339-.707s-.413-.267-.736-.267-.577.089-.75.267a1.4 1.4 0 0 0-.339.707c-.053.288-.079.642-.079 1.06 0 .433.026.796.079 1.089s.171.529.339.707.423.267.75.267.568-.089.736-.267a1.32 1.32 0 0 0 .339-.707c.058-.293.087-.656.087-1.089z"/><path id="Q" d="M371.603 360.96v-.497l2.532-3.506h.786v3.434h.721v.569h-.721v1.162h-.649v-1.162h-2.669zm2.698-3.317l-1.941 2.748h1.941v-2.748z"/><path id="R" d="M433.33 309.04c0-.827.135-1.471.404-1.933s.741-.699 1.414-.699c.668 0 1.137.233 1.406.699s.404 1.106.404 1.933c0 .842-.134 1.496-.404 1.962s-.738.7-1.406.7c-.673 0-1.144-.234-1.414-.7s-.404-1.12-.404-1.962zm2.979 0c0-.418-.029-.772-.086-1.06-.053-.293-.166-.529-.339-.707s-.414-.267-.736-.267-.577.089-.75.267a1.4 1.4 0 0 0-.339.707c-.053.288-.079.642-.079 1.06 0 .433.026.796.079 1.089s.171.529.339.707.423.267.75.267.567-.089.736-.267a1.32 1.32 0 0 0 .339-.707c.057-.293.086-.656.086-1.089z"/><path id="S" d="M437.859 309.04c0-.827.135-1.471.404-1.933s.741-.699 1.414-.699 1.137.233 1.406.699.404 1.106.404 1.933c0 .842-.134 1.496-.404 1.962s-.738.7-1.406.7-1.144-.234-1.414-.7-.404-1.12-.404-1.962zm2.979 0c0-.418-.029-.772-.086-1.06-.053-.293-.166-.529-.339-.707s-.414-.267-.736-.267-.577.089-.75.267a1.4 1.4 0 0 0-.339.707c-.053.288-.079.642-.079 1.06 0 .433.026.796.079 1.089s.171.529.339.707.423.267.75.267.567-.089.736-.267a1.32 1.32 0 0 0 .339-.707c.057-.293.086-.656.086-1.089z"/><path id="T" d="M433.345 265.765c0-.827.134-1.472.404-1.933.269-.467.74-.7 1.413-.7s1.138.233 1.407.7c.269.461.404 1.106.404 1.933 0 .841-.135 1.495-.404 1.962s-.738.699-1.407.699-1.144-.233-1.413-.699-.404-1.121-.404-1.962zm2.979 0c0-.419-.029-.772-.087-1.06a1.32 1.32 0 0 0-.339-.707c-.168-.178-.413-.267-.736-.267s-.577.089-.75.267c-.168.178-.281.413-.339.707-.053.288-.079.641-.079 1.06 0 .433.026.796.079 1.089a1.4 1.4 0 0 0 .339.707c.173.178.423.267.75.267s.568-.089.736-.267.286-.414.339-.707.087-.656.087-1.089z"/><path id="U" d="M422.164 331.277h-2.273v-.656h2.273v.656z"/><path id="V" d="M236.582 293.317h-.557v.786h-1.116v8.256h1.116v1.966h.557v-1.966h1.116v-8.256h-1.116v-.786z"/><path id="W" d="M56.031 317.762h-.558v.787h-1.116v8.256h1.116v1.966h.558v-1.966h1.115v-8.256h-1.115v-.787z"/><path id="X" d="M416.544 331.601H44.113v-.656h372.431v.656z"/><path id="Y" d="M372.286 166.039v186.872h-.656V166.039h.656z"/><path id="Z" d="M53.459 69.095c6.202 0 11.229-5.143 11.229-11.487S59.66 46.122 53.459 46.122 42.23 51.265 42.23 57.609s5.027 11.487 11.229 11.487z"/><path id="a" d="M257.542 100.77v5.984h-1.457v-2.463h-2.268v2.463h-1.457v-5.984h1.457v2.344h2.268v-2.344h1.457z"/><path id="b" d="M276.023 100.77v1.168h-1.586v4.816h-1.457v-4.816h-1.586v-1.168h4.629z"/><linearGradient id="c" gradientUnits="userSpaceOnUse"/></defs></svg>