<svg xmlns="http://www.w3.org/2000/svg" viewBox="0 0 571 537" width="571" height="537" preserveAspectRatio="xMidYMid meet" style="width: 100%; height: 100%; transform: translate3d(0px, 0px, 0px);"><defs><clipPath id="__lottie_element_2"><rect width="571" height="537" x="0" y="0"/></clipPath></defs><g clip-path="url(#__lottie_element_2)"><g transform="matrix(-0.8480480909347534,0.5299192667007446,-0.5299192667007446,-0.8480480909347534,295.35107421875,417.4850769042969)" opacity="1" style="display: block;"><g opacity="1" transform="matrix(1,0,0,1,111.70700073242188,44.95800018310547)"><path fill="rgb(246,198,86)" fill-opacity="1" d=" M-176.19825744628906,26.137060165405273 C-175.87026977539062,25.71906089782715 -119.83456420898438,6.391634941101074 -110.9299087524414,-1.1037453413009644 C-89.02083587646484,-24.041656494140625 -61.20977020263672,-66.33472442626953 -61.1986198425293,-66.80571746826172 C-61.120643615722656,-70.08720397949219 -61.06429672241211,-72.96420288085938 -60.997615814208984,-75.28568267822266 C-60.62339401245117,-91.34757232666016 -47.2085075378418,-90.96513366699219 -31.575605392456055,-85.52302551269531 C-15.8777437210083,-79.98991394042969 13.231425285339355,-68.62281799316406 7.596397876739502,-54.9434700012207 C2.5902655124664307,-42.56193923950195 -22.77495002746582,-52.080909729003906 -35.0117073059082,-56.310523986816406 C-35.731632232666016,-56.55923080444336 -76.18772888183594,3.4659931659698486 -90.05313110351562,19.316967010498047 C-96.93016052246094,29.736906051635742 -146.72329711914062,46.44596862792969 -152.60736083984375,48.471351623535156"/><path stroke-linecap="round" stroke-linejoin="round" fill-opacity="0" stroke="rgb(41,25,62)" stroke-opacity="1" stroke-width="6" d=" M-176.19825744628906,26.137060165405273 C-175.87026977539062,25.71906089782715 -119.83456420898438,6.391634941101074 -110.9299087524414,-1.1037453413009644 C-89.02083587646484,-24.041656494140625 -61.20977020263672,-66.33472442626953 -61.1986198425293,-66.80571746826172 C-61.120643615722656,-70.08720397949219 -61.06429672241211,-72.96420288085938 -60.997615814208984,-75.28568267822266 C-60.62339401245117,-91.34757232666016 -47.2085075378418,-90.96513366699219 -31.575605392456055,-85.52302551269531 C-15.8777437210083,-79.98991394042969 13.231425285339355,-68.62281799316406 7.596397876739502,-54.9434700012207 C2.5902655124664307,-42.56193923950195 -22.77495002746582,-52.080909729003906 -35.0117073059082,-56.310523986816406 C-35.731632232666016,-56.55923080444336 -76.18772888183594,3.4659931659698486 -90.05313110351562,19.316967010498047 C-96.93016052246094,29.736906051635742 -146.72329711914062,46.44596862792969 -152.60736083984375,48.471351623535156"/></g></g><g transform="matrix(1,0,0,1,153.99900817871094,20.29205322265625)" opacity="1" style="display: block;"><g opacity="1" transform="matrix(1,0,0,1,152.81500244140625,154.38600158691406)"><path fill="rgb(246,197,85)" fill-opacity="1" d=" M0,151.33200073242188 C83.5780029296875,151.33200073242188 151.33200073242188,83.5780029296875 151.33200073242188,0 C151.33200073242188,-83.5780029296875 83.5780029296875,-151.33200073242188 0,-151.33200073242188 C-83.5790023803711,-151.33200073242188 -151.33299255371094,-83.5780029296875 -151.33299255371094,0 C-151.33299255371094,83.5780029296875 -83.5790023803711,151.33200073242188 0,151.33200073242188z"/><path stroke-linecap="butt" stroke-linejoin="miter" fill-opacity="0" stroke-miterlimit="4" stroke="rgb(41,25,62)" stroke-opacity="1" stroke-width="6" d=" M0,151.33200073242188 C83.5780029296875,151.33200073242188 151.33200073242188,83.5780029296875 151.33200073242188,0 C151.33200073242188,-83.5780029296875 83.5780029296875,-151.33200073242188 0,-151.33200073242188 C-83.5790023803711,-151.33200073242188 -151.33299255371094,-83.5780029296875 -151.33299255371094,0 C-151.33299255371094,83.5780029296875 -83.5790023803711,151.33200073242188 0,151.33200073242188z"/></g></g><g transform="matrix(1,0,0,1,190.29293823242188,145.70458984375)" opacity="1" style="display: block;"><g opacity="1" transform="matrix(1,0,0,1,102.4209976196289,10.208000183105469)"><path fill="rgb(24,24,54)" fill-opacity="1" d=" M0.0010000000474974513,7.4029998779296875 C4.090000152587891,7.4029998779296875 7.4029998779296875,4.089000225067139 7.4029998779296875,-0.0010000000474974513 C7.4029998779296875,-4.090000152587891 4.090000152587891,-7.4029998779296875 0.0010000000474974513,-7.4029998779296875 C-4.090000152587891,-7.4029998779296875 -7.4029998779296875,-4.090000152587891 -7.4029998779296875,-0.0010000000474974513 C-7.4029998779296875,4.089000225067139 -4.090000152587891,7.4029998779296875 0.0010000000474974513,7.4029998779296875z"/><path stroke-linecap="butt" stroke-linejoin="miter" fill-opacity="0" stroke-miterlimit="10" stroke="rgb(24,24,54)" stroke-opacity="1" stroke-width="1.122" d=" M0.0010000000474974513,7.4029998779296875 C4.090000152587891,7.4029998779296875 7.4029998779296875,4.089000225067139 7.4029998779296875,-0.0010000000474974513 C7.4029998779296875,-4.090000152587891 4.090000152587891,-7.4029998779296875 0.0010000000474974513,-7.4029998779296875 C-4.090000152587891,-7.4029998779296875 -7.4029998779296875,-4.090000152587891 -7.4029998779296875,-0.0010000000474974513 C-7.4029998779296875,4.089000225067139 -4.090000152587891,7.4029998779296875 0.0010000000474974513,7.4029998779296875z"/></g><g opacity="1" transform="matrix(1,0,0,1,54.856998443603516,21.875)"><path fill="rgb(24,24,54)" fill-opacity="1" d=" M-7.291999816894531,-5.833000183105469 C-8.862000465393066,-5.7210001945495605 -9.984000205993652,-4.598999977111816 -10.095999717712402,-3.0290000438690186 C-10.208000183105469,-0.5609999895095825 -7.307000160217285,6.201000213623047 0.11100000143051147,5.946000099182129 C7.880000114440918,6.138999938964844 10.208000183105469,-2.13100004196167 9.982999801635742,-3.5899999141693115 C9.758999824523926,-4.823999881744385 8.413999557495117,-5.7210001945495605 7.291999816894531,-5.609000205993652 C2.4679999351501465,-5.497000217437744 -5.833000183105469,-5.946000099182129 -7.291999816894531,-5.833000183105469z"/></g><g opacity="1" transform="matrix(1,0,0,1,10.208999633789062,10.208000183105469)"><path fill="rgb(24,24,54)" fill-opacity="1" d=" M0,7.4029998779296875 C4.089000225067139,7.4029998779296875 7.4039998054504395,4.089000225067139 7.4039998054504395,-0.0010000000474974513 C7.4039998054504395,-4.090000152587891 4.089000225067139,-7.4029998779296875 0,-7.4029998779296875 C-4.089000225067139,-7.4029998779296875 -7.4039998054504395,-4.090000152587891 -7.4039998054504395,-0.0010000000474974513 C-7.4039998054504395,4.089000225067139 -4.089000225067139,7.4029998779296875 0,7.4029998779296875z"/><path stroke-linecap="butt" stroke-linejoin="miter" fill-opacity="0" stroke-miterlimit="10" stroke="rgb(24,24,54)" stroke-opacity="1" stroke-width="1.122" d=" M0,7.4029998779296875 C4.089000225067139,7.4029998779296875 7.4039998054504395,4.089000225067139 7.4039998054504395,-0.0010000000474974513 C7.4039998054504395,-4.090000152587891 4.089000225067139,-7.4029998779296875 0,-7.4029998779296875 C-4.089000225067139,-7.4029998779296875 -7.4039998054504395,-4.090000152587891 -7.4039998054504395,-0.0010000000474974513 C-7.4039998054504395,4.089000225067139 -4.089000225067139,7.4029998779296875 0,7.4029998779296875z"/></g></g><g transform="matrix(0.46615707874298096,0.8847019672393799,-0.8847019672393799,0.46615707874298096,73.43777465820312,154.70765686035156)" opacity="1" style="display: block;"><g opacity="1" transform="matrix(1,0,0,1,52.891998291015625,53.229000091552734)"><path fill="rgb(197,148,99)" fill-opacity="1" d=" M9.592000007629395,-43.24599838256836 C9.592000007629395,-43.24599838256836 6.561999797821045,-44.816001892089844 -2.9730000495910645,-44.03099822998047 C-12.508999824523926,-43.244998931884766 -21.59600067138672,-39.43199920654297 -28.774999618530273,-33.03799819946289 C-35.95399856567383,-26.64299964904785 -40.77899932861328,-18.117000579833984 -42.685001373291016,-8.694000244140625 C-44.47999954223633,0.7300000190734863 -43.24599838256836,10.48799991607666 -38.98400115966797,19.125999450683594 C-34.72100067138672,27.763999938964844 -27.878000259399414,34.71900177001953 -19.239999771118164,39.09400177001953 C-10.71399974822998,43.356998443603516 -0.9539999961853027,44.816001892089844 8.581000328063965,43.020999908447266 C18.003999710083008,41.22600173950195 26.643999099731445,36.51499938964844 33.150001525878906,29.336000442504883 C39.65599822998047,22.26799964904785 43.58300018310547,13.182000160217285 44.47999954223633,3.6459999084472656 C44.47999954223633,3.6459999084472656 22.26799964904785,-4.992000102996826 18.0049991607666,-9.8149995803833 C13.741999626159668,-14.527000427246094 9.592000007629395,-43.24599838256836 9.592000007629395,-43.24599838256836z"/><path stroke-linecap="butt" stroke-linejoin="miter" fill-opacity="0" stroke-miterlimit="10" stroke="rgb(29,29,27)" stroke-opacity="1" stroke-width="3.365" d=" M9.592000007629395,-43.24599838256836 C9.592000007629395,-43.24599838256836 6.561999797821045,-44.816001892089844 -2.9730000495910645,-44.03099822998047 C-12.508999824523926,-43.244998931884766 -21.59600067138672,-39.43199920654297 -28.774999618530273,-33.03799819946289 C-35.95399856567383,-26.64299964904785 -40.77899932861328,-18.117000579833984 -42.685001373291016,-8.694000244140625 C-44.47999954223633,0.7300000190734863 -43.24599838256836,10.48799991607666 -38.98400115966797,19.125999450683594 C-34.72100067138672,27.763999938964844 -27.878000259399414,34.71900177001953 -19.239999771118164,39.09400177001953 C-10.71399974822998,43.356998443603516 -0.9539999961853027,44.816001892089844 8.581000328063965,43.020999908447266 C18.003999710083008,41.22600173950195 26.643999099731445,36.51499938964844 33.150001525878906,29.336000442504883 C39.65599822998047,22.26799964904785 43.58300018310547,13.182000160217285 44.47999954223633,3.6459999084472656 C44.47999954223633,3.6459999084472656 22.26799964904785,-4.992000102996826 18.0049991607666,-9.8149995803833 C13.741999626159668,-14.527000427246094 9.592000007629395,-43.24599838256836 9.592000007629395,-43.24599838256836z"/></g><g opacity="1" transform="matrix(1,0,0,1,52.891998291015625,53.229000091552734)"><path stroke-linecap="round" stroke-linejoin="round" fill-opacity="0" stroke="rgb(41,24,61)" stroke-opacity="1" stroke-width="4.072" d=" M9.592000007629395,-43.24599838256836 C9.592000007629395,-43.24599838256836 6.561999797821045,-44.816001892089844 -2.9730000495910645,-44.03099822998047 C-12.508999824523926,-43.244998931884766 -21.59600067138672,-39.43199920654297 -28.774999618530273,-33.03799819946289 C-35.95399856567383,-26.64299964904785 -40.77899932861328,-18.117000579833984 -42.685001373291016,-8.694000244140625 C-44.47999954223633,0.7300000190734863 -43.24599838256836,10.48799991607666 -38.98400115966797,19.125999450683594 C-34.72100067138672,27.763999938964844 -27.878000259399414,34.71900177001953 -19.239999771118164,39.09400177001953 C-10.71399974822998,43.356998443603516 -0.9539999961853027,44.816001892089844 8.581000328063965,43.020999908447266 C18.003999710083008,41.22600173950195 26.643999099731445,36.51499938964844 33.150001525878906,29.336000442504883 C39.65599822998047,22.26799964904785 43.58300018310547,13.182000160217285 44.47999954223633,3.6459999084472656 C44.47999954223633,3.6459999084472656 26.979999542236328,-3.197999954223633 26.979999542236328,-3.197999954223633 C19.464000701904297,-6.113999843597412 14.1899995803833,-12.845000267028809 12.956000328063965,-20.809999465942383 C12.956000328063965,-20.809999465942383 9.592000007629395,-43.24599838256836 9.592000007629395,-43.24599838256836z"/></g><g opacity="1" transform="matrix(1,0,0,1,22.32200050354004,48.3489990234375)"><path fill="rgb(163,104,73)" fill-opacity="1" d=" M-0.3370000123977661,-3.7019999027252197 C-1.0099999904632568,-3.4769999980926514 -1.4579999446868896,-2.3559999465942383 -2.3550000190734863,-0.1120000034570694 C-3.140000104904175,1.6829999685287476 -3.253999948501587,2.24399995803833 -2.9170000553131104,2.805000066757202 C-2.5799999237060547,3.5899999141693115 -1.7940000295639038,3.813999891281128 -1.5700000524520874,3.813999891281128 C-0.4480000138282776,4.151000022888184 0.6740000247955322,3.365999937057495 0.8980000019073486,3.253000020980835 C2.0199999809265137,2.4679999351501465 2.244999885559082,1.3459999561309814 2.805000066757202,-0.5609999895095825 C3.1419999599456787,-1.7949999570846558 3.253000020980835,-2.4679999351501465 3.0290000438690186,-2.9170000553131104 C2.3550000190734863,-3.813999891281128 0.7850000262260437,-4.151000022888184 -0.3370000123977661,-3.7019999027252197z"/><path stroke-linecap="butt" stroke-linejoin="miter" fill-opacity="0" stroke-miterlimit="10" stroke="rgb(29,29,27)" stroke-opacity="1" stroke-width="3.365" d=" M-0.3370000123977661,-3.7019999027252197 C-1.0099999904632568,-3.4769999980926514 -1.4579999446868896,-2.3559999465942383 -2.3550000190734863,-0.1120000034570694 C-3.140000104904175,1.6829999685287476 -3.253999948501587,2.24399995803833 -2.9170000553131104,2.805000066757202 C-2.5799999237060547,3.5899999141693115 -1.7940000295639038,3.813999891281128 -1.5700000524520874,3.813999891281128 C-0.4480000138282776,4.151000022888184 0.6740000247955322,3.365999937057495 0.8980000019073486,3.253000020980835 C2.0199999809265137,2.4679999351501465 2.244999885559082,1.3459999561309814 2.805000066757202,-0.5609999895095825 C3.1419999599456787,-1.7949999570846558 3.253000020980835,-2.4679999351501465 3.0290000438690186,-2.9170000553131104 C2.3550000190734863,-3.813999891281128 0.7850000262260437,-4.151000022888184 -0.3370000123977661,-3.7019999027252197z"/></g><g opacity="1" transform="matrix(1,0,0,1,38.98099899291992,26.809999465942383)"><path fill="rgb(163,104,73)" fill-opacity="1" d=" M-5.440999984741211,-1.0099999904632568 C-5.664999961853027,-0.5609999895095825 -6.561999797821045,1.121999979019165 -6.000999927520752,2.5810000896453857 C-5.440000057220459,4.263000011444092 -3.4200000762939453,4.599999904632568 -1.6260000467300415,4.823999881744385 C-0.054999999701976776,5.048999786376953 3.0859999656677246,5.495999813079834 4.993000030517578,3.253000020980835 C5.2170000076293945,2.9159998893737793 6.563000202178955,1.4579999446868896 6.2270002365112305,-0.3370000123977661 C5.890999794006348,-2.3559999465942383 3.9830000400543213,-3.253000020980835 3.421999931335449,-3.4769999980926514 C-0.3919999897480011,-5.495999813079834 -4.880000114440918,-1.5709999799728394 -5.440999984741211,-1.0099999904632568z"/><path stroke-linecap="butt" stroke-linejoin="miter" fill-opacity="0" stroke-miterlimit="10" stroke="rgb(29,29,27)" stroke-opacity="1" stroke-width="3.365" d=" M-5.440999984741211,-1.0099999904632568 C-5.664999961853027,-0.5609999895095825 -6.561999797821045,1.121999979019165 -6.000999927520752,2.5810000896453857 C-5.440000057220459,4.263000011444092 -3.4200000762939453,4.599999904632568 -1.6260000467300415,4.823999881744385 C-0.054999999701976776,5.048999786376953 3.0859999656677246,5.495999813079834 4.993000030517578,3.253000020980835 C5.2170000076293945,2.9159998893737793 6.563000202178955,1.4579999446868896 6.2270002365112305,-0.3370000123977661 C5.890999794006348,-2.3559999465942383 3.9830000400543213,-3.253000020980835 3.421999931335449,-3.4769999980926514 C-0.3919999897480011,-5.495999813079834 -4.880000114440918,-1.5709999799728394 -5.440999984741211,-1.0099999904632568z"/></g><g opacity="1" transform="matrix(1,0,0,1,51.26499938964844,52.94900131225586)"><path fill="rgb(163,104,73)" fill-opacity="1" d=" M-2.691999912261963,-3.7019999027252197 C-3.0290000438690186,-3.4779999256134033 -3.9260001182556152,-2.805000066757202 -4.263000011444092,-1.6829999685287476 C-4.711999893188477,0 -3.365000009536743,1.4579999446868896 -2.5799999237060547,2.24399995803833 C-2.0190000534057617,2.803999900817871 -0.6729999780654907,4.038000106811523 1.2339999675750732,4.263000011444092 C2.0190000534057617,4.375 3.1410000324249268,4.486999988555908 3.927000045776367,3.813999891281128 C4.711999893188477,3.1410000324249268 4.599999904632568,2.0190000534057617 4.599999904632568,1.4579999446868896 C4.486999988555908,-0.8980000019073486 2.693000078201294,-2.3559999465942383 2.131999969482422,-2.805000066757202 C1.4579999446868896,-3.253000020980835 0,-4.486999988555908 -1.6829999685287476,-4.151000022888184 C-2.0190000534057617,-4.039000034332275 -2.3559999465942383,-3.813999891281128 -2.691999912261963,-3.7019999027252197z"/><path stroke-linecap="butt" stroke-linejoin="miter" fill-opacity="0" stroke-miterlimit="10" stroke="rgb(29,29,27)" stroke-opacity="1" stroke-width="3.365" d=" M-2.691999912261963,-3.7019999027252197 C-3.0290000438690186,-3.4779999256134033 -3.9260001182556152,-2.805000066757202 -4.263000011444092,-1.6829999685287476 C-4.711999893188477,0 -3.365000009536743,1.4579999446868896 -2.5799999237060547,2.24399995803833 C-2.0190000534057617,2.803999900817871 -0.6729999780654907,4.038000106811523 1.2339999675750732,4.263000011444092 C2.0190000534057617,4.375 3.1410000324249268,4.486999988555908 3.927000045776367,3.813999891281128 C4.711999893188477,3.1410000324249268 4.599999904632568,2.0190000534057617 4.599999904632568,1.4579999446868896 C4.486999988555908,-0.8980000019073486 2.693000078201294,-2.3559999465942383 2.131999969482422,-2.805000066757202 C1.4579999446868896,-3.253000020980835 0,-4.486999988555908 -1.6829999685287476,-4.151000022888184 C-2.0190000534057617,-4.039000034332275 -2.3559999465942383,-3.813999891281128 -2.691999912261963,-3.7019999027252197z"/></g><g opacity="1" transform="matrix(1,0,0,1,56.0890007019043,82.84500122070312)"><path fill="rgb(163,104,73)" fill-opacity="1" d=" M-1.121000051498413,-2.9730000495910645 C-4.038000106811523,-2.4119999408721924 -5.945000171661377,-0.7289999723434448 -5.945000171661377,0.6169999837875366 C-5.945000171661377,2.075000047683716 -3.813999891281128,2.9730000495910645 -3.253000020980835,3.309000015258789 C-1.0099999904632568,4.318999767303467 1.0099999904632568,3.6459999084472656 2.0199999809265137,3.309000015258789 C3.4790000915527344,2.747999906539917 5.2729997634887695,2.187999963760376 5.609000205993652,0.5049999952316284 C5.945000171661377,-0.953000009059906 5.047999858856201,-2.4119999408721924 4.150000095367432,-3.197000026702881 C2.691999912261963,-4.318999767303467 0.6740000247955322,-4.206999778747559 -1.121000051498413,-2.9730000495910645z"/><path stroke-linecap="butt" stroke-linejoin="miter" fill-opacity="0" stroke-miterlimit="10" stroke="rgb(29,29,27)" stroke-opacity="1" stroke-width="3.365" d=" M-1.121000051498413,-2.9730000495910645 C-4.038000106811523,-2.4119999408721924 -5.945000171661377,-0.7289999723434448 -5.945000171661377,0.6169999837875366 C-5.945000171661377,2.075000047683716 -3.813999891281128,2.9730000495910645 -3.253000020980835,3.309000015258789 C-1.0099999904632568,4.318999767303467 1.0099999904632568,3.6459999084472656 2.0199999809265137,3.309000015258789 C3.4790000915527344,2.747999906539917 5.2729997634887695,2.187999963760376 5.609000205993652,0.5049999952316284 C5.945000171661377,-0.953000009059906 5.047999858856201,-2.4119999408721924 4.150000095367432,-3.197000026702881 C2.691999912261963,-4.318999767303467 0.6740000247955322,-4.206999778747559 -1.121000051498413,-2.9730000495910645z"/></g><g opacity="1" transform="matrix(1,0,0,1,80.99299621582031,62.987998962402344)"><path fill="rgb(163,104,73)" fill-opacity="1" d=" M-3.7019999027252197,-3.9820001125335693 C-4.263000011444092,-3.757999897003174 -5.385000228881836,-3.0850000381469727 -5.7210001945495605,-1.8509999513626099 C-6.2820000648498535,-0.0560000017285347 -4.486999988555908,1.5140000581741333 -3.4779999256134033,2.299999952316284 C-2.691999912261963,2.9730000495910645 -0.8970000147819519,4.206999778747559 1.6829999685287476,4.543000221252441 C2.691999912261963,4.65500020980835 4.263000011444092,4.76800012588501 5.271999835968018,3.9820001125335693 C6.2820000648498535,3.197000026702881 6.2820000648498535,2.075000047683716 6.170000076293945,1.5140000581741333 C6.058000087738037,-0.9539999961853027 3.5899999141693115,-2.635999917984009 2.9170000553131104,-2.9730000495910645 C2.13100004196167,-3.5339999198913574 0.1120000034570694,-4.76800012588501 -2.24399995803833,-4.431000232696533 C-2.9170000553131104,-4.318999767303467 -3.365999937057495,-4.09499979019165 -3.7019999027252197,-3.9820001125335693z"/><path stroke-linecap="butt" stroke-linejoin="miter" fill-opacity="0" stroke-miterlimit="10" stroke="rgb(29,29,27)" stroke-opacity="1" stroke-width="3.365" d=" M-3.7019999027252197,-3.9820001125335693 C-4.263000011444092,-3.757999897003174 -5.385000228881836,-3.0850000381469727 -5.7210001945495605,-1.8509999513626099 C-6.2820000648498535,-0.0560000017285347 -4.486999988555908,1.5140000581741333 -3.4779999256134033,2.299999952316284 C-2.691999912261963,2.9730000495910645 -0.8970000147819519,4.206999778747559 1.6829999685287476,4.543000221252441 C2.691999912261963,4.65500020980835 4.263000011444092,4.76800012588501 5.271999835968018,3.9820001125335693 C6.2820000648498535,3.197000026702881 6.2820000648498535,2.075000047683716 6.170000076293945,1.5140000581741333 C6.058000087738037,-0.9539999961853027 3.5899999141693115,-2.635999917984009 2.9170000553131104,-2.9730000495910645 C2.13100004196167,-3.5339999198913574 0.1120000034570694,-4.76800012588501 -2.24399995803833,-4.431000232696533 C-2.9170000553131104,-4.318999767303467 -3.365999937057495,-4.09499979019165 -3.7019999027252197,-3.9820001125335693z"/></g><g opacity="1" transform="matrix(1,0,0,1,31.465999603271484,66.24099731445312)"><path fill="rgb(163,104,73)" fill-opacity="1" d=" M-4.320000171661377,-0.8410000205039978 C-4.544000148773193,-0.5049999952316284 -5.216000080108643,0.8420000076293945 -4.76800012588501,1.9630000591278076 C-4.318999767303467,3.309999942779541 -2.747999906539917,3.5339999198913574 -1.2899999618530273,3.757999897003174 C-0.0560000017285347,3.9830000400543213 2.4119999408721924,4.318999767303467 3.9820001125335693,2.5239999294281006 C4.206999778747559,2.299999952316284 5.2170000076293945,1.065999984741211 4.992000102996826,-0.2800000011920929 C4.767000198364258,-1.8509999513626099 3.197000026702881,-2.635999917984009 2.8610000610351562,-2.859999895095825 C-0.2800000011920929,-4.318999767303467 -3.871000051498413,-1.1779999732971191 -4.320000171661377,-0.8410000205039978z"/><path stroke-linecap="butt" stroke-linejoin="miter" fill-opacity="0" stroke-miterlimit="10" stroke="rgb(29,29,27)" stroke-opacity="1" stroke-width="3.365" d=" M-4.320000171661377,-0.8410000205039978 C-4.544000148773193,-0.5049999952316284 -5.216000080108643,0.8420000076293945 -4.76800012588501,1.9630000591278076 C-4.318999767303467,3.309999942779541 -2.747999906539917,3.5339999198913574 -1.2899999618530273,3.757999897003174 C-0.0560000017285347,3.9830000400543213 2.4119999408721924,4.318999767303467 3.9820001125335693,2.5239999294281006 C4.206999778747559,2.299999952316284 5.2170000076293945,1.065999984741211 4.992000102996826,-0.2800000011920929 C4.767000198364258,-1.8509999513626099 3.197000026702881,-2.635999917984009 2.8610000610351562,-2.859999895095825 C-0.2800000011920929,-4.318999767303467 -3.871000051498413,-1.1779999732971191 -4.320000171661377,-0.8410000205039978z"/></g></g><g transform="matrix(-0.8480480909347534,0.5299192667007446,-0.5299192667007446,-0.8480480909347534,372.35107421875,442.4850769042969)" opacity="1" style="display: block;"><g opacity="1" transform="matrix(1,0,0,1,111.70700073242188,44.95800018310547)"><path fill="rgb(246,198,86)" fill-opacity="1" d=" M-174.44439697265625,71.4236068725586 C-145.00299072265625,49.247169494628906 -126.9593734741211,34.610389709472656 -127.3514633178711,31.44871711730957 C-132.7458953857422,20.34939193725586 -172.71182250976562,-3.6013524532318115 -173.17762756347656,-3.543921947479248 C-176.42442321777344,-3.143353223800659 -179.98426818847656,-2.615079641342163 -182.28244018554688,-2.342965602874756 C-198.17349243164062,-0.3752513825893402 -199.74815368652344,-13.657508850097656 -196.65728759765625,-29.86322021484375 C-193.48617553710938,-46.14619445800781 -186.51356506347656,-76.50205993652344 -172.20590209960938,-72.93632507324219 C-159.26956176757812,-69.8018569946289 -164.13912963867188,-43.71363067626953 -165.80787658691406,-34.26436233520508 C-157.85084533691406,-26.849422454833984 -93.17060852050781,8.193687438964844 -97.08890533447266,32.53340148925781 C-98.44340515136719,54.16135025024414 -136.5991668701172,77.92607879638672 -143.96054077148438,84.38304901123047"/><path stroke-linecap="round" stroke-linejoin="round" fill-opacity="0" stroke="rgb(41,25,62)" stroke-opacity="1" stroke-width="6" d=" M-174.44439697265625,71.4236068725586 C-145.00299072265625,49.247169494628906 -126.9593734741211,34.610389709472656 -127.3514633178711,31.44871711730957 C-132.7458953857422,20.34939193725586 -172.71182250976562,-3.6013524532318115 -173.17762756347656,-3.543921947479248 C-176.42442321777344,-3.143353223800659 -179.98426818847656,-2.615079641342163 -182.28244018554688,-2.342965602874756 C-198.17349243164062,-0.3752513825893402 -199.74815368652344,-13.657508850097656 -196.65728759765625,-29.86322021484375 C-193.48617553710938,-46.14619445800781 -186.51356506347656,-76.50205993652344 -172.20590209960938,-72.93632507324219 C-159.26956176757812,-69.8018569946289 -164.13912963867188,-43.71363067626953 -165.80787658691406,-34.26436233520508 C-157.85084533691406,-26.849422454833984 -93.17060852050781,8.193687438964844 -97.08890533447266,32.53340148925781 C-98.44340515136719,54.16135025024414 -136.5991668701172,77.92607879638672 -143.96054077148438,84.38304901123047"/></g></g></g></svg>