<svg xmlns="http://www.w3.org/2000/svg" viewBox="0 0 530 297" width="530" height="297" preserveAspectRatio="xMidYMid meet" style="width: 100%; height: 100%; transform: translate3d(0px, 0px, 0px);"><defs><clipPath id="__lottie_element_534"><rect width="530" height="297" x="0" y="0"/></clipPath><filter id="__lottie_element_606" filterUnits="objectBoundingBox" x="0%" y="0%" width="100%" height="100%"><feComponentTransfer in="SourceGraphic"><feFuncA type="table" tableValues="1.0 0.0"/></feComponentTransfer></filter><mask id="__lottie_element_605" mask-type="alpha"><g filter="url(#__lottie_element_606)"><rect width="530" height="297" x="0" y="0" fill="#ffffff" opacity="0"/><g transform="matrix(1.415310025215149,0,0,1.9164299964904785,746.0152587890625,-144.1317138671875)" opacity="1" style="display: block;"><g opacity="1" transform="matrix(1,0,0,1,-198.8040008544922,133.9149932861328)"><path fill="rgb(235,172,82)" fill-opacity="1" d=" M60.19649887084961,-22.915000915527344 C60.19649887084961,-22.915000915527344 60.19649887084961,22.915000915527344 60.19649887084961,22.915000915527344 C60.19649887084961,22.915000915527344 -60.19649887084961,22.915000915527344 -60.19649887084961,22.915000915527344 C-60.19649887084961,22.915000915527344 -60.19649887084961,-22.915000915527344 -60.19649887084961,-22.915000915527344 C-60.19649887084961,-22.915000915527344 60.19649887084961,-22.915000915527344 60.19649887084961,-22.915000915527344z"/><path stroke-linecap="butt" stroke-linejoin="miter" fill-opacity="0" stroke-miterlimit="4" stroke="rgb(41,25,62)" stroke-opacity="1" stroke-width="0" d=" M60.19649887084961,-22.915000915527344 C60.19649887084961,-22.915000915527344 60.19649887084961,22.915000915527344 60.19649887084961,22.915000915527344 C60.19649887084961,22.915000915527344 -60.19649887084961,22.915000915527344 -60.19649887084961,22.915000915527344 C-60.19649887084961,22.915000915527344 -60.19649887084961,-22.915000915527344 -60.19649887084961,-22.915000915527344 C-60.19649887084961,-22.915000915527344 60.19649887084961,-22.915000915527344 60.19649887084961,-22.915000915527344z"/></g></g></g></mask><filter id="__lottie_element_613" filterUnits="objectBoundingBox" x="0%" y="0%" width="100%" height="100%"><feComponentTransfer in="SourceGraphic"><feFuncA type="table" tableValues="1.0 0.0"/></feComponentTransfer></filter><mask id="__lottie_element_612" mask-type="alpha"><g filter="url(#__lottie_element_613)"><rect width="530" height="297" x="0" y="0" fill="#ffffff" opacity="0"/><g transform="matrix(1.415310025215149,0,0,1.9164299964904785,746.0152587890625,-144.1317138671875)" opacity="1" style="display: block;"><g opacity="1" transform="matrix(1,0,0,1,-198.8040008544922,133.9149932861328)"><path fill="rgb(235,172,82)" fill-opacity="1" d=" M60.19649887084961,-22.915000915527344 C60.19649887084961,-22.915000915527344 60.19649887084961,22.915000915527344 60.19649887084961,22.915000915527344 C60.19649887084961,22.915000915527344 -60.19649887084961,22.915000915527344 -60.19649887084961,22.915000915527344 C-60.19649887084961,22.915000915527344 -60.19649887084961,-22.915000915527344 -60.19649887084961,-22.915000915527344 C-60.19649887084961,-22.915000915527344 60.19649887084961,-22.915000915527344 60.19649887084961,-22.915000915527344z"/><path stroke-linecap="butt" stroke-linejoin="miter" fill-opacity="0" stroke-miterlimit="4" stroke="rgb(41,25,62)" stroke-opacity="1" stroke-width="0" d=" M60.19649887084961,-22.915000915527344 C60.19649887084961,-22.915000915527344 60.19649887084961,22.915000915527344 60.19649887084961,22.915000915527344 C60.19649887084961,22.915000915527344 -60.19649887084961,22.915000915527344 -60.19649887084961,22.915000915527344 C-60.19649887084961,22.915000915527344 -60.19649887084961,-22.915000915527344 -60.19649887084961,-22.915000915527344 C-60.19649887084961,-22.915000915527344 60.19649887084961,-22.915000915527344 60.19649887084961,-22.915000915527344z"/></g></g></g></mask><filter id="__lottie_element_620" filterUnits="objectBoundingBox" x="0%" y="0%" width="100%" height="100%"><feComponentTransfer in="SourceGraphic"><feFuncA type="table" tableValues="1.0 0.0"/></feComponentTransfer></filter><mask id="__lottie_element_619" mask-type="alpha"><g filter="url(#__lottie_element_620)"><rect width="530" height="297" x="0" y="0" fill="#ffffff" opacity="0"/><g transform="matrix(1.415310025215149,0,0,1.9164299964904785,364.5653076171875,69.77629089355469)" opacity="1" style="display: block;"><g opacity="1" transform="matrix(1,0,0,1,-198.8040008544922,133.9149932861328)"><path fill="rgb(235,172,82)" fill-opacity="1" d=" M60.19649887084961,-22.915000915527344 C60.19649887084961,-22.915000915527344 60.19649887084961,22.915000915527344 60.19649887084961,22.915000915527344 C60.19649887084961,22.915000915527344 -60.19649887084961,22.915000915527344 -60.19649887084961,22.915000915527344 C-60.19649887084961,22.915000915527344 -60.19649887084961,-22.915000915527344 -60.19649887084961,-22.915000915527344 C-60.19649887084961,-22.915000915527344 60.19649887084961,-22.915000915527344 60.19649887084961,-22.915000915527344z"/><path stroke-linecap="butt" stroke-linejoin="miter" fill-opacity="0" stroke-miterlimit="4" stroke="rgb(41,25,62)" stroke-opacity="1" stroke-width="0" d=" M60.19649887084961,-22.915000915527344 C60.19649887084961,-22.915000915527344 60.19649887084961,22.915000915527344 60.19649887084961,22.915000915527344 C60.19649887084961,22.915000915527344 -60.19649887084961,22.915000915527344 -60.19649887084961,22.915000915527344 C-60.19649887084961,22.915000915527344 -60.19649887084961,-22.915000915527344 -60.19649887084961,-22.915000915527344 C-60.19649887084961,-22.915000915527344 60.19649887084961,-22.915000915527344 60.19649887084961,-22.915000915527344z"/></g></g></g></mask></defs><g clip-path="url(#__lottie_element_534)"><g mask="url(#__lottie_element_619)" style="display: block;"><g transform="matrix(0.46000000834465027,0,0,0.46000000834465027,24.479217529296875,278.71734619140625)" opacity="1"><g opacity="1" transform="matrix(1,0,0,1,0,0)"><g opacity="1" transform="matrix(1,0,0,1,133.4929962158203,76.28399658203125)"><path fill="rgb(235,172,82)" fill-opacity="1" d=" M67.66500091552734,0 C67.66500091552734,36.606998443603516 37.37099838256836,66.28399658203125 0,66.28399658203125 C-37.37099838256836,66.28399658203125 -67.66500091552734,36.606998443603516 -67.66500091552734,0 C-67.66500091552734,-36.608001708984375 -37.37099838256836,-66.28399658203125 0,-66.28399658203125 C37.37099838256836,-66.28399658203125 67.66500091552734,-36.608001708984375 67.66500091552734,0z"/><path stroke-linecap="butt" stroke-linejoin="miter" fill-opacity="0" stroke-miterlimit="10" stroke="rgb(41,24,61)" stroke-opacity="1" stroke-width="9" d=" M67.66500091552734,0 C67.66500091552734,36.606998443603516 37.37099838256836,66.28399658203125 0,66.28399658203125 C-37.37099838256836,66.28399658203125 -67.66500091552734,36.606998443603516 -67.66500091552734,0 C-67.66500091552734,-36.608001708984375 -37.37099838256836,-66.28399658203125 0,-66.28399658203125 C37.37099838256836,-66.28399658203125 67.66500091552734,-36.608001708984375 67.66500091552734,0z"/></g><g opacity="1" transform="matrix(1,0,0,1,132.93899536132812,76.17500305175781)"><path fill="rgb(212,128,70)" fill-opacity="1" d=" M23.889999389648438,13.89799976348877 C23.889999389648438,17.1200008392334 23.05299949645996,20.156999588012695 21.3799991607666,23.006000518798828 C19.768999099731445,25.795000076293945 17.351999282836914,28.1200008392334 14.128999710083008,29.979000091552734 C10.968999862670898,31.775999069213867 7.21999979019165,32.82899856567383 2.881999969482422,33.13800048828125 C2.881999969482422,33.13800048828125 2.881999969482422,40.66699981689453 2.881999969482422,40.66699981689453 C2.881999969482422,40.66699981689453 -3.066999912261963,40.66699981689453 -3.066999912261963,40.66699981689453 C-3.066999912261963,40.66699981689453 -3.066999912261963,33.04499816894531 -3.066999912261963,33.04499816894531 C-9.263999938964844,32.48899841308594 -14.251999855041504,30.628000259399414 -18.033000946044922,27.468000411987305 C-21.812999725341797,24.246999740600586 -23.764999389648438,19.909000396728516 -23.888999938964844,14.456000328063965 C-23.888999938964844,14.456000328063965 -9.946000099182129,14.456000328063965 -9.946000099182129,14.456000328063965 C-9.574000358581543,18.916000366210938 -7.281000137329102,21.613000869750977 -3.066999912261963,22.54199981689453 C-3.066999912261963,22.54199981689453 -3.066999912261963,4.788000106811523 -3.066999912261963,4.788000106811523 C-7.5289998054504395,3.671999931335449 -11.123000144958496,2.555999994277954 -13.850000381469727,1.4420000314712524 C-16.576000213623047,0.3269999921321869 -18.930999755859375,-1.4700000286102295 -20.913999557495117,-3.950000047683716 C-22.89699935913086,-6.427999973297119 -23.888999938964844,-9.805000305175781 -23.888999938964844,-14.081999778747559 C-23.888999938964844,-19.472999572753906 -21.968000411987305,-23.87299919128418 -18.125999450683594,-27.281999588012695 C-14.220999717712402,-30.690000534057617 -9.20199966430664,-32.64099884033203 -3.066999912261963,-33.137001037597656 C-3.066999912261963,-33.137001037597656 -3.066999912261963,-40.66699981689453 -3.066999912261963,-40.66699981689453 C-3.066999912261963,-40.66699981689453 2.881999969482422,-40.66699981689453 2.881999969482422,-40.66699981689453 C2.881999969482422,-40.66699981689453 2.881999969482422,-33.137001037597656 2.881999969482422,-33.137001037597656 C8.831000328063965,-32.64099884033203 13.571999549865723,-30.8439998626709 17.104000091552734,-27.746000289916992 C20.697999954223633,-24.648000717163086 22.711999893188477,-20.371999740600586 23.145999908447266,-14.918999671936035 C23.145999908447266,-14.918999671936035 9.109999656677246,-14.918999671936035 9.109999656677246,-14.918999671936035 C8.923999786376953,-16.71500015258789 8.27299976348877,-18.263999938964844 7.1579999923706055,-19.56599998474121 C6.104000091552734,-20.929000854492188 4.678999900817871,-21.888999938964844 2.881999969482422,-22.447999954223633 C2.881999969482422,-22.447999954223633 2.881999969482422,-4.879000186920166 2.881999969482422,-4.879000186920166 C7.53000020980835,-3.7019999027252197 11.185999870300293,-2.555000066757202 13.85099983215332,-1.440999984741211 C16.57699966430664,-0.38600000739097595 18.93199920654297,1.378999948501587 20.915000915527344,3.8589999675750732 C22.898000717163086,6.276000022888184 23.889999389648438,9.621999740600586 23.889999389648438,13.89799976348877z M-10.317000389099121,-14.732999801635742 C-10.317000389099121,-12.687000274658203 -9.697999954223633,-11.013999938964844 -8.458000183105469,-9.711999893188477 C-7.218999862670898,-8.472999572753906 -5.421999931335449,-7.452000141143799 -3.066999912261963,-6.644999980926514 C-3.066999912261963,-6.644999980926514 -3.066999912261963,-22.72599983215332 -3.066999912261963,-22.72599983215332 C-5.297999858856201,-22.41699981689453 -7.064000129699707,-21.579999923706055 -8.364999771118164,-20.215999603271484 C-9.666999816894531,-18.85300064086914 -10.317000389099121,-17.025999069213867 -10.317000389099121,-14.732999801635742z M2.881999969482422,22.726999282836914 C5.236999988555908,22.29400062561035 7.065000057220459,21.33300018310547 8.366000175476074,19.84600067138672 C9.729999542236328,18.360000610351562 10.41100025177002,16.562999725341797 10.41100025177002,14.456000328063965 C10.41100025177002,12.41100025177002 9.76099967956543,10.767000198364258 8.458999633789062,9.529000282287598 C7.1579999923706055,8.288999557495117 5.298999786376953,7.265999794006348 2.881999969482422,6.460999965667725 C2.881999969482422,6.460999965667725 2.881999969482422,22.726999282836914 2.881999969482422,22.726999282836914z"/></g></g></g></g><g mask="url(#__lottie_element_612)" style="display: block;"><g transform="matrix(0.7649999856948853,0,0,0.7649999856948853,247.54989624023438,-75.33535766601562)" opacity="1"><g opacity="1" transform="matrix(1,0,0,1,0,0)"><g opacity="1" transform="matrix(1,0,0,1,250.92300415039062,187.58999633789062)"><path fill="rgb(235,172,82)" fill-opacity="1" d=" M67.66500091552734,0 C67.66500091552734,36.608001708984375 37.369998931884766,66.28399658203125 0,66.28399658203125 C-37.37099838256836,66.28399658203125 -67.66500091552734,36.608001708984375 -67.66500091552734,0 C-67.66500091552734,-36.606998443603516 -37.37099838256836,-66.28399658203125 0,-66.28399658203125 C37.369998931884766,-66.28399658203125 67.66500091552734,-36.606998443603516 67.66500091552734,0z"/><path stroke-linecap="butt" stroke-linejoin="miter" fill-opacity="0" stroke-miterlimit="10" stroke="rgb(41,24,61)" stroke-opacity="1" stroke-width="4" d=" M67.66500091552734,0 C67.66500091552734,36.608001708984375 37.369998931884766,66.28399658203125 0,66.28399658203125 C-37.37099838256836,66.28399658203125 -67.66500091552734,36.608001708984375 -67.66500091552734,0 C-67.66500091552734,-36.606998443603516 -37.37099838256836,-66.28399658203125 0,-66.28399658203125 C37.369998931884766,-66.28399658203125 67.66500091552734,-36.606998443603516 67.66500091552734,0z"/></g><g opacity="1" transform="matrix(1,0,0,1,250.3699951171875,187.48199462890625)"><path fill="rgb(212,128,70)" fill-opacity="1" d=" M23.889999389648438,13.897000312805176 C23.889999389648438,17.118999481201172 23.052000045776367,20.1560001373291 21.378999710083008,23.006000518798828 C19.768999099731445,25.795000076293945 17.351999282836914,28.118999481201172 14.128000259399414,29.97800064086914 C10.968000411987305,31.774999618530273 7.218999862670898,32.827999114990234 2.88100004196167,33.13800048828125 C2.88100004196167,33.13800048828125 2.88100004196167,40.66699981689453 2.88100004196167,40.66699981689453 C2.88100004196167,40.66699981689453 -3.068000078201294,40.66699981689453 -3.068000078201294,40.66699981689453 C-3.068000078201294,40.66699981689453 -3.068000078201294,33.04499816894531 -3.068000078201294,33.04499816894531 C-9.265000343322754,32.487998962402344 -14.253000259399414,30.628000259399414 -18.034000396728516,27.468000411987305 C-21.81399917602539,24.246000289916992 -23.764999389648438,19.908000946044922 -23.889999389648438,14.454999923706055 C-23.889999389648438,14.454999923706055 -9.946999549865723,14.454999923706055 -9.946999549865723,14.454999923706055 C-9.574999809265137,18.916000366210938 -7.2820000648498535,21.61199951171875 -3.068000078201294,22.54199981689453 C-3.068000078201294,22.54199981689453 -3.068000078201294,4.7870001792907715 -3.068000078201294,4.7870001792907715 C-7.53000020980835,3.671999931335449 -11.12399959564209,2.555999994277954 -13.850000381469727,1.440999984741211 C-16.57699966430664,0.32600000500679016 -18.930999755859375,-1.4709999561309814 -20.913999557495117,-3.950000047683716 C-22.898000717163086,-6.428999900817871 -23.889999389648438,-9.805999755859375 -23.889999389648438,-14.081999778747559 C-23.889999389648438,-19.474000930786133 -21.9689998626709,-23.87299919128418 -18.12700080871582,-27.281999588012695 C-14.222000122070312,-30.690000534057617 -9.20199966430664,-32.641998291015625 -3.068000078201294,-33.13800048828125 C-3.068000078201294,-33.13800048828125 -3.068000078201294,-40.66699981689453 -3.068000078201294,-40.66699981689453 C-3.068000078201294,-40.66699981689453 2.88100004196167,-40.66699981689453 2.88100004196167,-40.66699981689453 C2.88100004196167,-40.66699981689453 2.88100004196167,-33.13800048828125 2.88100004196167,-33.13800048828125 C8.829999923706055,-32.641998291015625 13.571000099182129,-30.844999313354492 17.104000091552734,-27.746000289916992 C20.69700050354004,-24.648000717163086 22.711000442504883,-20.371999740600586 23.145999908447266,-14.918999671936035 C23.145999908447266,-14.918999671936035 9.109999656677246,-14.918999671936035 9.109999656677246,-14.918999671936035 C8.92300033569336,-16.715999603271484 8.27299976348877,-18.264999389648438 7.1570000648498535,-19.56599998474121 C6.104000091552734,-20.93000030517578 4.677999973297119,-21.889999389648438 2.88100004196167,-22.447999954223633 C2.88100004196167,-22.447999954223633 2.88100004196167,-4.880000114440918 2.88100004196167,-4.880000114440918 C7.5289998054504395,-3.7019999027252197 11.185999870300293,-2.555999994277954 13.85099983215332,-1.440999984741211 C16.576000213623047,-0.3869999945163727 18.93199920654297,1.378999948501587 20.913999557495117,3.8580000400543213 C22.898000717163086,6.275000095367432 23.889999389648438,9.621000289916992 23.889999389648438,13.897000312805176z M-10.317999839782715,-14.732999801635742 C-10.317999839782715,-12.687999725341797 -9.699000358581543,-11.015000343322754 -8.458999633789062,-9.713000297546387 C-7.21999979019165,-8.473999977111816 -5.422999858856201,-7.452000141143799 -3.068000078201294,-6.645999908447266 C-3.068000078201294,-6.645999908447266 -3.068000078201294,-22.726999282836914 -3.068000078201294,-22.726999282836914 C-5.298999786376953,-22.41699981689453 -7.065000057220459,-21.579999923706055 -8.366000175476074,-20.216999053955078 C-9.668000221252441,-18.854000091552734 -10.317999839782715,-17.025999069213867 -10.317999839782715,-14.732999801635742z M2.88100004196167,22.726999282836914 C5.236000061035156,22.29400062561035 7.065000057220459,21.33300018310547 8.364999771118164,19.84600067138672 C9.729999542236328,18.358999252319336 10.40999984741211,16.562000274658203 10.40999984741211,14.454999923706055 C10.40999984741211,12.40999984741211 9.760000228881836,10.767000198364258 8.458000183105469,9.527999877929688 C7.1570000648498535,8.288999557495117 5.297999858856201,7.265999794006348 2.88100004196167,6.460999965667725 C2.88100004196167,6.460999965667725 2.88100004196167,22.726999282836914 2.88100004196167,22.726999282836914z"/></g></g></g></g><g mask="url(#__lottie_element_605)" style="display: block;"><g transform="matrix(0.7329300045967102,0,0,0.7329300045967102,244.71934509277344,-84.46499633789062)" opacity="1"><g opacity="1" transform="matrix(1,0,0,1,0,0)"><g opacity="1" transform="matrix(1,0,0,1,320.5090026855469,206.4739990234375)"><path fill="rgb(235,172,82)" fill-opacity="1" d=" M36.992000579833984,-0.0010000000474974513 C36.992000579833984,20.01300048828125 20.43000030517578,36.236000061035156 0,36.236000061035156 C-20.43000030517578,36.236000061035156 -36.992000579833984,20.01300048828125 -36.992000579833984,-0.0010000000474974513 C-36.992000579833984,-20.013999938964844 -20.43000030517578,-36.23699951171875 0,-36.23699951171875 C20.43000030517578,-36.23699951171875 36.992000579833984,-20.013999938964844 36.992000579833984,-0.0010000000474974513z"/><path stroke-linecap="butt" stroke-linejoin="miter" fill-opacity="0" stroke-miterlimit="10" stroke="rgb(41,24,61)" stroke-opacity="1" stroke-width="4.152" d=" M36.992000579833984,-0.0010000000474974513 C36.992000579833984,20.01300048828125 20.43000030517578,36.236000061035156 0,36.236000061035156 C-20.43000030517578,36.236000061035156 -36.992000579833984,20.01300048828125 -36.992000579833984,-0.0010000000474974513 C-36.992000579833984,-20.013999938964844 -20.43000030517578,-36.23699951171875 0,-36.23699951171875 C20.43000030517578,-36.23699951171875 36.992000579833984,-20.013999938964844 36.992000579833984,-0.0010000000474974513z"/></g><g opacity="1" transform="matrix(1,0,0,1,320.20599365234375,206.4149932861328)"><path fill="rgb(212,128,70)" fill-opacity="1" d=" M13.0600004196167,7.5970001220703125 C13.0600004196167,9.359000205993652 12.602999687194824,11.019000053405762 11.687999725341797,12.57699966430664 C10.807999610900879,14.10200023651123 9.486000061035156,15.371999740600586 7.7230000495910645,16.388999938964844 C5.995999813079834,17.371000289916992 3.947999954223633,17.945999145507812 1.5759999752044678,18.115999221801758 C1.5759999752044678,18.115999221801758 1.5759999752044678,22.23200035095215 1.5759999752044678,22.23200035095215 C1.5759999752044678,22.23200035095215 -1.6770000457763672,22.23200035095215 -1.6770000457763672,22.23200035095215 C-1.6770000457763672,22.23200035095215 -1.6770000457763672,18.06599998474121 -1.6770000457763672,18.06599998474121 C-5.065000057220459,17.76099967956543 -7.791999816894531,16.743000030517578 -9.859000205993652,15.015999794006348 C-11.925000190734863,13.255000114440918 -12.991999626159668,10.883000373840332 -13.060999870300293,7.9029998779296875 C-13.060999870300293,7.9029998779296875 -5.438000202178955,7.9029998779296875 -5.438000202178955,7.9029998779296875 C-5.235000133514404,10.340999603271484 -3.9809999465942383,11.8149995803833 -1.6770000457763672,12.322999954223633 C-1.6770000457763672,12.322999954223633 -1.6770000457763672,2.615999937057495 -1.6770000457763672,2.615999937057495 C-4.116000175476074,2.006999969482422 -6.080999851226807,1.3980000019073486 -7.572000026702881,0.7870000004768372 C-9.062999725341797,0.17800000309944153 -10.350000381469727,-0.8050000071525574 -11.434000015258789,-2.1600000858306885 C-12.517999649047852,-3.5139999389648438 -13.060999870300293,-5.361000061035156 -13.060999870300293,-7.698999881744385 C-13.060999870300293,-10.645999908447266 -12.010000228881836,-13.052000045776367 -9.909000396728516,-14.914999961853027 C-7.775000095367432,-16.777999877929688 -5.031000137329102,-17.84600067138672 -1.6770000457763672,-18.115999221801758 C-1.6770000457763672,-18.115999221801758 -1.6770000457763672,-22.23200035095215 -1.6770000457763672,-22.23200035095215 C-1.6770000457763672,-22.23200035095215 1.5759999752044678,-22.23200035095215 1.5759999752044678,-22.23200035095215 C1.5759999752044678,-22.23200035095215 1.5759999752044678,-18.115999221801758 1.5759999752044678,-18.115999221801758 C4.828000068664551,-17.84600067138672 7.419000148773193,-16.863000869750977 9.350000381469727,-15.168999671936035 C11.3149995803833,-13.473999977111816 12.416000366210938,-11.137999534606934 12.652999877929688,-8.156000137329102 C12.652999877929688,-8.156000137329102 4.980000019073486,-8.156000137329102 4.980000019073486,-8.156000137329102 C4.877999782562256,-9.137999534606934 4.521999835968018,-9.984999656677246 3.9130001068115234,-10.696999549865723 C3.3369998931884766,-11.442000389099121 2.558000087738037,-11.968000411987305 1.5759999752044678,-12.272000312805176 C1.5759999752044678,-12.272000312805176 1.5759999752044678,-2.6679999828338623 1.5759999752044678,-2.6679999828338623 C4.117000102996826,-2.0239999294281006 6.114999771118164,-1.3969999551773071 7.572000026702881,-0.7879999876022339 C9.062000274658203,-0.21199999749660492 10.348999977111816,0.7540000081062317 11.432999610900879,2.1089999675750732 C12.517000198364258,3.430000066757202 13.0600004196167,5.260000228881836 13.0600004196167,7.5970001220703125z M-5.640999794006348,-8.055000305175781 C-5.640999794006348,-6.935999870300293 -5.302000045776367,-6.021999835968018 -4.624000072479248,-5.309999942779541 C-3.947000026702881,-4.632999897003174 -2.9649999141693115,-4.073999881744385 -1.6770000457763672,-3.634000062942505 C-1.6770000457763672,-3.634000062942505 -1.6770000457763672,-12.425000190734863 -1.6770000457763672,-12.425000190734863 C-2.8970000743865967,-12.255999565124512 -3.861999988555908,-11.79800033569336 -4.572999954223633,-11.053000450134277 C-5.284999847412109,-10.307000160217285 -5.640999794006348,-9.307999610900879 -5.640999794006348,-8.055000305175781z M1.5759999752044678,12.423999786376953 C2.86299991607666,12.187999725341797 3.861999988555908,11.661999702453613 4.572999954223633,10.850000381469727 C5.318999767303467,10.03600025177002 5.690999984741211,9.053999900817871 5.690999984741211,7.9029998779296875 C5.690999984741211,6.783999919891357 5.335999965667725,5.886000156402588 4.624000072479248,5.209000110626221 C3.9130001068115234,4.531000137329102 2.8970000743865967,3.9719998836517334 1.5759999752044678,3.5320000648498535 C1.5759999752044678,3.5320000648498535 1.5759999752044678,12.423999786376953 1.5759999752044678,12.423999786376953z"/></g></g></g></g><g transform="matrix(1,0,0,1,294.8639831542969,105.08200073242188)" opacity="1" style="display: block;"><g opacity="1" transform="matrix(1,0,0,1,50.10499954223633,44.20500183105469)"><path fill="rgb(199,150,94)" fill-opacity="1" d=" M-46.54899978637695,-9.944000244140625 C-46.54899978637695,-9.944000244140625 -48.981998443603516,-9.418000221252441 -48.981998443603516,-9.418000221252441 C-48.981998443603516,-9.418000221252441 -46.88600158691406,-1.9129999876022339 -46.88600158691406,-1.9129999876022339 C-46.88600158691406,-1.9129999876022339 -40.79999923706055,4.982999801635742 -40.79999923706055,4.982999801635742 C-40.79999923706055,4.982999801635742 -39.12300109863281,4.534999847412109 -39.12300109863281,4.534999847412109 C-39.12300109863281,4.534999847412109 -27.21500015258789,7.9029998779296875 -27.21500015258789,7.9029998779296875 C-27.21500015258789,7.9029998779296875 -10.529000282287598,13.085000038146973 -10.529000282287598,13.085000038146973 C-10.529000282287598,13.085000038146973 5.589000225067139,13.270000457763672 5.589000225067139,13.270000457763672 C5.589000225067139,13.270000457763672 24.533000946044922,12.107999801635742 24.533000946044922,12.107999801635742 C24.533000946044922,12.107999801635742 48.981998443603516,4.008999824523926 48.981998443603516,4.008999824523926 C48.981998443603516,4.008999824523926 40.742000579833984,-7.206999778747559 40.742000579833984,-7.206999778747559 C32.97200012207031,-2.9609999656677246 20.327999114990234,-3.4170000553131104 10.170999526977539,-2.00600004196167 C-2.5250000953674316,-0.24199999868869781 -17.54800033569336,-5.2829999923706055 -26.03700065612793,-8.734000205993652 C-29.368000030517578,-11.39799976348877 -35.44900131225586,-12.428000450134277 -38.20600128173828,-13.270000457763672 C-38.20600128173828,-13.270000457763672 -46.54899978637695,-9.944000244140625 -46.54899978637695,-9.944000244140625z"/></g><g opacity="1" transform="matrix(1,0,0,1,51.4739990234375,55.94200134277344)"><path stroke-linecap="round" stroke-linejoin="round" fill-opacity="0" stroke="rgb(41,24,61)" stroke-opacity="1" stroke-width="3.06" d=" M-44.32500076293945,-5.841000080108643 C-44.32500076293945,-5.841000080108643 -44.32500076293945,-5.841000080108643 -44.32500076293945,-5.841000080108643 C-39.66899871826172,-7.355000019073486 -34.60100173950195,-6.8470001220703125 -30.031999588012695,-5.086999893188477 C-17.295000076293945,-0.18299999833106995 11.437999725341797,7.355000019073486 44.32500076293945,-7.050000190734863"/></g><g opacity="1" transform="matrix(1,0,0,1,46.16699981689453,39.176998138427734)"><path stroke-linecap="round" stroke-linejoin="round" fill-opacity="0" stroke="rgb(41,24,61)" stroke-opacity="1" stroke-width="3.06" d=" M-43.106998443603516,-4.409999847412109 C-43.106998443603516,-4.409999847412109 -43.106998443603516,-4.409999847412109 -43.106998443603516,-4.409999847412109 C-36.29499816894531,-6.125 -29.118999481201172,-5.6579999923706055 -22.586999893188477,-3.0759999752044678 C-22.586999893188477,-3.0759999752044678 -13.814000129699707,0.39399999380111694 -13.814000129699707,0.39399999380111694 C-1.4390000104904175,5.288000106811523 12.168999671936035,6.125 25.051000595092773,2.7860000133514404 C25.051000595092773,2.7860000133514404 43.106998443603516,-1.8949999809265137 43.106998443603516,-1.8949999809265137"/></g><g opacity="1" transform="matrix(1,0,0,1,122.95800018310547,25.551000595092773)"><path fill="rgb(255,255,255)" fill-opacity="1" d=" M-12.678999900817871,-13.406999588012695 C-14.114999771118164,-5.679999828338623 -17.555999755859375,-1.5980000495910645 -21.239999771118164,1.7890000343322754 C-21.239999771118164,1.7890000343322754 -13.843999862670898,22.490999221801758 -13.843999862670898,22.490999221801758 C-1.6890000104904175,22.159000396728516 14.887999534606934,14.592000007629395 17.875,5.7820000648498535 C21.239999771118164,-4.144000053405762 18.80699920654297,-10.895999908447266 13.798999786376953,-12.545999526977539 C8.789999961853027,-14.196000099182129 4.408999919891357,-10.967000007629395 -1.034999966621399,-8.069000244140625 C0.22200000286102295,-11.482000350952148 0.2590000033378601,-15.557999610900879 -1.8320000171661377,-18.638999938964844 C-4.447000026702881,-22.490999221801758 -11.241999626159668,-21.132999420166016 -12.678999900817871,-13.406999588012695z"/><path stroke-linecap="round" stroke-linejoin="round" fill-opacity="0" stroke="rgb(41,24,61)" stroke-opacity="1" stroke-width="3.06" d=" M-12.678999900817871,-13.406999588012695 C-14.114999771118164,-5.679999828338623 -17.555999755859375,-1.5980000495910645 -21.239999771118164,1.7890000343322754 C-21.239999771118164,1.7890000343322754 -13.843999862670898,22.490999221801758 -13.843999862670898,22.490999221801758 C-1.6890000104904175,22.159000396728516 14.887999534606934,14.592000007629395 17.875,5.7820000648498535 C21.239999771118164,-4.144000053405762 18.80699920654297,-10.895999908447266 13.798999786376953,-12.545999526977539 C8.789999961853027,-14.196000099182129 4.408999919891357,-10.967000007629395 -1.034999966621399,-8.069000244140625 C0.22200000286102295,-11.482000350952148 0.2590000033378601,-15.557999610900879 -1.8320000171661377,-18.638999938964844 C-4.447000026702881,-22.490999221801758 -11.241999626159668,-21.132999420166016 -12.678999900817871,-13.406999588012695z"/></g><g opacity="1" transform="matrix(1,0,0,1,97.39900207519531,40.88100051879883)"><path fill="rgb(255,255,255)" fill-opacity="1" d=" M-6.650000095367432,-13.920999526977539 C-3.2699999809265137,-16.256000518798828 1.1319999694824219,-14.369000434875488 3.4189999103546143,-13.307999610900879 C3.4189999103546143,-13.307999610900879 11.041999816894531,6.494999885559082 11.041999816894531,6.494999885559082 C10.685999870300293,8.972000122070312 9.048999786376953,13.928000450134277 4.671999931335449,14.986000061035156 C-0.5789999961853027,16.256000518798828 -5.495999813079834,8.265000343322754 -8.267999649047852,1.5360000133514404 C-11.041000366210938,-5.191999912261963 -10.875,-11.003000259399414 -6.650000095367432,-13.920999526977539z"/><path stroke-linecap="round" stroke-linejoin="round" fill-opacity="0" stroke="rgb(41,24,61)" stroke-opacity="1" stroke-width="3.06" d=" M-6.650000095367432,-13.920999526977539 C-3.2699999809265137,-16.256000518798828 1.1319999694824219,-14.369000434875488 3.4189999103546143,-13.307999610900879 C3.4189999103546143,-13.307999610900879 11.041999816894531,6.494999885559082 11.041999816894531,6.494999885559082 C10.685999870300293,8.972000122070312 9.048999786376953,13.928000450134277 4.671999931335449,14.986000061035156 C-0.5789999961853027,16.256000518798828 -5.495999813079834,8.265000343322754 -8.267999649047852,1.5360000133514404 C-11.041000366210938,-5.191999912261963 -10.875,-11.003000259399414 -6.650000095367432,-13.920999526977539z"/></g></g><g transform="matrix(1,0,0,1,150.11199951171875,146.96800231933594)" opacity="1" style="display: block;"><g opacity="1" transform="matrix(1,0,0,1,102.63200378417969,26.284000396728516)"><path fill="rgb(199,150,94)" fill-opacity="1" d=" M40.441001892089844,-23.52400016784668 C40.441001892089844,-23.52400016784668 42.900001525878906,-23.90999984741211 42.900001525878906,-23.90999984741211 C42.900001525878906,-23.90999984741211 43.64799880981445,-16.152999877929688 43.64799880981445,-16.152999877929688 C43.64799880981445,-16.152999877929688 40.457000732421875,-7.5279998779296875 40.457000732421875,-7.5279998779296875 C40.457000732421875,-7.5279998779296875 38.729000091552734,-7.340000152587891 38.729000091552734,-7.340000152587891 C38.729000091552734,-7.340000152587891 28.836000442504883,0.09000000357627869 28.836000442504883,0.09000000357627869 C28.836000442504883,0.09000000357627869 15.13700008392334,10.934000015258789 15.13700008392334,10.934000015258789 C15.13700008392334,10.934000015258789 0.1679999977350235,16.915000915527344 0.1679999977350235,16.915000915527344 C0.1679999977350235,16.915000915527344 -17.926000595092773,22.658000946044922 -17.926000595092773,22.658000946044922 C-17.926000595092773,22.658000946044922 -43.64799880981445,23.90999984741211 -43.64799880981445,23.90999984741211 C-43.64799880981445,23.90999984741211 -39.2859992980957,9.390999794006348 -39.2859992980957,9.390999794006348 C-30.506999969482422,10.553000450134277 -19.5939998626709,6.658999919891357 -9.611000061035156,4.315999984741211 C2.869999885559082,1.3860000371932983 15.0649995803833,-8.727999687194824 21.743000030517578,-15.005000114440918 C23.888999938964844,-18.69099998474121 29.19300079345703,-21.841999053955078 31.461000442504883,-23.621999740600586 C31.461000442504883,-23.621999740600586 40.441001892089844,-23.52400016784668 40.441001892089844,-23.52400016784668z"/></g><g opacity="1" transform="matrix(1,0,0,1,103.8550033569336,35.03300094604492)"><path stroke-linecap="round" stroke-linejoin="round" fill-opacity="0" stroke="rgb(41,24,61)" stroke-opacity="1" stroke-width="3.06" d=" M41.56700134277344,-16.200000762939453 C41.56700134277344,-16.200000762939453 41.56700134277344,-16.200000762939453 41.56700134277344,-16.200000762939453 C36.676998138427734,-15.934000015258789 32.132999420166016,-13.63599967956543 28.5049991607666,-10.347999572753906 C18.391000747680664,-1.184000015258789 -5.697000026702881,16.200000762939453 -41.56700134277344,14.611000061035156"/></g><g opacity="1" transform="matrix(1,0,0,1,103.94599914550781,19.761999130249023)"><path stroke-linecap="round" stroke-linejoin="round" fill-opacity="0" stroke="rgb(41,24,61)" stroke-opacity="1" stroke-width="3.06" d=" M39.76100158691406,-16.70199966430664 C39.76100158691406,-16.70199966430664 39.76100158691406,-16.70199966430664 39.76100158691406,-16.70199966430664 C32.78799819946289,-15.847999572753906 26.260000228881836,-12.82699966430664 21.097999572753906,-8.0649995803833 C21.097999572753906,-8.0649995803833 14.161999702453613,-1.6690000295639038 14.161999702453613,-1.6690000295639038 C4.381999969482422,7.355000019073486 -8.01099967956543,13.038000106811523 -21.229999542236328,14.5649995803833 C-21.229999542236328,14.5649995803833 -39.76100158691406,16.70199966430664 -39.76100158691406,16.70199966430664"/></g><g opacity="1" transform="matrix(1,0,0,1,25.48900032043457,39.63999938964844)"><path fill="rgb(255,255,255)" fill-opacity="1" d=" M3.740000009536743,-15.96399974822998 C8.795000076293945,-9.944999694824219 13.79800033569336,-8.085000038146973 18.672000885009766,-6.952000141143799 C18.672000885009766,-6.952000141143799 22.43000030517578,14.708999633789062 22.43000030517578,14.708999633789062 C11.687000274658203,20.40399932861328 -6.4679999351501465,21.981000900268555 -13.404999732971191,15.782999992370605 C-21.22100067138672,8.800999641418457 -22.43000030517578,1.7269999980926514 -18.882999420166016,-2.1760001182556152 C-15.336000442504883,-6.077000141143799 -9.930999755859375,-5.426000118255615 -3.7660000324249268,-5.583000183105469 C-6.541999816894531,-7.934999942779541 -8.579000473022461,-11.46399974822998 -8.277000427246094,-15.175999641418457 C-7.8979997634887695,-19.81599998474121 -1.315000057220459,-21.981000900268555 3.740000009536743,-15.96399974822998z"/><path stroke-linecap="round" stroke-linejoin="round" fill-opacity="0" stroke="rgb(41,24,61)" stroke-opacity="1" stroke-width="3.06" d=" M3.740000009536743,-15.96399974822998 C8.795000076293945,-9.944999694824219 13.79800033569336,-8.085000038146973 18.672000885009766,-6.952000141143799 C18.672000885009766,-6.952000141143799 22.43000030517578,14.708999633789062 22.43000030517578,14.708999633789062 C11.687000274658203,20.40399932861328 -6.4679999351501465,21.981000900268555 -13.404999732971191,15.782999992370605 C-21.22100067138672,8.800999641418457 -22.43000030517578,1.7269999980926514 -18.882999420166016,-2.1760001182556152 C-15.336000442504883,-6.077000141143799 -9.930999755859375,-5.426000118255615 -3.7660000324249268,-5.583000183105469 C-6.541999816894531,-7.934999942779541 -8.579000473022461,-11.46399974822998 -8.277000427246094,-15.175999641418457 C-7.8979997634887695,-19.81599998474121 -1.315000057220459,-21.981000900268555 3.740000009536743,-15.96399974822998z"/></g><g opacity="1" transform="matrix(1,0,0,1,54.24599838256836,42.75600051879883)"><path fill="rgb(255,255,255)" fill-opacity="1" d=" M-0.7279999852180481,-15.800999641418457 C-4.818999767303467,-16.16900062561035 -7.7220001220703125,-12.357999801635742 -9.190999984741211,-10.307999610900879 C-9.190999984741211,-10.307999610900879 -6.074999809265137,10.680000305175781 -6.074999809265137,10.680000305175781 C-4.543000221252441,12.66100025177002 -0.6790000200271606,16.16900062561035 3.6510000228881836,14.934000015258789 C8.847000122070312,13.454000473022461 9.190999984741211,4.078000068664551 8.291999816894531,-3.1440000534057617 C7.392000198364258,-10.36400032043457 4.386000156402588,-15.340999603271484 -0.7279999852180481,-15.800999641418457z"/><path stroke-linecap="round" stroke-linejoin="round" fill-opacity="0" stroke="rgb(41,24,61)" stroke-opacity="1" stroke-width="3.06" d=" M-0.7279999852180481,-15.800999641418457 C-4.818999767303467,-16.16900062561035 -7.7220001220703125,-12.357999801635742 -9.190999984741211,-10.307999610900879 C-9.190999984741211,-10.307999610900879 -6.074999809265137,10.680000305175781 -6.074999809265137,10.680000305175781 C-4.543000221252441,12.66100025177002 -0.6790000200271606,16.16900062561035 3.6510000228881836,14.934000015258789 C8.847000122070312,13.454000473022461 9.190999984741211,4.078000068664551 8.291999816894531,-3.1440000534057617 C7.392000198364258,-10.36400032043457 4.386000156402588,-15.340999603271484 -0.7279999852180481,-15.800999641418457z"/></g></g><g transform="matrix(1,0,0,1,241.70599365234375,196.0279998779297)" opacity="1" style="display: block;"><path fill="rgb(200,151,94)" fill-opacity="1" d=" M15.03,22.06 C15.03,22.06 13.46,33.9 15.41,45.47 C17.38,57.22 22.67,65.41 24.03,69.89 C21.81,70.21 16.3,70.63 11.95,71.48 C5.74,72.69 3.06,84.02 12.73,84.76 C22.41,85.5 26.14,86.61 34.9,85.61 C43.66,84.61 43.34,80.93 41.81,76.04 C41.49,75.03 40.73,73.63 39.88,71.8 C37.04,65.72 31.35,55.31 29.67,48.1 C27.54,38.97 28.29,24.85 28.29,24.85 C28.29,24.85 15.03,22.06 15.03,22.06z"/><g opacity="1" transform="matrix(1,0,0,1,23.35700035095215,46.481998443603516)"><path stroke-linecap="round" stroke-linejoin="round" fill-opacity="0" stroke="rgb(41,25,62)" stroke-opacity="1" stroke-width="2.848" d=" M-8.322999954223633,-24.426000595092773 C-8.322999954223633,-24.426000595092773 -9.89900016784668,-12.579999923706055 -7.951000213623047,-1.0080000162124634 C-5.9730000495910645,10.73900032043457 -0.6890000104904175,18.927000045776367 0.675000011920929,23.40999984741211 C-1.5520000457763672,23.731000900268555 -7.059999942779541,24.148000717163086 -11.411999702453613,24.999000549316406 C-17.613000869750977,26.211999893188477 -20.301000595092773,37.540000915527344 -10.62399959564209,38.28200149536133 C-0.9480000138282776,39.02299880981445 2.7869999408721924,40.130001068115234 11.545000076293945,39.12799835205078 C20.301000595092773,38.125999450683594 19.986000061035156,34.45100021362305 18.451000213623047,29.55500030517578 C18.136999130249023,28.55299949645996 17.371999740600586,27.150999069213867 16.520000457763672,25.32200050354004 C13.687000274658203,19.239999771118164 7.989999771118164,8.82699966430664 6.310999870300293,1.6150000095367432 C4.185999870300293,-7.510000228881836 4.935999870300293,-21.635000228881836 4.935999870300293,-21.635000228881836 C4.935999870300293,-21.635000228881836 -8.322999954223633,-24.426000595092773 -8.322999954223633,-24.426000595092773z"/></g></g><g transform="matrix(-1,0,0,1,342.1099853515625,196.0279998779297)" opacity="1" style="display: block;"><path fill="rgb(200,151,94)" fill-opacity="1" d=" M15.03,22.06 C15.03,22.06 13.46,33.9 15.41,45.47 C17.38,57.22 22.67,65.41 24.03,69.89 C21.81,70.21 16.3,70.63 11.95,71.48 C5.74,72.69 3.06,84.02 12.73,84.76 C22.41,85.5 26.14,86.61 34.9,85.61 C43.66,84.61 43.34,80.93 41.81,76.04 C41.49,75.03 40.73,73.63 39.88,71.8 C37.04,65.72 31.35,55.31 29.67,48.1 C27.54,38.97 28.29,24.85 28.29,24.85 C28.29,24.85 15.03,22.06 15.03,22.06z"/><g opacity="1" transform="matrix(1,0,0,1,23.35700035095215,46.481998443603516)"><path stroke-linecap="round" stroke-linejoin="round" fill-opacity="0" stroke="rgb(41,25,62)" stroke-opacity="1" stroke-width="2.848" d=" M-8.322999954223633,-24.426000595092773 C-8.322999954223633,-24.426000595092773 -9.89900016784668,-12.579999923706055 -7.951000213623047,-1.0080000162124634 C-5.9730000495910645,10.73900032043457 -0.6890000104904175,18.927000045776367 0.675000011920929,23.40999984741211 C-1.5520000457763672,23.731000900268555 -7.059999942779541,24.148000717163086 -11.411999702453613,24.999000549316406 C-17.613000869750977,26.211999893188477 -20.301000595092773,37.540000915527344 -10.62399959564209,38.28200149536133 C-0.9480000138282776,39.02299880981445 2.7869999408721924,40.130001068115234 11.545000076293945,39.12799835205078 C20.301000595092773,38.125999450683594 19.986000061035156,34.45100021362305 18.451000213623047,29.55500030517578 C18.136999130249023,28.55299949645996 17.371999740600586,27.150999069213867 16.520000457763672,25.32200050354004 C13.687000274658203,19.239999771118164 7.989999771118164,8.82699966430664 6.310999870300293,1.6150000095367432 C4.185999870300293,-7.510000228881836 4.935999870300293,-21.635000228881836 4.935999870300293,-21.635000228881836 C4.935999870300293,-21.635000228881836 -8.322999954223633,-24.426000595092773 -8.322999954223633,-24.426000595092773z"/></g></g><g transform="matrix(1,0,0,1,217.80099487304688,89.45199584960938)" opacity="1" style="display: block;"><g opacity="1" transform="matrix(1,0,0,1,73.1709976196289,73.1709976196289)"><path fill="rgb(199,150,94)" fill-opacity="1" d=" M66.0510025024414,0 C66.0510025024414,36.479000091552734 36.47999954223633,66.0510025024414 0,66.0510025024414 C-36.47800064086914,66.0510025024414 -66.0510025024414,36.479000091552734 -66.0510025024414,0 C-66.0510025024414,-36.479000091552734 -36.47800064086914,-66.0510025024414 0,-66.0510025024414 C36.47999954223633,-66.0510025024414 66.0510025024414,-36.479000091552734 66.0510025024414,0z"/><path stroke-linecap="butt" stroke-linejoin="miter" fill-opacity="0" stroke-miterlimit="10" stroke="rgb(41,24,61)" stroke-opacity="1" stroke-width="2.848" d=" M66.0510025024414,0 C66.0510025024414,36.479000091552734 36.47999954223633,66.0510025024414 0,66.0510025024414 C-36.47800064086914,66.0510025024414 -66.0510025024414,36.479000091552734 -66.0510025024414,0 C-66.0510025024414,-36.479000091552734 -36.47800064086914,-66.0510025024414 0,-66.0510025024414 C36.47999954223633,-66.0510025024414 66.0510025024414,-36.479000091552734 66.0510025024414,0z"/></g><g opacity="1" transform="matrix(1,0,0,1,58.37200164794922,22.843000411987305)"><path fill="rgb(182,108,67)" fill-opacity="1" d=" M-5.571000099182129,0.23600000143051147 C-5.578999996185303,-1.434999942779541 -4.364999771118164,-2.5420000553131104 -3.7860000133514404,-3.0799999237060547 C-2.755000114440918,-4.077000141143799 -1.3769999742507935,-4.636000156402588 0.05900000035762787,-4.638000011444092 C1.3229999542236328,-4.5929999351501465 2.5309998989105225,-4.10699987411499 3.4739999771118164,-3.2639999389648438 C3.9570000171661377,-2.8510000705718994 5.578999996185303,-1.468000054359436 5.410999774932861,0.5009999871253967 C5.295000076293945,1.465000033378601 4.835999965667725,2.3540000915527344 4.118000030517578,3.007999897003174 C2.5139999389648438,4.611999988555908 0.28999999165534973,4.448999881744385 -0.09200000017881393,4.4079999923706055 C-0.42399999499320984,4.439000129699707 -2.872999906539917,4.638000011444092 -4.4670000076293945,2.8499999046325684 C-5.138000011444092,2.140000104904175 -5.531000137329102,1.2120000123977661 -5.571000099182129,0.23600000143051147z"/></g><g opacity="1" transform="matrix(1,0,0,1,120.30500030517578,56.487998962402344)"><path fill="rgb(182,108,67)" fill-opacity="1" d=" M-3.5390000343322754,-5.605999946594238 C-2.5840001106262207,-6.796000003814697 -0.7289999723434448,-7.89900016784668 0.9330000281333923,-7.394000053405762 C2.8389999866485596,-6.835000038146973 3.4579999446868896,-4.431000232696533 3.9800000190734863,-2.444000005722046 C4.324999809265137,-1.1059999465942383 5,1.6390000581741333 3.677000045776367,4.492000102996826 C3.378000020980835,5.139999866485596 2.1019999980926514,7.89900016784668 0.40799999237060547,7.896999835968018 C-1.284000039100647,7.894000053405762 -3.01200008392334,5.28000020980835 -3.558000087738037,1.3420000076293945 C-5,-1.0180000066757202 -4.96999979019165,-3.803999900817871 -3.5390000343322754,-5.605999946594238z"/></g><g opacity="1" transform="matrix(1,0,0,1,78.56300354003906,116.83599853515625)"><path fill="rgb(182,108,67)" fill-opacity="1" d=" M5.622000217437744,-1.0529999732971191 C6.074999809265137,0.33899998664855957 5.078000068664551,1.7109999656677246 4.875,1.9919999837875366 C3.3340001106262207,4.103000164031982 0.39800000190734863,4.1539998054504395 -1.1069999933242798,4.175000190734863 C-2.7669999599456787,4.203999996185303 -4.660999774932861,4.230999946594238 -5.416999816894531,2.9619998931884766 C-6.074999809265137,1.8589999675750732 -5.488999843597412,0.41999998688697815 -5.307000160217285,0.028999999165534973 C-4.869999885559082,-0.42899999022483826 -1.1469999551773071,-4.230999946594238 2.691999912261963,-3.2170000076293945 C3.2070000171661377,-3.0959999561309814 5.123000144958496,-2.5869998931884766 5.622000217437744,-1.0529999732971191z"/></g><g opacity="1" transform="matrix(1,0,0,1,108.27899932861328,99.18199920654297)"><path fill="rgb(182,108,67)" fill-opacity="1" d=" M-4.0920000076293945,11.100000381469727 C-5.355000019073486,11.036999702453613 -8.057000160217285,10.904000282287598 -9.633000373840332,8.92199993133545 C-11.208999633789062,6.941999912261963 -10.666000366210938,4.132999897003174 -10.281000137329102,2.2860000133514404 C-9.281999588012695,-2.4809999465942383 -6.047999858856201,-5.494999885559082 -4.48199987411499,-6.73799991607666 C-2.4590001106262207,-8.336999893188477 1.3819999694824219,-11.375 5.389999866485596,-10.03600025177002 C7.986999988555908,-9.166000366210938 9.380000114440918,-6.888000011444092 9.91100025177002,-5.888999938964844 C10.362000465393066,-4.989999771118164 10.651000022888184,-4.017000198364258 10.76200008392334,-3.0160000324249268 C11.208999633789062,1.2860000133514404 8.031999588012695,4.622000217437744 6.678999900817871,6.039000034332275 C5.678999900817871,7.086999893188477 1.5920000076293945,11.37600040435791 -4.0920000076293945,11.100000381469727z"/></g><g opacity="1" transform="matrix(1,0,0,1,78.56800079345703,116.81999969482422)"><path stroke-linecap="round" stroke-linejoin="round" fill-opacity="0" stroke="rgb(41,24,61)" stroke-opacity="1" stroke-width="3.056" d=" M-5.314000129699707,0.028999999165534973 C-5.497000217437744,0.42100000381469727 -6.081999778747559,1.8760000467300415 -5.423999786376953,2.9639999866485596 C-4.669000148773193,4.232999801635742 -2.7739999294281006,4.204999923706055 -1.1160000562667847,4.176000118255615 C0.38999998569488525,4.1539998054504395 3.3259999752044678,4.105000019073486 4.867000102996826,1.9930000305175781 C5.070000171661377,1.7120000123977661 6.081999778747559,0.33899998664855957 5.614999771118164,-1.0509999990463257 C5.114999771118164,-2.5859999656677246 3.1989998817443848,-3.0940001010894775 2.681999921798706,-3.2300000190734863 C-1.1549999713897705,-4.23199987411499 -4.877999782562256,-0.42899999022483826 -5.314000129699707,0.028999999165534973z"/></g><g opacity="1" transform="matrix(1,0,0,1,108.26499938964844,99.18299865722656)"><path stroke-linecap="round" stroke-linejoin="round" fill-opacity="0" stroke="rgb(41,24,61)" stroke-opacity="1" stroke-width="3.056" d=" M9.928000450134277,-5.890999794006348 C9.39799976348877,-6.888999938964844 8.005000114440918,-9.166999816894531 5.4079999923706055,-10.036999702453613 C1.3990000486373901,-11.375 -2.440999984741211,-8.336000442504883 -4.465000152587891,-6.73799991607666 C-6.033999919891357,-5.494999885559082 -9.267999649047852,-2.4820001125335693 -10.263999938964844,2.2860000133514404 C-10.64900016784668,4.129000186920166 -11.222999572753906,6.882999897003174 -9.616000175476074,8.920999526977539 C-8.008999824523926,10.958999633789062 -5.335999965667725,11.03499984741211 -4.074999809265137,11.097999572753906 C1.6100000143051147,11.375 5.696000099182129,7.085999965667725 6.692999839782715,6.038000106811523 C8.045999526977539,4.620999813079834 11.222999572753906,1.284999966621399 10.777000427246094,-3.0169999599456787 C10.666000366210938,-4.01800012588501 10.378999710083008,-4.992000102996826 9.928000450134277,-5.890999794006348z"/></g><g opacity="1" transform="matrix(1,0,0,1,120.31300354003906,56.49100112915039)"><path stroke-linecap="round" stroke-linejoin="round" fill-opacity="0" stroke="rgb(41,24,61)" stroke-opacity="1" stroke-width="3.056" d=" M-3.5510001182556152,1.340000033378601 C-3.003000020980835,5.2779998779296875 -1.2309999465942383,7.889999866485596 0.41499999165534973,7.895999908447266 C2.059999942779541,7.901000022888184 3.3889999389648438,5.138000011444092 3.684000015258789,4.488999843597412 C5.007999897003174,1.6369999647140503 4.333000183105469,-1.1080000400543213 3.9860000610351562,-2.444999933242798 C3.4649999141693115,-4.440999984741211 2.8450000286102295,-6.817999839782715 0.9390000104904175,-7.395999908447266 C-0.722000002861023,-7.901000022888184 -2.5769999027252197,-6.796999931335449 -3.5329999923706055,-5.60699987411499 C-4.9770002365112305,-3.805999994277954 -5.006999969482422,-1.0199999809265137 -3.5510001182556152,1.340000033378601z"/></g></g><g transform="matrix(1,0,0,1,233.74099731445312,147.36199951171875)" opacity="1" style="display: block;"><g opacity="1" transform="matrix(1,0,0,1,54.40800094604492,5.315000057220459)"><path fill="rgb(41,24,61)" fill-opacity="1" d=" M-0.7549999952316284,-4.6479997634887695 C1.812000036239624,-5.065000057220459 4.230999946594238,-3.322000026702881 4.6479997634887695,-0.7549999952316284 C5.065000057220459,1.812000036239624 3.322999954223633,4.230999946594238 0.7559999823570251,4.6479997634887695 C-1.812000036239624,5.065000057220459 -4.230999946594238,3.322000026702881 -4.6479997634887695,0.7549999952316284 C-5.065000057220459,-1.812000036239624 -3.321000099182129,-4.230999946594238 -0.7549999952316284,-4.6479997634887695z"/></g><g opacity="1" transform="matrix(1,0,0,1,5.315000057220459,13.270999908447266)"><path fill="rgb(41,24,61)" fill-opacity="1" d=" M-0.7549999952316284,-4.64900016784668 C1.812000036239624,-5.065999984741211 4.230999946594238,-3.322999954223633 4.6479997634887695,-0.7549999952316284 C5.065000057220459,1.812000036239624 3.322000026702881,4.23199987411499 0.7559999823570251,4.64900016784668 C-1.812000036239624,5.065999984741211 -4.230999946594238,3.322999954223633 -4.6479997634887695,0.7549999952316284 C-5.065000057220459,-1.8109999895095825 -3.322000026702881,-4.23199987411499 -0.7549999952316284,-4.64900016784668z"/></g></g><g transform="matrix(1,0,0,1,252.56199645996094,154.08999633789062)" opacity="1" style="display: block;"><g opacity="1" transform="matrix(1,0,0,1,10.592000007629395,6.494999885559082)"><path fill="rgb(41,24,61)" fill-opacity="1" d=" M7.828000068664551,-3.3410000801086426 C7.828000068664551,-3.3410000801086426 7.919000148773193,-3.822000026702881 7.919000148773193,-3.822000026702881 C7.919000148773193,-3.822000026702881 -7.919000148773193,-0.9210000038146973 -7.919000148773193,-0.9210000038146973 C-7.919000148773193,-0.9210000038146973 -7.10099983215332,0.16099999845027924 -7.10099983215332,0.16099999845027924 C-5.270999908447266,2.5789999961853027 -2.2769999504089355,3.822000026702881 0.7269999980926514,3.4089999198913574 C4.300000190734863,2.9189999103546143 7.1570000648498535,0.20100000500679016 7.828000068664551,-3.3410000801086426z"/><path stroke-linecap="round" stroke-linejoin="round" fill-opacity="0" stroke="rgb(41,24,61)" stroke-opacity="1" stroke-width="2.673" d=" M7.828000068664551,-3.3410000801086426 C7.828000068664551,-3.3410000801086426 7.919000148773193,-3.822000026702881 7.919000148773193,-3.822000026702881 C7.919000148773193,-3.822000026702881 -7.919000148773193,-0.9210000038146973 -7.919000148773193,-0.9210000038146973 C-7.919000148773193,-0.9210000038146973 -7.10099983215332,0.16099999845027924 -7.10099983215332,0.16099999845027924 C-5.270999908447266,2.5789999961853027 -2.2769999504089355,3.822000026702881 0.7269999980926514,3.4089999198913574 C4.300000190734863,2.9189999103546143 7.1570000648498535,0.20100000500679016 7.828000068664551,-3.3410000801086426z"/></g></g><g transform="matrix(1,0,0,1,81.50698852539062,160.72698974609375)" opacity="1" style="display: block;"><g opacity="1" transform="matrix(1,0,0,1,48.53200149536133,35.20399856567383)"><path fill="rgb(142,202,235)" fill-opacity="1" d=" M-31.72100067138672,-4.4079999923706055 C-31.72100067138672,-4.4079999923706055 -34.31999969482422,-14.145999908447266 -34.31999969482422,-14.145999908447266 C-34.31999969482422,-14.145999908447266 -46.1349983215332,3.378000020980835 -46.1349983215332,3.378000020980835 C-46.1349983215332,3.378000020980835 -32.724998474121094,3.953000068664551 -32.724998474121094,3.953000068664551 C-32.724998474121094,3.953000068664551 -14.45199966430664,26.79199981689453 -14.45199966430664,26.79199981689453 C-14.45199966430664,26.79199981689453 -13.093999862670898,31.951000213623047 -13.093999862670898,31.951000213623047 C-13.093999862670898,31.951000213623047 33.981998443603516,21.402000427246094 33.981998443603516,21.402000427246094 C33.981998443603516,21.402000427246094 42.76599884033203,0.8740000128746033 42.76599884033203,0.8740000128746033 C42.76599884033203,0.8740000128746033 42.231998443603516,-1.7339999675750732 42.231998443603516,-1.7339999675750732 C42.231998443603516,-1.7339999675750732 37.415000915527344,-1.6540000438690186 37.415000915527344,-1.6540000438690186 C37.415000915527344,-1.6540000438690186 31.211999893188477,12.303000450134277 31.211999893188477,12.303000450134277 C31.211999893188477,12.303000450134277 18.979000091552734,-22.3439998626709 18.979000091552734,-22.3439998626709 C18.979000091552734,-22.3439998626709 33.361000061035156,-24.386999130249023 33.361000061035156,-24.386999130249023 C33.361000061035156,-24.386999130249023 36.915000915527344,-21.79199981689453 36.915000915527344,-21.79199981689453 C36.915000915527344,-21.79199981689453 39.145999908447266,-8.604999542236328 39.145999908447266,-8.604999542236328 C39.145999908447266,-8.604999542236328 46.1349983215332,-10.774999618530273 46.1349983215332,-10.774999618530273 C46.1349983215332,-10.774999618530273 43.96900177001953,-27.163000106811523 43.96900177001953,-27.163000106811523 C43.96900177001953,-27.163000106811523 37.854000091552734,-31.951000213623047 37.854000091552734,-31.951000213623047 C37.854000091552734,-31.951000213623047 21.908000946044922,-28.684999465942383 21.908000946044922,-28.684999465942383 C21.908000946044922,-28.684999465942383 16.68400001525879,-29.125999450683594 16.68400001525879,-29.125999450683594 C16.68400001525879,-29.125999450683594 -15.616999626159668,-23.111000061035156 -15.616999626159668,-23.111000061035156 C-15.616999626159668,-23.111000061035156 -14.90999984741211,3.930000066757202 -14.90999984741211,3.930000066757202 C-14.90999984741211,3.930000066757202 -31.72100067138672,-4.4079999923706055 -31.72100067138672,-4.4079999923706055z"/></g><g opacity="1" transform="matrix(1,0,0,1,89.88099670410156,30.52199935913086)"><path fill="rgb(142,202,235)" fill-opacity="1" d=" M-4.367000102996826,4.4120001792907715 C-4.367000102996826,4.4120001792907715 -2.687999963760376,-6.8379998207092285 -2.687999963760376,-6.8379998207092285 C-2.687999963760376,-6.8379998207092285 4.367000102996826,-6.85699987411499 4.367000102996826,-6.85699987411499 C4.367000102996826,-6.85699987411499 3.4809999465942383,-0.8270000219345093 3.4809999465942383,-0.8270000219345093 C3.4809999465942383,-0.8270000219345093 0.9760000109672546,6.85699987411499 0.9760000109672546,6.85699987411499 C0.9760000109672546,6.85699987411499 -4.367000102996826,4.4120001792907715 -4.367000102996826,4.4120001792907715z"/></g><g opacity="1" transform="matrix(1,0,0,1,18.40999984741211,41.85200119018555)"><path stroke-linecap="round" stroke-linejoin="round" fill-opacity="0" stroke="rgb(41,24,61)" stroke-opacity="1" stroke-width="3.056" d=" M14.605999946594238,-3.240000009536743 C14.605999946594238,-3.240000009536743 -0.7570000290870667,-10.84000015258789 -0.7570000290870667,-10.84000015258789 C-0.7570000290870667,-10.84000015258789 -4.579999923706055,-20.33099937438965 -4.579999923706055,-20.33099937438965 C-4.579999923706055,-20.33099937438965 -15.354000091552734,-3.2119998931884766 -15.354000091552734,-3.2119998931884766 C-15.354000091552734,-3.2119998931884766 -2.13100004196167,-3.634999990463257 -2.13100004196167,-3.634999990463257 C-2.13100004196167,-3.634999990463257 15.354000091552734,20.33099937438965 15.354000091552734,20.33099937438965"/></g><g opacity="1" transform="matrix(1,0,0,1,79.4010009765625,8.97700023651123)"><path stroke-linecap="round" stroke-linejoin="round" fill-opacity="0" stroke="rgb(41,24,61)" stroke-opacity="1" stroke-width="3.056" d=" M-13.585000038146973,-1.6019999980926514 C-13.585000038146973,-1.6019999980926514 3.174999952316284,-5.035999774932861 3.174999952316284,-5.035999774932861 C7.502999782562256,-5.921000003814697 11.730999946594238,-3.13100004196167 12.616999626159668,1.1970000267028809 C12.616999626159668,1.1970000267028809 13.585000038146973,5.921000003814697 13.585000038146973,5.921000003814697"/></g><g opacity="1" transform="matrix(1,0,0,1,76.2490005493164,11.968000411987305)"><path stroke-linecap="round" stroke-linejoin="round" fill-opacity="0" stroke="rgb(41,24,61)" stroke-opacity="1" stroke-width="3.056" d=" M-8.822999954223633,1.4539999961853027 C-8.822999954223633,1.4539999961853027 4.439000129699707,-1.2640000581741333 4.439000129699707,-1.2640000581741333 C6.466000080108643,-1.6790000200271606 8.4399995803833,-0.3540000021457672 8.822999954223633,1.6790000200271606"/></g><g opacity="1" transform="matrix(1,0,0,1,83.54100036621094,30.940000534057617)"><path stroke-linecap="round" stroke-linejoin="round" fill-opacity="0" stroke="rgb(41,24,61)" stroke-opacity="1" stroke-width="3.056" d=" M-3.9709999561309814,17.371999740600586 C-3.9709999561309814,17.371999740600586 1.468000054359436,4.296000003814697 1.468000054359436,4.296000003814697 C2.3469998836517334,1.9630000591278076 3.9719998836517334,-2.8289999961853027 3.7980000972747803,-5.119999885559082 C3.6600000858306885,-6.952000141143799 2.2850000858306885,-14.050999641418457 1.6150000095367432,-17.371999740600586"/></g><g opacity="1" transform="matrix(1,0,0,1,88.73200225830078,35.16299819946289)"><path stroke-linecap="round" stroke-linejoin="round" fill-opacity="0" stroke="rgb(41,24,61)" stroke-opacity="1" stroke-width="3.056" d=" M-5.802999973297119,20.149999618530273 C-5.802999973297119,20.149999618530273 3.1600000858306885,-0.8240000009536743 3.1600000858306885,-0.8240000009536743 C4.079999923706055,-3.2079999446868896 5.802999973297119,-8.470000267028809 5.769000053405762,-10.46399974822998 C5.735000133514404,-12.458000183105469 4.754000186920166,-17.75200080871582 4.26800012588501,-20.149999618530273"/></g><g opacity="1" transform="matrix(1,0,0,1,57.56399917602539,36.46699905395508)"><path stroke-linecap="round" stroke-linejoin="round" fill-opacity="0" stroke="rgb(41,24,61)" stroke-opacity="1" stroke-width="3.056" d=" M-22.554000854492188,30.548999786376953 C-22.554000854492188,30.548999786376953 -25.28700065612793,-24.486000061035156 -25.28700065612793,-24.486000061035156 C-25.28700065612793,-24.486000061035156 6.908999919891357,-30.548999786376953 6.908999919891357,-30.548999786376953 C6.908999919891357,-30.548999786376953 25.28700065612793,21.534000396728516 25.28700065612793,21.534000396728516 C25.28700065612793,21.534000396728516 -22.554000854492188,30.548999786376953 -22.554000854492188,30.548999786376953z"/></g></g><g style="display: none;"><g><path/><path stroke-linecap="round" stroke-linejoin="round" fill-opacity="0"/></g></g><g style="display: none;"><g><path/><path stroke-linecap="round" stroke-linejoin="round" fill-opacity="0"/></g></g><g style="display: none;"><g><path/><path stroke-linecap="round" stroke-linejoin="round" fill-opacity="0"/></g></g><g style="display: none;"><g><path/><path stroke-linecap="round" stroke-linejoin="round" fill-opacity="0"/></g></g><g style="display: none;"><g><path/><path stroke-linecap="round" stroke-linejoin="round" fill-opacity="0"/></g></g><g style="display: none;"><g><path/><path stroke-linecap="round" stroke-linejoin="round" fill-opacity="0"/></g></g><g transform="matrix(1,0,0,1,204.87600708007812,46.483001708984375)" opacity="1" style="display: block;"><g opacity="1" transform="matrix(1,0,0,1,91.84500122070312,63.47200012207031)"><path fill="rgb(206,172,117)" fill-opacity="1" d=" M-80.28500366210938,-18.523000717163086 C-71.51899719238281,-26.124000549316406 -38.875,-25.878999710083008 -23.648000717163086,-24.80699920654297 C-9.996000289916992,-23.915000915527344 18.83099937438965,-21.445999145507812 24.923999786376953,-18.70599937438965 C65.34200286865234,-9.859999656677246 87.41999816894531,5.10099983215332 88.32599639892578,11.267999649047852 C89.0510025024414,16.201000213623047 80.64900207519531,20.829999923706055 76.35700225830078,22.527000427246094 C76.35700225830078,22.527000427246094 44.231998443603516,26.124000549316406 44.231998443603516,26.124000549316406 C44.231998443603516,26.124000549316406 13.270999908447266,24.135000228881836 13.270999908447266,24.135000228881836 C13.270999908447266,24.135000228881836 -21.010000228881836,20.395000457763672 -21.010000228881836,20.395000457763672 C-21.010000228881836,20.395000457763672 -71.11599731445312,6.0980000495910645 -71.11599731445312,6.0980000495910645 C-71.11599731445312,6.0980000495910645 -84.0479965209961,-1.5759999752044678 -84.0479965209961,-1.5759999752044678 C-84.0479965209961,-1.5759999752044678 -87.76300048828125,-5.315999984741211 -87.76300048828125,-5.315999984741211 C-88.9229965209961,-6.552000045776367 -89.0510025024414,-10.92199993133545 -80.28500366210938,-18.523000717163086z"/></g><g opacity="1" transform="matrix(1,0,0,1,101.8239974975586,68.37699890136719)"><path stroke-linecap="round" stroke-linejoin="round" fill-opacity="0" stroke="rgb(41,24,61)" stroke-opacity="1" stroke-width="2.848" d=" M-34.04399871826172,-30.03499984741211 C-58.249000549316406,-32.255001068115234 -98.21299743652344,-29.600000381469727 -98.59500122070312,-12.21500015258789 C-98.97699737548828,5.171000003814697 32.58100128173828,32.255001068115234 69.46700286865234,15.916000366210938 C98.97599792480469,2.8450000286102295 46.2239990234375,-15.819999694824219 16.159000396728516,-23.518999099731445"/></g><g opacity="1" transform="matrix(1,0,0,1,100.71299743652344,36.94900131225586)"><path fill="rgb(206,172,117)" fill-opacity="1" d=" M-49.24399948120117,16.95599937438965 C-49.24399948120117,16.95599937438965 -42.75400161743164,-1.2599999904632568 -42.75400161743164,-1.2599999904632568 C-42.75400161743164,-1.2599999904632568 -28.201000213623047,-30.054000854492188 -28.201000213623047,-30.054000854492188 C-28.201000213623047,-30.054000854492188 -16.16200065612793,-31.586000442504883 -16.16200065612793,-31.586000442504883 C-16.16200065612793,-31.586000442504883 -1.0180000066757202,-31.466999053955078 -1.0180000066757202,-31.466999053955078 C-1.0180000066757202,-31.466999053955078 16.003000259399414,-27.086000442504883 16.003000259399414,-27.086000442504883 C16.003000259399414,-27.086000442504883 25.173999786376953,-23.14299964904785 25.173999786376953,-23.14299964904785 C25.173999786376953,-23.14299964904785 27.511999130249023,-18.148000717163086 27.511999130249023,-18.148000717163086 C27.511999130249023,-18.148000717163086 30.322999954223633,8.72700023651123 30.322999954223633,8.72700023651123 C30.322999954223633,8.72700023651123 35.47700119018555,26.266000747680664 35.47700119018555,26.266000747680664 C35.47700119018555,26.266000747680664 31.07900047302246,25.170000076293945 31.07900047302246,25.170000076293945 C38.97600173950195,27.479000091552734 45.15800094604492,29.812000274658203 49.24399948120117,31.586000442504883 C49.24399948120117,31.586000442504883 22.048999786376953,22.920000076293945 22.048999786376953,22.920000076293945 C22.048999786376953,22.920000076293945 31.07900047302246,25.170000076293945 31.07900047302246,25.170000076293945 C12.288000106811523,19.676000595092773 -16.208999633789062,14.321000099182129 -49.24399948120117,16.95599937438965z"/></g><g opacity="1" transform="matrix(1,0,0,1,93.05799865722656,54.87900161743164)"><path fill="rgb(212,112,91)" fill-opacity="1" d=" M40.52299880981445,7.135000228881836 C40.52299880981445,7.135000228881836 40.138999938964844,-4.760000228881836 40.138999938964844,-4.760000228881836 C40.138999938964844,-4.760000228881836 16.349000930786133,-0.9229999780654907 2.5360000133514404,-3.6089999675750732 C-11.277000427246094,-6.295000076293945 -36.21799850463867,-13.968999862670898 -36.21799850463867,-13.968999862670898 C-36.21799850463867,-13.968999862670898 -40.52299880981445,-1.222000002861023 -40.52299880981445,-1.222000002861023 C-40.52299880981445,-1.222000002861023 -23.18600082397461,6.035999774932861 -2.802999973297119,10.001999855041504 C17.579999923706055,13.968999862670898 40.52299880981445,7.135000228881836 40.52299880981445,7.135000228881836z"/></g><g opacity="1" transform="matrix(1,0,0,1,93.46600341796875,35.63199996948242)"><path stroke-linecap="round" stroke-linejoin="round" fill-opacity="0" stroke="rgb(41,24,61)" stroke-opacity="1" stroke-width="2.848" d=" M35.14799880981445,-19.999000549316406 C35.14799880981445,-19.999000549316406 39.821998596191406,17.989999771118164 40.69200134277344,26.677000045776367 C29.67300033569336,29.8799991607666 18.05500030517578,32.784000396728516 -1.7680000066757202,30.26099967956543 C-21.590999603271484,27.738000869750977 -33.941001892089844,22.160999298095703 -40.69200134277344,16.926000595092773 C-35.777000427246094,3.1389999389648438 -21.312999725341797,-28.075000762939453 -21.312999725341797,-28.075000762939453 C-21.312999725341797,-28.075000762939453 -16.69099998474121,-32.784000396728516 7.993000030517578,-29.417999267578125 C32.67599868774414,-26.05299949645996 35.14799880981445,-19.999000549316406 35.14799880981445,-19.999000549316406z"/></g><g opacity="1" transform="matrix(1,0,0,1,95.41200256347656,49.8650016784668)"><path stroke-linecap="round" stroke-linejoin="round" fill-opacity="0" stroke="rgb(41,24,61)" stroke-opacity="1" stroke-width="2.848" d=" M-36.63100051879883,-8.312000274658203 C-22.010000228881836,-2.7669999599456787 12.843999862670898,8.312000274658203 36.63100051879883,0.2540000081062317"/></g><g opacity="1" transform="matrix(1,0,0,1,106.16600036621094,33.4119987487793)"><path stroke-linecap="round" stroke-linejoin="round" fill-opacity="0" stroke="rgb(41,24,61)" stroke-opacity="1" stroke-width="2.848" d=" M8.881999969482422,-3.513000011444092 C3.7769999504089355,-1.4329999685287476 -2.010999917984009,0.3970000147819519 -8.881999969482422,3.513000011444092"/></g><g opacity="1" transform="matrix(1,0,0,1,110.01899719238281,40.604000091552734)"><path stroke-linecap="round" stroke-linejoin="round" fill-opacity="0" stroke="rgb(41,24,61)" stroke-opacity="1" stroke-width="2.848" d=" M10.336000442504883,-4.2829999923706055 C2.5179998874664307,-1.2120000123977661 -2.509999990463257,1.0219999551773071 -10.336000442504883,4.2829999923706055"/></g><g opacity="1" transform="matrix(1,0,0,1,112.72699737548828,34.29399871826172)"><path stroke-linecap="round" stroke-linejoin="round" fill-opacity="0" stroke="rgb(41,24,61)" stroke-opacity="1" stroke-width="2.848" d=" M-5.11299991607666,-8.449000358581543 C-2.1459999084472656,-3.8369998931884766 1.2029999494552612,2.305999994277954 5.11299991607666,8.449000358581543"/></g><g opacity="1" transform="matrix(1,0,0,1,105.83200073242188,37.4379997253418)"><path stroke-linecap="round" stroke-linejoin="round" fill-opacity="0" stroke="rgb(41,24,61)" stroke-opacity="1" stroke-width="2.848" d=" M-4.189000129699707,-7.818999767303467 C-1.3960000276565552,-2.7929999828338623 2.2290000915527344,4.340000152587891 4.189000129699707,7.818999767303467"/></g><g opacity="1" transform="matrix(1,0,0,1,100.21199798583984,13.722999572753906)"><path stroke-linecap="round" stroke-linejoin="round" fill-opacity="0" stroke="rgb(41,24,61)" stroke-opacity="1" stroke-width="2.848" d=" M-27.268999099731445,-4.99399995803833 C-26.29400062561035,-3.38700008392334 -19.422000885009766,0.4020000100135803 0.2709999978542328,2.697999954223633 C19.964000701904297,4.99399995803833 26.47599983215332,3.0239999294281006 27.268999099731445,1.7519999742507935"/></g></g><g transform="matrix(1,0,0,1,324.2760009765625,40.71299743652344)" opacity="1" style="display: block;"><g opacity="1" transform="matrix(1,0,0,1,71.91799926757812,13.642999649047852)"><path fill="rgb(246,197,85)" fill-opacity="1" d=" M-12.86400032043457,0.5870000123977661 C-12.86400032043457,0.5870000123977661 -15.652000427246094,7.172999858856201 -15.652000427246094,7.172999858856201 C-15.652000427246094,7.172999858856201 -12.267999649047852,9.116999626159668 -12.267999649047852,9.116999626159668 C-12.267999649047852,9.116999626159668 -5.480999946594238,8.225000381469727 -5.480999946594238,8.225000381469727 C-5.480999946594238,8.225000381469727 -5.438000202178955,6.0920000076293945 -5.438000202178955,6.0920000076293945 C-5.438000202178955,6.0920000076293945 3.4719998836517334,7.314000129699707 3.4719998836517334,7.314000129699707 C3.4719998836517334,7.314000129699707 6.071000099182129,5.605000019073486 6.071000099182129,5.605000019073486 C6.071000099182129,5.605000019073486 1.8849999904632568,2.9000000953674316 1.8849999904632568,2.9000000953674316 C1.8849999904632568,2.9000000953674316 15.652000427246094,0.8960000276565552 15.652000427246094,0.8960000276565552 C15.652000427246094,0.8960000276565552 14.692999839782715,-2.6600000858306885 14.692999839782715,-2.6600000858306885 C14.692999839782715,-2.6600000858306885 11.338000297546387,-3.8440001010894775 11.338000297546387,-3.8440001010894775 C11.338000297546387,-3.8440001010894775 11.15999984741211,-6.513999938964844 11.15999984741211,-6.513999938964844 C11.15999984741211,-6.513999938964844 9.123000144958496,-9.116999626159668 9.123000144958496,-9.116999626159668 C9.123000144958496,-9.116999626159668 -0.33500000834465027,-5.14300012588501 -0.33500000834465027,-5.14300012588501 C-0.33500000834465027,-5.14300012588501 -1.9859999418258667,-7.302999973297119 -1.9859999418258667,-7.302999973297119 C-1.9859999418258667,-7.302999973297119 -6.999000072479248,-0.3310000002384186 -6.999000072479248,-0.3310000002384186 C-6.999000072479248,-0.3310000002384186 -12.86400032043457,0.5870000123977661 -12.86400032043457,0.5870000123977661z"/></g><g opacity="1" transform="matrix(1,0,0,1,69.73799896240234,11.972000122070312)"><path stroke-linecap="round" stroke-linejoin="round" fill-opacity="0" stroke="rgb(41,24,61)" stroke-opacity="1" stroke-width="2.848" d=" M-14.029999732971191,9.12399959564209 C-13.861000061035156,7.552000045776367 -12.932999610900879,3.937999963760376 -10.572999954223633,2.059000015258789 C-8.213000297546387,0.18000000715255737 -7.394999980926514,2.680999994277954 -7.2820000648498535,4.165999889373779 C-5.829999923706055,1.1480000019073486 -2.319999933242798,-4.901000022888184 0.08799999952316284,-4.948999881744385 C2.496000051498413,-4.995999813079834 1.9579999446868896,-1.4589999914169312 1.3890000581741333,0.3160000145435333 C4.203000068664551,-3.000999927520752 10.300999641418457,-9.12399959564209 12.163999557495117,-7.084000110626221 C14.029999732971191,-5.044000148773193 13.333000183105469,-3.380000114440918 12.753000259399414,-2.802999973297119"/></g><g opacity="1" transform="matrix(1,0,0,1,72.39900207519531,16.84600067138672)"><path stroke-linecap="round" stroke-linejoin="round" fill-opacity="0" stroke="rgb(41,24,61)" stroke-opacity="1" stroke-width="2.848" d=" M-16.18600082397461,4.984000205993652 C-14.402999877929688,5.690999984741211 -10.024999618530273,6.952000141143799 -6.767000198364258,6.340000152587891 C-3.509000062942505,5.729000091552734 -5.7779998779296875,3.871999979019165 -7.318999767303467,3.0199999809265137 C-3.306999921798706,3.615000009536743 5.043000221252441,4.406000137329102 6.353000164031982,2.805000066757202 C7.6620001792907715,1.2050000429153442 3.569000005722046,-0.27900001406669617 1.3580000400543213,-0.8209999799728394 C6.4029998779296875,-0.9890000224113464 16.18600082397461,-1.906000018119812 14.960000038146973,-4.229000091552734 C13.737000465393066,-6.552000045776367 11.579999923706055,-6.952000141143799 10.654000282287598,-6.861999988555908"/></g><g opacity="1" transform="matrix(1,0,0,1,29.132999420166016,40.07899856567383)"><path stroke-linecap="round" stroke-linejoin="round" fill-opacity="0" stroke="rgb(41,24,61)" stroke-opacity="1" stroke-width="2.848" d=" M-26.28499984741211,17.645999908447266 C-18.229999542236328,9.526000022888184 3.562000036239624,-8.89900016784668 26.28499984741211,-17.645999908447266"/></g></g><g transform="matrix(1,0,0,1,0.8780059814453125,99.05599975585938)" opacity="1" style="display: block;"><g opacity="1" transform="matrix(1,0,0,1,0,0)"><path stroke-linecap="round" stroke-linejoin="round" fill-opacity="0" stroke="rgb(41,24,61)" stroke-opacity="1" stroke-width="3.807" d=" M1.9040000438690186,183.74899291992188 C1.9040000438690186,183.74899291992188 348.4700012207031,183.74899291992188 348.4700012207031,183.74899291992188"/></g></g><g transform="matrix(1,0,0,1,370.25299072265625,-114.56900024414062)" opacity="1" style="display: block;"><g opacity="1" transform="matrix(1,0,0,1,0,0)"><path stroke-linecap="round" stroke-linejoin="round" fill-opacity="0" stroke="rgb(41,24,61)" stroke-opacity="1" stroke-width="3.807" d=" M1.9040000438690186,183.74899291992188 C1.9040000438690186,183.74899291992188 150.22000122070312,184.03799438476562 150.22000122070312,184.03799438476562"/></g></g><g transform="matrix(1,0,0,1,10.731002807617188,250.3179931640625)" opacity="1" style="display: block;"><g opacity="1" transform="matrix(1,0,0,1,6.928999900817871,25.996000289916992)"><path stroke-linecap="round" stroke-linejoin="round" fill-opacity="0" stroke="rgb(41,24,61)" stroke-opacity="1" stroke-width="3.807" d=" M5.025000095367432,5.598999977111816 C5.025000095367432,5.598999977111816 -5.025000095367432,-5.598999977111816 -5.025000095367432,-5.598999977111816"/></g></g><g transform="matrix(1,0,0,1,150.63099670410156,257.1629943847656)" opacity="1" style="display: block;"><g opacity="1" transform="matrix(1,0,0,1,6.928999900817871,25.996000289916992)"><path stroke-linecap="round" stroke-linejoin="round" fill-opacity="0" stroke="rgb(41,24,61)" stroke-opacity="1" stroke-width="3.807" d=" M5.025000095367432,5.598999977111816 C5.025000095367432,5.598999977111816 9.670000076293945,-7.916999816894531 9.670000076293945,-7.916999816894531"/></g></g><g transform="matrix(1,0,0,1,93.13800048828125,82.19599914550781)" opacity="1" style="display: block;"><g opacity="1" transform="matrix(1,0,0,1,6.928999900817871,25.996000289916992)"><path stroke-linecap="round" stroke-linejoin="round" fill-opacity="0" stroke="rgb(41,24,61)" stroke-opacity="1" stroke-width="3.807" d=" M5.025000095367432,5.598999977111816 C5.025000095367432,5.598999977111816 9.670000076293945,-7.916999816894531 9.670000076293945,-7.916999816894531"/></g></g><g transform="matrix(1,0,0,1,161.5679931640625,254.91200256347656)" opacity="1" style="display: block;"><g opacity="1" transform="matrix(1,0,0,1,6.928999900817871,25.996000289916992)"><path stroke-linecap="round" stroke-linejoin="round" fill-opacity="0" stroke="rgb(41,24,61)" stroke-opacity="1" stroke-width="3.807" d=" M5.025000095367432,5.598999977111816 C5.025000095367432,5.598999977111816 11.96399974822998,-5.9670000076293945 11.96399974822998,-5.9670000076293945"/></g></g><g transform="matrix(1,0,0,1,104.07600402832031,79.94599914550781)" opacity="1" style="display: block;"><g opacity="1" transform="matrix(1,0,0,1,6.928999900817871,25.996000289916992)"><path stroke-linecap="round" stroke-linejoin="round" fill-opacity="0" stroke="rgb(41,24,61)" stroke-opacity="1" stroke-width="3.807" d=" M5.025000095367432,5.598999977111816 C5.025000095367432,5.598999977111816 11.96399974822998,-5.9670000076293945 11.96399974822998,-5.9670000076293945"/></g></g></g></svg>