<svg xmlns="http://www.w3.org/2000/svg" viewBox="0 0 420 356" width="420" height="356" preserveAspectRatio="xMidYMid meet" style="width: 100%; height: 100%; transform: translate3d(0px, 0px, 0px);"><defs><clipPath id="__lottie_element_468"><rect width="420" height="356" x="0" y="0"/></clipPath></defs><g clip-path="url(#__lottie_element_468)"><g transform="matrix(1,0,0,1,21.9639892578125,337.4419860839844)" opacity="1" style="display: block;"><g opacity="1" transform="matrix(1,0,0,1,0,0)"><path stroke-linecap="round" stroke-linejoin="round" fill-opacity="0" stroke="rgb(41,24,61)" stroke-opacity="1" stroke-width="3.072" d=" M1.5360000133514404,1.5360000133514404 C1.5360000133514404,1.5360000133514404 380.83599853515625,1.5360000133514404 380.83599853515625,1.5360000133514404"/></g></g><g transform="matrix(1,0,0,1,129,72.49998474121094)" opacity="1" style="display: block;"><g opacity="1" transform="matrix(1,0,0,1,0,0)"><g opacity="1" transform="matrix(1,0,0,1,115.19100189208984,238.9199981689453)"><path fill="rgb(230,111,93)" fill-opacity="1" d=" M-4.116000175476074,-27.215999603271484 C-4.116000175476074,-27.215999603271484 -24.63599967956543,-25.739999771118164 -24.63599967956543,-25.739999771118164 C-24.63599967956543,-25.739999771118164 -23.774999618530273,12.347999572753906 -23.774999618530273,12.347999572753906 C-23.774999618530273,12.347999572753906 -21.80900001525879,22.179000854492188 -21.80900001525879,22.179000854492188 C-21.80900001525879,22.179000854492188 -13.944999694824219,27.215999603271484 -13.944999694824219,27.215999603271484 C-13.944999694824219,27.215999603271484 18.983999252319336,25.12700080871582 18.983999252319336,25.12700080871582 C18.983999252319336,25.12700080871582 22.670000076293945,22.179000854492188 22.670000076293945,22.179000854492188 C22.670000076293945,22.179000854492188 24.63599967956543,15.29699993133545 24.63599967956543,15.29699993133545 C23.775999069213867,12.84000015258789 20.948999404907227,7.679999828338623 19.229999542236328,6.451000213623047 C17.509000778198242,5.2220001220703125 5.4679999351501465,5.591000080108643 -1.534999966621399,5.959000110626221 C-1.534999966621399,5.959000110626221 -4.116000175476074,-27.215999603271484 -4.116000175476074,-27.215999603271484z"/></g><g opacity="1" transform="matrix(1,0,0,1,43.558998107910156,238.9199981689453)"><path fill="rgb(230,111,93)" fill-opacity="1" d=" M4.117000102996826,-27.215999603271484 C4.117000102996826,-27.215999603271484 24.63599967956543,-25.739999771118164 24.63599967956543,-25.739999771118164 C24.63599967956543,-25.739999771118164 23.775999069213867,12.347999572753906 23.775999069213867,12.347999572753906 C23.775999069213867,12.347999572753906 21.809999465942383,22.179000854492188 21.809999465942383,22.179000854492188 C21.809999465942383,22.179000854492188 13.946000099182129,27.215999603271484 13.946000099182129,27.215999603271484 C13.946000099182129,27.215999603271484 -18.983999252319336,25.12700080871582 -18.983999252319336,25.12700080871582 C-18.983999252319336,25.12700080871582 -22.670000076293945,22.179000854492188 -22.670000076293945,22.179000854492188 C-22.670000076293945,22.179000854492188 -24.63599967956543,15.29699993133545 -24.63599967956543,15.29699993133545 C-23.775999069213867,12.84000015258789 -20.950000762939453,7.679999828338623 -19.229000091552734,6.451000213623047 C-17.509000778198242,5.2220001220703125 -5.4670000076293945,5.591000080108643 1.5369999408721924,5.959000110626221 C1.5369999408721924,5.959000110626221 4.117000102996826,-27.215999603271484 4.117000102996826,-27.215999603271484z"/></g><g opacity="1" transform="matrix(1,0,0,1,111.13700103759766,191.7989959716797)"><path stroke-linecap="round" stroke-linejoin="round" fill-opacity="0" stroke="rgb(41,24,61)" stroke-opacity="1" stroke-width="3.125" d=" M-1.781000018119812,-51.9739990234375 C-1.781000018119812,-51.9739990234375 1.781000018119812,51.9739990234375 1.781000018119812,51.9739990234375"/></g><g opacity="1" transform="matrix(1,0,0,1,114.8239974975586,203.71800231933594)"><path stroke-linecap="round" stroke-linejoin="round" fill-opacity="0" stroke="rgb(41,24,61)" stroke-opacity="1" stroke-width="3.125" d=" M-28.32200050354004,-61.926998138427734 C-28.32200050354004,-61.926998138427734 -23.652999877929688,42.51300048828125 -23.652999877929688,42.51300048828125 C-23.038999557495117,48.4109992980957 -25.0049991607666,59.959999084472656 -12.348999977111816,61.926998138427734 C0.18400000035762787,61.680999755859375 4.116000175476074,61.926998138427734 16.156999588012695,60.94300079345703 C28.32200050354004,59.959999084472656 27.091999053955078,41.7760009765625 16.2810001373291,41.40700149536133 C5.4670000076293945,41.03799819946289 4.60699987411499,41.284000396728516 -4.361999988555908,41.03799819946289"/></g><g opacity="1" transform="matrix(1,0,0,1,47.4900016784668,191.7989959716797)"><path stroke-linecap="round" stroke-linejoin="round" fill-opacity="0" stroke="rgb(41,24,61)" stroke-opacity="1" stroke-width="3.125" d=" M1.781999945640564,-51.9739990234375 C1.781999945640564,-51.9739990234375 -1.781999945640564,51.9739990234375 -1.781999945640564,51.9739990234375"/></g><g opacity="1" transform="matrix(1,0,0,1,43.926998138427734,203.71800231933594)"><path stroke-linecap="round" stroke-linejoin="round" fill-opacity="0" stroke="rgb(41,24,61)" stroke-opacity="1" stroke-width="3.125" d=" M28.32200050354004,-61.926998138427734 C28.32200050354004,-61.926998138427734 23.652000427246094,42.51300048828125 23.652000427246094,42.51300048828125 C23.038000106811523,48.4109992980957 25.003000259399414,59.959999084472656 12.347999572753906,61.926998138427734 C-0.1850000023841858,61.680999755859375 -4.117000102996826,61.926998138427734 -16.158000946044922,60.94300079345703 C-28.32200050354004,59.959999084472656 -27.093000411987305,41.7760009765625 -16.2810001373291,41.40700149536133 C-5.4679999351501465,41.03799819946289 -4.607999801635742,41.284000396728516 4.361000061035156,41.03799819946289"/></g></g></g><g transform="matrix(1,0,0,1,131.37899780273438,72.84100341796875)" opacity="1" style="display: block;"><g opacity="1" transform="matrix(1,0,0,1,78.26799774169922,166.48899841308594)"><path fill="rgb(137,208,255)" fill-opacity="1" d=" M0.0010000000474974513,75.1969985961914 C41.53099822998047,75.1969985961914 75.1969985961914,41.529998779296875 75.1969985961914,0 C75.1969985961914,-41.53099822998047 41.53099822998047,-75.1969985961914 0.0010000000474974513,-75.1969985961914 C-41.52899932861328,-75.1969985961914 -75.1969985961914,-41.53099822998047 -75.1969985961914,0 C-75.1969985961914,41.529998779296875 -41.52899932861328,75.1969985961914 0.0010000000474974513,75.1969985961914z"/></g><g opacity="1" transform="matrix(1,0,0,1,78.88300323486328,161.8209991455078)"><path fill="rgb(255,255,255)" fill-opacity="1" d=" M57.257999420166016,3.440000057220459 C57.257999420166016,40.792999267578125 39.6870002746582,64.75299835205078 0.12200000137090683,64.75299835205078 C-39.44200134277344,64.75299835205078 -57.012001037597656,40.91600036621094 -57.012001037597656,3.440000057220459 C-57.012001037597656,-3.318000078201294 -57.257999420166016,-21.9950008392334 -41.1609992980957,-42.63600158691406 C-37.35200119018555,-47.55099868774414 -19.9060001373291,-64.75199890136719 0.12200000137090683,-64.26200103759766 C18.798999786376953,-63.76900100708008 34.40299987792969,-53.32600021362305 39.071998596191406,-46.691001892089844 C54.43199920654297,-24.94300079345703 57.257999420166016,-1.965999960899353 57.257999420166016,3.440000057220459z"/></g><g opacity="1" transform="matrix(1,0,0,1,78.26899719238281,141.66900634765625)"><path fill="rgb(255,99,119)" fill-opacity="1" d=" M4.300000190734863,29.979999542236328 C4.300000190734863,29.979999542236328 3.071000099182129,-15.972999572753906 3.071000099182129,-15.972999572753906 C3.071000099182129,-15.972999572753906 -0.36899998784065247,-17.93899917602539 -0.36899998784065247,-17.93899917602539 C-0.36899998784065247,-17.93899917602539 0,-22.607999801635742 0,-22.607999801635742 C0,-22.607999801635742 -3.194999933242798,-21.74799919128418 -3.194999933242798,-21.74799919128418 C-5.775000095367432,-21.625 -13.392999649047852,-22.23900032043457 -23.468000411987305,-26.41699981689453 C-33.54399871826172,-30.5939998626709 -38.95000076293945,-36.000999450683594 -40.42399978637695,-38.0890007019043 C-39.6870002746582,-39.071998596191406 -37.474998474121094,-41.1609992980957 -34.89500045776367,-40.915000915527344 C-31.822999954223633,-35.755001068115234 -17.93899917602539,-27.277000427246094 2.7019999027252197,-26.663000106811523 C19.290000915527344,-26.17099952697754 30.10300064086914,-37.72100067138672 33.42100143432617,-43.61800003051758 C33.42100143432617,-43.61800003051758 40.42399978637695,-38.94900131225586 40.42399978637695,-38.94900131225586 C37.84400177001953,-36.492000579833984 31.086000442504883,-31.086000442504883 25.55699920654297,-28.5049991607666 C19.90399932861328,-25.924999237060547 12.409000396728516,-24.20599937438965 9.338000297546387,-23.590999603271484 C9.338000297546387,-23.590999603271484 10.9350004196167,-18.55299949645996 10.9350004196167,-18.55299949645996 C10.9350004196167,-18.55299949645996 8.60099983215332,-16.586999893188477 8.60099983215332,-16.586999893188477 C8.60099983215332,-16.586999893188477 23.099000930786133,24.08300018310547 23.099000930786133,24.08300018310547 C23.099000930786133,24.08300018310547 19.290000915527344,43.61800003051758 19.290000915527344,43.61800003051758 C19.290000915527344,43.61800003051758 4.300000190734863,29.979999542236328 4.300000190734863,29.979999542236328z"/></g><g opacity="1" transform="matrix(1,0,0,1,78.26799774169922,166.48899841308594)"><path stroke-linecap="round" stroke-linejoin="round" fill-opacity="0" stroke="rgb(41,24,61)" stroke-opacity="1" stroke-width="3.072" d=" M0.0010000000474974513,75.1969985961914 C41.53099822998047,75.1969985961914 75.1969985961914,41.529998779296875 75.1969985961914,0 C75.1969985961914,-41.53099822998047 41.53099822998047,-75.1969985961914 0.0010000000474974513,-75.1969985961914 C-41.52899932861328,-75.1969985961914 -75.1969985961914,-41.53099822998047 -75.1969985961914,0 C-75.1969985961914,41.529998779296875 -41.52899932861328,75.1969985961914 0.0010000000474974513,75.1969985961914z"/></g><g opacity="1" transform="matrix(1,0,0,1,76.6709976196289,61.680999755859375)"><path fill="rgb(137,208,255)" fill-opacity="1" d=" M0,50.13100051879883 C27.687000274658203,50.13100051879883 50.13100051879883,27.687000274658203 50.13100051879883,0 C50.13100051879883,-27.68600082397461 27.687000274658203,-50.13100051879883 0,-50.13100051879883 C-27.687000274658203,-50.13100051879883 -50.13100051879883,-27.68600082397461 -50.13100051879883,0 C-50.13100051879883,27.687000274658203 -27.687000274658203,50.13100051879883 0,50.13100051879883z"/></g><g opacity="1" transform="matrix(1,0,0,1,51.54399871826172,72.677001953125)"><path fill="rgb(255,255,255)" fill-opacity="1" d=" M-0.4300000071525574,-37.41400146484375 C16.77199935913086,-42.45199966430664 26.601999282836914,-32.62200164794922 29.427000045776367,-27.093000411987305 C28.93600082397461,-8.416999816894531 27.829999923706055,31.516000747680664 27.70800018310547,42.45199966430664 C18.738000869750977,42.08300018310547 22.301000595092773,41.099998474121094 3.502000093460083,35.81700134277344 C-29.427000045776367,17.87700080871582 -22.17799949645996,-29.427000045776367 -0.4300000071525574,-37.41400146484375z"/></g><g opacity="1" transform="matrix(1,0,0,1,103.76499938964844,72.677001953125)"><path fill="rgb(255,255,255)" fill-opacity="1" d=" M0.4300000071525574,-37.41400146484375 C-16.77199935913086,-42.45199966430664 -26.601999282836914,-32.62200164794922 -29.42799949645996,-27.093000411987305 C-28.937000274658203,-8.416999816894531 -27.83099937438965,31.516000747680664 -27.70800018310547,42.45199966430664 C-18.738000869750977,42.08300018310547 -22.302000045776367,41.099998474121094 -3.503999948501587,35.81700134277344 C29.427000045776367,17.87700080871582 22.17799949645996,-29.427000045776367 0.4300000071525574,-37.41400146484375z"/></g><g opacity="1" transform="matrix(1,0,0,1,76.4260025024414,57.749000549316406)"><path stroke-linecap="round" stroke-linejoin="round" fill-opacity="0" stroke="rgb(41,24,61)" stroke-opacity="1" stroke-width="3.072" d=" M29.611000061035156,44.479000091552734 C38.334999084472656,38.2130012512207 44.7239990234375,29.243000030517578 47.91899871826172,19.045000076293945 C51.11399841308594,8.847000122070312 50.99100112915039,-2.2119998931884766 47.54999923706055,-12.288000106811523 C44.11000061035156,-22.486000061035156 37.474998474121094,-31.209999084472656 28.628000259399414,-37.22999954223633 C19.781999588012695,-43.374000549316406 9.21500015258789,-46.444000244140625 -1.475000023841858,-46.07600021362305 C-12.163999557495117,-45.707000732421875 -22.486000061035156,-41.89899826049805 -30.964000701904297,-35.263999938964844 C-39.319000244140625,-28.628999710083008 -45.46200180053711,-19.413999557495117 -48.28799819946289,-9.093000411987305 C-51.11399841308594,1.2280000448226929 -50.5,12.163999557495117 -46.691001892089844,22.239999771118164 C-42.75899887084961,32.19200134277344 -35.75600051879883,40.66999816894531 -26.785999298095703,46.44499969482422"/></g><g opacity="1" transform="matrix(1,0,0,1,70.58999633789062,12.225000381469727)"><path fill="rgb(137,208,255)" fill-opacity="1" d=" M-3.993000030517578,-5.4679999351501465 C-3.993000030517578,-5.4679999351501465 8.539999961853027,2.765000104904175 8.539999961853027,2.765000104904175 C8.539999961853027,2.765000104904175 1.781999945640564,6.204999923706055 1.781999945640564,6.204999923706055 C1.781999945640564,6.204999923706055 -7.189000129699707,-1.0449999570846558 -7.189000129699707,-1.0449999570846558 C-8.418000221252441,-2.0280001163482666 -8.539999961853027,-3.993000030517578 -7.311999797821045,-5.2220001220703125 C-6.573999881744385,-6.081999778747559 -5.098999977111816,-6.204999923706055 -3.993000030517578,-5.4679999351501465z"/></g><g opacity="1" transform="matrix(1,0,0,1,80.35700225830078,9.95199966430664)"><path fill="rgb(137,208,255)" fill-opacity="1" d=" M-2.7019999027252197,-5.775000095367432 C-2.7019999027252197,-5.775000095367432 7.86299991607666,4.914999961853027 7.86299991607666,4.914999961853027 C7.86299991607666,4.914999961853027 0.4909999966621399,6.88100004196167 0.4909999966621399,6.88100004196167 C0.4909999966621399,6.88100004196167 -6.756999969482422,-2.0889999866485596 -6.756999969482422,-2.0889999866485596 C-7.86299991607666,-3.318000078201294 -7.49399995803833,-5.283999919891357 -6.019999980926514,-6.144000053405762 C-5.0370001792907715,-6.88100004196167 -3.562000036239624,-6.635000228881836 -2.7019999027252197,-5.775000095367432z"/></g><g opacity="1" transform="matrix(1,0,0,1,70.40399932861328,12.286999702453613)"><path stroke-linecap="round" stroke-linejoin="round" fill-opacity="0" stroke="rgb(41,24,61)" stroke-opacity="1" stroke-width="3.072" d=" M8.60099983215332,2.703000068664551 C8.60099983215332,2.703000068664551 -3.931999921798706,-5.5289998054504395 -3.931999921798706,-5.5289998054504395 C-5.038000106811523,-6.267000198364258 -6.389999866485596,-6.144000053405762 -7.373000144958496,-5.160999774932861 C-8.60099983215332,-4.054999828338623 -8.479000091552734,-2.0880000591278076 -7.25,-0.9819999933242798 C-7.25,-0.9819999933242798 1.7209999561309814,6.265999794006348 1.7209999561309814,6.265999794006348"/></g><g opacity="1" transform="matrix(1,0,0,1,80.35700225830078,9.95199966430664)"><path stroke-linecap="round" stroke-linejoin="round" fill-opacity="0" stroke="rgb(41,24,61)" stroke-opacity="1" stroke-width="3.072" d=" M7.863999843597412,4.914000034332275 C7.863999843597412,4.914000034332275 -2.703000068664551,-5.775000095367432 -2.703000068664551,-5.775000095367432 C-3.563999891281128,-6.636000156402588 -5.0370001792907715,-6.880000114440918 -6.144000053405762,-6.14300012588501 C-7.494999885559082,-5.2829999923706055 -7.863999843597412,-3.318000078201294 -6.88100004196167,-2.0889999866485596 C-6.88100004196167,-2.0889999866485596 0.3700000047683716,6.880000114440918 0.3700000047683716,6.880000114440918"/></g><g opacity="1" transform="matrix(1,0,0,1,76.85600280761719,71.51000213623047)"><path fill="rgb(246,197,85)" fill-opacity="1" d=" M-20.826000213623047,-0.9829999804496765 C-20.826000213623047,-0.9829999804496765 -23.160999298095703,2.3340001106262207 -23.160999298095703,2.3340001106262207 C-23.160999298095703,2.3340001106262207 -22.66900062561035,4.669000148773193 -22.66900062561035,4.669000148773193 C-22.66900062561035,4.669000148773193 -17.139999389648438,7.002999782562256 -17.139999389648438,7.002999782562256 C-17.139999389648438,7.002999782562256 -1.4129999876022339,9.092000007629395 -1.4129999876022339,9.092000007629395 C-1.4129999876022339,9.092000007629395 19.475000381469727,7.002999782562256 19.475000381469727,7.002999782562256 C19.475000381469727,7.002999782562256 23.160999298095703,3.809000015258789 23.160999298095703,3.809000015258789 C23.160999298095703,3.809000015258789 19.8439998626709,-0.7379999756813049 19.8439998626709,-0.7379999756813049 C19.8439998626709,-0.7379999756813049 8.663000106811523,-3.931999921798706 8.663000106811523,-3.931999921798706 C8.663000106811523,-3.931999921798706 -1.4129999876022339,-9.092000007629395 -1.4129999876022339,-9.092000007629395 C-1.4129999876022339,-9.092000007629395 -5.4670000076293945,-5.8979997634887695 -5.4670000076293945,-5.8979997634887695 C-5.4670000076293945,-5.8979997634887695 -15.29699993133545,-1.475000023841858 -15.29699993133545,-1.475000023841858 C-15.29699993133545,-1.475000023841858 -20.826000213623047,-0.9829999804496765 -20.826000213623047,-0.9829999804496765z"/></g><g opacity="1" transform="matrix(1,0,0,1,76.73300170898438,82.19999694824219)"><path fill="rgb(246,197,85)" fill-opacity="1" d=" M-13.454000473022461,0.9819999933242798 C-13.454000473022461,0.9819999933242798 -18.73699951171875,-4.177999973297119 -18.73699951171875,-4.177999973297119 C-18.73699951171875,-4.177999973297119 18.73699951171875,-2.5810000896453857 18.73699951171875,-2.5810000896453857 C16.03499984741211,-1.1059999465942383 10.505999565124512,1.965000033378601 10.013999938964844,1.965000033378601 C9.399999618530273,1.965000033378601 3.502000093460083,3.440999984741211 0.5529999732971191,4.177999973297119 C0.5529999732971191,4.177999973297119 -13.454000473022461,0.9819999933242798 -13.454000473022461,0.9819999933242798z"/></g><g opacity="1" transform="matrix(1,0,0,1,64.44499969482422,71.4489974975586)"><path stroke-linecap="round" stroke-linejoin="round" fill-opacity="0" stroke="rgb(41,24,61)" stroke-opacity="1" stroke-width="3.072" d=" M12.102999687194824,-8.663000106811523 C6.573999881744385,-8.539999961853027 4.853000164031982,-1.9040000438690186 -3.625,-1.2899999618530273 C-12.102999687194824,-0.6759999990463257 -11.979999542236328,4.607999801635742 -9.277000427246094,5.836999893188477 C-6.573999881744385,7.188000202178955 3.871000051498413,8.663000106811523 12.102999687194824,8.663000106811523"/></g><g opacity="1" transform="matrix(1,0,0,1,88.6510009765625,71.4489974975586)"><path stroke-linecap="round" stroke-linejoin="round" fill-opacity="0" stroke="rgb(41,24,61)" stroke-opacity="1" stroke-width="3.072" d=" M-12.102999687194824,-8.663000106811523 C-5.2220001220703125,-7.311999797821045 -4.853000164031982,-1.9040000438690186 3.625999927520752,-1.2899999618530273 C12.102999687194824,-0.6759999990463257 11.979999542236328,4.607999801635742 9.277000427246094,5.836999893188477 C6.572999954223633,7.065000057220459 -3.131999969482422,8.663000106811523 -12.102999687194824,8.663000106811523"/></g><g opacity="1" transform="matrix(1,0,0,1,76.48799896240234,81.46299743652344)"><path stroke-linecap="round" stroke-linejoin="round" fill-opacity="0" stroke="rgb(41,24,61)" stroke-opacity="1" stroke-width="3.072" d=" M-21.31800079345703,-4.177999973297119 C-18.000999450683594,-1.7209999561309814 -9.154000282287598,4.177999973297119 1.5360000133514404,4.054999828338623 C12.225000381469727,3.809000015258789 19.106000900268555,-1.5980000495910645 21.31800079345703,-4.177999973297119"/></g><g opacity="1" transform="matrix(1,0,0,1,78.14600372314453,112.36399841308594)"><path stroke-linecap="round" stroke-linejoin="round" fill-opacity="0" stroke="rgb(41,24,61)" stroke-opacity="1" stroke-width="3.626" d=" M-33.9119987487793,-12.102999687194824 C-25.68000030517578,1.9040000438690186 12.777999877929688,13.454000473022461 33.9119987487793,-13.454000473022461"/></g><g opacity="1" transform="matrix(1,0,0,1,103.51899719238281,110.88999938964844)"><path stroke-linecap="round" stroke-linejoin="round" fill-opacity="0" stroke="rgb(41,24,61)" stroke-opacity="1" stroke-width="3.626" d=" M-14.5600004196167,7.434000015258789 C-8.170999526977539,6.451000213623047 6.696000099182129,2.0269999504089355 14.5600004196167,-7.434000015258789"/></g><g opacity="1" transform="matrix(1,0,0,1,57.749000549316406,112.6709976196289)"><path stroke-linecap="round" stroke-linejoin="round" fill-opacity="0" stroke="rgb(41,24,61)" stroke-opacity="1" stroke-width="3.626" d=" M19.535999298095703,6.88100004196167 C12.163999557495117,9.21500015258789 -10.812000274658203,3.687000036239624 -19.535999298095703,-9.21500015258789"/></g><g opacity="1" transform="matrix(1,0,0,1,83.12200164794922,121.27300262451172)"><path stroke-linecap="round" stroke-linejoin="round" fill-opacity="0" stroke="rgb(41,24,61)" stroke-opacity="1" stroke-width="3.626" d=" M-4.854000091552734,3.562999963760376 C-5.714000225067139,1.597000002861023 -4.730999946594238,-2.9489998817443848 -4.117000102996826,-4.914999961853027 C-4.117000102996826,-4.914999961853027 3.009999990463257,-5.8979997634887695 3.009999990463257,-5.8979997634887695 C4.116000175476074,-3.562999963760376 5.714000225067139,1.3509999513626099 5.714000225067139,2.7039999961853027 C5.591000080108643,4.300000190734863 -3.871000051498413,5.8979997634887695 -4.854000091552734,3.562999963760376z"/></g><g opacity="1" transform="matrix(1,0,0,1,91.5999984741211,155.1840057373047)"><path stroke-linecap="round" stroke-linejoin="round" fill-opacity="0" stroke="rgb(41,24,61)" stroke-opacity="1" stroke-width="3.626" d=" M-9.767999649047852,-28.260000228881836 C-9.767999649047852,-15.236000061035156 -9.399999618530273,11.79699993133545 -8.907999992370605,15.236000061035156 C-8.293999671936035,18.677000045776367 1.534999966621399,26.295000076293945 6.327000141143799,29.61199951171875 C7.433000087738037,24.327999114990234 9.767999649047852,13.02400016784668 9.645000457763672,10.321000099182129 C9.522000312805176,7.495999813079834 0.06199999898672104,-17.44700050354004 -4.60699987411499,-29.61199951171875"/></g></g><g transform="matrix(1,0,0,1,175.97698974609375,132.3050079345703)" opacity="1" style="display: block;"><g opacity="1" transform="matrix(1,0,0,1,4.182000160217285,4.182000160217285)"><path fill="rgb(41,24,61)" fill-opacity="1" d=" M0,3.931999921798706 C2.171999931335449,3.931999921798706 3.931999921798706,2.171999931335449 3.931999921798706,0 C3.931999921798706,-2.1710000038146973 2.171999931335449,-3.931999921798706 0,-3.931999921798706 C-2.1710000038146973,-3.931999921798706 -3.931999921798706,-2.1710000038146973 -3.931999921798706,0 C-3.931999921798706,2.171999931335449 -2.1710000038146973,3.931999921798706 0,3.931999921798706z"/></g><g opacity="1" transform="matrix(1,0,0,1,62.79100036621094,4.182000160217285)"><path fill="rgb(41,24,61)" fill-opacity="1" d=" M0,3.931999921798706 C2.171999931335449,3.931999921798706 3.933000087738037,2.171999931335449 3.933000087738037,0 C3.933000087738037,-2.1710000038146973 2.171999931335449,-3.931999921798706 0,-3.931999921798706 C-2.171999931335449,-3.931999921798706 -3.933000087738037,-2.1710000038146973 -3.933000087738037,0 C-3.933000087738037,2.171999931335449 -2.171999931335449,3.931999921798706 0,3.931999921798706z"/></g></g><g transform="matrix(1,0,0,1,20.428001403808594,182.2130126953125)" opacity="1" style="display: block;"><g opacity="1" transform="matrix(1,0,0,1,90.61599731445312,23.451000213623047)"><path fill="rgb(137,208,255)" fill-opacity="1" d=" M-56.85900115966797,19.76099967956543 C-56.85900115966797,19.76099967956543 -58.5359992980957,9.406000137329102 -58.5359992980957,9.406000137329102 C-56.077999114990234,6.210000038146973 -52.16999816894531,0.335999995470047 -43.01599884033203,1.2510000467300415 C-34.79499816894531,-3.2890000343322754 -27.21500015258789,3.440000057220459 -27.829999923706055,6.757999897003174 C-10.75100040435791,-0.12300000339746475 30.99799919128418,-15.812000274658203 48.9370002746582,-21.83300018310547 C56.92300033569336,-13.47700023651123 46.82899856567383,-0.12800000607967377 40.930999755859375,5.769000053405762 C40.930999755859375,5.769000053405762 -35.882999420166016,25.37299919128418 -35.882999420166016,25.37299919128418 C-35.882999420166016,25.37299919128418 -37.65299987792969,24.847999572753906 -37.65299987792969,24.847999572753906 C-37.65299987792969,24.847999572753906 -49.393001556396484,29.51099967956543 -49.393001556396484,29.51099967956543 C-49.393001556396484,29.51099967956543 -56.85900115966797,19.76099967956543 -56.85900115966797,19.76099967956543z"/></g><g opacity="1" transform="matrix(1,0,0,1,39.31800079345703,39.685001373291016)"><path stroke-linecap="round" stroke-linejoin="round" fill-opacity="0" stroke="rgb(41,24,61)" stroke-opacity="1" stroke-width="2.913" d=" M6.757999897003174,-8.479000091552734 C5.160999774932861,-8.847000122070312 0.2460000067949295,-7.863999843597412 -2.8259999752044678,-4.301000118255615 C-6.757999897003174,0.12300000339746475 -6.265999794006348,5.4070000648498535 -1.965999960899353,8.847000122070312"/></g><g opacity="1" transform="matrix(1,0,0,1,41.099998474121094,46.505001068115234)"><path stroke-linecap="round" stroke-linejoin="round" fill-opacity="0" stroke="rgb(41,24,61)" stroke-opacity="1" stroke-width="2.913" d=" M4.239999771118164,-5.960000038146973 C2.3970000743865967,-5.2220001220703125 -3.009999990463257,-3.010999917984009 -3.624000072479248,1.2899999618530273 C-4.238999843597412,5.591000080108643 0.1850000023841858,5.960000038146973 0.1850000023841858,5.960000038146973"/></g><g opacity="1" transform="matrix(1,0,0,1,56.02899932861328,36.597999572753906)"><path stroke-linecap="round" stroke-linejoin="round" fill-opacity="0" stroke="rgb(41,24,61)" stroke-opacity="1" stroke-width="2.913" d=" M-2.5810000896453857,-4.177999973297119 C-0.36899998784065247,-2.7019999027252197 2.5799999237060547,0.6150000095367432 1.1059999465942383,4.177999973297119"/></g><g opacity="1" transform="matrix(1,0,0,1,54.430999755859375,31.452999114990234)"><path stroke-linecap="round" stroke-linejoin="round" fill-opacity="0" stroke="rgb(41,24,61)" stroke-opacity="1" stroke-width="2.913" d=" M2.0889999866485596,1.2289999723434448 C0.8600000143051147,4.300000190734863 -1.2280000448226929,12.534000396728516 -6.019999980926514,12.041999816894531 C-10.812000274658203,11.550000190734863 -11.057999610900879,-0.24699999392032623 -3.562999963760376,-6.388999938964844 C3.931999921798706,-12.534000396728516 11.059000015258789,-3.318000078201294 8.477999687194824,5.776000022888184"/></g><g opacity="1" transform="matrix(1,0,0,1,101.61299896240234,15.402000427246094)"><path stroke-linecap="round" stroke-linejoin="round" fill-opacity="0" stroke="rgb(41,24,61)" stroke-opacity="1" stroke-width="2.913" d=" M-37.96699905395508,13.946000099182129 C-37.96699905395508,13.946000099182129 37.965999603271484,-13.946000099182129 37.965999603271484,-13.946000099182129"/></g><g opacity="1" transform="matrix(1,0,0,1,97.00599670410156,37.0890007019043)"><path stroke-linecap="round" stroke-linejoin="round" fill-opacity="0" stroke="rgb(41,24,61)" stroke-opacity="1" stroke-width="2.913" d=" M-43.624000549316406,11.119999885559082 C-43.624000549316406,11.119999885559082 32.499000549316406,-7.494999885559082 32.499000549316406,-7.494999885559082"/></g><g opacity="1" transform="matrix(1,0,0,1,39.93199920654297,32.005001068115234)"><path stroke-linecap="round" stroke-linejoin="round" fill-opacity="0" stroke="rgb(41,24,61)" stroke-opacity="1" stroke-width="2.913" d=" M9.21500015258789,-6.451000213623047 C7.004000186920166,-7.556000232696533 0.6140000224113464,-8.416999816894531 -3.686000108718872,-4.361000061035156 C-9.21500015258789,0.7990000247955322 -7.494999885559082,6.328999996185303 -5.8979997634887695,8.416999816894531"/></g><g opacity="1" transform="matrix(1,0,0,1,48.84000015258789,49.69900131225586)"><path stroke-linecap="round" stroke-linejoin="round" fill-opacity="0" stroke="rgb(41,24,61)" stroke-opacity="1" stroke-width="2.913" d=" M4.239999771118164,-1.659999966621399 C2.6429998874664307,-1.9049999713897705 -1.2899999618530273,-1.4129999876022339 -4.239999771118164,1.9049999713897705"/></g><g opacity="1" transform="matrix(1,0,0,1,0.75,8.000001907348633)"><g opacity="1" transform="matrix(1,0,0,1,25.80299949645996,28.979999542236328)"><path fill="rgb(246,197,85)" fill-opacity="1" d=" M4.054999828338623,15.482000350952148 C4.054999828338623,15.482000350952148 22.485000610351562,-12.039999961853027 22.485000610351562,-12.039999961853027 C18.922000885009766,-13.638999938964844 8.847000122070312,-15.482000350952148 -2.3340001106262207,-10.444000244140625 C-13.515000343322754,-5.406000137329102 -20.395999908447266,5.6519999504089355 -22.485000610351562,10.567000389099121 C-22.485000610351562,10.567000389099121 4.054999828338623,15.482000350952148 4.054999828338623,15.482000350952148z"/></g><g opacity="1" transform="matrix(1,0,0,1,26.29400062561035,30.45400047302246)"><path stroke-linecap="round" stroke-linejoin="round" fill-opacity="0" stroke="rgb(41,24,61)" stroke-opacity="1" stroke-width="3.072" d=" M23.222999572753906,-14.008000373840332 C23.222999572753906,-14.008000373840332 3.809000015258789,14.008000373840332 3.809000015258789,14.008000373840332 C3.809000015258789,14.008000373840332 23.222999572753906,-14.008000373840332 23.222999572753906,-14.008000373840332z M3.809000015258789,14.008000373840332 C3.562999963760376,12.40999984741211 2.4560000896453857,8.970000267028809 -0.6150000095367432,7.863999843597412 C-4.423999786376953,6.389999866485596 -5.6519999504089355,9.093000411987305 -9.092000007629395,7.25 C-12.654999732971191,5.53000020980835 -13.270000457763672,2.2119998931884766 -17.56999969482422,3.687000036239624 C-21.132999420166016,4.914999961853027 -22.73200035095215,7.741000175476074 -23.222999572753906,8.970000267028809 C-23.222999572753906,8.970000267028809 3.809000015258789,14.008000373840332 3.809000015258789,14.008000373840332z"/></g><g opacity="1" transform="matrix(1,0,0,1,27.15399932861328,23.819000244140625)"><path stroke-linecap="round" stroke-linejoin="round" fill-opacity="0" stroke="rgb(41,24,61)" stroke-opacity="1" stroke-width="3.072" d=" M23.344999313354492,-8.232999801635742 C12.041000366210938,-13.14799976348877 -10.321000099182129,-6.75600004196167 -23.344999313354492,13.14799976348877"/></g><g opacity="1" transform="matrix(1,0,0,1,33.112998962402344,27.506000518798828)"><path stroke-linecap="round" stroke-linejoin="round" fill-opacity="0" stroke="rgb(41,24,61)" stroke-opacity="1" stroke-width="3.072" d=" M13.331000328063965,-10.567000389099121 C7.434000015258789,-9.093000411987305 -6.080999851226807,-2.9489998817443848 -13.331000328063965,10.567000389099121"/></g></g></g><g transform="matrix(0.9975640773773193,-0.06975647062063217,0.06975647062063217,0.9975640773773193,26.623580932617188,228.9200439453125)" opacity="1" style="display: block;"><g opacity="1" transform="matrix(1,0,0,1,52.03499984741211,49.39400100708008)"><path fill="rgb(246,197,85)" fill-opacity="1" d=" M-4.97599983215332,-46.321998596191406 C-4.97599983215332,-46.321998596191406 -54.26599884033203,-28.89900016784668 -38.3380012512207,31.2189998626709 C-30.143999099731445,44.125 -10.420000076293945,45.63399887084961 -2.924999952316284,46.7400016784668 C-2.924999952316284,46.7400016784668 44.27299880981445,46.39500045776367 40.92900085449219,20.22800064086914 C34.76100158691406,-30.67799949645996 8.730999946594238,-42.888999938964844 -1.2910000085830688,-45.60499954223633 C-3.13700008392334,-46.10499954223633 -4.440999984741211,-46.284000396728516 -4.97599983215332,-46.321998596191406z"/></g><g opacity="1" transform="matrix(1,0,0,1,50.19300079345703,53.08000183105469)"><path stroke-linecap="round" stroke-linejoin="round" fill-opacity="0" stroke="rgb(41,24,61)" stroke-opacity="1" stroke-width="3.072" d=" M-1.2899999618530273,-50.007999420166016 C30.902000427246094,-40.547000885009766 40.388999938964844,-5.801000118255615 43.09199905395508,16.68400001525879 C46.409000396728516,44.82099914550781 -15.29699993133545,50.00899887084961 -32.9900016784668,32.56100082397461 C-47.12099838256836,18.677000045776367 -42.45100021362305,-30.10300064086914 -9.031000137329102,-47.67300033569336"/></g><g opacity="1" transform="matrix(1,0,0,1,38.51900100708008,15.604999542236328)"><path stroke-linecap="round" stroke-linejoin="round" fill-opacity="0" stroke="rgb(41,24,61)" stroke-opacity="1" stroke-width="3.072" d=" M5.2220001220703125,-11.303000450134277 C5.2220001220703125,-11.303000450134277 -5.2220001220703125,11.303000450134277 -5.2220001220703125,11.303000450134277"/></g><g opacity="1" transform="matrix(1,0,0,1,52.34299850463867,14.807000160217285)"><path stroke-linecap="round" stroke-linejoin="round" fill-opacity="0" stroke="rgb(41,24,61)" stroke-opacity="1" stroke-width="3.072" d=" M-4.791999816894531,-11.48900032043457 C-4.791999816894531,-11.48900032043457 4.791999816894531,11.48900032043457 4.791999816894531,11.48900032043457"/></g><g opacity="1" transform="matrix(0.9743700623512268,0.22495105862617493,-0.22495105862617493,0.9743700623512268,48.74599838256836,50.06999969482422)"><path stroke-linecap="round" stroke-linejoin="round" fill-opacity="0" stroke="rgb(41,24,61)" stroke-opacity="1" stroke-width="3.072" d=" M3.318000078201294,-10.75100040435791 C-0.24500000476837158,-14.5600004196167 -9.829000473022461,-10.260000228881836 -7.986000061035156,-5.591000080108643 C-6.388999938964844,1.2899999618530273 9.829000473022461,-1.9049999713897705 8.968999862670898,6.328000068664551 C8.109000205993652,14.5600004196167 -5.53000020980835,14.069000244140625 -7.741000175476074,6.204999923706055"/></g><g opacity="1" transform="matrix(1,0,0,1,49.946998596191406,50.80699920654297)"><path stroke-linecap="round" stroke-linejoin="round" fill-opacity="0" stroke="rgb(41,24,61)" stroke-opacity="1" stroke-width="3.072" d=" M-2.2699999809265137,-18.966999053955078 C-2.2699999809265137,-18.966999053955078 -4.965000152587891,18.493000030517578 -4.965000152587891,18.493000030517578"/></g></g><g transform="matrix(-1,0,0,1,400,182.2130126953125)" opacity="1" style="display: block;"><g opacity="1" transform="matrix(1,0,0,1,90.61599731445312,23.451000213623047)"><path fill="rgb(137,208,255)" fill-opacity="1" d=" M-56.85900115966797,19.76099967956543 C-56.85900115966797,19.76099967956543 -58.5359992980957,9.406000137329102 -58.5359992980957,9.406000137329102 C-56.077999114990234,6.210000038146973 -52.16999816894531,0.335999995470047 -43.01599884033203,1.2510000467300415 C-34.79499816894531,-3.2890000343322754 -27.21500015258789,3.440000057220459 -27.829999923706055,6.757999897003174 C-10.75100040435791,-0.12300000339746475 30.996000289916992,-15.836999893188477 48.935001373291016,-21.857999801635742 C58.59199905395508,-23.052000045776367 47.29399871826172,-0.3199999928474426 41.395999908447266,5.577000141143799 C41.395999908447266,5.577000141143799 -35.882999420166016,25.37299919128418 -35.882999420166016,25.37299919128418 C-35.882999420166016,25.37299919128418 -37.65299987792969,24.847999572753906 -37.65299987792969,24.847999572753906 C-37.65299987792969,24.847999572753906 -49.393001556396484,29.51099967956543 -49.393001556396484,29.51099967956543 C-49.393001556396484,29.51099967956543 -56.85900115966797,19.76099967956543 -56.85900115966797,19.76099967956543z"/></g><g opacity="1" transform="matrix(1,0,0,1,39.31800079345703,39.685001373291016)"><path stroke-linecap="round" stroke-linejoin="round" fill-opacity="0" stroke="rgb(41,24,61)" stroke-opacity="1" stroke-width="2.913" d=" M6.757999897003174,-8.479000091552734 C5.160999774932861,-8.847000122070312 0.2460000067949295,-7.863999843597412 -2.8259999752044678,-4.301000118255615 C-6.757999897003174,0.12300000339746475 -6.265999794006348,5.4070000648498535 -1.965999960899353,8.847000122070312"/></g><g opacity="1" transform="matrix(1,0,0,1,41.099998474121094,46.505001068115234)"><path stroke-linecap="round" stroke-linejoin="round" fill-opacity="0" stroke="rgb(41,24,61)" stroke-opacity="1" stroke-width="2.913" d=" M4.239999771118164,-5.960000038146973 C2.3970000743865967,-5.2220001220703125 -3.009999990463257,-3.010999917984009 -3.624000072479248,1.2899999618530273 C-4.238999843597412,5.591000080108643 0.1850000023841858,5.960000038146973 0.1850000023841858,5.960000038146973"/></g><g opacity="1" transform="matrix(1,0,0,1,56.02899932861328,36.597999572753906)"><path stroke-linecap="round" stroke-linejoin="round" fill-opacity="0" stroke="rgb(41,24,61)" stroke-opacity="1" stroke-width="2.913" d=" M-2.5810000896453857,-4.177999973297119 C-0.36899998784065247,-2.7019999027252197 2.5799999237060547,0.6150000095367432 1.1059999465942383,4.177999973297119"/></g><g opacity="1" transform="matrix(1,0,0,1,54.430999755859375,31.452999114990234)"><path stroke-linecap="round" stroke-linejoin="round" fill-opacity="0" stroke="rgb(41,24,61)" stroke-opacity="1" stroke-width="2.913" d=" M2.0889999866485596,1.2289999723434448 C0.8600000143051147,4.300000190734863 -1.2280000448226929,12.534000396728516 -6.019999980926514,12.041999816894531 C-10.812000274658203,11.550000190734863 -11.057999610900879,-0.24699999392032623 -3.562999963760376,-6.388999938964844 C3.931999921798706,-12.534000396728516 11.059000015258789,-3.318000078201294 8.477999687194824,5.776000022888184"/></g><g opacity="1" transform="matrix(1,0,0,1,101.61299896240234,15.402000427246094)"><path stroke-linecap="round" stroke-linejoin="round" fill-opacity="0" stroke="rgb(41,24,61)" stroke-opacity="1" stroke-width="2.913" d=" M-37.96699905395508,13.946000099182129 C-37.96699905395508,13.946000099182129 37.965999603271484,-13.946000099182129 37.965999603271484,-13.946000099182129"/></g><g opacity="1" transform="matrix(1,0,0,1,97.00599670410156,37.0890007019043)"><path stroke-linecap="round" stroke-linejoin="round" fill-opacity="0" stroke="rgb(41,24,61)" stroke-opacity="1" stroke-width="2.913" d=" M-43.624000549316406,11.119999885559082 C-43.624000549316406,11.119999885559082 32.499000549316406,-7.494999885559082 32.499000549316406,-7.494999885559082"/></g><g opacity="1" transform="matrix(1,0,0,1,39.93199920654297,32.005001068115234)"><path stroke-linecap="round" stroke-linejoin="round" fill-opacity="0" stroke="rgb(41,24,61)" stroke-opacity="1" stroke-width="2.913" d=" M9.21500015258789,-6.451000213623047 C7.004000186920166,-7.556000232696533 0.6140000224113464,-8.416999816894531 -3.686000108718872,-4.361000061035156 C-9.21500015258789,0.7990000247955322 -7.494999885559082,6.328999996185303 -5.8979997634887695,8.416999816894531"/></g><g opacity="1" transform="matrix(1,0,0,1,48.84000015258789,49.69900131225586)"><path stroke-linecap="round" stroke-linejoin="round" fill-opacity="0" stroke="rgb(41,24,61)" stroke-opacity="1" stroke-width="2.913" d=" M4.239999771118164,-1.659999966621399 C2.6429998874664307,-1.9049999713897705 -1.2899999618530273,-1.4129999876022339 -4.239999771118164,1.9049999713897705"/></g><g opacity="1" transform="matrix(1,0,0,1,0.75,8.000001907348633)"><g opacity="1" transform="matrix(1,0,0,1,25.80299949645996,28.979999542236328)"><path fill="rgb(246,197,85)" fill-opacity="1" d=" M4.054999828338623,15.482000350952148 C4.054999828338623,15.482000350952148 22.485000610351562,-12.039999961853027 22.485000610351562,-12.039999961853027 C18.922000885009766,-13.638999938964844 8.847000122070312,-15.482000350952148 -2.3340001106262207,-10.444000244140625 C-13.515000343322754,-5.406000137329102 -20.395999908447266,5.6519999504089355 -22.485000610351562,10.567000389099121 C-22.485000610351562,10.567000389099121 4.054999828338623,15.482000350952148 4.054999828338623,15.482000350952148z"/></g><g opacity="1" transform="matrix(1,0,0,1,26.29400062561035,30.45400047302246)"><path stroke-linecap="round" stroke-linejoin="round" fill-opacity="0" stroke="rgb(41,24,61)" stroke-opacity="1" stroke-width="3.072" d=" M23.222999572753906,-14.008000373840332 C23.222999572753906,-14.008000373840332 3.809000015258789,14.008000373840332 3.809000015258789,14.008000373840332 C3.809000015258789,14.008000373840332 23.222999572753906,-14.008000373840332 23.222999572753906,-14.008000373840332z M3.809000015258789,14.008000373840332 C3.562999963760376,12.40999984741211 2.4560000896453857,8.970000267028809 -0.6150000095367432,7.863999843597412 C-4.423999786376953,6.389999866485596 -5.6519999504089355,9.093000411987305 -9.092000007629395,7.25 C-12.654999732971191,5.53000020980835 -13.270000457763672,2.2119998931884766 -17.56999969482422,3.687000036239624 C-21.132999420166016,4.914999961853027 -22.73200035095215,7.741000175476074 -23.222999572753906,8.970000267028809 C-23.222999572753906,8.970000267028809 3.809000015258789,14.008000373840332 3.809000015258789,14.008000373840332z"/></g><g opacity="1" transform="matrix(1,0,0,1,27.15399932861328,23.819000244140625)"><path stroke-linecap="round" stroke-linejoin="round" fill-opacity="0" stroke="rgb(41,24,61)" stroke-opacity="1" stroke-width="3.072" d=" M23.344999313354492,-8.232999801635742 C12.041000366210938,-13.14799976348877 -10.321000099182129,-6.75600004196167 -23.344999313354492,13.14799976348877"/></g><g opacity="1" transform="matrix(1,0,0,1,33.112998962402344,27.506000518798828)"><path stroke-linecap="round" stroke-linejoin="round" fill-opacity="0" stroke="rgb(41,24,61)" stroke-opacity="1" stroke-width="3.072" d=" M13.331000328063965,-10.567000389099121 C7.434000015258789,-9.093000411987305 -6.080999851226807,-2.9489998817443848 -13.331000328063965,10.567000389099121"/></g></g></g><g transform="matrix(-0.9975640773773193,-0.06975647062063217,-0.06975647062063217,0.9975640773773193,397.5014343261719,228.9200439453125)" opacity="1" style="display: block;"><g opacity="1" transform="matrix(1,0,0,1,52.03499984741211,49.39400100708008)"><path fill="rgb(246,197,85)" fill-opacity="1" d=" M-4.97599983215332,-46.321998596191406 C-4.97599983215332,-46.321998596191406 -54.26599884033203,-28.89900016784668 -38.3380012512207,31.2189998626709 C-30.143999099731445,44.125 -10.420000076293945,45.63399887084961 -2.924999952316284,46.7400016784668 C-2.924999952316284,46.7400016784668 44.27299880981445,46.39500045776367 40.92900085449219,20.22800064086914 C34.76100158691406,-30.67799949645996 8.730999946594238,-42.888999938964844 -1.2910000085830688,-45.60499954223633 C-3.13700008392334,-46.10499954223633 -4.440999984741211,-46.284000396728516 -4.97599983215332,-46.321998596191406z"/></g><g opacity="1" transform="matrix(1,0,0,1,50.19300079345703,53.08000183105469)"><path stroke-linecap="round" stroke-linejoin="round" fill-opacity="0" stroke="rgb(41,24,61)" stroke-opacity="1" stroke-width="3.072" d=" M-1.2899999618530273,-50.007999420166016 C30.902000427246094,-40.547000885009766 40.388999938964844,-5.801000118255615 43.09199905395508,16.68400001525879 C46.409000396728516,44.82099914550781 -15.29699993133545,50.00899887084961 -32.9900016784668,32.56100082397461 C-47.12099838256836,18.677000045776367 -42.45100021362305,-30.10300064086914 -9.031000137329102,-47.67300033569336"/></g><g opacity="1" transform="matrix(1,0,0,1,38.51900100708008,15.604999542236328)"><path stroke-linecap="round" stroke-linejoin="round" fill-opacity="0" stroke="rgb(41,24,61)" stroke-opacity="1" stroke-width="3.072" d=" M5.2220001220703125,-11.303000450134277 C5.2220001220703125,-11.303000450134277 -5.2220001220703125,11.303000450134277 -5.2220001220703125,11.303000450134277"/></g><g opacity="1" transform="matrix(1,0,0,1,52.34299850463867,14.807000160217285)"><path stroke-linecap="round" stroke-linejoin="round" fill-opacity="0" stroke="rgb(41,24,61)" stroke-opacity="1" stroke-width="3.072" d=" M-4.791999816894531,-11.48900032043457 C-4.791999816894531,-11.48900032043457 4.791999816894531,11.48900032043457 4.791999816894531,11.48900032043457"/></g><g opacity="1" transform="matrix(-1,0,0,1,45.74599838256836,50.06999969482422)"><path stroke-linecap="round" stroke-linejoin="round" fill-opacity="0" stroke="rgb(41,24,61)" stroke-opacity="1" stroke-width="3.072" d=" M3.318000078201294,-10.75100040435791 C-0.24500000476837158,-14.5600004196167 -9.829000473022461,-10.260000228881836 -7.986000061035156,-5.591000080108643 C-6.388999938964844,1.2899999618530273 9.829000473022461,-1.9049999713897705 8.968999862670898,6.328000068664551 C8.109000205993652,14.5600004196167 -5.53000020980835,14.069000244140625 -7.741000175476074,6.204999923706055"/></g><g opacity="1" transform="matrix(1,0,0,1,49.946998596191406,50.80699920654297)"><path stroke-linecap="round" stroke-linejoin="round" fill-opacity="0" stroke="rgb(41,24,61)" stroke-opacity="1" stroke-width="3.072" d=" M-2.2699999809265137,-18.966999053955078 C-2.2699999809265137,-18.966999053955078 -4.965000152587891,18.493000030517578 -4.965000152587891,18.493000030517578"/></g></g><g transform="matrix(1,0,0,1,15.5,0)" opacity="1" style="display: block;"><g opacity="1" transform="matrix(1,0,0,1,18.381011962890625,4.094999313354492)"><g opacity="1" transform="matrix(1,0,0,1,326.15899658203125,19.291000366210938)"><path fill="rgb(246,197,85)" fill-opacity="1" d=" M12.902000427246094,-1.781999945640564 C12.902000427246094,5.2210001945495605 6.756999969482422,10.381999969482422 0.492000013589859,10.381999969482422 C-6.51200008392334,10.381999969482422 -9.21500015258789,6.328000068664551 -10.199000358581543,4.854000091552734 C-11.057999610900879,3.380000114440918 -12.902000427246094,-2.0269999504089355 -12.902000427246094,-2.0269999504089355 C-12.902000427246094,-2.0269999504089355 10.6899995803833,-10.381999969482422 10.6899995803833,-10.381999969482422 C10.6899995803833,-10.381999969482422 12.40999984741211,-6.697000026702881 12.902000427246094,-1.781999945640564z"/><path stroke-linecap="round" stroke-linejoin="round" fill-opacity="0" stroke="rgb(41,24,61)" stroke-opacity="1" stroke-width="1.905" d=" M12.902000427246094,-1.781999945640564 C12.902000427246094,5.2210001945495605 6.756999969482422,10.381999969482422 0.492000013589859,10.381999969482422 C-6.51200008392334,10.381999969482422 -9.21500015258789,6.328000068664551 -10.199000358581543,4.854000091552734 C-11.057999610900879,3.380000114440918 -12.902000427246094,-2.0269999504089355 -12.902000427246094,-2.0269999504089355 C-12.902000427246094,-2.0269999504089355 10.6899995803833,-10.381999969482422 10.6899995803833,-10.381999969482422 C10.6899995803833,-10.381999969482422 12.40999984741211,-6.697000026702881 12.902000427246094,-1.781999945640564z"/></g></g><g opacity="1" transform="matrix(1,0,0,1,18.38201904296875,4.095000267028809)"><g opacity="1" transform="matrix(1,0,0,1,325.6669921875,14.560999870300293)"><path fill="rgb(246,197,85)" fill-opacity="1" d=" M0,12.654999732971191 C6.988999843597412,12.654999732971191 12.654999732971191,6.988999843597412 12.654999732971191,0 C12.654999732971191,-6.989999771118164 6.988999843597412,-12.654999732971191 0,-12.654999732971191 C-6.989999771118164,-12.654999732971191 -12.656000137329102,-6.989999771118164 -12.656000137329102,0 C-12.656000137329102,6.988999843597412 -6.989999771118164,12.654999732971191 0,12.654999732971191z"/><path stroke-linecap="round" stroke-linejoin="round" fill-opacity="0" stroke="rgb(41,24,61)" stroke-opacity="1" stroke-width="1.905" d=" M0,12.654999732971191 C6.988999843597412,12.654999732971191 12.654999732971191,6.988999843597412 12.654999732971191,0 C12.654999732971191,-6.989999771118164 6.988999843597412,-12.654999732971191 0,-12.654999732971191 C-6.989999771118164,-12.654999732971191 -12.656000137329102,-6.989999771118164 -12.656000137329102,0 C-12.656000137329102,6.988999843597412 -6.989999771118164,12.654999732971191 0,12.654999732971191z"/></g></g><g opacity="1" transform="matrix(1,0,0,1,18.38201904296875,4.094999313354492)"><g opacity="1" transform="matrix(1,0,0,1,336.8479919433594,22.363000869750977)"><path stroke-linecap="round" stroke-linejoin="round" fill-opacity="0" stroke="rgb(41,24,61)" stroke-opacity="1" stroke-width="1.905" d=" M-0.2460000067949295,-1.2910000085830688 C-0.2460000067949295,-1.2910000085830688 0.24500000476837158,1.2910000085830688 0.24500000476837158,1.2910000085830688"/></g></g><g opacity="1" transform="matrix(1,0,0,1,18.38201904296875,4.095001220703125)"><g opacity="1" transform="matrix(1,0,0,1,335.12799072265625,24.45199966430664)"><path stroke-linecap="round" stroke-linejoin="round" fill-opacity="0" stroke="rgb(41,24,61)" stroke-opacity="1" stroke-width="1.905" d=" M-0.24500000476837158,-1.2899999618530273 C-0.24500000476837158,-1.2899999618530273 0.2460000067949295,1.2899999618530273 0.2460000067949295,1.2899999618530273"/></g></g><g opacity="1" transform="matrix(1,0,0,1,18.38201904296875,4.094999313354492)"><g opacity="1" transform="matrix(1,0,0,1,326.0360107421875,13.76200008392334)"><path stroke-linecap="round" stroke-linejoin="round" fill-opacity="0" stroke="rgb(41,24,61)" stroke-opacity="1" stroke-width="1.905" d=" M2.950000047683716,-3.625 C1.4739999771118164,-6.573999881744385 -3.071000099182129,-4.9770002365112305 -2.8259999752044678,-2.888000011444092 C-2.8259999752044678,-0.06199999898672104 3.809000015258789,0.18400000035762787 2.7039999961853027,3.378999948501587 C1.597000002861023,6.573999881744385 -3.686000108718872,5.099999904632568 -3.809000015258789,1.781999945640564"/></g></g><g opacity="1" transform="matrix(1,0,0,1,18.381988525390625,4.094999313354492)"><g opacity="1" transform="matrix(1,0,0,1,325.7900085449219,13.822999954223633)"><path stroke-linecap="round" stroke-linejoin="round" fill-opacity="0" stroke="rgb(41,24,61)" stroke-opacity="1" stroke-width="1.905" d=" M1.597000002861023,-7.618000030517578 C1.597000002861023,-7.618000030517578 -1.5959999561309814,7.618000030517578 -1.5959999561309814,7.618000030517578"/></g></g></g><g transform="matrix(1,0,0,1,15.5,0)" opacity="1" style="display: block;"><g opacity="1" transform="matrix(1,0,0,1,18.381988525390625,4.094993591308594)"><g opacity="1" transform="matrix(1,0,0,1,300.9700012207031,87.7300033569336)"><path fill="rgb(246,197,85)" fill-opacity="1" d=" M12.901000022888184,-1.781999945640564 C12.901000022888184,5.2220001220703125 6.757999897003174,10.381999969482422 0.492000013589859,10.381999969482422 C-6.51200008392334,10.381999969482422 -9.21500015258789,6.328999996185303 -10.197999954223633,4.854000091552734 C-11.057999610900879,3.380000114440918 -12.901000022888184,-2.0269999504089355 -12.901000022888184,-2.0269999504089355 C-12.901000022888184,-2.0269999504089355 10.6899995803833,-10.381999969482422 10.6899995803833,-10.381999969482422 C10.6899995803833,-10.381999969482422 12.40999984741211,-6.697000026702881 12.901000022888184,-1.781999945640564z"/><path stroke-linecap="round" stroke-linejoin="round" fill-opacity="0" stroke="rgb(41,24,61)" stroke-opacity="1" stroke-width="1.905" d=" M12.901000022888184,-1.781999945640564 C12.901000022888184,5.2220001220703125 6.757999897003174,10.381999969482422 0.492000013589859,10.381999969482422 C-6.51200008392334,10.381999969482422 -9.21500015258789,6.328999996185303 -10.197999954223633,4.854000091552734 C-11.057999610900879,3.380000114440918 -12.901000022888184,-2.0269999504089355 -12.901000022888184,-2.0269999504089355 C-12.901000022888184,-2.0269999504089355 10.6899995803833,-10.381999969482422 10.6899995803833,-10.381999969482422 C10.6899995803833,-10.381999969482422 12.40999984741211,-6.697000026702881 12.901000022888184,-1.781999945640564z"/></g></g><g opacity="1" transform="matrix(1,0,0,1,18.381988525390625,4.095001220703125)"><g opacity="1" transform="matrix(1,0,0,1,300.47900390625,82.9990005493164)"><path fill="rgb(246,197,85)" fill-opacity="1" d=" M0.0010000000474974513,12.656000137329102 C6.988999843597412,12.656000137329102 12.654999732971191,6.988999843597412 12.654999732971191,0 C12.654999732971191,-6.989999771118164 6.988999843597412,-12.656000137329102 0.0010000000474974513,-12.656000137329102 C-6.988999843597412,-12.656000137329102 -12.654999732971191,-6.989999771118164 -12.654999732971191,0 C-12.654999732971191,6.988999843597412 -6.988999843597412,12.656000137329102 0.0010000000474974513,12.656000137329102z"/><path stroke-linecap="round" stroke-linejoin="round" fill-opacity="0" stroke="rgb(41,24,61)" stroke-opacity="1" stroke-width="1.905" d=" M0.0010000000474974513,12.656000137329102 C6.988999843597412,12.656000137329102 12.654999732971191,6.988999843597412 12.654999732971191,0 C12.654999732971191,-6.989999771118164 6.988999843597412,-12.656000137329102 0.0010000000474974513,-12.656000137329102 C-6.988999843597412,-12.656000137329102 -12.654999732971191,-6.989999771118164 -12.654999732971191,0 C-12.654999732971191,6.988999843597412 -6.988999843597412,12.656000137329102 0.0010000000474974513,12.656000137329102z"/></g></g><g opacity="1" transform="matrix(1,0,0,1,18.381988525390625,4.095001220703125)"><g opacity="1" transform="matrix(1,0,0,1,311.65899658203125,90.802001953125)"><path stroke-linecap="round" stroke-linejoin="round" fill-opacity="0" stroke="rgb(41,24,61)" stroke-opacity="1" stroke-width="1.905" d=" M-0.24500000476837158,-1.2910000085830688 C-0.24500000476837158,-1.2910000085830688 0.2460000067949295,1.2910000085830688 0.2460000067949295,1.2910000085830688"/></g></g><g opacity="1" transform="matrix(1,0,0,1,18.381988525390625,4.095001220703125)"><g opacity="1" transform="matrix(1,0,0,1,309.9410095214844,93.01300048828125)"><path stroke-linecap="round" stroke-linejoin="round" fill-opacity="0" stroke="rgb(41,24,61)" stroke-opacity="1" stroke-width="1.905" d=" M-0.24500000476837158,-1.2910000085830688 C-0.24500000476837158,-1.2910000085830688 0.2460000067949295,1.2910000085830688 0.2460000067949295,1.2910000085830688"/></g></g><g opacity="1" transform="matrix(1,0,0,1,18.381988525390625,4.095001220703125)"><g opacity="1" transform="matrix(1,0,0,1,300.8479919433594,82.20099639892578)"><path stroke-linecap="round" stroke-linejoin="round" fill-opacity="0" stroke="rgb(41,24,61)" stroke-opacity="1" stroke-width="1.905" d=" M2.9489998817443848,-3.625 C1.475000023841858,-6.573999881744385 -3.072000026702881,-4.9770002365112305 -2.825000047683716,-2.888000011444092 C-2.825000047683716,-0.06199999898672104 3.809000015258789,0.18400000035762787 2.703000068664551,3.378999948501587 C1.5980000495910645,6.573999881744385 -3.686000108718872,5.099999904632568 -3.809000015258789,1.781999945640564"/></g></g><g opacity="1" transform="matrix(1,0,0,1,18.381011962890625,4.095001220703125)"><g opacity="1" transform="matrix(1,0,0,1,300.5409851074219,82.322998046875)"><path stroke-linecap="round" stroke-linejoin="round" fill-opacity="0" stroke="rgb(41,24,61)" stroke-opacity="1" stroke-width="1.905" d=" M1.5360000133514404,-7.557000160217285 C1.5360000133514404,-7.557000160217285 -1.534999966621399,7.557000160217285 -1.534999966621399,7.557000160217285"/></g></g></g><g transform="matrix(1,0,0,1,15.5,0)" opacity="1" style="display: block;"><g opacity="1" transform="matrix(1,0,0,1,18.38201904296875,4.094997406005859)"><g opacity="1" transform="matrix(1,0,0,1,258.3349914550781,58.24100112915039)"><path fill="rgb(246,197,85)" fill-opacity="1" d=" M12.902000427246094,-1.781999945640564 C12.902000427246094,5.2220001220703125 6.757999897003174,10.381999969482422 0.492000013589859,10.381999969482422 C-6.511000156402588,10.381999969482422 -9.21399974822998,6.328000068664551 -10.197999954223633,4.854000091552734 C-11.057999610900879,3.380000114440918 -12.901000022888184,-2.0269999504089355 -12.901000022888184,-2.0269999504089355 C-12.901000022888184,-2.0269999504089355 10.6899995803833,-10.381999969482422 10.6899995803833,-10.381999969482422 C10.6899995803833,-10.381999969482422 12.534000396728516,-6.697000026702881 12.902000427246094,-1.781999945640564z"/><path stroke-linecap="round" stroke-linejoin="round" fill-opacity="0" stroke="rgb(41,24,61)" stroke-opacity="1" stroke-width="1.905" d=" M12.902000427246094,-1.781999945640564 C12.902000427246094,5.2220001220703125 6.757999897003174,10.381999969482422 0.492000013589859,10.381999969482422 C-6.511000156402588,10.381999969482422 -9.21399974822998,6.328000068664551 -10.197999954223633,4.854000091552734 C-11.057999610900879,3.380000114440918 -12.901000022888184,-2.0269999504089355 -12.901000022888184,-2.0269999504089355 C-12.901000022888184,-2.0269999504089355 10.6899995803833,-10.381999969482422 10.6899995803833,-10.381999969482422 C10.6899995803833,-10.381999969482422 12.534000396728516,-6.697000026702881 12.902000427246094,-1.781999945640564z"/></g></g><g opacity="1" transform="matrix(1,0,0,1,18.38201904296875,4.095001220703125)"><g opacity="1" transform="matrix(1,0,0,1,257.843994140625,53.5099983215332)"><path fill="rgb(246,197,85)" fill-opacity="1" d=" M-0.0010000000474974513,12.656000137329102 C6.988999843597412,12.656000137329102 12.654999732971191,6.988999843597412 12.654999732971191,0 C12.654999732971191,-6.989999771118164 6.988999843597412,-12.656000137329102 -0.0010000000474974513,-12.656000137329102 C-6.988999843597412,-12.656000137329102 -12.654999732971191,-6.989999771118164 -12.654999732971191,0 C-12.654999732971191,6.988999843597412 -6.988999843597412,12.656000137329102 -0.0010000000474974513,12.656000137329102z"/><path stroke-linecap="round" stroke-linejoin="round" fill-opacity="0" stroke="rgb(41,24,61)" stroke-opacity="1" stroke-width="1.905" d=" M-0.0010000000474974513,12.656000137329102 C6.988999843597412,12.656000137329102 12.654999732971191,6.988999843597412 12.654999732971191,0 C12.654999732971191,-6.989999771118164 6.988999843597412,-12.656000137329102 -0.0010000000474974513,-12.656000137329102 C-6.988999843597412,-12.656000137329102 -12.654999732971191,-6.989999771118164 -12.654999732971191,0 C-12.654999732971191,6.988999843597412 -6.988999843597412,12.656000137329102 -0.0010000000474974513,12.656000137329102z"/></g></g><g opacity="1" transform="matrix(1,0,0,1,18.38201904296875,4.094997406005859)"><g opacity="1" transform="matrix(1,0,0,1,269.0249938964844,61.3129997253418)"><path stroke-linecap="round" stroke-linejoin="round" fill-opacity="0" stroke="rgb(41,24,61)" stroke-opacity="1" stroke-width="1.905" d=" M-0.2460000067949295,-1.2910000085830688 C-0.2460000067949295,-1.2910000085830688 0.2460000067949295,1.2910000085830688 0.2460000067949295,1.2910000085830688"/></g></g><g opacity="1" transform="matrix(1,0,0,1,18.38201904296875,4.095001220703125)"><g opacity="1" transform="matrix(1,0,0,1,267.3039855957031,63.525001525878906)"><path stroke-linecap="round" stroke-linejoin="round" fill-opacity="0" stroke="rgb(41,24,61)" stroke-opacity="1" stroke-width="1.905" d=" M-0.2460000067949295,-1.2910000085830688 C-0.2460000067949295,-1.2910000085830688 0.24500000476837158,1.2910000085830688 0.24500000476837158,1.2910000085830688"/></g></g><g opacity="1" transform="matrix(1,0,0,1,18.381988525390625,4.095001220703125)"><g opacity="1" transform="matrix(1,0,0,1,258.2130126953125,52.71200180053711)"><path stroke-linecap="round" stroke-linejoin="round" fill-opacity="0" stroke="rgb(41,24,61)" stroke-opacity="1" stroke-width="1.905" d=" M2.9489998817443848,-3.625 C1.475000023841858,-6.573999881744385 -3.072999954223633,-4.9770002365112305 -2.8269999027252197,-2.888000011444092 C-2.8269999027252197,-0.06199999898672104 3.809000015258789,0.18400000035762787 2.703000068664551,3.378999948501587 C1.597000002861023,6.573999881744385 -3.687000036239624,5.099999904632568 -3.809999942779541,1.781999945640564"/></g></g><g opacity="1" transform="matrix(1,0,0,1,18.381988525390625,4.094997406005859)"><g opacity="1" transform="matrix(1,0,0,1,258.02801513671875,52.71200180053711)"><path stroke-linecap="round" stroke-linejoin="round" fill-opacity="0" stroke="rgb(41,24,61)" stroke-opacity="1" stroke-width="1.905" d=" M1.5360000133514404,-7.557000160217285 C1.5360000133514404,-7.557000160217285 -1.5360000133514404,7.557000160217285 -1.5360000133514404,7.557000160217285"/></g></g></g><g transform="matrix(0.9692781567573547,-0.24596720933914185,0.24596720933914185,0.9692781567573547,1.4342193603515625,35.70371627807617)" opacity="1" style="display: block;"><g opacity="1" transform="matrix(1,0,0,1,18.381996154785156,4.095001220703125)"><g opacity="1" transform="matrix(1,0,0,1,106.34400177001953,70.15899658203125)"><path fill="rgb(246,197,85)" fill-opacity="1" d=" M9.33899974822998,-7.065000057220459 C12.902000427246094,-1.0440000295639038 10.321999549865723,6.451000213623047 4.914999961853027,9.767999649047852 C-1.1050000190734863,13.331000328063965 -5.5289998054504395,11.243000030517578 -7.002999782562256,10.505000114440918 C-8.47700023651123,9.767999649047852 -12.902000427246094,5.960000038146973 -12.902000427246094,5.960000038146973 C-12.902000427246094,5.960000038146973 3.072000026702881,-13.208000183105469 3.072000026702881,-13.208000183105469 C3.072000026702881,-13.331000328063965 6.513000011444092,-10.996999740600586 9.33899974822998,-7.065000057220459z"/><path stroke-linecap="round" stroke-linejoin="round" fill-opacity="0" stroke="rgb(41,24,61)" stroke-opacity="1" stroke-width="1.905" d=" M9.33899974822998,-7.065000057220459 C12.902000427246094,-1.0440000295639038 10.321999549865723,6.451000213623047 4.914999961853027,9.767999649047852 C-1.1050000190734863,13.331000328063965 -5.5289998054504395,11.243000030517578 -7.002999782562256,10.505000114440918 C-8.47700023651123,9.767999649047852 -12.902000427246094,5.960000038146973 -12.902000427246094,5.960000038146973 C-12.902000427246094,5.960000038146973 3.072000026702881,-13.208000183105469 3.072000026702881,-13.208000183105469 C3.072000026702881,-13.331000328063965 6.513000011444092,-10.996999740600586 9.33899974822998,-7.065000057220459z"/></g></g><g opacity="1" transform="matrix(1,0,0,1,18.382003784179688,4.095001220703125)"><g opacity="1" transform="matrix(1,0,0,1,102.78099822998047,67.3949966430664)"><path fill="rgb(246,197,85)" fill-opacity="1" d=" M0,12.656000137329102 C6.988999843597412,12.656000137329102 12.656000137329102,6.988999843597412 12.656000137329102,0 C12.656000137329102,-6.989999771118164 6.988999843597412,-12.656000137329102 0,-12.656000137329102 C-6.989999771118164,-12.656000137329102 -12.656000137329102,-6.989999771118164 -12.656000137329102,0 C-12.656000137329102,6.988999843597412 -6.989999771118164,12.656000137329102 0,12.656000137329102z"/><path stroke-linecap="round" stroke-linejoin="round" fill-opacity="0" stroke="rgb(41,24,61)" stroke-opacity="1" stroke-width="1.905" d=" M0,12.656000137329102 C6.988999843597412,12.656000137329102 12.656000137329102,6.988999843597412 12.656000137329102,0 C12.656000137329102,-6.989999771118164 6.988999843597412,-12.656000137329102 0,-12.656000137329102 C-6.989999771118164,-12.656000137329102 -12.656000137329102,-6.989999771118164 -12.656000137329102,0 C-12.656000137329102,6.988999843597412 -6.989999771118164,12.656000137329102 0,12.656000137329102z"/></g></g><g opacity="1" transform="matrix(1,0,0,1,18.380996704101562,4.095001220703125)"><g opacity="1" transform="matrix(1,0,0,1,116.2969970703125,68.37799835205078)"><path stroke-linecap="round" stroke-linejoin="round" fill-opacity="0" stroke="rgb(41,24,61)" stroke-opacity="1" stroke-width="1.905" d=" M-0.8610000014305115,-0.9829999804496765 C-0.8610000014305115,-0.9829999804496765 0.8610000014305115,0.9829999804496765 0.8610000014305115,0.9829999804496765"/></g></g><g opacity="1" transform="matrix(1,0,0,1,18.381996154785156,4.095001220703125)"><g opacity="1" transform="matrix(1,0,0,1,115.9280014038086,71.08100128173828)"><path stroke-linecap="round" stroke-linejoin="round" fill-opacity="0" stroke="rgb(41,24,61)" stroke-opacity="1" stroke-width="1.905" d=" M-0.8600000143051147,-0.9829999804496765 C-0.8600000143051147,-0.9829999804496765 0.8600000143051147,0.9829999804496765 0.8600000143051147,0.9829999804496765"/></g></g><g opacity="1" transform="matrix(1,0,0,1,18.380996704101562,4.095001220703125)"><g opacity="1" transform="matrix(1,0,0,1,102.35099792480469,66.3499984741211)"><path stroke-linecap="round" stroke-linejoin="round" fill-opacity="0" stroke="rgb(41,24,61)" stroke-opacity="1" stroke-width="1.905" d=" M0.921999990940094,-4.485000133514404 C-1.9040000438690186,-6.328000068664551 -4.97599983215332,-2.5190000534057617 -3.624000072479248,-0.921999990940094 C-2.1500000953674316,1.5360000133514404 3.625,-1.659000039100647 4.36299991607666,1.5360000133514404 C4.9770002365112305,4.854000091552734 -0.3070000112056732,6.328000068664551 -2.0269999504089355,3.502000093460083"/></g></g><g opacity="1" transform="matrix(1,0,0,1,18.381996154785156,4.095001220703125)"><g opacity="1" transform="matrix(1,0,0,1,102.53500366210938,66.71900177001953)"><path stroke-linecap="round" stroke-linejoin="round" fill-opacity="0" stroke="rgb(41,24,61)" stroke-opacity="1" stroke-width="1.905" d=" M-2.5810000896453857,-7.310999870300293 C-2.5810000896453857,-7.310999870300293 2.5810000896453857,7.310999870300293 2.5810000896453857,7.310999870300293"/></g></g></g><g transform="matrix(0.9563047289848328,0.2923716902732849,-0.2923716902732849,0.9563047289848328,51.155189514160156,-12.994453430175781)" opacity="1" style="display: block;"><g opacity="1" transform="matrix(1,0,0,1,18.382003784179688,4.095001220703125)"><g opacity="1" transform="matrix(1,0,0,1,65.67400360107422,107.51200103759766)"><path fill="rgb(246,197,85)" fill-opacity="1" d=" M9.338000297546387,-7.065000057220459 C12.901000022888184,-1.0449999570846558 10.321000099182129,6.451000213623047 4.914999961853027,9.767999649047852 C-1.1059999465942383,13.331000328063965 -5.5289998054504395,11.241999626159668 -7.002999782562256,10.505000114440918 C-8.477999687194824,9.767999649047852 -12.901000022888184,5.959000110626221 -12.901000022888184,5.959000110626221 C-12.901000022888184,5.959000110626221 3.072000026702881,-13.208999633789062 3.072000026702881,-13.208999633789062 C3.072000026702881,-13.331999778747559 6.388999938964844,-10.996999740600586 9.338000297546387,-7.065000057220459z"/><path stroke-linecap="round" stroke-linejoin="round" fill-opacity="0" stroke="rgb(41,24,61)" stroke-opacity="1" stroke-width="1.905" d=" M9.338000297546387,-7.065000057220459 C12.901000022888184,-1.0449999570846558 10.321000099182129,6.451000213623047 4.914999961853027,9.767999649047852 C-1.1059999465942383,13.331000328063965 -5.5289998054504395,11.241999626159668 -7.002999782562256,10.505000114440918 C-8.477999687194824,9.767999649047852 -12.901000022888184,5.959000110626221 -12.901000022888184,5.959000110626221 C-12.901000022888184,5.959000110626221 3.072000026702881,-13.208999633789062 3.072000026702881,-13.208999633789062 C3.072000026702881,-13.331999778747559 6.388999938964844,-10.996999740600586 9.338000297546387,-7.065000057220459z"/></g></g><g opacity="1" transform="matrix(1,0,0,1,18.382003784179688,4.095001220703125)"><g opacity="1" transform="matrix(1,0,0,1,61.987998962402344,104.74700164794922)"><path fill="rgb(246,197,85)" fill-opacity="1" d=" M0.0010000000474974513,12.656000137329102 C6.989999771118164,12.656000137329102 12.656000137329102,6.989999771118164 12.656000137329102,0 C12.656000137329102,-6.988999843597412 6.989999771118164,-12.656000137329102 0.0010000000474974513,-12.656000137329102 C-6.988999843597412,-12.656000137329102 -12.656000137329102,-6.988999843597412 -12.656000137329102,0 C-12.656000137329102,6.989999771118164 -6.988999843597412,12.656000137329102 0.0010000000474974513,12.656000137329102z"/><path stroke-linecap="round" stroke-linejoin="round" fill-opacity="0" stroke="rgb(41,24,61)" stroke-opacity="1" stroke-width="1.905" d=" M0.0010000000474974513,12.656000137329102 C6.989999771118164,12.656000137329102 12.656000137329102,6.989999771118164 12.656000137329102,0 C12.656000137329102,-6.988999843597412 6.989999771118164,-12.656000137329102 0.0010000000474974513,-12.656000137329102 C-6.988999843597412,-12.656000137329102 -12.656000137329102,-6.988999843597412 -12.656000137329102,0 C-12.656000137329102,6.989999771118164 -6.988999843597412,12.656000137329102 0.0010000000474974513,12.656000137329102z"/></g></g><g opacity="1" transform="matrix(1,0,0,1,18.381004333496094,4.094993591308594)"><g opacity="1" transform="matrix(1,0,0,1,75.50499725341797,105.7300033569336)"><path stroke-linecap="round" stroke-linejoin="round" fill-opacity="0" stroke="rgb(41,24,61)" stroke-opacity="1" stroke-width="1.905" d=" M-0.8600000143051147,-0.9829999804496765 C-0.8600000143051147,-0.9829999804496765 0.8600000143051147,0.9829999804496765 0.8600000143051147,0.9829999804496765"/></g></g><g opacity="1" transform="matrix(1,0,0,1,18.381996154785156,4.095001220703125)"><g opacity="1" transform="matrix(1,0,0,1,75.25800323486328,108.55599975585938)"><path stroke-linecap="round" stroke-linejoin="round" fill-opacity="0" stroke="rgb(41,24,61)" stroke-opacity="1" stroke-width="1.905" d=" M-0.8600000143051147,-0.9829999804496765 C-0.8600000143051147,-0.9829999804496765 0.8600000143051147,0.9829999804496765 0.8600000143051147,0.9829999804496765"/></g></g><g opacity="1" transform="matrix(1,0,0,1,18.381999969482422,4.095001220703125)"><g opacity="1" transform="matrix(1,0,0,1,61.68199920654297,103.82599639892578)"><path stroke-linecap="round" stroke-linejoin="round" fill-opacity="0" stroke="rgb(41,24,61)" stroke-opacity="1" stroke-width="1.905" d=" M0.921999990940094,-4.485000133514404 C-1.9040000438690186,-6.328000068664551 -4.9770002365112305,-2.5190000534057617 -3.625999927520752,-0.921999990940094 C-2.1510000228881836,1.5360000133514404 3.624000072479248,-1.659000039100647 4.361000061035156,1.5360000133514404 C4.97599983215332,4.854000091552734 -0.3070000112056732,6.328000068664551 -2.0269999504089355,3.502000093460083"/></g></g><g opacity="1" transform="matrix(1,0,0,1,18.381000518798828,4.095001220703125)"><g opacity="1" transform="matrix(1,0,0,1,61.74300003051758,104.19499969482422)"><path stroke-linecap="round" stroke-linejoin="round" fill-opacity="0" stroke="rgb(41,24,61)" stroke-opacity="1" stroke-width="1.905" d=" M-2.5810000896453857,-7.310999870300293 C-2.5810000896453857,-7.310999870300293 2.5810000896453857,7.310999870300293 2.5810000896453857,7.310999870300293"/></g></g></g><g transform="matrix(1,0,0,1,15.5,0)" opacity="1" style="display: block;"><g opacity="1" transform="matrix(1,0,0,1,18.381999969482422,4.095001220703125)"><g opacity="1" transform="matrix(1,0,0,1,18.246000289916992,60.698001861572266)"><path fill="rgb(246,197,85)" fill-opacity="1" d=" M9.338000297546387,-7.065000057220459 C12.901000022888184,-1.0440000295639038 10.321000099182129,6.451000213623047 4.914999961853027,9.767999649047852 C-1.1059999465942383,13.331000328063965 -5.5289998054504395,11.243000030517578 -7.002999782562256,10.505000114440918 C-8.477999687194824,9.767999649047852 -12.901000022888184,5.960000038146973 -12.901000022888184,5.960000038146973 C-12.901000022888184,5.960000038146973 3.072000026702881,-13.208000183105469 3.072000026702881,-13.208000183105469 C3.072000026702881,-13.331000328063965 6.51200008392334,-11.119999885559082 9.338000297546387,-7.065000057220459z"/><path stroke-linecap="round" stroke-linejoin="round" fill-opacity="0" stroke="rgb(41,24,61)" stroke-opacity="1" stroke-width="1.905" d=" M9.338000297546387,-7.065000057220459 C12.901000022888184,-1.0440000295639038 10.321000099182129,6.451000213623047 4.914999961853027,9.767999649047852 C-1.1059999465942383,13.331000328063965 -5.5289998054504395,11.243000030517578 -7.002999782562256,10.505000114440918 C-8.477999687194824,9.767999649047852 -12.901000022888184,5.960000038146973 -12.901000022888184,5.960000038146973 C-12.901000022888184,5.960000038146973 3.072000026702881,-13.208000183105469 3.072000026702881,-13.208000183105469 C3.072000026702881,-13.331000328063965 6.51200008392334,-11.119999885559082 9.338000297546387,-7.065000057220459z"/></g></g><g opacity="1" transform="matrix(1,0,0,1,18.381000518798828,4.095001220703125)"><g opacity="1" transform="matrix(1,0,0,1,14.560999870300293,57.933998107910156)"><path fill="rgb(246,197,85)" fill-opacity="1" d=" M0.0010000000474974513,12.656000137329102 C6.989999771118164,12.656000137329102 12.656000137329102,6.988999843597412 12.656000137329102,0 C12.656000137329102,-6.989999771118164 6.989999771118164,-12.656000137329102 0.0010000000474974513,-12.656000137329102 C-6.988999843597412,-12.656000137329102 -12.656000137329102,-6.989999771118164 -12.656000137329102,0 C-12.656000137329102,6.988999843597412 -6.988999843597412,12.656000137329102 0.0010000000474974513,12.656000137329102z"/><path stroke-linecap="round" stroke-linejoin="round" fill-opacity="0" stroke="rgb(41,24,61)" stroke-opacity="1" stroke-width="1.905" d=" M0.0010000000474974513,12.656000137329102 C6.989999771118164,12.656000137329102 12.656000137329102,6.988999843597412 12.656000137329102,0 C12.656000137329102,-6.989999771118164 6.989999771118164,-12.656000137329102 0.0010000000474974513,-12.656000137329102 C-6.988999843597412,-12.656000137329102 -12.656000137329102,-6.989999771118164 -12.656000137329102,0 C-12.656000137329102,6.988999843597412 -6.988999843597412,12.656000137329102 0.0010000000474974513,12.656000137329102z"/></g></g><g opacity="1" transform="matrix(1,0,0,1,18.381999969482422,4.095001220703125)"><g opacity="1" transform="matrix(1,0,0,1,28.076000213623047,58.91699981689453)"><path stroke-linecap="round" stroke-linejoin="round" fill-opacity="0" stroke="rgb(41,24,61)" stroke-opacity="1" stroke-width="1.905" d=" M-0.8600000143051147,-0.9829999804496765 C-0.8600000143051147,-0.9829999804496765 0.8600000143051147,0.9829999804496765 0.8600000143051147,0.9829999804496765"/></g></g><g opacity="1" transform="matrix(1,0,0,1,18.382001876831055,4.094997406005859)"><g opacity="1" transform="matrix(1,0,0,1,27.829999923706055,61.619998931884766)"><path stroke-linecap="round" stroke-linejoin="round" fill-opacity="0" stroke="rgb(41,24,61)" stroke-opacity="1" stroke-width="1.905" d=" M-0.8600000143051147,-0.9829999804496765 C-0.8600000143051147,-0.9829999804496765 0.8600000143051147,0.9829999804496765 0.8600000143051147,0.9829999804496765"/></g></g><g opacity="1" transform="matrix(1,0,0,1,18.38199806213379,4.095001220703125)"><g opacity="1" transform="matrix(1,0,0,1,14.253999710083008,56.88999938964844)"><path stroke-linecap="round" stroke-linejoin="round" fill-opacity="0" stroke="rgb(41,24,61)" stroke-opacity="1" stroke-width="1.905" d=" M0.921999990940094,-4.485000133514404 C-1.9040000438690186,-6.328000068664551 -4.97599983215332,-2.5190000534057617 -3.624000072479248,-0.921999990940094 C-2.1500000953674316,1.5360000133514404 3.624000072479248,-1.659000039100647 4.361000061035156,1.5360000133514404 C4.97599983215332,4.854000091552734 -0.3070000112056732,6.328000068664551 -2.0269999504089355,3.502000093460083"/></g></g><g opacity="1" transform="matrix(1,0,0,1,18.381999969482422,4.096000671386719)"><g opacity="1" transform="matrix(1,0,0,1,14.3149995803833,57.257999420166016)"><path stroke-linecap="round" stroke-linejoin="round" fill-opacity="0" stroke="rgb(41,24,61)" stroke-opacity="1" stroke-width="1.905" d=" M-2.5810000896453857,-7.311999797821045 C-2.5810000896453857,-7.311999797821045 2.5810000896453857,7.311999797821045 2.5810000896453857,7.311999797821045"/></g></g></g></g></svg>