<svg xmlns="http://www.w3.org/2000/svg" viewBox="0 0 582 329" width="582" height="329" preserveAspectRatio="xMidYMid meet" style="width: 100%; height: 100%; transform: translate3d(0px, 0px, 0px);"><defs><clipPath id="__lottie_element_739"><rect width="582" height="329" x="0" y="0"/></clipPath></defs><g clip-path="url(#__lottie_element_739)"><g transform="matrix(1,0,0,1,291,164.5)" opacity="1" style="display: block;"><g opacity="1" transform="matrix(1,0,0,1,-24.711999893188477,36.52399826049805)"><path stroke-linecap="butt" stroke-linejoin="miter" fill-opacity="0" stroke-miterlimit="4" stroke="rgb(254,254,255)" stroke-opacity="1" stroke-width="3" d=" M-214.47300720214844,-31.583999633789062 C-179.13400268554688,-60.74700164794922 -96.36499786376953,-81.23300170898438 0,-81.23300170898438 C0,-81.23300170898438 0,-81.23287200927734 0,-81.23287200927734 C128.45411682128906,-81.23287200927734 232.7489013671875,-44.832420349121094 232.7489013671875,0 C232.74899291992188,8.5 229,16.69700050354004 222.0469970703125,24.400999069213867"/></g><g opacity="1" transform="matrix(1,0,0,1,-24.711999893188477,36.52399826049805)"><path stroke-linecap="butt" stroke-linejoin="miter" fill-opacity="0" stroke-miterlimit="4" stroke="rgb(254,254,255)" stroke-opacity="1" stroke-width="3" d=" M-149.1959991455078,62.33000183105469 C-200.2519989013672,47.42399978637695 -232.74899291992188,25.025999069213867 -232.74899291992188,0 C-232.74899291992188,-4.927999973297119 -231.48899841308594,-9.753999710083008 -229.0749969482422,-14.440999984741211"/></g><g opacity="1" transform="matrix(1,0,0,1,-24.711999893188477,36.52399826049805)"><path stroke-linecap="butt" stroke-linejoin="miter" fill-opacity="0" stroke-miterlimit="4" stroke="rgb(254,254,255)" stroke-opacity="1" stroke-width="3" d=" M207.53700256347656,36.78499984741211 C182.4759979248047,53.95800018310547 140.42999267578125,67.61499786376953 89.1449966430664,75.052001953125"/></g><g opacity="1" transform="matrix(1,0,0,1,-24.711999893188477,36.52399826049805)"><path stroke-linecap="butt" stroke-linejoin="miter" fill-opacity="0" stroke-miterlimit="4" stroke="rgb(254,254,255)" stroke-opacity="1" stroke-width="3" d=" M69.55500030517578,77.53700256347656 C47.5880012512207,79.93800354003906 24.222999572753906,81.23300170898438 0,81.23300170898438 C-1.1510000228881836,81.23300170898438 -2.3010001182556152,81.2300033569336 -3.4489998817443848,81.2239990234375"/></g><g opacity="1" transform="matrix(1,0,0,1,-24.711999893188477,36.52399826049805)"><path stroke-linecap="butt" stroke-linejoin="miter" fill-opacity="0" stroke-miterlimit="4" stroke="rgb(254,254,255)" stroke-opacity="1" stroke-width="3" d=" M-63.73699951171875,78.14399719238281 C-85.88400268554688,75.94499969482422 -106.69000244140625,72.62799835205078 -125.62100219726562,68.37999725341797"/></g><g opacity="1" transform="matrix(1,0,0,1,-24.711999893188477,36.52399826049805)"><path stroke-linecap="butt" stroke-linejoin="miter" fill-opacity="0" stroke-miterlimit="4" stroke="rgb(254,254,255)" stroke-opacity="1" stroke-width="3" d=" M-14.522000312805176,81.0770034790039 C-25.16699981689453,80.8479995727539 -35.61899948120117,80.36799621582031 -45.83000183105469,79.65499877929688"/></g></g><g style="display: none;"><g><path stroke-linecap="butt" stroke-linejoin="miter" fill-opacity="0" stroke-miterlimit="4"/></g><g><path stroke-linecap="butt" stroke-linejoin="miter" fill-opacity="0" stroke-miterlimit="4"/></g><g><path stroke-linecap="butt" stroke-linejoin="miter" fill-opacity="0" stroke-miterlimit="4"/></g><g><path stroke-linecap="butt" stroke-linejoin="miter" fill-opacity="0" stroke-miterlimit="4"/></g><g><path stroke-linecap="butt" stroke-linejoin="miter" fill-opacity="0" stroke-miterlimit="4"/></g><g><path stroke-linecap="butt" stroke-linejoin="miter" fill-opacity="0" stroke-miterlimit="4"/></g></g><g transform="matrix(1,0,0,1,291,164.5)" opacity="1" style="display: block;"><g opacity="1" transform="matrix(1,0,0,1,-24.711999893188477,36.52399826049805)"><path stroke-linecap="butt" stroke-linejoin="miter" fill-opacity="0" stroke-miterlimit="4" stroke="rgb(254,254,255)" stroke-opacity="1" stroke-width="3" d=" M-99.53700256347656,-14.657999992370605 C-83.13600158691406,-28.19300079345703 -44.722999572753906,-37.70000076293945 0,-37.70000076293945 C0,-37.70000076293945 0,-37.70000076293945 0,-37.70000076293945 C59.61540985107422,-37.70000076293945 108.01850128173828,-20.806631088256836 108.01850128173828,0 C108.01899719238281,3.944999933242798 106.27799987792969,7.749000072479248 103.052001953125,11.324000358581543"/></g><g opacity="1" transform="matrix(1,0,0,1,-24.711999893188477,36.52399826049805)"><path stroke-linecap="butt" stroke-linejoin="miter" fill-opacity="0" stroke-miterlimit="4" stroke="rgb(254,254,255)" stroke-opacity="1" stroke-width="3" d=" M-69.24199676513672,28.927000045776367 C-92.93699645996094,22.009000778198242 -108.01899719238281,11.61400032043457 -108.01899719238281,0 C-108.01899719238281,-2.2869999408721924 -107.43399810791016,-4.5269999504089355 -106.31400299072266,-6.702000141143799"/></g><g opacity="1" transform="matrix(1,0,0,1,-24.711999893188477,36.52399826049805)"><path stroke-linecap="butt" stroke-linejoin="miter" fill-opacity="0" stroke-miterlimit="4" stroke="rgb(254,254,255)" stroke-opacity="1" stroke-width="3" d=" M96.31700134277344,17.07200050354004 C84.68699645996094,25.04199981689453 65.1729965209961,31.3799991607666 41.37200164794922,34.83100128173828"/></g><g opacity="1" transform="matrix(1,0,0,1,-24.711999893188477,36.52399826049805)"><path stroke-linecap="butt" stroke-linejoin="miter" fill-opacity="0" stroke-miterlimit="4" stroke="rgb(254,254,255)" stroke-opacity="1" stroke-width="3" d=" M32.28099822998047,35.98500061035156 C22.084999084472656,37.0989990234375 11.241999626159668,37.70000076293945 0,37.70000076293945 C-0.5339999794960022,37.70000076293945 -1.0679999589920044,37.69900131225586 -1.600000023841858,37.69599914550781"/></g><g opacity="1" transform="matrix(1,0,0,1,-24.711999893188477,36.52399826049805)"><path stroke-linecap="butt" stroke-linejoin="miter" fill-opacity="0" stroke-miterlimit="4" stroke="rgb(254,254,255)" stroke-opacity="1" stroke-width="3" d=" M-29.579999923706055,36.26599884033203 C-39.85900115966797,35.24599838256836 -49.51499938964844,33.707000732421875 -58.29999923706055,31.735000610351562"/></g><g opacity="1" transform="matrix(1,0,0,1,-24.711999893188477,36.52399826049805)"><path stroke-linecap="butt" stroke-linejoin="miter" fill-opacity="0" stroke-miterlimit="4" stroke="rgb(254,254,255)" stroke-opacity="1" stroke-width="3" d=" M-6.739999771118164,37.62799835205078 C-11.680000305175781,37.520999908447266 -16.5310001373291,37.29899978637695 -21.270000457763672,36.96799850463867"/></g></g><g transform="matrix(1,0,0,1,560.6439819335938,268.55902099609375)" opacity="1" style="display: block;"><g opacity="1" transform="matrix(1,0,0,1,-24.711999893188477,36.52399826049805)"><path stroke-linecap="butt" stroke-linejoin="miter" fill-opacity="0" stroke-miterlimit="4" stroke="rgb(254,254,255)" stroke-opacity="1" stroke-width="0.776708153325619" d=" M-38.36899948120117,-5.650000095367432 C-32.047000885009766,-10.868000030517578 -17.239999771118164,-14.531999588012695 0,-14.531999588012695 C0,-14.531999588012695 0,-14.532381057739258 0,-14.532381057739258 C22.980289459228516,-14.532381057739258 41.63850402832031,-8.020421028137207 41.63850402832031,0 C41.638999938964844,1.5210000276565552 40.96799850463867,2.986999988555908 39.7239990234375,4.364999771118164"/></g><g opacity="1" transform="matrix(1,0,0,1,-24.711999893188477,36.52399826049805)"><path stroke-linecap="butt" stroke-linejoin="miter" fill-opacity="0" stroke-miterlimit="4" stroke="rgb(254,254,255)" stroke-opacity="1" stroke-width="0.776708153325619" d=" M-26.69099998474121,11.151000022888184 C-35.82500076293945,8.484000205993652 -41.638999938964844,4.4770002365112305 -41.638999938964844,0 C-41.638999938964844,-0.8820000290870667 -41.41299819946289,-1.7450000047683716 -40.98099899291992,-2.5829999446868896"/></g><g opacity="1" transform="matrix(1,0,0,1,-24.711999893188477,36.52399826049805)"><path stroke-linecap="butt" stroke-linejoin="miter" fill-opacity="0" stroke-miterlimit="4" stroke="rgb(254,254,255)" stroke-opacity="1" stroke-width="0.776708153325619" d=" M37.12799835205078,6.580999851226807 C32.64500045776367,9.652999877929688 25.12299919128418,12.095999717712402 15.947999954223633,13.427000045776367"/></g><g opacity="1" transform="matrix(1,0,0,1,-24.711999893188477,36.52399826049805)"><path stroke-linecap="butt" stroke-linejoin="miter" fill-opacity="0" stroke-miterlimit="4" stroke="rgb(254,254,255)" stroke-opacity="1" stroke-width="0.776708153325619" d=" M12.442999839782715,13.871000289916992 C8.512999534606934,14.300999641418457 4.334000110626221,14.531999588012695 0,14.531999588012695 C-0.20600000023841858,14.531999588012695 -0.41200000047683716,14.531999588012695 -0.6169999837875366,14.531000137329102"/></g><g opacity="1" transform="matrix(1,0,0,1,-24.711999893188477,36.52399826049805)"><path stroke-linecap="butt" stroke-linejoin="miter" fill-opacity="0" stroke-miterlimit="4" stroke="rgb(254,254,255)" stroke-opacity="1" stroke-width="0.776708153325619" d=" M-11.402000427246094,13.979999542236328 C-15.364999771118164,13.586000442504883 -19.086999893188477,12.993000030517578 -22.472999572753906,12.232999801635742"/></g><g opacity="1" transform="matrix(1,0,0,1,-24.711999893188477,36.52399826049805)"><path stroke-linecap="butt" stroke-linejoin="miter" fill-opacity="0" stroke-miterlimit="4" stroke="rgb(254,254,255)" stroke-opacity="1" stroke-width="0.776708153325619" d=" M-2.5980000495910645,14.503999710083008 C-4.501999855041504,14.463000297546387 -6.372000217437744,14.378000259399414 -8.199000358581543,14.25"/></g></g><g style="display: none;"><g><path stroke-linecap="butt" stroke-linejoin="miter" fill-opacity="0" stroke-miterlimit="4"/></g><g><path stroke-linecap="butt" stroke-linejoin="miter" fill-opacity="0" stroke-miterlimit="4"/></g><g><path stroke-linecap="butt" stroke-linejoin="miter" fill-opacity="0" stroke-miterlimit="4"/></g><g><path stroke-linecap="butt" stroke-linejoin="miter" fill-opacity="0" stroke-miterlimit="4"/></g><g><path stroke-linecap="butt" stroke-linejoin="miter" fill-opacity="0" stroke-miterlimit="4"/></g><g><path stroke-linecap="butt" stroke-linejoin="miter" fill-opacity="0" stroke-miterlimit="4"/></g></g><g style="display: none;"><g><path stroke-linecap="butt" stroke-linejoin="miter" fill-opacity="0" stroke-miterlimit="4"/></g><g><path stroke-linecap="butt" stroke-linejoin="miter" fill-opacity="0" stroke-miterlimit="4"/></g><g><path stroke-linecap="butt" stroke-linejoin="miter" fill-opacity="0" stroke-miterlimit="4"/></g><g><path stroke-linecap="butt" stroke-linejoin="miter" fill-opacity="0" stroke-miterlimit="4"/></g><g><path stroke-linecap="butt" stroke-linejoin="miter" fill-opacity="0" stroke-miterlimit="4"/></g><g><path stroke-linecap="butt" stroke-linejoin="miter" fill-opacity="0" stroke-miterlimit="4"/></g></g><g style="display: none;"><g><path stroke-linecap="butt" stroke-linejoin="miter" fill-opacity="0" stroke-miterlimit="4"/></g><g><path stroke-linecap="butt" stroke-linejoin="miter" fill-opacity="0" stroke-miterlimit="4"/></g><g><path stroke-linecap="butt" stroke-linejoin="miter" fill-opacity="0" stroke-miterlimit="4"/></g><g><path stroke-linecap="butt" stroke-linejoin="miter" fill-opacity="0" stroke-miterlimit="4"/></g><g><path stroke-linecap="butt" stroke-linejoin="miter" fill-opacity="0" stroke-miterlimit="4"/></g><g><path stroke-linecap="butt" stroke-linejoin="miter" fill-opacity="0" stroke-miterlimit="4"/></g></g><g transform="matrix(0.9998486042022705,-0.01740005426108837,0.01740005426108837,0.9998486042022705,288.41729736328125,174.14930725097656)" opacity="1" style="display: block;"><g opacity="1" transform="matrix(1,0,0,1,-134.75,-162.45899963378906)"><g opacity="1" transform="matrix(1,0,0,1,151.04400634765625,68.56099700927734)"><path fill="rgb(255,193,116)" fill-opacity="1" d=" M63.301998138427734,21.775999069213867 C53.21900177001953,51.0880012512207 16.801000595092773,65.56099700927734 -18.38800048828125,53.45600128173828 C-53.577999114990234,41.35100173950195 -73.38600158691406,7.535999774932861 -63.303001403808594,-21.775999069213867 C-53.220001220703125,-51.0880012512207 -16.802000045776367,-65.56099700927734 18.388999938964844,-53.45500183105469 C53.577999114990234,-41.349998474121094 73.38600158691406,-7.535999774932861 63.301998138427734,21.775999069213867z"/></g><g opacity="1" transform="matrix(1,0,0,1,151.04400634765625,68.56099700927734)"><path stroke-linecap="round" stroke-linejoin="miter" fill-opacity="0" stroke-miterlimit="4" stroke="rgb(41,24,61)" stroke-opacity="1" stroke-width="3" d=" M63.301998138427734,21.775999069213867 C53.21900177001953,51.0880012512207 16.801000595092773,65.56099700927734 -18.38800048828125,53.45600128173828 C-53.577999114990234,41.35100173950195 -73.38600158691406,7.535999774932861 -63.303001403808594,-21.775999069213867 C-53.220001220703125,-51.0880012512207 -16.802000045776367,-65.56099700927734 18.388999938964844,-53.45500183105469 C53.577999114990234,-41.349998474121094 73.38600158691406,-7.535999774932861 63.301998138427734,21.775999069213867z"/></g></g></g><g transform="matrix(0.9998467564582825,0.01750475913286209,-0.01750475913286209,0.9998467564582825,154.53076171875,11.726211547851562)" opacity="1" style="display: block;"><g opacity="1" transform="matrix(1,0,0,1,0,0)"><g opacity="1" transform="matrix(1,0,0,1,61.88800048828125,59.784000396728516)"><path fill="rgb(188,153,255)" fill-opacity="1" d=" M-20.351999282836914,-5.0920000076293945 C-14.35200023651123,14.407999992370605 3.7209999561309814,22.527999877929688 27.648000717163086,25.513999938964844 C18.148000717163086,32.513999938964844 -6.8520002365112305,47.513999938964844 -6.8520002365112305,47.513999938964844 C-29.575000762939453,32.025001525878906 -39.13600158691406,20.365999221801758 -50.85200119018555,-5.0920000076293945 C-50.85200119018555,-5.0920000076293945 -51.58300018310547,-20.34600067138672 -45.85200119018555,-26.986000061035156 C-42.2239990234375,-31.18899917602539 -33.78799819946289,-34.5099983215332 -33.78799819946289,-34.5099983215332 C-19.7549991607666,-33.395999908447266 8.550000190734863,-31.18600082397461 9.503999710083008,-31.266000747680664 C10.458999633789062,-31.34600067138672 14.934000015258789,-38.132999420166016 17.052000045776367,-41.51499938964844 C17.052000045776367,-41.51499938964844 24.770999908447266,-46.893001556396484 24.770999908447266,-46.893001556396484 C24.770999908447266,-46.893001556396484 25.711000442504883,-47.513999938964844 33.64699935913086,-45.987998962402344 C41.58300018310547,-44.4630012512207 50.64699935913086,-37.987998962402344 41.64699935913086,-33.487998962402344 C41.64699935913086,-33.487998962402344 50.619998931884766,-36.25899887084961 51.14799880981445,-31.266000747680664 C51.58300018310547,-27.14699935913086 46.64799880981445,-22.986000061035156 46.64799880981445,-22.986000061035156 C46.64799880981445,-22.986000061035156 36.92499923706055,-11.12399959564209 27.648000717163086,-8.42300033569336 C20.006000518798828,-6.198999881744385 6.269000053405762,-8.42300033569336 6.269000053405762,-8.42300033569336 C6.269000053405762,-8.42300033569336 -12.85200023651123,-11.486000061035156 -12.85200023651123,-11.486000061035156 C-16.351999282836914,-11.986000061035156 -20.604000091552734,-8.295999526977539 -20.351999282836914,-5.0920000076293945z"/></g><g opacity="1" transform="matrix(1,0,0,1,37.39799880981445,65.95500183105469)"><path stroke-linecap="round" stroke-linejoin="miter" fill-opacity="0" stroke-miterlimit="4" stroke="rgb(41,24,61)" stroke-opacity="1" stroke-width="3" d=" M34.39799880981445,-37.87300109863281 C34.39799880981445,-37.87300109863281 5.743000030517578,-40.255001068115234 5.743000030517578,-40.255001068115234 C-8.836999893188477,-42.84199905395508 -34.39799880981445,-33.159000396728516 -23.86199951171875,-3.6589999198913574 C-21.18400001525879,3.8410000801086426 -8.682999610900879,25.934999465942383 18.136999130249023,42.84199905395508"/></g><g opacity="1" transform="matrix(1,0,0,1,87.052001953125,25.062000274658203)"><path stroke-linecap="round" stroke-linejoin="round" fill-opacity="0" stroke="rgb(41,24,61)" stroke-opacity="1" stroke-width="2.848" d=" M11.484000205993652,7.735000133514404 C11.484000205993652,4.735000133514404 14.982999801635742,-2.2190001010894775 0.44200000166893005,-5.791999816894531 C-7.461999893188477,-7.735000133514404 -13.493000030517578,-3.749000072479248 -14.982999801635742,3.5269999504089355"/></g><g opacity="1" transform="matrix(1,0,0,1,76.48999786376953,34.79499816894531)"><path stroke-linecap="round" stroke-linejoin="round" fill-opacity="0" stroke="rgb(41,24,61)" stroke-opacity="1" stroke-width="2.848" d=" M12.545999526977539,-2.497999906539917 C10.4399995803833,-4.302999973297119 0.9139999747276306,-7.736999988555908 -4.664000034332275,-5.763999938964844 C-10.241000175476074,-3.7909998893737793 -12.545999526977539,3.874000072479248 -10.791000366210938,7.736999988555908"/></g><g opacity="1" transform="matrix(1,0,0,1,60.61800003051758,65.72599792480469)"><path stroke-linecap="round" stroke-linejoin="round" fill-opacity="0" stroke="rgb(41,24,61)" stroke-opacity="1" stroke-width="2.848" d=" M21.851999282836914,-13.333000183105469 C14.477999687194824,-13.956999778747559 2.681999921798706,-16.132999420166016 -9.152999877929688,-17.145999908447266 C-25.917999267578125,-18.889999389648438 -16.583999633789062,-2.931999921798706 -16.583999633789062,-2.931999921798706 C-5.63100004196167,12.402000427246094 15.461999893188477,17.988000869750977 25.917999267578125,18.888999938964844"/></g><g opacity="1" transform="matrix(1,0,0,1,99.53600311279297,38.797000885009766)"><path stroke-linecap="round" stroke-linejoin="round" fill-opacity="0" stroke="rgb(41,24,61)" stroke-opacity="1" stroke-width="2.848" d=" M-7.5,1.5 C0.9990000128746033,-9.5 6.499000072479248,-12.5 6.499000072479248,-12.5 C11.49899959564209,-16 19,-10.5 8.49899959564209,-1.5 C1.8350000381469727,4.211999893188477 -3,16 -19,13.5"/></g><g opacity="1" transform="matrix(1,0,0,1,96.60900115966797,19.922000885009766)"><path stroke-linecap="round" stroke-linejoin="round" fill-opacity="0" stroke="rgb(41,24,61)" stroke-opacity="1" stroke-width="2.848" d=" M4.427999973297119,9.37399959564209 C4.427999973297119,9.37399959564209 18.924999237060547,-1.1260000467300415 -1.003999948501587,-6.006999969482422 C-10.769000053405762,-9.37399959564209 -17.33300018310547,-3.5299999713897705 -18.926000595092773,-0.19900000095367432"/></g><g opacity="1" transform="matrix(1,0,0,1,88.03600311279297,38.547000885009766)"><path stroke-linecap="round" stroke-linejoin="round" fill-opacity="0" stroke="rgb(41,24,61)" stroke-opacity="1" stroke-width="2.848" d=" M-13.00100040435791,3.25 C-7.5,6.25 13.00100040435791,5.580999851226807 1.0010000467300415,-6.25"/></g></g></g><g transform="matrix(1,0,0,1,151.46499633789062,11.615005493164062)" opacity="1" style="display: block;"><g opacity="1" transform="matrix(1,0,0,1,119.55899810791016,133.78599548339844)"><path fill="rgb(188,153,255)" fill-opacity="1" d=" M71.26899719238281,-15.484999656677246 C73.45899963378906,-22.054000854492188 74.65899658203125,-29.18899917602539 74.65899658203125,-36.64799880981445 C74.65899658203125,-69.22000122070312 51.76499938964844,-95.625 23.523000717163086,-95.625 C0.3149999976158142,-95.625 -19.281999588012695,-77.79399871826172 -25.5310001373291,-53.362998962402344 C-58.02399826049805,-42.6510009765625 -81.47699737548828,-12.04699993133545 -81.47699737548828,24.034000396728516 C-81.47699737548828,69.03299713134766 -44.99800109863281,95.625 0,95.625 C44.999000549316406,95.625 81.47699737548828,69.03299713134766 81.47699737548828,24.034000396728516 C81.47699737548828,9.694000244140625 77.77300262451172,-3.7809998989105225 71.26899719238281,-15.484999656677246z"/><path stroke-linecap="butt" stroke-linejoin="miter" fill-opacity="0" stroke-miterlimit="4" stroke="rgb(41,25,62)" stroke-opacity="1" stroke-width="3" d=" M71.26899719238281,-15.484999656677246 C73.45899963378906,-22.054000854492188 74.65899658203125,-29.18899917602539 74.65899658203125,-36.64799880981445 C74.65899658203125,-69.22000122070312 51.76499938964844,-95.625 23.523000717163086,-95.625 C0.3149999976158142,-95.625 -19.281999588012695,-77.79399871826172 -25.5310001373291,-53.362998962402344 C-58.02399826049805,-42.6510009765625 -81.47699737548828,-12.04699993133545 -81.47699737548828,24.034000396728516 C-81.47699737548828,69.03299713134766 -44.99800109863281,95.625 0,95.625 C44.999000549316406,95.625 81.47699737548828,69.03299713134766 81.47699737548828,24.034000396728516 C81.47699737548828,9.694000244140625 77.77300262451172,-3.7809998989105225 71.26899719238281,-15.484999656677246z"/></g><g opacity="1" transform="matrix(1,0,0,1,137.96800231933594,54.99399948120117)"><path stroke-linecap="round" stroke-linejoin="miter" fill-opacity="0" stroke-miterlimit="4" stroke="rgb(41,24,61)" stroke-opacity="1" stroke-width="3" d=" M-4.7729997634887695,-1.4919999837875366 C-4.7729997634887695,-1.4919999837875366 -1.305999994277954,-2.257999897003174 0.6819999814033508,-1.4919999837875366 C2.7039999961853027,-0.7129999995231628 4.7729997634887695,2.257999897003174 4.7729997634887695,2.257999897003174"/></g><g opacity="1" transform="matrix(1,0,0,1,127.00700378417969,52.61000061035156)"><path fill="rgb(41,24,61)" fill-opacity="1" d=" M4.945000171661377,1.7009999752044678 C4.067999839782715,4.25 1.1629999876022339,5.663000106811523 -1.6200000047683716,4.705999851226807 C-4.4019999504089355,3.749000072479248 -5.821000099182129,0.8479999899864197 -4.945000171661377,-1.7000000476837158 C-4.067999839782715,-4.249000072479248 -1.1640000343322754,-5.663000106811523 1.6180000305175781,-4.705999851226807 C4.401000022888184,-3.749000072479248 5.822000026702881,-0.8479999899864197 4.945000171661377,1.7009999752044678z"/></g><g opacity="1" transform="matrix(1,0,0,1,127.00700378417969,52.61000061035156)"><path stroke-linecap="round" stroke-linejoin="miter" fill-opacity="0" stroke-miterlimit="4" stroke="rgb(41,24,61)" stroke-opacity="1" stroke-width="3" d=" M4.945000171661377,1.7009999752044678 C4.067999839782715,4.25 1.1629999876022339,5.663000106811523 -1.6200000047683716,4.705999851226807 C-4.4019999504089355,3.749000072479248 -5.821000099182129,0.8479999899864197 -4.945000171661377,-1.7000000476837158 C-4.067999839782715,-4.249000072479248 -1.1640000343322754,-5.663000106811523 1.6180000305175781,-4.705999851226807 C4.401000022888184,-3.749000072479248 5.822000026702881,-0.8479999899864197 4.945000171661377,1.7009999752044678z"/></g><g opacity="1" transform="matrix(1,0,0,1,148.14199829101562,58.74700164794922)"><path fill="rgb(41,24,61)" fill-opacity="1" d=" M4.945000171661377,1.7009999752044678 C4.068999767303467,4.25 1.1640000343322754,5.664000034332275 -1.6180000305175781,4.706999778747559 C-4.401000022888184,3.749000072479248 -5.821000099182129,0.8479999899864197 -4.943999767303467,-1.7009999752044678 C-4.067999839782715,-4.25 -1.1619999408721924,-5.664000034332275 1.6200000047683716,-4.706999778747559 C4.4019999504089355,-3.749000072479248 5.822000026702881,-0.8479999899864197 4.945000171661377,1.7009999752044678z"/></g><g opacity="1" transform="matrix(1,0,0,1,148.14199829101562,58.74700164794922)"><path stroke-linecap="round" stroke-linejoin="miter" fill-opacity="0" stroke-miterlimit="4" stroke="rgb(41,24,61)" stroke-opacity="1" stroke-width="3" d=" M4.945000171661377,1.7009999752044678 C4.068999767303467,4.25 1.1640000343322754,5.664000034332275 -1.6180000305175781,4.706999778747559 C-4.401000022888184,3.749000072479248 -5.821000099182129,0.8479999899864197 -4.943999767303467,-1.7009999752044678 C-4.067999839782715,-4.25 -1.1619999408721924,-5.664000034332275 1.6200000047683716,-4.706999778747559 C4.4019999504089355,-3.749000072479248 5.822000026702881,-0.8479999899864197 4.945000171661377,1.7009999752044678z"/></g><g opacity="1" transform="matrix(1,0,0,1,134.197998046875,65.91699981689453)"><path stroke-linecap="round" stroke-linejoin="round" fill-opacity="0" stroke="rgb(41,24,61)" stroke-opacity="1" stroke-width="2.848" d=" M-2.7219998836517334,-2.8980000019073486 C-2.7219998836517334,-2.8980000019073486 -3.052999973297119,-1.9670000076293945 -3.052999973297119,-1.9670000076293945 C-3.690999984741211,-0.17100000381469727 -2.7079999446868896,1.7940000295639038 -0.8889999985694885,2.3610000610351562 C0.8320000171661377,2.8980000019073486 2.6689999103546143,1.9789999723434448 3.2720000743865967,0.2809999883174896 C3.2720000743865967,0.2809999883174896 3.690999984741211,-0.8980000019073486 3.690999984741211,-0.8980000019073486"/></g></g><g transform="matrix(1,0,0,1,110.28700256347656,131.41900634765625)" opacity="1" style="display: block;"><g opacity="1" transform="matrix(1,0,0,1,153.5959930419922,62.45899963378906)"><path fill="rgb(236,240,247)" fill-opacity="1" d=" M-67.33899688720703,-54.95899963378906 C-69.33399963378906,-48.018001556396484 -70.99800109863281,-39.70399856567383 -71.49700164794922,-26.735000610351562 C-71.5739974975586,-7.303999900817871 -76.11399841308594,-14.897000312805176 -76.11100006103516,-14.897000312805176 C-76.11100006103516,-14.897000312805176 -76.09600067138672,-14.895999908447266 -76.09600067138672,-14.895999908447266 C-76.09600067138672,-14.895999908447266 -76.08100128173828,-14.895999908447266 -76.08100128173828,-14.895999908447266 C-76.08100128173828,-14.895999908447266 -76.0790023803711,-14.895999908447266 -76.0790023803711,-14.895999908447266 C-76.0790023803711,-14.895999908447266 -76.1760025024414,-14.895999908447266 -76.1760025024414,-14.895999908447266 C-76.28500366210938,-14.895000457763672 -84.44400024414062,-14.460000038146973 -87.85399627685547,-14.00100040435791 C-87.94400024414062,-13.98900032043457 -88.03399658203125,-13.975000381469727 -88.1240005493164,-13.963000297546387 C-66.6259994506836,-9.244000434875488 -35.29899978637695,-6.2270002365112305 -2.7339999675750732,-5.651000022888184 C34.82500076293945,-4.985000133514404 94.41699981689453,-13.70300006866455 95.10099792480469,-13.895999908447266 C94.85099792480469,-13.956000328063965 88.34400177001953,-14.906999588012695 88.33100128173828,-14.907999992370605 C88.32499694824219,-14.907999992370605 88.33300018310547,-14.907999992370605 88.35399627685547,-14.906999588012695 C88.35399627685547,-14.906999588012695 88.3949966430664,-14.906000137329102 88.3949966430664,-14.906000137329102 C88.3949966430664,-14.906000137329102 88.42500305175781,-14.904999732971191 88.42500305175781,-14.904999732971191 C88.42500305175781,-14.904999732971191 88.45099639892578,-14.904000282287598 88.45099639892578,-14.904000282287598 C88.45500183105469,-14.904000282287598 88.46099853515625,-14.904000282287598 88.95899963378906,-34.32899856567383 C89.45800018310547,-53.75400161743164 89.46299743652344,-53.75400161743164 89.46700286865234,-53.75299835205078 C89.46700286865234,-53.75299835205078 89.49800109863281,-53.75299835205078 89.49800109863281,-53.75299835205078 C89.49800109863281,-53.75299835205078 89.54499816894531,-53.750999450683594 89.54499816894531,-53.750999450683594 C89.56500244140625,-53.750999450683594 89.58699798583984,-53.750999450683594 89.61000061035156,-53.75 C89.61000061035156,-53.75 89.66000366210938,-53.749000549316406 89.66000366210938,-53.749000549316406 C89.74400329589844,-53.74599838256836 146.0959930419922,-50.124000549316406 146.0959930419922,-12.4350004196167 C146.0959930419922,43.430999755859375 66.28600311279297,54.95899963378906 -3.4230000972747803,54.48699951171875 C-42.11600112915039,53.79999923706055 -142.98899841308594,41.65800094604492 -146.0959930419922,-12.4350004196167 C-143.43600463867188,-48.349998474121094 -96.85199737548828,-54.95899963378906 -67.33899688720703,-54.95899963378906z"/></g><g opacity="1" transform="matrix(1,0,0,1,153.5959930419922,62.45899963378906)"><path stroke-linecap="round" stroke-linejoin="round" fill-opacity="0" stroke="rgb(41,24,61)" stroke-opacity="1" stroke-width="3" d=" M-67.33899688720703,-54.95899963378906 C-69.33399963378906,-48.018001556396484 -70.99800109863281,-39.70399856567383 -71.49700164794922,-26.735000610351562 C-71.5739974975586,-7.303999900817871 -76.11399841308594,-14.897000312805176 -76.11100006103516,-14.897000312805176 C-76.11100006103516,-14.897000312805176 -76.09600067138672,-14.895999908447266 -76.09600067138672,-14.895999908447266 C-76.09600067138672,-14.895999908447266 -76.08100128173828,-14.895999908447266 -76.08100128173828,-14.895999908447266 C-76.08100128173828,-14.895999908447266 -76.0790023803711,-14.895999908447266 -76.0790023803711,-14.895999908447266 C-76.0790023803711,-14.895999908447266 -76.1760025024414,-14.895999908447266 -76.1760025024414,-14.895999908447266 C-76.28500366210938,-14.895000457763672 -84.44400024414062,-14.460000038146973 -87.85399627685547,-14.00100040435791 C-87.94400024414062,-13.98900032043457 -88.03399658203125,-13.975000381469727 -88.1240005493164,-13.963000297546387 C-66.6259994506836,-9.244000434875488 -35.29899978637695,-6.2270002365112305 -2.7339999675750732,-5.651000022888184 C34.82500076293945,-4.985000133514404 94.41699981689453,-13.70300006866455 95.10099792480469,-13.895999908447266 C94.85099792480469,-13.956000328063965 88.34400177001953,-14.906999588012695 88.33100128173828,-14.907999992370605 C88.32499694824219,-14.907999992370605 88.33300018310547,-14.907999992370605 88.35399627685547,-14.906999588012695 C88.35399627685547,-14.906999588012695 88.3949966430664,-14.906000137329102 88.3949966430664,-14.906000137329102 C88.3949966430664,-14.906000137329102 88.42500305175781,-14.904999732971191 88.42500305175781,-14.904999732971191 C88.42500305175781,-14.904999732971191 88.45099639892578,-14.904000282287598 88.45099639892578,-14.904000282287598 C88.45500183105469,-14.904000282287598 88.46099853515625,-14.904000282287598 88.95899963378906,-34.32899856567383 C89.45800018310547,-53.75400161743164 89.46299743652344,-53.75400161743164 89.46700286865234,-53.75299835205078 C89.46700286865234,-53.75299835205078 89.49800109863281,-53.75299835205078 89.49800109863281,-53.75299835205078 C89.49800109863281,-53.75299835205078 89.54499816894531,-53.750999450683594 89.54499816894531,-53.750999450683594 C89.56500244140625,-53.750999450683594 89.58699798583984,-53.750999450683594 89.61000061035156,-53.75 C89.61000061035156,-53.75 89.66000366210938,-53.749000549316406 89.66000366210938,-53.749000549316406 C89.74400329589844,-53.74599838256836 146.0959930419922,-50.124000549316406 146.0959930419922,-12.4350004196167 C146.0959930419922,43.430999755859375 66.28600311279297,54.95899963378906 -3.4230000972747803,54.48699951171875 C-42.11600112915039,53.79999923706055 -142.98899841308594,41.65800094604492 -146.0959930419922,-12.4350004196167 C-143.43600463867188,-48.349998474121094 -96.85199737548828,-54.95899963378906 -67.33899688720703,-54.95899963378906z"/></g><g opacity="1" transform="matrix(1,0,0,1,232.21400451660156,66.99500274658203)"><path fill="rgb(255,255,255)" fill-opacity="1" d=" M0,-7.5 C4.14300012588501,-7.5 7.5,-4.14300012588501 7.5,0 C7.5,4.142000198364258 4.14300012588501,7.5 0,7.5 C-4.14300012588501,7.5 -7.5,4.142000198364258 -7.5,0 C-7.5,-4.14300012588501 -4.14300012588501,-7.5 0,-7.5z"/></g><g opacity="1" transform="matrix(1,0,0,1,259.2139892578125,85.99500274658203)"><path fill="rgb(255,255,255)" fill-opacity="1" d=" M0,-7.5 C4.14300012588501,-7.5 7.5,-4.14300012588501 7.5,0 C7.5,4.142000198364258 4.14300012588501,7.5 0,7.5 C-4.14300012588501,7.5 -7.5,4.142000198364258 -7.5,0 C-7.5,-4.14300012588501 -4.14300012588501,-7.5 0,-7.5z"/></g><g opacity="1" transform="matrix(1,0,0,1,290.2139892578125,57.994998931884766)"><path fill="rgb(255,255,255)" fill-opacity="1" d=" M0,-7.5 C4.14300012588501,-7.5 7.5,-4.14300012588501 7.5,0 C7.5,4.142000198364258 4.14300012588501,7.5 0,7.5 C-4.14300012588501,7.5 -7.5,4.142000198364258 -7.5,0 C-7.5,-4.14300012588501 -4.14300012588501,-7.5 0,-7.5z"/></g><g opacity="1" transform="matrix(1,0,0,1,211.21400451660156,92.99500274658203)"><path fill="rgb(255,255,255)" fill-opacity="1" d=" M0,-7.5 C4.14300012588501,-7.5 7.5,-4.14300012588501 7.5,0 C7.5,4.142000198364258 4.14300012588501,7.5 0,7.5 C-4.14300012588501,7.5 -7.5,4.142000198364258 -7.5,0 C-7.5,-4.14300012588501 -4.14300012588501,-7.5 0,-7.5z"/></g><g opacity="1" transform="matrix(1,0,0,1,140.21400451660156,96.99500274658203)"><path fill="rgb(255,255,255)" fill-opacity="1" d=" M0,-7.5 C4.142000198364258,-7.5 7.5,-4.14300012588501 7.5,0 C7.5,4.142000198364258 4.142000198364258,7.5 0,7.5 C-4.142000198364258,7.5 -7.5,4.142000198364258 -7.5,0 C-7.5,-4.14300012588501 -4.142000198364258,-7.5 0,-7.5z"/></g><g opacity="1" transform="matrix(1,0,0,1,113.21399688720703,74.99500274658203)"><path fill="rgb(255,255,255)" fill-opacity="1" d=" M0,-7.5 C4.142000198364258,-7.5 7.5,-4.14300012588501 7.5,0 C7.5,4.142000198364258 4.142000198364258,7.5 0,7.5 C-4.142000198364258,7.5 -7.5,4.142000198364258 -7.5,0 C-7.5,-4.14300012588501 -4.142000198364258,-7.5 0,-7.5z"/></g><g opacity="1" transform="matrix(1,0,0,1,165.21400451660156,73.99500274658203)"><path fill="rgb(255,255,255)" fill-opacity="1" d=" M0,-7.5 C4.142000198364258,-7.5 7.5,-4.14300012588501 7.5,0 C7.5,4.142000198364258 4.142000198364258,7.5 0,7.5 C-4.142000198364258,7.5 -7.5,4.142000198364258 -7.5,0 C-7.5,-4.14300012588501 -4.142000198364258,-7.5 0,-7.5z"/></g><g opacity="1" transform="matrix(1,0,0,1,49.2140007019043,64.99500274658203)"><path fill="rgb(255,255,255)" fill-opacity="1" d=" M0,-7.5 C4.142000198364258,-7.5 7.5,-4.14300012588501 7.5,0 C7.5,4.142000198364258 4.142000198364258,7.5 0,7.5 C-4.142000198364258,7.5 -7.5,4.142000198364258 -7.5,0 C-7.5,-4.14300012588501 -4.142000198364258,-7.5 0,-7.5z"/></g><g opacity="1" transform="matrix(1,0,0,1,20.214000701904297,50.994998931884766)"><path fill="rgb(255,255,255)" fill-opacity="1" d=" M0,-7.5 C4.142000198364258,-7.5 7.5,-4.14300012588501 7.5,0 C7.5,4.142000198364258 4.142000198364258,7.5 0,7.5 C-4.142000198364258,7.5 -7.5,4.142000198364258 -7.5,0 C-7.5,-4.14300012588501 -4.142000198364258,-7.5 0,-7.5z"/></g><g opacity="1" transform="matrix(1,0,0,1,66.21399688720703,19.9950008392334)"><path fill="rgb(255,255,255)" fill-opacity="1" d=" M0,-7.5 C4.142000198364258,-7.5 7.5,-4.142000198364258 7.5,0 C7.5,4.142000198364258 4.142000198364258,7.5 0,7.5 C-4.142000198364258,7.5 -7.5,4.142000198364258 -7.5,0 C-7.5,-4.142000198364258 -4.142000198364258,-7.5 0,-7.5z"/></g><g opacity="1" transform="matrix(1,0,0,1,67.09600067138672,84.7959976196289)"><path fill="rgb(255,255,255)" fill-opacity="1" d=" M0,-7.5 C4.142000198364258,-7.5 7.5,-4.142000198364258 7.5,0 C7.5,4.14300012588501 4.142000198364258,7.5 0,7.5 C-4.142000198364258,7.5 -7.5,4.14300012588501 -7.5,0 C-7.5,-4.142000198364258 -4.142000198364258,-7.5 0,-7.5z"/></g></g><g transform="matrix(1,0,0,1,89.19000244140625,151.17800903320312)" opacity="1" style="display: block;"><g opacity="1" transform="matrix(1,0,0,1,62.87200164794922,54.20000076293945)"><path fill="rgb(188,153,255)" fill-opacity="1" d=" M25.676000595092773,-24.854999542236328 C6.025000095367432,-27.40399932861328 8.194999694824219,-16.172000885009766 -5.265999794006348,17.51300048828125 C-18.72599983215332,51.20000076293945 -48.93899917602539,39.89799880981445 -36.06100082397461,17.51300048828125 C-26.85700035095215,-1.5779999494552612 -25.195999145507812,-14.781000137329102 -20.266000747680664,-26.464000701904297 C-11.770999908447266,-46.5989990234375 8.142000198364258,-51.20000076293945 20.17300033569336,-49.63999938964844 C26.152999877929688,-48.86399841308594 31.152000427246094,-47.542999267578125 36.64099884033203,-43.39899826049805 C44.43199920654297,-37.51599884033203 47.87200164794922,-28.392000198364258 48.93899917602539,-21.635000228881836 C48.93899917602539,-21.635000228881836 25.676000595092773,-24.854999542236328 25.676000595092773,-24.854999542236328z"/></g><g opacity="1" transform="matrix(1,0,0,1,62.87200164794922,54.20000076293945)"><path stroke-linecap="round" stroke-linejoin="miter" fill-opacity="0" stroke-miterlimit="4" stroke="rgb(41,24,61)" stroke-opacity="1" stroke-width="3" d=" M25.676000595092773,-24.854999542236328 C6.025000095367432,-27.40399932861328 8.194999694824219,-16.172000885009766 -5.265999794006348,17.51300048828125 C-18.72599983215332,51.20000076293945 -48.93899917602539,39.89799880981445 -36.06100082397461,17.51300048828125 C-26.85700035095215,-1.5779999494552612 -25.195999145507812,-14.781000137329102 -20.266000747680664,-26.464000701904297 C-11.770999908447266,-46.5989990234375 8.142000198364258,-51.20000076293945 20.17300033569336,-49.63999938964844 C26.152999877929688,-48.86399841308594 31.152000427246094,-47.542999267578125 36.64099884033203,-43.39899826049805 C44.43199920654297,-37.51599884033203 47.87200164794922,-28.392000198364258 48.93899917602539,-21.635000228881836 C48.93899917602539,-21.635000228881836 25.676000595092773,-24.854999542236328 25.676000595092773,-24.854999542236328z"/></g><g opacity="1" transform="matrix(1,0,0,1,28.1560001373291,78.34100341796875)"><path fill="rgb(189,153,255)" fill-opacity="1" d=" M11.400616645812988,-8.472203254699707 C11.329911231994629,-8.436080932617188 -4.830969333648682,-16.171245574951172 -4.830969333648682,-16.171245574951172 C-11.289151191711426,-19.262483596801758 -19.030271530151367,-16.532106399536133 -22.120525360107422,-10.07392406463623 C-25.211763381958008,-3.6157426834106445 -22.481369018554688,4.126377105712891 -16.0231876373291,7.217615127563477 C-16.0231876373291,7.217615127563477 -6.934858322143555,11.56567096710205 -6.934858322143555,11.56567096710205 C7.381693363189697,19.757726669311523 14.847996711730957,16.94098472595215 25.16571044921875,1.889778971672058"/><path stroke-linecap="round" stroke-linejoin="miter" fill-opacity="0" stroke-miterlimit="4" stroke="rgb(41,24,61)" stroke-opacity="1" stroke-width="3" d=" M11.400616645812988,-8.472203254699707 C11.329911231994629,-8.436080932617188 -4.830969333648682,-16.171245574951172 -4.830969333648682,-16.171245574951172 C-11.289151191711426,-19.262483596801758 -19.030271530151367,-16.532106399536133 -22.120525360107422,-10.07392406463623 C-25.211763381958008,-3.6157426834106445 -22.481369018554688,4.126377105712891 -16.0231876373291,7.217615127563477 C-16.0231876373291,7.217615127563477 -6.934858322143555,11.56567096710205 -6.934858322143555,11.56567096710205 C7.381693363189697,19.757726669311523 14.847996711730957,16.94098472595215 25.16571044921875,1.889778971672058"/></g></g><g transform="matrix(1,0,0,1,145.10501098632812,157.54701232910156)" opacity="1" style="display: block;"><g opacity="1" transform="matrix(1,0,0,1,62.52199935913086,63.80799865722656)"><path fill="rgb(188,153,255)" fill-opacity="1" d=" M28.284000396728516,-55.32899856567383 C14.37600040435791,-60.80799865722656 -1.5329999923706055,-58.845001220703125 -7.327000141143799,-41.290000915527344 C-17.485000610351562,-2.065999984741211 -11.062000274658203,-2.311000108718872 -32.31100082397461,29.176000595092773 C-45.66999816894531,44.63999938964844 -25.606000900268555,60.80799865722656 -4.406000137329102,35.60599899291992 C8.550999641418457,20.201000213623047 15.003000259399414,-2.694000005722046 18.06100082397461,-18.172000885009766 C21.53499984741211,-32.56399917602539 29.545000076293945,-33.770999908447266 45.66899871826172,-33.85200119018555 C45.66899871826172,-33.85200119018555 38.32400131225586,-51.37300109863281 28.284000396728516,-55.32899856567383z"/></g><g opacity="1" transform="matrix(1,0,0,1,62.52199935913086,63.80799865722656)"><path stroke-linecap="round" stroke-linejoin="miter" fill-opacity="0" stroke-miterlimit="4" stroke="rgb(41,24,61)" stroke-opacity="1" stroke-width="3" d=" M28.284000396728516,-55.32899856567383 C14.37600040435791,-60.80799865722656 -1.5329999923706055,-58.845001220703125 -7.327000141143799,-41.290000915527344 C-17.485000610351562,-2.065999984741211 -11.062000274658203,-2.311000108718872 -32.31100082397461,29.176000595092773 C-45.66999816894531,44.63999938964844 -25.606000900268555,60.80799865722656 -4.406000137329102,35.60599899291992 C8.550999641418457,20.201000213623047 15.003000259399414,-2.694000005722046 18.06100082397461,-18.172000885009766 C21.53499984741211,-32.56399917602539 29.545000076293945,-33.770999908447266 45.66899871826172,-33.85200119018555 C45.66899871826172,-33.85200119018555 38.32400131225586,-51.37300109863281 28.284000396728516,-55.32899856567383z"/></g><g opacity="1" transform="matrix(1,0,0,1,23.947999954223633,93.7490005493164)"><path fill="rgb(189,153,255)" fill-opacity="1" d=" M15.947999954223633,-8.383999824523926 C15.947999954223633,-8.383999824523926 -0.08299999684095383,-16.163000106811523 -0.08299999684095383,-16.163000106811523 C-6.6579999923706055,-19.381999969482422 -14.597999572753906,-16.66200065612793 -17.81800079345703,-10.086999893188477 C-20.947999954223633,-3.694999933242798 -18.469999313354492,4.03000020980835 -12.206000328063965,7.408999919891357 C-12.206000328063965,7.408999919891357 -2.0409998893737793,13.055999755859375 -0.9319999814033508,13.802000045776367 C5.61899995803833,18.20400047302246 14.032999992370605,19.381999969482422 20.947999954223633,16.615999221801758"/><path stroke-linecap="round" stroke-linejoin="miter" fill-opacity="0" stroke-miterlimit="4" stroke="rgb(41,24,61)" stroke-opacity="1" stroke-width="3" d=" M15.947999954223633,-8.383999824523926 C15.947999954223633,-8.383999824523926 -0.08299999684095383,-16.163000106811523 -0.08299999684095383,-16.163000106811523 C-6.6579999923706055,-19.381999969482422 -14.597999572753906,-16.66200065612793 -17.81800079345703,-10.086999893188477 C-20.947999954223633,-3.694999933242798 -18.469999313354492,4.03000020980835 -12.206000328063965,7.408999919891357 C-12.206000328063965,7.408999919891357 -2.0409998893737793,13.055999755859375 -0.9319999814033508,13.802000045776367 C5.61899995803833,18.20400047302246 14.032999992370605,19.381999969482422 20.947999954223633,16.615999221801758"/></g></g><g transform="matrix(1,0,0,1,268.02398681640625,159.31800842285156)" opacity="1" style="display: block;"><g opacity="1" transform="matrix(1,0,0,1,29.590999603271484,64.00199890136719)"><path fill="rgb(188,153,255)" fill-opacity="1" d=" M-20.11400032043457,-42.59400177001953 C-20.11400032043457,-60.65999984741211 6.817999839782715,-61.00199890136719 8.522000312805176,-42.59400177001953 C9.61400032043457,-2.0889999866485596 3.4089999198913574,-3.7709999084472656 17.045000076293945,31.68199920654297 C26.590999603271484,49.75199890136719 3.4089999198913574,61.00199890136719 -11.590999603271484,31.68199920654297 C-26.590999603271484,2.36299991607666 -20.11400032043457,-42.59400177001953 -20.11400032043457,-42.59400177001953z"/></g><g opacity="1" transform="matrix(1,0,0,1,29.590999603271484,64.00199890136719)"><path stroke-linecap="round" stroke-linejoin="miter" fill-opacity="0" stroke-miterlimit="4" stroke="rgb(41,24,61)" stroke-opacity="1" stroke-width="3" d=" M-20.11400032043457,-42.59400177001953 C-20.11400032043457,-60.65999984741211 6.817999839782715,-61.00199890136719 8.522000312805176,-42.59400177001953 C9.61400032043457,-2.0889999866485596 3.4089999198913574,-3.7709999084472656 17.045000076293945,31.68199920654297 C26.590999603271484,49.75199890136719 3.4089999198913574,61.00199890136719 -11.590999603271484,31.68199920654297 C-26.590999603271484,2.36299991607666 -20.11400032043457,-42.59400177001953 -20.11400032043457,-42.59400177001953z"/></g><g opacity="1" transform="matrix(1,0,0,1,46.23099899291992,99.19999694824219)"><path fill="rgb(189,153,255)" fill-opacity="1" d=" M-11.614762306213379,-8.594754219055176 C-11.607030868530273,-8.581698417663574 4.619929313659668,-16.437734603881836 4.654470443725586,-16.434288024902344 C11.113909721374512,-19.57752799987793 18.881376266479492,-16.892574310302734 22.024658203125,-10.442177772521973 C25.167940139770508,-3.9917805194854736 22.488065719604492,3.7862236499786377 16.03567123413086,6.929502487182617 C16.03567123413086,6.929502487182617 6.973512649536133,11.351958274841309 6.973512649536133,11.351958274841309 C-7.363986968994141,19.665382385253906 -14.841628074645996,16.900083541870117 -25.155092239379883,1.8935409784317017"/><path stroke-linecap="round" stroke-linejoin="miter" fill-opacity="0" stroke-miterlimit="4" stroke="rgb(41,24,61)" stroke-opacity="1" stroke-width="3" d=" M-11.614762306213379,-8.594754219055176 C-11.607030868530273,-8.581698417663574 4.619929313659668,-16.437734603881836 4.654470443725586,-16.434288024902344 C11.113909721374512,-19.57752799987793 18.881376266479492,-16.892574310302734 22.024658203125,-10.442177772521973 C25.167940139770508,-3.9917805194854736 22.488065719604492,3.7862236499786377 16.03567123413086,6.929502487182617 C16.03567123413086,6.929502487182617 6.973512649536133,11.351958274841309 6.973512649536133,11.351958274841309 C-7.363986968994141,19.665382385253906 -14.841628074645996,16.900083541870117 -25.155092239379883,1.8935409784317017"/></g></g><g transform="matrix(1,0,0,1,326.6810302734375,46.866004943847656)" opacity="1" style="display: block;"><g opacity="1" transform="matrix(1,0,0,1,49.03499984741211,92.98699951171875)"><path fill="rgb(188,153,255)" fill-opacity="1" d=" M-17.677000045776367,-2.1029999256134033 C-12.616999626159668,1.281999945640564 -5.309000015258789,2.937000036239624 2.3970000743865967,-0.006000000052154064 C4.494999885559082,-0.8069999814033508 7.019000053405762,-2.697999954223633 9.77400016784668,-6.0329999923706055 C12.472000122070312,-9.300999641418457 14.90999984741211,-13.369000434875488 16.993999481201172,-17.562000274658203 C19.058000564575195,-21.71500015258789 20.643999099731445,-23.679000854492188 21.71500015258789,-26.66699981689453 C22.24799919128418,-28.150999069213867 22.645000457763672,-29.358999252319336 22.902999877929688,-30.17799949645996 C23.031999588012695,-30.586000442504883 23.125999450683594,-30.895999908447266 23.184999465942383,-31.091999053955078 C23.214000701904297,-31.19099998474121 23.233999252319336,-31.259000778198242 23.246000289916992,-31.298999786376953 C23.246000289916992,-31.298999786376953 23.253000259399414,-31.325000762939453 23.253000259399414,-31.325000762939453 C23.253000259399414,-31.325000762939453 23.253999710083008,-31.32900047302246 23.253999710083008,-31.32900047302246 C23.253999710083008,-31.32900047302246 23.256000518798828,-31.334999084472656 23.256000518798828,-31.334999084472656 C23.256000518798828,-31.334999084472656 48.78499984741211,-18.44099998474121 48.78499984741211,-18.44099998474121 C48.78499984741211,-18.44099998474121 41.821998596191406,-10.59000015258789 41.76900100708008,-10.440999984741211 C40.50600051879883,-6.920000076293945 38.45100021362305,-6.427999973297119 35.922000885009766,-1.3389999866485596 C33.41299819946289,3.7100000381469727 30.148000717163086,9.307999610900879 26.06999969482422,14.244999885559082 C22.048999786376953,19.113000869750977 16.725000381469727,23.96500015258789 9.939000129699707,26.55699920654297 C-4.89300012588501,32.22200012207031 -19.344999313354492,29.030000686645508 -29.42799949645996,22.28499984741211 C-34.441001892089844,18.93199920654297 -38.70100021362305,14.491999626159668 -41.40700149536133,9.37399959564209 C-44.10200119018555,4.28000020980835 -48.78499984741211,-7.526000022888184 -46.737998962402344,-14.053000450134277 C-46.737998962402344,-14.053000450134277 -44.35100173950195,-32.222999572753906 -33.78300094604492,-28.711999893188477 C-22.256000518798828,-24.882999420166016 -31.738000869750977,-16.097999572753906 -17.677000045776367,-2.1029999256134033z"/></g><g opacity="1" transform="matrix(1,0,0,1,54.472999572753906,90.67500305175781)"><path stroke-linecap="round" stroke-linejoin="miter" fill-opacity="0" stroke-miterlimit="4" stroke="rgb(41,24,61)" stroke-opacity="1" stroke-width="3" d=" M-46.84600067138672,11.685999870300293 C-44.13999938964844,16.804000854492188 -39.87900161743164,21.243000030517578 -34.867000579833984,24.59600067138672 C-24.783000946044922,31.340999603271484 -10.331000328063965,34.53499984741211 4.500999927520752,28.8700008392334 C11.286999702453613,26.277999877929688 16.610000610351562,21.424999237060547 20.631999969482422,16.55699920654297 C24.709999084472656,11.619999885559082 30.020000457763672,1.25 32.52899932861328,-3.7990000247955322 C35.05799865722656,-8.887999534606934 46.84600067138672,-17.660999298095703 46.84600067138672,-17.660999298095703 C46.84600067138672,-17.660999298095703 41.34600067138672,-24.354999542236328 36.33100128173828,-17.660999298095703 C36.33100128173828,-17.660999298095703 19.375999450683594,-34.53499984741211 19.375999450683594,-34.53499984741211 C19.375999450683594,-34.53499984741211 17.816999435424805,-29.023000717163086 17.816999435424805,-29.023000717163086 C17.816999435424805,-29.023000717163086 17.815000534057617,-29.016000747680664 17.815000534057617,-29.016000747680664 C17.815000534057617,-29.016000747680664 17.81399917602539,-29.011999130249023 17.81399917602539,-29.011999130249023 C17.81399917602539,-29.011999130249023 17.80699920654297,-28.988000869750977 17.80699920654297,-28.988000869750977 C17.79599952697754,-28.947999954223633 17.774999618530273,-28.878999710083008 17.746999740600586,-28.7810001373291 C17.687000274658203,-28.583999633789062 17.593000411987305,-28.27400016784668 17.46500015258789,-27.864999771118164 C17.207000732421875,-27.047000885009766 16.80900001525879,-25.839000701904297 16.275999069213867,-24.354999542236328 C15.206000328063965,-21.368000030517578 13.619999885559082,-17.358999252319336 11.555000305175781,-13.206000328063965 C9.470999717712402,-9.01200008392334 7.033999919891357,-6.988999843597412 4.335999965667725,-3.7209999561309814 C1.5809999704360962,-0.38600000739097595 -0.9440000057220459,1.5049999952316284 -3.0409998893737793,2.306999921798706 C-10.746999740600586,5.25 -18.055999755859375,3.5950000286102295 -23.115999221801758,0.20999999344348907 C-37.17599868774414,-13.78600025177002 -27.69499969482422,-22.570999145507812 -39.22200012207031,-26.399999618530273"/></g><g opacity="1" transform="matrix(1,0,0,1,65.66699981689453,61.362998962402344)"><path fill="rgb(188,153,255)" fill-opacity="1" d=" M6.448999881744385,-3.5290000438690186 C7.3480000495910645,-0.33899998664855957 3.7799999713897705,12.807999610900879 3.7799999713897705,12.807999610900879 C3.7799999713897705,12.807999610900879 -2.447000026702881,5.11299991607666 -3.1760001182556152,-0.8159999847412109 C-3.750999927520752,-5.5 -7.3480000495910645,-12.710000038146973 -1.3480000495910645,-12.760000228881836 C4.3520002365112305,-12.807999610900879 5.551000118255615,-6.7179999351501465 6.448999881744385,-3.5290000438690186z"/></g><g opacity="1" transform="matrix(1,0,0,1,65.66699981689453,61.362998962402344)"><path stroke-linecap="round" stroke-linejoin="miter" fill-opacity="0" stroke-miterlimit="4" stroke="rgb(41,24,61)" stroke-opacity="1" stroke-width="3" d=" M6.448999881744385,-3.5290000438690186 C7.3480000495910645,-0.33899998664855957 3.7799999713897705,12.807999610900879 3.7799999713897705,12.807999610900879 C3.7799999713897705,12.807999610900879 -2.447000026702881,5.11299991607666 -3.1760001182556152,-0.8159999847412109 C-3.750999927520752,-5.5 -7.3480000495910645,-12.710000038146973 -1.3480000495910645,-12.760000228881836 C4.3520002365112305,-12.807999610900879 5.551000118255615,-6.7179999351501465 6.448999881744385,-3.5290000438690186z"/></g><g opacity="1" transform="matrix(1,0,0,1,82.35900115966797,56.96099853515625)"><path fill="rgb(136,208,255)" fill-opacity="1" d=" M19.618999481201172,-10.741000175476074 C23.812999725341797,-22.740999221801758 -8.652000427246094,-34.43600082397461 -10.994999885559082,-20.23699951171875 C-10.994999885559082,-20.23699951171875 -19.445999145507812,17.08099937438965 -19.445999145507812,17.08099937438965 C-23.812999725341797,27.030000686645508 0.0729999989271164,34.43600082397461 2.253999948501587,26.983999252319336 C2.253999948501587,26.983999252319336 19.618999481201172,-10.741000175476074 19.618999481201172,-10.741000175476074z"/></g><g opacity="1" transform="matrix(1,0,0,1,82.35900115966797,56.96099853515625)"><path stroke-linecap="round" stroke-linejoin="miter" fill-opacity="0" stroke-miterlimit="4" stroke="rgb(41,24,61)" stroke-opacity="1" stroke-width="3" d=" M19.618999481201172,-10.741000175476074 C23.812999725341797,-22.740999221801758 -8.652000427246094,-34.43600082397461 -10.994999885559082,-20.23699951171875 C-10.994999885559082,-20.23699951171875 -19.445999145507812,17.08099937438965 -19.445999145507812,17.08099937438965 C-23.812999725341797,27.030000686645508 0.0729999989271164,34.43600082397461 2.253999948501587,26.983999252319336 C2.253999948501587,26.983999252319336 19.618999481201172,-10.741000175476074 19.618999481201172,-10.741000175476074z"/></g><g opacity="1" transform="matrix(1,0,0,1,83.7979965209961,37.930999755859375)"><path fill="rgb(136,208,255)" fill-opacity="1" d=" M18.31800079345703,9.95199966430664 C24.73900032043457,18.839000701904297 -24.73900032043457,2.934000015258789 -12.859000205993652,-0.3100000023841858 C-12.859000205993652,-0.3100000023841858 -12.508999824523926,-12.246999740600586 -4.519000053405762,-15.399999618530273 C4.198999881744385,-18.84000015258789 15.513999938964844,-15.215999603271484 19.961000442504883,-6.965000152587891 C23.56999969482422,-0.2639999985694885 18.31800079345703,9.95199966430664 18.31800079345703,9.95199966430664z"/></g><g opacity="1" transform="matrix(1,0,0,1,83.7979965209961,37.930999755859375)"><path stroke-linecap="round" stroke-linejoin="miter" fill-opacity="0" stroke-miterlimit="4" stroke="rgb(41,24,61)" stroke-opacity="1" stroke-width="3" d=" M18.31800079345703,9.95199966430664 C24.73900032043457,18.839000701904297 -24.73900032043457,2.934000015258789 -12.859000205993652,-0.3100000023841858 C-12.859000205993652,-0.3100000023841858 -12.508999824523926,-12.246999740600586 -4.519000053405762,-15.399999618530273 C4.198999881744385,-18.84000015258789 15.513999938964844,-15.215999603271484 19.961000442504883,-6.965000152587891 C23.56999969482422,-0.2639999985694885 18.31800079345703,9.95199966430664 18.31800079345703,9.95199966430664z"/></g><g opacity="1" transform="matrix(1,0,0,1,91.6259994506836,23.577999114990234)"><path fill="rgb(136,208,255)" fill-opacity="1" d=" M0.3019999861717224,-1.3300000429153442 C2.322000026702881,-0.871999979019165 3.822999954223633,0.0949999988079071 3.6559998989105225,0.8289999961853027 C3.490000009536743,1.5640000104904175 1.718000054359436,1.7869999408721924 -0.3019999861717224,1.3300000429153442 C-2.321000099182129,0.8730000257492065 -3.8239998817443848,-0.09300000220537186 -3.6579999923706055,-0.8270000219345093 C-3.492000102996826,-1.562000036239624 -1.718999981880188,-1.7879999876022339 0.3019999861717224,-1.3300000429153442z"/></g><g opacity="1" transform="matrix(1,0,0,1,91.6259994506836,23.577999114990234)"><path stroke-linecap="round" stroke-linejoin="miter" fill-opacity="0" stroke-miterlimit="4" stroke="rgb(41,24,61)" stroke-opacity="1" stroke-width="3" d=" M0.3019999861717224,-1.3300000429153442 C2.322000026702881,-0.871999979019165 3.822999954223633,0.0949999988079071 3.6559998989105225,0.8289999961853027 C3.490000009536743,1.5640000104904175 1.718000054359436,1.7869999408721924 -0.3019999861717224,1.3300000429153442 C-2.321000099182129,0.8730000257492065 -3.8239998817443848,-0.09300000220537186 -3.6579999923706055,-0.8270000219345093 C-3.492000102996826,-1.562000036239624 -1.718999981880188,-1.7879999876022339 0.3019999861717224,-1.3300000429153442z"/></g><g opacity="1" transform="matrix(1,0,0,1,104.50199890136719,13.6850004196167)"><path stroke-linecap="round" stroke-linejoin="round" fill-opacity="0" stroke="rgb(41,24,61)" stroke-opacity="1" stroke-width="3" d=" M-11.696000099182129,10.6850004196167 C-11.696000099182129,10.6850004196167 -0.33000001311302185,-10.6850004196167 -0.33000001311302185,-10.6850004196167 C-0.33000001311302185,-10.6850004196167 11.696000099182129,2.2769999504089355 11.696000099182129,2.2769999504089355"/></g><g opacity="1" transform="matrix(1,0,0,1,89.97599792480469,58.10499954223633)"><path fill="rgb(188,153,255)" fill-opacity="1" d=" M18.590999603271484,-4.1519999504089355 C20.219999313354492,0.9810000061988831 18.64699935913086,6.710999965667725 14.647000312805176,12.300000190734863 C10.647000312805176,17.888999938964844 5.646999835968018,19.736000061035156 5.646999835968018,19.736000061035156 C-3.8529999256134033,8.13599967956543 -12.604999542236328,12.300000190734863 -12.604999542236328,12.300000190734863 C-16.51300048828125,10.762999534606934 -16.417999267578125,5.145999908447266 -16.417999267578125,5.145999908447266 C-16.417999267578125,5.145999908447266 -17.701000213623047,0.1550000011920929 -17.701000213623047,0.1550000011920929 C-17.701000213623047,0.1550000011920929 -20.2189998626709,-5.559000015258789 -15.656000137329102,-9.447999954223633 C-15.656000137329102,-9.447999954223633 -15.156000137329102,-11.5600004196167 -15.156000137329102,-11.5600004196167 C-15.156000137329102,-11.5600004196167 -15.156000137329102,-14.0600004196167 -15.156000137329102,-14.0600004196167 C-15.156000137329102,-14.0600004196167 -10.973999977111816,-19.209999084472656 -10.973999977111816,-19.209999084472656 C-10.973999977111816,-19.209999084472656 0.9110000133514404,-19.736000061035156 0.9110000133514404,-19.736000061035156 C0.9110000133514404,-19.736000061035156 8.637999534606934,-17.011999130249023 8.637999534606934,-17.011999130249023 C11.276000022888184,-15.531000137329102 16.961999893188477,-9.284000396728516 18.590999603271484,-4.1519999504089355z"/></g><g opacity="1" transform="matrix(1,0,0,1,92.72200012207031,54.44300079345703)"><path stroke-linecap="round" stroke-linejoin="round" fill-opacity="0" stroke="rgb(41,24,61)" stroke-opacity="1" stroke-width="2.848" d=" M2.4019999504089355,23.39699935913086 C18.902000427246094,16.89699935913086 18.496999740600586,-3.007999897003174 7.5269999504089355,-11.109000205993652 C-9.111000061035156,-23.39699935913086 -18.902000427246094,-13.897000312805176 -17.402000427246094,-7.396999835968018"/></g><g opacity="1" transform="matrix(1,0,0,1,83.57599639892578,50.762001037597656)"><path stroke-linecap="round" stroke-linejoin="round" fill-opacity="0" stroke="rgb(41,24,61)" stroke-opacity="1" stroke-width="2.848" d=" M13.258000373840332,0.4950000047683716 C9.652999877929688,-2.5759999752044678 0.46700000762939453,-8.012999534606934 -6.607999801635742,-4.076000213623047 C-11.526000022888184,-1.340000033378601 -13.258000373840332,4.357999801635742 -9.842000007629395,8.012999534606934"/></g><g opacity="1" transform="matrix(1,0,0,1,82.10700225830078,64.12300109863281)"><path stroke-linecap="round" stroke-linejoin="round" fill-opacity="0" stroke="rgb(41,24,61)" stroke-opacity="1" stroke-width="2.848" d=" M12.894000053405762,-1.968999981880188 C8.90999984741211,-7.691999912261963 2.2139999866485596,-10.423999786376953 -4.370999813079834,-7.638999938964844 C-12.894000053405762,-4.033999919891357 -9.651000022888184,2.74399995803833 -7.2870001792907715,4.422999858856201 C-1.6260000467300415,8.444999694824219 -3.7869999408721924,1.4240000247955322 9.213000297546387,10.423999786376953"/></g></g><g transform="matrix(1,0,0,1,321.905029296875,151.95901489257812)" opacity="1" style="display: block;"><g opacity="1" transform="matrix(1,0,0,1,51.404998779296875,54.20000076293945)"><path fill="rgb(188,153,255)" fill-opacity="1" d=" M-24.799999237060547,-24.854999542236328 C-5.14900016784668,-27.40399932861328 -7.321000099182129,-16.17099952697754 6.138999938964844,17.513999938964844 C19.600000381469727,51.20100021362305 48.404998779296875,39.89799880981445 35.527000427246094,17.513999938964844 C26.32200050354004,-1.5770000219345093 26.06999969482422,-14.779999732971191 21.139999389648438,-26.464000701904297 C12.645000457763672,-46.5989990234375 -7.267000198364258,-51.20000076293945 -19.29800033569336,-49.638999938964844 C-25.277999877929688,-48.862998962402344 -30.277000427246094,-47.54199981689453 -35.76599884033203,-43.39799880981445 C-43.55699920654297,-37.51599884033203 -47.3380012512207,-28.790000915527344 -48.40399932861328,-22.033000946044922 C-37.92100143432617,-22.336000442504883 -33.79600143432617,-23.613000869750977 -24.799999237060547,-24.854999542236328z"/></g><g opacity="1" transform="matrix(1,0,0,1,51.404998779296875,54.20000076293945)"><path stroke-linecap="round" stroke-linejoin="miter" fill-opacity="0" stroke-miterlimit="4" stroke="rgb(41,24,61)" stroke-opacity="1" stroke-width="3" d=" M-24.799999237060547,-24.854999542236328 C-5.14900016784668,-27.40399932861328 -7.321000099182129,-16.17099952697754 6.138999938964844,17.513999938964844 C19.600000381469727,51.20100021362305 48.404998779296875,39.89799880981445 35.527000427246094,17.513999938964844 C26.32200050354004,-1.5770000219345093 26.06999969482422,-14.779999732971191 21.139999389648438,-26.464000701904297 C12.645000457763672,-46.5989990234375 -7.267000198364258,-51.20000076293945 -19.29800033569336,-49.638999938964844 C-25.277999877929688,-48.862998962402344 -30.277000427246094,-47.54199981689453 -35.76599884033203,-43.39799880981445 C-43.55699920654297,-37.51599884033203 -47.3380012512207,-28.790000915527344 -48.40399932861328,-22.033000946044922 C-37.92100143432617,-22.336000442504883 -33.79600143432617,-23.613000869750977 -24.799999237060547,-24.854999542236328z"/></g><g opacity="1" transform="matrix(1,0,0,1,87.3499984741211,79.55899810791016)"><path fill="rgb(189,153,255)" fill-opacity="1" d=" M-11.458799362182617,-8.550827980041504 C-11.422834396362305,-8.503486633300781 -4.2373738288879395,-11.858579635620117 -4.2373738288879395,-11.858579635620117 C-4.2373738288879395,-11.858579635620117 4.848740100860596,-16.196086883544922 4.848740100860596,-16.196086883544922 C11.305350303649902,-19.279123306274414 19.037567138671875,-16.54338836669922 22.120603561401367,-10.086776733398438 C25.20363998413086,-3.63016676902771 22.468904495239258,4.104033946990967 16.01029396057129,7.187054634094238 C16.01029396057129,7.187054634094238 6.925163745880127,11.52359390258789 6.925163745880127,11.52359390258789 C-7.475229263305664,19.6699275970459 -14.937824249267578,16.760828018188477 -25.149887084960938,1.8944298028945923"/><path stroke-linecap="round" stroke-linejoin="miter" fill-opacity="0" stroke-miterlimit="4" stroke="rgb(41,24,61)" stroke-opacity="1" stroke-width="3" d=" M-11.458799362182617,-8.550827980041504 C-11.422834396362305,-8.503486633300781 -4.2373738288879395,-11.858579635620117 -4.2373738288879395,-11.858579635620117 C-4.2373738288879395,-11.858579635620117 4.848740100860596,-16.196086883544922 4.848740100860596,-16.196086883544922 C11.305350303649902,-19.279123306274414 19.037567138671875,-16.54338836669922 22.120603561401367,-10.086776733398438 C25.20363998413086,-3.63016676902771 22.468904495239258,4.104033946990967 16.01029396057129,7.187054634094238 C16.01029396057129,7.187054634094238 6.925163745880127,11.52359390258789 6.925163745880127,11.52359390258789 C-7.475229263305664,19.6699275970459 -14.937824249267578,16.760828018188477 -25.149887084960938,1.8944298028945923"/></g></g><g transform="matrix(0.9993908405303955,-0.03489949554204941,0.03489949554204941,0.9993908405303955,503.9715881347656,268.0068359375)" opacity="1" style="display: block;"><g opacity="1" transform="matrix(1,0,0,1,27.915000915527344,29.874000549316406)"><path fill="rgb(255,193,116)" fill-opacity="1" d=" M-8.232999801635742,-20.915000915527344 C4.039999961853027,-10.003999710083008 8.477999687194824,-2.943000078201294 27.665000915527344,-5.163000106811523 C25.738000869750977,6.076000213623047 23.101999282836914,10.694999694824219 13.746000289916992,13.885000228881836 C13.746000289916992,13.885000228881836 -11.616999626159668,20.915000915527344 -20.687999725341797,9.123000144958496 C-27.665000915527344,0.052000001072883606 -8.232999801635742,-20.915000915527344 -8.232999801635742,-20.915000915527344z"/></g><g opacity="1" transform="matrix(1,0,0,1,30.375999450683594,27.655000686645508)"><path stroke-linecap="round" stroke-linejoin="miter" fill-opacity="0" stroke-miterlimit="4" stroke="rgb(41,24,61)" stroke-opacity="1" stroke-width="2" d=" M4.170000076293945,-5.026000022888184 C9.201000213623047,-2.180000066757202 15.01200008392334,-0.9409999847412109 23.985000610351562,-1.809000015258789 C23.075000762939453,3.0799999237060547 21.990999221801758,6.480000019073486 20.211000442504883,9.024999618530273 C18.309999465942383,11.741999626159668 15.53499984741211,13.593999862670898 10.991000175476074,15.147000312805176 C10.991000175476074,15.147000312805176 10.95199966430664,15.156999588012695 10.95199966430664,15.156999588012695 C10.906999588012695,15.170000076293945 10.838000297546387,15.187999725341797 10.746999740600586,15.211000442504883 C10.5649995803833,15.258999824523926 10.293999671936035,15.32800006866455 9.944999694824219,15.40999984741211 C9.246999740600586,15.576000213623047 8.237000465393066,15.800999641418457 6.99399995803833,16.03499984741211 C4.506999969482422,16.503999710083008 1.1050000190734863,17.006000518798828 -2.569000005722046,17.145000457763672 C-6.248000144958496,17.28499984741211 -10.157999992370605,17.05900001525879 -13.678000450134277,16.09600067138672 C-17.19499969482422,15.133999824523926 -20.261999130249023,13.454999923706055 -22.356000900268555,10.732000350952148 C-23.82699966430664,8.819999694824219 -23.985000610351562,6.184999942779541 -23.17799949645996,3.072000026702881 C-22.375,-0.02500000037252903 -20.660999298095703,-3.3970000743865967 -18.690000534057617,-6.546999931335449 C-16.72599983215332,-9.6899995803833 -14.543000221252441,-12.559000015258789 -12.845999717712402,-14.647000312805176 C-11.998000144958496,-15.6899995803833 -11.27400016784668,-16.53499984741211 -10.762999534606934,-17.118000030517578 C-10.711999893188477,-17.176000595092773 -10.663000106811523,-17.23200035095215 -10.616999626159668,-17.28499984741211 C-9.373000144958496,-16.16699981689453 -8.208999633789062,-15.092000007629395 -7.093999862670898,-14.060999870300293 C-7.093999862670898,-14.060999870300293 -6.961999893188477,-13.939000129699707 -6.961999893188477,-13.939000129699707 C-5.678999900817871,-12.753000259399414 -4.459000110626221,-11.62399959564209 -3.2690000534057617,-10.571000099182129 C-0.8080000281333923,-8.392000198364258 1.559000015258789,-6.501999855041504 4.170000076293945,-5.026000022888184z"/></g><g opacity="1" transform="matrix(1,0,0,1,21.8799991607666,13.720000267028809)"><path fill="rgb(255,193,116)" fill-opacity="1" d=" M0,-11.720999717712402 C6.473999977111816,-11.720999717712402 11.722000122070312,-6.4730000495910645 11.722000122070312,0.0010000000474974513 C11.722000122070312,6.473999977111816 6.473999977111816,11.720999717712402 0,11.720999717712402 C-6.473999977111816,11.720999717712402 -11.722000122070312,6.473999977111816 -11.722000122070312,0.0010000000474974513 C-11.722000122070312,-6.4730000495910645 -6.473999977111816,-11.720999717712402 0,-11.720999717712402z"/></g><g opacity="1" transform="matrix(1,0,0,1,21.878999710083008,11.890000343322754)"><path stroke-linecap="round" stroke-linejoin="miter" fill-opacity="0" stroke-miterlimit="4" stroke="rgb(41,24,61)" stroke-opacity="1" stroke-width="2" d=" M-8.51200008392334,9.890000343322754 C-10.50100040435791,7.788000106811523 -11.720999717712402,4.953000068664551 -11.720999717712402,1.8300000429153442 C-11.720999717712402,-4.642000198364258 -6.4730000495910645,-9.890000343322754 0.0010000000474974513,-9.890000343322754 C6.4730000495910645,-9.890000343322754 11.720999717712402,-4.642000198364258 11.720999717712402,1.8300000429153442 C11.720999717712402,4.953000068664551 10.501999855041504,7.788000106811523 8.51200008392334,9.890000343322754"/></g><g opacity="1" transform="matrix(1,0,0,1,19.492000579833984,17.20199966430664)"><path fill="rgb(255,96,119)" fill-opacity="1" d=" M-7.875999927520752,-0.5699999928474426 C-6.288000106811523,-1.7910000085830688 -2.8610000610351562,-3.5769999027252197 0.5490000247955322,-3.132999897003174 C3.8570001125335693,-2.7039999961853027 7.875999927520752,1.2619999647140503 7.875999927520752,1.2619999647140503 C7.875999927520752,1.2619999647140503 3.5329999923706055,3.5769999027252197 0.5490000247955322,3.4600000381469727 C-3.0959999561309814,3.319000005722046 -7.875999927520752,-0.5699999928474426 -7.875999927520752,-0.5699999928474426z"/></g><g opacity="1" transform="matrix(1,0,0,1,19.492000579833984,17.20199966430664)"><path stroke-linecap="round" stroke-linejoin="miter" fill-opacity="0" stroke-miterlimit="4" stroke="rgb(41,24,61)" stroke-opacity="1" stroke-width="2" d=" M-7.875999927520752,-0.5699999928474426 C-6.288000106811523,-1.7910000085830688 -2.8610000610351562,-3.5769999027252197 0.5490000247955322,-3.132999897003174 C3.8570001125335693,-2.7039999961853027 7.875999927520752,1.2619999647140503 7.875999927520752,1.2619999647140503 C7.875999927520752,1.2619999647140503 3.5329999923706055,3.5769999027252197 0.5490000247955322,3.4600000381469727 C-3.0959999561309814,3.319000005722046 -7.875999927520752,-0.5699999928474426 -7.875999927520752,-0.5699999928474426z"/></g><g opacity="1" transform="matrix(1,0,0,1,13.116000175476074,11.5)"><path fill="rgb(41,24,61)" fill-opacity="1" d=" M0,-1.5 C0.828000009059906,-1.5 1.5,-0.828000009059906 1.5,0 C1.5,0.828000009059906 0.828000009059906,1.5 0,1.5 C-0.8289999961853027,1.5 -1.5,0.828000009059906 -1.5,0 C-1.5,-0.828000009059906 -0.8289999961853027,-1.5 0,-1.5z"/></g><g opacity="1" transform="matrix(1,0,0,1,28.115999221801758,13.5)"><path fill="rgb(41,24,61)" fill-opacity="1" d=" M0,-1.5 C0.828000009059906,-1.5 1.5,-0.828000009059906 1.5,0 C1.5,0.828000009059906 0.828000009059906,1.5 0,1.5 C-0.8289999961853027,1.5 -1.5,0.828000009059906 -1.5,0 C-1.5,-0.828000009059906 -0.8289999961853027,-1.5 0,-1.5z"/></g></g></g></svg>