<svg xmlns="http://www.w3.org/2000/svg" viewBox="0 0 190 276" width="190" height="276" preserveAspectRatio="xMidYMid meet" style="width: 100%; height: 100%; transform: translate3d(0px, 0px, 0px);"><defs><clipPath id="__lottie_element_335"><rect width="190" height="276" x="0" y="0"/></clipPath></defs><g clip-path="url(#__lottie_element_335)"><g transform="matrix(1,0,0,1,42.00199890136719,144.65499877929688)" opacity="1" style="display: block;"><g opacity="1" transform="matrix(1,0,0,1,33.87300109863281,54.76499938964844)"><path fill="rgb(87,87,90)" fill-opacity="1" d=" M-8.076000213623047,50.17399978637695 C-9.876999855041504,36.09299850463867 -4.076000213623047,-54.388999938964844 -4.076000213623047,-54.388999938964844 C-4.076000213623047,-54.388999938964844 8.21399974822998,-54.51499938964844 8.21399974822998,-54.51499938964844 C8.21399974822998,-54.51499938964844 9.878000259399414,-53.749000549316406 9.878000259399414,-53.749000549316406 C9.878000259399414,-53.749000549316406 5.789000034332275,20.58099937438965 5.5960001945495605,50.82500076293945 C1.906999945640564,52.994998931884766 -2.6500000953674316,54.51499938964844 -8.076000213623047,50.17399978637695z"/></g><g opacity="1" transform="matrix(1,0,0,1,23.270000457763672,113.1780014038086)"><path fill="rgb(56,34,21)" fill-opacity="1" d=" M1.8200000524520874,-8.868000030517578 C1.8200000524520874,-8.868000030517578 16.125999450683594,-10.491000175476074 16.125999450683594,-10.491000175476074 C16.125999450683594,-10.491000175476074 17.6200008392334,0.7710000276565552 17.6200008392334,0.7710000276565552 C17.6200008392334,0.7710000276565552 15,8.42199993133545 15,8.42199993133545 C15,8.42199993133545 8.359000205993652,10.491000175476074 8.359000205993652,10.491000175476074 C8.359000205993652,10.491000175476074 -12.430000305175781,9.845999717712402 -12.430000305175781,9.845999717712402 C-12.430000305175781,9.845999717712402 -17.10300064086914,5.817999839782715 -17.10300064086914,5.817999839782715 C-17.10300064086914,5.817999839782715 -17.6200008392334,1.0789999961853027 -17.6200008392334,1.0789999961853027 C-16.589000701904297,-1.1579999923706055 -13.868000030517578,-2.757999897003174 -12.062000274658203,-3.819000005722046 C-12.062000274658203,-3.819000005722046 -12.057999610900879,-3.821000099182129 -12.057999610900879,-3.821000099182129 C-10.253000259399414,-4.882999897003174 -4.489999771118164,-5.830999851226807 1.8200000524520874,-8.868000030517578z"/></g><g opacity="1" transform="matrix(1,0,0,1,27.089000701904297,57.034000396728516)"><path stroke-linecap="round" stroke-linejoin="round" fill-opacity="0" stroke="rgb(25,25,54)" stroke-opacity="1" stroke-width="2.545" d=" M1.8890000581741333,-50.93199920654297 C1.8890000581741333,-50.93199920654297 -1.1390000581741333,46.93199920654297 -1.1390000581741333,46.93199920654297"/></g><g opacity="1" transform="matrix(1,0,0,1,22.586999893188477,65.97799682617188)"><path stroke-linecap="round" stroke-linejoin="round" fill-opacity="0" stroke="rgb(25,25,54)" stroke-opacity="1" stroke-width="2.545" d=" M20.78499984741211,-61.90399932861328 C20.78499984741211,-61.90399932861328 20.788999557495117,-61.90399932861328 20.788999557495117,-61.90399932861328 C20.79199981689453,-61.90399932861328 17.167999267578125,31.2549991607666 17.364999771118164,42.29600143432617 C17.56100082397461,53.33700180053711 18.14299964904785,56.82699966430664 9.885000228881836,57.23699951171875 C1.628000020980835,57.645999908447266 5.245999813079834,57.90399932861328 -7.3979997634887695,57.645999908447266 C-20.04199981689453,57.387001037597656 -19.625999450683594,45.31999969482422 -10.795000076293945,43.185001373291016 C-1.9630000591278076,41.04899978637695 3.180000066757202,38.527000427246094 3.180000066757202,38.527000427246094"/></g><g opacity="1" transform="matrix(1,0,0,1,33.23500061035156,103.35900115966797)"><path stroke-linecap="round" stroke-linejoin="round" fill-opacity="0" stroke="rgb(25,25,54)" stroke-opacity="1" stroke-width="2.545" d=" M6.78000020980835,-0.824999988079071 C6.78000020980835,-0.824999988079071 -6.7789998054504395,0.824999988079071 -6.7789998054504395,0.824999988079071"/></g></g><g transform="matrix(1,0,0,1,103.11299896240234,144.65499877929688)" opacity="1" style="display: block;"><g opacity="1" transform="matrix(1,0,0,1,11.300999641418457,54.76499938964844)"><path fill="rgb(87,87,90)" fill-opacity="1" d=" M8.07699966430664,50.17399978637695 C9.876999855041504,36.09299850463867 4.074999809265137,-54.388999938964844 4.074999809265137,-54.388999938964844 C4.074999809265137,-54.388999938964844 -8.213000297546387,-54.51499938964844 -8.213000297546387,-54.51499938964844 C-8.213000297546387,-54.51499938964844 -9.876999855041504,-53.749000549316406 -9.876999855041504,-53.749000549316406 C-9.876999855041504,-53.749000549316406 -5.788000106811523,20.58099937438965 -5.5960001945495605,50.82500076293945 C-1.906000018119812,52.994998931884766 2.6510000228881836,54.51499938964844 8.07699966430664,50.17399978637695z"/></g><g opacity="1" transform="matrix(1,0,0,1,21.90399932861328,113.48699951171875)"><path fill="rgb(56,34,21)" fill-opacity="1" d=" M-1.8200000524520874,-9.175999641418457 C-1.8200000524520874,-9.175999641418457 -16.16900062561035,-10.182000160217285 -16.16900062561035,-10.182000160217285 C-16.16900062561035,-10.182000160217285 -17.6200008392334,0.46299999952316284 -17.6200008392334,0.46299999952316284 C-17.6200008392334,0.46299999952316284 -15,8.11400032043457 -15,8.11400032043457 C-15,8.11400032043457 -8.357999801635742,10.182999610900879 -8.357999801635742,10.182999610900879 C-8.357999801635742,10.182999610900879 12.430000305175781,9.538000106811523 12.430000305175781,9.538000106811523 C12.430000305175781,9.538000106811523 17.10300064086914,5.510000228881836 17.10300064086914,5.510000228881836 C17.10300064086914,5.510000228881836 17.6200008392334,0.7710000276565552 17.6200008392334,0.7710000276565552 C16.589000701904297,-1.465999960899353 13.868000030517578,-3.066999912261963 12.062999725341797,-4.127999782562256 C12.062999725341797,-4.127999782562256 12.059000015258789,-4.130000114440918 12.059000015258789,-4.130000114440918 C10.251999855041504,-5.191999912261963 4.489999771118164,-6.138999938964844 -1.8200000524520874,-9.175999641418457z"/></g><g opacity="1" transform="matrix(1,0,0,1,18.086000442504883,57.034000396728516)"><path stroke-linecap="round" stroke-linejoin="round" fill-opacity="0" stroke="rgb(25,25,54)" stroke-opacity="1" stroke-width="2.545" d=" M-1.1390000581741333,-50.93199920654297 C-1.1390000581741333,-50.93199920654297 1.1390000581741333,46.93199920654297 1.1390000581741333,46.93199920654297"/></g><g opacity="1" transform="matrix(1,0,0,1,22.586999893188477,65.97799682617188)"><path stroke-linecap="round" stroke-linejoin="round" fill-opacity="0" stroke="rgb(25,25,54)" stroke-opacity="1" stroke-width="2.545" d=" M-20.03499984741211,-61.90399932861328 C-20.03499984741211,-61.90399932861328 -20.038000106811523,-61.90399932861328 -20.038000106811523,-61.90399932861328 C-20.04199981689453,-61.90399932861328 -17.167999267578125,31.2549991607666 -17.36400032043457,42.29600143432617 C-17.559999465942383,53.33700180053711 -18.142000198364258,56.82699966430664 -9.885000228881836,57.23699951171875 C-1.6269999742507935,57.645999908447266 -5.245999813079834,57.90399932861328 7.3979997634887695,57.645999908447266 C20.04199981689453,57.387001037597656 19.625999450683594,45.31999969482422 10.795000076293945,43.185001373291016 C1.9639999866485596,41.04899978637695 -3.178999900817871,38.527000427246094 -3.178999900817871,38.527000427246094"/></g><g opacity="1" transform="matrix(1,0,0,1,12.380999565124512,103.66699981689453)"><path stroke-linecap="round" stroke-linejoin="round" fill-opacity="0" stroke="rgb(25,25,54)" stroke-opacity="1" stroke-width="2.545" d=" M-6.3379998207092285,-0.5170000195503235 C-3.2249999046325684,-0.26899999380111694 6.3379998207092285,0.5170000195503235 6.3379998207092285,0.5170000195503235"/></g></g><g transform="matrix(1,0,0,1,14.839004516601562,6.615997314453125)" opacity="1" style="display: block;"><g opacity="1" transform="matrix(1,0,0,1,81.86699676513672,79.06900024414062)"><path fill="rgb(246,197,85)" fill-opacity="1" d=" M14.496000289916992,-70.81300354003906 C53.60499954223633,-62.80699920654297 78.81900024414062,-24.613000869750977 70.81300354003906,14.496000289916992 C62.80799865722656,53.60499954223633 24.613000869750977,78.81900024414062 -14.496000289916992,70.81300354003906 C-53.60499954223633,62.80799865722656 -78.81900024414062,24.61400032043457 -70.81400299072266,-14.496000289916992 C-62.80799865722656,-53.60499954223633 -24.613000869750977,-78.81900024414062 14.496000289916992,-70.81300354003906z"/></g><g opacity="1" transform="matrix(1,0,0,1,80.85199737548828,106.31600189208984)"><path fill="rgb(87,87,90)" fill-opacity="1" d=" M37.194000244140625,-8.949999809265137 C37.194000244140625,-8.949999809265137 62.99800109863281,-38.47200012207031 62.99800109863281,-38.47200012207031 C62.99800109863281,-38.47200012207031 70.2030029296875,-43.354000091552734 70.2030029296875,-43.354000091552734 C70.2030029296875,-43.354000091552734 71.83100128173828,-16.38800048828125 71.83100128173828,-16.38800048828125 C71.83100128173828,-16.38800048828125 65.32099914550781,5.4629998207092285 65.32099914550781,5.4629998207092285 C63.38399887084961,8.175000190734863 58.02199935913086,15.552000045776367 52.07099914550781,23.36199951171875 C46.119998931884766,31.173999786376953 34.09400177001953,37.310001373291016 28.825000762939453,39.402000427246094 C28.825000762939453,39.402000427246094 10.227999687194824,45.21500015258789 10.227999687194824,45.21500015258789 C10.227999687194824,45.21500015258789 -3.486999988555908,45.44599914550781 -3.486999988555908,45.44599914550781 C-3.486999988555908,45.44599914550781 -21.85099983215332,42.888999938964844 -21.85099983215332,42.888999938964844 C-21.85099983215332,42.888999938964844 -44.57600021362305,30.333999633789062 -44.57600021362305,30.333999633789062 C-48.29499816894531,25.9950008392334 -58.58000183105469,16.341999053955078 -64.15899658203125,8.717000007629395 C-69.73799896240234,1.093000054359436 -71.5979995727539,-15.071000099182129 -71.83100128173828,-22.200000762939453 C-71.83100128173828,-22.200000762939453 -69.73799896240234,-45.44599914550781 -69.73799896240234,-45.44599914550781 C-69.73799896240234,-45.44599914550781 -54.395999908447266,-34.75299835205078 -54.395999908447266,-34.75299835205078 C-54.395999908447266,-34.75299835205078 -24.641000747680664,0.5809999704360962 -24.641000747680664,0.5809999704360962 C-24.641000747680664,0.5809999704360962 1.3949999809265137,18.71299934387207 1.3949999809265137,18.71299934387207 C1.3949999809265137,18.71299934387207 37.194000244140625,-8.949999809265137 37.194000244140625,-8.949999809265137z"/></g><g opacity="1" transform="matrix(1,0,0,1,81.28199768066406,95.20500183105469)"><path fill="rgb(255,255,255)" fill-opacity="1" d=" M-26.084999084472656,10.508999824523926 C-29.95400047302246,6.756999969482422 -56.22100067138672,-20.18400001525879 -63.79399871826172,-30.0049991607666 C-63.79399871826172,-30.0049991607666 -19.197999954223633,-15.140999794006348 -19.197999954223633,-15.140999794006348 C-19.197999954223633,-15.140999794006348 3.0989999771118164,-8.631999969482422 3.0989999771118164,-8.631999969482422 C3.0989999771118164,-8.631999969482422 9.12600040435791,-10.734000205993652 9.12600040435791,-10.734000205993652 C9.12600040435791,-10.734000205993652 63.79399871826172,-29.658000946044922 63.79399871826172,-29.658000946044922 C63.79399871826172,-29.658000946044922 44.268001556396484,-4.5879998207092285 44.268001556396484,-4.5879998207092285 C44.268001556396484,-4.5879998207092285 17.15399932861328,19.891000747680664 17.15399932861328,19.891000747680664 C17.15399932861328,19.891000747680664 0.4440000057220459,30.0049991607666 0.4440000057220459,30.0049991607666 C-6.7870001792907715,25.06999969482422 -22.215999603271484,14.26200008392334 -26.084999084472656,10.508999824523926z"/></g><g opacity="1" transform="matrix(1,0,0,1,81.0780029296875,79.43000030517578)"><path stroke-linecap="round" stroke-linejoin="round" fill-opacity="0" stroke="rgb(25,25,54)" stroke-opacity="1" stroke-width="2.799" d=" M0,-72.28199768066406 C39.91999816894531,-72.28199768066406 72.28199768066406,-39.91999816894531 72.28199768066406,0.0010000000474974513 C72.28199768066406,39.92100143432617 39.91999816894531,72.28199768066406 0,72.28199768066406 C-39.91999816894531,72.28199768066406 -72.28199768066406,39.92100143432617 -72.28199768066406,0.0010000000474974513 C-72.28199768066406,-39.91999816894531 -39.91999816894531,-72.28199768066406 0,-72.28199768066406z"/></g><g opacity="1" transform="matrix(1,0,0,1,152.6649932861328,75.98600006103516)"><path fill="rgb(87,87,90)" fill-opacity="1" d=" M-1.4600000381469727,-12.246000289916992 C-1.4600000381469727,-12.246000289916992 -3.25,-10.456000328063965 -3.25,-10.456000328063965 C-3.25,-10.456000328063965 -6.264999866485596,6.593999862670898 -6.264999866485596,6.593999862670898 C-6.264999866485596,6.593999862670898 -3.437999963760376,12.246000289916992 -3.437999963760376,12.246000289916992 C-3.437999963760376,12.246000289916992 5.698999881744385,1.5069999694824219 5.698999881744385,1.5069999694824219 C5.698999881744385,1.5069999694824219 6.263999938964844,-1.9780000448226929 6.263999938964844,-1.9780000448226929 C6.263999938964844,-1.9780000448226929 -1.4600000381469727,-12.246000289916992 -1.4600000381469727,-12.246000289916992z"/></g><g opacity="1" transform="matrix(1,0,0,1,9.53600025177002,75.36299896240234)"><path fill="rgb(87,87,90)" fill-opacity="1" d=" M2.437999963760376,-12.869000434875488 C2.437999963760376,-12.869000434875488 3.878999948501587,-10.36299991607666 3.878999948501587,-10.36299991607666 C3.878999948501587,-10.36299991607666 6.264999866485596,7.2170000076293945 6.264999866485596,7.2170000076293945 C6.264999866485596,7.2170000076293945 3.437999963760376,12.869000434875488 3.437999963760376,12.869000434875488 C3.437999963760376,12.869000434875488 -5.699999809265137,2.130000114440918 -5.699999809265137,2.130000114440918 C-5.699999809265137,2.130000114440918 -6.264999866485596,-1.3550000190734863 -6.264999866485596,-1.3550000190734863 C-6.264999866485596,-1.3550000190734863 2.437999963760376,-12.869000434875488 2.437999963760376,-12.869000434875488z"/></g><g opacity="1" transform="matrix(1,0,0,1,83.55000305175781,106.09300231933594)"><path fill="rgb(57,131,197)" fill-opacity="1" d=" M-5.123000144958496,-11.593000411987305 C-5.123000144958496,-11.593000411987305 -0.07599999755620956,-19.552000045776367 -0.07599999755620956,-19.552000045776367 C-0.07599999755620956,-19.552000045776367 2.253000020980835,-17.222000122070312 2.253000020980835,-17.222000122070312 C2.253000020980835,-17.222000122070312 5.748000144958496,-11.979999542236328 5.748000144958496,-11.979999542236328 C5.748000144958496,-11.979999542236328 3.2750000953674316,-8.60200023651123 3.2750000953674316,-8.60200023651123 C3.2750000953674316,-8.60200023651123 7.702000141143799,14.062999725341797 7.702000141143799,14.062999725341797 C7.702000141143799,14.062999725341797 -0.6209999918937683,19.552000045776367 -0.6209999918937683,19.552000045776367 C-0.6209999918937683,19.552000045776367 -7.702000141143799,14.062999725341797 -7.702000141143799,14.062999725341797 C-7.702000141143799,14.062999725341797 -3.888000011444092,-9.48799991607666 -3.888000011444092,-9.48799991607666 C-3.888000011444092,-9.48799991607666 -3.888000011444092,-11.258000373840332 -3.888000011444092,-11.258000373840332 C-3.888000011444092,-11.258000373840332 -5.123000144958496,-11.593000411987305 -5.123000144958496,-11.593000411987305z"/></g><g opacity="1" transform="matrix(1,0,0,1,81.19400024414062,74.74500274658203)"><path stroke-linecap="round" stroke-linejoin="round" fill-opacity="0" stroke="rgb(25,25,54)" stroke-opacity="1" stroke-width="2.545" d=" M-69.91400146484375,-12.029000282287598 C-69.91400146484375,-12.029000282287598 2.6670000553131104,12.380000114440918 2.6670000553131104,12.380000114440918 C2.6670000553131104,12.380000114440918 69.91400146484375,-12.380000114440918 69.91400146484375,-12.380000114440918"/></g><g opacity="1" transform="matrix(1,0,0,1,111.18800354003906,82.60399627685547)"><path stroke-linecap="round" stroke-linejoin="round" fill-opacity="0" stroke="rgb(25,25,54)" stroke-opacity="1" stroke-width="2.545" d=" M-39.25600051879883,19.551000595092773 C-39.25600051879883,19.551000595092773 -27.326000213623047,4.519999980926514 -27.326000213623047,4.519999980926514 C-27.326000213623047,4.519999980926514 -15.857999801635742,19.113000869750977 -15.857999801635742,19.113000869750977 C-15.857999801635742,19.113000869750977 39.25600051879883,-19.551000595092773 39.25600051879883,-19.551000595092773"/></g><g opacity="1" transform="matrix(1,0,0,1,42.07099914550781,82.90699768066406)"><path stroke-linecap="round" stroke-linejoin="round" fill-opacity="0" stroke="rgb(25,25,54)" stroke-opacity="1" stroke-width="2.545" d=" M29.643999099731445,19.46500015258789 C29.643999099731445,19.46500015258789 -29.64299964904785,-19.46500015258789 -29.64299964904785,-19.46500015258789"/></g><g opacity="1" transform="matrix(1,0,0,1,113.19100189208984,108.9489974975586)"><path stroke-linecap="round" stroke-linejoin="round" fill-opacity="0" stroke="rgb(25,25,54)" stroke-opacity="1" stroke-width="2.545" d=" M31.04400062561035,-42 C23.465999603271484,-32.527000427246094 -2.3259999752044678,0.9039999842643738 -31.04400062561035,16.698999404907227 C-31.04400062561035,16.698999404907227 -31.04400062561035,42 -31.04400062561035,42"/></g><g opacity="1" transform="matrix(1,0,0,1,155.05799865722656,74.98699951171875)"><path stroke-linecap="round" stroke-linejoin="round" fill-opacity="0" stroke="rgb(25,25,54)" stroke-opacity="1" stroke-width="2.545" d=" M-3.943000078201294,-12.157999992370605 C-1.753000020980835,-9.3100004196167 2.496999979019165,-3.3949999809265137 4.60099983215332,0.10999999940395355 C1.9730000495910645,4.271999835968018 -4.60099983215332,12.157999992370605 -4.60099983215332,12.157999992370605"/></g><g opacity="1" transform="matrix(1,0,0,1,7.145999908447266,74.98699951171875)"><path stroke-linecap="round" stroke-linejoin="round" fill-opacity="0" stroke="rgb(25,25,54)" stroke-opacity="1" stroke-width="2.545" d=" M3.943000078201294,-12.157999992370605 C1.753000020980835,-9.3100004196167 -2.497999906539917,-3.3949999809265137 -4.60099983215332,0.10999999940395355 C-1.9730000495910645,4.271999835968018 4.60099983215332,12.157999992370605 4.60099983215332,12.157999992370605"/></g><g opacity="1" transform="matrix(1,0,0,1,50.23400115966797,96.45899963378906)"><path stroke-linecap="round" stroke-linejoin="round" fill-opacity="0" stroke="rgb(25,25,54)" stroke-opacity="1" stroke-width="2.545" d=" M-30.777000427246094,-28.416000366210938 C-18.094999313354492,-17.482999801635742 10.550999641418457,17.940000534057617 30.777000427246094,28.416000366210938"/></g><g opacity="1" transform="matrix(1,0,0,1,81.45999908447266,95.55799865722656)"><path stroke-linecap="round" stroke-linejoin="round" fill-opacity="0" stroke="rgb(25,25,54)" stroke-opacity="1" stroke-width="2.545" d=" M-2.484999895095825,-1.7280000448226929 C-1.9670000076293945,-0.5899999737739563 -0.4959999918937683,1.3550000190734863 2.484999895095825,1.7280000448226929"/></g><g opacity="1" transform="matrix(1,0,0,1,86.23200225830078,95.35299682617188)"><path stroke-linecap="round" stroke-linejoin="round" fill-opacity="0" stroke="rgb(25,25,54)" stroke-opacity="1" stroke-width="2.545" d=" M2.640000104904175,-1.940000057220459 C2.121999979019165,-0.8019999861717224 0.34200000762939453,1.5679999589920044 -2.640000104904175,1.940000057220459"/></g><g opacity="1" transform="matrix(1,0,0,1,78.69100189208984,109.10299682617188)"><path stroke-linecap="round" stroke-linejoin="round" fill-opacity="0" stroke="rgb(25,25,54)" stroke-opacity="1" stroke-width="2.545" d=" M2.193000078201294,-12.166000366210938 C2.193000078201294,-12.166000366210938 -2.193000078201294,12.166000366210938 -2.193000078201294,12.166000366210938"/></g><g opacity="1" transform="matrix(1,0,0,1,88.70800018310547,108.48100280761719)"><path stroke-linecap="round" stroke-linejoin="round" fill-opacity="0" stroke="rgb(25,25,54)" stroke-opacity="1" stroke-width="2.545" d=" M-2.1429998874664307,-11.352999687194824 C-2.1429998874664307,-11.352999687194824 2.1429998874664307,11.352999687194824 2.1429998874664307,11.352999687194824"/></g><g opacity="1" transform="matrix(1,0,0,1,117.88099670410156,105.27899932861328)"><path stroke-linecap="round" stroke-linejoin="round" fill-opacity="0" stroke="rgb(25,25,54)" stroke-opacity="1" stroke-width="2.545" d=" M35.5359992980957,-21.68400001525879 C35.5359992980957,-21.68400001525879 21.48900032043457,-3.8919999599456787 21.48900032043457,-3.8919999599456787 C21.48900032043457,-3.8919999599456787 10.87600040435791,-5.140999794006348 10.87600040435791,-5.140999794006348 C10.87600040435791,-5.140999794006348 13.685999870300293,4.224999904632568 13.685999870300293,4.224999904632568 C4.53000020980835,10.258000373840332 -17.014999389648438,19.85700035095215 -35.5359992980957,21.68400001525879"/></g><g opacity="1" transform="matrix(1,0,0,1,44.499000549316406,105.56500244140625)"><path stroke-linecap="round" stroke-linejoin="round" fill-opacity="0" stroke="rgb(25,25,54)" stroke-opacity="1" stroke-width="2.545" d=" M-35.1609992980957,-21.395999908447266 C-35.1609992980957,-21.395999908447266 -21.863000869750977,-4.177999973297119 -21.863000869750977,-4.177999973297119 C-21.863000869750977,-4.177999973297119 -11.25100040435791,-5.426000118255615 -11.25100040435791,-5.426000118255615 C-11.25100040435791,-5.426000118255615 -14.060999870300293,3.937999963760376 -14.060999870300293,3.937999963760376 C-4.90500020980835,9.972999572753906 16.638999938964844,19.569000244140625 35.1609992980957,21.395999908447266"/></g></g><g transform="matrix(1,0,0,1,50.32000732421875,4.746997833251953)" opacity="1" style="display: block;"><g opacity="1" transform="matrix(1,0,0,1,73.76200103759766,19.725000381469727)"><path fill="rgb(55,35,24)" fill-opacity="1" d=" M3.4800000190734863,-8.47700023651123 C20.291000366210938,-1.5740000009536743 32.36000061035156,7.816999912261963 30.437000274658203,12.49899959564209 C28.513999938964844,17.18000030517578 13.329000473022461,15.378999710083008 -3.4809999465942383,8.47599983215332 C-20.291000366210938,1.5729999542236328 -32.36000061035156,-7.816999912261963 -30.437999725341797,-12.498000144958496 C-28.514999389648438,-17.18000030517578 -13.329999923706055,-15.380000114440918 3.4800000190734863,-8.47700023651123z"/><path stroke-linecap="round" stroke-linejoin="round" fill-opacity="0" stroke="rgb(25,25,54)" stroke-opacity="1" stroke-width="2.545" d=" M3.4800000190734863,-8.47700023651123 C20.291000366210938,-1.5740000009536743 32.36000061035156,7.816999912261963 30.437000274658203,12.49899959564209 C28.513999938964844,17.18000030517578 13.329000473022461,15.378999710083008 -3.4809999465942383,8.47599983215332 C-20.291000366210938,1.5729999542236328 -32.36000061035156,-7.816999912261963 -30.437999725341797,-12.498000144958496 C-28.514999389648438,-17.18000030517578 -13.329999923706055,-15.380000114440918 3.4800000190734863,-8.47700023651123z"/></g><g opacity="1" transform="matrix(1,0,0,1,23.948999404907227,15.916999816894531)"><path fill="rgb(55,35,24)" fill-opacity="1" d=" M-3.4809999465942383,-8.47700023651123 C-14.239999771118164,-4.059000015258789 -21.40399932861328,3.318000078201294 -19.481000900268555,8 C-17.55900001525879,12.680999755859375 -7.2779998779296875,12.895000457763672 3.4809999465942383,8.47700023651123 C14.239999771118164,4.058000087738037 21.40399932861328,-3.318000078201294 19.481000900268555,-8 C17.55900001525879,-12.682000160217285 7.2779998779296875,-12.895000457763672 -3.4809999465942383,-8.47700023651123z"/><path stroke-linecap="round" stroke-linejoin="round" fill-opacity="0" stroke="rgb(25,25,54)" stroke-opacity="1" stroke-width="2.545" d=" M-3.4809999465942383,-8.47700023651123 C-14.239999771118164,-4.059000015258789 -21.40399932861328,3.318000078201294 -19.481000900268555,8 C-17.55900001525879,12.680999755859375 -7.2779998779296875,12.895000457763672 3.4809999465942383,8.47700023651123 C14.239999771118164,4.058000087738037 21.40399932861328,-3.318000078201294 19.481000900268555,-8 C17.55900001525879,-12.682000160217285 7.2779998779296875,-12.895000457763672 -3.4809999465942383,-8.47700023651123z"/></g></g><g style="display: none;"><g><path/><path stroke-linecap="round" stroke-linejoin="round" fill-opacity="0"/></g></g><g style="display: none;"><g><path/><path stroke-linecap="round" stroke-linejoin="round" fill-opacity="0"/></g></g><g transform="matrix(1,0,0,1,75.38301086425781,50.5569953918457)" opacity="1" style="display: block;"><g opacity="1" transform="matrix(1,0,0,1,43.80699920654297,4.541999816894531)"><path fill="rgb(41,24,61)" fill-opacity="1" d=" M-0.07199999690055847,-4.251999855041504 C2.2769999504089355,-4.291999816894531 4.2129998207092285,-2.4200000762939453 4.252999782562256,-0.07199999690055847 C4.293000221252441,2.2769999504089355 2.4200000762939453,4.2129998207092285 0.07199999690055847,4.251999855041504 C-2.2760000228881836,4.291999816894531 -4.2129998207092285,2.4210000038146973 -4.252999782562256,0.07199999690055847 C-4.293000221252441,-2.2760000228881836 -2.4210000038146973,-4.211999893188477 -0.07199999690055847,-4.251999855041504z"/></g><g opacity="1" transform="matrix(1,0,0,1,-2.4579999446868896,4.541999816894531)"><path fill="rgb(41,24,61)" fill-opacity="1" d=" M-0.07199999690055847,-4.251999855041504 C2.2769999504089355,-4.291999816894531 4.2129998207092285,-2.4200000762939453 4.251999855041504,-0.07199999690055847 C4.291999816894531,2.2769999504089355 2.4210000038146973,4.2129998207092285 0.07199999690055847,4.251999855041504 C-2.2769999504089355,4.291999816894531 -4.2129998207092285,2.4210000038146973 -4.251999855041504,0.07199999690055847 C-4.291999816894531,-2.2760000228881836 -2.4210000038146973,-4.211999893188477 -0.07199999690055847,-4.251999855041504z"/></g><g opacity="1" transform="matrix(0.949999988079071,0,0,1.1699999570846558,20.729999542236328,11.060999870300293)"><path fill="rgb(41,24,61)" fill-opacity="1" d=" M5.997000217437744,-1.309000015258789 C5.997000217437744,-1.309000015258789 6,-2.177999973297119 4.567999839782715,-2.2200000286102295 C3.135999917984009,-2.26200008392334 -2.5220000743865967,-2.2669999599456787 -4.317999839782715,-2.2920000553131104 C-6.113999843597412,-2.316999912261963 -5.644999980926514,-1.149999976158142 -5.644999980926514,-1.149999976158142 C-4.616000175476074,0.9169999957084656 -2.5769999027252197,2.0460000038146973 -0.2709999978542328,2.1610000133514404 C2.4719998836517334,2.2980000972747803 4.995999813079834,1.246999979019165 5.997000217437744,-1.309000015258789z"/></g></g><g style="display: none;"><g><path stroke-linecap="round" stroke-linejoin="round" fill-opacity="0"/></g></g><g style="display: none;"><g><path/><path stroke-linecap="round" stroke-linejoin="round" fill-opacity="0"/></g><g><path/><path stroke-linecap="round" stroke-linejoin="round" fill-opacity="0"/></g></g></g></svg>