<svg xmlns="http://www.w3.org/2000/svg" viewBox="0 0 440 400" width="440" height="400" preserveAspectRatio="xMidYMid meet" style="width: 100%; height: 100%; transform: translate3d(0px, 0px, 0px);"><defs><clipPath id="__lottie_element_85"><rect width="440" height="400" x="0" y="0"/></clipPath></defs><g clip-path="url(#__lottie_element_85)"><g transform="matrix(0.9887772798538208,-0.14939728379249573,0.14939728379249573,0.9887772798538208,132.524169921875,217.87930297851562)" opacity="1" style="display: block;"><g opacity="1" transform="matrix(1,0,0,1,71.62799835205078,69.03700256347656)"><path fill="rgb(210,236,251)" fill-opacity="1" d=" M-5.922999858856201,-52.7760009765625 C-9.991999626159668,-54.0099983215332 -36.6870002746582,-61.5369987487793 -52.84000015258789,-45.430999755859375 C-64.12899780273438,-34.189998626708984 -63.37200164794922,-18.326000213623047 -63.104000091552734,-15.069999694824219 C-61.98400115966797,0.125 -52.09299850463867,16.69099998474121 -37.327999114990234,20.357999801635742 C-35.6619987487793,20.770000457763672 -24.929000854492188,23.4689998626709 -18.916000366210938,17.417999267578125 C-11.734999656677246,10.199000358581543 -13.23799991607666,-5.264999866485596 -21.739999771118164,-12.916000366210938 C-24.927000045776367,-15.901000022888184 -29.04599952697754,-17.69700050354004 -33.402000427246094,-18 C-35.42300033569336,-18.094999313354492 -42.08700180053711,-18.400999069213867 -45.42900085449219,-13.5 C-48.44499969482422,-9.076000213623047 -46.79800033569336,-3.3310000896453857 -44.672000885009766,-0.09399999678134918 C-42.547000885009766,3.1419999599456787 -37.970001220703125,6.781000137329102 -34.244998931884766,5.755000114440918 C-30.77899932861328,4.797999858856201 -29.7549991607666,0.2980000078678131 -28.202999114990234,0.7480000257492065 C-27.06399917602539,1.0740000009536743 -26.48900032043457,3.7839999198913574 -27.246000289916992,5.861999988555908 C-28.347000122070312,9.0600004196167 -32.41600036621094,10.494999885559082 -35.202999114990234,10.64900016784668 C-42.470001220703125,11.098999977111816 -47.64899826049805,3.315000057220459 -48.42399978637695,2.194000005722046 C-48.76900100708008,1.6759999990463257 -55.29999923706055,-8.38599967956543 -50.858001708984375,-17.31999969482422 C-46.310001373291016,-26.482999801635742 -33.22999954223633,-27.851999282836914 -24.36400032043457,-26.329999923706055 C-2.9830000400543213,-22.680999755859375 8.680000305175781,1.6759999990463257 13.256999969482422,11.423999786376953 C18.966999053955078,23.735000610351562 22.013999938964844,37.112998962402344 22.198999404907227,50.680999755859375 C36.56100082397461,62.34299850463867 38.33300018310547,42.06399917602539 45.57099914550781,36.2130012512207 C52.810001373291016,30.36400032043457 64.12799835205078,40.042999267578125 62.231998443603516,28.985000610351562 C61.63800048828125,25.53700065612793 60.07699966430664,17.676000595092773 49.880001068115234,-4.804999828338623 C44.20199966430664,-17.329999923706055 44.029998779296875,-23.47599983215332 37.96900177001953,-29.29800033569336 C34.4739990234375,-32.64899826049805 31.659000396728516,-33.88399887084961 23.472000122070312,-37.91600036621094 C-3.558000087738037,-51.06100082397461 -0.49399998784065247,-51.12900161743164 -5.922999858856201,-52.7760009765625z"/></g><g opacity="1" transform="matrix(1,0,0,1,71.62799835205078,69.44000244140625)"><path stroke-linecap="butt" stroke-linejoin="miter" fill-opacity="0" stroke-miterlimit="10" stroke="rgb(41,24,61)" stroke-opacity="1" stroke-width="3" d=" M-5.922999858856201,-53.17900085449219 C-9.991999626159668,-54.41299819946289 -36.6870002746582,-61.939998626708984 -52.84000015258789,-45.83399963378906 C-64.12899780273438,-34.59299850463867 -63.37200164794922,-18.729000091552734 -63.104000091552734,-15.472999572753906 C-61.98400115966797,-0.27799999713897705 -52.09299850463867,16.288000106811523 -37.327999114990234,19.954999923706055 C-35.6619987487793,20.367000579833984 -24.929000854492188,23.06599998474121 -18.916000366210938,17.014999389648438 C-11.734999656677246,9.795999526977539 -13.23799991607666,-5.668000221252441 -21.739999771118164,-13.319000244140625 C-24.927000045776367,-16.304000854492188 -29.04599952697754,-18.100000381469727 -33.402000427246094,-18.402999877929688 C-35.42300033569336,-18.49799919128418 -42.08700180053711,-18.804000854492188 -45.42900085449219,-13.902999877929688 C-48.44499969482422,-9.479000091552734 -46.79800033569336,-3.7339999675750732 -44.672000885009766,-0.4970000088214874 C-42.547000885009766,2.739000082015991 -37.970001220703125,6.377999782562256 -34.244998931884766,5.3520002365112305 C-30.77899932861328,4.394999980926514 -29.7549991607666,-0.10499999672174454 -28.202999114990234,0.3449999988079071 C-27.06399917602539,0.6710000038146973 -26.48900032043457,3.38100004196167 -27.246000289916992,5.459000110626221 C-28.347000122070312,8.656999588012695 -32.41600036621094,10.092000007629395 -35.202999114990234,10.246000289916992 C-42.470001220703125,10.696000099182129 -47.64899826049805,2.9119999408721924 -48.42399978637695,1.7910000085830688 C-48.76900100708008,1.2730000019073486 -55.29999923706055,-8.788999557495117 -50.858001708984375,-17.722999572753906 C-46.310001373291016,-26.88599967956543 -33.22999954223633,-28.2549991607666 -24.36400032043457,-26.732999801635742 C-2.9830000400543213,-23.083999633789062 8.680000305175781,1.2730000019073486 13.256999969482422,11.020999908447266 C18.966999053955078,23.332000732421875 22.013999938964844,36.709999084472656 22.198999404907227,50.27799987792969 C36.56100082397461,61.939998626708984 38.33300018310547,41.6609992980957 45.57099914550781,35.810001373291016 C52.810001373291016,29.961000442504883 64.12799835205078,39.63999938964844 62.231998443603516,28.582000732421875 C61.63800048828125,25.134000778198242 60.07699966430664,17.273000717163086 49.880001068115234,-5.208000183105469 C44.20199966430664,-17.732999801635742 44.029998779296875,-23.878999710083008 37.96900177001953,-29.701000213623047 C34.4739990234375,-33.051998138427734 31.659000396728516,-34.2869987487793 23.472000122070312,-38.319000244140625 C-3.558000087738037,-51.4640007019043 -0.49399998784065247,-51.53200149536133 -5.922999858856201,-53.17900085449219z"/></g></g><g transform="matrix(0.8910065293312073,-0.45399048924446106,0.45399048924446106,0.8910065293312073,30.894134521484375,289.5934143066406)" opacity="1" style="display: block;"><g opacity="1" transform="matrix(1,0,0,1,71.6520004272461,69.45500183105469)"><path fill="rgb(129,188,230)" fill-opacity="1" d=" M-5.946000099182129,-53.194000244140625 C-10.024999618530273,-54.42900085449219 -36.709999084472656,-61.95500183105469 -52.862998962402344,-45.849998474121094 C-64.1520004272461,-34.5989990234375 -63.395999908447266,-18.743000030517578 -63.137001037597656,-15.477999687194824 C-62.00699996948242,-0.2919999957084656 -52.11600112915039,16.273000717163086 -37.35200119018555,19.951000213623047 C-35.69499969482422,20.371000289916992 -24.961999893188477,23.062000274658203 -18.948999404907227,17.020000457763672 C-11.758000373840332,9.800999641418457 -13.26099967956543,-5.672999858856201 -21.773000717163086,-13.324000358581543 C-24.959999084472656,-16.304000854492188 -29.073999404907227,-18.099000930786133 -33.42599868774414,-18.408000946044922 C-35.44599914550781,-18.493999481201172 -42.111000061035156,-18.809999465942383 -45.46200180053711,-13.89799976348877 C-48.47800064086914,-9.484000205993652 -46.83100128173828,-3.7300000190734863 -44.69599914550781,-0.49300000071525574 C-42.56100082397461,2.74399995803833 -37.99300003051758,6.38100004196167 -34.27799987792969,5.35699987411499 C-30.80299949645996,4.39900016784668 -29.777999877929688,-0.10100000351667404 -28.226999282836914,0.3490000069141388 C-27.097000122070312,0.675000011920929 -26.51300048828125,3.384000062942505 -27.222000122070312,5.461999893188477 C-28.322999954223633,8.65999984741211 -32.391998291015625,10.097000122070312 -35.178001403808594,10.25100040435791 C-42.44599914550781,10.690999984741211 -47.625999450683594,2.9159998893737793 -48.4109992980957,1.7860000133514404 C-48.75600051879883,1.2690000534057617 -55.2760009765625,-8.795000076293945 -50.83300018310547,-17.72800064086914 C-46.28499984741211,-26.881999969482422 -33.20600128173828,-28.260000228881836 -24.34000015258789,-26.738000869750977 C-2.9590001106262207,-23.09000015258789 8.694000244140625,1.2680000066757202 13.270999908447266,11.024999618530273 C18.981000900268555,23.336000442504883 22.02899932861328,36.7130012512207 22.214000701904297,50.28300094604492 C36.57600021362305,61.95399856567383 38.356998443603516,41.66600036621094 45.59600067138672,35.816001892089844 C52.83399963378906,29.96500015258789 64.1520004272461,39.645999908447266 62.25600051879883,28.586999893188477 C61.6619987487793,25.14900016784668 60.09199905395508,17.28700065612793 49.90399932861328,-5.195000171661377 C44.22700119018555,-17.72800064086914 44.05400085449219,-23.875 37.98400115966797,-29.687000274658203 C34.48899841308594,-33.03900146484375 31.673999786376953,-34.27399826049805 23.48699951171875,-38.30500030517578 C-3.5810000896453857,-51.44200134277344 -0.5170000195503235,-51.507999420166016 -5.946000099182129,-53.194000244140625z"/><path stroke-linecap="butt" stroke-linejoin="miter" fill-opacity="0" stroke-miterlimit="10" stroke="rgb(41,24,61)" stroke-opacity="1" stroke-width="3" d=" M-5.946000099182129,-53.194000244140625 C-10.024999618530273,-54.42900085449219 -36.709999084472656,-61.95500183105469 -52.862998962402344,-45.849998474121094 C-64.1520004272461,-34.5989990234375 -63.395999908447266,-18.743000030517578 -63.137001037597656,-15.477999687194824 C-62.00699996948242,-0.2919999957084656 -52.11600112915039,16.273000717163086 -37.35200119018555,19.951000213623047 C-35.69499969482422,20.371000289916992 -24.961999893188477,23.062000274658203 -18.948999404907227,17.020000457763672 C-11.758000373840332,9.800999641418457 -13.26099967956543,-5.672999858856201 -21.773000717163086,-13.324000358581543 C-24.959999084472656,-16.304000854492188 -29.073999404907227,-18.099000930786133 -33.42599868774414,-18.408000946044922 C-35.44599914550781,-18.493999481201172 -42.111000061035156,-18.809999465942383 -45.46200180053711,-13.89799976348877 C-48.47800064086914,-9.484000205993652 -46.83100128173828,-3.7300000190734863 -44.69599914550781,-0.49300000071525574 C-42.56100082397461,2.74399995803833 -37.99300003051758,6.38100004196167 -34.27799987792969,5.35699987411499 C-30.80299949645996,4.39900016784668 -29.777999877929688,-0.10100000351667404 -28.226999282836914,0.3490000069141388 C-27.097000122070312,0.675000011920929 -26.51300048828125,3.384000062942505 -27.222000122070312,5.461999893188477 C-28.322999954223633,8.65999984741211 -32.391998291015625,10.097000122070312 -35.178001403808594,10.25100040435791 C-42.44599914550781,10.690999984741211 -47.625999450683594,2.9159998893737793 -48.4109992980957,1.7860000133514404 C-48.75600051879883,1.2690000534057617 -55.2760009765625,-8.795000076293945 -50.83300018310547,-17.72800064086914 C-46.28499984741211,-26.881999969482422 -33.20600128173828,-28.260000228881836 -24.34000015258789,-26.738000869750977 C-2.9590001106262207,-23.09000015258789 8.694000244140625,1.2680000066757202 13.270999908447266,11.024999618530273 C18.981000900268555,23.336000442504883 22.02899932861328,36.7130012512207 22.214000701904297,50.28300094604492 C36.57600021362305,61.95399856567383 38.356998443603516,41.66600036621094 45.59600067138672,35.816001892089844 C52.83399963378906,29.96500015258789 64.1520004272461,39.645999908447266 62.25600051879883,28.586999893188477 C61.6619987487793,25.14900016784668 60.09199905395508,17.28700065612793 49.90399932861328,-5.195000171661377 C44.22700119018555,-17.72800064086914 44.05400085449219,-23.875 37.98400115966797,-29.687000274658203 C34.48899841308594,-33.03900146484375 31.673999786376953,-34.27399826049805 23.48699951171875,-38.30500030517578 C-3.5810000896453857,-51.44200134277344 -0.5170000195503235,-51.507999420166016 -5.946000099182129,-53.194000244140625z"/></g></g><g transform="matrix(0.9973564743995667,-0.07266377657651901,0.07266377657651901,0.9973564743995667,116.57118225097656,37.04856872558594)" opacity="1" style="display: block;"><g opacity="1" transform="matrix(1,0,0,1,82.83999633789062,61.569000244140625)"><path fill="rgb(139,210,246)" fill-opacity="1" d=" M-56.35300064086914,-17.006000518798828 C-58.9379997253418,-13.62600040435791 -75.33999633789062,8.732000350952148 -65.9280014038086,29.520000457763672 C-59.349998474121094,44.04499816894531 -44.23099899291992,48.869998931884766 -41.090999603271484,49.78900146484375 C-26.469999313354492,54.06999969482422 -7.492000102996826,50.61399841308594 1.1540000438690186,38.09000015258789 C2.1110000610351562,36.672000885009766 8.420999526977539,27.55699920654297 4.86899995803833,19.820999145507812 C0.6269999742507935,10.552000045776367 -14.38599967956543,6.539999961853027 -24.535999298095703,11.824999809265137 C-28.445999145507812,13.765000343322754 -31.569000244140625,16.989999771118164 -33.382999420166016,20.959999084472656 C-34.178001403808594,22.81800079345703 -36.80099868774414,28.94499969482422 -33.382999420166016,33.808998107910156 C-30.299999237060547,38.17599868774414 -24.3439998626709,38.65399932861328 -20.533000946044922,37.801998138427734 C-16.722000122070312,36.95000076293945 -11.744000434875488,33.904998779296875 -11.39900016784668,30.0939998626709 C-11.083000183105469,26.503999710083008 -14.932000160217285,23.966999053955078 -13.973999977111816,22.673999786376953 C-13.265999794006348,21.715999603271484 -10.527000427246094,22.13800048828125 -8.833000183105469,23.525999069213867 C-6.218999862670898,25.68000030517578 -6.304999828338623,29.999000549316406 -7.11899995803833,32.6609992980957 C-9.253999710083008,39.62099838256836 -18.360000610351562,41.7760009765625 -19.680999755859375,42.08100128173828 C-20.284000396728516,42.224998474121094 -31.9950008392334,44.810001373291016 -38.83100128173828,37.51499938964844 C-45.82099914550781,30.03700065612793 -42.507999420166016,17.320999145507812 -37.979000091552734,9.536999702453613 C-27.062999725341797,-9.201000213623047 -0.16699999570846558,-11.527999877929688 10.565999984741211,-12.437999725341797 C24.09000015258789,-13.470000267028809 37.67900085449219,-11.63599967956543 50.44599914550781,-7.057000160217285 C66.4260025024414,-16.450000762939453 75.33999633789062,-29.635000228881836 72.46800231933594,-38.45399856567383 C69.59500122070312,-47.27199935913086 55.233001708984375,-50.04800033569336 44.21200180053711,-52.15399932861328 C40.78499984741211,-52.814998626708984 32.86600112915039,-54.069000244140625 8.23900032043457,-52.44200134277344 C-5.491000175476074,-51.48400115966797 -11.303000450134277,-53.513999938964844 -18.87700080871582,-49.875999450683594 C-23.243000030517578,-47.77899932861328 -25.38800048828125,-45.56700134277344 -32.013999938964844,-39.34299850463867 C-53.92100143432617,-18.62299919128418 -52.90599822998047,-21.506000518798828 -56.35300064086914,-17.006000518798828z"/><path stroke-linecap="butt" stroke-linejoin="miter" fill-opacity="0" stroke-miterlimit="10" stroke="rgb(41,24,61)" stroke-opacity="1" stroke-width="3" d=" M-56.35300064086914,-17.006000518798828 C-58.9379997253418,-13.62600040435791 -75.33999633789062,8.732000350952148 -65.9280014038086,29.520000457763672 C-59.349998474121094,44.04499816894531 -44.23099899291992,48.869998931884766 -41.090999603271484,49.78900146484375 C-26.469999313354492,54.06999969482422 -7.492000102996826,50.61399841308594 1.1540000438690186,38.09000015258789 C2.1110000610351562,36.672000885009766 8.420999526977539,27.55699920654297 4.86899995803833,19.820999145507812 C0.6269999742507935,10.552000045776367 -14.38599967956543,6.539999961853027 -24.535999298095703,11.824999809265137 C-28.445999145507812,13.765000343322754 -31.569000244140625,16.989999771118164 -33.382999420166016,20.959999084472656 C-34.178001403808594,22.81800079345703 -36.80099868774414,28.94499969482422 -33.382999420166016,33.808998107910156 C-30.299999237060547,38.17599868774414 -24.3439998626709,38.65399932861328 -20.533000946044922,37.801998138427734 C-16.722000122070312,36.95000076293945 -11.744000434875488,33.904998779296875 -11.39900016784668,30.0939998626709 C-11.083000183105469,26.503999710083008 -14.932000160217285,23.966999053955078 -13.973999977111816,22.673999786376953 C-13.265999794006348,21.715999603271484 -10.527000427246094,22.13800048828125 -8.833000183105469,23.525999069213867 C-6.218999862670898,25.68000030517578 -6.304999828338623,29.999000549316406 -7.11899995803833,32.6609992980957 C-9.253999710083008,39.62099838256836 -18.360000610351562,41.7760009765625 -19.680999755859375,42.08100128173828 C-20.284000396728516,42.224998474121094 -31.9950008392334,44.810001373291016 -38.83100128173828,37.51499938964844 C-45.82099914550781,30.03700065612793 -42.507999420166016,17.320999145507812 -37.979000091552734,9.536999702453613 C-27.062999725341797,-9.201000213623047 -0.16699999570846558,-11.527999877929688 10.565999984741211,-12.437999725341797 C24.09000015258789,-13.470000267028809 37.67900085449219,-11.63599967956543 50.44599914550781,-7.057000160217285 C66.4260025024414,-16.450000762939453 75.33999633789062,-29.635000228881836 72.46800231933594,-38.45399856567383 C69.59500122070312,-47.27199935913086 55.233001708984375,-50.04800033569336 44.21200180053711,-52.15399932861328 C40.78499984741211,-52.814998626708984 32.86600112915039,-54.069000244140625 8.23900032043457,-52.44200134277344 C-5.491000175476074,-51.48400115966797 -11.303000450134277,-53.513999938964844 -18.87700080871582,-49.875999450683594 C-23.243000030517578,-47.77899932861328 -25.38800048828125,-45.56700134277344 -32.013999938964844,-39.34299850463867 C-53.92100143432617,-18.62299919128418 -52.90599822998047,-21.506000518798828 -56.35300064086914,-17.006000518798828z"/></g></g><g transform="matrix(0.9975640773773193,-0.06975647062063217,0.06975647062063217,0.9975640773773193,71.54597473144531,45.02798843383789)" opacity="1" style="display: block;"><g opacity="1" transform="matrix(1,0,0,1,82.8499984741211,61.59299850463867)"><path fill="rgb(185,207,235)" fill-opacity="1" d=" M-56.35300064086914,-16.981000900268555 C-58.9379997253418,-13.60099983215332 -75.3499984741211,8.755999565124512 -65.9280014038086,29.542999267578125 C-59.36000061035156,44.06800079345703 -44.23099899291992,48.89400100708008 -41.099998474121094,49.8129997253418 C-26.469999313354492,54.09299850463867 -7.492000102996826,50.63800048828125 1.1540000438690186,38.112998962402344 C2.1110000610351562,36.69599914550781 8.411999702453613,27.58099937438965 4.859000205993652,19.8439998626709 C0.6179999709129333,10.576000213623047 -14.395999908447266,6.564000129699707 -24.535999298095703,11.848999977111816 C-28.451000213623047,13.784000396728516 -31.57900047302246,17.010000228881836 -33.393001556396484,20.982999801635742 C-34.1870002746582,22.840999603271484 -36.81100082397461,28.9689998626709 -33.393001556396484,33.83300018310547 C-30.30900001525879,38.20000076293945 -24.3439998626709,38.67900085449219 -20.542999267578125,37.82699966430664 C-16.742000579833984,36.9739990234375 -11.744000434875488,33.93000030517578 -11.409000396728516,30.118999481201172 C-11.093000411987305,26.527000427246094 -14.942000389099121,23.989999771118164 -13.975000381469727,22.69700050354004 C-13.276000022888184,21.739999771118164 -10.536999702453613,22.16200065612793 -8.842000007629395,23.548999786376953 C-6.228000164031982,25.704999923706055 -6.304999828338623,30.02199935913086 -7.129000186920166,32.685001373291016 C-9.253999710083008,39.64500045776367 -18.368999481201172,41.79899978637695 -19.680999755859375,42.10599899291992 C-20.29400062561035,42.249000549316406 -32.00400161743164,44.83399963378906 -38.83100128173828,37.53900146484375 C-45.81100082397461,30.06100082397461 -42.507999420166016,17.344999313354492 -37.979000091552734,9.560999870300293 C-27.06399917602539,-9.177000045776367 -0.1679999977350235,-11.552000045776367 10.576000213623047,-12.461000442504883 C24.099000930786133,-13.493000030517578 37.6879997253418,-11.659000396728516 50.45600128173828,-7.080999851226807 C66.4260025024414,-16.474000930786133 75.3499984741211,-29.667999267578125 72.47699737548828,-38.47700119018555 C69.6050033569336,-47.2859992980957 55.24300003051758,-50.071998596191406 44.21200180053711,-52.178001403808594 C40.784000396728516,-52.8390007019043 32.86600112915039,-54.09299850463867 8.24899959564209,-52.46500015258789 C-5.48199987411499,-51.507999420166016 -11.303000450134277,-53.53799819946289 -18.87700080871582,-49.89899826049805 C-23.233999252319336,-47.803001403808594 -25.378000259399414,-45.590999603271484 -32.00400161743164,-39.367000579833984 C-53.930999755859375,-18.599000930786133 -52.91600036621094,-21.472000122070312 -56.35300064086914,-16.981000900268555z"/><path stroke-linecap="butt" stroke-linejoin="miter" fill-opacity="0" stroke-miterlimit="10" stroke="rgb(41,24,61)" stroke-opacity="1" stroke-width="3" d=" M-56.35300064086914,-16.981000900268555 C-58.9379997253418,-13.60099983215332 -75.3499984741211,8.755999565124512 -65.9280014038086,29.542999267578125 C-59.36000061035156,44.06800079345703 -44.23099899291992,48.89400100708008 -41.099998474121094,49.8129997253418 C-26.469999313354492,54.09299850463867 -7.492000102996826,50.63800048828125 1.1540000438690186,38.112998962402344 C2.1110000610351562,36.69599914550781 8.411999702453613,27.58099937438965 4.859000205993652,19.8439998626709 C0.6179999709129333,10.576000213623047 -14.395999908447266,6.564000129699707 -24.535999298095703,11.848999977111816 C-28.451000213623047,13.784000396728516 -31.57900047302246,17.010000228881836 -33.393001556396484,20.982999801635742 C-34.1870002746582,22.840999603271484 -36.81100082397461,28.9689998626709 -33.393001556396484,33.83300018310547 C-30.30900001525879,38.20000076293945 -24.3439998626709,38.67900085449219 -20.542999267578125,37.82699966430664 C-16.742000579833984,36.9739990234375 -11.744000434875488,33.93000030517578 -11.409000396728516,30.118999481201172 C-11.093000411987305,26.527000427246094 -14.942000389099121,23.989999771118164 -13.975000381469727,22.69700050354004 C-13.276000022888184,21.739999771118164 -10.536999702453613,22.16200065612793 -8.842000007629395,23.548999786376953 C-6.228000164031982,25.704999923706055 -6.304999828338623,30.02199935913086 -7.129000186920166,32.685001373291016 C-9.253999710083008,39.64500045776367 -18.368999481201172,41.79899978637695 -19.680999755859375,42.10599899291992 C-20.29400062561035,42.249000549316406 -32.00400161743164,44.83399963378906 -38.83100128173828,37.53900146484375 C-45.81100082397461,30.06100082397461 -42.507999420166016,17.344999313354492 -37.979000091552734,9.560999870300293 C-27.06399917602539,-9.177000045776367 -0.1679999977350235,-11.552000045776367 10.576000213623047,-12.461000442504883 C24.099000930786133,-13.493000030517578 37.6879997253418,-11.659000396728516 50.45600128173828,-7.080999851226807 C66.4260025024414,-16.474000930786133 75.3499984741211,-29.667999267578125 72.47699737548828,-38.47700119018555 C69.6050033569336,-47.2859992980957 55.24300003051758,-50.071998596191406 44.21200180053711,-52.178001403808594 C40.784000396728516,-52.8390007019043 32.86600112915039,-54.09299850463867 8.24899959564209,-52.46500015258789 C-5.48199987411499,-51.507999420166016 -11.303000450134277,-53.53799819946289 -18.87700080871582,-49.89899826049805 C-23.233999252319336,-47.803001403808594 -25.378000259399414,-45.590999603271484 -32.00400161743164,-39.367000579833984 C-53.930999755859375,-18.599000930786133 -52.91600036621094,-21.472000122070312 -56.35300064086914,-16.981000900268555z"/></g></g><g transform="matrix(0.9974032044410706,-0.07201969623565674,0.07201969623565674,0.9974032044410706,40.39366912841797,7.952667236328125)" opacity="1" style="display: block;"><g opacity="1" transform="matrix(1,0,0,1,185.18299865722656,201.45700073242188)"><path fill="rgb(183,217,244)" fill-opacity="1" d=" M-45.68299865722656,177.99000549316406 C-20.898000717163086,185.843994140625 5.210999965667725,188.6510009765625 31.097999572753906,186.2449951171875 C44.56999969482422,184.96200561523438 108.54199981689453,178.8520050048828 147.00399780273438,132.01100158691406 C205.5919952392578,60.64899826049805 157.6020050048828,-47.5 152.74899291992188,-58.10900115966797 C117.45600128173828,-134.51600646972656 43.297000885009766,-175.94700622558594 -20.854999542236328,-185.1199951171875 C-41.1349983215332,-187.99200439453125 -123.61299896240234,-193.95700073242188 -160.56199645996094,-151.43499755859375 C-165.8090057373047,-145.4029998779297 -177.68299865722656,-124.77899932861328 -170.13800048828125,-104.91000366210938 C-164.89100646972656,-91.06500244140625 -149.36000061035156,-85.8270034790039 -145.3000030517578,-84.63999938964844 C-130.6790008544922,-80.36100006103516 -111.7020034790039,-83.81700134277344 -103.05599975585938,-96.34100341796875 C-102.0979995727539,-97.75800323486328 -95.7979965209961,-106.87300109863281 -99.34100341796875,-114.61000061035156 C-103.58200073242188,-123.87799835205078 -118.60600280761719,-127.88999938964844 -128.7449951171875,-122.6050033569336 C-132.66000366210938,-120.6719970703125 -135.78500366210938,-117.44499969482422 -137.59300231933594,-113.47000122070312 C-138.39700317382812,-111.61299896240234 -141.02000427246094,-105.48500061035156 -137.59300231933594,-100.63099670410156 C-134.5189971923828,-96.25499725341797 -128.5540008544922,-95.7760009765625 -124.75299835205078,-96.62799835205078 C-120.95099639892578,-97.4800033569336 -115.9530029296875,-100.5250015258789 -115.61799621582031,-104.33599853515625 C-115.302001953125,-107.927001953125 -119.1510009765625,-110.46399688720703 -118.18399810791016,-111.75700378417969 C-117.48500061035156,-112.71399688720703 -114.74700164794922,-112.302001953125 -113.04199981689453,-110.90499877929688 C-110.43800354003906,-108.75 -110.51499938964844,-104.43199920654297 -111.33799743652344,-101.7699966430664 C-113.46399688720703,-94.80899810791016 -122.5790023803711,-92.65499877929688 -123.89099884033203,-92.3479995727539 C-124.50399780273438,-92.2040023803711 -136.21400451660156,-89.62899780273438 -143.04100036621094,-96.91500091552734 C-150.02099609375,-104.39299774169922 -146.70799255371094,-117.10900115966797 -142.1790008544922,-124.89299774169922 C-134.0399932861328,-138.8820037841797 -108.58100128173828,-148.27499389648438 -93.63400268554688,-146.91600036621094 C-75.30799865722656,-145.20199584960938 -32.917999267578125,-127.58399963378906 -4.585999965667725,-86.96700286865234 C11.824000358581543,-63.44200134277344 13.836000442504883,-39.09299850463867 14.821000099182129,-27.027999877929688 C16.172000885009766,-9.20199966430664 14.138999938964844,8.718000411987305 8.82699966430664,25.788000106811523 C4.508999824523926,39.78499984741211 -2.0789999961853027,61.310001373291016 -22.003000259399414,80.02899932861328 C-28.198999404907227,85.84200286865234 -58.04399871826172,113.87699890136719 -87.0270004272461,108.75499725341797 C-92.11199951171875,107.84400177001953 -99.33100128173828,105.5270004272461 -104.78900146484375,109.46299743652344 C-111.49099731445312,114.2509994506836 -111.2229995727539,125.36599731445312 -111.06999969482422,132.02099609375 C-110.89800262451172,139.55599975585938 -110.62000274658203,151.45899963378906 -102.5,160.56399536132812 C-96.00900268554688,167.8419952392578 -85.04499816894531,170.13900756835938 -63.10900115966797,174.84100341796875 C-55.832000732421875,176.39100646972656 -49.78099822998047,177.3780059814453 -45.68299865722656,177.99000549316406z"/></g><g opacity="1" transform="matrix(1,0,0,1,199.13699340820312,198.8040008544922)"><path stroke-linecap="butt" stroke-linejoin="miter" fill-opacity="0" stroke-miterlimit="10" stroke="rgb(41,24,61)" stroke-opacity="1" stroke-width="3" d=" M-59.637001037597656,180.64300537109375 C-34.85200119018555,188.4969940185547 -8.744000434875488,191.3040008544922 17.14299964904785,188.8979949951172 C30.614999771118164,187.61500549316406 94.58699798583984,181.5050048828125 133.0489959716797,134.66400146484375 C191.63699340820312,63.301998138427734 143.6479949951172,-44.84700012207031 138.7949981689453,-55.45600128173828 C103.50199890136719,-131.86300659179688 29.341999053955078,-173.29400634765625 -34.810001373291016,-182.4669952392578 C-55.09000015258789,-185.33900451660156 -137.56700134277344,-191.3040008544922 -174.51600646972656,-148.78199768066406 C-179.76300048828125,-142.75 -191.63699340820312,-122.1259994506836 -184.0919952392578,-102.25700378417969 C-178.84500122070312,-88.41200256347656 -163.31399536132812,-83.17400360107422 -159.25399780273438,-81.98699951171875 C-144.63299560546875,-77.70800018310547 -125.65599822998047,-81.16400146484375 -117.01000213623047,-93.68800354003906 C-116.052001953125,-95.1050033569336 -109.75299835205078,-104.22000122070312 -113.2959976196289,-111.95700073242188 C-117.53700256347656,-121.2249984741211 -132.55999755859375,-125.23699951171875 -142.69900512695312,-119.9520034790039 C-146.61399841308594,-118.01899719238281 -149.74000549316406,-114.79199981689453 -151.54800415039062,-110.81700134277344 C-152.3520050048828,-108.95999908447266 -154.97500610351562,-102.83200073242188 -151.54800415039062,-97.97799682617188 C-148.4739990234375,-93.60199737548828 -142.50900268554688,-93.12300109863281 -138.70799255371094,-93.9749984741211 C-134.906005859375,-94.8270034790039 -129.90699768066406,-97.87200164794922 -129.57200622558594,-101.68299865722656 C-129.25599670410156,-105.27400207519531 -133.1060028076172,-107.81099700927734 -132.13900756835938,-109.10399627685547 C-131.44000244140625,-110.06099700927734 -128.70199584960938,-109.64900207519531 -126.99700164794922,-108.25199890136719 C-124.39299774169922,-106.09700012207031 -124.46900177001953,-101.77899932861328 -125.29199981689453,-99.11699676513672 C-127.41799926757812,-92.15599822998047 -136.53399658203125,-90.00199890136719 -137.8459930419922,-89.69499969482422 C-138.45899963378906,-89.5510025024414 -150.16799926757812,-86.97599792480469 -156.9949951171875,-94.26200103759766 C-163.97500610351562,-101.73999786376953 -160.66200256347656,-114.45600128173828 -156.13299560546875,-122.23999786376953 C-147.99400329589844,-136.22900390625 -122.53600311279297,-145.6219940185547 -107.58899688720703,-144.26300048828125 C-89.26300048828125,-142.5489959716797 -46.87200164794922,-124.93099975585938 -18.540000915527344,-84.31400299072266 C-2.130000114440918,-60.78900146484375 -0.11800000071525574,-36.439998626708984 0.8669999837875366,-24.375 C2.2179999351501465,-6.548999786376953 0.18400000035762787,11.371000289916992 -5.127999782562256,28.44099998474121 C-9.446000099182129,42.4379997253418 -16.034000396728516,63.9630012512207 -35.95800018310547,82.68199920654297 C-42.15399932861328,88.49500274658203 -71.9990005493164,116.52999877929688 -100.98200225830078,111.40799713134766 C-106.06700134277344,110.49700164794922 -113.28500366210938,108.18000030517578 -118.74299621582031,112.11599731445312 C-125.44499969482422,116.90399932861328 -125.1780014038086,128.0189971923828 -125.0250015258789,134.6739959716797 C-124.85299682617188,142.20899963378906 -124.5739974975586,154.11199951171875 -116.4540023803711,163.2169952392578 C-109.96299743652344,170.4949951171875 -99,172.79200744628906 -77.06400299072266,177.49400329589844 C-69.78700256347656,179.04400634765625 -63.73500061035156,180.031005859375 -59.637001037597656,180.64300537109375z"/></g><g opacity="1" transform="matrix(1,0,0,1,194.46499633789062,152.63099670410156)"><path fill="rgb(221,230,235)" fill-opacity="1" d=" M-105.24700164794922,-121.19499969482422 C-60.10200119018555,-124.30699920654297 -21.534000396728516,-109.31300354003906 -9.307000160217285,-102.22699737548828 C55.803001403808594,-64.51100158691406 84.0009994506836,23.673999786376953 59.777000427246094,89.27100372314453 C53.07699966430664,107.0770034790039 42.77299880981445,123.30599975585938 29.510000228881836,136.94500732421875 C45.89500045776367,129.0749969482422 60.32699966430664,117.66500091552734 71.76399993896484,103.53800201416016 C105.24800109863281,61.76300048828125 98.89900207519531,10.61400032043457 95.47100067138672,-7.176000118255615 C81.26200103759766,-81.00900268554688 14.793999671936035,-112.66400146484375 10.694999694824219,-114.51200103759766 C-38.970001220703125,-136.9459991455078 -97.58699798583984,-123.99099731445312 -105.24700164794922,-121.19499969482422z"/><path stroke-linecap="butt" stroke-linejoin="round" fill-opacity="0" stroke="rgb(41,24,61)" stroke-opacity="1" stroke-width="3" d=" M-105.24700164794922,-121.19499969482422 C-60.10200119018555,-124.30699920654297 -21.534000396728516,-109.31300354003906 -9.307000160217285,-102.22699737548828 C55.803001403808594,-64.51100158691406 84.0009994506836,23.673999786376953 59.777000427246094,89.27100372314453 C53.07699966430664,107.0770034790039 42.77299880981445,123.30599975585938 29.510000228881836,136.94500732421875 C45.89500045776367,129.0749969482422 60.32699966430664,117.66500091552734 71.76399993896484,103.53800201416016 C105.24800109863281,61.76300048828125 98.89900207519531,10.61400032043457 95.47100067138672,-7.176000118255615 C81.26200103759766,-81.00900268554688 14.793999671936035,-112.66400146484375 10.694999694824219,-114.51200103759766 C-38.970001220703125,-136.9459991455078 -97.58699798583984,-123.99099731445312 -105.24700164794922,-121.19499969482422z"/></g><g opacity="1" transform="matrix(1,0,0,1,162.5540008544922,198.41400146484375)"><path stroke-linecap="round" stroke-linejoin="round" fill-opacity="0" stroke="rgb(41,24,61)" stroke-opacity="1" stroke-width="3" d=" M34.03900146484375,-120.89299774169922 C49.93000030517578,-100.00700378417969 60.334999084472656,-75.4729995727539 64.30599975585938,-49.53099822998047 C65.33000183105469,-42.70399856567383 69.86799621582031,-9.536999702453613 57.73699951171875,23.83300018310547 C29.969999313354492,100.1259994506836 -63.816001892089844,119.7249984741211 -69.86799621582031,120.89299774169922"/></g><g opacity="1" transform="matrix(1,0,0,1,224.67799377441406,255.4040069580078)"><path fill="rgb(139,210,246)" fill-opacity="1" d=" M81.10399627685547,-118.22100067138672 C86.00700378417969,-102.84400177001953 94.9020004272461,-67.64600372314453 84.10099792480469,-25.726999282836914 C81.93699645996094,-17.349000930786133 63.49599838256836,49.569000244140625 -3.681999921798706,81.74099731445312 C-43.895999908447266,101.01499938964844 -81.45899963378906,98.16300201416016 -97.87999725341797,95.8740005493164 C-97.87999725341797,95.8740005493164 -114.5790023803711,104.86499786376953 -114.5790023803711,104.86499786376953 C-102.28299713134766,107.45099639892578 -89.84600067138672,109.31199645996094 -77.33200073242188,110.43800354003906 C-33.69900131225586,114.36399841308594 9.177000045776367,118.22100067138672 47.2760009765625,95.4520034790039 C87.0790023803711,71.65799713134766 111.93599700927734,24.599000930786133 113.21900177001953,-22.729999542236328 C114.5780029296875,-72.72100067138672 89.24299621582031,-107.81300354003906 81.10399627685547,-118.22100067138672z"/><path stroke-linecap="round" stroke-linejoin="round" fill-opacity="0" stroke="rgb(41,24,61)" stroke-opacity="1" stroke-width="3" d=" M81.10399627685547,-118.22100067138672 C86.00700378417969,-102.84400177001953 94.9020004272461,-67.64600372314453 84.10099792480469,-25.726999282836914 C81.93699645996094,-17.349000930786133 63.49599838256836,49.569000244140625 -3.681999921798706,81.74099731445312 C-43.895999908447266,101.01499938964844 -81.45899963378906,98.16300201416016 -97.87999725341797,95.8740005493164 C-97.87999725341797,95.8740005493164 -114.5790023803711,104.86499786376953 -114.5790023803711,104.86499786376953 C-102.28299713134766,107.45099639892578 -89.84600067138672,109.31199645996094 -77.33200073242188,110.43800354003906 C-33.69900131225586,114.36399841308594 9.177000045776367,118.22100067138672 47.2760009765625,95.4520034790039 C87.0790023803711,71.65799713134766 111.93599700927734,24.599000930786133 113.21900177001953,-22.729999542236328 C114.5780029296875,-72.72100067138672 89.24299621582031,-107.81300354003906 81.10399627685547,-118.22100067138672z"/></g></g><g transform="matrix(0.9651536345481873,0.2616838812828064,-0.2616838812828064,0.9651536345481873,27.442228317260742,238.27886962890625)" opacity="1" style="display: block;"><g opacity="1" transform="matrix(1,0,0,1,27.56999969482422,33.81399917602539)"><path fill="rgb(131,141,167)" fill-opacity="1" d=" M10.42300033569336,-0.1599999964237213 C10.42300033569336,-0.1599999964237213 21.965999603271484,-16.513999938964844 21.965999603271484,-16.513999938964844 C21.965999603271484,-16.513999938964844 10.744999885559082,-25.173999786376953 10.744999885559082,-25.173999786376953 C10.744999885559082,-25.173999786376953 -4.6479997634887695,7.535999774932861 -4.6479997634887695,7.535999774932861 C-4.6479997634887695,7.535999774932861 -13.626999855041504,9.140000343322754 -13.626999855041504,9.140000343322754 C-13.626999855041504,9.140000343322754 -20.36199951171875,14.592000007629395 -20.36199951171875,14.592000007629395 C-20.36199951171875,14.592000007629395 -21.965999603271484,19.722999572753906 -21.965999603271484,19.722999572753906 C-21.965999603271484,19.722999572753906 -12.987000465393066,25.173999786376953 -12.987000465393066,25.173999786376953 C-12.987000465393066,25.173999786376953 1.1230000257492065,20.68600082397461 1.1230000257492065,20.68600082397461 C1.1230000257492065,20.68600082397461 10.42300033569336,-0.1599999964237213 10.42300033569336,-0.1599999964237213z"/></g><g opacity="1" transform="matrix(1,0,0,1,34.98899841308594,31.173999786376953)"><path stroke-linecap="round" stroke-linejoin="round" fill-opacity="0" stroke="rgb(41,24,61)" stroke-opacity="1" stroke-width="4" d=" M30.98900032043457,-27.173999786376953 C30.98900032043457,-27.173999786376953 15.331999778747559,-15.616000175476074 15.331999778747559,-15.616000175476074 C14.11400032043457,-14.718999862670898 13.116999626159668,-13.555000305175781 12.414999961853027,-12.21500015258789 C12.414999961853027,-12.21500015258789 -4.370999813079834,19.79800033569336 -4.370999813079834,19.79800033569336 C-4.370999813079834,19.79800033569336 -9.5,26.531999588012695 -17.520000457763672,27.173999786376953 C-28.423999786376953,27.173999786376953 -30.98900032043457,21.08099937438965 -28.743999481201172,17.23200035095215 C-26.499000549316406,13.383999824523926 -19.124000549316406,9.21500015258789 -13.35099983215332,11.138999938964844 C-11.555000305175781,6.7769999504089355 -1.2719999551773071,-14.194999694824219 3.6449999809265137,-24.136999130249023"/></g></g><g transform="matrix(0.764133870601654,0.6450576782226562,-0.6450576782226562,0.764133870601654,177.60911560058594,152.6013946533203)" opacity="1" style="display: block;"><g opacity="1" transform="matrix(1,0,0,1,56.29800033569336,38.345001220703125)"><path fill="rgb(131,141,167)" fill-opacity="1" d=" M49.92499923706055,-16.84000015258789 C49.92499923706055,-16.84000015258789 51.32699966430664,-22.908000946044922 51.32699966430664,-22.908000946044922 C51.32699966430664,-22.908000946044922 44.79100036621094,-30.145000457763672 44.79100036621094,-30.145000457763672 C44.79100036621094,-30.145000457763672 34.516998291015625,-26.138999938964844 34.516998291015625,-26.138999938964844 C34.516998291015625,-26.138999938964844 33.50600051879883,-24.753000259399414 33.50600051879883,-24.753000259399414 C33.50600051879883,-24.753000259399414 23.503000259399414,-16.983999252319336 23.503000259399414,-16.983999252319336 C23.503000259399414,-16.983999252319336 7.855999946594238,-10.359000205993652 7.855999946594238,-10.359000205993652 C7.855999946594238,-10.359000205993652 -11.16100025177002,-0.8220000267028809 -11.16100025177002,-0.8220000267028809 C-11.16100025177002,-0.8220000267028809 -29.631999969482422,8.576000213623047 -29.631999969482422,8.576000213623047 C-29.631999969482422,8.576000213623047 -51.32699966430664,21.437999725341797 -51.32699966430664,21.437999725341797 C-51.32699966430664,21.437999725341797 -35.895999908447266,30.145000457763672 -35.895999908447266,30.145000457763672 C-32.56399917602539,22.06100082397461 -16.17099952697754,19.886999130249023 -9.244999885559082,12.496999740600586 C3.1510000228881836,4.64300012588501 21.47800064086914,-5.361000061035156 30.141000747680664,-7.98199987411499 C34.35300064086914,-8.003999710083008 41.106998443603516,-10.892999649047852 43.74599838256836,-11.958000183105469 C43.74599838256836,-11.958000183105469 49.92499923706055,-16.84000015258789 49.92499923706055,-16.84000015258789z"/></g><g opacity="1" transform="matrix(1,0,0,1,47.89400100708008,35.68000030517578)"><path stroke-linecap="round" stroke-linejoin="round" fill-opacity="0" stroke="rgb(41,24,61)" stroke-opacity="1" stroke-width="4" d=" M43.89400100708008,-24.73200035095215 C43.89400100708008,-24.73200035095215 43.89400100708008,-24.73200035095215 43.89400100708008,-24.73200035095215 C40.07899856567383,-20.312999725341797 35.27399826049805,-16.886999130249023 29.926000595092773,-14.545999526977539 C15.968999862670898,-8.437000274658203 -13.894000053405762,5.465000152587891 -43.89400100708008,24.73200035095215"/></g><g opacity="1" transform="matrix(1,0,0,1,61.125999450683594,37.99300003051758)"><path stroke-linecap="round" stroke-linejoin="round" fill-opacity="0" stroke="rgb(41,24,61)" stroke-opacity="1" stroke-width="4" d=" M-48.04399871826172,33.99300003051758 C-48.04399871826172,33.99300003051758 -5.054999828338623,6.002999782562256 -5.054999828338623,6.002999782562256 C-5.054999828338623,6.002999782562256 20.29199981689453,-7.438000202178955 20.29199981689453,-7.438000202178955 C20.29199981689453,-7.438000202178955 23.016000747680664,-8.52299976348877 23.016000747680664,-8.52299976348877 C24.141000747680664,-8.970999717712402 26.85099983215332,-10.565999984741211 28.062000274658203,-10.53499984741211 C34.178001403808594,-10.383000373840332 45.94900131225586,-13.592000007629395 47.19499969482422,-20.687999725341797 C48.04399871826172,-25.52199935913086 39.0260009765625,-33.99399948120117 30.624000549316406,-26.992000579833984"/></g></g><g transform="matrix(0.9977666139602661,-0.06679634004831314,0.06679634004831314,0.9977666139602661,87.376953125,266.07086181640625)" opacity="1" style="display: block;"><g opacity="1" transform="matrix(1,0,0,1,36.98400115966797,42.138999938964844)"><path fill="rgb(131,141,167)" fill-opacity="1" d=" M-27.198999404907227,-36.198001861572266 C-27.198999404907227,-36.198001861572266 -13.23799991607666,-34.56999969482422 -13.34000015258789,-26.604999542236328 C-13.442000389099121,-18.639999389648438 -17.23200035095215,-3.3889999389648438 -11.99899959564209,1.36899995803833 C-8.970000267028809,4.123000144958496 26.16900062561035,1.6230000257492065 28.135000228881836,3.2139999866485596 C35.4900016784668,6.35699987411499 31.989999771118164,17.73200035095215 30.486000061035156,19.56800079345703 C26.364999771118164,27.73200035095215 19.740999221801758,36.606998443603516 13.682000160217285,32.832000732421875 C8.206000328063965,29.42099952697754 11.991000175476074,21.60700035095215 16.062000274658203,16.229999542236328 C16.062000274658203,16.229999542236328 -15.682999610900879,21.663000106811523 -24.351999282836914,12.991999626159668 C-38.43299865722656,-2.0869998931884766 -27.198999404907227,-36.198001861572266 -27.198999404907227,-36.198001861572266z"/></g><g opacity="1" transform="matrix(1,0,0,1,28.735000610351562,35.18199920654297)"><path stroke-linecap="round" stroke-linejoin="round" fill-opacity="0" stroke="rgb(41,24,61)" stroke-opacity="1" stroke-width="4" d=" M-20.985000610351562,-22.906999588012695 C-22.292999267578125,-12.184000015258789 -24.95400047302246,12.4399995803833 -15.222999572753906,20.52400016784668 C-6.38100004196167,27.863000869750977 14.791000366210938,25.152000427246094 24.4060001373291,23.084999084472656"/></g><g opacity="1" transform="matrix(1,0,0,1,39.875,41.88399887084961)"><path stroke-linecap="round" stroke-linejoin="round" fill-opacity="0" stroke="rgb(41,24,61)" stroke-opacity="1" stroke-width="4" d=" M12.72700023651123,16.552000045776367 C9.885000228881836,20.71500015258789 5.35699987411499,27.989999771118164 10.590999603271484,32.9370002746582 C15.826000213623047,37.88399887084961 22.20599937438965,30.374000549316406 27.476999282836914,19.851999282836914 C32.74800109863281,9.32800006866455 30.0939998626709,2.6740000247955322 22.416000366210938,2.6740000247955322 C14.73799991607666,2.6740000247955322 -5.9039998054504395,6.247000217437744 -14.925999641418457,1.5490000247955322 C-21.190000534057617,-2.812000036239624 -16.02899932861328,-26.479999542236328 -16.02899932861328,-26.479999542236328 C-15.319999694824219,-32.58399963378906 -25.545000076293945,-34.779998779296875 -30.305999755859375,-35.88100051879883"/></g></g><g transform="matrix(0.9977666139602661,-0.06679634004831314,0.06679634004831314,0.9977666139602661,116.31401824951172,257.992919921875)" opacity="1" style="display: block;"><g opacity="1" transform="matrix(1,0,0,1,27.66900062561035,50.42599868774414)"><path fill="rgb(131,141,167)" fill-opacity="1" d=" M7.796999931335449,-36.444000244140625 C7.796999931335449,-36.444000244140625 18.746000289916992,-44.220001220703125 18.746000289916992,-44.220001220703125 C18.746000289916992,-44.220001220703125 23.843000411987305,-32.417999267578125 16.975000381469727,-25.304000854492188 C10.107000350952148,-18.190000534057617 -3.9519999027252197,1.2389999628067017 -3.680000066757202,4.876999855041504 C1.3519999980926514,9.986000061035156 18.08099937438965,18.320999145507812 22.266000747680664,23.976999282836914 C26.43899917602539,29.618000030517578 9.79699993133545,34.430999755859375 8.166999816894531,35.81100082397461 C-0.9070000052452087,39.95600128173828 -15.92300033569336,45.020999908447266 -17.433000564575195,38.749000549316406 C-18.94300079345703,32.47800064086914 -11.668000221252441,23.3799991607666 -5.908999919891357,21.016000747680664 C-5.908999919891357,21.016000747680664 -25.045000076293945,17.233999252319336 -23.83300018310547,5.663000106811523 C-22.621000289916992,-5.9079999923706055 5.697000026702881,-35.55500030517578 7.796999931335449,-36.444000244140625z"/></g><g opacity="1" transform="matrix(1,0,0,1,19.292999267578125,41.31800079345703)"><path stroke-linecap="round" stroke-linejoin="round" fill-opacity="0" stroke="rgb(41,24,61)" stroke-opacity="1" stroke-width="4" d=" M16.319000244140625,-27.545000076293945 C9.326000213623047,-19.413000106811523 -15.684000015258789,3.3299999237060547 -15.355999946594238,14.817000389099121 C-15.027000427246094,26.30500030517578 -2.2690000534057617,27.13800048828125 2.437999963760376,29.59600067138672"/></g><g opacity="1" transform="matrix(1,0,0,1,31.18400001525879,49.88399887084961)"><path stroke-linecap="round" stroke-linejoin="round" fill-opacity="0" stroke="rgb(41,24,61)" stroke-opacity="1" stroke-width="4" d=" M-9.550999641418457,21.51799964904785 C-14.256999969482422,23.7450008392334 -23.4060001373291,32.62699890136719 -20.920000076293945,39.255001068115234 C-18.43400001525879,45.88399887084961 -2.61299991607666,39.551998138427734 4.678999900817871,36.388999938964844 C11.970999717712402,33.22700119018555 23.405000686645508,29.136999130249023 18.350000381469727,23.358999252319336 C13.293999671936035,17.579999923706055 -2.9739999771118164,10.718000411987305 -7.10099983215332,5.390999794006348 C-5.678999900817871,-1.7079999446868896 13.605999946594238,-24.7189998626709 13.605999946594238,-24.7189998626709 C19.864999771118164,-29.93899917602539 17.35700035095215,-39.527000427246094 15.050000190734863,-43.83300018310547"/></g></g><g transform="matrix(0.9977666139602661,-0.06679634004831314,0.06679634004831314,0.9977666139602661,36.15085983276367,117.8936538696289)" opacity="1" style="display: block;"><g opacity="1" transform="matrix(1,0,0,1,76.2020034790039,95.7770004272461)"><path fill="rgb(131,141,167)" fill-opacity="1" d=" M-72.2020034790039,42.35900115966797 C-72.2020034790039,42.35900115966797 -17.007999420166016,-91.7770004272461 -17.007999420166016,-91.7770004272461 C-17.007999420166016,-91.7770004272461 72.2020034790039,26.957000732421875 72.2020034790039,26.957000732421875 C72.2020034790039,26.957000732421875 -0.9629999995231628,91.7770004272461 -0.9629999995231628,91.7770004272461 C-0.9629999995231628,91.7770004272461 -72.2020034790039,42.35900115966797 -72.2020034790039,42.35900115966797z"/></g><g opacity="1" transform="matrix(1,0,0,1,103.96600341796875,95.5260009765625)"><path fill="rgb(98,106,137)" fill-opacity="1" d=" M-28.597000122070312,90.91100311279297 C-28.597000122070312,90.91100311279297 -44.25199890136719,-90.91100311279297 -44.25199890136719,-90.91100311279297 C-44.25199890136719,-90.91100311279297 44.25199890136719,27.093000411987305 44.25199890136719,27.093000411987305 C44.25199890136719,27.093000411987305 -28.597000122070312,90.91100311279297 -28.597000122070312,90.91100311279297z"/></g><g opacity="1" transform="matrix(1,0,0,1,108.44999694824219,147.22500610351562)"><path fill="rgb(66,79,115)" fill-opacity="1" d=" M39.21699905395508,-24.908000946044922 C39.21699905395508,-24.908000946044922 -39.18600082397461,-33.78799819946289 -39.18600082397461,-33.78799819946289 C-39.18600082397461,-33.78799819946289 -32.858001708984375,40.805999755859375 -32.858001708984375,40.805999755859375 C-32.858001708984375,40.805999755859375 39.21699905395508,-24.908000946044922 39.21699905395508,-24.908000946044922z"/></g><g opacity="1" transform="matrix(1,0,0,1,40.0099983215332,147.44500732421875)"><path fill="rgb(99,105,139)" fill-opacity="1" d=" M-35.5880012512207,-9.642999649047852 C-35.5880012512207,-9.642999649047852 29.256999969482422,-33.63999938964844 29.256999969482422,-33.63999938964844 C29.256999969482422,-33.63999938964844 35.5880012512207,40.65800094604492 35.5880012512207,40.65800094604492 C35.5880012512207,40.65800094604492 -35.5880012512207,-9.642999649047852 -35.5880012512207,-9.642999649047852z"/></g><g opacity="1" transform="matrix(1,0,0,1,76.2020034790039,95.7770004272461)"><path stroke-linecap="round" stroke-linejoin="round" fill-opacity="0" stroke="rgb(41,24,61)" stroke-opacity="1" stroke-width="4" d=" M-72.2020034790039,42.35900115966797 C-72.2020034790039,42.35900115966797 -17.007999420166016,-91.7770004272461 -17.007999420166016,-91.7770004272461 C-17.007999420166016,-91.7770004272461 72.2020034790039,26.957000732421875 72.2020034790039,26.957000732421875 C72.2020034790039,26.957000732421875 -0.9629999995231628,91.7770004272461 -0.9629999995231628,91.7770004272461 C-0.9629999995231628,91.7770004272461 -72.2020034790039,42.35900115966797 -72.2020034790039,42.35900115966797z"/></g></g><g transform="matrix(0.9977666139602661,-0.06679634004831314,0.06679634004831314,0.9977666139602661,79.57684326171875,217.34507751464844)" opacity="1" style="display: block;"><g opacity="1" transform="matrix(1,0,0,1,3.871000051498413,9.998000144958496)"><path fill="rgb(41,24,61)" fill-opacity="1" d=" M-0.45100000500679016,-3.371000051498413 C1.4110000133514404,-3.619999885559082 3.121000051498413,-2.312999963760376 3.369999885559082,-0.4519999921321869 C3.619999885559082,1.409999966621399 2.313999891281128,3.121000051498413 0.4519999921321869,3.371000051498413 C-1.409000039100647,3.619999885559082 -3.121000051498413,2.313999891281128 -3.369999885559082,0.45100000500679016 C-3.619999885559082,-1.409999966621399 -2.312999963760376,-3.121000051498413 -0.45100000500679016,-3.371000051498413z"/></g><g opacity="1" transform="matrix(1,0,0,1,58.77399826049805,3.869999885559082)"><path fill="rgb(41,24,61)" fill-opacity="1" d=" M-0.4519999921321869,-3.371000051498413 C1.409999966621399,-3.619999885559082 3.121000051498413,-2.312999963760376 3.371000051498413,-0.4519999921321869 C3.619999885559082,1.409999966621399 2.312999963760376,3.121000051498413 0.45100000500679016,3.371000051498413 C-1.409999966621399,3.619999885559082 -3.121999979019165,2.313999891281128 -3.371000051498413,0.45100000500679016 C-3.619999885559082,-1.409999966621399 -2.313999891281128,-3.121999979019165 -0.4519999921321869,-3.371000051498413z"/></g><g opacity="1" transform="matrix(1,0,0,1,30.79800033569336,13.496999740600586)"><path fill="rgb(41,24,61)" fill-opacity="1" d=" M5.843999862670898,-2.9690001010894775 C5.843999862670898,-2.9690001010894775 5.840000152587891,-3.184000015258789 5.840000152587891,-3.184000015258789 C5.840000152587891,-3.184000015258789 -5.88100004196167,-2.4179999828338623 -5.88100004196167,-2.4179999828338623 C-5.843999862670898,0.7200000286102295 -3.180999994277954,3.184000015258789 -0.04899999871850014,2.9790000915527344 C-0.04899999871850014,2.9790000915527344 0.3610000014305115,2.9539999961853027 0.3610000014305115,2.9539999961853027 C3.4719998836517334,2.75 5.88100004196167,0.1469999998807907 5.843999862670898,-2.9690001010894775z"/><path stroke-linecap="round" stroke-linejoin="round" fill-opacity="0" stroke="rgb(41,24,61)" stroke-opacity="1" stroke-width="3.209" d=" M5.843999862670898,-2.9690001010894775 C5.843999862670898,-2.9690001010894775 5.840000152587891,-3.184000015258789 5.840000152587891,-3.184000015258789 C5.840000152587891,-3.184000015258789 -5.88100004196167,-2.4179999828338623 -5.88100004196167,-2.4179999828338623 C-5.843999862670898,0.7200000286102295 -3.180999994277954,3.184000015258789 -0.04899999871850014,2.9790000915527344 C-0.04899999871850014,2.9790000915527344 0.3610000014305115,2.9539999961853027 0.3610000014305115,2.9539999961853027 C3.4719998836517334,2.75 5.88100004196167,0.1469999998807907 5.843999862670898,-2.9690001010894775z"/></g></g><g transform="matrix(0.9977666139602661,-0.06679634004831314,0.06679634004831314,0.9977666139602661,-4.225921630859375,277.9681701660156)" opacity="1" style="display: block;"><g opacity="1" transform="matrix(1,0,0,1,165.52099609375,63.05500030517578)"><path fill="rgb(131,141,167)" fill-opacity="1" d=" M-24.259000778198242,20.111000061035156 C-68.52300262451172,11.812000274658203 -157.9459991455078,-5.043000221252441 -161.52099609375,-6.064000129699707 C-161.52099609375,-6.064000129699707 -22.3439998626709,59.05500030517578 -22.3439998626709,59.05500030517578 C-22.3439998626709,59.05500030517578 161.52099609375,-59.05500030517578 161.52099609375,-59.05500030517578 C161.52099609375,-59.05500030517578 -24.259000778198242,20.111000061035156 -24.259000778198242,20.111000061035156z"/></g><g opacity="1" transform="matrix(1,0,0,1,229.81399536132812,65.00599670410156)"><path fill="rgb(98,106,136)" fill-opacity="1" d=" M-86.03500366210938,57.35499954223633 C-86.03500366210938,57.35499954223633 -88.26100158691406,17.81999969482422 -88.26100158691406,17.81999969482422 C-88.26100158691406,17.81999969482422 88.26100158691406,-57.35499954223633 88.26100158691406,-57.35499954223633 C88.26100158691406,-57.35499954223633 -86.03500366210938,57.35499954223633 -86.03500366210938,57.35499954223633z"/></g><g opacity="1" transform="matrix(1,0,0,1,165.52099609375,63.05500030517578)"><path stroke-linecap="round" stroke-linejoin="round" fill-opacity="0" stroke="rgb(41,24,61)" stroke-opacity="1" stroke-width="4" d=" M-24.259000778198242,20.111000061035156 C-68.52300262451172,11.812000274658203 -157.9459991455078,-5.043000221252441 -161.52099609375,-6.064000129699707 C-161.52099609375,-6.064000129699707 -22.3439998626709,59.05500030517578 -22.3439998626709,59.05500030517578 C-22.3439998626709,59.05500030517578 161.52099609375,-59.05500030517578 161.52099609375,-59.05500030517578 C161.52099609375,-59.05500030517578 -24.259000778198242,20.111000061035156 -24.259000778198242,20.111000061035156z"/></g></g></g></svg>