<svg xmlns="http://www.w3.org/2000/svg" viewBox="0 0 450 322" width="450" height="322" preserveAspectRatio="xMidYMid meet" style="width: 100%; height: 100%; transform: translate3d(0px, 0px, 0px);"><defs><clipPath id="__lottie_element_707"><rect width="450" height="322" x="0" y="0"/></clipPath><image xmlns:ns1="http://www.w3.org/1999/xlink" ns1:href="/assets/lottie/home/suzanna/images/img_0.png"/></defs><g clip-path="url(#__lottie_element_707)"><g transform="matrix(1,0,0,1,246.19097900390625,6.2169952392578125)" opacity="1" style="display: block;"><image width="197px" height="313px" preserveAspectRatio="xMidYMid slice" xmlns:ns2="http://www.w3.org/1999/xlink" ns2:href="/assets/lottie/home/suzanna/images/img_0.png"/></g><g transform="matrix(1,0,0,1,94.00099182128906,248.33099365234375)" opacity="1" style="display: block;"><g opacity="1" transform="matrix(1,0,0,1,71.7030029296875,31.926000595092773)"><path fill="rgb(252,248,221)" fill-opacity="1" d=" M-7.5980000495910645,-11.76200008392334 C-6.797999858856201,-9.17199993133545 -6.241000175476074,-6.513999938964844 -5.932000160217285,-3.822000026702881 C-5.111999988555908,3.559000015258789 -6.056000232696533,11.029999732971191 -8.687999725341797,17.975000381469727 C-8.687999725341797,17.975000381469727 4.609000205993652,13.98799991607666 4.609000205993652,13.98799991607666 C5.9629998207092285,6.048999786376953 7.00600004196167,-0.9259999990463257 7.830999851226807,-6.763999938964844 C8.37600040435791,-10.687999725341797 8.687999725341797,-13.196000099182129 7.208000183105469,-14.642999649047852 C3.7829999923706055,-17.975000381469727 -6.11899995803833,-12.633999824523926 -7.5980000495910645,-11.76200008392334z"/></g><g opacity="1" transform="matrix(1,0,0,1,71.72599792480469,14.822999954223633)"><path fill="rgb(228,128,88)" fill-opacity="1" d=" M-7.263000011444092,0.7319999933242798 C-6.952000141143799,2.2890000343322754 -6.34499979019165,4.140999794006348 -5.00600004196167,4.578000068664551 C-3.6670000553131104,5.013000011444092 -2.374000072479248,3.628000020980835 -0.039000000804662704,2.6630001068115234 C2.2820000648498535,1.753000020980835 4.808000087738037,1.5010000467300415 7.263000011444092,1.9299999475479126 C7.263000011444092,1.9299999475479126 4.47599983215332,-5.013000011444092 4.47599983215332,-5.013000011444092 C4.47599983215332,-5.013000011444092 -7.263000011444092,0.7319999933242798 -7.263000011444092,0.7319999933242798z"/></g><g opacity="1" transform="matrix(1,0,0,1,71.01000213623047,28.107999801635742)"><path fill="rgb(26,26,54)" fill-opacity="1" d=" M4.025000095367432,-24.899999618530273 C8.069999694824219,-8.619999885559082 7.125999927520752,8.49899959564209 1.315999984741211,24.236000061035156 C1.315999984741211,24.236000061035156 2.125999927520752,23.19300079345703 2.125999927520752,23.19300079345703 C0.4429999887943268,24.260000228881836 -1.621999979019165,24.538000106811523 -3.5269999504089355,23.954999923706055 C-4.425000190734863,23.649999618530273 -5.254000186920166,23.174999237060547 -5.9710001945495605,22.55500030517578 C-6.21999979019165,22.336999893188477 -6.982999801635742,21.479999542236328 -6.874000072479248,21.635000228881836 C-6.874000072479248,21.635000228881836 -6.686999797821045,22.989999771118164 -6.686999797821045,22.989999771118164 C-2.4649999141693115,8.729999542236328 -2.2049999237060547,-6.409999847412109 -5.939000129699707,-20.80500030517578 C-5.939000129699707,-20.80500030517578 -7.169000148773193,-18.641000747680664 -7.169000148773193,-18.641000747680664 C-7.169000148773193,-18.641000747680664 6.189000129699707,-23.68600082397461 6.189000129699707,-23.68600082397461 C8.274999618530273,-24.464000701904297 7.372000217437744,-27.857999801635742 5.255000114440918,-27.04800033569336 C5.255000114440918,-27.04800033569336 -8.104000091552734,-22.020000457763672 -8.104000091552734,-22.020000457763672 C-9.017000198364258,-21.742000579833984 -9.550000190734863,-20.797000885009766 -9.317999839782715,-19.871999740600586 C-7.427999973297119,-12.581000328063965 -6.585000038146973,-5.057000160217285 -6.811999797821045,2.4709999561309814 C-6.959000110626221,6.947999954223633 -7.50600004196167,11.402999877929688 -8.446999549865723,15.782999992370605 C-8.836000442504883,17.604000091552734 -9.302000045776367,19.423999786376953 -9.815999984741211,21.21500015258789 C-10.286999702453613,22.291000366210938 -10.01200008392334,23.548999786376953 -9.131999969482422,24.327999114990234 C-7.065999984741211,26.610000610351562 -4.0960001945495605,27.858999252319336 -1.0199999809265137,27.739999771118164 C0.4320000112056732,27.650999069213867 1.8509999513626099,27.26799964904785 3.1519999504089355,26.618000030517578 C4.63100004196167,25.8700008392334 4.896999835968018,24.639999389648438 5.410999774932861,23.16200065612793 C8.105999946594238,15.286999702453613 9.642999649047852,7.065000057220459 9.972000122070312,-1.2510000467300415 C10.288000106811523,-9.529999732971191 9.42199993133545,-17.81399917602539 7.4029998779296875,-25.850000381469727 C7.073999881744385,-26.763999938964844 6.065999984741211,-27.238000869750977 5.151000022888184,-26.908000946044922 C4.329999923706055,-26.61199951171875 3.8499999046325684,-25.7549991607666 4.025000095367432,-24.899999618530273z"/></g><g opacity="1" transform="matrix(1,0,0,1,78.802001953125,54.737998962402344)"><path fill="rgb(232,78,47)" fill-opacity="1" d=" M-15.663000106811523,-4.932000160217285 C-14.791000366210938,-5.460999965667725 -1.1670000553131104,-13.041999816894531 9.76200008392334,-5.910999774932861 C10.944999694824219,-5.14900016784668 18.045000076293945,-0.5090000033378601 17.547000885009766,6.013999938964844 C17.26799964904785,8.322999954223633 16.232999801635742,10.472999572753906 14.604000091552734,12.131999969482422 C9.734000205993652,12.788000106811523 4.816999912261963,13.043000221252441 -0.09399999678134918,12.895999908447266 C-6.122000217437744,12.940999984741211 -12.138999938964844,12.357000350952148 -18.045000076293945,11.152000427246094 C-17.69099998474121,5.735000133514404 -16.893999099731445,0.35499998927116394 -15.663000106811523,-4.932000160217285z"/></g><g opacity="1" transform="matrix(1,0,0,1,78.88500213623047,56.68899917602539)"><path fill="rgb(26,26,54)" fill-opacity="1" d=" M-14.873000144958496,-5.372000217437744 C-9.065999984741211,-8.734000205993652 -1.312999963760376,-10.38599967956543 5.1479997634887695,-8.159000396728516 C8.222999572753906,-7.039999961853027 10.958000183105469,-5.145999908447266 13.08899974822998,-2.6630001068115234 C16.202999114990234,0.9010000228881836 16.482999801635742,5.340000152587891 13.21399974822998,8.937000274658203 C13.21399974822998,8.937000274658203 14.458999633789062,8.42300033569336 14.458999633789062,8.42300033569336 C8.812000274658203,9.138999938964844 3.11299991607666,9.371999740600586 -2.5739998817443848,9.121999740600586 C-7.664000034332275,9.112000465393066 -12.73799991607666,8.592000007629395 -17.722999572753906,7.565999984741211 C-17.722999572753906,7.565999984741211 -16.43000030517578,9.263999938964844 -16.43000030517578,9.263999938964844 C-16.097999572753906,4.014999866485596 -15.307000160217285,-1.1959999799728394 -14.062999725341797,-6.307000160217285 C-13.902999877929688,-7.264999866485596 -14.550000190734863,-8.170999526977539 -15.508000373840332,-8.331000328063965 C-16.333999633789062,-8.468999862670898 -17.14299964904785,-8.005999565124512 -17.441999435424805,-7.224999904632568 C-18.7549991607666,-1.7910000085830688 -19.59000015258789,3.746999979019165 -19.93400001525879,9.326000213623047 C-19.940000534057617,10.111000061035156 -19.415000915527344,10.802000045776367 -18.6560001373291,11.006999969482422 C-11.598999977111816,12.479999542236328 -4.390999794006348,13.10200023651123 2.813999891281128,12.859999656677246 C6.53000020980835,12.842000007629395 10.243000030517578,12.597999572753906 13.930000305175781,12.128000259399414 C16.826000213623047,11.73900032043457 18.60099983215332,7.876999855041504 19.0049991607666,5.244999885559082 C19.940000534057617,-0.21899999678134918 16.389999389648438,-4.889999866485596 12.279999732971191,-8.03499984741211 C7.785999774932861,-11.505999565124512 2.121999979019165,-13.10099983215332 -3.5230000019073486,-12.486000061035156 C-8.12600040435791,-12.043000221252441 -12.586000442504883,-10.642999649047852 -16.617000579833984,-8.37600040435791 C-17.368999481201172,-7.76200008392334 -17.48200035095215,-6.6539998054504395 -16.867000579833984,-5.9019999504089355 C-16.386999130249023,-5.313000202178955 -15.581999778747559,-5.099999904632568 -14.873000144958496,-5.372000217437744z"/></g><g opacity="1" transform="matrix(1,0,0,1,26.902000427246094,23.198999404907227)"><path fill="rgb(252,248,221)" fill-opacity="1" d=" M-5.019999980926514,-17.01799964904785 C-5.565000057220459,-3.5810000896453857 -7.964000225067139,-3.8610000610351562 -7.2789998054504395,10.152000427246094 C-7.2789998054504395,11.708999633789062 -7.059999942779541,14.074000358581543 -6.763999938964844,16.93899917602539 C-6.763999938964844,16.93899917602539 5.270999908447266,22.091999053955078 5.270999908447266,22.091999053955078 C4.316999912261963,14.640999794006348 4.275000095367432,7.1020002365112305 5.146999835968018,-0.35899999737739563 C5.710000038146973,-5.132999897003174 6.6519999504089355,-9.854999542236328 7.964000225067139,-14.479999542236328 C4.306000232696533,-17.5939998626709 -1.7510000467300415,-22.093000411987305 -4.086999893188477,-20.163000106811523 C-4.807000160217285,-19.281999588012695 -5.142000198364258,-18.14900016784668 -5.019999980926514,-17.01799964904785z"/></g><g opacity="1" transform="matrix(1,0,0,1,27.895000457763672,11.093999862670898)"><path fill="rgb(228,128,88)" fill-opacity="1" d=" M-6.698999881744385,2.1410000324249268 C-6.698999881744385,2.1410000324249268 4.853000164031982,6.811999797821045 4.853000164031982,6.811999797821045 C6.196000099182129,4.816999912261963 6.698999881744385,2.371999979019165 6.255000114440918,0.00800000037997961 C5.242000102996826,-3.8989999294281006 0.5870000123977661,-6.810999870300293 -4.815000057220459,-5.673999786376953 C-4.815000057220459,-5.673999786376953 -6.698999881744385,2.1410000324249268 -6.698999881744385,2.1410000324249268z"/></g><g opacity="1" transform="matrix(1,0,0,1,26.684999465942383,28.910999298095703)"><path fill="rgb(26,26,54)" fill-opacity="1" d=" M-5.551000118255615,-26.34000015258789 C-9.670999526977539,-11.47599983215332 -10.072999954223633,4.173999786376953 -6.718999862670898,19.229000091552734 C-6.3460001945495605,20.895000457763672 -5.940999984741211,22.57699966430664 -5.442999839782715,24.226999282836914 C-4.9629998207092285,25.507999420166016 -3.8959999084472656,26.479999542236328 -2.5769999027252197,26.843000411987305 C1.2730000019073486,28.349000930786133 5.656000137329102,27.145999908447266 8.196999549865723,23.885000228881836 C9.223999977111816,22.45199966430664 8.196000099182129,20.39699935913086 7.947000026702881,18.79400062561035 C7.111999988555908,14.355999946594238 6.64900016784668,9.855999946594238 6.561999797821045,5.3420000076293945 C6.409999847412109,-3.13100004196167 7.5229997634887695,-11.579000473022461 9.86299991607666,-19.725000381469727 C10.072999954223633,-20.48699951171875 9.746000289916992,-21.29599952697754 9.067999839782715,-21.701000213623047 C9.067999839782715,-21.701000213623047 -2.9820001125335693,-27.385000228881836 -2.9820001125335693,-27.385000228881836 C-5.00600004196167,-28.350000381469727 -6.7820000648498535,-25.327999114990234 -4.742000102996826,-24.363000869750977 C-4.742000102996826,-24.363000869750977 7.294000148773193,-18.68199920654297 7.294000148773193,-18.68199920654297 C7.294000148773193,-18.68199920654297 6.484000205993652,-20.658000946044922 6.484000205993652,-20.658000946044922 C2.4189999103546143,-6.4029998779296875 2.002000093460083,8.645999908447266 5.269000053405762,23.106000900268555 C5.269000053405762,23.106000900268555 5.7210001945495605,21.40999984741211 5.7210001945495605,21.40999984741211 C3.888000011444092,24.094999313354492 0.22699999809265137,24.784000396728516 -2.4579999446868896,22.95199966430664 C-2.5460000038146973,22.891000747680664 -2.634000062942505,22.829999923706055 -2.7190001010894775,22.763999938964844 C-2.7190001010894775,22.763999938964844 -1.9079999923706055,23.80699920654297 -1.9079999923706055,23.80699920654297 C-6.539999961853027,7.743000030517578 -6.631999969482422,-9.291999816894531 -2.1730000972747803,-25.4060001373291 C-1.996000051498413,-26.361000061035156 -2.628000020980835,-27.280000686645508 -3.5829999446868896,-27.45599937438965 C-4.422999858856201,-27.61199951171875 -5.252999782562256,-27.141000747680664 -5.551000118255615,-26.34000015258789z"/></g><g opacity="1" transform="matrix(1,0,0,1,18.332000732421875,52.72999954223633)"><path fill="rgb(232,78,47)" fill-opacity="1" d=" M14.821999549865723,-4.309999942779541 C14.027999877929688,-4.870999813079834 1.8519999980926514,-13.121999740600586 -8.532999992370605,-6.535999774932861 C-9.654000282287598,-5.818999767303467 -16.31599998474121,-1.5390000343322754 -16.160999298095703,5.000999927520752 C-16.011999130249023,7.28000020980835 -15.156999588012695,9.456999778747559 -13.715999603271484,11.229000091552734 C-9.288000106811523,12.14900016784668 -4.785999774932861,12.670000076293945 -0.2639999985694885,12.78600025177002 C5.2779998779296875,13.123000144958496 10.83899974822998,12.829999923706055 16.31599998474121,11.914999961853027 C16.21299934387207,6.4770002365112305 15.71500015258789,1.0540000200271606 14.821999549865723,-4.309999942779541z"/></g><g opacity="1" transform="matrix(1,0,0,1,18.35300064086914,53.58399963378906)"><path fill="rgb(26,26,54)" fill-opacity="1" d=" M15.67300033569336,-6.672999858856201 C8.34000015258789,-11.826000213623047 -2.2170000076293945,-13.756999969482422 -9.986000061035156,-8.527000427246094 C-13.753000259399414,-5.9730000495910645 -17.194000244140625,-2.2980000972747803 -17.770000457763672,2.371999979019165 C-18.10300064086914,5.322999954223633 -17.325000762939453,8.291999816894531 -15.59000015258789,10.70199966430664 C-14.781000137329102,11.779999732971191 -13.512999534606934,12.414999961853027 -12.164999961853027,12.414999961853027 C-10.406000137329102,12.725000381469727 -8.630000114440918,12.973999977111816 -6.855000019073486,13.178000450134277 C-2.509000062942505,13.595999717712402 1.8580000400543213,13.756999969482422 6.2230000495910645,13.65999984741211 C9.781000137329102,13.670000076293945 13.331000328063965,13.336999893188477 16.823999404907227,12.663999557495117 C17.579999923706055,12.454000473022461 18.101999282836914,11.765000343322754 18.10099983215332,10.982000350952148 C18.027000427246094,5.395999908447266 17.506000518798828,-0.17399999499320984 16.54400062561035,-5.677000045776367 C16.093000411987305,-7.872000217437744 12.71500015258789,-6.938000202178955 13.166999816894531,-4.742000102996826 C14.074999809265137,0.45100000500679016 14.564000129699707,5.710000038146973 14.630000114440918,10.982000350952148 C14.630000114440918,10.982000350952148 15.92300033569336,9.28499984741211 15.92300033569336,9.28499984741211 C11.416000366210938,10.067999839782715 6.836999893188477,10.354999542236328 2.2679998874664307,10.140999794006348 C-2.9140000343322754,10.12399959564209 -8.083999633789062,9.628999710083008 -13.175999641418457,8.661999702453613 C-13.175999641418457,8.661999702453613 -12.133000373840332,9.472000122070312 -12.133000373840332,9.472000122070312 C-14.892000198364258,6.228000164031982 -14.932999610900879,1.4730000495910645 -12.22700023651123,-1.815999984741211 C-10.329000473022461,-4.228000164031982 -7.834000110626221,-6.10099983215332 -4.98799991607666,-7.249000072479248 C1.2400000095367432,-9.616000175476074 8.696999549865723,-7.40500020980835 13.975000381469727,-3.6989998817443848 C15.765999794006348,-2.3450000286102295 17.510000228881836,-5.38100004196167 15.67300033569336,-6.672999858856201z"/></g></g><g transform="matrix(1,0,0,1,1.7449951171875,151.9630126953125)" opacity="1" style="display: block;"><g opacity="1" transform="matrix(1,0,0,1,31.427000045776367,44.36600112915039)"><path fill="rgb(252,248,221)" fill-opacity="1" d=" M0.023000000044703484,-41.250999450683594 C-6.998000144958496,-40.145999908447266 -11.25,-34.790000915527344 -15.640999794006348,-29.246999740600586 C-20.56599998474121,-23.10300064086914 -24.12700080871582,-15.979999542236328 -26.086999893188477,-8.354000091552734 C-27.488000869750977,-2.7639999389648438 -28.392000198364258,0.8169999718666077 -27.1299991607666,5.23799991607666 C-25.152999877929688,12.182999610900879 -19.34600067138672,15.9350004196167 -15.640999794006348,18.28499984741211 C-4.507999897003174,25.43199920654297 7.494999885559082,25.104000091552734 13.085000038146973,24.513999938964844 C11.345000267028809,25.266000747680664 9.88599967956543,26.545000076293945 8.913000106811523,28.17099952697754 C7.752999782562256,30.025999069213867 7.372000217437744,32.26499938964844 7.854000091552734,34.39799880981445 C8.741000175476074,37.12099838256836 10.876999855041504,39.25699996948242 13.600000381469727,40.14500045776367 C18.11400032043457,41.529998779296875 22.801000595092773,38.58700180053711 25.104999542236328,35.472999572753906 C28.392000198364258,30.70400047302246 28.177000045776367,24.347999572753906 24.576000213623047,19.812000274658203 C22.023000717163086,16.930999755859375 19.437999725341797,17.694000244140625 8.913000106811523,15.140999794006348 C-0.33500000834465027,12.866999626159668 -5.099999904632568,11.668999671936035 -7.809000015258789,8.352999687194824 C-13.118000030517578,2.0309998989105225 -10.579999923706055,-7.294000148773193 -10.423999786376953,-7.839000225067139 C-7.309999942779541,-18.645000457763672 4.1020002365112305,-21.851999282836914 4.724999904632568,-21.94499969482422 C4.890999794006348,-28.391000747680664 5.065999984741211,-34.83100128173828 5.252999782562256,-41.26599884033203 C3.5190000534057617,-41.52899932861328 1.75600004196167,-41.52399826049805 0.023000000044703484,-41.250999450683594z"/></g><g opacity="1" transform="matrix(1,0,0,1,35.54100036621094,49.066001892089844)"><path fill="rgb(231,174,135)" fill-opacity="1" d=" M-0.9470000267028809,-37.60599899291992 C-4.797999858856201,-35.547000885009766 -8.319000244140625,-32.92300033569336 -11.392999649047852,-29.82200050354004 C-15.28499984741211,-25.868000030517578 -21.621999740600586,-19.42099952697754 -21.84000015258789,-9.970999717712402 C-21.89299964904785,-5.763000011444092 -20.819000244140625,-1.61899995803833 -18.726999282836914,2.0329999923706055 C-16.329999923706055,6.486999988555908 -12.484999656677246,9.991000175476074 -7.827000141143799,11.96500015258789 C-1.600000023841858,14.300999641418457 0.9070000052452087,11.24899959564209 8.894000053405762,14.052000045776367 C11.758999824523926,15.064000129699707 14.4350004196167,16.04400062561035 16.209999084472656,18.722999572753906 C18.441999435424805,22.22800064086914 18.441999435424805,26.707000732421875 16.209999084472656,30.211999893188477 C14.14900016784668,33.08399963378906 10.854000091552734,34.814998626708984 7.320000171661377,34.882999420166016 C9.123000144958496,36.659000396728516 11.581000328063965,37.60599899291992 14.109000205993652,37.499000549316406 C19.106000900268555,36.845001220703125 21.893999099731445,30.19700050354004 21.893999099731445,25.479999542236328 C21.83799934387207,21.849000930786133 20.54599952697754,18.34600067138672 18.233999252319336,15.545999526977539 C16.219999313354492,12.833999633789062 13.538999557495117,10.689000129699707 10.449999809265137,9.319000244140625 C3.927000045776367,6.563000202178955 1.2949999570846558,10.097000122070312 -5.228000164031982,7.76200008392334 C-9.595000267028809,6.26200008392334 -13.17199993133545,3.062000036239624 -15.145999908447266,-1.1130000352859497 C-16.826000213623047,-5.519999980926514 -16.641000747680664,-10.420999526977539 -14.631999969482422,-14.689000129699707 C-10.78600025177002,-23.687999725341797 -1.3830000162124634,-26.350000381469727 0.003000000026077032,-26.708999633789062 C-0.2879999876022339,-30.309999465942383 -0.6039999723434448,-33.94300079345703 -0.9470000267028809,-37.60599899291992z"/></g><g opacity="1" transform="matrix(1,0,0,1,29.83099937438965,46.13199996948242)"><path fill="rgb(26,26,54)" fill-opacity="1" d=" M4.546000003814697,-44.979000091552734 C-7.5980000495910645,-40.54199981689453 -18.215999603271484,-31.839000701904297 -23.711999893188477,-20.06800079345703 C-27.121000289916992,-12.767000198364258 -29.58099937438965,-4.499000072479248 -27.54199981689453,3.5190000534057617 C-25.642000198364258,11.02299976348877 -19.85099983215332,16.798999786376953 -13.04699993133545,20.145999908447266 C-3.9240000247955322,24.645999908447266 6.539000034332275,25.299999237060547 16.534000396728516,23.634000778198242 C16.534000396728516,23.634000778198242 15.600000381469727,20.256000518798828 15.600000381469727,20.256000518798828 C11.02299976348877,21.823999404907227 7.831999778747559,25.983999252319336 7.504000186920166,30.812000274658203 C7.434000015258789,35.380001068115234 10.055999755859375,39.5629997253418 14.199000358581543,41.492000579833984 C23.540000915527344,45.88199996948242 29.58099937438965,34.516998291015625 29.549999237060547,26.701000213623047 C29.551000595092773,22.033000946044922 27.70400047302246,17.555999755859375 24.41200065612793,14.246000289916992 C20.628999710083008,10.727999687194824 16.035999298095703,11.458999633789062 11.286999702453613,11.256999969482422 C6.539000034332275,11.053999900817871 0.902999997138977,10.602999687194824 -2.8340001106262207,7.333000183105469 C-6.573999881744385,3.9489998817443848 -8.413000106811523,-1.055999994277954 -7.754000186920166,-6.057000160217285 C-6.802999973297119,-10.579000473022461 -4.409999847412109,-14.670999526977539 -0.9340000152587891,-17.718000411987305 C0.09200000017881393,-18.702999114990234 1.1790000200271606,-19.62299919128418 2.319000005722046,-20.474000930786133 C2.9769999980926514,-21.048999786376953 3.736999988555908,-21.492000579833984 4.561999797821045,-21.7810001373291 C5.38700008392334,-21.999000549316406 6.228000164031982,-21.92099952697754 7.052999973297119,-22.18600082397461 C7.9730000495910645,-22.464000701904297 8.508999824523926,-23.420000076293945 8.267000198364258,-24.350000381469727 C7.00600004196167,-30.70199966430664 7.9710001945495605,-37.28799819946289 6.710000038146973,-43.67100143432617 C6.27400016784668,-45.88199996948242 2.8959999084472656,-44.948001861572266 3.3320000171661377,-42.73699951171875 C4.5929999351501465,-36.36899948120117 3.628000020980835,-29.783000946044922 4.888999938964844,-23.416000366210938 C4.888999938964844,-23.416000366210938 6.118000030517578,-25.56399917602539 6.118000030517578,-25.56399917602539 C4.73199987411499,-25.350000381469727 3.369999885559082,-24.993999481201172 2.055000066757202,-24.506000518798828 C0.9459999799728394,-23.874000549316406 -0.09700000286102295,-23.132999420166016 -1.059000015258789,-22.295000076293945 C-3.5260000228881836,-20.341999053955078 -5.705999851226807,-18.052000045776367 -7.535999774932861,-15.491000175476074 C-12.789999961853027,-8.574999809265137 -12.732999801635742,1.0110000371932983 -7.394999980926514,7.861999988555908 C-1.86899995803833,14.89900016784668 7.908999919891357,14.977999687194824 16.097999572753906,14.993000030517578 C26.513999938964844,14.993000030517578 27.945999145507812,29.20800018310547 23.089000701904297,36.027000427246094 C22.027999877929688,37.801998138427734 20.180999755859375,38.95899963378906 18.121999740600586,39.14099884033203 C16.073999404907227,38.999000549316406 14.17300033569336,38.0260009765625 12.859999656677246,36.446998596191406 C10.020000457763672,33.10599899291992 10.425999641418457,28.094999313354492 13.767999649047852,25.2549991607666 C14.541000366210938,24.599000930786133 15.432000160217285,24.09600067138672 16.393999099731445,23.77400016784668 C17.30500030517578,23.434999465942383 17.76799964904785,22.422000885009766 17.42799949645996,21.51099967956543 C17.1299991607666,20.711000442504883 16.299999237060547,20.239999771118164 15.460000038146973,20.395999908447266 C1.7910000085830688,22.684999465942383 -18.184999465942383,19.69499969482422 -23.634000778198242,4.671000003814697 C-26.343000411987305,-2.7709999084472656 -24.117000579833984,-10.819999694824219 -20.95599937438965,-17.732999801635742 C-17.93600082397461,-24.350000381469727 -13.312999725341797,-30.107999801635742 -7.504000186920166,-34.48500061035156 C-3.562999963760376,-37.44900131225586 0.7910000085830688,-39.81999969482422 5.418000221252441,-41.52299880981445 C7.581999778747559,-42.362998962402344 6.678999900817871,-45.742000579833984 4.546000003814697,-44.979000091552734z"/></g></g><g transform="matrix(1,0,0,1,233.07501220703125,130.49099731445312)" opacity="1" style="display: block;"><g opacity="1" transform="matrix(1,0,0,1,33.31800079345703,27.1200008392334)"><path fill="rgb(252,248,221)" fill-opacity="1" d=" M-32.62099838256836,11.555999755859375 C-32.62099838256836,11.555999755859375 -24.836000442504883,24.104999542236328 -24.836000442504883,24.104999542236328 C-13.85200023651123,19.448999404907227 -3.2039999961853027,14.038000106811523 7.0329999923706055,7.913000106811523 C11.642000198364258,5.142000198364258 15.996000289916992,2.3550000190734863 20.09600067138672,-0.44699999690055847 C25.86400032043457,0.5590000152587891 31.35700035095215,-3.3010001182556152 32.362998962402344,-9.069000244140625 C32.62099838256836,-10.545000076293945 32.56399917602539,-12.057999610900879 32.19300079345703,-13.510000228881836 C30.91699981689453,-20.250999450683594 24.253000259399414,-22.757999420166016 23.83300018310547,-22.85099983215332 C20.22100067138672,-24.106000900268555 16.242000579833984,-23.725000381469727 12.9350004196167,-21.808000564575195 C11.138999938964844,-20.66200065612793 9.690999984741211,-19.047000885009766 8.746000289916992,-17.136999130249023 C7.301000118255615,-13.604999542236328 7.494999885559082,-9.61400032043457 9.274999618530273,-6.238999843597412 C-3.2300000190734863,2.5869998931884766 -17.476999282836914,8.637999534606934 -32.512001037597656,11.510000228881836 C-32.512001037597656,11.510000228881836 -32.62099838256836,11.555999755859375 -32.62099838256836,11.555999755859375z"/></g><g opacity="1" transform="matrix(1,0,0,1,36.27299880981445,30.097999572753906)"><path fill="rgb(231,174,135)" fill-opacity="1" d=" M-29.83099937438965,14.852999687194824 C-19.979999542236328,10.9350004196167 -10.38700008392334,6.401000022888184 -1.1059999465942383,1.2769999504089355 C4.514999866485596,-1.8370000123977661 9.791999816894531,-4.951000213623047 14.571999549865723,-8.064000129699707 C16.648000717163086,-7.5269999504089355 18.844999313354492,-7.714000225067139 20.799999237060547,-8.593999862670898 C24.724000930786133,-10.493000030517578 27.027000427246094,-15.569000244140625 26.0310001373291,-21.12700080871582 C28.829999923706055,-18.214000701904297 29.83099937438965,-14.012999534606934 28.64699935913086,-10.149999618530273 C26.816999435424805,-5.224999904632568 21.841999053955078,-2.2019999027252197 16.62700080871582,-2.8489999771118164 C16.62700080871582,-2.8489999771118164 -27.7450008392334,21.12700080871582 -27.7450008392334,21.12700080871582 C-28.367000579833984,19.025999069213867 -29.131000518798828,16.940000534057617 -29.83099937438965,14.852999687194824z"/></g><g opacity="1" transform="matrix(1,0,0,1,34.513999938964844,26.65399932861328)"><path fill="rgb(26,26,54)" fill-opacity="1" d=" M-31.777000427246094,15.291999816894531 C-17.25200080871582,11.501999855041504 -3.621999979019165,4.873000144958496 8.32699966430664,-4.215000152587891 C9.128999710083008,-4.728000164031982 9.407999992370605,-5.769999980926514 8.967000007629395,-6.61299991607666 C6.210999965667725,-12.840999603271484 9.246999740600586,-20.250999450683594 16.268999099731445,-21.496999740600586 C22.36400032043457,-22.516000747680664 28.14699935913086,-18.452999114990234 29.253000259399414,-12.37399959564209 C29.85700035095215,-9.26099967956543 28.70199966430664,-6.066999912261963 26.24799919128418,-4.059000015258789 C25.006000518798828,-3.0799999237060547 23.55900001525879,-2.3940000534057617 22.013999938964844,-2.0510001182556152 C20.270000457763672,-1.6299999952316284 18.759000778198242,-1.9730000495910645 17.249000549316406,-0.9300000071525574 C3.5829999446868896,8.5600004196167 -11.069000244140625,16.541000366210938 -26.45400047302246,22.875999450683594 C-26.45400047302246,22.875999450683594 -24.47599983215332,23.68600082397461 -24.47599983215332,23.68600082397461 C-24.47599983215332,23.68600082397461 -30.70400047302246,12.708000183105469 -30.70400047302246,12.708000183105469 C-31.27199935913086,11.920000076293945 -32.37200164794922,11.741999626159668 -33.15999984741211,12.310999870300293 C-33.84600067138672,12.805000305175781 -34.08300018310547,13.717000007629395 -33.7239990234375,14.482000350952148 C-33.7239990234375,14.482000350952148 -27.496999740600586,25.381999969482422 -27.496999740600586,25.381999969482422 C-27.099000930786133,26.070999145507812 -26.285999298095703,26.40399932861328 -25.518999099731445,26.19099998474121 C-16.82200050354004,22.643999099731445 -8.347000122070312,18.57200050354004 -0.1420000046491623,14.00100040435791 C4.144999980926514,11.62399959564209 8.338000297546387,9.107000350952148 12.437999725341797,6.449999809265137 C14.357999801635742,5.215000152587891 16.257999420166016,3.9539999961853027 18.136999130249023,2.6670000553131104 C18.844999313354492,2.059000015258789 19.743000030517578,1.718000054359436 20.674999237060547,1.7020000219345093 C21.802000045776367,1.5920000076293945 22.913000106811523,1.3619999885559082 23.992000579833984,1.0169999599456787 C30.56800079345703,-0.9990000128746033 34.26499938964844,-7.965000152587891 32.249000549316406,-14.541999816894531 C32.11600112915039,-14.979000091552734 31.95599937438965,-15.409000396728516 31.774999618530273,-15.829000473022461 C29.083999633789062,-22.606000900268555 21.849000930786133,-26.402999877929688 14.744000434875488,-24.766000747680664 C5.61899995803833,-22.68000030517578 2.2869999408721924,-12.902000427246094 5.836999893188477,-4.836999893188477 C5.836999893188477,-4.836999893188477 6.47599983215332,-7.236000061035156 6.47599983215332,-7.236000061035156 C-5.22599983215332,1.6759999990463257 -18.57699966430664,8.185999870300293 -32.805999755859375,11.914999961853027 C-33.73899841308594,12.197999954223633 -34.263999938964844,13.1850004196167 -33.97999954223633,14.118000030517578 C-33.696998596191406,15.050999641418457 -32.71099853515625,15.576000213623047 -31.777000427246094,15.291999816894531z"/></g></g><g transform="matrix(1,0,0,1,35.38599395751953,53.975006103515625)" opacity="1" style="display: block;"><g opacity="1" transform="matrix(1,0,0,1,172.68899536132812,152.55099487304688)"><path fill="rgb(228,128,88)" fill-opacity="1" d=" M7.684000015258789,-27.15999984741211 C9.491999626159668,-24.885000228881836 10.744999885559082,-22.219999313354492 11.343000411987305,-19.375999450683594 C12.89900016784668,-11.590999603271484 8.430999755859375,-5.177000045776367 4.539000034332275,0.4749999940395355 C1.0670000314712524,5.534999847412109 -3.8369998931884766,12.682000160217285 -13.210000038146973,15.62399959564209 C-17.097999572753906,16.819000244140625 -21.194000244140625,17.173999786376953 -25.229999542236328,16.66699981689453 C-23.70400047302246,19.56399917602539 -21.336999893188477,21.93000030517578 -18.44099998474121,23.454999923706055 C-10.937000274658203,27.15999984741211 -2.5450000762939453,22.69300079345703 1.9390000104904175,20.340999603271484 C9.435999870300293,16.33300018310547 15.331999778747559,9.876999855041504 18.643999099731445,2.0480000972747803 C20.527999877929688,-2.4830000400543213 25.229999542236328,-13.880000114440918 19.173999786376953,-21.445999145507812 C15.779999732971191,-25.743000030517578 10.3149995803833,-26.83300018310547 7.684000015258789,-27.15999984741211z"/></g><g opacity="1" transform="matrix(1,0,0,1,108.2249984741211,115.58999633789062)"><path fill="rgb(252,248,221)" fill-opacity="1" d=" M-25.533000946044922,-87.87999725341797 C-1.5099999904632568,-95.1969985961914 24.023000717163086,-99.33899688720703 45.507999420166016,-79.00499725341797 C47.89099884033203,-76.74800109863281 60.720001220703125,-64.60399627685547 62.2140007019043,-47.1349983215332 C63.28900146484375,-34.77299880981445 57.88600158691406,-28.809999465942383 62.2140007019043,-20.496000289916992 C66.74500274658203,-11.809000015258789 75.21399688720703,-13.444000244140625 85.7229995727539,-5.3470001220703125 C97.68000030517578,3.8540000915527344 104.9520034790039,20.030000686645508 104.53099822998047,33.29499816894531 C103.78399658203125,56.415000915527344 79.62100219726562,71.39299774169922 69.53199768066406,77.6989974975586 C36.3380012512207,98.3270034790039 -9.310999870300293,99.33899688720703 -43.81100082397461,80.31400299072266 C-62.494998931884766,70.00700378417969 -75.72799682617188,58.78200149536133 -81.94000244140625,51.058998107910156 C-92.83899688720703,37.54499816894531 -102.78800201416016,19.92099952697754 -103.87699890136719,-2.2179999351501465 C-104.1729965209961,-8.227999687194824 -104.9520034790039,-24.014999389648438 -95.53199768066406,-38.26100158691406 C-88.54199981689453,-48.755001068115234 -90.72100067138672,-47.99100112915039 -55.83100128173828,-72.73100280761719 C-46.46099853515625,-79.1240005493164 -36.26900100708008,-84.21900177001953 -25.533000946044922,-87.87999725341797z M59.084999084472656,11.88700008392334 C54.77199935913086,13.6850004196167 50.86399841308594,16.332000732421875 47.595001220703125,19.672000885009766 C42.32699966430664,25.114999771118164 38.85900115966797,32.04399871826172 37.6619987487793,39.52299880981445 C36.83599853515625,44.62900161743164 36.10499954223633,49.191001892089844 38.720001220703125,53.62799835205078 C42.0369987487793,59.279998779296875 48.481998443603516,60.805999755859375 51.17599868774414,61.4119987487793 C56.426998138427734,62.6150016784668 61.926998138427734,62.069000244140625 66.83799743652344,59.85599899291992 C73.37699890136719,56.88199996948242 76.52200317382812,51.86800003051758 79.29299926757812,47.323001861572266 C82.76499938964844,41.79499816894531 89.39800262451172,31.270999908447266 85.52100372314453,20.68400001525879 C85.05400085449219,19.42300033569336 82.76499938964844,13.086000442504883 76.64700317382812,10.237000465393066 C70.29399871826172,7.2789998054504395 63.444000244140625,10.097000122070312 59.084999084472656,11.88700008392334z"/></g><g opacity="1" transform="matrix(1,0,0,1,104.48799896240234,131.00399780273438)"><path fill="rgb(231,174,135)" fill-opacity="1" d=" M-53.66699981689453,-79.33300018310547 C-64.45500183105469,-75.22899627685547 -73.86599731445312,-68.16500091552734 -80.81999969482422,-58.95199966430664 C-95.23699951171875,-39.56800079345703 -92.55799865722656,-17.913000106811523 -91.71700286865234,-12.46399974822998 C-87.87200164794922,14.95300006866455 -67.36799621582031,31.006000518798828 -56.18899917602539,39.75600051879883 C-30.812000274658203,59.63800048828125 -3.938999891281128,62.65700149536133 7.534999847412109,63.79399871826172 C19.89699935913086,65.00900268554688 50.28799819946289,67.59300231933594 80.13400268554688,49.6879997253418 C88.87200164794922,44.430999755859375 96.79199981689453,37.922000885009766 103.64299774169922,30.368000030517578 C98.00800323486328,39.441001892089844 90.95500183105469,47.55099868774414 82.7509994506836,54.39099884033203 C56.76599884033203,75.9530029296875 27.325000762939453,77.51100158691406 17.45400047302246,77.89900207519531 C-19.91200065612793,79.33200073242188 -47.20600128173828,62.08100128173828 -58.83599853515625,53.34700012207031 C-67.77200317382812,46.60499954223633 -87.9800033569336,30.958999633789062 -96.96399688720703,3.1989998817443848 C-99.37699890136719,-4.243000030517578 -103.64299774169922,-17.97599983215332 -100.0780029296875,-34.93000030517578 C-98.87899780273438,-40.67499923706055 -94.13099670410156,-63.46799850463867 -73.96900177001953,-74.10199737548828 C-67.68800354003906,-77.36599731445312 -60.74399948120117,-79.15499877929688 -53.66699981689453,-79.33300018310547z"/></g><g opacity="1" transform="matrix(1,0,0,1,107.22899627685547,115.77999877929688)"><path fill="rgb(26,26,54)" fill-opacity="1" d=" M-57.32699966430664,-75.00700378417969 C-65.96800231933594,-68.87300109863281 -74.6709976196289,-62.81700134277344 -83.01599884033203,-56.32400131225586 C-86.56800079345703,-53.71500015258789 -89.79299926757812,-50.68899917602539 -92.62200164794922,-47.310001373291016 C-96.25900268554688,-42.75899887084961 -99.30799865722656,-37.76900100708008 -101.6989974975586,-32.457000732421875 C-105.43000030517578,-23.246000289916992 -106.9800033569336,-13.29800033569336 -106.22899627685547,-3.3889999389648438 C-105.5999984741211,9.045000076293945 -102.30799865722656,21.19700050354004 -96.5770034790039,32.249000549316406 C-91.91400146484375,41.51499938964844 -85.80799865722656,49.981998443603516 -78.48500061035156,57.33100128173828 C-69.73699951171875,65.5989990234375 -60.018001556396484,72.7770004272461 -49.54199981689453,78.70700073242188 C-38.797000885009766,85.08399963378906 -27.094999313354492,89.68900299072266 -14.885000228881836,92.34600067138672 C9.017999649047852,97.44200134277344 33.9119987487793,95.0510025024414 56.40700149536133,85.49500274658203 C64.90399932861328,81.72899627685547 72.95700073242188,77.02999877929688 80.41400146484375,71.48300170898438 C88.02799987792969,65.89299774169922 95.18900299072266,59.323001861572266 100.0469970703125,51.14899826049805 C105.41200256347656,42.15999984741211 106.9800033569336,31.405000686645508 104.40599822998047,21.256999969482422 C101.73699951171875,10.00100040435791 95.38600158691406,-0.0430000014603138 86.36199951171875,-7.281000137329102 C81.69100189208984,-10.970999717712402 76.30400085449219,-12.96399974822998 70.9020004272461,-15.392999649047852 C66.3550033569336,-17.43199920654297 62.75899887084961,-20.68600082397461 61.84000015258789,-25.80900001525879 C61,-30.479000091552734 62.775001525878906,-35.507999420166016 63.27299880981445,-40.194000244140625 C63.887001037597656,-46.18600082397461 63.20199966430664,-52.2400016784668 61.263999938964844,-57.94300079345703 C55.0359992980957,-76.25299835205078 38.284000396728516,-91.33899688720703 19.368000030517578,-95.15299987792969 C7.940000057220459,-97.44200134277344 -3.8310000896453857,-96.08799743652344 -15.071999549865723,-93.42500305175781 C-24.02400016784668,-91.33999633789062 -32.724998474121094,-88.2979965209961 -41.0260009765625,-84.3489990234375 C-46.71099853515625,-81.69499969482422 -52.16299819946289,-78.56999969482422 -57.32699966430664,-75.00700378417969 C-59.16400146484375,-73.71499633789062 -57.41999816894531,-70.67900085449219 -55.56700134277344,-71.89299774169922 C-46.915000915527344,-77.92400360107422 -37.48899841308594,-82.75700378417969 -27.542999267578125,-86.26300048828125 C-17.95800018310547,-89.72100067138672 -7.949999809265137,-91.86799621582031 2.2100000381469727,-92.64700317382812 C13.621999740600586,-93.41000366210938 24.988000869750977,-91.37000274658203 34.797000885009766,-85.28299713134766 C41.65299987792969,-80.98200225830078 47.525001525878906,-75.28399658203125 52.03200149536133,-68.56199645996094 C58.48699951171875,-59.45399856567383 61.14500045776367,-48.19200134277344 59.44300079345703,-37.15800094604492 C58.72700119018555,-32.79899978637695 57.652000427246094,-28.378000259399414 58.77299880981445,-23.98699951171875 C59.9739990234375,-19.447999954223633 63.007999420166016,-15.61299991607666 67.1500015258789,-13.399999618530273 C71.69499969482422,-10.923999786376953 76.70899963378906,-9.538999557495117 81.16200256347656,-6.7829999923706055 C86.11199951171875,-3.5859999656677246 90.35099792480469,0.5960000157356262 93.61699676513672,5.500999927520752 C99.58000183105469,14.220000267028809 103.48799896240234,25.413999557495117 101.93099975585938,36.07899856567383 C99.33100128173828,53.95199966430664 83.24800109863281,66.03399658203125 68.97100067138672,75.00199890136719 C38.56399917602539,93.38300323486328 1.340000033378601,96.58699798583984 -31.761999130249023,83.67400360107422 C-43.417999267578125,78.83200073242188 -54.38100051879883,72.46600341796875 -64.36399841308594,64.74099731445312 C-72.24299621582031,59.007999420166016 -79.19999694824219,52.10300064086914 -84.99299621582031,44.268001556396484 C-91.83100128173828,35.07699966430664 -96.93299865722656,24.71500015258789 -100.0479965209961,13.6899995803833 C-102.66500091552734,4.060999870300293 -103.45600128173828,-5.9710001945495605 -102.38300323486328,-15.890999794006348 C-101.76499938964844,-21.823999404907227 -100.11599731445312,-27.604999542236328 -97.51000213623047,-32.970001220703125 C-95.97200012207031,-35.895999908447266 -94.25599670410156,-38.724998474121094 -92.37200164794922,-41.439998626708984 C-90.63600158691406,-44.21900177001953 -88.54299926757812,-46.757999420166016 -86.1449966430664,-48.99100112915039 C-81.1240005493164,-53.42100143432617 -75.83599853515625,-57.53900146484375 -70.31099700927734,-61.321998596191406 C-65.40699768066406,-64.88700103759766 -60.47200012207031,-68.38999938964844 -55.5359992980957,-71.89299774169922 C-53.69900131225586,-73.23200225830078 -55.44300079345703,-76.26799774169922 -57.32699966430664,-75.00700378417969z"/></g><g opacity="1" transform="matrix(1,0,0,1,166.34500122070312,151.2830047607422)"><path fill="rgb(26,26,54)" fill-opacity="1" d=" M3.114000082015991,-27.059999465942383 C-6.438000202178955,-24.27400016784668 -14.49899959564209,-17.81999969482422 -19.30699920654297,-9.109000205993652 C-24.64699935913086,0.4659999907016754 -28.35099983215332,14.244999885559082 -18.775999069213867,22.55900001525879 C-10.260000228881836,29.954999923706055 1.3229999542236328,28.631000518798828 10.197999954223633,22.55900001525879 C20.499000549316406,15.576000213623047 27.06100082397461,4.2820000648498535 28.024999618530273,-8.12600040435791 C28.351999282836914,-13.855999946594238 27.41699981689453,-20.36400032043457 23.18199920654297,-24.56800079345703 C17.749000549316406,-29.954999923706055 9.809000015258789,-28.833999633789062 3.114000082015991,-27.04400062561035 C2.203000068664551,-26.704999923706055 1.7389999628067017,-25.691999435424805 2.0789999961853027,-24.7810001373291 C2.377000093460083,-23.981000900268555 3.2079999446868896,-23.510000228881836 4.047999858856201,-23.665000915527344 C9.217000007629395,-25.051000595092773 15.645999908447266,-26.43600082397461 20.160999298095703,-22.59000015258789 C23.85099983215332,-19.476999282836914 24.645999908447266,-14.121999740600586 24.56800079345703,-9.529000282287598 C24.150999069213867,0.9419999718666077 19.299999237060547,10.741000175476074 11.225000381469727,17.42099952697754 C4.125999927520752,23.47800064086914 -5.682000160217285,26.76300048828125 -14.13599967956543,21.57900047302246 C-24.506000518798828,15.241999626159668 -21.392000198364258,2.3510000705718994 -16.628000259399414,-6.570000171661377 C-12.32699966430664,-14.86400032043457 -4.833000183105469,-21.04800033569336 4.125999927520752,-23.69700050354004 C5.0370001792907715,-24.034000396728516 5.504000186920166,-25.045000076293945 5.166999816894531,-25.95599937438965 C4.859000205993652,-26.788999557495117 3.9790000915527344,-27.26300048828125 3.114000082015991,-27.059999465942383z"/></g><g opacity="1" transform="matrix(1,0,0,1,56.16600036621094,28.961000442504883)"><path fill="rgb(232,78,47)" fill-opacity="1" d=" M-8.361000061035156,-18.857999801635742 C13.861000061035156,-28.711000442504883 35.61800003051758,-28.253999710083008 40.236000061035156,-17.83799934387207 C44.854000091552734,-7.422999858856201 30.58300018310547,9.006999969482422 8.361000061035156,18.858999252319336 C-13.861000061035156,28.711000442504883 -35.61899948120117,28.2549991607666 -40.236000061035156,17.839000701904297 C-44.854000091552734,7.423999786376953 -30.58300018310547,-9.005999565124512 -8.361000061035156,-18.857999801635742z"/></g><g opacity="1" transform="matrix(1,0,0,1,45.766998291015625,12.484000205993652)"><path fill="rgb(232,78,47)" fill-opacity="1" d=" M-4.454999923706055,-10.048999786376953 C-0.1469999998807907,-11.958999633789062 5.339000225067139,-9.006999969482422 7.798999786376953,-3.4579999446868896 C10.260000228881836,2.0920000076293945 8.76200008392334,8.137999534606934 4.454999923706055,10.04800033569336 C0.1469999998807907,11.958000183105469 -5.339000225067139,9.006999969482422 -7.800000190734863,3.4570000171661377 C-10.260000228881836,-2.0920000076293945 -8.762999534606934,-8.138999938964844 -4.454999923706055,-10.048999786376953z"/></g><g opacity="1" transform="matrix(1,0,0,1,56.83100128173828,34.74700164794922)"><path fill="rgb(199,49,23)" fill-opacity="1" d=" M39.59199905395508,-23.555999755859375 C41.7869987487793,-19.22800064086914 40.24599838256836,-14.479000091552734 37.61399841308594,-9.84000015258789 C35.51300048828125,-6.11899995803833 24.100000381469727,5.730000019073486 7.705999851226807,13.156000137329102 C-15.413999557495117,23.555999755859375 -36.04199981689453,22.030000686645508 -40.900001525878906,12.128999710083008 C-40.900001525878906,12.128999710083008 -41.7869987487793,9.015000343322754 -41.7869987487793,9.015000343322754 C-39.0099983215332,10.774999618530273 -36.02299880981445,12.182000160217285 -32.89699935913086,13.20300006866455 C-17.468000411987305,18.184999465942383 -3.11299991607666,11.536999702453613 5.744999885559082,7.458000183105469 C5.744999885559082,7.458000183105469 19.336000442504883,1.2300000190734863 33.42599868774414,-13.96500015258789 C34.77199935913086,-15.418999671936035 35.99599838256836,-16.981000900268555 37.084999084472656,-18.63599967956543 C38.064998626708984,-20.198999404907227 38.90399932861328,-21.844999313354492 39.59199905395508,-23.555999755859375z"/></g><g opacity="1" transform="matrix(1,0,0,1,38.744998931884766,9.074999809265137)"><path fill="rgb(199,49,23)" fill-opacity="1" d=" M1.38100004196167,-6.182000160217285 C-0.08799999952316284,-4.960000038146973 -1.1710000038146973,-3.3359999656677246 -1.7339999675750732,-1.5099999904632568 C-2.440000057220459,1.121999979019165 -2.056999921798706,3.927000045776367 -0.6740000247955322,6.275000095367432 C-0.6740000247955322,6.275000095367432 2.438999891281128,4.172999858856201 2.438999891281128,4.172999858856201 C1.2389999628067017,0.8289999961853027 0.8799999952316284,-2.759999990463257 1.3960000276565552,-6.275000095367432 C1.3960000276565552,-6.275000095367432 1.38100004196167,-6.182000160217285 1.38100004196167,-6.182000160217285z"/></g><g opacity="1" transform="matrix(1,0,0,1,59.77399826049805,13.329999923706055)"><path fill="rgb(255,255,255)" fill-opacity="1" d=" M1.1679999828338623,2.3299999237060547 C1.1679999828338623,2.3299999237060547 1.4800000190734863,2.1740000247955322 1.4800000190734863,2.1740000247955322 C1.774999976158142,2.0160000324249268 2.0269999504089355,1.7860000133514404 2.2109999656677246,1.5049999952316284 C2.444000005722046,1.2569999694824219 2.6059999465942383,0.949999988079071 2.677999973297119,0.6179999709129333 C2.8350000381469727,-0.06199999898672104 2.740000009536743,-0.7749999761581421 2.4130001068115234,-1.3910000324249268 C2.4130001068115234,-1.3910000324249268 2.007999897003174,-1.9199999570846558 2.007999897003174,-1.9199999570846558 C1.687999963760376,-2.239000082015991 1.2910000085830688,-2.4700000286102295 0.8560000061988831,-2.5889999866485596 C0.8560000061988831,-2.5889999866485596 0.15600000321865082,-2.683000087738037 0.15600000321865082,-2.683000087738037 C-0.3100000023841858,-2.687999963760376 -0.7689999938011169,-2.563999891281128 -1.1679999828338623,-2.325000047683716 C-1.1679999828338623,-2.325000047683716 -1.4789999723434448,-2.1700000762939453 -1.4789999723434448,-2.1700000762939453 C-1.7790000438690186,-2.0160000324249268 -2.0320000648498535,-1.784000039100647 -2.2109999656677246,-1.5 C-2.433000087738037,-1.24399995803833 -2.5929999351501465,-0.9399999976158142 -2.677999973297119,-0.6119999885559082 C-2.8350000381469727,0.06700000166893005 -2.740000009536743,0.7799999713897705 -2.4130001068115234,1.3960000276565552 C-2.4130001068115234,1.3960000276565552 -2.007999897003174,1.9249999523162842 -2.007999897003174,1.9249999523162842 C-1.687999963760376,2.24399995803833 -1.2920000553131104,2.4749999046325684 -0.8569999933242798,2.5950000286102295 C-0.8569999933242798,2.5950000286102295 -0.15600000321865082,2.687999963760376 -0.15600000321865082,2.687999963760376 C0.3089999854564667,2.687999963760376 0.7670000195503235,2.563999891281128 1.1679999828338623,2.3299999237060547z"/></g><g opacity="1" transform="matrix(1,0,0,1,72.43000030517578,11.682000160217285)"><path fill="rgb(255,255,255)" fill-opacity="1" d=" M-5.182000160217285,2.4670000076293945 C-3.0490000247955322,2.374000072479248 -0.8700000047683716,2.125999927520752 1.2640000581741333,2.187999963760376 C2.9140000343322754,2.187999963760376 4.377999782562256,3.0439999103546143 6.0279998779296875,3.0439999103546143 C7.4679999351501465,2.933000087738037 8.545999526977539,1.6749999523162842 8.434000015258789,0.23499999940395355 C8.335000038146973,-1.0509999990463257 7.313000202178955,-2.072000026702881 6.0279998779296875,-2.1710000038146973 C4.4710001945495605,-2.1710000038146973 2.9140000343322754,-3.0439999103546143 1.2640000581741333,-3.0439999103546143 C-0.8849999904632568,-3.0439999103546143 -3.0490000247955322,-2.8570001125335693 -5.182000160217285,-2.7639999389648438 C-8.529000282287598,-2.6080000400543213 -8.545000076293945,2.6070001125335693 -5.182000160217285,2.4670000076293945z"/></g><g opacity="1" transform="matrix(1,0,0,1,126.62000274658203,45.84000015258789)"><path fill="rgb(232,78,47)" fill-opacity="1" d=" M-7.10699987411499,-8.461999893188477 C-15.187999725341797,-4.382999897003174 -19.235000610351562,-2.3429999351501465 -19.639999389648438,0.4129999876022339 C-20.045000076293945,3.1679999828338623 -17.833999633789062,5.769000053405762 -17.02400016784668,6.640999794006348 C-14.534000396728516,9.138999938964844 -11.206000328063965,10.625 -7.683000087738037,10.812000274658203 C0.289000004529953,11.871000289916992 6.1579999923706055,8.711999893188477 13.725000381469727,4.585999965667725 C15.873000144958496,3.4030001163482666 18.131000518798828,1.9850000143051147 18.954999923706055,-0.6309999823570251 C19.065000534057617,-0.9729999899864197 20.045000076293945,-4.2270002365112305 18.426000595092773,-5.861999988555908 C15.670000076293945,-8.64900016784668 7.933000087738037,-4.103000164031982 6.4070000648498535,-6.375999927520752 C5.627999782562256,-7.559000015258789 7.35699987411499,-9.255999565124512 6.4070000648498535,-10.564000129699707 C5.456999778747559,-11.871999740600586 2.7639999389648438,-11.435999870300293 0.6620000004768372,-11.07800006866455 C-2.0439999103546143,-10.597999572753906 -4.663000106811523,-9.717000007629395 -7.10699987411499,-8.461999893188477z"/></g><g opacity="1" transform="matrix(1,0,0,1,36.880001068115234,86.07099914550781)"><path fill="rgb(192,146,194)" fill-opacity="1" d=" M-4.60099983215332,-11.045999526977539 C-10.829000473022461,-2.312000036239624 -16.46500015258789,-2.9030001163482666 -17.648000717163086,2.5299999713897705 C-18.70599937438965,7.388000011444092 -15.375,12.914999961853027 -11.420000076293945,15.593000411987305 C-3.0910000801086426,21.21299934387207 7.822999954223633,14.192000389099121 10.517000198364258,12.479000091552734 C13.210000038146973,10.765999794006348 18.70599937438965,7.2170000076293945 18.301000595092773,3.138000011444092 C17.89699935913086,-0.9419999718666077 11.420000076293945,-2.249000072479248 10.982999801635742,-7.309000015258789 C10.67199993133545,-10.95199966430664 13.878999710083008,-12.229000091552734 13.069999694824219,-15.093999862670898 C12.104999542236328,-18.61199951171875 6.21999979019165,-21.21299934387207 2.1710000038146973,-19.764999389648438 C-0.9890000224113464,-18.83099937438965 -0.9890000224113464,-16.136999130249023 -4.60099983215332,-11.045999526977539z"/></g><g opacity="1" transform="matrix(1,0,0,1,78.33300018310547,61.060001373291016)"><path fill="rgb(172,207,126)" fill-opacity="1" d=" M-0.07800000160932541,-10.633999824523926 C-1.930999994277954,-10.633999824523926 -10.461999893188477,-10.463000297546387 -12.611000061035156,-4.888999938964844 C-14.168000221252441,-0.824999988079071 -11.473999977111816,3.752000093460083 -8.968000411987305,6.086999893188477 C-4.339000225067139,10.33899974822998 2.631999969482422,10.77400016784668 7.754000186920166,7.130000114440918 C11.489999771118164,4.235000133514404 14.168000221252441,-1.5889999866485596 11.925999641418457,-5.932000160217285 C9.418999671936035,-10.77400016784668 2.365999937057495,-10.664999961853027 -0.07800000160932541,-10.633999824523926z"/></g><g opacity="1" transform="matrix(1,0,0,1,140.4530029296875,76.16200256347656)"><path fill="rgb(125,144,199)" fill-opacity="1" d=" M3.0829999446868896,-14.760000228881836 C-3.424999952316284,-15.927000045776367 -9.574999809265137,-10.510000228881836 -11.53600025177002,-4.8429999351501465 C-14.322999954223633,3.23799991607666 -9.295000076293945,13.949000358581543 -1.6200000047683716,15.008000373840332 C4.951000213623047,15.927000045776367 11.708000183105469,9.559000015258789 13.015999794006348,2.4749999046325684 C14.324000358581543,-4.609000205993652 10.354000091552734,-13.45199966430664 3.0829999446868896,-14.760000228881836z"/></g></g><g transform="matrix(1,0,0,1,100.46627807617188,166.3112030029297)" opacity="1" style="display: block;"><g opacity="1" transform="matrix(1,0,0,1,5.169000148773193,5.170000076293945)"><path fill="rgb(26,26,54)" fill-opacity="1" d=" M0.0010000000474974513,-4.920000076293945 C2.7179999351501465,-4.920000076293945 4.920000076293945,-2.7179999351501465 4.920000076293945,0 C4.920000076293945,2.7170000076293945 2.7179999351501465,4.920000076293945 0.0010000000474974513,4.920000076293945 C-2.7160000801086426,4.920000076293945 -4.920000076293945,2.7170000076293945 -4.920000076293945,0 C-4.920000076293945,-2.7179999351501465 -2.7160000801086426,-4.920000076293945 0.0010000000474974513,-4.920000076293945z"/></g></g><g transform="matrix(1,0,0,1,99.96581268310547,166.56088256835938)" opacity="1" style="display: block;"><g opacity="1" transform="matrix(1,0,0,1,66.83899688720703,5.170000076293945)"><path fill="rgb(26,26,54)" fill-opacity="1" d=" M-0.0010000000474974513,-4.920000076293945 C2.7160000801086426,-4.920000076293945 4.920000076293945,-2.7179999351501465 4.920000076293945,0 C4.920000076293945,2.7170000076293945 2.7160000801086426,4.920000076293945 -0.0010000000474974513,4.920000076293945 C-2.7179999351501465,4.920000076293945 -4.920000076293945,2.7170000076293945 -4.920000076293945,0 C-4.920000076293945,-2.7179999351501465 -2.7179999351501465,-4.920000076293945 -0.0010000000474974513,-4.920000076293945z"/></g></g><g transform="matrix(1,0,0,1,100.7159194946289,167.06158447265625)" opacity="1" style="display: block;"><g opacity="1" transform="matrix(1,0,0,1,34.928001403808594,12.930000305175781)"><path fill="rgb(26,26,54)" fill-opacity="1" d=" M-4.73799991607666,0.5529999732971191 C-1.5,0.5529999732971191 1.7389999628067017,0.7260000109672546 4.9770002365112305,0.6629999876022339 C4.9770002365112305,0.6629999876022339 2.578000068664551,-1.1579999923706055 2.578000068664551,-1.1579999923706055 C2.4860000610351562,-1.4780000448226929 2.4860000610351562,-1.819000005722046 2.578000068664551,-2.1389999389648438 C2.5859999656677246,-2.0920000076293945 2.5859999656677246,-2.0460000038146973 2.578000068664551,-1.9989999532699585 C2.5490000247955322,-1.8869999647140503 2.513000011444092,-1.7790000438690186 2.4690001010894775,-1.6729999780654907 C2.4690001010894775,-1.6729999780654907 2.2829999923706055,-1.1740000247955322 2.2829999923706055,-1.1740000247955322 C2.2829999923706055,-1.1740000247955322 2.2829999923706055,-1.003000020980835 2.2829999923706055,-1.003000020980835 C2.2829999923706055,-1.003000020980835 2.3610000610351562,-1.2050000429153442 2.3610000610351562,-1.2050000429153442 C2.2820000648498535,-1.2050000429153442 2.2049999237060547,-0.925000011920929 2.1579999923706055,-0.847000002861023 C1.9249999523162842,-0.4580000042915344 2.546999931335449,-1.2519999742507935 2.1579999923706055,-0.9559999704360962 C2.0829999446868896,-0.8600000143051147 2.000999927520752,-0.7720000147819519 1.909999966621399,-0.6909999847412109 C1.5049999952316284,-0.3330000042915344 2.0179998874664307,-0.8320000171661377 2.065000057220459,-0.800000011920929 C2.1110000610351562,-0.7689999938011169 1.6130000352859497,-0.5210000276565552 1.5509999990463257,-0.49000000953674316 C1.0529999732971191,-0.20999999344348907 2.375999927520752,-0.7699999809265137 1.5509999990463257,-0.49000000953674316 C1.378999948501587,-0.4259999990463257 1.2020000219345093,-0.3790000081062317 1.0210000276565552,-0.3479999899864197 C1.0210000276565552,-0.3479999899864197 0.7720000147819519,-0.3479999899864197 0.7720000147819519,-0.3479999899864197 C0.7720000147819519,-0.3479999899864197 1.0069999694824219,-0.3479999899864197 1.0069999694824219,-0.3479999899864197 C1.0069999694824219,-0.3479999899864197 -0.006000000052154064,-0.3479999899864197 -0.006000000052154064,-0.3479999899864197 C-0.006000000052154064,-0.3479999899864197 -0.4259999990463257,-0.3479999899864197 -0.4259999990463257,-0.3479999899864197 C-1.0169999599456787,-0.3479999899864197 0.11800000071525574,-0.25600001215934753 -0.3179999887943268,-0.3479999899864197 C-0.3179999887943268,-0.3479999899864197 -0.9710000157356262,-0.49000000953674316 -0.9710000157356262,-0.49000000953674316 C-1.2359999418258667,-0.49000000953674316 -1.4839999675750732,-0.6439999938011169 -1.7489999532699585,-0.722000002861023 C-2.013000011444092,-0.800000011920929 -1.2829999923706055,-0.4580000042915344 -1.6720000505447388,-0.722000002861023 C-1.6720000505447388,-0.722000002861023 -1.9210000038146973,-0.8629999756813049 -1.9210000038146973,-0.8629999756813049 C-2.0929999351501465,-0.9869999885559082 -2.0929999351501465,-0.9710000157356262 -1.9210000038146973,-0.8629999756813049 C-1.9210000038146973,-0.8629999756813049 -2.0920000076293945,-1.034999966621399 -2.0920000076293945,-1.034999966621399 C-2.0920000076293945,-1.034999966621399 -2.26200008392334,-1.2200000286102295 -2.26200008392334,-1.2200000286102295 C-2.0450000762939453,-0.925000011920929 -1.9980000257492065,-0.8930000066757202 -2.1540000438690186,-1.0959999561309814 C-2.309000015258789,-1.2990000247955322 -2.3559999465942383,-1.687999963760376 -2.1540000438690186,-1.0959999561309814 C-2.2019999027252197,-1.218000054359436 -2.244999885559082,-1.3420000076293945 -2.2790000438690186,-1.468999981880188 C-2.2790000438690186,-1.5789999961853027 -2.2790000438690186,-1.7029999494552612 -2.3570001125335693,-1.8279999494552612 C-2.1549999713897705,-1.1419999599456787 -2.3570001125335693,-1.3300000429153442 -2.3570001125335693,-1.5789999961853027 C-2.3570001125335693,-1.5789999961853027 -2.3570001125335693,-2.061000108718872 -2.3570001125335693,-2.061000108718872 C-2.365000009536743,-3.427000045776367 -3.4660000801086426,-4.535999774932861 -4.830999851226807,-4.552000045776367 C-6.190000057220459,-4.511000156402588 -7.2829999923706055,-3.4200000762939453 -7.322999954223633,-2.061000108718872 C-7.434000015258789,-0.20000000298023224 -6.6529998779296875,1.6030000448226929 -5.2210001945495605,2.7960000038146973 C-3.684999942779541,3.944000005722046 -1.812999963760376,4.552000045776367 0.10400000214576721,4.525000095367432 C1.934000015258789,4.599999904632568 3.7279999256134033,4 5.146999835968018,2.8420000076293945 C5.921000003814697,2.1649999618530273 6.51200008392334,1.3029999732971191 6.861000061035156,0.335999995470047 C7.2829999923706055,-0.5839999914169312 7.433000087738037,-1.6039999723434448 7.296000003814697,-2.6059999465942383 C6.99399995803833,-3.687999963760376 6.00600004196167,-4.434000015258789 4.882999897003174,-4.427000045776367 C1.6440000534057617,-4.427000045776367 -1.593000054359436,-4.598999977111816 -4.830999851226807,-4.552000045776367 C-6.206999778747559,-4.552000045776367 -7.322999954223633,-3.437000036239624 -7.322999954223633,-2.061000108718872 C-7.322999954223633,-0.6850000023841858 -6.206999778747559,0.4300000071525574 -4.830999851226807,0.4300000071525574 C-4.830999851226807,0.4300000071525574 -4.73799991607666,0.5529999732971191 -4.73799991607666,0.5529999732971191z"/></g></g><g style="display: none;"><g><path stroke-linecap="round" stroke-linejoin="miter" fill-opacity="0" stroke-miterlimit="4"/></g></g><g style="display: none;"><g><path stroke-linecap="round" stroke-linejoin="miter" fill-opacity="0" stroke-miterlimit="4"/></g></g></g></svg>