<svg xmlns="http://www.w3.org/2000/svg" viewBox="0 0 500 330" width="500" height="330" preserveAspectRatio="xMidYMid meet" style="width: 100%; height: 100%; transform: translate3d(0px, 0px, 0px);"><defs><clipPath id="__lottie_element_424"><rect width="500" height="330" x="0" y="0"/></clipPath></defs><g clip-path="url(#__lottie_element_424)"><g transform="matrix(1,0,0,1,264.9360046386719,198.00799560546875)" opacity="1" style="display: block;"><g opacity="1" transform="matrix(1,0,0,1,24.697999954223633,66.4020004272461)"><path fill="rgb(246,197,85)" fill-opacity="1" d=" M-9.574000358581543,8.003999710083008 C-11.579999923706055,-10.42199993133545 -5.836999893188477,-44.104000091552734 -3.117000102996826,-58.097999572753906 C-3.117000102996826,-58.097999572753906 12.043999671936035,-63.345001220703125 12.043999671936035,-63.345001220703125 C12.043999671936035,-63.345001220703125 14.376999855041504,-53.433998107910156 14.376999855041504,-53.433998107910156 C11.656000137329102,-38.07899856567383 4.7170000076293945,-5.370999813079834 6.750999927520752,8.586999893188477 C8.78499984741211,22.54599952697754 16.698999404907227,41.082000732421875 19.17099952697754,47.25899887084961 C21.642000198364258,53.4370002746582 20.343000411987305,57.020999908447266 16.32699966430664,60.18299865722656 C12.3100004196167,63.345001220703125 -6.482999801635742,61.83599853515625 -11.14799976348877,61.25299835205078 C-15.812000274658203,60.66999816894531 -21.642000198364258,57.755001068115234 -18.726999282836914,49.00899887084961 C-16.395000457763672,42.012001037597656 -5.316999912261963,41.81700134277344 -0.07000000029802322,42.595001220703125 C-3.763000011444092,35.79199981689453 -7.568999767303467,26.43000030517578 -9.574000358581543,8.003999710083008z"/></g><g opacity="1" transform="matrix(1,0,0,1,24.697999954223633,66.4020004272461)"><path stroke-linecap="round" stroke-linejoin="round" fill-opacity="0" stroke="rgb(41,24,61)" stroke-opacity="1" stroke-width="3.056" d=" M-9.574000358581543,8.003999710083008 C-11.579999923706055,-10.42199993133545 -5.836999893188477,-44.104000091552734 -3.117000102996826,-58.097999572753906 C-3.117000102996826,-58.097999572753906 12.043999671936035,-63.345001220703125 12.043999671936035,-63.345001220703125 C12.043999671936035,-63.345001220703125 14.376999855041504,-53.433998107910156 14.376999855041504,-53.433998107910156 C11.656000137329102,-38.07899856567383 4.7170000076293945,-5.370999813079834 6.750999927520752,8.586999893188477 C8.78499984741211,22.54599952697754 16.698999404907227,41.082000732421875 19.17099952697754,47.25899887084961 C21.642000198364258,53.4370002746582 20.343000411987305,57.020999908447266 16.32699966430664,60.18299865722656 C12.3100004196167,63.345001220703125 -6.482999801635742,61.83599853515625 -11.14799976348877,61.25299835205078 C-15.812000274658203,60.66999816894531 -21.642000198364258,57.755001068115234 -18.726999282836914,49.00899887084961 C-16.395000457763672,42.012001037597656 -5.316999912261963,41.81700134277344 -0.07000000029802322,42.595001220703125 C-3.763000011444092,35.79199981689453 -7.568999767303467,26.43000030517578 -9.574000358581543,8.003999710083008z"/></g></g><g transform="matrix(1,0,0,1,323.8070068359375,198.60598754882812)" opacity="1" style="display: block;"><g opacity="1" transform="matrix(1,0,0,1,24.698999404907227,66.35700225830078)"><path fill="rgb(246,197,85)" fill-opacity="1" d=" M11.461999893188477,3.4119999408721924 C13.468000411987305,-15.013999938964844 5.502999782562256,-44.058998107910156 2.7829999923706055,-58.053001403808594 C2.7829999923706055,-58.053001403808594 -12.376999855041504,-63.29999923706055 -12.376999855041504,-63.29999923706055 C-12.376999855041504,-63.29999923706055 -14.708999633789062,-53.388999938964844 -14.708999633789062,-53.388999938964844 C-11.98799991607666,-38.03499984741211 -2.8299999237060547,-9.96399974822998 -4.863999843597412,3.994999885559082 C-6.896999835968018,17.95400047302246 -16.70199966430664,41.03799819946289 -19.17300033569336,47.21500015258789 C-21.64299964904785,53.391998291015625 -20.34600067138672,56.97700119018555 -16.32900047302246,60.138999938964844 C-12.310999870300293,63.30099868774414 6.48199987411499,61.792999267578125 11.147000312805176,61.209999084472656 C15.812000274658203,60.62699890136719 21.642000198364258,57.709999084472656 18.726999282836914,48.9640007019043 C16.393999099731445,41.96699905395508 5.315000057220459,41.77299880981445 0.06700000166893005,42.54999923706055 C3.760999917984009,35.74800109863281 9.456999778747559,21.83799934387207 11.461999893188477,3.4119999408721924z"/></g><g opacity="1" transform="matrix(1,0,0,1,24.698999404907227,66.35700225830078)"><path stroke-linecap="round" stroke-linejoin="round" fill-opacity="0" stroke="rgb(41,24,61)" stroke-opacity="1" stroke-width="3.056" d=" M11.461999893188477,3.4119999408721924 C13.468000411987305,-15.013999938964844 5.502999782562256,-44.058998107910156 2.7829999923706055,-58.053001403808594 C2.7829999923706055,-58.053001403808594 -12.376999855041504,-63.29999923706055 -12.376999855041504,-63.29999923706055 C-12.376999855041504,-63.29999923706055 -14.708999633789062,-53.388999938964844 -14.708999633789062,-53.388999938964844 C-11.98799991607666,-38.03499984741211 -2.8299999237060547,-9.96399974822998 -4.863999843597412,3.994999885559082 C-6.896999835968018,17.95400047302246 -16.70199966430664,41.03799819946289 -19.17300033569336,47.21500015258789 C-21.64299964904785,53.391998291015625 -20.34600067138672,56.97700119018555 -16.32900047302246,60.138999938964844 C-12.310999870300293,63.30099868774414 6.48199987411499,61.792999267578125 11.147000312805176,61.209999084472656 C15.812000274658203,60.62699890136719 21.642000198364258,57.709999084472656 18.726999282836914,48.9640007019043 C16.393999099731445,41.96699905395508 5.315000057220459,41.77299880981445 0.06700000166893005,42.54999923706055 C3.760999917984009,35.74800109863281 9.456999778747559,21.83799934387207 11.461999893188477,3.4119999408721924z"/></g></g><g transform="matrix(1,0,0,1,238.1269989013672,70.9469985961914)" opacity="1" style="display: block;"><g opacity="1" transform="matrix(1,0,0,1,82.552001953125,82.5530014038086)"><path fill="rgb(246,197,85)" fill-opacity="1" d=" M15.13700008392334,-73.94400024414062 C55.974998474121094,-65.58399963378906 82.302001953125,-25.70199966430664 73.94300079345703,15.135000228881836 C65.58200073242188,55.972999572753906 25.701000213623047,82.302001953125 -15.135000228881836,73.94100189208984 C-55.972999572753906,65.58200073242188 -82.3030014038086,25.700000762939453 -73.94300079345703,-15.13700008392334 C-65.58399963378906,-55.974998474121094 -25.700000762939453,-82.3030014038086 15.13700008392334,-73.94400024414062z"/></g><g opacity="1" transform="matrix(1,0,0,1,81.72699737548828,82.92900085449219)"><path stroke-linecap="round" stroke-linejoin="round" fill-opacity="0" stroke="rgb(41,24,61)" stroke-opacity="1" stroke-width="3.36" d=" M-0.0010000000474974513,-75.47699737548828 C41.683998107910156,-75.47699737548828 75.47699737548828,-41.683998107910156 75.47699737548828,0 C75.47699737548828,41.685001373291016 41.683998107910156,75.47699737548828 -0.0010000000474974513,75.47699737548828 C-41.685001373291016,75.47699737548828 -75.47699737548828,41.685001373291016 -75.47699737548828,0 C-75.47699737548828,-41.683998107910156 -41.685001373291016,-75.47699737548828 -0.0010000000474974513,-75.47699737548828z"/></g></g><g transform="matrix(0.9902680516242981,-0.13917310535907745,0.13917310535907745,0.9902680516242981,345.6612548828125,149.10000610351562)" opacity="1" style="display: block;"><g opacity="1" transform="matrix(1,0,0,1,56.9010009765625,121.28700256347656)"><path fill="rgb(159,119,73)" fill-opacity="1" d=" M-20.583999633789062,-69.70600128173828 C-20.583999633789062,-69.70600128173828 -20.583999633789062,-69.70600128173828 -20.583999633789062,-69.70600128173828 C-18.667999267578125,-70.27200317382812 -16.6560001373291,-69.177001953125 -16.090999603271484,-67.26200103759766 C-16.090999603271484,-67.26200103759766 23.027999877929688,65.21199798583984 23.027999877929688,65.21199798583984 C23.5939998626709,67.12799835205078 22.5,69.13999938964844 20.583999633789062,69.70600128173828 C18.667999267578125,70.27100372314453 16.6560001373291,69.177001953125 16.090999603271484,67.26100158691406 C16.090999603271484,67.26100158691406 -23.027999877929688,-65.21299743652344 -23.027999877929688,-65.21299743652344 C-23.5939998626709,-67.12899780273438 -22.499000549316406,-69.13999938964844 -20.583999633789062,-69.70600128173828z"/></g><g opacity="1" transform="matrix(1,0,0,1,56.9010009765625,121.28700256347656)"><path stroke-linecap="round" stroke-linejoin="round" fill-opacity="0" stroke="rgb(41,24,61)" stroke-opacity="1" stroke-width="3.6" d=" M-20.583999633789062,-69.70600128173828 C-20.583999633789062,-69.70600128173828 -20.583999633789062,-69.70600128173828 -20.583999633789062,-69.70600128173828 C-18.667999267578125,-70.27200317382812 -16.6560001373291,-69.177001953125 -16.090999603271484,-67.26200103759766 C-16.090999603271484,-67.26200103759766 23.027999877929688,65.21199798583984 23.027999877929688,65.21199798583984 C23.5939998626709,67.12799835205078 22.5,69.13999938964844 20.583999633789062,69.70600128173828 C18.667999267578125,70.27100372314453 16.6560001373291,69.177001953125 16.090999603271484,67.26100158691406 C16.090999603271484,67.26100158691406 -23.027999877929688,-65.21299743652344 -23.027999877929688,-65.21299743652344 C-23.5939998626709,-67.12899780273438 -22.499000549316406,-69.13999938964844 -20.583999633789062,-69.70600128173828z"/></g><g opacity="1" transform="matrix(1,0,0,1,36.1619987487793,50.930999755859375)"><path fill="rgb(196,196,196)" fill-opacity="1" d=" M-1.5640000104904175,-5.296000003814697 C-1.5640000104904175,-5.296000003814697 -1.5640000104904175,-5.296000003814697 -1.5640000104904175,-5.296000003814697 C1.284000039100647,-6.13700008392334 4.27400016784668,-4.510000228881836 5.114999771118164,-1.6619999408721924 C5.114999771118164,-1.6619999408721924 5.197000026702881,-1.3830000162124634 5.197000026702881,-1.3830000162124634 C6.039000034332275,1.4639999866485596 4.4120001792907715,4.453999996185303 1.562999963760376,5.295000076293945 C-1.284999966621399,6.136000156402588 -4.275000095367432,4.508999824523926 -5.116000175476074,1.6610000133514404 C-5.116000175476074,1.6610000133514404 -5.197999954223633,1.3830000162124634 -5.197999954223633,1.3830000162124634 C-6.039000034332275,-1.465000033378601 -4.4120001792907715,-4.454999923706055 -1.5640000104904175,-5.296000003814697z"/></g><g opacity="1" transform="matrix(1,0,0,1,36.1619987487793,50.930999755859375)"><path stroke-linecap="round" stroke-linejoin="round" fill-opacity="0" stroke="rgb(41,24,61)" stroke-opacity="1" stroke-width="3.6" d=" M-1.5640000104904175,-5.296000003814697 C-1.5640000104904175,-5.296000003814697 -1.5640000104904175,-5.296000003814697 -1.5640000104904175,-5.296000003814697 C1.284000039100647,-6.13700008392334 4.27400016784668,-4.510000228881836 5.114999771118164,-1.6619999408721924 C5.114999771118164,-1.6619999408721924 5.197000026702881,-1.3830000162124634 5.197000026702881,-1.3830000162124634 C6.039000034332275,1.4639999866485596 4.4120001792907715,4.453999996185303 1.562999963760376,5.295000076293945 C-1.284999966621399,6.136000156402588 -4.275000095367432,4.508999824523926 -5.116000175476074,1.6610000133514404 C-5.116000175476074,1.6610000133514404 -5.197999954223633,1.3830000162124634 -5.197999954223633,1.3830000162124634 C-6.039000034332275,-1.465000033378601 -4.4120001792907715,-4.454999923706055 -1.5640000104904175,-5.296000003814697z"/></g><g opacity="1" transform="matrix(1,0,0,1,27.62299919128418,28.67799949645996)"><path fill="rgb(196,196,196)" fill-opacity="1" d=" M-24.447999954223633,-10.621000289916992 C-25.235000610351562,-13.282999992370605 -23.71500015258789,-16.07900047302246 -21.052000045776367,-16.864999771118164 C-21.052000045776367,-16.864999771118164 -10.569000244140625,16.844999313354492 -10.569000244140625,16.844999313354492 C-10.569000244140625,16.844999313354492 -5.802000045776367,15.310999870300293 -5.802000045776367,15.310999870300293 C-5.802000045776367,15.310999870300293 -13.918000221252441,-18.459999084472656 -13.918000221252441,-18.459999084472656 C-13.918000221252441,-18.459999084472656 -2.9179999828338623,11.406000137329102 -2.9179999828338623,11.406000137329102 C-2.322000026702881,13.02299976348877 -0.5680000185966492,13.895000457763672 1.0809999704360962,13.392999649047852 C1.0809999704360962,13.392999649047852 -4.756999969482422,-21.405000686645508 -4.756999969482422,-21.405000686645508 C-4.756999969482422,-21.405000686645508 8.95300006866455,11.630999565124512 8.95300006866455,11.630999565124512 C8.95300006866455,11.630999565124512 4.697999954223633,-21.420000076293945 4.697999954223633,-21.420000076293945 C4.697999954223633,-21.420000076293945 14.343999862670898,9.220000267028809 14.343999862670898,9.220000267028809 C14.343999862670898,9.220000267028809 18.13800048828125,8.057000160217285 18.13800048828125,8.057000160217285 C18.13800048828125,8.057000160217285 8.552000045776367,-25.60700035095215 8.552000045776367,-25.60700035095215 C11.258000373840332,-26.4060001373291 14.10099983215332,-24.860000610351562 14.901000022888184,-22.15399932861328 C14.901000022888184,-22.15399932861328 24.22800064086914,9.4350004196167 24.22800064086914,9.4350004196167 C25.236000061035156,12.845000267028809 23.285999298095703,16.426000595092773 19.875,17.433000564575195 C19.875,17.433000564575195 -7.098999977111816,25.39900016784668 -7.098999977111816,25.39900016784668 C-10.510000228881836,26.4060001373291 -14.09000015258789,24.457000732421875 -15.095999717712402,21.047000885009766 C-15.095999717712402,21.047000885009766 -24.447999954223633,-10.621000289916992 -24.447999954223633,-10.621000289916992z"/><path stroke-linecap="butt" stroke-linejoin="miter" fill-opacity="0" stroke-miterlimit="4" stroke="rgb(41,25,62)" stroke-opacity="1" stroke-width="3" d=" M-24.447999954223633,-10.621000289916992 C-25.235000610351562,-13.282999992370605 -23.71500015258789,-16.07900047302246 -21.052000045776367,-16.864999771118164 C-21.052000045776367,-16.864999771118164 -10.569000244140625,16.844999313354492 -10.569000244140625,16.844999313354492 C-10.569000244140625,16.844999313354492 -5.802000045776367,15.310999870300293 -5.802000045776367,15.310999870300293 C-5.802000045776367,15.310999870300293 -13.918000221252441,-18.459999084472656 -13.918000221252441,-18.459999084472656 C-13.918000221252441,-18.459999084472656 -2.9179999828338623,11.406000137329102 -2.9179999828338623,11.406000137329102 C-2.322000026702881,13.02299976348877 -0.5680000185966492,13.895000457763672 1.0809999704360962,13.392999649047852 C1.0809999704360962,13.392999649047852 -4.756999969482422,-21.405000686645508 -4.756999969482422,-21.405000686645508 C-4.756999969482422,-21.405000686645508 8.95300006866455,11.630999565124512 8.95300006866455,11.630999565124512 C8.95300006866455,11.630999565124512 4.697999954223633,-21.420000076293945 4.697999954223633,-21.420000076293945 C4.697999954223633,-21.420000076293945 14.343999862670898,9.220000267028809 14.343999862670898,9.220000267028809 C14.343999862670898,9.220000267028809 18.13800048828125,8.057000160217285 18.13800048828125,8.057000160217285 C18.13800048828125,8.057000160217285 8.552000045776367,-25.60700035095215 8.552000045776367,-25.60700035095215 C11.258000373840332,-26.4060001373291 14.10099983215332,-24.860000610351562 14.901000022888184,-22.15399932861328 C14.901000022888184,-22.15399932861328 24.22800064086914,9.4350004196167 24.22800064086914,9.4350004196167 C25.236000061035156,12.845000267028809 23.285999298095703,16.426000595092773 19.875,17.433000564575195 C19.875,17.433000564575195 -7.098999977111816,25.39900016784668 -7.098999977111816,25.39900016784668 C-10.510000228881836,26.4060001373291 -14.09000015258789,24.457000732421875 -15.095999717712402,21.047000885009766 C-15.095999717712402,21.047000885009766 -24.447999954223633,-10.621000289916992 -24.447999954223633,-10.621000289916992z"/></g></g><g transform="matrix(1,0,0,1,234.44500732421875,17.227996826171875)" opacity="1" style="display: block;"><g opacity="1" transform="matrix(1,0,0,1,95.23600006103516,75.7959976196289)"><path fill="rgb(206,172,117)" fill-opacity="1" d=" M-81.1510009765625,-24.339000701904297 C-71.50299835205078,-31.503999710083008 -37.8120002746582,-28.698999404907227 -22.17099952697754,-26.400999069213867 C-8.142999649047852,-24.41200065612793 21.434999465942383,-19.607999801635742 27.514999389648438,-16.302000045776367 C68.56199645996094,-4.00600004196167 90.19100189208984,13.170000076293945 90.6449966430664,19.610000610351562 C91.00800323486328,24.76099967956543 81.96900177001953,28.884000778198242 77.40299987792969,30.301000595092773 C77.40299987792969,30.301000595092773 43.946998596191406,31.503999710083008 43.946998596191406,31.503999710083008 C43.946998596191406,31.503999710083008 12.130000114440918,27.030000686645508 12.130000114440918,27.030000686645508 C12.130000114440918,27.030000686645508 -22.981000900268555,20.48699951171875 -22.981000900268555,20.48699951171875 C-22.981000900268555,20.48699951171875 -73.60700225830078,1.8040000200271606 -73.60700225830078,1.8040000200271606 C-73.60700225830078,1.8040000200271606 -86.36299896240234,-7.13100004196167 -86.36299896240234,-7.13100004196167 C-86.36299896240234,-7.13100004196167 -89.90599822998047,-11.286999702453613 -89.90599822998047,-11.286999702453613 C-91.00700378417969,-12.652999877929688 -90.7979965209961,-17.174999237060547 -81.1510009765625,-24.339000701904297z"/></g><g opacity="1" transform="matrix(1,0,0,1,105.15299987792969,81.51300048828125)"><path stroke-linecap="round" stroke-linejoin="round" fill-opacity="0" stroke="rgb(41,24,61)" stroke-opacity="1" stroke-width="2.848" d=" M-32.49599838256836,-32.48400115966797 C-57.319000244140625,-36.66899871826172 -98.7969970703125,-37.053001403808594 -100.5510025024414,-19.128000259399414 C-102.30500030517578,-1.2029999494552612 31.43899917602539,37.051998138427734 70.80899810791016,23.06399917602539 C102.30500030517578,11.873000144958496 49.2859992980957,-11.527000427246094 18.84000015258789,-21.827999114990234"/></g><g opacity="1" transform="matrix(1,0,0,1,97.59500122070312,42.38600158691406)"><path fill="rgb(206,172,117)" fill-opacity="1" d=" M-35.67499923706055,-4.808000087738037 C-35.67499923706055,-4.808000087738037 -44.185001373291016,17.17099952697754 -44.185001373291016,17.17099952697754 C-1.0809999704360962,16.055999755859375 32.125,28.77899932861328 44.185001373291016,36.71200180053711 C44.185001373291016,36.71200180053711 41.24700164794922,17.527000427246094 41.24700164794922,17.527000427246094 C41.24700164794922,17.527000427246094 39.82899856567383,-14.02299976348877 39.82899856567383,-14.02299976348877 C39.82899856567383,-14.02299976348877 37.34700012207031,-21.468000411987305 37.34700012207031,-21.468000411987305 C37.34700012207031,-21.468000411987305 25.326000213623047,-27.07900047302246 25.326000213623047,-27.07900047302246 C25.326000213623047,-27.07900047302246 10.194000244140625,-33.35100173950195 10.194000244140625,-33.35100173950195 C10.194000244140625,-33.35100173950195 -7.318999767303467,-36.71200180053711 -7.318999767303467,-36.71200180053711 C-7.318999767303467,-36.71200180053711 -19.726999282836914,-34.93899917602539 -19.726999282836914,-34.93899917602539 C-19.726999282836914,-34.93899917602539 -35.67499923706055,-4.808000087738037 -35.67499923706055,-4.808000087738037z"/></g><g opacity="1" transform="matrix(1,0,0,1,97.1050033569336,64.03399658203125)"><path fill="rgb(212,112,91)" fill-opacity="1" d=" M43.72999954223633,15.442999839782715 C43.72999954223633,15.442999839782715 43.3849983215332,1.7100000381469727 43.3849983215332,1.7100000381469727 C43.3849983215332,1.7100000381469727 20.94499969482422,3.2239999771118164 2.931999921798706,0.5120000243186951 C-15.083000183105469,-2.200000047683716 -40.06999969482422,-16.8439998626709 -40.06999969482422,-16.8439998626709 C-40.06999969482422,-16.8439998626709 -43.72999954223633,-5.046000003814697 -43.72999954223633,-5.046000003814697 C-43.72999954223633,-5.046000003814697 -25.358999252319336,5.465000152587891 -4.619999885559082,11.154999732971191 C16.1200008392334,16.844999313354492 43.72999954223633,15.442999839782715 43.72999954223633,15.442999839782715z"/></g><g opacity="1" transform="matrix(1,0,0,1,96.9729995727539,42.452999114990234)"><path stroke-linecap="round" stroke-linejoin="round" fill-opacity="0" stroke="rgb(41,24,61)" stroke-opacity="1" stroke-width="2.848" d=" M40.20100021362305,-18.488000869750977 C40.20100021362305,-18.488000869750977 43.744998931884766,26.792999267578125 44.34000015258789,37.124000549316406 C32.33000183105469,39.60599899291992 12.175000190734863,36.68600082397461 -1.1319999694824219,33.68199920654297 C-22.22100067138672,28.92300033569336 -37.16699981689453,21.167999267578125 -44.34000015258789,16.81399917602539 C-38.49599838256836,1.1540000438690186 -20.3799991607666,-34.60200119018555 -20.3799991607666,-34.60200119018555 C-20.3799991607666,-34.60200119018555 -15.208000183105469,-39.60499954223633 11.284000396728516,-32.755001068115234 C37.7760009765625,-25.905000686645508 40.20100021362305,-18.488000869750977 40.20100021362305,-18.488000869750977z"/></g><g opacity="1" transform="matrix(1,0,0,1,99.04399871826172,58.5629997253418)"><path stroke-linecap="round" stroke-linejoin="round" fill-opacity="0" stroke="rgb(41,24,61)" stroke-opacity="1" stroke-width="2.848" d=" M-40.279998779296875,-10.5600004196167 C-22.76300048828125,1.5549999475479126 9.96399974822998,10.559000015258789 40.279998779296875,6.453999996185303"/></g><g opacity="1" transform="matrix(1,0,0,1,107.00900268554688,17.86199951171875)"><path stroke-linecap="round" stroke-linejoin="round" fill-opacity="0" stroke="rgb(41,24,61)" stroke-opacity="1" stroke-width="2.848" d=" M-29.680999755859375,-8.307999610900879 C-28.66200065612793,-6.304999828338623 -21.143999099731445,-1.034999966621399 0.7850000262260437,4.015999794006348 C18.704999923706055,8.307999610900879 28.73699951171875,7.797999858856201 29.680999755859375,6.39900016784668"/></g><g opacity="1" transform="matrix(1,0,0,1,0,0)"><g opacity="1" transform="matrix(1,0,0,1,115.74099731445312,44.34000015258789)"><path stroke-linecap="round" stroke-linejoin="round" fill-opacity="0" stroke="rgb(41,24,61)" stroke-opacity="1" stroke-width="2.848" d=" M9.61400032043457,-2.696000099182129 C5.51800012588501,-1.9259999990463257 -4.060999870300293,0.23000000417232513 -9.61400032043457,2.696000099182129"/></g><g opacity="1" transform="matrix(1,0,0,1,119.26499938964844,51.08100128173828)"><path stroke-linecap="round" stroke-linejoin="round" fill-opacity="0" stroke="rgb(41,24,61)" stroke-opacity="1" stroke-width="2.848" d=" M9.614999771118164,-2.696000099182129 C5.51800012588501,-1.9270000457763672 -4.061999797821045,0.23000000417232513 -9.614999771118164,2.696000099182129"/></g><g opacity="1" transform="matrix(1,0,0,1,122.53800201416016,44.483001708984375)"><path stroke-linecap="round" stroke-linejoin="round" fill-opacity="0" stroke="rgb(41,24,61)" stroke-opacity="1" stroke-width="2.848" d=" M-4.882999897003174,-8.081999778747559 C-2.5169999599456787,-4.910999774932861 2.749000072479248,2.759999990463257 4.882999897003174,8.081999778747559"/></g><g opacity="1" transform="matrix(1,0,0,1,114.85199737548828,49.35200119018555)"><path stroke-linecap="round" stroke-linejoin="round" fill-opacity="0" stroke="rgb(41,24,61)" stroke-opacity="1" stroke-width="2.848" d=" M-4.882999897003174,-8.081999778747559 C-2.5169999599456787,-4.9120001792907715 2.749000072479248,2.760999917984009 4.882999897003174,8.081999778747559"/></g></g></g><g transform="matrix(1,0,0,1,362.177978515625,15.69000244140625)" opacity="1" style="display: block;"><g opacity="1" transform="matrix(1,0,0,1,81.70600128173828,13.236000061035156)"><path fill="rgb(246,197,85)" fill-opacity="1" d=" M-13.015000343322754,-0.2770000100135803 C-13.015000343322754,-0.2770000100135803 -16.409000396728516,6.306000232696533 -16.409000396728516,6.306000232696533 C-16.409000396728516,6.306000232696533 -13.065999984741211,8.57800006866455 -13.065999984741211,8.57800006866455 C-13.065999984741211,8.57800006866455 -5.986999988555908,8.189000129699707 -5.986999988555908,8.189000129699707 C-5.986999988555908,8.189000129699707 -5.775000095367432,5.989999771118164 -5.775000095367432,5.989999771118164 C-5.775000095367432,5.989999771118164 3.3289999961853027,7.947999954223633 3.3289999961853027,7.947999954223633 C3.3289999961853027,7.947999954223633 6.146999835968018,6.383999824523926 6.146999835968018,6.383999824523926 C6.146999835968018,6.383999824523926 2.0360000133514404,3.2639999389648438 2.0360000133514404,3.2639999389648438 C2.0360000133514404,3.2639999389648438 16.409000396728516,2.2720000743865967 16.409000396728516,2.2720000743865967 C16.409000396728516,2.2720000743865967 15.697999954223633,-1.475000023841858 15.697999954223633,-1.475000023841858 C15.697999954223633,-1.475000023841858 12.324999809265137,-2.9600000381469727 12.324999809265137,-2.9600000381469727 C12.324999809265137,-2.9600000381469727 12.35099983215332,-5.732999801635742 12.35099983215332,-5.732999801635742 C12.35099983215332,-5.732999801635742 10.449999809265137,-8.57800006866455 10.449999809265137,-8.57800006866455 C10.449999809265137,-8.57800006866455 0.3720000088214874,-5.215000152587891 0.3720000088214874,-5.215000152587891 C0.3720000088214874,-5.215000152587891 -1.1649999618530273,-7.573999881744385 -1.1649999618530273,-7.573999881744385 C-1.1649999618530273,-7.573999881744385 -6.88700008392334,-0.7670000195503235 -6.88700008392334,-0.7670000195503235 C-6.88700008392334,-0.7670000195503235 -13.015000343322754,-0.2770000100135803 -13.015000343322754,-0.2770000100135803z"/></g><g opacity="1" transform="matrix(1,0,0,1,82.15799713134766,16.766000747680664)"><path stroke-linecap="round" stroke-linejoin="round" fill-opacity="0" stroke="rgb(41,24,61)" stroke-opacity="1" stroke-width="2.848" d=" M-16.985000610351562,3.819999933242798 C-15.199000358581543,4.689000129699707 -10.776000022888184,6.335000038146973 -7.363999843597412,5.958000183105469 C-3.9509999752044678,5.581999778747559 -6.14900016784668,3.484999895095825 -7.673999786376953,2.4839999675750732 C-3.578000068664551,3.4130001068115234 4.986999988555908,4.883999824523926 6.4629998207092285,3.3329999446868896 C7.940999984741211,1.7829999923706055 3.8289999961853027,-0.07000000029802322 1.5880000591278076,-0.8019999861717224 C6.811999797821045,-0.5809999704360962 16.985000610351562,-0.7630000114440918 15.902999877929688,-3.257999897003174 C14.819999694824219,-5.751999855041504 12.623000144958496,-6.334000110626221 11.66100025177002,-6.313000202178955"/></g><g opacity="1" transform="matrix(1,0,0,1,33.571998596191406,43.499000549316406)"><path stroke-linecap="round" stroke-linejoin="round" fill-opacity="0" stroke="rgb(41,24,61)" stroke-opacity="1" stroke-width="2.848" d=" M-30.724000930786133,22.354000091552734 C-20.73200035095215,10.782999992370605 6.617000102996826,-13.41100025177002 30.724000930786133,-22.354000091552734"/></g><g opacity="1" transform="matrix(1,0,0,1,79.74800109863281,11.319000244140625)"><path stroke-linecap="round" stroke-linejoin="round" fill-opacity="0" stroke="rgb(41,24,61)" stroke-opacity="1" stroke-width="2.848" d=" M-15.041999816894531,8.470000267028809 C-14.744999885559082,6.860000133514404 -13.505000114440918,3.2009999752044678 -10.920999526977539,1.4450000524520874 C-8.336000442504883,-0.3109999895095825 -7.688000202178955,2.3359999656677246 -7.686999797821045,3.878999948501587 C-5.949999809265137,0.875 -1.8530000448226929,-5.0970001220703125 0.6389999985694885,-4.958000183105469 C3.128999948501587,-4.818999767303467 2.296999931335449,-1.2089999914169312 1.5700000524520874,0.5789999961853027 C4.736000061035156,-2.625 11.51200008392334,-8.470000267028809 13.277000427246094,-6.218999862670898 C15.043000221252441,-3.9670000076293945 14.194000244140625,-2.302000045776367 13.548999786376953,-1.7510000467300415"/></g></g><g transform="matrix(1,0,0,1,263.5639953613281,139.2830047607422)" opacity="1" style="display: block;"><g opacity="1" transform="matrix(1,0,0,1,49.874000549316406,12.253999710083008)"><path fill="rgb(41,24,61)" fill-opacity="1" d=" M0.41999998688697815,-4.367000102996826 C2.8310000896453857,-4.136000156402588 4.5980000495910645,-1.9930000305175781 4.367000102996826,0.4180000126361847 C4.136000156402588,2.8289999961853027 1.9930000305175781,4.5980000495910645 -0.4189999997615814,4.366000175476074 C-2.8299999237060547,4.135000228881836 -4.5970001220703125,1.9919999837875366 -4.366000175476074,-0.4189999997615814 C-4.135000228881836,-2.8299999237060547 -1.9919999837875366,-4.5980000495910645 0.41999998688697815,-4.367000102996826z"/></g><g opacity="1" transform="matrix(1,0,0,1,4.8480000495910645,4.8480000495910645)"><path fill="rgb(41,24,61)" fill-opacity="1" d=" M0.4189999997615814,-4.367000102996826 C2.8299999237060547,-4.136000156402588 4.5980000495910645,-1.9930000305175781 4.366000175476074,0.4180000126361847 C4.135000228881836,2.8299999237060547 1.9919999837875366,4.5980000495910645 -0.4189999997615814,4.366000175476074 C-2.8310000896453857,4.135000228881836 -4.5980000495910645,1.9930000305175781 -4.366000175476074,-0.4189999997615814 C-4.135000228881836,-2.8299999237060547 -1.9930000305175781,-4.5980000495910645 0.4189999997615814,-4.367000102996826z"/></g></g><g transform="matrix(0.9848077297210693,0.1736481785774231,-0.1736481785774231,0.9848077297210693,293.32989501953125,153.70408630371094)" opacity="1" style="display: block;"><g opacity="1" transform="matrix(1,0,0,1,8.663000106811523,6.585999965667725)"><path stroke-linecap="round" stroke-linejoin="round" fill-opacity="0" stroke="rgb(41,24,61)" stroke-opacity="1" stroke-width="3.209" d=" M-4.539000034332275,-0.0560000017285347 C-3.8299999237060547,1.4609999656677246 -2.4100000858306885,2.615000009536743 -0.6309999823570251,2.9089999198913574 C2.2149999141693115,3.378000020980835 4.9079999923706055,1.4670000076293945 5.4029998779296875,-1.375 C5.4029998779296875,-1.375 5.453999996185303,-1.6660000085830688 5.453999996185303,-1.6660000085830688"/></g></g><g transform="matrix(0.9865750074386597,0.1633087396621704,-0.1633087396621704,0.9865750074386597,240.20396423339844,150.93125915527344)" opacity="1" style="display: block;"><g opacity="1" transform="matrix(1,0,0,1,44.994998931884766,12.968999862670898)"><path stroke-linecap="round" stroke-linejoin="round" fill-opacity="0" stroke="rgb(41,24,61)" stroke-opacity="1" stroke-width="2.848" d=" M19.89900016784668,-10.121000289916992 C13.276000022888184,-4.986000061035156 -3.9570000171661377,6.250999927520752 -19.89900016784668,10.121000289916992"/></g><g opacity="1" transform="matrix(1,0,0,1,13.713000297546387,28.04800033569336)"><path fill="rgb(246,198,86)" fill-opacity="1" d=" M5.124000072479248,-6.736000061035156 C2.9619998931884766,-6.663000106811523 4.025000095367432,-5.001999855041504 4.827000141143799,-4.179999828338623 C2.427000045776367,-5.1020002365112305 -2.6570000648498535,-6.683000087738037 -3.7880001068115234,-5.638000011444092 C-4.919000148773193,-4.5929999351501465 -2.6389999389648438,-2.996000051498413 -1.3580000400543213,-2.328000068664551 C-4.553999900817871,-2.7990000247955322 -10.864999771118164,-3.2690000534057617 -10.54800033569336,-1.3819999694824219 C-10.229999542236328,0.5040000081062317 -8.255999565124512,1.4529999494552612 -8.255999565124512,1.4529999494552612 C-8.255999565124512,1.4529999494552612 -9.397000312805176,3.309000015258789 -8.623000144958496,5.059000015258789 C-7.848999977111816,6.809000015258789 -2.8399999141693115,2.938999891281128 -0.43299999833106995,0.7860000133514404 C-1.1339999437332153,2.0490000247955322 -2.1570000648498535,4.638000011444092 -0.6370000243186951,4.88700008392334 C0.8820000290870667,5.136000156402588 4.254000186920166,1.0160000324249268 5.75,-1.0750000476837158 C5.5329999923706055,0.052000001072883606 5.560999870300293,2.0239999294281006 7.40500020980835,0.8939999938011169 C9.24899959564209,-0.23499999940395355 10.864999771118164,-4.263000011444092 10.864999771118164,-4.263000011444092 C10.864999771118164,-4.263000011444092 7.284999847412109,-6.809000015258789 5.124000072479248,-6.736000061035156z"/><path stroke-linecap="round" stroke-linejoin="round" fill-opacity="0" stroke="rgb(41,24,61)" stroke-opacity="1" stroke-width="2.848" d=" M5.124000072479248,-6.736000061035156 C2.9619998931884766,-6.663000106811523 4.025000095367432,-5.001999855041504 4.827000141143799,-4.179999828338623 C2.427000045776367,-5.1020002365112305 -2.6570000648498535,-6.683000087738037 -3.7880001068115234,-5.638000011444092 C-4.919000148773193,-4.5929999351501465 -2.6389999389648438,-2.996000051498413 -1.3580000400543213,-2.328000068664551 C-4.553999900817871,-2.7990000247955322 -10.864999771118164,-3.2690000534057617 -10.54800033569336,-1.3819999694824219 C-10.229999542236328,0.5040000081062317 -8.255999565124512,1.4529999494552612 -8.255999565124512,1.4529999494552612 C-8.255999565124512,1.4529999494552612 -9.397000312805176,3.309000015258789 -8.623000144958496,5.059000015258789 C-7.848999977111816,6.809000015258789 -2.8399999141693115,2.938999891281128 -0.43299999833106995,0.7860000133514404 C-1.1339999437332153,2.0490000247955322 -2.1570000648498535,4.638000011444092 -0.6370000243186951,4.88700008392334 C0.8820000290870667,5.136000156402588 4.254000186920166,1.0160000324249268 5.75,-1.0750000476837158 C5.5329999923706055,0.052000001072883606 5.560999870300293,2.0239999294281006 7.40500020980835,0.8939999938011169 C9.24899959564209,-0.23499999940395355 10.864999771118164,-4.263000011444092 10.864999771118164,-4.263000011444092 C10.864999771118164,-4.263000011444092 7.284999847412109,-6.809000015258789 5.124000072479248,-6.736000061035156z"/></g></g><g transform="matrix(0.46000000834465027,0,0,0.46000000834465027,89.97921752929688,324.96734619140625)" opacity="1" style="display: block;"><g opacity="1" transform="matrix(1,0,0,1,0,0)"><g opacity="1" transform="matrix(1,0,0,1,133.4929962158203,76.28399658203125)"><path fill="rgb(235,172,82)" fill-opacity="1" d=" M67.66500091552734,0 C67.66500091552734,36.606998443603516 37.37099838256836,66.28399658203125 0,66.28399658203125 C-37.37099838256836,66.28399658203125 -67.66500091552734,36.606998443603516 -67.66500091552734,0 C-67.66500091552734,-36.608001708984375 -37.37099838256836,-66.28399658203125 0,-66.28399658203125 C37.37099838256836,-66.28399658203125 67.66500091552734,-36.608001708984375 67.66500091552734,0z"/><path stroke-linecap="butt" stroke-linejoin="miter" fill-opacity="0" stroke-miterlimit="10" stroke="rgb(41,24,61)" stroke-opacity="1" stroke-width="9" d=" M67.66500091552734,0 C67.66500091552734,36.606998443603516 37.37099838256836,66.28399658203125 0,66.28399658203125 C-37.37099838256836,66.28399658203125 -67.66500091552734,36.606998443603516 -67.66500091552734,0 C-67.66500091552734,-36.608001708984375 -37.37099838256836,-66.28399658203125 0,-66.28399658203125 C37.37099838256836,-66.28399658203125 67.66500091552734,-36.608001708984375 67.66500091552734,0z"/></g><g opacity="1" transform="matrix(1,0,0,1,132.93899536132812,76.17500305175781)"><path fill="rgb(212,128,70)" fill-opacity="1" d=" M23.889999389648438,13.89799976348877 C23.889999389648438,17.1200008392334 23.05299949645996,20.156999588012695 21.3799991607666,23.006000518798828 C19.768999099731445,25.795000076293945 17.351999282836914,28.1200008392334 14.128999710083008,29.979000091552734 C10.968999862670898,31.775999069213867 7.21999979019165,32.82899856567383 2.881999969482422,33.13800048828125 C2.881999969482422,33.13800048828125 2.881999969482422,40.66699981689453 2.881999969482422,40.66699981689453 C2.881999969482422,40.66699981689453 -3.066999912261963,40.66699981689453 -3.066999912261963,40.66699981689453 C-3.066999912261963,40.66699981689453 -3.066999912261963,33.04499816894531 -3.066999912261963,33.04499816894531 C-9.263999938964844,32.48899841308594 -14.251999855041504,30.628000259399414 -18.033000946044922,27.468000411987305 C-21.812999725341797,24.246999740600586 -23.764999389648438,19.909000396728516 -23.888999938964844,14.456000328063965 C-23.888999938964844,14.456000328063965 -9.946000099182129,14.456000328063965 -9.946000099182129,14.456000328063965 C-9.574000358581543,18.916000366210938 -7.281000137329102,21.613000869750977 -3.066999912261963,22.54199981689453 C-3.066999912261963,22.54199981689453 -3.066999912261963,4.788000106811523 -3.066999912261963,4.788000106811523 C-7.5289998054504395,3.671999931335449 -11.123000144958496,2.555999994277954 -13.850000381469727,1.4420000314712524 C-16.576000213623047,0.3269999921321869 -18.930999755859375,-1.4700000286102295 -20.913999557495117,-3.950000047683716 C-22.89699935913086,-6.427999973297119 -23.888999938964844,-9.805000305175781 -23.888999938964844,-14.081999778747559 C-23.888999938964844,-19.472999572753906 -21.968000411987305,-23.87299919128418 -18.125999450683594,-27.281999588012695 C-14.220999717712402,-30.690000534057617 -9.20199966430664,-32.64099884033203 -3.066999912261963,-33.137001037597656 C-3.066999912261963,-33.137001037597656 -3.066999912261963,-40.66699981689453 -3.066999912261963,-40.66699981689453 C-3.066999912261963,-40.66699981689453 2.881999969482422,-40.66699981689453 2.881999969482422,-40.66699981689453 C2.881999969482422,-40.66699981689453 2.881999969482422,-33.137001037597656 2.881999969482422,-33.137001037597656 C8.831000328063965,-32.64099884033203 13.571999549865723,-30.8439998626709 17.104000091552734,-27.746000289916992 C20.697999954223633,-24.648000717163086 22.711999893188477,-20.371999740600586 23.145999908447266,-14.918999671936035 C23.145999908447266,-14.918999671936035 9.109999656677246,-14.918999671936035 9.109999656677246,-14.918999671936035 C8.923999786376953,-16.71500015258789 8.27299976348877,-18.263999938964844 7.1579999923706055,-19.56599998474121 C6.104000091552734,-20.929000854492188 4.678999900817871,-21.888999938964844 2.881999969482422,-22.447999954223633 C2.881999969482422,-22.447999954223633 2.881999969482422,-4.879000186920166 2.881999969482422,-4.879000186920166 C7.53000020980835,-3.7019999027252197 11.185999870300293,-2.555000066757202 13.85099983215332,-1.440999984741211 C16.57699966430664,-0.38600000739097595 18.93199920654297,1.378999948501587 20.915000915527344,3.8589999675750732 C22.898000717163086,6.276000022888184 23.889999389648438,9.621999740600586 23.889999389648438,13.89799976348877z M-10.317000389099121,-14.732999801635742 C-10.317000389099121,-12.687000274658203 -9.697999954223633,-11.013999938964844 -8.458000183105469,-9.711999893188477 C-7.218999862670898,-8.472999572753906 -5.421999931335449,-7.452000141143799 -3.066999912261963,-6.644999980926514 C-3.066999912261963,-6.644999980926514 -3.066999912261963,-22.72599983215332 -3.066999912261963,-22.72599983215332 C-5.297999858856201,-22.41699981689453 -7.064000129699707,-21.579999923706055 -8.364999771118164,-20.215999603271484 C-9.666999816894531,-18.85300064086914 -10.317000389099121,-17.025999069213867 -10.317000389099121,-14.732999801635742z M2.881999969482422,22.726999282836914 C5.236999988555908,22.29400062561035 7.065000057220459,21.33300018310547 8.366000175476074,19.84600067138672 C9.729999542236328,18.360000610351562 10.41100025177002,16.562999725341797 10.41100025177002,14.456000328063965 C10.41100025177002,12.41100025177002 9.76099967956543,10.767000198364258 8.458999633789062,9.529000282287598 C7.1579999923706055,8.288999557495117 5.298999786376953,7.265999794006348 2.881999969482422,6.460999965667725 C2.881999969482422,6.460999965667725 2.881999969482422,22.726999282836914 2.881999969482422,22.726999282836914z"/></g></g></g><g transform="matrix(0.699999988079071,0,0,0.699999988079071,59.9906005859375,295.97747802734375)" opacity="1" style="display: block;"><g opacity="1" transform="matrix(1,0,0,1,0,0)"><g opacity="1" transform="matrix(1,0,0,1,46.992000579833984,84.01499938964844)"><path fill="rgb(235,172,82)" fill-opacity="1" d=" M36.992000579833984,0 C36.992000579833984,20.01300048828125 20.43000030517578,36.236000061035156 0,36.236000061035156 C-20.43000030517578,36.236000061035156 -36.992000579833984,20.01300048828125 -36.992000579833984,0 C-36.992000579833984,-20.01300048828125 -20.43000030517578,-36.236000061035156 0,-36.236000061035156 C20.43000030517578,-36.236000061035156 36.992000579833984,-20.01300048828125 36.992000579833984,0z"/><path stroke-linecap="butt" stroke-linejoin="miter" fill-opacity="0" stroke-miterlimit="10" stroke="rgb(41,24,61)" stroke-opacity="1" stroke-width="6" d=" M36.992000579833984,0 C36.992000579833984,20.01300048828125 20.43000030517578,36.236000061035156 0,36.236000061035156 C-20.43000030517578,36.236000061035156 -36.992000579833984,20.01300048828125 -36.992000579833984,0 C-36.992000579833984,-20.01300048828125 -20.43000030517578,-36.236000061035156 0,-36.236000061035156 C20.43000030517578,-36.236000061035156 36.992000579833984,-20.01300048828125 36.992000579833984,0z"/></g><g opacity="1" transform="matrix(1,0,0,1,46.689998626708984,83.95600128173828)"><path fill="rgb(212,128,70)" fill-opacity="1" d=" M13.0600004196167,7.5970001220703125 C13.0600004196167,9.359000205993652 12.60200023651123,11.019000053405762 11.687000274658203,12.576000213623047 C10.807000160217285,14.10200023651123 9.486000061035156,15.371999740600586 7.7230000495910645,16.38800048828125 C5.995999813079834,17.3700008392334 3.947000026702881,17.945999145507812 1.5750000476837158,18.114999771118164 C1.5750000476837158,18.114999771118164 1.5750000476837158,22.23200035095215 1.5750000476837158,22.23200035095215 C1.5750000476837158,22.23200035095215 -1.6770000457763672,22.23200035095215 -1.6770000457763672,22.23200035095215 C-1.6770000457763672,22.23200035095215 -1.6770000457763672,18.065000534057617 -1.6770000457763672,18.065000534057617 C-5.065000057220459,17.76099967956543 -7.791999816894531,16.743000030517578 -9.859000205993652,15.015999794006348 C-11.925000190734863,13.255000114440918 -12.993000030517578,10.883000373840332 -13.0600004196167,7.9029998779296875 C-13.0600004196167,7.9029998779296875 -5.438000202178955,7.9029998779296875 -5.438000202178955,7.9029998779296875 C-5.235000133514404,10.340999603271484 -3.9809999465942383,11.8149995803833 -1.6770000457763672,12.322999954223633 C-1.6770000457763672,12.322999954223633 -1.6770000457763672,2.615999937057495 -1.6770000457763672,2.615999937057495 C-4.117000102996826,2.006999969482422 -6.080999851226807,1.3969999551773071 -7.572000026702881,0.7870000004768372 C-9.062999725341797,0.17800000309944153 -10.350000381469727,-0.8050000071525574 -11.434000015258789,-2.1600000858306885 C-12.517999649047852,-3.5139999389648438 -13.0600004196167,-5.361000061035156 -13.0600004196167,-7.698999881744385 C-13.0600004196167,-10.645999908447266 -12.010000228881836,-13.052000045776367 -9.90999984741211,-14.914999961853027 C-7.775000095367432,-16.777999877929688 -5.031000137329102,-17.84600067138672 -1.6770000457763672,-18.115999221801758 C-1.6770000457763672,-18.115999221801758 -1.6770000457763672,-22.23200035095215 -1.6770000457763672,-22.23200035095215 C-1.6770000457763672,-22.23200035095215 1.5750000476837158,-22.23200035095215 1.5750000476837158,-22.23200035095215 C1.5750000476837158,-22.23200035095215 1.5750000476837158,-18.115999221801758 1.5750000476837158,-18.115999221801758 C4.827000141143799,-17.84600067138672 7.419000148773193,-16.863000869750977 9.350000381469727,-15.168999671936035 C11.3149995803833,-13.475000381469727 12.416000366210938,-11.137999534606934 12.652999877929688,-8.156000137329102 C12.652999877929688,-8.156000137329102 4.980000019073486,-8.156000137329102 4.980000019073486,-8.156000137329102 C4.877999782562256,-9.137999534606934 4.521999835968018,-9.984999656677246 3.9119999408721924,-10.696999549865723 C3.3359999656677246,-11.442000389099121 2.556999921798706,-11.968000411987305 1.5750000476837158,-12.272000312805176 C1.5750000476837158,-12.272000312805176 1.5750000476837158,-2.6679999828338623 1.5750000476837158,-2.6679999828338623 C4.116000175476074,-2.0239999294281006 6.114999771118164,-1.3969999551773071 7.572000026702881,-0.7879999876022339 C9.062000274658203,-0.21199999749660492 10.348999977111816,0.7540000081062317 11.432999610900879,2.1089999675750732 C12.517000198364258,3.430000066757202 13.0600004196167,5.258999824523926 13.0600004196167,7.5970001220703125z M-5.640999794006348,-8.055000305175781 C-5.640999794006348,-6.935999870300293 -5.302000045776367,-6.021999835968018 -4.625,-5.309999942779541 C-3.947000026702881,-4.632999897003174 -2.9649999141693115,-4.073999881744385 -1.6770000457763672,-3.634000062942505 C-1.6770000457763672,-3.634000062942505 -1.6770000457763672,-12.425000190734863 -1.6770000457763672,-12.425000190734863 C-2.8970000743865967,-12.255999565124512 -3.861999988555908,-11.79800033569336 -4.573999881744385,-11.053000450134277 C-5.284999847412109,-10.307000160217285 -5.640999794006348,-9.307999610900879 -5.640999794006348,-8.055000305175781z M1.5750000476837158,12.423999786376953 C2.861999988555908,12.187999725341797 3.861999988555908,11.661999702453613 4.572999954223633,10.848999977111816 C5.318999767303467,10.03600025177002 5.690999984741211,9.053999900817871 5.690999984741211,7.9029998779296875 C5.690999984741211,6.783999919891357 5.335999965667725,5.886000156402588 4.624000072479248,5.208000183105469 C3.9119999408721924,4.531000137329102 2.8959999084472656,3.9719998836517334 1.5750000476837158,3.5309998989105225 C1.5750000476837158,3.5309998989105225 1.5750000476837158,12.423999786376953 1.5750000476837158,12.423999786376953z"/></g></g></g><g transform="matrix(1,0,0,1,14.595993041992188,317.2340087890625)" opacity="1" style="display: block;"><g opacity="1" transform="matrix(1,0,0,1,0,0)"><path stroke-linecap="round" stroke-linejoin="round" fill-opacity="0" stroke="rgb(41,24,61)" stroke-opacity="1" stroke-width="3.807" d=" M208.30499267578125,11.065999984741211 C208.30499267578125,11.065999984741211 1.9040000438690186,11.065999984741211 1.9040000438690186,11.065999984741211"/></g><g opacity="1" transform="matrix(1,0,0,1,0,0)"><path stroke-linecap="round" stroke-linejoin="round" fill-opacity="0" stroke="rgb(41,24,61)" stroke-opacity="1" stroke-width="3.807" d=" M30.976999282836914,10.95199966430664 C30.976999282836914,10.95199966430664 455.47198486328125,10.95199966430664 455.47198486328125,10.95199966430664"/></g></g><g transform="matrix(1,0,0,1,392.49700927734375,293.5679931640625)" opacity="1" style="display: block;"><g opacity="1" transform="matrix(1,0,0,1,18.3799991607666,26.992000579833984)"><path stroke-linecap="round" stroke-linejoin="round" fill-opacity="0" stroke="rgb(41,24,61)" stroke-opacity="1" stroke-width="3.807" d=" M3.134999990463257,6.839000225067139 C3.134999990463257,6.839000225067139 -3.134999990463257,-6.839000225067139 -3.134999990463257,-6.839000225067139"/></g></g><g transform="matrix(1,0,0,1,392.49700927734375,293.5690002441406)" opacity="1" style="display: block;"><g opacity="1" transform="matrix(1,0,0,1,6.928999900817871,25.996000289916992)"><path stroke-linecap="round" stroke-linejoin="round" fill-opacity="0" stroke="rgb(41,24,61)" stroke-opacity="1" stroke-width="3.807" d=" M5.025000095367432,5.598999977111816 C5.025000095367432,5.598999977111816 -5.025000095367432,-5.598999977111816 -5.025000095367432,-5.598999977111816"/></g></g></g></svg>