<svg xmlns="http://www.w3.org/2000/svg" viewBox="0 0 500 500" width="500" height="500" preserveAspectRatio="xMidYMid meet" style="width: 100%; height: 100%; transform: translate3d(0px, 0px, 0px);"><defs><clipPath id="__lottie_element_654"><rect width="500" height="500" x="0" y="0"/></clipPath></defs><g clip-path="url(#__lottie_element_654)"><g transform="matrix(1,0,0,1,223.02598571777344,440.35797119140625)" opacity="0.51" style="display: block;"><g opacity="1" transform="matrix(1,0,0,1,119.61000061035156,20.389999389648438)"><path fill="rgb(148,146,197)" fill-opacity="1" d=" M-0.0010000000474974513,-20.391000747680664 C66.05899810791016,-20.391000747680664 119.61000061035156,-11.26099967956543 119.61000061035156,0 C119.61000061035156,11.26099967956543 66.05899810791016,20.389999389648438 -0.0010000000474974513,20.389999389648438 C-66.05999755859375,20.389999389648438 -119.61100006103516,11.26099967956543 -119.61100006103516,0 C-119.61100006103516,-11.26099967956543 -66.05999755859375,-20.391000747680664 -0.0010000000474974513,-20.391000747680664z"/></g></g><g transform="matrix(1,0,0,1,250.00001525878906,250)" opacity="1" style="display: block;"><g opacity="1" transform="matrix(1,0,0,1,0,0)"><path stroke-linecap="butt" stroke-linejoin="miter" fill-opacity="0" stroke-miterlimit="4" stroke="rgb(39,24,60)" stroke-opacity="1" stroke-width="24" d=" M121.5,67 C121.5,67 118,110 131,140.5 C140.93899536132812,163.8179931640625 153.5,184.5 161.5,197.5"/></g><g opacity="1" transform="matrix(1,0,0,1,0,0)"><path stroke-linecap="butt" stroke-linejoin="miter" fill-opacity="0" stroke-miterlimit="4" stroke="rgb(88,88,86)" stroke-opacity="1" stroke-width="17" d=" M121.5,67 C121.5,67 118,110 131,140.5 C140.93899536132812,163.8179931640625 153.5,184.5 161.5,197.5"/></g></g><g transform="matrix(1,0,0,1,200.00001525878906,250)" opacity="1" style="display: block;"><g opacity="1" transform="matrix(1,0,0,1,0,0)"><path stroke-linecap="butt" stroke-linejoin="miter" fill-opacity="0" stroke-miterlimit="4" stroke="rgb(39,24,60)" stroke-opacity="1" stroke-width="24" d=" M116,64 C116,64 112,192 112,192"/></g><g opacity="1" transform="matrix(1,0,0,1,0,0)"><path stroke-linecap="butt" stroke-linejoin="miter" fill-opacity="0" stroke-miterlimit="4" stroke="rgb(88,88,86)" stroke-opacity="1" stroke-width="17" d=" M116,64 C116,64 112,192 112,192"/></g></g><g transform="matrix(1,0,0,1,269.5710144042969,298.7130126953125)" opacity="1" style="display: block;"><g opacity="1" transform="matrix(1,0,0,1,31.920000076293945,151.572998046875)"><path fill="rgb(66,41,23)" fill-opacity="1" d=" M0.5440000295639038,-9.96399974822998 C0.5440000295639038,-9.96399974822998 -1.7580000162124634,-9.567000389099121 -1.7580000162124634,-9.567000389099121 C-5.354000091552734,-9.010000228881836 -11.612000465393066,-8.236000061035156 -14.831000328063965,-6.474999904632568 C-21.700000762939453,-2.7160000801086426 -24.270999908447266,6.489999771118164 -20.22599983215332,12.765999794006348 C-19.99799919128418,13.187999725341797 -19.655000686645508,13.53600025177002 -19.236000061035156,13.770999908447266 C-18.763999938964844,13.934000015258789 -18.260000228881836,13.991000175476074 -17.761999130249023,13.934000015258789 C-17.761999130249023,13.934000015258789 12.555000305175781,12.47700023651123 12.555000305175781,12.47700023651123 C15.82699966430664,12.333999633789062 19.476999282836914,12.027999877929688 21.742000579833984,9.781000137329102 C23.493999481201172,7.73799991607666 24.270999908447266,5.0320000648498535 23.864999771118164,2.371999979019165 C23.416000366210938,-3.885999917984009 23.27199935913086,-9.836999893188477 18.2549991607666,-13.989999771118164 C18.2549991607666,-13.989999771118164 0.5440000295639038,-9.96399974822998 0.5440000295639038,-9.96399974822998z"/></g><g opacity="1" transform="matrix(1,0,0,1,31.920000076293945,151.572998046875)"><path stroke-linecap="butt" stroke-linejoin="miter" fill-opacity="0" stroke-miterlimit="10" stroke="rgb(39,23,59)" stroke-opacity="1" stroke-width="3.06" d=" M0.5440000295639038,-9.96399974822998 C0.5440000295639038,-9.96399974822998 -1.7580000162124634,-9.567000389099121 -1.7580000162124634,-9.567000389099121 C-5.354000091552734,-9.010000228881836 -11.612000465393066,-8.236000061035156 -14.831000328063965,-6.474999904632568 C-21.700000762939453,-2.7160000801086426 -24.270999908447266,6.489999771118164 -20.22599983215332,12.765999794006348 C-19.99799919128418,13.187999725341797 -19.655000686645508,13.53600025177002 -19.236000061035156,13.770999908447266 C-18.763999938964844,13.934000015258789 -18.260000228881836,13.991000175476074 -17.761999130249023,13.934000015258789 C-17.761999130249023,13.934000015258789 12.555000305175781,12.47700023651123 12.555000305175781,12.47700023651123 C15.82699966430664,12.333999633789062 19.476999282836914,12.027999877929688 21.742000579833984,9.781000137329102 C23.493999481201172,7.73799991607666 24.270999908447266,5.0320000648498535 23.864999771118164,2.371999979019165 C23.416000366210938,-3.885999917984009 23.27199935913086,-9.836999893188477 18.2549991607666,-13.989999771118164 C18.2549991607666,-13.989999771118164 0.5440000295639038,-9.96399974822998 0.5440000295639038,-9.96399974822998z"/></g><g opacity="1" transform="matrix(1,0,0,1,126.91799926757812,148.88499450683594)"><path fill="rgb(66,41,23)" fill-opacity="1" d=" M18.898000717163086,-14.413999557495117 C21.00200080871582,-9.73900032043457 22.961000442504883,-6.01800012588501 24.41900062561035,-3.3919999599456787 C26.86400032043457,0.9950000047683716 28.28499984741211,2.9739999771118164 27.726999282836914,5.436999797821045 C27.025999069213867,8.529000282287598 23.663999557495117,10.220000267028809 22.207000732421875,10.939000129699707 C11.11299991607666,16.4950008392334 -21.415000915527344,12.64799976348877 -26.341999053955078,12.03600025177002 C-26.91699981689453,9.571999549865723 -28.28499984741211,2.0920000076293945 -24.1299991607666,-4.488999843597412 C-19.976999282836914,-11.069999694824219 -13.12600040435791,-12.725000381469727 -6.508999824523926,-14.413999557495117 C1.8329999446868896,-16.4950008392334 10.557000160217285,-16.4950008392334 18.898000717163086,-14.413999557495117z"/></g><g opacity="1" transform="matrix(1,0,0,1,126.91799926757812,148.88499450683594)"><path stroke-linecap="butt" stroke-linejoin="miter" fill-opacity="0" stroke-miterlimit="10" stroke="rgb(39,23,59)" stroke-opacity="1" stroke-width="3.06" d=" M18.898000717163086,-14.413999557495117 C21.00200080871582,-9.73900032043457 22.961000442504883,-6.01800012588501 24.41900062561035,-3.3919999599456787 C26.86400032043457,0.9950000047683716 28.28499984741211,2.9739999771118164 27.726999282836914,5.436999797821045 C27.025999069213867,8.529000282287598 23.663999557495117,10.220000267028809 22.207000732421875,10.939000129699707 C11.11299991607666,16.4950008392334 -21.415000915527344,12.64799976348877 -26.341999053955078,12.03600025177002 C-26.91699981689453,9.571999549865723 -28.28499984741211,2.0920000076293945 -24.1299991607666,-4.488999843597412 C-19.976999282836914,-11.069999694824219 -13.12600040435791,-12.725000381469727 -6.508999824523926,-14.413999557495117 C1.8329999446868896,-16.4950008392334 10.557000160217285,-16.4950008392334 18.898000717163086,-14.413999557495117z"/></g></g><g transform="matrix(1,0,0,1,41.14800262451172,94.22400665283203)" opacity="1" style="display: block;"><g opacity="1" transform="matrix(1,0,0,1,26.60099983215332,41.722999572753906)"><path fill="rgb(87,64,145)" fill-opacity="1" d=" M25.020999908447266,-12.289999961853027 C25.020999908447266,-12.289999961853027 -18.134000778198242,-40.143001556396484 -18.134000778198242,-40.143001556396484 C-18.134000778198242,-40.143001556396484 -25.020999908447266,10.204000473022461 -25.020999908447266,10.204000473022461 C-25.020999908447266,10.204000473022461 17.917999267578125,40.143001556396484 17.917999267578125,40.143001556396484 C17.917999267578125,40.143001556396484 25.020999908447266,-12.289999961853027 25.020999908447266,-12.289999961853027z"/></g><g opacity="1" transform="matrix(1,0,0,1,42.244998931884766,55.36199951171875)"><path fill="rgb(155,132,187)" fill-opacity="1" d=" M-8.87399959564209,-0.46799999475479126 C-8.87399959564209,-0.46799999475479126 8.87399959564209,-24.940000534057617 8.87399959564209,-24.940000534057617 C8.87399959564209,-24.940000534057617 1.968999981880188,24.940000534057617 1.968999981880188,24.940000534057617 C1.968999981880188,24.940000534057617 -8.87399959564209,-0.46799999475479126 -8.87399959564209,-0.46799999475479126z"/></g><g opacity="1" transform="matrix(1,0,0,1,29.00200080871582,16.018999099731445)"><path fill="rgb(155,132,187)" fill-opacity="1" d=" M-8.6850004196167,11.32800006866455 C-8.6850004196167,11.32800006866455 21.48699951171875,13.12600040435791 21.48699951171875,13.12600040435791 C21.48699951171875,13.12600040435791 -21.48699951171875,-13.12600040435791 -21.48699951171875,-13.12600040435791 C-21.48699951171875,-13.12600040435791 -8.6850004196167,11.32800006866455 -8.6850004196167,11.32800006866455z"/></g><g opacity="1" transform="matrix(1,0,0,1,26.60099983215332,41.722999572753906)"><path stroke-linecap="round" stroke-linejoin="round" fill-opacity="0" stroke="rgb(40,24,60)" stroke-opacity="1" stroke-width="1.58" d=" M25.020999908447266,-12.289999961853027 C25.020999908447266,-12.289999961853027 -18.134000778198242,-40.143001556396484 -18.134000778198242,-40.143001556396484 C-18.134000778198242,-40.143001556396484 -25.020999908447266,10.204000473022461 -25.020999908447266,10.204000473022461 C-25.020999908447266,10.204000473022461 17.917999267578125,40.143001556396484 17.917999267578125,40.143001556396484 C17.917999267578125,40.143001556396484 25.020999908447266,-12.289999961853027 25.020999908447266,-12.289999961853027z"/></g><g opacity="1" transform="matrix(1,0,0,1,26.645999908447266,41.01300048828125)"><path stroke-linecap="round" stroke-linejoin="round" fill-opacity="0" stroke="rgb(40,24,60)" stroke-opacity="1" stroke-width="1.58" d=" M5.934000015258789,13.82699966430664 C5.934000015258789,13.82699966430664 23.23200035095215,-10.571999549865723 23.23200035095215,-10.571999549865723 C23.23200035095215,-10.571999549865723 -6.86899995803833,-13.82699966430664 -6.86899995803833,-13.82699966430664 C-6.86899995803833,-13.82699966430664 -23.23200035095215,10.303999900817871 -23.23200035095215,10.303999900817871 C-23.23200035095215,10.303999900817871 5.934000015258789,13.82699966430664 5.934000015258789,13.82699966430664z"/></g><g opacity="1" transform="matrix(1,0,0,1,26.575000762939453,41.8849983215332)"><path stroke-linecap="round" stroke-linejoin="round" fill-opacity="0" stroke="rgb(40,24,60)" stroke-opacity="1" stroke-width="1.58" d=" M17.981000900268555,39.98099899291992 C17.981000900268555,39.98099899291992 -17.981000900268555,-39.98099899291992 -17.981000900268555,-39.98099899291992"/></g></g><g transform="matrix(1,0,0,1,241.83599853515625,63.180999755859375)" opacity="1" style="display: block;"><g opacity="1" transform="matrix(1,0,0,1,113.08300018310547,171.7519989013672)"><path fill="rgb(250,196,33)" fill-opacity="1" d=" M-67.9219970703125,-67.9209976196289 C-30.409000396728516,-105.43299865722656 30.409000396728516,-105.43299865722656 67.9209976196289,-67.9209976196289 C105.43199920654297,-30.409000396728516 105.43199920654297,30.409000396728516 67.9209976196289,67.9219970703125 C30.409000396728516,105.43299865722656 -30.409000396728516,105.43299865722656 -67.9219970703125,67.9219970703125 C-105.43299865722656,30.409000396728516 -105.43299865722656,-30.409000396728516 -67.9219970703125,-67.9209976196289z"/></g><g opacity="1" transform="matrix(1,0,0,1,113.08300018310547,171.7519989013672)"><path stroke-linecap="butt" stroke-linejoin="miter" fill-opacity="0" stroke-miterlimit="10" stroke="rgb(39,23,59)" stroke-opacity="1" stroke-width="3.06" d=" M-67.9219970703125,-67.9209976196289 C-30.409000396728516,-105.43299865722656 30.409000396728516,-105.43299865722656 67.9209976196289,-67.9209976196289 C105.43199920654297,-30.409000396728516 105.43199920654297,30.409000396728516 67.9209976196289,67.9219970703125 C30.409000396728516,105.43299865722656 -30.409000396728516,105.43299865722656 -67.9219970703125,67.9219970703125 C-105.43299865722656,30.409000396728516 -105.43299865722656,-30.409000396728516 -67.9219970703125,-67.9209976196289z"/></g><g opacity="1" transform="matrix(1,0,0,1,155.36099243164062,211.97500610351562)"><path fill="rgb(87,87,85)" fill-opacity="1" d=" M52.40800094604492,-56.45199966430664 C61.35900115966797,-4.1519999504089355 26.2189998626709,45.5 -26.08099937438965,54.45100021362305 C-37.77299880981445,56.45199966430664 -49.733001708984375,56.270999908447266 -61.35900115966797,53.91600036621094 C-61.35900115966797,53.91600036621094 -57.20399856567383,33.45399856567383 -57.20399856567383,33.45399856567383 C-57.20399856567383,33.45399856567383 52.40800094604492,-56.45199966430664 52.40800094604492,-56.45199966430664z"/></g><g opacity="1" transform="matrix(1,0,0,1,155.36099243164062,211.97500610351562)"><path stroke-linecap="round" stroke-linejoin="round" fill-opacity="0" stroke="rgb(39,23,59)" stroke-opacity="1" stroke-width="1.98" d=" M52.40800094604492,-56.45199966430664 C61.35900115966797,-4.1519999504089355 26.2189998626709,45.5 -26.08099937438965,54.45100021362305 C-37.77299880981445,56.45199966430664 -49.733001708984375,56.270999908447266 -61.35900115966797,53.91600036621094 C-61.35900115966797,53.91600036621094 -57.20399856567383,33.45399856567383 -57.20399856567383,33.45399856567383 C-57.20399856567383,33.45399856567383 52.40800094604492,-56.45199966430664 52.40800094604492,-56.45199966430664z"/></g><g opacity="1" transform="matrix(1,0,0,1,157.0989990234375,200.4759979248047)"><path fill="rgb(87,87,85)" fill-opacity="1" d=" M50.68899917602539,-44.952999114990234 C50.68899917602539,-44.952999114990234 -58.959999084472656,44.952999114990234 -58.959999084472656,44.952999114990234 C-58.959999084472656,44.952999114990234 30.496000289916992,-0.09000000357627869 30.496000289916992,-0.09000000357627869 C30.496000289916992,-0.09000000357627869 34.487998962402344,-17.351999282836914 34.487998962402344,-17.351999282836914 C34.487998962402344,-17.351999282836914 58.959999084472656,-13.395999908447266 58.959999084472656,-13.395999908447266 C58.959999084472656,-13.395999908447266 50.68899917602539,-44.952999114990234 50.68899917602539,-44.952999114990234z"/></g><g opacity="1" transform="matrix(1,0,0,1,157.0989990234375,200.4759979248047)"><path stroke-linecap="round" stroke-linejoin="round" fill-opacity="0" stroke="rgb(39,23,59)" stroke-opacity="1" stroke-width="1.98" d=" M50.68899917602539,-44.952999114990234 C50.68899917602539,-44.952999114990234 -58.959999084472656,44.952999114990234 -58.959999084472656,44.952999114990234 C-58.959999084472656,44.952999114990234 30.496000289916992,-0.09000000357627869 30.496000289916992,-0.09000000357627869 C30.496000289916992,-0.09000000357627869 34.487998962402344,-17.351999282836914 34.487998962402344,-17.351999282836914 C34.487998962402344,-17.351999282836914 58.959999084472656,-13.395999908447266 58.959999084472656,-13.395999908447266 C58.959999084472656,-13.395999908447266 50.68899917602539,-44.952999114990234 50.68899917602539,-44.952999114990234z"/></g><g opacity="1" transform="matrix(1,0,0,1,50.86399841308594,192.9149932861328)"><path fill="rgb(87,87,85)" fill-opacity="1" d=" M-18.68000030517578,-72.97599792480469 C-47.292999267578125,-28.304000854492188 -34.2760009765625,31.104999542236328 10.395999908447266,59.71799850463867 C20.39699935913086,66.1240005493164 31.499000549316406,70.61900329589844 43.138999938964844,72.97699737548828 C43.138999938964844,72.97699737548828 47.292999267578125,52.51499938964844 47.292999267578125,52.51499938964844 C47.292999267578125,52.51499938964844 -18.68000030517578,-72.97599792480469 -18.68000030517578,-72.97599792480469z"/></g><g opacity="1" transform="matrix(1,0,0,1,50.86399841308594,192.9149932861328)"><path stroke-linecap="round" stroke-linejoin="round" fill-opacity="0" stroke="rgb(39,23,59)" stroke-opacity="1" stroke-width="1.98" d=" M-18.68000030517578,-72.97599792480469 C-47.292999267578125,-28.304000854492188 -34.2760009765625,31.104999542236328 10.395999908447266,59.71799850463867 C20.39699935913086,66.1240005493164 31.499000549316406,70.61900329589844 43.138999938964844,72.97699737548828 C43.138999938964844,72.97699737548828 47.292999267578125,52.51499938964844 47.292999267578125,52.51499938964844 C47.292999267578125,52.51499938964844 -18.68000030517578,-72.97599792480469 -18.68000030517578,-72.97599792480469z"/></g><g opacity="1" transform="matrix(1,0,0,1,119.97699737548828,182.6750030517578)"><path fill="rgb(255,255,255)" fill-opacity="1" d=" M-44.566001892089844,-14.852999687194824 C-44.566001892089844,-14.852999687194824 -8.17199993133545,-4.639999866485596 -8.17199993133545,-4.639999866485596 C-8.17199993133545,-4.639999866485596 29.31800079345703,0.12600000202655792 29.31800079345703,0.12600000202655792 C29.31800079345703,0.12600000202655792 87.81099700927734,-27.152000427246094 87.81099700927734,-27.152000427246094 C87.81099700927734,-27.152000427246094 -21.83799934387207,62.75400161743164 -21.83799934387207,62.75400161743164 C-21.83799934387207,62.75400161743164 -87.81099700927734,-62.755001068115234 -87.81099700927734,-62.755001068115234 C-87.81099700927734,-62.755001068115234 -44.566001892089844,-14.852999687194824 -44.566001892089844,-14.852999687194824z"/></g><g opacity="1" transform="matrix(1,0,0,1,119.97699737548828,182.6750030517578)"><path stroke-linecap="round" stroke-linejoin="round" fill-opacity="0" stroke="rgb(41,37,91)" stroke-opacity="1" stroke-width="1.98" d=" M-44.566001892089844,-14.852999687194824 C-44.566001892089844,-14.852999687194824 -8.17199993133545,-4.639999866485596 -8.17199993133545,-4.639999866485596 C-8.17199993133545,-4.639999866485596 29.31800079345703,0.12600000202655792 29.31800079345703,0.12600000202655792 C29.31800079345703,0.12600000202655792 87.81099700927734,-27.152000427246094 87.81099700927734,-27.152000427246094 C87.81099700927734,-27.152000427246094 -21.83799934387207,62.75400161743164 -21.83799934387207,62.75400161743164 C-21.83799934387207,62.75400161743164 -87.81099700927734,-62.755001068115234 -87.81099700927734,-62.755001068115234 C-87.81099700927734,-62.755001068115234 -44.566001892089844,-14.852999687194824 -44.566001892089844,-14.852999687194824z"/></g><g opacity="1" transform="matrix(1,0,0,1,55.20000076293945,182.6750030517578)"><path fill="rgb(87,87,85)" fill-opacity="1" d=" M-23.034000396728516,-62.755001068115234 C-23.034000396728516,-62.755001068115234 42.9379997253418,62.755001068115234 42.9379997253418,62.755001068115234 C42.9379997253418,62.755001068115234 -21.91900062561035,-13.557999610900879 -21.91900062561035,-13.557999610900879 C-21.91900062561035,-13.557999610900879 -18.86199951171875,-31.01799964904785 -18.86199951171875,-31.01799964904785 C-18.86199951171875,-31.01799964904785 -42.9379997253418,-36.89699935913086 -42.9379997253418,-36.89699935913086 C-42.9379997253418,-36.89699935913086 -23.034000396728516,-62.755001068115234 -23.034000396728516,-62.755001068115234z"/></g><g opacity="1" transform="matrix(1,0,0,1,55.20000076293945,182.6750030517578)"><path stroke-linecap="round" stroke-linejoin="round" fill-opacity="0" stroke="rgb(39,23,59)" stroke-opacity="1" stroke-width="1.98" d=" M-23.034000396728516,-62.755001068115234 C-23.034000396728516,-62.755001068115234 42.9379997253418,62.755001068115234 42.9379997253418,62.755001068115234 C42.9379997253418,62.755001068115234 -21.91900062561035,-13.557999610900879 -21.91900062561035,-13.557999610900879 C-21.91900062561035,-13.557999610900879 -18.86199951171875,-31.01799964904785 -18.86199951171875,-31.01799964904785 C-18.86199951171875,-31.01799964904785 -42.9379997253418,-36.89699935913086 -42.9379997253418,-36.89699935913086 C-42.9379997253418,-36.89699935913086 -23.034000396728516,-62.755001068115234 -23.034000396728516,-62.755001068115234z"/></g><g opacity="1" transform="matrix(1,0,0,1,109.62999725341797,190.343994140625)"><path fill="rgb(13,121,189)" fill-opacity="1" d=" M2.174999952316284,-12.289999961853027 C2.174999952316284,-12.289999961853027 10.392999649047852,-4.77400016784668 13.970999717712402,1.3220000267028809 C11.112000465393066,7.309000015258789 3.7760000228881836,12.289999961853027 -2.5360000133514404,11.012999534606934 C-8.847000122070312,9.737000465393066 -13.666999816894531,2.2929999828338623 -13.970999717712402,-4.3429999351501465 C-8.236000061035156,-8.586000442504883 2.174999952316284,-12.289999961853027 2.174999952316284,-12.289999961853027z"/></g><g opacity="1" transform="matrix(1,0,0,1,109.62999725341797,190.343994140625)"><path stroke-linecap="round" stroke-linejoin="round" fill-opacity="0" stroke="rgb(39,23,59)" stroke-opacity="1" stroke-width="1.98" d=" M2.174999952316284,-12.289999961853027 C2.174999952316284,-12.289999961853027 10.392999649047852,-4.77400016784668 13.970999717712402,1.3220000267028809 C11.112000465393066,7.309000015258789 3.7760000228881836,12.289999961853027 -2.5360000133514404,11.012999534606934 C-8.847000122070312,9.737000465393066 -13.666999816894531,2.2929999828338623 -13.970999717712402,-4.3429999351501465 C-8.236000061035156,-8.586000442504883 2.174999952316284,-12.289999961853027 2.174999952316284,-12.289999961853027z"/></g><g opacity="1" transform="matrix(1,0,0,1,101.95099639892578,222.5760040283203)"><path fill="rgb(13,121,189)" fill-opacity="1" d=" M1.2410000562667847,-22.854000091552734 C2.4100000858306885,-22.089000701904297 3.7070000171661377,-21.541000366210938 5.070000171661377,-21.236000061035156 C6.443999767303467,-20.993000030517578 7.849999904632568,-20.993000030517578 9.223999977111816,-21.236000061035156 C12.657999992370605,-10.555000305175781 10.753000259399414,10.859999656677246 10.753000259399414,10.859999656677246 C10.753000259399414,10.859999656677246 -3.865999937057495,22.854000091552734 -3.865999937057495,22.854000091552734 C-3.865999937057495,22.854000091552734 -12.659000396728516,6.11299991607666 -12.659000396728516,6.11299991607666 C-12.659000396728516,6.11299991607666 -5.951000213623047,-14.348999977111816 1.2410000562667847,-22.854000091552734z"/></g><g opacity="1" transform="matrix(1,0,0,1,101.95099639892578,222.5760040283203)"><path stroke-linecap="round" stroke-linejoin="round" fill-opacity="0" stroke="rgb(39,23,59)" stroke-opacity="1" stroke-width="1.98" d=" M1.2410000562667847,-22.854000091552734 C2.4100000858306885,-22.089000701904297 3.7070000171661377,-21.541000366210938 5.070000171661377,-21.236000061035156 C6.443999767303467,-20.993000030517578 7.849999904632568,-20.993000030517578 9.223999977111816,-21.236000061035156 C12.657999992370605,-10.555000305175781 10.753000259399414,10.859999656677246 10.753000259399414,10.859999656677246 C10.753000259399414,10.859999656677246 -3.865999937057495,22.854000091552734 -3.865999937057495,22.854000091552734 C-3.865999937057495,22.854000091552734 -12.659000396728516,6.11299991607666 -12.659000396728516,6.11299991607666 C-12.659000396728516,6.11299991607666 -5.951000213623047,-14.348999977111816 1.2410000562667847,-22.854000091552734z"/></g><g opacity="1" transform="matrix(1,0,0,1,159.79600524902344,178.656005859375)"><path fill="rgb(255,255,255)" fill-opacity="1" d=" M47.992000579833984,-23.132999420166016 C47.992000579833984,-23.132999420166016 -12.281000137329102,2.184000015258789 -47.992000579833984,-0.6019999980926514 C-40.00899887084961,7.057000160217285 -28.66200065612793,23.132999420166016 -28.66200065612793,23.132999420166016 C-28.66200065612793,23.132999420166016 47.992000579833984,-23.132999420166016 47.992000579833984,-23.132999420166016z"/></g><g opacity="1" transform="matrix(1,0,0,1,159.79600524902344,178.656005859375)"><path stroke-linecap="round" stroke-linejoin="round" fill-opacity="0" stroke="rgb(39,23,59)" stroke-opacity="1" stroke-width="1.98" d=" M47.992000579833984,-23.132999420166016 C47.992000579833984,-23.132999420166016 -12.281000137329102,2.184000015258789 -47.992000579833984,-0.6019999980926514 C-40.00899887084961,7.057000160217285 -28.66200065612793,23.132999420166016 -28.66200065612793,23.132999420166016 C-28.66200065612793,23.132999420166016 47.992000579833984,-23.132999420166016 47.992000579833984,-23.132999420166016z"/></g><g opacity="1" transform="matrix(1,0,0,1,71.99400329589844,156.17100524902344)"><path fill="rgb(255,255,255)" fill-opacity="1" d=" M-39.810001373291016,-36.25 C-39.810001373291016,-36.25 5.843999862670898,10.50100040435791 39.810001373291016,21.864999771118164 C29.48900032043457,25.80299949645996 12.838000297546387,36.25 12.838000297546387,36.25 C12.838000297546387,36.25 -39.810001373291016,-36.25 -39.810001373291016,-36.25z"/></g><g opacity="1" transform="matrix(1,0,0,1,71.99400329589844,156.17100524902344)"><path stroke-linecap="round" stroke-linejoin="round" fill-opacity="0" stroke="rgb(39,23,59)" stroke-opacity="1" stroke-width="1.98" d=" M-39.810001373291016,-36.25 C-39.810001373291016,-36.25 5.843999862670898,10.50100040435791 39.810001373291016,21.864999771118164 C29.48900032043457,25.80299949645996 12.838000297546387,36.25 12.838000297546387,36.25 C12.838000297546387,36.25 -39.810001373291016,-36.25 -39.810001373291016,-36.25z"/></g><g opacity="1" transform="matrix(1,0,0,1,143.14599609375,58.23699951171875)"><path fill="rgb(87,87,85)" fill-opacity="1" d=" M-21.145999908447266,-38.48899841308594 C-21.145999908447266,-38.48899841308594 -38.029998779296875,18.69099998474121 -38.029998779296875,18.69099998474121 C-38.029998779296875,18.69099998474121 -10.482999801635742,38.48899841308594 -10.482999801635742,38.48899841308594 C-10.482999801635742,38.48899841308594 20.785999298095703,37.37300109863281 20.785999298095703,37.37300109863281 C20.785999298095703,37.37300109863281 38.029998779296875,-21.01099967956543 38.029998779296875,-21.01099967956543 C38.029998779296875,-21.01099967956543 -21.145999908447266,-38.48899841308594 -21.145999908447266,-38.48899841308594z"/></g><g opacity="1" transform="matrix(1,0,0,1,143.14599609375,58.23699951171875)"><path stroke-linecap="round" stroke-linejoin="round" fill-opacity="0" stroke="rgb(39,23,59)" stroke-opacity="1" stroke-width="2.18" d=" M-21.145999908447266,-38.48899841308594 C-21.145999908447266,-38.48899841308594 -38.029998779296875,18.69099998474121 -38.029998779296875,18.69099998474121 C-38.029998779296875,18.69099998474121 -10.482999801635742,38.48899841308594 -10.482999801635742,38.48899841308594 C-10.482999801635742,38.48899841308594 20.785999298095703,37.37300109863281 20.785999298095703,37.37300109863281 C20.785999298095703,37.37300109863281 38.029998779296875,-21.01099967956543 38.029998779296875,-21.01099967956543 C38.029998779296875,-21.01099967956543 -21.145999908447266,-38.48899841308594 -21.145999908447266,-38.48899841308594z"/></g><g opacity="1" transform="matrix(1,0,0,1,149.70899963378906,40.6510009765625)"><path fill="rgb(113,113,113)" fill-opacity="1" d=" M75.50299835205078,23.006999969482422 C75.50299835205078,23.006999969482422 -11.14799976348877,38.47100067138672 -11.14799976348877,38.47100067138672 C-11.14799976348877,38.47100067138672 -75.50299835205078,-21.604000091552734 -75.50299835205078,-21.604000091552734 C-75.50299835205078,-21.604000091552734 11.579999923706055,-38.47100067138672 11.579999923706055,-38.47100067138672 C11.579999923706055,-38.47100067138672 75.50299835205078,23.006999969482422 75.50299835205078,23.006999969482422z"/></g><g opacity="1" transform="matrix(1,0,0,1,149.70899963378906,40.6510009765625)"><path stroke-linecap="round" stroke-linejoin="round" fill-opacity="0" stroke="rgb(39,23,59)" stroke-opacity="1" stroke-width="2.18" d=" M75.50299835205078,23.006999969482422 C75.50299835205078,23.006999969482422 -11.14799976348877,38.47100067138672 -11.14799976348877,38.47100067138672 C-11.14799976348877,38.47100067138672 -75.50299835205078,-21.604000091552734 -75.50299835205078,-21.604000091552734 C-75.50299835205078,-21.604000091552734 11.579999923706055,-38.47100067138672 11.579999923706055,-38.47100067138672 C11.579999923706055,-38.47100067138672 75.50299835205078,23.006999969482422 75.50299835205078,23.006999969482422z"/></g><g opacity="1" transform="matrix(1,0,0,1,185.0959930419922,66.16600036621094)"><path stroke-linecap="round" stroke-linejoin="round" fill-opacity="0" stroke="rgb(248,184,85)" stroke-opacity="1" stroke-width="2.18" d=" M-22.961999893188477,-29.461999893188477 C-22.961999893188477,-29.461999893188477 22.961999893188477,3.5329999923706055 22.961999893188477,3.5329999923706055 C22.548999786376953,5.169000148773193 21.847999572753906,7.669000148773193 20.857999801635742,10.72599983215332 C17.531999588012695,20.812999725341797 15.050999641418457,23.690000534057617 14.079000473022461,29.461999893188477"/></g><g opacity="1" transform="matrix(1,0,0,1,199.3560028076172,92.78099822998047)"><path fill="rgb(248,184,85)" fill-opacity="1" d=" M-5.690999984741211,-1.680999994277954 C-4.718999862670898,-4.9670000076293945 -1.3849999904632568,-6.877999782562256 1.7580000162124634,-5.948999881744385 C4.901000022888184,-5.019999980926514 6.6620001792907715,-1.6039999723434448 5.690999984741211,1.680999994277954 C4.71999979019165,4.9670000076293945 1.3849999904632568,6.877999782562256 -1.7569999694824219,5.948999881744385 C-4.901000022888184,5.020999908447266 -6.6620001792907715,1.6050000190734863 -5.690999984741211,-1.680999994277954z"/></g><g opacity="1" transform="matrix(1,0,0,1,206.23300170898438,112.8740005493164)"><path fill="rgb(248,184,85)" fill-opacity="1" d=" M-6.1529998779296875,-20.562000274658203 C-7.406000137329102,-15.161999702453613 -7.800000190734863,-9.595999717712402 -7.322000026702881,-4.072000026702881 C-6.526000022888184,4.754000186920166 -3.49399995803833,13.232000350952148 1.4889999628067017,20.562000274658203 C1.4889999628067017,20.562000274658203 7.800000190734863,15.939000129699707 7.800000190734863,15.939000129699707 C4.744999885559082,11.086999893188477 2.117000102996826,5.980000019073486 -0.05700000002980232,0.675000011920929 C-2.8519999980926514,-6.163000106811523 -4.895999908447266,-13.284000396728516 -6.1529998779296875,-20.562000274658203z"/></g></g><g transform="matrix(0.9969105124473572,-0.07854609191417694,0.07854609191417694,0.9969105124473572,-32.27203369140625,24.843887329101562)" opacity="1" style="display: block;"><g opacity="1" transform="matrix(0.9969105124473572,0.07854609191417694,-0.07854609191417694,0.9969105124473572,334.1175231933594,178.28756713867188)"><g opacity="1" transform="matrix(1,0,0,1,71.70600128173828,22.54400062561035)"><path fill="rgb(39,23,59)" fill-opacity="1" d=" M-4.867000102996826,-2.2960000038146973 C-5.980999946594238,0.3919999897480011 -4.705999851226807,3.4749999046325684 -2.0169999599456787,4.589000225067139 C0.6700000166893005,5.703000068664551 3.752000093460083,4.427999973297119 4.866000175476074,1.7400000095367432 C5.980999946594238,-0.9480000138282776 4.704999923706055,-4.03000020980835 2.0179998874664307,-5.144999980926514 C1.496999979019165,-5.360000133514404 0.9449999928474426,-5.491000175476074 0.3840000033378601,-5.5320000648498535 C-1.8830000162124634,-5.703999996185303 -4.001999855041504,-4.396999835968018 -4.867000102996826,-2.2960000038146973z"/></g></g><g opacity="1" transform="matrix(0.9969105124473572,0.07854609191417694,-0.07854609191417694,0.9969105124473572,334.1175231933594,178.28756713867188)"><g opacity="1" transform="matrix(1,0,0,1,71.70600128173828,22.54400062561035)"><path stroke-linecap="butt" stroke-linejoin="miter" fill-opacity="0" stroke-miterlimit="10" stroke="rgb(39,23,59)" stroke-opacity="1" stroke-width="0.66" d=" M-4.867000102996826,-2.2960000038146973 C-5.980999946594238,0.3919999897480011 -4.705999851226807,3.4749999046325684 -2.0169999599456787,4.589000225067139 C0.6700000166893005,5.703000068664551 3.752000093460083,4.427999973297119 4.866000175476074,1.7400000095367432 C5.980999946594238,-0.9480000138282776 4.704999923706055,-4.03000020980835 2.0179998874664307,-5.144999980926514 C1.496999979019165,-5.360000133514404 0.9449999928474426,-5.491000175476074 0.3840000033378601,-5.5320000648498535 C-1.8830000162124634,-5.703999996185303 -4.001999855041504,-4.396999835968018 -4.867000102996826,-2.2960000038146973z"/></g></g></g><g transform="matrix(0.9969105124473572,-0.07854609191417694,0.07854609191417694,0.9969105124473572,-26.803741455078125,27.420867919921875)" opacity="1" style="display: block;"><g opacity="1" transform="matrix(0.9969105124473572,0.07854609191417694,-0.07854609191417694,0.9969105124473572,334.1181335449219,178.2886199951172)"><g opacity="1" transform="matrix(1,0,0,1,7.629000186920166,7.35099983215332)"><path fill="rgb(39,23,59)" fill-opacity="1" d=" M-4.874000072479248,-2.2780001163482666 C-5.979000091552734,0.4129999876022339 -4.691999912261963,3.492000102996826 -2.000999927520752,4.5960001945495605 C0.6899999976158142,5.701000213623047 3.7690000534057617,4.414000034332275 4.873000144958496,1.722000002861023 C5.979000091552734,-0.968999981880188 4.690999984741211,-4.046999931335449 2,-5.1519999504089355 C1.4819999933242798,-5.363999843597412 0.9340000152587891,-5.493000030517578 0.37599998712539673,-5.5329999923706055 C-1.8949999809265137,-5.701000213623047 -4.015999794006348,-4.38700008392334 -4.874000072479248,-2.2780001163482666z"/></g></g><g opacity="1" transform="matrix(0.9969105124473572,0.07854609191417694,-0.07854609191417694,0.9969105124473572,334.1181335449219,178.2886199951172)"><g opacity="1" transform="matrix(1,0,0,1,7.629000186920166,7.35099983215332)"><path stroke-linecap="butt" stroke-linejoin="miter" fill-opacity="0" stroke-miterlimit="10" stroke="rgb(39,23,59)" stroke-opacity="1" stroke-width="0.66" d=" M-4.874000072479248,-2.2780001163482666 C-5.979000091552734,0.4129999876022339 -4.691999912261963,3.492000102996826 -2.000999927520752,4.5960001945495605 C0.6899999976158142,5.701000213623047 3.7690000534057617,4.414000034332275 4.873000144958496,1.722000002861023 C5.979000091552734,-0.968999981880188 4.690999984741211,-4.046999931335449 2,-5.1519999504089355 C1.4819999933242798,-5.363999843597412 0.9340000152587891,-5.493000030517578 0.37599998712539673,-5.5329999923706055 C-1.8949999809265137,-5.701000213623047 -4.015999794006348,-4.38700008392334 -4.874000072479248,-2.2780001163482666z"/></g></g></g><g style="display: none;"><g><path stroke-linecap="round" stroke-linejoin="miter" fill-opacity="0" stroke-miterlimit="4"/></g></g><g style="display: none;"><g><path stroke-linecap="round" stroke-linejoin="miter" fill-opacity="0" stroke-miterlimit="4"/></g></g><g style="display: none;"><g><path stroke-linecap="round" stroke-linejoin="miter" fill-opacity="0" stroke-miterlimit="4"/></g></g><g style="display: none;"><g><path stroke-linecap="round" stroke-linejoin="miter" fill-opacity="0" stroke-miterlimit="4"/></g></g><g transform="matrix(1,0,0,1,317.7460021972656,179.43099975585938)" opacity="1" style="display: block;"><g opacity="1" transform="matrix(1,0,0,1,36.94900131225586,23.177000045776367)"><path fill="rgb(39,23,59)" fill-opacity="1" d=" M8.277000427246094,-3.934999942779541 C7.849999904632568,-4.626999855041504 7.2220001220703125,-5.111000061035156 6.51800012588501,-5.385000228881836 C6.383999824523926,-5.465000152587891 6.248000144958496,-5.544000148773193 6.099999904632568,-5.60699987411499 C6.099999904632568,-5.60699987411499 6.099999904632568,-5.570000171661377 6.099999904632568,-5.570000171661377 C2.73799991607666,-6.468999862670898 -0.7319999933242798,-6.8470001220703125 -4.077000141143799,-7.745999813079834 C-4.999000072479248,-7.99399995803833 -5.982999801635742,-7.866000175476074 -6.809999942779541,-7.38700008392334 C-7.591000080108643,-6.8979997634887695 -8.170999526977539,-6.144999980926514 -8.446000099182129,-5.265999794006348 C-8.708999633789062,-4.379000186920166 -8.829000473022461,-3.4560000896453857 -8.805000305175781,-2.5329999923706055 C-8.862000465393066,-1.2949999570846558 -8.803000450134277,-0.05400000140070915 -8.62600040435791,1.1720000505447388 C-8.366999626159668,2.811000108718872 -7.64300012588501,4.339000225067139 -6.539999961853027,5.578000068664551 C-5.546000003814697,6.574999809265137 -4.303999900817871,7.289000034332275 -2.943000078201294,7.645999908447266 C-1.7680000066757202,7.952000141143799 -0.5410000085830688,7.994999885559082 0.6520000100135803,7.771999835968018 C1.6059999465942383,7.644000053405762 2.5309998989105225,7.3520002365112305 3.384999990463257,6.908999919891357 C4.64900016784668,6.190000057220459 5.7210001945495605,5.177999973297119 6.513999938964844,3.9600000381469727 C7.574999809265137,2.4140000343322754 8.29699993133545,0.6600000262260437 8.635000228881836,-1.184000015258789 C8.862000465393066,-2.114000082015991 8.734999656677246,-3.0950000286102295 8.277000427246094,-3.934999942779541z"/></g></g><g transform="matrix(1,0,0,1,157.81100463867188,95.55000305175781)" opacity="1" style="display: block;"><g opacity="1" transform="matrix(1,0,0,1,46.12699890136719,58.23699951171875)"><path fill="rgb(41,37,91)" fill-opacity="1" d=" M-41.74300003051758,-47.4109992980957 C-41.74300003051758,-47.4109992980957 34.31999969482422,52.97100067138672 34.31999969482422,52.97100067138672 C38.0620002746582,57.98699951171875 45.87699890136719,53.91299819946289 42.125,48.40299987792969 C42.125,48.40299987792969 -33.93899917602539,-51.97800064086914 -33.93899917602539,-51.97800064086914 C-38.34000015258789,-57.98699951171875 -45.87699890136719,-52.72200012207031 -41.74300003051758,-47.4109992980957z"/></g></g><g transform="matrix(1,0,0,1,103.85000610351562,16.887001037597656)" opacity="1" style="display: block;"><g opacity="1" transform="matrix(1,0,0,1,26.295000076293945,40.14099884033203)"><path fill="rgb(239,136,44)" fill-opacity="1" d=" M20.56100082397461,4.395999908447266 C14.21399974822998,16.173999786376953 -0.8360000252723694,19.464000701904297 -11.53499984741211,13.746000289916992 C-23.312999725341797,7.416999816894531 -24.284000396728516,-2.059000015258789 -24.5,-5.296000003814697 C-24.71500015258789,-8.531999588012695 -22.701000213623047,-19.46500015258789 -22.701000213623047,-19.46500015258789 C-22.701000213623047,-19.46500015258789 24.71500015258789,-12.128000259399414 24.71500015258789,-12.128000259399414 C24.216999053955078,-6.434999942779541 22.815000534057617,-0.8560000061988831 20.56100082397461,4.395999908447266z"/></g><g opacity="1" transform="matrix(1,0,0,1,26.295000076293945,40.14099884033203)"><path stroke-linecap="round" stroke-linejoin="round" fill-opacity="0" stroke="rgb(40,24,60)" stroke-opacity="1" stroke-width="1.58" d=" M20.56100082397461,4.395999908447266 C14.21399974822998,16.173999786376953 -0.8360000252723694,19.464000701904297 -11.53499984741211,13.746000289916992 C-23.312999725341797,7.416999816894531 -24.284000396728516,-2.059000015258789 -24.5,-5.296000003814697 C-24.71500015258789,-8.531999588012695 -22.701000213623047,-19.46500015258789 -22.701000213623047,-19.46500015258789 C-22.701000213623047,-19.46500015258789 24.71500015258789,-12.128000259399414 24.71500015258789,-12.128000259399414 C24.216999053955078,-6.434999942779541 22.815000534057617,-0.8560000061988831 20.56100082397461,4.395999908447266z"/></g><g opacity="1" transform="matrix(1,0,0,1,26.9689998626709,25.819000244140625)"><path fill="rgb(244,158,45)" fill-opacity="1" d=" M-0.0010000000474974513,-24.23900032043457 C13.38599967956543,-24.23900032043457 24.23900032043457,-13.38700008392334 24.23900032043457,0 C24.23900032043457,13.38599967956543 13.38599967956543,24.23900032043457 -0.0010000000474974513,24.23900032043457 C-13.38700008392334,24.23900032043457 -24.23900032043457,13.38599967956543 -24.23900032043457,0 C-24.23900032043457,-13.38700008392334 -13.38700008392334,-24.23900032043457 -0.0010000000474974513,-24.23900032043457z"/></g><g opacity="1" transform="matrix(1,0,0,1,26.9689998626709,25.819000244140625)"><path stroke-linecap="round" stroke-linejoin="round" fill-opacity="0" stroke="rgb(40,24,60)" stroke-opacity="1" stroke-width="1.58" d=" M-0.0010000000474974513,-24.23900032043457 C13.38599967956543,-24.23900032043457 24.23900032043457,-13.38700008392334 24.23900032043457,0 C24.23900032043457,13.38599967956543 13.38599967956543,24.23900032043457 -0.0010000000474974513,24.23900032043457 C-13.38700008392334,24.23900032043457 -24.23900032043457,13.38599967956543 -24.23900032043457,0 C-24.23900032043457,-13.38700008392334 -13.38700008392334,-24.23900032043457 -0.0010000000474974513,-24.23900032043457z"/></g><g opacity="1" transform="matrix(1,0,0,1,39.07099914550781,50.09299850463867)"><path stroke-linecap="round" stroke-linejoin="round" fill-opacity="0" stroke="rgb(40,24,60)" stroke-opacity="1" stroke-width="1.58" d=" M0.718999981880188,-2.8410000801086426 C0.718999981880188,-2.8410000801086426 -0.718999981880188,2.8410000801086426 -0.718999981880188,2.8410000801086426"/></g><g opacity="1" transform="matrix(1,0,0,1,28.273000717163086,24.375999450683594)"><path fill="rgb(255,251,235)" fill-opacity="1" d=" M0.29600000381469727,1.8209999799728394 C0.29600000381469727,1.8209999799728394 7.8480000495910645,2.5220000743865967 7.8480000495910645,2.5220000743865967 C8.010000228881836,2.5220000743865967 8.081999778747559,2.5220000743865967 8.118000030517578,2.3420000076293945 C8.244000434875488,1.5750000476837158 8.315999984741211,0.800000011920929 8.333999633789062,0.023000000044703484 C8.333999633789062,-0.12099999934434891 8.333999633789062,-0.19300000369548798 8.118000030517578,-0.210999995470047 C8.118000030517578,-0.210999995470047 -6.914000034332275,-1.6130000352859497 -6.914000034332275,-1.6130000352859497 C-7.093999862670898,-1.6130000352859497 -7.1479997634887695,-1.6130000352859497 -7.165999889373779,-1.3980000019073486 C-7.165999889373779,-1.3980000019073486 -7.38100004196167,0.8140000104904175 -7.38100004196167,0.8140000104904175 C-7.38100004196167,1.1009999513626099 -7.38100004196167,1.1009999513626099 -7.111999988555908,1.11899995803833 C-7.111999988555908,1.11899995803833 0.29600000381469727,1.8209999799728394 0.29600000381469727,1.8209999799728394z M7.758999824523926,-2.8359999656677246 C7.776000022888184,-2.8949999809265137 7.776000022888184,-2.9579999446868896 7.758999824523926,-3.0160000324249268 C7.664999961853027,-3.302000045776367 7.544000148773193,-3.5789999961853027 7.39900016784668,-3.8429999351501465 C7.171999931335449,-4.2870001792907715 6.894000053405762,-4.703999996185303 6.572000026702881,-5.084000110626221 C6.429999828338623,-5.307000160217285 6.260000228881836,-5.513000011444092 6.067999839782715,-5.695000171661377 C5.064000129699707,-6.714000225067139 3.8310000896453857,-7.479000091552734 2.4719998836517334,-7.925000190734863 C1.7949999570846558,-8.14799976348877 1.0959999561309814,-8.293000221252441 0.38600000739097595,-8.357000350952148 C0.38600000739097595,-8.357000350952148 -6.284999847412109,-8.986000061035156 -6.284999847412109,-8.986000061035156 C-6.465000152587891,-8.986000061035156 -6.500999927520752,-8.986000061035156 -6.519000053405762,-8.751999855041504 C-6.519000053405762,-8.751999855041504 -6.932000160217285,-4.3470001220703125 -6.932000160217285,-4.3470001220703125 C-6.932000160217285,-4.166999816894531 -6.932000160217285,-4.11299991607666 -6.716000080108643,-4.09499979019165 C-6.716000080108643,-4.09499979019165 7.668000221252441,-2.746000051498413 7.668000221252441,-2.746000051498413 C7.668000221252441,-2.746000051498413 7.829999923706055,-2.746000051498413 7.829999923706055,-2.746000051498413 C7.829999923706055,-2.746000051498413 7.758999824523926,-2.8359999656677246 7.758999824523926,-2.8359999656677246z M7.002999782562256,5.057000160217285 C6.794000148773193,5.03000020980835 6.583000183105469,5.03000020980835 6.374000072479248,5.057000160217285 C6.374000072479248,5.057000160217285 -7.400000095367432,3.763000011444092 -7.400000095367432,3.763000011444092 C-7.578999996185303,3.763000011444092 -7.651000022888184,3.763000011444092 -7.669000148773193,3.9779999256134033 C-7.669000148773193,3.9779999256134033 -8.0649995803833,8.293999671936035 -8.0649995803833,8.293999671936035 C-8.0649995803833,8.491999626159668 -8.0649995803833,8.545999526977539 -7.848999977111816,8.564000129699707 C-7.848999977111816,8.564000129699707 -1.4839999675750732,9.156999588012695 -1.4839999675750732,9.156999588012695 C-1.1859999895095825,9.20199966430664 -0.8830000162124634,9.20199966430664 -0.5849999785423279,9.156999588012695 C0.3490000069141388,9.170000076293945 1.281000018119812,9.055000305175781 2.184000015258789,8.8149995803833 C2.505000114440918,8.727999687194824 2.818000078201294,8.61400032043457 3.11899995803833,8.473999977111816 C4.683000087738037,7.841000080108643 6.011000156402588,6.735000133514404 6.913000106811523,5.309000015258789 C6.913000106811523,5.309000015258789 7.020999908447266,5.129000186920166 6.913000106811523,5.076000213623047 C6.913000106811523,5.076000213623047 7.002999782562256,5.057000160217285 7.002999782562256,5.057000160217285z M-10.79800033569336,10.45199966430664 C-10.79800033569336,10.45199966430664 -10.79800033569336,10.45199966430664 -10.79800033569336,10.45199966430664 C-10.79800033569336,10.45199966430664 -10.527999877929688,7.557000160217285 -10.527999877929688,7.557000160217285 C-10.527999877929688,7.557000160217285 -10.527999877929688,6.585999965667725 -10.527999877929688,6.585999965667725 C-10.527999877929688,6.585999965667725 -10.241000175476074,3.6549999713897705 -10.241000175476074,3.6549999713897705 C-10.241000175476074,3.493000030517578 -10.241000175476074,3.4749999046325684 -10.420999526977539,3.4570000171661377 C-10.420999526977539,3.4570000171661377 -13.118000030517578,3.2049999237060547 -13.118000030517578,3.2049999237060547 C-13.279000282287598,3.2049999237060547 -13.333000183105469,3.2049999237060547 -13.315999984741211,2.990000009536743 C-13.315999984741211,2.990000009536743 -13.100000381469727,0.6340000033378601 -13.100000381469727,0.6340000033378601 C-13.100000381469727,0.6340000033378601 -10.222999572753906,0.9039999842643738 -10.222999572753906,0.9039999842643738 C-10.060999870300293,0.9039999842643738 -9.98900032043457,0.9039999842643738 -9.970999717712402,0.7059999704360962 C-9.970999717712402,0.7059999704360962 -9.755000114440918,-1.63100004196167 -9.755000114440918,-1.63100004196167 C-9.755000114440918,-1.7760000228881836 -9.755000114440918,-1.8109999895095825 -9.9350004196167,-1.8289999961853027 C-9.9350004196167,-1.8289999961853027 -12.631999969482422,-2.0810000896453857 -12.631999969482422,-2.0810000896453857 C-12.776000022888184,-2.0810000896453857 -12.847999572753906,-2.0810000896453857 -12.829999923706055,-2.296999931335449 C-12.829999923706055,-2.296999931335449 -12.61400032043457,-4.489999771118164 -12.61400032043457,-4.489999771118164 C-12.61400032043457,-4.633999824523926 -12.61400032043457,-4.671000003814697 -12.39799976348877,-4.6519999504089355 C-12.39799976348877,-4.6519999504089355 -9.737000465393066,-4.401000022888184 -9.737000465393066,-4.401000022888184 C-9.538999557495117,-4.401000022888184 -9.503999710083008,-4.401000022888184 -9.467000007629395,-4.616000175476074 C-9.467000007629395,-4.616000175476074 -8.855999946594238,-11.305000305175781 -8.855999946594238,-11.305000305175781 C-8.855999946594238,-11.503000259399414 -8.855999946594238,-11.557000160217285 -8.569000244140625,-11.520999908447266 C-8.569000244140625,-11.520999908447266 0.7459999918937683,-10.657999992370605 0.7459999918937683,-10.657999992370605 C1.4140000343322754,-10.5649995803833 2.075000047683716,-10.427000045776367 2.7239999771118164,-10.244000434875488 C4.071000099182129,-9.866999626159668 5.3429999351501465,-9.258999824523926 6.48199987411499,-8.446000099182129 C7.235000133514404,-7.896999835968018 7.916999816894531,-7.256999969482422 8.513999938964844,-6.539999961853027 C8.954000473022461,-5.97599983215332 9.345000267028809,-5.374000072479248 9.682000160217285,-4.742000102996826 C10.013999938964844,-4.105999946594238 10.279000282287598,-3.437000036239624 10.473999977111816,-2.746000051498413 C10.491999626159668,-2.572000026702881 10.640000343322754,-2.440000057220459 10.8149995803833,-2.440999984741211 C10.8149995803833,-2.440999984741211 13.045000076293945,-2.243000030517578 13.045000076293945,-2.243000030517578 C13.333000183105469,-2.243000030517578 13.333000183105469,-2.243000030517578 13.3149995803833,-1.937000036239624 C13.3149995803833,-1.937000036239624 13.135000228881836,0.0949999988079071 13.135000228881836,0.0949999988079071 C13.135000228881836,0.2919999957084656 13.027000427246094,0.34700000286102295 12.829000473022461,0.328000009059906 C12.829000473022461,0.328000009059906 11.121000289916992,0.16599999368190765 11.121000289916992,0.16599999368190765 C10.940999984741211,0.16599999368190765 10.887999534606934,0.16599999368190765 10.887999534606934,0.36500000953674316 C10.887999534606934,1.125 10.8149995803833,1.8830000162124634 10.67199993133545,2.630000114440918 C10.67199993133545,2.8459999561309814 10.67199993133545,2.881999969482422 10.887999534606934,2.9000000953674316 C10.887999534606934,2.9000000953674316 12.847999572753906,3.0789999961853027 12.847999572753906,3.0789999961853027 C12.847999572753906,3.0789999961853027 12.847999572753906,3.4210000038146973 12.847999572753906,3.4210000038146973 C12.864999771118164,3.563999891281128 12.864999771118164,3.7090001106262207 12.847999572753906,3.8529999256134033 C12.847999572753906,3.8529999256134033 12.70300006866455,5.34499979019165 12.70300006866455,5.34499979019165 C12.70300006866455,5.560999870300293 12.70300006866455,5.614999771118164 12.434000015258789,5.5970001220703125 C12.434000015258789,5.5970001220703125 10.07800006866455,5.38100004196167 10.07800006866455,5.38100004196167 C9.920000076293945,5.3429999351501465 9.758999824523926,5.427999973297119 9.701000213623047,5.578999996185303 C9.015000343322754,6.999000072479248 7.997000217437744,8.232999801635742 6.734000205993652,9.175000190734863 C6.2789998054504395,9.519000053405762 5.803999900817871,9.838000297546387 5.313000202178955,10.128000259399414 C4.791999816894531,10.362000465393066 4.269999980926514,10.61400032043457 3.749000072479248,10.793000221252441 C2.7699999809265137,11.130000114440918 1.7569999694824219,11.352999687194824 0.7279999852180481,11.458999633789062 C-0.2460000067949295,11.557000160217285 -1.2289999723434448,11.557000160217285 -2.203000068664551,11.458999633789062 C-2.203000068664551,11.458999633789062 -10.815999984741211,10.649999618530273 -10.815999984741211,10.649999618530273 C-10.815999984741211,10.649999618530273 -10.79800033569336,10.45199966430664 -10.79800033569336,10.45199966430664z"/></g></g><g transform="matrix(1,0,0,1,232.31597900390625,14.77199935913086)" opacity="1" style="display: block;"><g opacity="1" transform="matrix(1,0,0,1,26.466999053955078,28.750999450683594)"><path fill="rgb(61,146,208)" fill-opacity="1" d=" M-20.229000091552734,15.66100025177002 C-20.229000091552734,15.66100025177002 14.581999778747559,-17.458999633789062 14.581999778747559,-17.458999633789062 C14.581999778747559,-17.458999633789062 20.229000091552734,-15.661999702453613 20.229000091552734,-15.661999702453613 C20.229000091552734,-15.661999702453613 -14.72700023651123,17.458999633789062 -14.72700023651123,17.458999633789062 C-14.72700023651123,17.458999633789062 -20.229000091552734,15.66100025177002 -20.229000091552734,15.66100025177002z"/></g><g opacity="1" transform="matrix(1,0,0,1,22.826000213623047,27.510000228881836)"><path fill="rgb(144,204,239)" fill-opacity="1" d=" M-20.238000869750977,15.66100025177002 C-20.238000869750977,15.66100025177002 14.592000007629395,-17.458999633789062 14.592000007629395,-17.458999633789062 C14.592000007629395,-17.458999633789062 20.238000869750977,-15.661999702453613 20.238000869750977,-15.661999702453613 C20.238000869750977,-15.661999702453613 -14.645999908447266,17.458999633789062 -14.645999908447266,17.458999633789062 C-14.645999908447266,17.458999633789062 -20.238000869750977,15.66100025177002 -20.238000869750977,15.66100025177002z"/></g><g opacity="1" transform="matrix(1,0,0,1,36.95899963378906,42.51499938964844)"><path fill="rgb(61,146,208)" fill-opacity="1" d=" M3.8570001125335693,-11.552000045776367 C-2.2929999828338623,-13.565999984741211 -7.36299991607666,-9.611000061035156 -9.484999656677246,-3.13700008392334 C-11.965999603271484,4.396999835968018 -9.503000259399414,9.791000366210938 -3.7669999599456787,11.58899974822998 C2.2750000953674316,13.567000389099121 7.328000068664551,9.934000015258789 9.574999809265137,3.065000057220459 C9.574999809265137,3.065000057220459 9.484999656677246,2.993000030517578 9.484999656677246,2.993000030517578 C11.965999603271484,-4.593999862670898 9.340999603271484,-9.789999961853027 3.8570001125335693,-11.552000045776367z M3.7669999599456787,1.1770000457763672 C2.4010000228881836,5.385000228881836 0.4580000042915344,6.876999855041504 -1.8969999551773071,6.104000091552734 C-4.252999782562256,5.330999851226807 -4.828000068664551,2.759999990463257 -3.5339999198913574,-1.2139999866485596 C-3.5339999198913574,-1.2139999866485596 -3.624000072479248,-1.284999966621399 -3.624000072479248,-1.284999966621399 C-2.309999942779541,-5.295000076293945 -0.3149999976158142,-6.697000026702881 1.968999981880188,-6.013999938964844 C4.251999855041504,-5.330999851226807 5.132999897003174,-3.0309998989105225 3.7669999599456787,1.1770000457763672z"/></g><g opacity="1" transform="matrix(1,0,0,1,33.354000091552734,41.26599884033203)"><path fill="rgb(144,204,239)" fill-opacity="1" d=" M3.812000036239624,-11.543000221252441 C-2.3369998931884766,-13.574999809265137 -7.4079999923706055,-9.60200023651123 -9.531000137329102,-3.128000020980835 C-12.01200008392334,4.406000137329102 -9.54800033569336,9.800000190734863 -3.812000036239624,11.597999572753906 C2.3380000591278076,13.576000213623047 7.300000190734863,9.942999839782715 9.529000282287598,3.0739998817443848 C9.529000282287598,3.0739998817443848 9.531000137329102,3.0209999084472656 9.531000137329102,3.0209999084472656 C12.01200008392334,-4.566999912261963 9.38700008392334,-9.762999534606934 3.812000036239624,-11.543000221252441z M3.740999937057495,1.1859999895095825 C2.3559999465942383,5.394000053405762 0.4129999876022339,6.886000156402588 -1.9429999589920044,6.11299991607666 C-4.297999858856201,5.340000152587891 -4.872000217437744,2.7699999809265137 -3.578000068664551,-1.2039999961853027 C-3.578000068664551,-1.2039999961853027 -3.5769999027252197,-1.2580000162124634 -3.5769999027252197,-1.2580000162124634 C-2.246999979019165,-5.322000026702881 -0.3240000009536743,-6.688000202178955 1.940999984741211,-6.005000114440918 C4.206999778747559,-5.322000026702881 5.125,-3.0220000743865967 3.740999937057495,1.1859999895095825z"/></g><g opacity="1" transform="matrix(1,0,0,1,15.812999725341797,15.039999961853027)"><path fill="rgb(61,146,208)" fill-opacity="1" d=" M3.819999933242798,-11.552000045776367 C-2.311000108718872,-13.567000389099121 -7.400000095367432,-9.611000061035156 -9.503999710083008,-3.13700008392334 C-12.003000259399414,4.505000114440918 -9.520999908447266,9.791000366210938 -3.802999973297119,11.58899974822998 C2.256999969482422,13.567000389099121 7.309999942779541,9.9350004196167 9.557000160217285,3.065999984741211 C12.003000259399414,-4.504000186920166 9.394000053405762,-9.718000411987305 3.819999933242798,-11.552000045776367z M3.749000072479248,1.1779999732971191 C2.382999897003174,5.386000156402588 0.421999990940094,6.860000133514404 -1.934000015258789,6.105000019073486 C-4.289000034332275,5.349999904632568 -4.863999843597412,2.760999917984009 -3.569999933242798,-1.2139999866485596 C-3.569999933242798,-1.2139999866485596 -3.569999933242798,-1.1959999799728394 -3.569999933242798,-1.1959999799728394 C-2.2209999561309814,-5.295000076293945 -0.3330000042915344,-6.716000080108643 1.9509999752044678,-6.013999938964844 C4.235000133514404,-5.313000202178955 5.116000175476074,-3.0299999713897705 3.749000072479248,1.1779999732971191z"/></g><g opacity="1" transform="matrix(1,0,0,1,12.234000205993652,13.817000389099121)"><path fill="rgb(144,204,239)" fill-opacity="1" d=" M3.8570001125335693,-11.552000045776367 C-2.2929999828338623,-13.567000389099121 -7.361999988555908,-9.611000061035156 -9.484000205993652,-3.13700008392334 C-11.984000205993652,4.505000114440918 -9.484000205993652,9.791000366210938 -3.7660000324249268,11.58899974822998 C2.2760000228881836,13.567000389099121 7.328000068664551,9.9350004196167 9.576000213623047,3.065999984741211 C11.984999656677246,-4.521999835968018 9.413000106811523,-9.737000465393066 3.8570001125335693,-11.552000045776367z M3.7860000133514404,1.1779999732971191 C2.4010000228881836,5.386000156402588 0.45899999141693115,6.877999782562256 -1.8960000276565552,6.105000019073486 C-4.251999855041504,5.331999778747559 -4.8460001945495605,2.760999917984009 -3.5329999923706055,-1.2139999866485596 C-2.203000068664551,-5.367000102996826 -0.27799999713897705,-6.697000026702881 1.9880000352859497,-6.013999938964844 C4.252999782562256,-5.330999851226807 5.170000076293945,-3.0299999713897705 3.7860000133514404,1.1779999732971191z"/></g></g><g transform="matrix(1,0,0,1,61.855003356933594,264.0429992675781)" opacity="1" style="display: block;"><g opacity="1" transform="matrix(1,0,0,1,25.91699981689453,25.082000732421875)"><path fill="rgb(79,180,146)" fill-opacity="1" d=" M2.059999942779541,-22.746000289916992 C2.059999942779541,-22.746000289916992 4.236000061035156,-5.413000106811523 4.236000061035156,-5.413000106811523 C4.236000061035156,-5.413000106811523 21.209999084472656,-7.552000045776367 21.209999084472656,-7.552000045776367 C21.209999084472656,-7.552000045776367 22.395999908447266,1.8339999914169312 22.395999908447266,1.8339999914169312 C22.395999908447266,1.8339999914169312 5.4029998779296875,3.9739999771118164 5.4029998779296875,3.9739999771118164 C5.4029998779296875,3.9739999771118164 7.616000175476074,21.55900001525879 7.616000175476074,21.55900001525879 C7.616000175476074,21.55900001525879 -1.843000054359436,22.746000289916992 -1.843000054359436,22.746000289916992 C-1.843000054359436,22.746000289916992 -4.0370001792907715,5.160999774932861 -4.0370001792907715,5.160999774932861 C-4.0370001792907715,5.160999774932861 -21.226999282836914,7.300000190734863 -21.226999282836914,7.300000190734863 C-21.226999282836914,7.300000190734863 -22.395999908447266,-2.0859999656677246 -22.395999908447266,-2.0859999656677246 C-22.395999908447266,-2.0859999656677246 -5.223999977111816,-4.224999904632568 -5.223999977111816,-4.224999904632568 C-5.223999977111816,-4.224999904632568 -7.39900016784668,-21.55900001525879 -7.39900016784668,-21.55900001525879 C-7.39900016784668,-21.55900001525879 2.059999942779541,-22.746000289916992 2.059999942779541,-22.746000289916992z"/></g><g opacity="1" transform="matrix(1,0,0,1,22.645999908447266,22.996000289916992)"><path fill="rgb(146,198,136)" fill-opacity="1" d=" M2.0769999027252197,-22.746000289916992 C2.0769999027252197,-22.746000289916992 4.234000205993652,-5.413000106811523 4.234000205993652,-5.413000106811523 C4.234000205993652,-5.413000106811523 21.20800018310547,-7.552000045776367 21.20800018310547,-7.552000045776367 C21.20800018310547,-7.552000045776367 22.395999908447266,1.8339999914169312 22.395999908447266,1.8339999914169312 C22.395999908447266,1.8339999914169312 5.421000003814697,3.9739999771118164 5.421000003814697,3.9739999771118164 C5.421000003814697,3.9739999771118164 7.614999771118164,21.559999465942383 7.614999771118164,21.559999465942383 C7.614999771118164,21.559999465942383 -1.843999981880188,22.746000289916992 -1.843999981880188,22.746000289916992 C-1.843999981880188,22.746000289916992 -4.038000106811523,5.160999774932861 -4.038000106811523,5.160999774932861 C-4.038000106811523,5.160999774932861 -21.209999084472656,7.300000190734863 -21.209999084472656,7.300000190734863 C-21.209999084472656,7.300000190734863 -22.395999908447266,-2.0859999656677246 -22.395999908447266,-2.0859999656677246 C-22.395999908447266,-2.0859999656677246 -5.223999977111816,-4.224999904632568 -5.223999977111816,-4.224999904632568 C-5.223999977111816,-4.224999904632568 -7.381999969482422,-21.55900001525879 -7.381999969482422,-21.55900001525879 C-7.381999969482422,-21.55900001525879 2.0769999027252197,-22.746000289916992 2.0769999027252197,-22.746000289916992z"/></g></g></g></svg>