<svg xmlns="http://www.w3.org/2000/svg" viewBox="0 0 500 500" width="500" height="500" preserveAspectRatio="xMidYMid meet" style="width: 100%; height: 100%; transform: translate3d(0px, 0px, 0px);"><defs><clipPath id="__lottie_element_363"><rect width="500" height="500" x="0" y="0"/></clipPath><linearGradient id="__lottie_element_407" spreadMethod="pad" gradientUnits="userSpaceOnUse" x1="-150.875" y1="172.45700073242188" x2="106.52300262451172" y2="110.49600219726562"><stop offset="0%" stop-color="rgb(255,255,255)"/><stop offset="48%" stop-color="rgb(231,231,242)"/><stop offset="100%" stop-color="rgb(207,207,229)"/></linearGradient><mask id="__lottie_element_409"><path fill="url(#__lottie_element_408)" d=" M157.60400390625,132.78399658203125 C155.0780029296875,85.18800354003906 81.03399658203125,66.99500274658203 60.21900177001953,61.40800094604492 C38.57500076293945,55.59700012207031 -23.865999221801758,23.695999145507812 -22.381999969482422,5.883999824523926 C-21.165000915527344,-8.725000381469727 21.077999114990234,-32.8120002746582 34.24800109863281,-41.694000244140625 C60.15700149536133,-59.16699981689453 124.16400146484375,-87.63500213623047 123.552001953125,-118.17900085449219 C122.94100189208984,-148.72300720214844 103.26699829101562,-160.41200256347656 80.59400177001953,-170.14999389648438 C60.441001892089844,-178.80599975585938 -15.265000343322754,-191.52499389648438 -43.38199996948242,-187.56900024414062 C-42.856998443603516,-184.06900024414062 -42.25600051879883,-176.27499389648438 -41.73099899291992,-172.77499389648438 C-27.95800018310547,-173.17799377441406 78.697998046875,-139.5240020751953 77.85900115966797,-121.87999725341797 C77.02100372314453,-104.23500061035156 -81.9229965209961,-39.8120002746582 -92.21700286865234,15.527000427246094 C-102.1449966430664,68.89800262451172 94.11900329589844,116.23500061035156 92.48200225830078,130.55099487304688 C90.84500122070312,144.86599731445312 -31.04199981689453,151.0919952392578 -60.31999969482422,148.80099487304688 C-89.5979995727539,146.50999450683594 -144.9219970703125,133.18800354003906 -201.9219970703125,108.07499694824219 C-200.69700622558594,145.52499389648438 -199.4720001220703,182.97500610351562 -198.2469940185547,220.427001953125 C-123.52999877929688,240.08299255371094 -43.59700012207031,236.322998046875 -21.31999969482422,235.6510009765625 C0.9570000171661377,234.97900390625 162.25599670410156,220.4459991455078 157.60400390625,132.78399658203125z"/></mask><linearGradient id="__lottie_element_408" spreadMethod="pad" gradientUnits="userSpaceOnUse" x1="-150.875" y1="172.45700073242188" x2="106.52300262451172" y2="110.49600219726562"><stop stop-color="rgb(255,255,255)" offset="0%" stop-opacity="1"/><stop stop-color="rgb(255,255,255)" offset="50%" stop-opacity="0.5899999737739563"/><stop stop-color="rgb(255,255,255)" offset="100%" stop-opacity="0.18000000715255737"/></linearGradient><linearGradient id="__lottie_element_413" spreadMethod="pad" gradientUnits="userSpaceOnUse" x1="-42.80500030517578" y1="-186.99200439453125" x2="-62.27299880981445" y2="213.58999633789062"><stop offset="0%" stop-color="rgb(255,255,255)"/><stop offset="48%" stop-color="rgb(231,231,242)"/><stop offset="100%" stop-color="rgb(207,207,229)"/></linearGradient><mask id="__lottie_element_415"><path fill="url(#__lottie_element_414)" d=" M157.60400390625,132.78399658203125 C155.0780029296875,85.18800354003906 81.03399658203125,66.99500274658203 60.21900177001953,61.40800094604492 C38.57500076293945,55.59700012207031 -23.865999221801758,23.695999145507812 -22.381999969482422,5.883999824523926 C-21.165000915527344,-8.725000381469727 21.077999114990234,-32.8120002746582 34.24800109863281,-41.694000244140625 C60.15700149536133,-59.16699981689453 124.16400146484375,-87.63500213623047 123.552001953125,-118.17900085449219 C122.94100189208984,-148.72300720214844 103.26699829101562,-160.41200256347656 80.59400177001953,-170.14999389648438 C60.441001892089844,-178.80599975585938 -15.265000343322754,-191.52499389648438 -43.38199996948242,-187.56900024414062 C-42.856998443603516,-184.06900024414062 -42.25600051879883,-176.27499389648438 -41.73099899291992,-172.77499389648438 C-27.95800018310547,-173.17799377441406 78.697998046875,-139.5240020751953 77.85900115966797,-121.87999725341797 C77.02100372314453,-104.23500061035156 -81.9229965209961,-39.8120002746582 -92.21700286865234,15.527000427246094 C-102.1449966430664,68.89800262451172 94.11900329589844,116.23500061035156 92.48200225830078,130.55099487304688 C90.84500122070312,144.86599731445312 -31.04199981689453,151.0919952392578 -60.31999969482422,148.80099487304688 C-89.5979995727539,146.50999450683594 -144.9219970703125,133.18800354003906 -201.9219970703125,108.07499694824219 C-200.69700622558594,145.52499389648438 -199.4720001220703,182.97500610351562 -198.2469940185547,220.427001953125 C-123.52999877929688,240.08299255371094 -43.59700012207031,236.322998046875 -21.31999969482422,235.6510009765625 C0.9570000171661377,234.97900390625 162.25599670410156,220.4459991455078 157.60400390625,132.78399658203125z"/></mask><linearGradient id="__lottie_element_414" spreadMethod="pad" gradientUnits="userSpaceOnUse" x1="-42.80500030517578" y1="-186.99200439453125" x2="-62.27299880981445" y2="213.58999633789062"><stop stop-color="rgb(255,255,255)" offset="0%" stop-opacity="1"/><stop stop-color="rgb(255,255,255)" offset="50%" stop-opacity="0.5899999737739563"/><stop stop-color="rgb(255,255,255)" offset="100%" stop-opacity="0.18000000715255737"/></linearGradient></defs><g clip-path="url(#__lottie_element_363)"><g transform="matrix(1,0,0,1,25,67.5)" opacity="1" style="display: block;"><g opacity="1" transform="matrix(1,0,0,1,201.9219970703125,188.31199645996094)"><path fill="url(#__lottie_element_413)" mask="url(#__lottie_element_415)" fill-opacity="1" d="M0 0 M157.60400390625,132.78399658203125 C155.0780029296875,85.18800354003906 81.03399658203125,66.99500274658203 60.21900177001953,61.40800094604492 C38.57500076293945,55.59700012207031 -23.865999221801758,23.695999145507812 -22.381999969482422,5.883999824523926 C-21.165000915527344,-8.725000381469727 21.077999114990234,-32.8120002746582 34.24800109863281,-41.694000244140625 C60.15700149536133,-59.16699981689453 124.16400146484375,-87.63500213623047 123.552001953125,-118.17900085449219 C122.94100189208984,-148.72300720214844 103.26699829101562,-160.41200256347656 80.59400177001953,-170.14999389648438 C60.441001892089844,-178.80599975585938 -15.265000343322754,-191.52499389648438 -43.38199996948242,-187.56900024414062 C-42.856998443603516,-184.06900024414062 -42.25600051879883,-176.27499389648438 -41.73099899291992,-172.77499389648438 C-27.95800018310547,-173.17799377441406 78.697998046875,-139.5240020751953 77.85900115966797,-121.87999725341797 C77.02100372314453,-104.23500061035156 -81.9229965209961,-39.8120002746582 -92.21700286865234,15.527000427246094 C-102.1449966430664,68.89800262451172 94.11900329589844,116.23500061035156 92.48200225830078,130.55099487304688 C90.84500122070312,144.86599731445312 -31.04199981689453,151.0919952392578 -60.31999969482422,148.80099487304688 C-89.5979995727539,146.50999450683594 -144.9219970703125,133.18800354003906 -201.9219970703125,108.07499694824219 C-200.69700622558594,145.52499389648438 -199.4720001220703,182.97500610351562 -198.2469940185547,220.427001953125 C-123.52999877929688,240.08299255371094 -43.59700012207031,236.322998046875 -21.31999969482422,235.6510009765625 C0.9570000171661377,234.97900390625 162.25599670410156,220.4459991455078 157.60400390625,132.78399658203125z"/></g></g><g transform="matrix(1,0,0,1,25,67.5)" opacity="1" style="display: block;"><g opacity="1" transform="matrix(1,0,0,1,201.9219970703125,188.31199645996094)"><path fill="url(#__lottie_element_407)" mask="url(#__lottie_element_409)" fill-opacity="1" d="M0 0 M157.60400390625,132.78399658203125 C155.0780029296875,85.18800354003906 81.03399658203125,66.99500274658203 60.21900177001953,61.40800094604492 C38.57500076293945,55.59700012207031 -23.865999221801758,23.695999145507812 -22.381999969482422,5.883999824523926 C-21.165000915527344,-8.725000381469727 21.077999114990234,-32.8120002746582 34.24800109863281,-41.694000244140625 C60.15700149536133,-59.16699981689453 124.16400146484375,-87.63500213623047 123.552001953125,-118.17900085449219 C122.94100189208984,-148.72300720214844 103.26699829101562,-160.41200256347656 80.59400177001953,-170.14999389648438 C60.441001892089844,-178.80599975585938 -15.265000343322754,-191.52499389648438 -43.38199996948242,-187.56900024414062 C-42.856998443603516,-184.06900024414062 -42.25600051879883,-176.27499389648438 -41.73099899291992,-172.77499389648438 C-27.95800018310547,-173.17799377441406 78.697998046875,-139.5240020751953 77.85900115966797,-121.87999725341797 C77.02100372314453,-104.23500061035156 -81.9229965209961,-39.8120002746582 -92.21700286865234,15.527000427246094 C-102.1449966430664,68.89800262451172 94.11900329589844,116.23500061035156 92.48200225830078,130.55099487304688 C90.84500122070312,144.86599731445312 -31.04199981689453,151.0919952392578 -60.31999969482422,148.80099487304688 C-89.5979995727539,146.50999450683594 -144.9219970703125,133.18800354003906 -201.9219970703125,108.07499694824219 C-200.69700622558594,145.52499389648438 -199.4720001220703,182.97500610351562 -198.2469940185547,220.427001953125 C-123.52999877929688,240.08299255371094 -43.59700012207031,236.322998046875 -21.31999969482422,235.6510009765625 C0.9570000171661377,234.97900390625 162.25599670410156,220.4459991455078 157.60400390625,132.78399658203125z"/></g></g><g transform="matrix(1,0,0,1,44.244998931884766,94.09999084472656)" opacity="1" style="display: block;"><g opacity="1" transform="matrix(1,0,0,1,20.82900047302246,117.46199798583984)"><path fill="rgb(0,0,60)" fill-opacity="1" d=" M-0.0010000000474974513,-114.3239974975586 C11.36400032043457,-114.3239974975586 20.577999114990234,-63.138999938964844 20.577999114990234,0.0010000000474974513 C20.577999114990234,63.138999938964844 11.36400032043457,114.3239974975586 -0.0010000000474974513,114.3239974975586 C-11.366000175476074,114.3239974975586 -20.577999114990234,63.138999938964844 -20.577999114990234,0.0010000000474974513 C-20.577999114990234,-63.138999938964844 -11.366000175476074,-114.3239974975586 -0.0010000000474974513,-114.3239974975586z"/></g><g opacity="1" transform="matrix(1,0,0,1,54.37300109863281,63.82099914550781)"><path fill="rgb(255,255,255)" fill-opacity="1" d=" M1.9620000123977661,-38.766998291015625 C-1.4709999561309814,-37.7859992980957 3.434000015258789,-1.9859999418258667 0.0010000000474974513,-1.9859999418258667 C-3.431999921798706,-1.9859999418258667 -4.414000034332275,-29.450000762939453 -9.317999839782715,-28.4689998626709 C-14.222999572753906,-27.488000869750977 -9.317000389099121,-7.38100004196167 -8.82699966430664,6.35099983215332 C-8.434000015258789,17.336999893188477 -8.741000175476074,34.354000091552734 -8.57699966430664,39.74800109863281 C-8.413000106811523,45.141998291015625 -7.618000030517578,162.07899475097656 -2.868000030517578,161.82899475097656 C1.8819999694824219,161.57899475097656 9.260000228881836,37.21900177001953 9.260000228881836,37.21900177001953 C11.222000122070312,-10.35200023651123 5.394999980926514,-39.74800109863281 1.9620000123977661,-38.766998291015625z"/><path stroke-linecap="round" stroke-linejoin="round" fill-opacity="0" stroke="rgb(41,24,61)" stroke-opacity="1" stroke-width="3.43" d=" M1.9620000123977661,-38.766998291015625 C-1.4709999561309814,-37.7859992980957 3.434000015258789,-1.9859999418258667 0.0010000000474974513,-1.9859999418258667 C-3.431999921798706,-1.9859999418258667 -4.414000034332275,-29.450000762939453 -9.317999839782715,-28.4689998626709 C-14.222999572753906,-27.488000869750977 -9.317000389099121,-7.38100004196167 -8.82699966430664,6.35099983215332 C-8.434000015258789,17.336999893188477 -8.741000175476074,34.354000091552734 -8.57699966430664,39.74800109863281 C-8.413000106811523,45.141998291015625 -7.618000030517578,162.07899475097656 -2.868000030517578,161.82899475097656 C1.8819999694824219,161.57899475097656 9.260000228881836,37.21900177001953 9.260000228881836,37.21900177001953 C11.222000122070312,-10.35200023651123 5.394999980926514,-39.74800109863281 1.9620000123977661,-38.766998291015625z"/></g><g opacity="1" transform="matrix(1,0,0,1,45.55099868774414,13.371000289916992)"><path fill="rgb(255,255,255)" fill-opacity="1" d=" M2.9179999828338623,8.553999900817871 C9.378000259399414,6.381999969482422 3.558000087738037,-9.9399995803833 -2.9100000858306885,-8.355999946594238 C-9.378000259399414,-6.771999835968018 -4.175000190734863,9.9399995803833 2.9179999828338623,8.553999900817871z"/><path stroke-linecap="round" stroke-linejoin="round" fill-opacity="0" stroke="rgb(41,24,61)" stroke-opacity="1" stroke-width="3.43" d=" M2.9179999828338623,8.553999900817871 C9.378000259399414,6.381999969482422 3.558000087738037,-9.9399995803833 -2.9100000858306885,-8.355999946594238 C-9.378000259399414,-6.771999835968018 -4.175000190734863,9.9399995803833 2.9179999828338623,8.553999900817871z"/></g><g opacity="1" transform="matrix(1,0,0,1,72.78800201416016,188.58599853515625)"><path fill="rgb(255,255,255)" fill-opacity="1" d=" M0.8420000076293945,-79.81099700927734 C-4.9079999923706055,-79.18599700927734 -3.4170000553131104,-25.209999084472656 -3.6630001068115234,-19.26099967956543 C-3.9089999198913574,-13.312000274658203 -4.9770002365112305,17.76099967956543 -0.9480000138282776,17.027999877929688 C2.2739999294281006,16.441999435424805 4.488999843597412,-5.741000175476074 4.9770002365112305,-15.506999969482422 C4.9770002365112305,-15.506999969482422 6.5920000076293945,-80.43599700927734 0.8420000076293945,-79.81099700927734z"/><path stroke-linecap="round" stroke-linejoin="round" fill-opacity="0" stroke="rgb(41,24,61)" stroke-opacity="1" stroke-width="3.43" d=" M0.8420000076293945,-79.81099700927734 C-4.9079999923706055,-79.18599700927734 -3.4170000553131104,-25.209999084472656 -3.6630001068115234,-19.26099967956543 C-3.9089999198913574,-13.312000274658203 -4.9770002365112305,17.76099967956543 -0.9480000138282776,17.027999877929688 C2.2739999294281006,16.441999435424805 4.488999843597412,-5.741000175476074 4.9770002365112305,-15.506999969482422 C4.9770002365112305,-15.506999969482422 6.5920000076293945,-80.43599700927734 0.8420000076293945,-79.81099700927734z"/></g></g><g transform="matrix(1,0,0,1,360.3529968261719,8.125)" opacity="1" style="display: block;"><g opacity="1" transform="matrix(1,0,0,1,53.40700149536133,152.43699645996094)"><path fill="rgb(0,0,60)" fill-opacity="1" d=" M0,-114.3239974975586 C11.364999771118164,-114.3239974975586 20.577999114990234,-63.138999938964844 20.577999114990234,0.0010000000474974513 C20.577999114990234,63.138999938964844 11.364999771118164,114.3239974975586 0,114.3239974975586 C-11.364999771118164,114.3239974975586 -20.577999114990234,63.138999938964844 -20.577999114990234,0.0010000000474974513 C-20.577999114990234,-63.138999938964844 -11.364999771118164,-114.3239974975586 0,-114.3239974975586z"/></g><g opacity="1" transform="matrix(1,0,0,1,52.255001068115234,60.025001525878906)"><path fill="rgb(136,208,255)" fill-opacity="1" d=" M14.10099983215332,12.800999641418457 C9.04800033569336,10.442999839782715 11.069000244140625,-18.19099998474121 5.3420000076293945,-21.222999572753906 C-0.38499999046325684,-24.253999710083008 0.289000004529953,3.7060000896453857 -2.069000005722046,23.917999267578125 C-3.0859999656677246,32.64400100708008 -7.459000110626221,16.8439998626709 -9.480999946594238,19.20199966430664 C-11.501999855041504,21.559999465942383 -9.144000053405762,56.59600067138672 -15.543999671936035,56.59600067138672 C-21.94499969482422,56.59600067138672 -18.958999633789062,29.920000076293945 -18.43400001525879,1.4609999656677246 C-17.908000946044922,-26.996999740600586 -1.7319999933242798,-56.595001220703125 11.406000137329102,-41.77299880981445 C21.945999145507812,-29.881999969482422 19.15399932861328,15.159000396728516 14.10099983215332,12.800999641418457z"/><path fill="rgb(255,255,255)" fill-opacity="1" d=" M14.10099983215332,12.800999641418457 C9.04800033569336,10.442999839782715 11.069000244140625,-18.19099998474121 5.3420000076293945,-21.222999572753906 C-0.38499999046325684,-24.253999710083008 0.289000004529953,3.7060000896453857 -2.069000005722046,23.917999267578125 C-3.0859999656677246,32.64400100708008 -7.459000110626221,16.8439998626709 -9.480999946594238,19.20199966430664 C-11.501999855041504,21.559999465942383 -9.144000053405762,56.59600067138672 -15.543999671936035,56.59600067138672 C-21.94499969482422,56.59600067138672 -18.958999633789062,29.920000076293945 -18.43400001525879,1.4609999656677246 C-17.908000946044922,-26.996999740600586 -1.7319999933242798,-56.595001220703125 11.406000137329102,-41.77299880981445 C21.945999145507812,-29.881999969482422 19.15399932861328,15.159000396728516 14.10099983215332,12.800999641418457z"/><path stroke-linecap="round" stroke-linejoin="round" fill-opacity="0" stroke="rgb(41,24,61)" stroke-opacity="1" stroke-width="3.43" d=" M14.10099983215332,12.800999641418457 C9.04800033569336,10.442999839782715 11.069000244140625,-18.19099998474121 5.3420000076293945,-21.222999572753906 C-0.38499999046325684,-24.253999710083008 0.289000004529953,3.7060000896453857 -2.069000005722046,23.917999267578125 C-3.0859999656677246,32.64400100708008 -7.459000110626221,16.8439998626709 -9.480999946594238,19.20199966430664 C-11.501999855041504,21.559999465942383 -9.144000053405762,56.59600067138672 -15.543999671936035,56.59600067138672 C-21.94499969482422,56.59600067138672 -18.958999633789062,29.920000076293945 -18.43400001525879,1.4609999656677246 C-17.908000946044922,-26.996999740600586 -1.7319999933242798,-56.595001220703125 11.406000137329102,-41.77299880981445 C21.945999145507812,-29.881999969482422 19.15399932861328,15.159000396728516 14.10099983215332,12.800999641418457z"/></g><g opacity="1" transform="matrix(1,0,0,1,41.71799850463867,269.6440124511719)"><path fill="rgb(255,255,255)" fill-opacity="1" d=" M-16.542999267578125,-19.38800048828125 C-20.3799991607666,-25.84600067138672 -20.381000518798828,-42.20600128173828 -25.92300033569336,-40.48400115966797 C-32.53099822998047,-40.17599868774414 -38.28900146484375,-18.7450008392334 -25.92300033569336,-6.313000202178955 C-15.810999870300293,3.8550000190734863 -16.058000564575195,14.300999641418457 -6.031000137329102,24.554000854492188 C11.229000091552734,42.207000732421875 33.106998443603516,34.4630012512207 35.698001861572266,27.983999252319336 C38.28900146484375,21.506999969482422 2.5439999103546143,37.13100051879883 -1.194000005722046,3.430000066757202 C1.3630000352859497,-3.8889999389648438 -12.704999923706055,-12.930000305175781 -16.542999267578125,-19.38800048828125z"/><path stroke-linecap="round" stroke-linejoin="round" fill-opacity="0" stroke="rgb(41,24,61)" stroke-opacity="1" stroke-width="3.43" d=" M-16.542999267578125,-19.38800048828125 C-20.3799991607666,-25.84600067138672 -20.381000518798828,-42.20600128173828 -25.92300033569336,-40.48400115966797 C-32.53099822998047,-40.17599868774414 -38.28900146484375,-18.7450008392334 -25.92300033569336,-6.313000202178955 C-15.810999870300293,3.8550000190734863 -16.058000564575195,14.300999641418457 -6.031000137329102,24.554000854492188 C11.229000091552734,42.207000732421875 33.106998443603516,34.4630012512207 35.698001861572266,27.983999252319336 C38.28900146484375,21.506999969482422 2.5439999103546143,37.13100051879883 -1.194000005722046,3.430000066757202 C1.3630000352859497,-3.8889999389648438 -12.704999923706055,-12.930000305175781 -16.542999267578125,-19.38800048828125z"/></g><g opacity="1" transform="matrix(1,0,0,1,74.01399993896484,281.52899169921875)"><path fill="rgb(255,255,255)" fill-opacity="1" d=" M-18.23200035095215,-0.44699999690055847 C-28.31999969482422,-16.548999786376953 4.698999881744385,10.694000244140625 15.560999870300293,-17.233999252319336 C19.06100082397461,-20.05500030517578 28.31999969482422,-15.909000396728516 24.57900047302246,-6.888000011444092 C13.402000427246094,20.054000854492188 -18.23200035095215,-0.44699999690055847 -18.23200035095215,-0.44699999690055847z"/><path stroke-linecap="round" stroke-linejoin="round" fill-opacity="0" stroke="rgb(41,24,61)" stroke-opacity="1" stroke-width="3.43" d=" M-18.23200035095215,-0.44699999690055847 C-28.31999969482422,-16.548999786376953 4.698999881744385,10.694000244140625 15.560999870300293,-17.233999252319336 C19.06100082397461,-20.05500030517578 28.31999969482422,-15.909000396728516 24.57900047302246,-6.888000011444092 C13.402000427246094,20.054000854492188 -18.23200035095215,-0.44699999690055847 -18.23200035095215,-0.44699999690055847z"/></g><g opacity="1" transform="matrix(1,0,0,1,15.838000297546387,116.80500030517578)"><path fill="rgb(255,255,255)" fill-opacity="1" d=" M1.9160000085830688,-20.136999130249023 C-2.625999927520752,-20.43899917602539 -6.261000156402588,-2.2709999084472656 -7.4720001220703125,20.43899917602539 C-7.4720001220703125,20.43899917602539 -8.190999984741211,34.56999969482422 -8.190999984741211,40.81999969482422 C-8.190999984741211,47.06999969482422 -4.690999984741211,65.06999969482422 -1.190999984741211,65.81999969482422 C2.309000015258789,66.56999969482422 3.128000020980835,19.83300018310547 3.128000020980835,19.83300018310547 C2.5230000019073486,-0.7580000162124634 7.4710001945495605,-19.767000198364258 1.9160000085830688,-20.136999130249023z"/><path stroke-linecap="round" stroke-linejoin="round" fill-opacity="0" stroke="rgb(41,24,61)" stroke-opacity="1" stroke-width="3.43" d=" M1.9160000085830688,-20.136999130249023 C-2.625999927520752,-20.43899917602539 -6.261000156402588,-2.2709999084472656 -7.4720001220703125,20.43899917602539 C-7.4720001220703125,20.43899917602539 -8.190999984741211,34.56999969482422 -8.190999984741211,40.81999969482422 C-8.190999984741211,47.06999969482422 -4.690999984741211,65.06999969482422 -1.190999984741211,65.81999969482422 C2.309000015258789,66.56999969482422 3.128000020980835,19.83300018310547 3.128000020980835,19.83300018310547 C2.5230000019073486,-0.7580000162124634 7.4710001945495605,-19.767000198364258 1.9160000085830688,-20.136999130249023z"/></g></g><g transform="matrix(1,0,0,1,20.910999298095703,78.697998046875)" opacity="1" style="display: block;"><g opacity="1" transform="matrix(1,0,0,1,32.237998962402344,144.56399536132812)"><path fill="rgb(255,255,255)" fill-opacity="1" d=" M9.133000373840332,3.9049999713897705 C-1.1480000019073486,3.9049999713897705 5.650000095367432,-17.600000381469727 -1.1510000228881836,-18.273000717163086 C-7.952000141143799,-18.945999145507812 -8.694000244140625,-11.232000350952148 -7.184999942779541,20.447999954223633 C-5.677000045776367,52.12799835205078 6.894999980926514,102.91600036621094 10.916999816894531,102.91600036621094 C14.9399995803833,102.91600036621094 17.454999923706055,82.802001953125 15.946000099182129,71.73899841308594 C14.437000274658203,60.67599868774414 22.986000061035156,51.12200164794922 24.996999740600586,63.694000244140625 C27.009000778198242,76.26499938964844 22.986000061035156,141.13400268554688 10.414999961853027,140.6320037841797 C-2.1570000648498535,140.12899780273438 -13.722000122070312,95.3740005493164 -20.260000228881836,61.17900085449219 C-26.797000885009766,26.985000610351562 -28.808000564575195,-23.299999237060547 -26.29400062561035,-48.44200134277344 C-23.780000686645508,-73.58499908447266 -17.329999923706055,-68.3740005493164 -12.803999900817871,-56.30500030517578 C-8.277999877929688,-44.236000061035156 -4.168000221252441,-53.9739990234375 -2.6600000858306885,-81.12799835205078 C-2.8940000534057617,-123.802001953125 14.357999801635742,-141.13400268554688 23.409000396728516,-139.1230010986328 C28.808000564575195,-130.10299682617188 14.718000411987305,-127.49199676513672 12.984000205993652,-104.36799621582031 C11.25,-81.24400329589844 19.413999557495117,3.9049999713897705 9.133000373840332,3.9049999713897705z"/><path stroke-linecap="round" stroke-linejoin="round" fill-opacity="0" stroke="rgb(41,24,61)" stroke-opacity="1" stroke-width="3.43" d=" M9.133000373840332,3.9049999713897705 C-1.1480000019073486,3.9049999713897705 5.650000095367432,-17.600000381469727 -1.1510000228881836,-18.273000717163086 C-7.952000141143799,-18.945999145507812 -8.694000244140625,-11.232000350952148 -7.184999942779541,20.447999954223633 C-5.677000045776367,52.12799835205078 6.894999980926514,102.91600036621094 10.916999816894531,102.91600036621094 C14.9399995803833,102.91600036621094 17.454999923706055,82.802001953125 15.946000099182129,71.73899841308594 C14.437000274658203,60.67599868774414 22.986000061035156,51.12200164794922 24.996999740600586,63.694000244140625 C27.009000778198242,76.26499938964844 22.986000061035156,141.13400268554688 10.414999961853027,140.6320037841797 C-2.1570000648498535,140.12899780273438 -13.722000122070312,95.3740005493164 -20.260000228881836,61.17900085449219 C-26.797000885009766,26.985000610351562 -28.808000564575195,-23.299999237060547 -26.29400062561035,-48.44200134277344 C-23.780000686645508,-73.58499908447266 -17.329999923706055,-68.3740005493164 -12.803999900817871,-56.30500030517578 C-8.277999877929688,-44.236000061035156 -4.168000221252441,-53.9739990234375 -2.6600000858306885,-81.12799835205078 C-2.8940000534057617,-123.802001953125 14.357999801635742,-141.13400268554688 23.409000396728516,-139.1230010986328 C28.808000564575195,-130.10299682617188 14.718000411987305,-127.49199676513672 12.984000205993652,-104.36799621582031 C11.25,-81.24400329589844 19.413999557495117,3.9049999713897705 9.133000373840332,3.9049999713897705z"/></g></g><g transform="matrix(1,0,0,1,-2.7119998931884766,240.51101684570312)" opacity="1" style="display: block;"><g opacity="1" transform="matrix(1,0,0,1,23.67300033569336,59.141998291015625)"><path fill="rgb(255,255,255)" fill-opacity="1" d=" M12.442999839782715,54.597999572753906 C4.64300012588501,55.71200180053711 -20.242000579833984,-54.22600173950195 -9.842000007629395,-55.71200180053711 C1.3009999990463257,-54.597999572753906 -1.2990000247955322,-32.3129997253418 0.1860000044107437,-19.68400001525879 C1.6720000505447388,-7.056000232696533 20.243000030517578,53.48400115966797 12.442999839782715,54.597999572753906z"/><path stroke-linecap="round" stroke-linejoin="round" fill-opacity="0" stroke="rgb(41,24,61)" stroke-opacity="1" stroke-width="3.43" d=" M12.442999839782715,54.597999572753906 C4.64300012588501,55.71200180053711 -20.242000579833984,-54.22600173950195 -9.842000007629395,-55.71200180053711 C1.3009999990463257,-54.597999572753906 -1.2990000247955322,-32.3129997253418 0.1860000044107437,-19.68400001525879 C1.6720000505447388,-7.056000232696533 20.243000030517578,53.48400115966797 12.442999839782715,54.597999572753906z"/></g></g><g transform="matrix(1,0,0,1,17.178001403808594,106.05599975585938)" opacity="1" style="display: block;"><g opacity="1" transform="matrix(1,0,0,1,13.928000450134277,16.812999725341797)"><path fill="rgb(255,255,255)" fill-opacity="1" d=" M-1.2510000467300415,12.125 C7.711999893188477,13.381999969482422 10.498000144958496,-9.461000442504883 1.8739999532699585,-11.42199993133545 C-6.748000144958496,-13.383000373840332 -10.498000144958496,9.557000160217285 -1.2510000467300415,12.125z"/><path stroke-linecap="round" stroke-linejoin="round" fill-opacity="0" stroke="rgb(41,24,61)" stroke-opacity="1" stroke-width="3.43" d=" M-1.2510000467300415,12.125 C7.711999893188477,13.381999969482422 10.498000144958496,-9.461000442504883 1.8739999532699585,-11.42199993133545 C-6.748000144958496,-13.383000373840332 -10.498000144958496,9.557000160217285 -1.2510000467300415,12.125z"/></g></g><g transform="matrix(1,0,0,1,250,190)" opacity="1" style="display: block;"><g opacity="1" transform="matrix(1,0,0,1,-163.9429931640625,173.093994140625)"><path fill="rgb(255,255,255)" fill-opacity="1" d=" M0.289000004529953,-2.4560000896453857 C2.8910000324249268,-6.791999816894531 2.8910000324249268,-17.775999069213867 6.6479997634887695,-16.618999481201172 C11.85099983215332,6.505000114440918 -8.383000373840332,17.775999069213867 -10.116999626159668,12.86299991607666 C-11.85099983215332,7.948999881744385 -2.312999963760376,1.8799999952316284 0.289000004529953,-2.4560000896453857z"/><path stroke-linecap="round" stroke-linejoin="round" fill-opacity="0" stroke="rgb(41,24,61)" stroke-opacity="1" stroke-width="3.43" d=" M0.289000004529953,-2.4560000896453857 C2.8910000324249268,-6.791999816894531 2.8910000324249268,-17.775999069213867 6.6479997634887695,-16.618999481201172 C11.85099983215332,6.505000114440918 -8.383000373840332,17.775999069213867 -10.116999626159668,12.86299991607666 C-11.85099983215332,7.948999881744385 -2.312999963760376,1.8799999952316284 0.289000004529953,-2.4560000896453857z"/></g></g><g transform="matrix(1,0,0,1,379.4420166015625,82.14900207519531)" opacity="1" style="display: block;"><g opacity="1" transform="matrix(1,0,0,1,44.97700119018555,101.68099975585938)"><path fill="rgb(255,255,255)" fill-opacity="1" d=" M13.428000450134277,-97.9800033569336 C3.068000078201294,-98.2509994506836 5.863999843597412,2.9619998931884766 4.659999847412109,19.409000396728516 C3.4549999237060547,35.856998443603516 -4.767000198364258,44.643001556396484 -10.562000274658203,42.57400131225586 C-15.197999954223633,40.917999267578125 -16.718000411987305,34.54800033569336 -17.68400001525879,26.54599952697754 C-18.649999618530273,18.54400062561035 -23.420000076293945,14.420999526977539 -32.16999816894531,15.420999526977539 C-40.91999816894531,16.42099952697754 -41.54800033569336,26.190000534057617 -41.54800033569336,26.190000534057617 C-40.47999954223633,44.71099853515625 -21.885000228881836,86.33000183105469 -12.946000099182129,91.62799835205078 C-1.7699999809265137,98.25 -2.7899999618530273,68.37699890136719 4.659999847412109,69.61900329589844 C12.109000205993652,70.86100006103516 8.02299976348877,80.38099670410156 13.817999839782715,75 C19.61199951171875,69.62000274658203 20.027000427246094,21.19499969482422 22.92300033569336,24.506000518798828 C25.820999145507812,27.816999435424805 23.336000442504883,65.8949966430664 30.37299919128418,69.61900329589844 C36.994998931884766,69.20500183105469 41.54800033569336,-27.229999542236328 37.40999984741211,-31.783000946044922 C33.270999908447266,-36.33599853515625 26.64900016784668,-27.643999099731445 22.92300033569336,-31.368999481201172 C19.198999404907227,-35.09400177001953 23.790000915527344,-97.70999908447266 13.428000450134277,-97.9800033569336z"/><path stroke-linecap="round" stroke-linejoin="round" fill-opacity="0" stroke="rgb(41,24,61)" stroke-opacity="1" stroke-width="3.43" d=" M13.428000450134277,-97.9800033569336 C3.068000078201294,-98.2509994506836 5.863999843597412,2.9619998931884766 4.659999847412109,19.409000396728516 C3.4549999237060547,35.856998443603516 -4.767000198364258,44.643001556396484 -10.562000274658203,42.57400131225586 C-15.197999954223633,40.917999267578125 -16.718000411987305,34.54800033569336 -17.68400001525879,26.54599952697754 C-18.649999618530273,18.54400062561035 -23.420000076293945,14.420999526977539 -32.16999816894531,15.420999526977539 C-40.91999816894531,16.42099952697754 -41.54800033569336,26.190000534057617 -41.54800033569336,26.190000534057617 C-40.47999954223633,44.71099853515625 -21.885000228881836,86.33000183105469 -12.946000099182129,91.62799835205078 C-1.7699999809265137,98.25 -2.7899999618530273,68.37699890136719 4.659999847412109,69.61900329589844 C12.109000205993652,70.86100006103516 8.02299976348877,80.38099670410156 13.817999839782715,75 C19.61199951171875,69.62000274658203 20.027000427246094,21.19499969482422 22.92300033569336,24.506000518798828 C25.820999145507812,27.816999435424805 23.336000442504883,65.8949966430664 30.37299919128418,69.61900329589844 C36.994998931884766,69.20500183105469 41.54800033569336,-27.229999542236328 37.40999984741211,-31.783000946044922 C33.270999908447266,-36.33599853515625 26.64900016784668,-27.643999099731445 22.92300033569336,-31.368999481201172 C19.198999404907227,-35.09400177001953 23.790000915527344,-97.70999908447266 13.428000450134277,-97.9800033569336z"/></g></g><g transform="matrix(1,0,0,1,467.291015625,118.20199584960938)" opacity="1" style="display: block;"><g opacity="1" transform="matrix(1,0,0,1,9.782999992370605,37.560001373291016)"><path fill="rgb(255,255,255)" fill-opacity="1" d=" M0.05999999865889549,33.86199951171875 C4.7769999504089355,33.595001220703125 6.353000164031982,-34.130001068115234 0.06400000303983688,-33.77399826049805 C-6.354000091552734,-31.79800033569336 -2.178999900817871,-18.975000381469727 -1.5529999732971191,-11.357999801635742 C-0.9269999861717224,-3.742000102996826 -4.6570000648498535,34.12900161743164 0.05999999865889549,33.86199951171875z"/><path stroke-linecap="round" stroke-linejoin="round" fill-opacity="0" stroke="rgb(41,24,61)" stroke-opacity="1" stroke-width="3.43" d=" M0.05999999865889549,33.86199951171875 C4.7769999504089355,33.595001220703125 6.353000164031982,-34.130001068115234 0.06400000303983688,-33.77399826049805 C-6.354000091552734,-31.79800033569336 -2.178999900817871,-18.975000381469727 -1.5529999732971191,-11.357999801635742 C-0.9269999861717224,-3.742000102996826 -4.6570000648498535,34.12900161743164 0.05999999865889549,33.86199951171875z"/></g></g><g transform="matrix(1,0,0,1,440.52899169921875,13.985992431640625)" opacity="1" style="display: block;"><g opacity="1" transform="matrix(1,0,0,1,12.489999771118164,32.41899871826172)"><path fill="rgb(255,255,255)" fill-opacity="1" d=" M0.48500001430511475,24.572999954223633 C-6.059999942779541,11.157999992370605 -4.2829999923706055,-15.503999710083008 -0.36000001430511475,-18.83099937438965 C0.48100000619888306,-25.405000686645508 5.214000225067139,-19.48900032043457 7.136000156402588,-9.869999885559082 C9.0600004196167,-0.25200000405311584 7.031000137329102,37.987998962402344 0.48500001430511475,24.572999954223633z"/><path stroke-linecap="round" stroke-linejoin="round" fill-opacity="0" stroke="rgb(41,24,61)" stroke-opacity="1" stroke-width="3.43" d=" M0.48500001430511475,24.572999954223633 C-6.059999942779541,11.157999992370605 -4.2829999923706055,-15.503999710083008 -0.36000001430511475,-18.83099937438965 C0.48100000619888306,-25.405000686645508 5.214000225067139,-19.48900032043457 7.136000156402588,-9.869999885559082 C9.0600004196167,-0.25200000405311584 7.031000137329102,37.987998962402344 0.48500001430511475,24.572999954223633z"/></g></g><g transform="matrix(1,0,0,1,244.28701782226562,282.70611572265625)" opacity="1" style="display: block;"><g opacity="1" transform="matrix(1,0,0,1,89.18900299072266,132.1929931640625)"><path fill="rgb(151,206,225)" fill-opacity="1" d=" M75.11493682861328,-3.4880423545837402 C62.8516845703125,33.24966049194336 12.943879127502441,45.089351654052734 -22.477487564086914,37.59184646606445 C-61.455078125,27.275184631347656 -69.32686614990234,7.394737243652344 -74.3248519897461,-3.0978705883026123 C-75.47565460205078,-11.596285820007324 -77.3401870727539,-43.95269775390625 -77.3401870727539,-43.95269775390625 C-77.3401870727539,-43.95269775390625 75.80686950683594,-55.09401321411133 75.80686950683594,-55.09401321411133 C75.80686950683594,-55.09401321411133 76.73011016845703,-32.493080139160156 75.11493682861328,-3.4880423545837402z"/></g><g opacity="1" transform="matrix(1,0,0,1,89.18900299072266,132.1929931640625)"><path stroke-linecap="round" stroke-linejoin="round" fill-opacity="0" stroke="rgb(13,0,37)" stroke-opacity="1" stroke-width="6.18" d=" M75.11493682861328,-3.4880423545837402 C62.8516845703125,33.24966049194336 12.943879127502441,45.089351654052734 -22.477487564086914,37.59184646606445 C-61.455078125,27.275184631347656 -69.32686614990234,7.394737243652344 -74.3248519897461,-3.0978705883026123 C-75.47565460205078,-11.596285820007324 -77.3401870727539,-43.95269775390625 -77.3401870727539,-43.95269775390625 C-77.3401870727539,-43.95269775390625 75.80686950683594,-55.09401321411133 75.80686950683594,-55.09401321411133 C75.80686950683594,-55.09401321411133 76.73011016845703,-32.493080139160156 75.11493682861328,-3.4880423545837402z"/></g><g opacity="1" transform="matrix(1,0,0,1,87.12200164794922,87.12200164794922)"><path fill="rgb(226,241,247)" fill-opacity="1" d=" M15.268198013305664,-59.4572639465332 C62.276912689208984,-53.48813247680664 88.08809661865234,-18.621368408203125 74.5262222290039,15.835090637207031 C60.96420669555664,50.29254913330078 17.26811408996582,68.11310577392578 -23.069719314575195,55.6407356262207 C-63.408687591552734,43.1673698425293 -77.16248321533203,21.645214080810547 -75.22520446777344,-2.8356025218963623 C-72.77472686767578,-39.532814025878906 -26.611042022705078,-64.84203338623047 15.268198013305664,-59.4572639465332z"/></g><g opacity="1" transform="matrix(1,0,0,1,87.12200164794922,87.12200164794922)"><path stroke-linecap="round" stroke-linejoin="round" fill-opacity="0" stroke="rgb(13,0,37)" stroke-opacity="1" stroke-width="6.18" d=" M15.268198013305664,-59.4572639465332 C62.276912689208984,-53.48813247680664 88.08809661865234,-18.621368408203125 74.5262222290039,15.835090637207031 C60.96420669555664,50.29254913330078 17.26811408996582,68.11310577392578 -23.069719314575195,55.6407356262207 C-63.408687591552734,43.1673698425293 -77.16248321533203,21.645214080810547 -75.22520446777344,-2.8356025218963623 C-72.77472686767578,-39.532814025878906 -26.611042022705078,-64.84203338623047 15.268198013305664,-59.4572639465332z"/></g><g opacity="1" transform="matrix(1,0,0,1,139.7830047607422,149.76699829101562)"><path stroke-linecap="round" stroke-linejoin="round" fill-opacity="0" stroke="rgb(13,0,37)" stroke-opacity="1" stroke-width="6.18" d=" M-7.557637691497803,-13.939314842224121 C-7.557637691497803,-13.939314842224121 -7.826882839202881,10.784584999084473 -7.826882839202881,10.784584999084473"/></g><g opacity="1" transform="matrix(1,0,0,1,126.27100372314453,158.88099670410156)"><path stroke-linecap="round" stroke-linejoin="round" fill-opacity="0" stroke="rgb(13,0,37)" stroke-opacity="1" stroke-width="6.18" d=" M-7.1836748123168945,-15.55047607421875 C-7.1836748123168945,-15.55047607421875 -8.149510383605957,7.898011684417725 -8.149510383605957,7.898011684417725"/></g><g opacity="1" transform="matrix(1,0,0,1,0,0)"><g opacity="1" transform="matrix(1,0,0,1,78.05500030517578,57.172000885009766)"><path fill="rgb(116,112,108)" fill-opacity="1" d=" M31.399892807006836,-18.681440353393555 C31.399892807006836,-18.681440353393555 -14.783032417297363,13.747103691101074 -14.783032417297363,13.747103691101074 C-14.783032417297363,13.747103691101074 16.678556442260742,12.716506958007812 16.678556442260742,12.716506958007812 C16.678556442260742,12.716506958007812 31.399892807006836,-18.681440353393555 31.399892807006836,-18.681440353393555z"/></g><g opacity="1" transform="matrix(1,0,0,1,73.80999755859375,88.34100341796875)"><path fill="rgb(32,29,31)" fill-opacity="1" d=" M20.92355728149414,-18.453357696533203 C20.92355728149414,-18.453357696533203 -10.5371675491333,-17.422895431518555 -10.5371675491333,-17.422895431518555 C-10.5371675491333,-17.422895431518555 7.746890544891357,8.965410232543945 7.746890544891357,8.965410232543945 C7.746890544891357,8.965410232543945 20.92355728149414,-18.453357696533203 20.92355728149414,-18.453357696533203z"/></g><g opacity="1" transform="matrix(1,0,0,1,103.88200378417969,64.03299713134766)"><path fill="rgb(28,26,28)" fill-opacity="1" d=" M6.032918453216553,-25.736766815185547 C6.032918453216553,-25.736766815185547 -9.148443222045898,5.855641841888428 -9.148443222045898,5.855641841888428 C-9.148443222045898,5.855641841888428 15.608541488647461,31.152997970581055 15.608541488647461,31.152997970581055 C15.608541488647461,31.152997970581055 6.032918453216553,-25.736766815185547 6.032918453216553,-25.736766815185547z"/></g><g opacity="1" transform="matrix(1,0,0,1,100.1969985961914,88.34100341796875)"><path fill="rgb(9,8,10)" fill-opacity="1" d=" M-5.463443279266357,-18.453357696533203 C-5.463443279266357,-18.453357696533203 -18.640243530273438,8.965410232543945 -18.640243530273438,8.965410232543945 C-18.640243530273438,8.965410232543945 19.29440689086914,6.8458638191223145 19.29440689086914,6.8458638191223145 C19.29440689086914,6.8458638191223145 -5.463443279266357,-18.453357696533203 -5.463443279266357,-18.453357696533203z"/></g><g opacity="1" transform="matrix(1,0,0,1,68.78800201416016,110.43299865722656)"><path fill="rgb(116,112,108)" fill-opacity="1" d=" M-7.902982234954834,-34.54719161987305 C-7.902982234954834,-34.54719161987305 0.06469094008207321,13.310075759887695 0.06469094008207321,13.310075759887695 C0.06469094008207321,13.310075759887695 9.955609321594238,-8.613194465637207 9.955609321594238,-8.613194465637207 C9.955609321594238,-8.613194465637207 -7.902982234954834,-34.54719161987305 -7.902982234954834,-34.54719161987305z"/></g><g opacity="1" transform="matrix(1,0,0,1,95.99099731445312,117.2969970703125)"><path fill="rgb(28,26,28)" fill-opacity="1" d=" M21.13945770263672,-17.132160186767578 C21.13945770263672,-17.132160186767578 -17.247390747070312,-15.478194236755371 -17.247390747070312,-15.478194236755371 C-17.247390747070312,-15.478194236755371 -27.137174606323242,6.4452104568481445 -27.137174606323242,6.4452104568481445 C-27.137174606323242,6.4452104568481445 21.13945770263672,-17.132160186767578 21.13945770263672,-17.132160186767578z"/></g></g></g><g style="display: none;"><g><path/></g><g><path stroke-linecap="round" stroke-linejoin="round" fill-opacity="0"/></g><g><path/></g><g><path stroke-linecap="round" stroke-linejoin="round" fill-opacity="0"/></g><g><path stroke-linecap="round" stroke-linejoin="round" fill-opacity="0"/></g><g><path stroke-linecap="round" stroke-linejoin="round" fill-opacity="0"/></g><g><g><path/></g><g><path/></g><g><path/></g><g><path/></g><g><path/></g><g><path/></g></g></g><g transform="matrix(1,0,0,1,17.263999938964844,-82.09999084472656)" opacity="1" style="display: block;"><g opacity="1" transform="matrix(1,0,0,1,43.263999938964844,236.89898681640625)"><g opacity="1" transform="matrix(1,0,0,1,57.66699981689453,76.41100311279297)"><path fill="rgb(58,54,54)" fill-opacity="1" d=" M-51.584999084472656,-10.678999900817871 C-53.69499969482422,8.288999557495117 -31.69499969482422,33.53900146484375 0.10100000351667404,34.82600021362305 C25.80500030517578,35.28900146484375 38.49300003051758,21.01099967956543 42.23099899291992,15.319999694824219 C45.96900177001953,9.630000114440918 51.834999084472656,-8.232999801635742 51.834999084472656,-8.232999801635742 C51.834999084472656,-8.232999801635742 -45.816001892089844,-41.32600021362305 -45.816001892089844,-41.32600021362305 C-45.816001892089844,-41.32600021362305 -49.821998596191406,-30.12299919128418 -51.584999084472656,-10.678999900817871z"/><path stroke-linecap="round" stroke-linejoin="round" fill-opacity="0" stroke="rgb(13,0,37)" stroke-opacity="1" stroke-width="4.332" d=" M-51.584999084472656,-10.678999900817871 C-53.69499969482422,8.288999557495117 -31.69499969482422,33.53900146484375 0.10100000351667404,34.82600021362305 C25.80500030517578,35.28900146484375 38.49300003051758,21.01099967956543 42.23099899291992,15.319999694824219 C45.96900177001953,9.630000114440918 51.834999084472656,-8.232999801635742 51.834999084472656,-8.232999801635742 C51.834999084472656,-8.232999801635742 -45.816001892089844,-41.32600021362305 -45.816001892089844,-41.32600021362305 C-45.816001892089844,-41.32600021362305 -49.821998596191406,-30.12299919128418 -51.584999084472656,-10.678999900817871z"/></g><g opacity="1" transform="matrix(1,0,0,1,61.323001861572266,54.47200012207031)"><path fill="rgb(103,103,102)" fill-opacity="1" d=" M-0.23499999940395355,-48.13999938964844 C-29.128999710083008,-48.13999938964844 -50.85100173950195,-30.770000457763672 -52.36899948120117,-5.999000072479248 C-54.0629997253418,21.639999389648438 -29.128999710083008,40.63999938964844 -0.23499999940395355,40.63999938964844 C28.659000396728516,40.63999938964844 53.06399917602539,21.68000030517578 52.263999938964844,-5.999000072479248 C51.64899826049805,-27.270000457763672 28.659000396728516,-48.13999938964844 -0.23499999940395355,-48.13999938964844z"/><path stroke-linecap="round" stroke-linejoin="round" fill-opacity="0" stroke="rgb(13,0,37)" stroke-opacity="1" stroke-width="4.332" d=" M-0.23499999940395355,-48.13999938964844 C-29.128999710083008,-48.13999938964844 -50.85100173950195,-30.770000457763672 -52.36899948120117,-5.999000072479248 C-54.0629997253418,21.639999389648438 -29.128999710083008,40.63999938964844 -0.23499999940395355,40.63999938964844 C28.659000396728516,40.63999938964844 53.06399917602539,21.68000030517578 52.263999938964844,-5.999000072479248 C51.64899826049805,-27.270000457763672 28.659000396728516,-48.13999938964844 -0.23499999940395355,-48.13999938964844z"/></g><g opacity="1" transform="matrix(1,0,0,1,13.409000396728516,86.80799865722656)"><path stroke-linecap="round" stroke-linejoin="round" fill-opacity="0" stroke="rgb(13,0,37)" stroke-opacity="1" stroke-width="4.332" d=" M1.4119999408721924,-13.140999794006348 C1.4119999408721924,-13.140999794006348 -1.6619999408721924,-1.3589999675750732 -1.6619999408721924,-1.3589999675750732"/></g><g opacity="1" transform="matrix(1,0,0,1,21.097000122070312,95.2239990234375)"><path stroke-linecap="round" stroke-linejoin="round" fill-opacity="0" stroke="rgb(13,0,37)" stroke-opacity="1" stroke-width="4.332" d=" M1.4079999923706055,-14.192999839782715 C1.4079999923706055,-14.192999839782715 -1.6579999923706055,-0.3070000112056732 -1.6579999923706055,-0.3070000112056732"/></g></g><g opacity="1" transform="matrix(0.6434671878814697,0.6434671878814697,-0.6434671878814697,0.6434671878814697,155.16537475585938,274.5767517089844)"><g opacity="1" transform="matrix(1,0,0,1,-27.312000274658203,52.6879997253418)"><path fill="rgb(242,179,31)" fill-opacity="1" d=" M7.271999835968018,-17.3799991607666 C7.271999835968018,-17.3799991607666 -16.496000289916992,-19.836999893188477 -16.496000289916992,-19.836999893188477 C-16.496000289916992,-19.836999893188477 -19.150999069213867,4.008999824523926 -19.150999069213867,4.008999824523926 C-19.150999069213867,4.008999824523926 -34.42599868774414,2.5280001163482666 -34.42599868774414,2.5280001163482666 C-34.42599868774414,2.5280001163482666 -30.64699935913086,-36.38399887084961 -30.64699935913086,-36.38399887084961 C-30.64699935913086,-36.38399887084961 8.51200008392334,-32.630001068115234 8.51200008392334,-32.630001068115234 C8.51200008392334,-32.630001068115234 7.271999835968018,-17.3799991607666 7.271999835968018,-17.3799991607666z"/><path stroke-linecap="butt" stroke-linejoin="miter" fill-opacity="0" stroke-miterlimit="4" stroke="rgb(255,255,255)" stroke-opacity="1" stroke-width="0" d=" M7.271999835968018,-17.3799991607666 C7.271999835968018,-17.3799991607666 -16.496000289916992,-19.836999893188477 -16.496000289916992,-19.836999893188477 C-16.496000289916992,-19.836999893188477 -19.150999069213867,4.008999824523926 -19.150999069213867,4.008999824523926 C-19.150999069213867,4.008999824523926 -34.42599868774414,2.5280001163482666 -34.42599868774414,2.5280001163482666 C-34.42599868774414,2.5280001163482666 -30.64699935913086,-36.38399887084961 -30.64699935913086,-36.38399887084961 C-30.64699935913086,-36.38399887084961 8.51200008392334,-32.630001068115234 8.51200008392334,-32.630001068115234 C8.51200008392334,-32.630001068115234 7.271999835968018,-17.3799991607666 7.271999835968018,-17.3799991607666z"/></g><g opacity="1" transform="matrix(-1,0,0,-1,-27.312000274658203,52.6879997253418)"><path fill="rgb(242,179,31)" fill-opacity="1" d=" M14.406999588012695,-10.42199993133545 C14.406999588012695,-10.42199993133545 -9.361000061035156,-12.878999710083008 -9.361000061035156,-12.878999710083008 C-9.361000061035156,-12.878999710083008 -12.015999794006348,10.967000007629395 -12.015999794006348,10.967000007629395 C-12.015999794006348,10.967000007629395 -27.291000366210938,9.486000061035156 -27.291000366210938,9.486000061035156 C-27.291000366210938,9.486000061035156 -23.511999130249023,-29.426000595092773 -23.511999130249023,-29.426000595092773 C-23.511999130249023,-29.426000595092773 15.645999908447266,-25.672000885009766 15.645999908447266,-25.672000885009766 C15.645999908447266,-25.672000885009766 14.406999588012695,-10.42199993133545 14.406999588012695,-10.42199993133545z"/><path stroke-linecap="butt" stroke-linejoin="miter" fill-opacity="0" stroke-miterlimit="4" stroke="rgb(255,255,255)" stroke-opacity="1" stroke-width="0" d=" M14.406999588012695,-10.42199993133545 C14.406999588012695,-10.42199993133545 -9.361000061035156,-12.878999710083008 -9.361000061035156,-12.878999710083008 C-9.361000061035156,-12.878999710083008 -12.015999794006348,10.967000007629395 -12.015999794006348,10.967000007629395 C-12.015999794006348,10.967000007629395 -27.291000366210938,9.486000061035156 -27.291000366210938,9.486000061035156 C-27.291000366210938,9.486000061035156 -23.511999130249023,-29.426000595092773 -23.511999130249023,-29.426000595092773 C-23.511999130249023,-29.426000595092773 15.645999908447266,-25.672000885009766 15.645999908447266,-25.672000885009766 C15.645999908447266,-25.672000885009766 14.406999588012695,-10.42199993133545 14.406999588012695,-10.42199993133545z"/></g><g opacity="1" transform="matrix(1,0,0,1,-50.67399978637695,76.18199920654297)"><path fill="rgb(242,179,31)" fill-opacity="1" d=" M1.6319999694824219,-13.32800006866455 C1.6319999694824219,-13.32800006866455 0.20499999821186066,1.3630000352859497 0.20499999821186066,1.3630000352859497 C0.20499999821186066,1.3630000352859497 -14.487000465393066,-0.06400000303983688 -14.487000465393066,-0.06400000303983688 C-14.487000465393066,-0.06400000303983688 -13.0600004196167,-14.755000114440918 -13.0600004196167,-14.755000114440918 C-13.0600004196167,-14.755000114440918 1.6319999694824219,-13.32800006866455 1.6319999694824219,-13.32800006866455z"/><path stroke-linecap="butt" stroke-linejoin="miter" fill-opacity="0" stroke-miterlimit="4" stroke="rgb(255,255,255)" stroke-opacity="1" stroke-width="0" d=" M1.6319999694824219,-13.32800006866455 C1.6319999694824219,-13.32800006866455 0.20499999821186066,1.3630000352859497 0.20499999821186066,1.3630000352859497 C0.20499999821186066,1.3630000352859497 -14.487000465393066,-0.06400000303983688 -14.487000465393066,-0.06400000303983688 C-14.487000465393066,-0.06400000303983688 -13.0600004196167,-14.755000114440918 -13.0600004196167,-14.755000114440918 C-13.0600004196167,-14.755000114440918 1.6319999694824219,-13.32800006866455 1.6319999694824219,-13.32800006866455z"/></g><g opacity="1" transform="matrix(1,0,0,1,-26.922000885009766,52.67399978637695)"><path fill="rgb(242,179,31)" fill-opacity="1" d=" M3.7929999828338623,-10.92199993133545 C3.7929999828338623,-10.92199993133545 2.365999937057495,3.7690000534057617 2.365999937057495,3.7690000534057617 C2.365999937057495,3.7690000534057617 -12.324999809265137,2.3429999351501465 -12.324999809265137,2.3429999351501465 C-12.324999809265137,2.3429999351501465 -10.89900016784668,-12.348999977111816 -10.89900016784668,-12.348999977111816 C-10.89900016784668,-12.348999977111816 3.7929999828338623,-10.92199993133545 3.7929999828338623,-10.92199993133545z"/><path stroke-linecap="butt" stroke-linejoin="miter" fill-opacity="0" stroke-miterlimit="4" stroke="rgb(255,255,255)" stroke-opacity="1" stroke-width="0" d=" M3.7929999828338623,-10.92199993133545 C3.7929999828338623,-10.92199993133545 2.365999937057495,3.7690000534057617 2.365999937057495,3.7690000534057617 C2.365999937057495,3.7690000534057617 -12.324999809265137,2.3429999351501465 -12.324999809265137,2.3429999351501465 C-12.324999809265137,2.3429999351501465 -10.89900016784668,-12.348999977111816 -10.89900016784668,-12.348999977111816 C-10.89900016784668,-12.348999977111816 3.7929999828338623,-10.92199993133545 3.7929999828338623,-10.92199993133545z"/></g><g opacity="1" transform="matrix(1,0,0,1,-3.2939999103546143,28.75200080871582)"><path fill="rgb(242,179,31)" fill-opacity="1" d=" M5.994999885559082,-8.526000022888184 C5.994999885559082,-8.526000022888184 4.567999839782715,6.164999961853027 4.567999839782715,6.164999961853027 C4.567999839782715,6.164999961853027 -10.12399959564209,4.738999843597412 -10.12399959564209,4.738999843597412 C-10.12399959564209,4.738999843597412 -8.696999549865723,-9.95300006866455 -8.696999549865723,-9.95300006866455 C-8.696999549865723,-9.95300006866455 5.994999885559082,-8.526000022888184 5.994999885559082,-8.526000022888184z"/><path stroke-linecap="butt" stroke-linejoin="miter" fill-opacity="0" stroke-miterlimit="4" stroke="rgb(255,255,255)" stroke-opacity="1" stroke-width="0" d=" M5.994999885559082,-8.526000022888184 C5.994999885559082,-8.526000022888184 4.567999839782715,6.164999961853027 4.567999839782715,6.164999961853027 C4.567999839782715,6.164999961853027 -10.12399959564209,4.738999843597412 -10.12399959564209,4.738999843597412 C-10.12399959564209,4.738999843597412 -8.696999549865723,-9.95300006866455 -8.696999549865723,-9.95300006866455 C-8.696999549865723,-9.95300006866455 5.994999885559082,-8.526000022888184 5.994999885559082,-8.526000022888184z"/></g></g></g><g transform="matrix(1,0,0,1,324.6080017089844,87.10099792480469)" opacity="1" style="display: block;"><g opacity="1" transform="matrix(1,0,0,1,54.79899978637695,72.25299835205078)"><path fill="rgb(126,71,159)" fill-opacity="1" d=" M48.39099884033203,-6.796999931335449 C48.39099884033203,19.41900062561035 25.479000091552734,39.053001403808594 1.7230000495910645,39.124000549316406 C-24.490999221801758,39.124000549316406 -34.92399978637695,23.679000854492188 -38.316001892089844,18.290000915527344 C-41.70899963378906,12.902999877929688 -48.39099884033203,-7.794000148773193 -48.39099884033203,-7.794000148773193 C-48.39099884033203,-7.794000148773193 40.20800018310547,-39.124000549316406 40.20800018310547,-39.124000549316406 C40.20800018310547,-39.124000549316406 46.79100036621094,-25.204999923706055 48.39099884033203,-6.796999931335449z"/><path stroke-linecap="round" stroke-linejoin="round" fill-opacity="0" stroke="rgb(13,0,37)" stroke-opacity="1" stroke-width="4.015" d=" M48.39099884033203,-6.796999931335449 C48.39099884033203,19.41900062561035 25.479000091552734,39.053001403808594 1.7230000495910645,39.124000549316406 C-24.490999221801758,39.124000549316406 -34.92399978637695,23.679000854492188 -38.316001892089844,18.290000915527344 C-41.70899963378906,12.902999877929688 -48.39099884033203,-7.794000148773193 -48.39099884033203,-7.794000148773193 C-48.39099884033203,-7.794000148773193 40.20800018310547,-39.124000549316406 40.20800018310547,-39.124000549316406 C40.20800018310547,-39.124000549316406 46.79100036621094,-25.204999923706055 48.39099884033203,-6.796999931335449z"/></g><g opacity="1" transform="matrix(1,0,0,1,51.481998443603516,51.481998443603516)"><path fill="rgb(219,192,222)" fill-opacity="1" d=" M0,-47.46699905395508 C26.21500015258789,-47.46699905395508 47.46699905395508,-26.21500015258789 47.46699905395508,0 C47.46699905395508,26.215999603271484 26.21500015258789,47.46699905395508 0,47.46699905395508 C-26.215999603271484,47.46699905395508 -47.46699905395508,26.215999603271484 -47.46699905395508,0 C-47.46699905395508,-26.21500015258789 -26.215999603271484,-47.46699905395508 0,-47.46699905395508z"/><path stroke-linecap="round" stroke-linejoin="round" fill-opacity="0" stroke="rgb(13,0,37)" stroke-opacity="1" stroke-width="4.015" d=" M0,-47.46699905395508 C26.21500015258789,-47.46699905395508 47.46699905395508,-26.21500015258789 47.46699905395508,0 C47.46699905395508,26.215999603271484 26.21500015258789,47.46699905395508 0,47.46699905395508 C-26.215999603271484,47.46699905395508 -47.46699905395508,26.215999603271484 -47.46699905395508,0 C-47.46699905395508,-26.21500015258789 -26.215999603271484,-47.46699905395508 0,-47.46699905395508z"/></g><g opacity="1" transform="matrix(1,0,0,1,94.95500183105469,82.09500122070312)"><path stroke-linecap="round" stroke-linejoin="round" fill-opacity="0" stroke="rgb(13,0,37)" stroke-opacity="1" stroke-width="4.015" d=" M-1.3940000534057617,-5.577000141143799 C-1.3940000534057617,-5.577000141143799 1.3940000534057617,5.577000141143799 1.3940000534057617,5.577000141143799"/></g><g opacity="1" transform="matrix(1,0,0,1,87.97799682617188,90.06199645996094)"><path stroke-linecap="round" stroke-linejoin="round" fill-opacity="0" stroke="rgb(13,0,37)" stroke-opacity="1" stroke-width="4.015" d=" M-1.3899999856948853,-6.572999954223633 C-1.3899999856948853,-6.572999954223633 1.3899999856948853,6.572999954223633 1.3899999856948853,6.572999954223633"/></g><g opacity="1" transform="matrix(1,0,0,1,51.481998443603516,51.483001708984375)"><path fill="rgb(75,46,146)" fill-opacity="1" d=" M16.08099937438965,-10.621000289916992 C14.91100025177002,-11.303000450134277 13.447999954223633,-11.303000450134277 12.182000160217285,-10.621000289916992 C12.182000160217285,-10.621000289916992 3.118000030517578,-5.26200008392334 3.118000030517578,-5.26200008392334 C3.118000030517578,-5.26200008392334 -3.0220000743865967,-1.8519999980926514 -3.0220000743865967,-1.8519999980926514 C-3.0220000743865967,-1.8519999980926514 -11.888999938964844,3.506999969482422 -11.888999938964844,3.506999969482422 C-13.059000015258789,4.190000057220459 -14.522000312805176,4.190000057220459 -15.788000106811523,3.506999969482422 C-15.788000106811523,3.506999969482422 -22.70800018310547,-0.6819999814033508 -22.70800018310547,-0.6819999814033508 C-23.87700080871582,-1.3639999628067017 -24.6560001373291,-2.63100004196167 -24.6560001373291,-4.0920000076293945 C-24.6560001373291,-4.0920000076293945 -24.6560001373291,-12.180000305175781 -24.6560001373291,-12.180000305175781 C-24.6560001373291,-13.446999549865723 -23.975000381469727,-14.8100004196167 -22.70800018310547,-15.59000015258789 C-22.70800018310547,-15.59000015258789 -15.788000106811523,-19.680999755859375 -15.788000106811523,-19.680999755859375 C-14.619000434875488,-20.363000869750977 -13.156000137329102,-20.363000869750977 -11.888999938964844,-19.680999755859375 C-11.888999938964844,-19.680999755859375 -4.9710001945495605,-15.491999626159668 -4.9710001945495605,-15.491999626159668 C-3.8010001182556152,-14.809000015258789 -3.0220000743865967,-13.543999671936035 -3.0220000743865967,-12.081999778747559 C-3.0220000743865967,-12.081999778747559 -3.0220000743865967,-6.723999977111816 -3.0220000743865967,-6.723999977111816 C-3.0220000743865967,-6.723999977111816 3.118000030517578,-10.32800006866455 3.118000030517578,-10.32800006866455 C3.118000030517578,-10.32800006866455 3.118000030517578,-15.784000396728516 3.118000030517578,-15.784000396728516 C3.118000030517578,-17.051000595092773 2.436000108718872,-18.413999557495117 1.1690000295639038,-19.194000244140625 C1.1690000295639038,-19.194000244140625 -11.793000221252441,-26.79400062561035 -11.793000221252441,-26.79400062561035 C-12.961999893188477,-27.475000381469727 -14.423999786376953,-27.475000381469727 -15.690999984741211,-26.79400062561035 C-15.690999984741211,-26.79400062561035 -28.944000244140625,-19 -28.944000244140625,-19 C-30.211999893188477,-18.31800079345703 -30.89299964904785,-17.051000595092773 -30.89299964904785,-15.784000396728516 C-30.89299964904785,-15.784000396728516 -30.89299964904785,-0.5849999785423279 -30.89299964904785,-0.5849999785423279 C-30.89299964904785,0.6809999942779541 -30.211999893188477,2.0450000762939453 -28.944000244140625,2.8239998817443848 C-28.944000244140625,2.8239998817443848 -15.885000228881836,10.423999786376953 -15.885000228881836,10.423999786376953 C-14.71500015258789,11.107000350952148 -13.253999710083008,11.107000350952148 -11.987000465393066,10.423999786376953 C-11.987000465393066,10.423999786376953 -3.118000030517578,5.260000228881836 -3.118000030517578,5.260000228881836 C-3.118000030517578,5.260000228881836 3.0209999084472656,1.6549999713897705 3.0209999084472656,1.6549999713897705 C3.0209999084472656,1.6549999713897705 11.890999794006348,-3.507999897003174 11.890999794006348,-3.507999897003174 C13.0600004196167,-4.190000057220459 14.520000457763672,-4.190000057220459 15.788000106811523,-3.507999897003174 C15.788000106811523,-3.507999897003174 22.707000732421875,0.5849999785423279 22.707000732421875,0.5849999785423279 C23.87700080871582,1.2669999599456787 24.6560001373291,2.5329999923706055 24.6560001373291,3.994999885559082 C24.6560001373291,3.994999885559082 24.6560001373291,12.081999778747559 24.6560001373291,12.081999778747559 C24.6560001373291,13.347999572753906 23.974000930786133,14.711999893188477 22.707000732421875,15.491000175476074 C22.707000732421875,15.491000175476074 15.885000228881836,19.58300018310547 15.885000228881836,19.58300018310547 C14.715999603271484,20.264999389648438 13.253999710083008,20.264999389648438 11.987000465393066,19.58300018310547 C11.987000465393066,19.58300018310547 5.067999839782715,15.491000175476074 5.067999839782715,15.491000175476074 C3.8980000019073486,14.8100004196167 3.118000030517578,13.543000221252441 3.118000030517578,12.081999778747559 C3.118000030517578,12.081999778747559 3.118000030517578,6.818999767303467 3.118000030517578,6.818999767303467 C3.118000030517578,6.818999767303467 -3.0220000743865967,10.423999786376953 -3.0220000743865967,10.423999786376953 C-3.0220000743865967,10.423999786376953 -3.0220000743865967,15.784000396728516 -3.0220000743865967,15.784000396728516 C-3.0220000743865967,17.051000595092773 -2.3389999866485596,18.415000915527344 -1.0720000267028809,19.194000244140625 C-1.0720000267028809,19.194000244140625 11.987000465393066,26.792999267578125 11.987000465393066,26.792999267578125 C13.156000137329102,27.475000381469727 14.618000030517578,27.475000381469727 15.885000228881836,26.792999267578125 C15.885000228881836,26.792999267578125 28.944000244140625,19.194000244140625 28.944000244140625,19.194000244140625 C30.11400032043457,18.511999130249023 30.89299964904785,17.246000289916992 30.89299964904785,15.784000396728516 C30.89299964904785,15.784000396728516 30.89299964904785,0.3889999985694885 30.89299964904785,0.3889999985694885 C30.89299964904785,-0.878000020980835 30.211000442504883,-2.242000102996826 28.944000244140625,-3.0209999084472656 C28.944000244140625,-3.0209999084472656 16.08099937438965,-10.621000289916992 16.08099937438965,-10.621000289916992z"/></g></g></g></svg>