<svg fill="none" height="26" viewBox="0 0 26 26" width="26" xmlns="http://www.w3.org/2000/svg"><g fill="#4e576d"><path d="m13.2794 4.72639c2.6455 0 2.9588.01161 3.9992.05802.967.04255 1.4891.20499 1.8372.34036.4603.17792.7929.39451 1.1371.73875.3481.34809.5609.67685.7388 1.13712.1354.34809.2978.87411.3404 1.83718.0464 1.04429.058 1.35758.058 3.99928 0 2.6455-.0116 2.9588-.058 3.9992-.0426.967-.205 1.4891-.3404 1.8372-.1779.4603-.3945.7929-.7388 1.1371-.348.3481-.6768.5609-1.1371.7388-.3481.1354-.8741.2978-1.8372.3403-1.0442.0465-1.3575.0581-3.9992.0581-2.6456 0-2.9588-.0116-3.99927-.0581-.96694-.0425-1.48909-.2049-1.83719-.3403-.46026-.1779-.79289-.3945-1.13712-.7388-.3481-.3481-.56082-.6768-.73874-1.1371-.13537-.3481-.29782-.8741-.34036-1.8372-.04642-1.0443-.05802-1.3575-.05802-3.9992 0-2.6456.0116-2.95885.05802-3.99928.04254-.96694.20499-1.48909.34036-1.83718.17792-.46027.39451-.79289.73874-1.13712.3481-.3481.67686-.56083 1.13712-.73875.3481-.13537.87411-.29781 1.83719-.34036 1.04047-.04641 1.35367-.05802 3.99927-.05802zm0-1.78303c-2.6881 0-3.0246.0116-4.0805.05802-1.05203.04641-1.7753.21659-2.40187.46026-.65365.25527-1.20674.59177-1.75597 1.14485-.55308.54923-.88958 1.10232-1.14485 1.7521-.24367.63044-.41385 1.34984-.46026 2.40187-.04642 1.05977-.05802 1.39624-.05802 4.08434s.0116 3.0246.05802 4.0805c.04641 1.052.21659 1.7753.46026 2.4019.25527.6536.59177 1.2067 1.14485 1.7559.54923.5493 1.10232.8896 1.7521 1.141.63044.2437 1.34984.4139 2.40187.4603 1.05587.0464 1.39237.058 4.08047.058s3.0246-.0116 4.0805-.058c1.052-.0464 1.7753-.2166 2.4019-.4603.6498-.2514 1.2028-.5917 1.7521-1.141.5492-.5492.8896-1.1023 1.141-1.7521.2436-.6304.4138-1.3498.4602-2.4018.0464-1.0559.058-1.3924.058-4.0805s-.0116-3.0246-.058-4.0805c-.0464-1.05203-.2166-1.7753-.4602-2.40188-.2437-.65752-.5802-1.2106-1.1333-1.75983-.5492-.54922-1.1023-.88958-1.7521-1.14098-.6304-.24367-1.3498-.41385-2.4019-.46027-1.0597-.05028-1.3962-.06188-4.0843-.06188z"/><path d="m13.2795 7.75879c-2.808 0-5.08614 2.27811-5.08614 5.08611s2.27814 5.0861 5.08614 5.0861c2.8079 0 5.0861-2.2781 5.0861-5.0861s-2.2782-5.08611-5.0861-5.08611zm0 8.38531c-1.8218 0-3.29924-1.4775-3.29924-3.2992s1.47744-3.29921 3.29924-3.29921c1.8217 0 3.2992 1.47751 3.2992 3.29921s-1.4775 3.2992-3.2992 3.2992z"/><path d="m19.7542 7.55752c0 .65752-.5338 1.1874-1.1874 1.1874-.6575 0-1.1874-.53375-1.1874-1.1874 0-.65752.5337-1.1874 1.1874-1.1874.6536 0 1.1874.53375 1.1874 1.1874z"/></g></svg>