<svg fill="none" height="26" viewBox="0 0 26 26" width="26" xmlns="http://www.w3.org/2000/svg" xmlns:xlink="http://www.w3.org/1999/xlink"><radialGradient id="a" cx="6.01043" cy="22.8335" gradientUnits="userSpaceOnUse" r="25.8472"><stop offset=".09" stop-color="#fa8f21"/><stop offset=".78" stop-color="#d82d7e"/></radialGradient><radialGradient id="b" cx="15.3877" cy="23.7205" gradientUnits="userSpaceOnUse" r="20.3712"><stop offset=".64" stop-color="#8c3aaa" stop-opacity="0"/><stop offset="1" stop-color="#8c3aaa"/></radialGradient><path d="m9.98041 12.8399c0-1.8224 1.47699-3.30022 3.29949-3.30022s3.3002 1.47782 3.3002 3.30022c0 1.8225-1.4777 3.3003-3.3002 3.3003s-3.29949-1.4778-3.29949-3.3003zm-1.78406 0c0 2.8077 2.27585 5.0836 5.08355 5.0836 2.8076 0 5.0835-2.2759 5.0835-5.0836 0-2.8076-2.2759-5.08349-5.0835-5.08349-2.8077 0-5.08355 2.27589-5.08355 5.08349zm9.18035-5.28505c-.0001.23496.0694.46468.1999.66009.1305.19542.316.34776.533.43777.217.09.4559.11362.6864.06788.2304-.04575.4422-.15881.6084-.32489s.2794-.37771.3253-.60815c.046-.23043.0225-.4693-.0673-.68642-.0898-.21711-.242-.40271-.4373-.53333s-.425-.20038-.66-.20048h-.0004c-.315.00015-.617.12529-.8398.34795-.2227.22266-.348.52463-.3482.83958zm-8.09642 13.34345c-.96521-.044-1.48983-.2047-1.83847-.3406-.46221-.1799-.792-.3942-1.13873-.7405-.34674-.3462-.56137-.6757-.74052-1.1379-.13591-.3485-.29669-.8733-.34056-1.8385-.048-1.0435-.05758-1.357-.05758-4.0008s.01037-2.95636.05758-4.00077c.04395-.96521.20592-1.48896.34056-1.83847.17994-.46221.39425-.792.74052-1.13873.34626-.34674.67573-.56137 1.13873-.74052.34848-.13591.87326-.29669 1.83847-.34056 1.04352-.048 1.35702-.05758 3.99962-.05758s2.9564.01037 4.0008.05758c.9652.04395 1.4889.20592 1.8384.34056.4623.17915.792.39425 1.1388.74052.3467.34626.5606.67652.7405 1.13873.1359.34848.2967.87326.3406 1.83847.048 1.04441.0575 1.35697.0575 4.00077s-.0095 2.9564-.0575 4.0008c-.044.9652-.2056 1.4898-.3406 1.8385-.1799.4622-.3943.792-.7405 1.1379-.3463.346-.6765.5606-1.1388.7405-.3484.136-.8732.2967-1.8384.3406-1.0436.048-1.357.0576-4.0008.0576s-2.9564-.0096-3.99962-.0576zm-.08197-17.8984c-1.05391.04799-1.77408.2151-2.40301.45983-.65134.25273-1.20273.59178-1.75372 1.14191-.551.55012-.88918 1.10238-1.14191 1.75372-.24473.62933-.41184 1.34909-.45983 2.40301-.04879 1.05558-.05996 1.39303-.05996 4.08153 0 2.6886.01117 3.026.05996 4.0816.04799 1.054.2151 1.7737.45983 2.403.25273.651.59099 1.2039 1.14191 1.7537.55091.5499 1.10238.8885 1.75372 1.142.63012.2447 1.3491.4118 2.40301.4598 1.05609.048 1.39309.0599 4.08159.0599s3.026-.0111 4.0816-.0599c1.0539-.048 1.7736-.2151 2.403-.4598.6509-.2535 1.2027-.5918 1.7537-1.142.551-.5501.8885-1.1027 1.1419-1.7537.2447-.6293.4126-1.3491.4598-2.403.048-1.0564.0592-1.393.0592-4.0816 0-2.6885-.0112-3.02595-.0592-4.08153-.048-1.05399-.2151-1.77408-.4598-2.40301-.2534-.65094-.5918-1.20273-1.1419-1.75372-.5501-.551-1.1028-.88918-1.7529-1.14191-.6302-.24473-1.3499-.41263-2.4031-.45983-1.0555-.048-1.393-.05996-4.0815-.05996s-3.0263.01117-4.08239.05996z" fill="url(#a)"/><path d="m9.98041 12.8399c0-1.8224 1.47699-3.30022 3.29949-3.30022s3.3002 1.47782 3.3002 3.30022c0 1.8225-1.4777 3.3003-3.3002 3.3003s-3.29949-1.4778-3.29949-3.3003zm-1.78406 0c0 2.8077 2.27585 5.0836 5.08355 5.0836 2.8076 0 5.0835-2.2759 5.0835-5.0836 0-2.8076-2.2759-5.08349-5.0835-5.08349-2.8077 0-5.08355 2.27589-5.08355 5.08349zm9.18035-5.28505c-.0001.23496.0694.46468.1999.66009.1305.19542.316.34776.533.43777.217.09.4559.11362.6864.06788.2304-.04575.4422-.15881.6084-.32489s.2794-.37771.3253-.60815c.046-.23043.0225-.4693-.0673-.68642-.0898-.21711-.242-.40271-.4373-.53333s-.425-.20038-.66-.20048h-.0004c-.315.00015-.617.12529-.8398.34795-.2227.22266-.348.52463-.3482.83958zm-8.09642 13.34345c-.96521-.044-1.48983-.2047-1.83847-.3406-.46221-.1799-.792-.3942-1.13873-.7405-.34674-.3462-.56137-.6757-.74052-1.1379-.13591-.3485-.29669-.8733-.34056-1.8385-.048-1.0435-.05758-1.357-.05758-4.0008s.01037-2.95636.05758-4.00077c.04395-.96521.20592-1.48896.34056-1.83847.17994-.46221.39425-.792.74052-1.13873.34626-.34674.67573-.56137 1.13873-.74052.34848-.13591.87326-.29669 1.83847-.34056 1.04352-.048 1.35702-.05758 3.99962-.05758s2.9564.01037 4.0008.05758c.9652.04395 1.4889.20592 1.8384.34056.4623.17915.792.39425 1.1388.74052.3467.34626.5606.67652.7405 1.13873.1359.34848.2967.87326.3406 1.83847.048 1.04441.0575 1.35697.0575 4.00077s-.0095 2.9564-.0575 4.0008c-.044.9652-.2056 1.4898-.3406 1.8385-.1799.4622-.3943.792-.7405 1.1379-.3463.346-.6765.5606-1.1388.7405-.3484.136-.8732.2967-1.8384.3406-1.0436.048-1.357.0576-4.0008.0576s-2.9564-.0096-3.99962-.0576zm-.08197-17.8984c-1.05391.04799-1.77408.2151-2.40301.45983-.65134.25273-1.20273.59178-1.75372 1.14191-.551.55012-.88918 1.10238-1.14191 1.75372-.24473.62933-.41184 1.34909-.45983 2.40301-.04879 1.05558-.05996 1.39303-.05996 4.08153 0 2.6886.01117 3.026.05996 4.0816.04799 1.054.2151 1.7737.45983 2.403.25273.651.59099 1.2039 1.14191 1.7537.55091.5499 1.10238.8885 1.75372 1.142.63012.2447 1.3491.4118 2.40301.4598 1.05609.048 1.39309.0599 4.08159.0599s3.026-.0111 4.0816-.0599c1.0539-.048 1.7736-.2151 2.403-.4598.6509-.2535 1.2027-.5918 1.7537-1.142.551-.5501.8885-1.1027 1.1419-1.7537.2447-.6293.4126-1.3491.4598-2.403.048-1.0564.0592-1.393.0592-4.0816 0-2.6885-.0112-3.02595-.0592-4.08153-.048-1.05399-.2151-1.77408-.4598-2.40301-.2534-.65094-.5918-1.20273-1.1419-1.75372-.5501-.551-1.1028-.88918-1.7529-1.14191-.6302-.24473-1.3499-.41263-2.4031-.45983-1.0555-.048-1.393-.05996-4.0815-.05996s-3.0263.01117-4.08239.05996z" fill="url(#b)"/></svg>