<svg fill="none" height="37" viewBox="0 0 68 37" width="68" xmlns="http://www.w3.org/2000/svg" xmlns:xlink="http://www.w3.org/1999/xlink"><clipPath id="a"><path d="m0 .775879h67.3654v36.2179h-67.3654z"/></clipPath><g clip-path="url(#a)" fill="#737d8c"><path d="m35.9394 17.8421c-.186.1021-.3959.1523-.608.1455-.0831 0-.265 0-.5663-.0415v.8521c.2595.0672.5269.0987.795.0936.3721.0136.7381-.098 1.0392-.317.323-.2668.5748-.6096.7327-.9977l2.333-5.2585h-1.1015l-1.4134 3.4451-1.3718-3.4451h-1.1172l1.9174 4.5259-.1974.4416c-.0872.226-.2413.42-.4417.556z"/><path d="m41.39 16.4131c.182.2439.4235.4371.7014.5612.3032.1383.6333.2075.9665.2027.3117.0122.6222-.0443.9096-.1655.2873-.1212.5445-.3042.7532-.536.4514-.4745.6994-1.1067.6911-1.7615.0105-.3287-.0458-.6562-.1655-.9625-.1197-.3064-.3002-.5852-.5308-.8198-.2164-.2293-.4785-.4107-.7694-.5324s-.6041-.1811-.9193-.1743h.0363c-.3045-.0123-.6079.0449-.887.1674-.2791.1224-.5266.3069-.7238.5393v-3.06573h-1.0392v7.22263h.9561v-.6755zm.4364-2.8319c.1373-.134.2999-.2393.4784-.3098.1784-.0705.3691-.1047.5609-.1007.1935-.0034.3857.0332.5645.1074.1789.0742.3404.1844.4747.3239.1406.1459.2504.3186.3227.5079s.1057.3912.0982.5937c.0091.2058-.0234.4113-.0958.6042-.0723.1929-.1829.3691-.3251.5182-.1313.1443-.2919.2589-.4712.336s-.3729.1149-.568.1108c-.3835.0134-.7568-.1247-1.0393-.3845-.1504-.1501-.2668-.3308-.3412-.5298s-.1051-.4118-.09-.6237c-.0144-.2119.0166-.4245.091-.6234.0743-.1989.1904-.3797.3402-.5302z"/><path d="m32.2758 23.5736c-.2661-.0096-.5313.0367-.7783.1361-.2471.0993-.4705.2495-.6558.4407v-.4677h-.9613v4.7441h1.0392v-2.8319c-.0072-.1446.0159-.289.0678-.4241.0519-.1352.1315-.2579.2336-.3605.104-.1019.2277-.1817.3634-.2344.1358-.0527.2809-.0772.4264-.0722.1415-.0036.2822.0217.4136.0744.1313.0528.2505.1317.3502.2322.0997.107.1768.2331.2268.3705.05.1375.0718.2836.0642.4297v2.8163h1.0393v-2.9566c.024-.4994-.1454-.9889-.4729-1.3666-.1744-.181-.3859-.3221-.62-.4136s-.4853-.1312-.7362-.1164z"/><path d="m37.4771 23.5683c-.3245 0-.6458.0642-.9453.189-.2996.1249-.5715.3078-.8.5382s-.4091.5038-.5314.8044-.1838.6225-.1811.947c-.0085.3286.0523.6553.1786.9588.1262.3036.315.577.5541.8027.2422.2329.5279.4157.8409.5378.313.1222.6471.1813.983.174.712.0069 1.3985-.2654 1.9121-.7586l-.4832-.6911c-.3775.351-.872.5491-1.3874.556-.3731.0095-.7388-.1057-1.0392-.3274-.2885-.2276-.4752-.5601-.5196-.9249h3.5697c.051-.2073.0737-.4205.0676-.6339.0088-.2897-.043-.578-.1522-.8465-.1091-.2684-.2732-.5111-.4817-.7124-.2078-.2057-.4558-.3663-.7285-.4718s-.5642-.1536-.8564-.1413zm-1.4185 2.0265c.0705-.3337.254-.6329.5196-.847.2459-.2069.5567-.3209.8782-.3221.3197-.0074.6302.1079.8677.3221.1112.1104.1983.2426.2555.3885.0573.1458.0835.302.0771.4585z"/><path d="m48.8986 17.1875c.7121.0069 1.3985-.2654 1.9122-.7586l-.4885-.6911c-.3771.3547-.8747.5534-1.3925.556-.3732.0095-.7389-.1057-1.0393-.3274-.2884-.2277-.4752-.5601-.5196-.9249h3.549c.0616-.2057.0931-.4192.0935-.6339.0089-.2897-.043-.578-.1521-.8465-.1092-.2685-.2733-.5111-.4818-.7124-.2059-.2012-.4497-.3595-.7174-.4657-.2676-.1061-.5536-.158-.8415-.1526-.3258-.0007-.6486.0631-.9497.1878s-.5745.3078-.8044.5387c-.23.2309-.4119.5051-.5354.8067-.1234.3016-.1859.6247-.1838.9505-.0073.328.0536.6539.1788.9571.1252.3033.312.5772.5486.8044.2415.2339.5272.4173.8403.5395.3132.1222.6475.1808.9836.1724zm-1.0393-3.7672c.2481-.2062.5608-.3185.8834-.317.317-.0054.6245.1076.8626.317.1149.1088.206.2403.2677.386.0617.1458.0926.3027.0908.461h-2.5981c.0638-.3314.24-.6305.4988-.847z"/><path d="m43.1153 27.5952c-.247.0218-.4942-.0405-.7014-.1767-.0838-.0813-.1479-.1807-.1875-.2906-.0396-.1098-.0537-.2272-.0412-.3433v-2.224h1.4186v-.8781h-1.4186v-1.2367h-1.0392v1.2367h-.769v.8781h.7742v2.3071c-.0167.227.0165.4549.0973.6676.0808.2128.2072.4052.3703.5639.368.2873.8278.4314 1.2939.4053.287-.0078.5725-.0443.8522-.1091v-.8522c-.2858.0312-.4833.052-.634.052z"/><path d="m50.0207 26.7276-1.4757-3.1541h-.3482l-1.4497 3.1956-1.2627-3.0865h-1.086l2.1253 4.822h.3481l1.5017-3.1384 1.4965 3.1384h.3585l2.1201-4.822h-1.086z"/><path d="m55.1649 23.5736c-.3312-.0072-.6605.0521-.9684.1744s-.5882.305-.8242.5375c-.2324.2291-.4169.5021-.5428.8032-.126.301-.1908.6241-.1908.9505 0 .3263.0648.6494.1908.9504.1259.3011.3104.5741.5428.8033.4831.4606 1.1251.7175 1.7926.7175.6676 0 1.3095-.2569 1.7927-.7175.2357-.2278.4232-.5007.5512-.8024.1281-.3017.194-.6262.194-.9539 0-.3278-.0659-.6522-.194-.954-.128-.3017-.3155-.5746-.5512-.8023-.237-.2308-.5176-.4122-.8253-.5335-.3078-.1213-.6366-.1802-.9674-.1732zm1.0393 3.5542c-.2835.2767-.6639.4316-1.06.4316-.3962 0-.7766-.1549-1.0601-.4316-.1394-.1436-.2485-.3137-.3208-.5003-.0723-.1865-.1063-.3857-.1001-.5857-.0086-.2019.0243-.4033.0967-.5919s.1828-.3603.3242-.5045c.2743-.2797.6476-.4402 1.0393-.4469.3905.0022.7642.1592 1.0392.4365.1402.1451.2498.3169.3221.5053s.1059.3894.0988.5911c.0193.4006-.1165.7933-.3793 1.0964z"/><path d="m59.592 24.2958v-.6184h-.9509v4.7389h1.0392v-2.5357c-.0085-.1794.0224-.3584.0906-.5245.0683-.1661.1722-.3152.3044-.4368.2763-.2343.6304-.3566.9924-.3429h.3066v-.8938c-.1237-.0331-.2513-.0488-.3793-.0467-.2698-.0118-.5385.0421-.7828.157-.2444.115-.4572.2875-.6202.5029z"/><path d="m52.9828 14.5581c-.009-.1794.0218-.3586.0901-.5247.0682-.1662.1723-.3152.3048-.4366.2766-.2344.63-.3584.9924-.3481h.3118v-.8885c-.1255-.0328-.2548-.0486-.3845-.0468-.2686-.0099-.5356.0454-.7781.1612-.2426.1158-.4534.2887-.6145.5039v-.6183h-.9561v4.7285h1.0393v-2.5306z"/><path d="m62.3149 21.1885h1.0237v7.233h-1.0237z"/><path d="m64.5751 25.7559 1.9278-2.0733h-1.2626l-1.8707 2.0681 2.0837 2.6656h1.2315z"/><path d="m34.0683 12.3499h-1.2678l-1.8654 2.0732 2.0836 2.6709h1.2315l-2.1096-2.6605z"/><path d="m29.8804 9.86084h1.0236v7.23306h-1.0236z"/><path d="m11.1167 18.9127 12.9904 7.4409c.1044.0628.2236.0966.3454.098s.2418-.0296.3476-.09c.1058-.0603.1937-.1477.2545-.2532.0609-.1055.0925-.2253.0917-.3471v-13.7075c.0016-.122-.0297-.2422-.0905-.348-.0609-.1057-.149-.1932-.2553-.2532-.1062-.0601-.2266-.0904-.3486-.088-.122.0025-.2411.0377-.3448.102z"/><path d="m23.8318 8.17219-8.8802-6.53158c-.0923-.07056-.2006-.11727-.3153-.136-.1146-.01873-.2321-.00891-.3421.02859-.1099.03751-.2089.10155-.2882.18644-.0793.0849-.1365.18804-.1664.30029l-3.2424 14.54927 13.1567-7.27464c.1001-.0515.1852-.12794.2472-.22194.0619-.094.0986-.20239.1064-.3147.0078-.1123-.0134-.22473-.0617-.32642-.0483-.1017-.122-.18922-.214-.25412"/><path d="m14.9412 36.1794 8.8906-6.5316c.092-.0657.1658-.1539.2143-.2561s.0701-.215.0628-.3279-.0432-.222-.1045-.3171c-.0612-.0952-.1456-.1731-.2453-.2265l-13.1619-7.2746 3.2424 14.5493c.0269.113.0814.2176.1587.3043.0774.0868.175.153.2842.1926.1092.0397.2266.0516.3416.0347.1149-.0169.2239-.0621.3171-.1315"/><path d="m7.73924 18.6476 3.37746-15.80155c.0258-.1309.012-.26652-.0397-.3895-.0518-.12298-.139-.22773-.2506-.30083s-.2425-.11124-.3759-.10952c-.1334.00171-.2633.0432-.373.11915l-8.6516 6.6355c-.21908.16807-.39637.38448-.51805.63234-.121678.24787-.184456.52049-.183436.79661v16.8356c-.005068.2805.055762.5582.177597.8109.121839.2527.301279.4733.523889.644l8.61 6.6095c.1097.076.2396.1175.373.1192s.2643-.0364.3759-.1095.1989-.1779.2506-.3009.0656-.2586.0398-.3895z"/></g></svg>