<svg fill="none" height="50" viewBox="0 0 125 50" width="125" xmlns="http://www.w3.org/2000/svg" xmlns:xlink="http://www.w3.org/1999/xlink"><clipPath id="a"><path d="m0 0h125v50h-125z"/></clipPath><clipPath id="b"><path d="m0 7h125.046v38.4042h-125.046z"/></clipPath><g clip-path="url(#a)" fill="#737d8c"><g clip-path="url(#b)"><path d="m42.928 30.2009c-.0362-.8934.1048-1.785.415-2.6236.3101-.8385.7833-1.6074 1.3921-2.2621.6088-.6548 1.3412-1.1825 2.155-1.5528.8138-.3702 1.6929-.5757 2.5865-.6044h.2776c3.4538 0 5.4922 2.0316 6.0949 4.4086l-2.1468.7178c-.1928-.8858-.6977-1.6727-1.4225-2.2172s-1.6211-.8103-2.5256-.749c-2.2347 0-4.4763 1.6321-4.4763 4.9233s2.1874 4.8623 4.5034 4.8623c.909.0249 1.8-.2559 2.5305-.7973.7305-.5415 1.2583-1.3123 1.4989-2.1891l2.1061.6772c-.3635 1.3376-1.1722 2.5113-2.2925 3.3275-1.1203.8163-2.4854 1.2262-3.8701 1.1623-1.7788.0327-3.4978-.6424-4.7791-1.8767s-2.02-2.9269-2.0538-4.7057c-.0068-.1625 0-.3318.0067-.5011z"/><path d="m60.0948 36.9725h-2.2213v-13.8556h2.2213v5.4177c.3224-.3825.728-.6863 1.1857-.8881.4577-.2019.9555-.2965 1.4554-.2767 2.2957 0 3.386 1.6456 3.386 3.6975v5.9052h-2.14v-5.5124c.0641-.4699-.059-.9462-.3427-1.3263-.2838-.38-.7055-.6333-1.1742-.7053-.1329-.0137-.2667-.0137-.3996 0-.5136 0-1.0063.204-1.3695.5673-.3632.3632-.5673.8558-.5673 1.3695-.0034.0564-.0034.1129 0 .1693z"/><path d="m71.1062 31.6366 2.3837-.3725c.5418-.0677.6772-.3454.6772-.6772 0-.7856-.5282-1.4154-1.7607-1.4154-.4655-.0376-.927.1098-1.2845.4103-.3575.3004-.5821.7297-.6252 1.1947v.1016l-2.0316-.4537c.1693-1.6118 1.6321-3.0474 3.921-3.0474 2.8713 0 3.9616 1.6252 3.9616 3.5214v4.6253c-.0023.5012.0362 1.0017.1152 1.4966h-2.0316c-.0732-.3928-.1028-.7925-.0881-1.1919-.3083.4746-.7358.8601-1.2396 1.1179-.5038.2579-1.0664.3791-1.6317.3517-.7721.0637-1.538-.1814-2.1296-.6816s-.9607-1.2146-1.0262-1.9866c0-.0474 0-.0948 0-.1354-.0338-1.7134 1.1919-2.6344 2.7901-2.8578zm3.0745 1.4966v-.4267l-2.4312.3657c-.33.0105-.6432.1481-.8742.3841-.2309.236-.3617.5521-.365.8823.0026.1636.0377.3251.1034.475.0657.1498.1605.2851.279.398.1185.1128.2583.2009.4112.2592.153.0582.316.0854.4795.08h.1016c.2772.029.5574.0029.8244-.0769.2671-.0797.5157-.2115.7316-.3877.2159-.1763.3948-.3935.5264-.6392s.2133-.515.2404-.7924c.0096-.1745-.0017-.3496-.0339-.5214z"/><path d="m80.1267 22.9276c.1908-.0027.3804.0324.5577.1032.1773.0707.3388.1759.4754.3093.1365.1334.2454.2924.3203.468s.1143.3643.1161.5552c0 .2857-.0846.5651-.2429.803-.1584.2378-.3835.4236-.6472.5338-.2636.1103-.5539.1401-.8345.0859-.2805-.0543-.5388-.1904-.7422-.391-.2035-.2007-.3431-.457-.4013-.7367-.0582-.2798-.0324-.5705.0742-.8357.1066-.2651.2892-.4928.5248-.6545.2357-.1616.5138-.25.7996-.254zm-1.0836 14.0858v-9.3589h2.2213v9.3183z"/><path d="m86.3229 36.973h-2.2145v-9.3183h2.1603v1.2393c.2816-.4759.6861-.8672 1.1711-1.1329.4849-.2657 1.0324-.396 1.5851-.3772 2.2754 0 3.386 1.6456 3.386 3.6975v5.8916h-2.2144v-5.5124c0-1.1445-.5215-2.0722-1.9165-2.0722-.2579.0017-.513.0543-.7506.1546-.2375.1004-.453.2465-.6342.4301-.1811.1837-.3242.4012-.4213.6401-.097.239-.1461.4947-.1443.7526v.2235z"/><path d="m95.0928 36.9725v-13.8556h2.2212v13.8556z"/><path d="m101.276 22.927c.285-.0013.565.0823.803.2403.239.158.425.3832.535.647.11.2639.139.5545.083.8349-.055.2804-.193.5381-.395.7402s-.46.3397-.74.3951-.571.0263-.835-.0837-.489-.296-.647-.5342c-.1578-.2382-.2415-.5181-.2401-.8039.0035-.3797.1559-.7428.4241-1.0113.269-.2685.632-.4209 1.012-.4244zm-1.091 14.0858v-9.3589h2.201v9.3183z"/><path d="m107.479 36.9729h-2.221v-9.3183h2.16v1.2393c.282-.4754.687-.8663 1.172-1.132.485-.2656 1.032-.3962 1.584-.3782 2.276 0 3.386 1.6456 3.386 3.6976v5.8916h-2.221v-5.5124c.064-.4699-.059-.9462-.343-1.3262-.283-.3801-.705-.6334-1.174-.7054-.135-.0136-.271-.0136-.406 0-.517.0053-1.012.2146-1.376.5823s-.568.8642-.568 1.3816c-.007.0788-.007.1581 0 .237z"/><path d="m121.138 31.5888 3.908 5.4176h-2.709l-2.709-3.8398-1.144 1.2055v2.6004h-2.201v-13.8556h2.201v8.3026l3.575-3.7653h2.946z"/><path d="m16.6321 15.1264 9.6027 5.5125v11.079l-9.5756 5.5463-9.59597-5.4989v-11.0723zm0-8.1264-3.5214 2.03161-9.58924 5.56659-3.52146 2.0316v19.2123l3.52146 2.0316 9.60274 5.5124 3.5215 2.0316 3.5214-2.0316 9.5689-5.553 3.5214-2.0317v-19.2393l-3.5214-2.0316-9.596-5.49889-3.5214-2.03161z"/></g><path d="m46.8433 11.9592c0-.3173-.0842-.5436-.2525-.6788-.1656-.1353-.3988-.2029-.6996-.2029h-1.188v1.7966h1.188c.3008 0 .534-.0732.6996-.2194.1683-.1463.2525-.3781.2525-.6955zm1.2626-.0082c0 .7202-.1822 1.2294-.5465 1.5274-.3642.2981-.8844.4471-1.5605.4471h-1.2957v2.1939h-1.2667v-6.1016h2.6576c.6126 0 1.1011.1573 1.4653.4719.3643.3146.5465.8017.5465 1.4613z"/><path d="m52.1849 15.2087c.505 0 .9052-.1862 1.2005-.5588.298-.3726.447-.9024.447-1.5896 0-.6844-.149-1.2128-.447-1.5854-.2953-.3753-.6955-.563-1.2005-.563s-.9079.1863-1.2087.5589c-.3008.3725-.4512.9024-.4512 1.5895 0 .6872.1504 1.217.4512 1.5896s.7037.5588 1.2087.5588zm2.9225-2.1484c0 1.0956-.3077 1.9346-.9231 2.5168-.4609.4747-1.1273.712-1.9994.712-.872 0-1.5385-.2373-1.9994-.712-.6181-.5822-.9272-1.4212-.9272-2.5168 0-1.1176.3091-1.9566.9272-2.5168.4609-.4746 1.1274-.71196 1.9994-.71196.8721 0 1.5385.23736 1.9994.71196.6154.5602.9231 1.3992.9231 2.5168z"/><path d="m57.3402 10.0178.8072 3.4937.1739.9728.178-.9521.6871-3.5144h1.3454l.7244 3.4937.1863.9728.1862-.9355.8155-3.531h1.2957l-1.7179 6.1016h-1.217l-.7369-3.5682-.2152-1.1798-.2153 1.1798-.7368 3.5682h-1.1839l-1.7303-6.1016z"/><path d="m69.4499 11.0982h-3.2288v1.2957h2.9638v1.0597h-2.9638v1.5689h3.3778v1.0969h-4.6238v-6.1016h4.4748z"/><path d="m72.2912 11.0775v1.6393h1.4447c.287 0 .5022-.0332.6458-.0994.2538-.1159.3808-.3449.3808-.6871 0-.3698-.1228-.6182-.3684-.7451-.138-.0718-.345-.1077-.621-.1077zm1.7469-1.0597c.4277.0083.7561.0607.9852.1573.2318.0966.4277.2387.5878.4264.1324.1545.2373.3256.3146.5133.0773.1876.1159.4015.1159.6416 0 .2898-.0731.5754-.2194.8569-.1463.2787-.3877.476-.7244.5919.2815.1132.4802.2746.5961.4843.1186.207.178.5244.178.9521v.4098c0 .2788.011.4678.0331.5671.0331.1573.1104.2732.2318.3478v.1531h-1.4033c-.0386-.1352-.0662-.2442-.0828-.327-.0331-.1711-.051-.3463-.0538-.5257l-.0083-.5671c-.0055-.3891-.0772-.6485-.2152-.7782-.1353-.1298-.3905-.1946-.7658-.1946h-1.3164v2.3926h-1.246v-6.1016z"/><path d="m82.0786 11.0982h-3.2288v1.2957h2.9639v1.0597h-2.9639v1.5689h3.3778v1.0969h-4.6238v-6.1016h4.4748z"/><path d="m84.8827 11.0775v3.9822h1.1756c.6016 0 1.0211-.2967 1.2584-.89.1297-.3256.1946-.7133.1946-1.1632 0-.6209-.098-1.0969-.2939-1.4281-.1932-.3339-.5796-.5009-1.1591-.5009zm1.3909-1.0597c.378.0055.6926.0497.9438.1325.4277.1407.774.3988 1.039.7741.2125.3035.3574.6319.4346.9852.0773.3532.1159.6899.1159 1.01 0 .8113-.1628 1.4985-.4884 2.0615-.4416.7589-1.1232 1.1383-2.0449 1.1383h-2.6286v-6.1016z"/><path d="m94.2164 11.0775v1.3454h1.4985c.2677 0 .4843-.0497.6499-.1491.1683-.1021.2525-.2814.2525-.5381 0-.2842-.1104-.4719-.3312-.563-.1904-.0634-.4332-.0952-.7285-.0952zm0 2.3554v1.6268h1.4985c.2677 0 .476-.0359.6251-.1076.2704-.1325.4056-.3864.4056-.7617 0-.3173-.1311-.5354-.3932-.654-.1463-.0663-.3519-.1007-.6168-.1035zm1.7469-3.4151c.7478.0111 1.2777.2277 1.5895.6499.1877.2594.2815.5699.2815.9314 0 .3726-.0938.672-.2815.8983-.1048.1269-.2594.2428-.4636.3477.3118.1131.5464.2925.7037.5381.1601.2456.2401.5437.2401.8941 0 .3616-.0911.6858-.2732.9728-.1159.1904-.2608.3505-.4346.4802-.196.149-.4278.2511-.6955.3063-.2649.0552-.5533.0828-.8651.0828h-2.7652v-6.1016z"/><path d="m103.01 10.0178h1.445l-2.041 3.8083v2.2933h-1.275v-2.2933l-2.1109-3.8083h1.5029l1.266 2.6576z"/></g></svg>