<svg width="304" height="85" viewBox="0 0 304 85" fill="none" xmlns="http://www.w3.org/2000/svg">
<g clip-path="url(#clip0)">
<path d="M60.5045 21.7146V35.9046L47.8984 42.9996L47.8987 28.8096L60.5045 21.7146Z" fill="#787878"/>
<path d="M60.5042 50.0952L47.8984 42.9999L60.5042 35.9049L73.1099 42.9999L60.5042 50.0952Z" fill="black"/>
<path d="M47.8984 43.0001L60.5045 50.0951V64.2851L47.8984 57.1904V43.0001Z" fill="#C8C8C8"/>
<path d="M47.899 43.0001V57.1904L35.293 64.2851L35.2933 50.0951L47.899 43.0001Z" fill="black"/>
<path d="M35.2932 50.0955L22.6875 43.0002L35.2932 35.9049L47.899 43.0002L35.2932 50.0955Z" fill="#787878"/>
<path d="M35.293 21.7146L47.8987 28.8096V42.9996L35.293 35.9046V21.7146Z" fill="#C8C8C8"/>
<path d="M47.8987 28.8097L35.293 21.7147L47.8987 14.6194L60.5044 21.7147L47.8987 28.8097Z" fill="black"/>
<path d="M47.8987 71.38L35.293 64.285L47.8987 57.1897L60.5044 64.285L47.8987 71.38Z" fill="#787878"/>
<path d="M73.1099 43.0001V57.1904L60.5039 64.2851L60.5042 50.0951L73.1099 43.0001Z" fill="#787878"/>
<path d="M35.2932 21.7146V35.9046L22.6875 42.9996V28.8096L35.2932 21.7146Z" fill="black"/>
<path d="M60.5039 21.7146L73.1096 28.8096V42.9996L60.5039 35.9046V21.7146Z" fill="#C8C8C8"/>
<path d="M22.6875 43.0001L35.2932 50.0954V64.2854L22.6875 57.1904V43.0001Z" fill="#C8C8C8"/>
<path d="M102.74 46.4431C102.74 47.6985 102.286 48.6877 101.38 49.4105C100.479 50.1333 99.2238 50.4947 97.6133 50.4947C96.1296 50.4947 94.8171 50.2157 93.6758 49.6578V46.9186C94.6142 47.3371 95.4068 47.632 96.0535 47.8031C96.7066 47.9743 97.3026 48.0599 97.8416 48.0599C98.4883 48.0599 98.9829 47.9363 99.3253 47.689C99.674 47.4417 99.8484 47.074 99.8484 46.5857C99.8484 46.3131 99.7723 46.0722 99.6201 45.8629C99.4679 45.6473 99.2428 45.4413 98.9448 45.2447C98.6532 45.0482 98.054 44.7343 97.1473 44.3031C96.2976 43.9037 95.6604 43.5201 95.2356 43.1523C94.8108 42.7846 94.4715 42.3566 94.2179 41.8683C93.9643 41.3801 93.8375 40.8095 93.8375 40.1564C93.8375 38.9263 94.2528 37.9593 95.0834 37.2555C95.9204 36.5517 97.0743 36.1998 98.5454 36.1998C99.2682 36.1998 99.9562 36.2854 100.609 36.4566C101.269 36.6278 101.957 36.8688 102.673 37.1795L101.722 39.4716C100.98 39.1672 100.365 38.9548 99.8769 38.8344C99.395 38.7139 98.9195 38.6536 98.4503 38.6536C97.8923 38.6536 97.4643 38.7836 97.1663 39.0436C96.8683 39.3036 96.7193 39.6428 96.7193 40.0613C96.7193 40.3212 96.7795 40.5495 96.9 40.746C97.0205 40.9363 97.2107 41.1233 97.4706 41.3072C97.7369 41.4847 98.3615 41.8081 99.3443 42.2773C100.644 42.8987 101.535 43.5232 102.017 44.151C102.499 44.7723 102.74 45.5364 102.74 46.4431Z" fill="black"/>
<path d="M106.234 50.3045V36.3996H109.182V50.3045H106.234Z" fill="black"/>
<path d="M118.935 42.4961H124.451V49.7053C123.557 49.997 122.714 50.1999 121.921 50.314C121.135 50.4345 120.33 50.4947 119.506 50.4947C117.407 50.4947 115.803 49.8797 114.693 48.6496C113.59 47.4132 113.038 45.641 113.038 43.333C113.038 41.0884 113.679 39.3384 114.959 38.083C116.246 36.8275 118.028 36.1998 120.304 36.1998C121.731 36.1998 123.107 36.4852 124.432 37.0558L123.453 39.4145C122.438 38.9073 121.382 38.6536 120.285 38.6536C119.011 38.6536 117.99 39.0816 117.223 39.9376C116.456 40.7936 116.072 41.9444 116.072 43.3901C116.072 44.8991 116.38 46.0531 116.995 46.8521C117.616 47.6446 118.516 48.0409 119.696 48.0409C120.311 48.0409 120.935 47.9775 121.569 47.8507V44.9499H118.935V42.4961Z" fill="black"/>
<path d="M141.08 50.3045H137.333L131.284 39.7854H131.198C131.319 41.6432 131.379 42.9684 131.379 43.761V50.3045H128.744V36.3996H132.463L138.503 46.814H138.569C138.474 45.0069 138.427 43.7293 138.427 42.9811V36.3996H141.08V50.3045Z" fill="black"/>
<path d="M154.076 50.3045L153.068 46.9947H147.998L146.99 50.3045H143.814L148.721 36.3425H152.326L157.252 50.3045H154.076ZM152.364 44.5219C151.432 41.5228 150.906 39.8267 150.785 39.4335C150.671 39.0404 150.588 38.7297 150.538 38.5015C150.329 39.3131 149.729 41.3199 148.74 44.5219H152.364Z" fill="black"/>
<path d="M159.986 50.3045V36.3996H162.934V47.8697H168.574V50.3045H159.986Z" fill="black"/>
<path d="M185.939 36.3996H188.916L184.189 50.3045H180.975L176.257 36.3996H179.234L181.85 44.6741C181.995 45.1623 182.144 45.7329 182.297 46.386C182.455 47.0328 182.553 47.4829 182.591 47.7366C182.661 47.1532 182.899 46.1324 183.305 44.6741L185.939 36.3996Z" fill="black"/>
<path d="M199.658 50.3045H191.65V36.3996H199.658V38.8153H194.598V41.8683H199.306V44.2841H194.598V47.8697H199.658V50.3045Z" fill="black"/>
<path d="M215.878 50.3045H212.13L206.082 39.7854H205.996C206.116 41.6432 206.177 42.9684 206.177 43.761V50.3045H203.542V36.3996H207.261L213.3 46.814H213.367C213.272 45.0069 213.224 43.7293 213.224 42.9811V36.3996H215.878V50.3045Z" fill="black"/>
<path d="M225.725 50.3045H222.777V38.8534H219.001V36.3996H229.501V38.8534H225.725V50.3045Z" fill="black"/>
<path d="M243.933 36.3996V45.3969C243.933 46.4241 243.702 47.3244 243.239 48.098C242.782 48.8715 242.12 49.4644 241.251 49.8765C240.382 50.2887 239.355 50.4947 238.169 50.4947C236.381 50.4947 234.993 50.0382 234.004 49.1252C233.015 48.2058 232.52 46.9503 232.52 45.3588V36.3996H235.459V44.9118C235.459 45.9834 235.674 46.7696 236.106 47.2705C236.537 47.7714 237.25 48.0219 238.246 48.0219C239.209 48.0219 239.907 47.7714 240.338 47.2705C240.775 46.7633 240.994 45.9707 240.994 44.8928V36.3996H243.933Z" fill="black"/>
<path d="M251.26 42.5721H252.211C253.143 42.5721 253.831 42.4168 254.275 42.1061C254.719 41.7954 254.941 41.3072 254.941 40.6414C254.941 39.982 254.713 39.5128 254.256 39.2338C253.806 38.9548 253.105 38.8153 252.154 38.8153H251.26V42.5721ZM251.26 44.9689V50.3045H248.312V36.3996H252.364C254.253 36.3996 255.651 36.7451 256.558 37.4362C257.465 38.121 257.918 39.1641 257.918 40.5653C257.918 41.3833 257.693 42.1124 257.243 42.7529C256.792 43.3869 256.155 43.8846 255.331 44.2461C257.423 47.372 258.787 49.3915 259.421 50.3045H256.149L252.83 44.9689H251.26Z" fill="black"/>
<path d="M270.153 50.3045H262.145V36.3996H270.153V38.8153H265.093V41.8683H269.801V44.2841H265.093V47.8697H270.153V50.3045Z" fill="black"/>
<path d="M282.245 46.4431C282.245 47.6985 281.792 48.6877 280.885 49.4105C279.985 50.1333 278.729 50.4947 277.119 50.4947C275.635 50.4947 274.322 50.2157 273.181 49.6578V46.9186C274.119 47.3371 274.912 47.632 275.559 47.8031C276.212 47.9743 276.808 48.0599 277.347 48.0599C277.994 48.0599 278.488 47.9363 278.831 47.689C279.179 47.4417 279.354 47.074 279.354 46.5857C279.354 46.3131 279.278 46.0722 279.125 45.8629C278.973 45.6473 278.748 45.4413 278.45 45.2447C278.158 45.0482 277.559 44.7343 276.653 44.3031C275.803 43.9037 275.166 43.5201 274.741 43.1523C274.316 42.7846 273.977 42.3566 273.723 41.8683C273.47 41.3801 273.343 40.8095 273.343 40.1564C273.343 38.9263 273.758 37.9593 274.589 37.2555C275.426 36.5517 276.58 36.1998 278.051 36.1998C278.773 36.1998 279.461 36.2854 280.115 36.4566C280.774 36.6278 281.462 36.8688 282.178 37.1795L281.227 39.4716C280.485 39.1672 279.87 38.9548 279.382 38.8344C278.9 38.7139 278.425 38.6536 277.956 38.6536C277.398 38.6536 276.97 38.7836 276.672 39.0436C276.374 39.3036 276.225 39.6428 276.225 40.0613C276.225 40.3212 276.285 40.5495 276.405 40.746C276.526 40.9363 276.716 41.1233 276.976 41.3072C277.242 41.4847 277.867 41.8081 278.85 42.2773C280.149 42.8987 281.04 43.5232 281.522 44.151C282.004 44.7723 282.245 45.5364 282.245 46.4431Z" fill="black"/>
</g>
<defs>
<clipPath id="clip0">
<rect width="261.601" height="56.0003" fill="white" transform="translate(21.1992 15)"/>
</clipPath>
</defs>
</svg>
