<svg width="304" height="85" viewBox="0 0 304 85" fill="none" xmlns="http://www.w3.org/2000/svg">
<g clip-path="url(#clip0)">
<path d="M99.5984 45.8593L99.5011 53.6985L94.2305 53.6687L94.4778 33.6328L105.677 33.694L105.644 36.3775L99.7154 36.3445L99.6297 43.2434L105.558 43.2765L105.677 33.694L111.025 33.7237L110.873 45.9188L99.5984 45.8593Z" fill="black"/>
<path d="M127.841 48.4169L118.039 48.3624L118.002 51.2889L128.41 51.3467L127.3 53.7808L112.887 53.7015L113.062 39.6243L122.864 39.6788L122.833 42.2484L118.116 42.2318L118.072 45.7862L122.788 45.8127L122.864 39.6805L127.95 39.7085L127.841 48.4169Z" fill="black"/>
<path d="M130.488 53.8357L130.663 39.7585L145.602 39.8412L144.649 42.3446L135.691 42.2951L135.579 51.3538L145.408 51.4083L144.323 53.9118L130.488 53.8357Z" fill="black"/>
<path d="M158.149 45.8666L163.766 54.0165L158.075 53.9851L152.713 46.4285L152.621 53.9554L147.535 53.9273L147.783 33.8914L152.868 33.9194L152.735 44.7215L157.748 39.9046L164.046 39.9393L158.149 45.8666Z" fill="black"/>
<path d="M183.923 54.1624L165.979 54.0632L166.011 51.4507L178.579 51.5201L178.69 42.6349L184.064 42.6646L183.923 54.1624ZM171.597 36.6018L171.523 42.5952L178.69 42.6349L178.659 45.2028L166.143 45.1449L166.28 34.0289L184.803 34.1314L183.771 36.6695L171.597 36.6018Z" fill="black"/>
<path d="M191.891 42.603L191.748 54.1718L186.662 54.1437L186.909 34.1078L191.995 34.1359L191.921 40.0946L196.69 40.121L196.659 42.6212L191.891 42.603ZM201.628 54.2247L196.517 54.1966L196.692 40.1194L201.803 40.1475L201.628 54.2247Z" fill="black"/>
<path d="M208.822 54.2648L203.736 54.2367L203.911 40.1595L208.997 40.1876L208.822 54.2648ZM203.985 34.2008L209.071 34.2289L209.018 38.55L203.933 38.522L203.985 34.2008Z" fill="black"/>
<path d="M225.884 48.9926L216.082 48.9381L216.045 51.8646L226.453 51.9224L225.343 54.3565L210.93 54.2772L211.104 40.2L220.907 40.2545L220.876 42.824L216.159 42.8075L216.115 46.3619L220.831 46.3884L220.907 40.2561L225.993 40.2842L225.884 48.9926Z" fill="black"/>
<path d="M233.774 54.4023L228.531 54.3742L228.779 34.3383L234.021 34.3664L233.774 54.4023Z" fill="black"/>
<path d="M251.2 34.461L250.952 54.4969L235.881 54.4143L236.056 40.3371L246.041 40.3917L246.01 42.8918L241.109 42.8736L240.996 51.9323L245.898 51.9588L246.041 40.39L246.115 34.4313L251.2 34.461Z" fill="black"/>
<path d="M78.9906 45.4345C78.9906 45.4345 80.2934 46.9464 81.141 49.7886C81.489 50.9553 74.7259 53.9445 74.7259 53.9445C74.7259 53.9445 77.8263 51.2626 74.9832 49.8894C72.1401 48.5163 69.0794 49.7027 67.0493 41.8635C66.7656 40.7646 65.4216 40.33 64.785 40.33C63.286 40.33 58.2364 42.4121 58.2364 42.4121C58.2364 42.4121 57.9181 42.9376 57.6196 43.2268C57.6196 43.2268 57.3426 43.4945 57.3195 43.516C57.0193 43.8051 56.4191 44.1141 56.1206 44.096C55.8501 44.0794 55.8204 44.096 55.5203 43.8068C55.3306 43.625 55.2201 43.2268 55.2201 42.9376C55.2201 42.2898 56.0398 41.9627 56.4191 41.7792C57.0193 41.4901 57.6493 41.4901 57.9181 41.7792C57.9395 41.8024 58.2182 42.0684 58.1869 42.0684C58.1869 42.0684 58.1869 42.3576 59.0873 41.7792C60.4314 40.9134 63.4163 39.6492 63.9522 39.3187C64.0974 39.2295 64.2095 39.099 64.2705 38.942C64.4272 38.5421 64.7999 37.7109 65.387 37.1441C65.9873 36.5641 67.7864 35.4057 70.1777 36.6467C74.3236 38.7966 74.7259 38.5685 74.7259 38.5685C74.7259 38.5685 75.5835 37.1441 77.983 34.5382C80.2554 32.0695 82.7819 30.4831 82.7819 30.4831L83.6823 33.089C83.6823 33.089 84.5085 32.4644 87.4324 30.5789C87.3467 29.1925 85.8542 28.0871 84.0187 28.0871C84.0187 28.0871 73.5782 23.5742 70.1035 23.5742C66.6288 23.5742 56.2245 28.0871 56.2245 28.0871C54.3362 28.0871 52.8058 29.257 52.8058 30.6996C52.8058 30.6996 52.6343 46.3102 54.29 49.9208C56.645 55.05 70.1018 65.786 70.1018 65.786C70.1018 65.786 83.2453 55.1459 85.9729 50.0167C86.7365 48.5824 87.124 45.2345 87.3137 41.723C85.4172 43.4862 82.7456 44.8759 78.9906 45.4345Z" fill="url(#paint0_linear)"/>
</g>
<defs>
<linearGradient id="paint0_linear" x1="52.8002" y1="44.6826" x2="87.4303" y2="44.6826" gradientUnits="userSpaceOnUse">
<stop stop-color="#8B8B8B"/>
<stop offset="0.500733" stop-color="#8A8A8A"/>
<stop offset="0.5226" stop-color="#7E7E7E"/>
<stop offset="0.5642" stop-color="#6B6B6B"/>
<stop offset="0.6086" stop-color="#5E5E5E"/>
<stop offset="0.6577" stop-color="#555555"/>
<stop offset="0.7202" stop-color="#525252"/>
<stop offset="0.9944" stop-color="#4E4E4E"/>
</linearGradient>
<clipPath id="clip0">
<rect width="198.4" height="56" fill="white" transform="translate(52.8008 15)"/>
</clipPath>
</defs>
</svg>
