<svg width="304" height="85" viewBox="0 0 304 85" fill="none" xmlns="http://www.w3.org/2000/svg">
<g clip-path="url(#clip0)">
<g clip-path="url(#clip1)">
<path d="M155.654 61.8032C148.315 61.8032 147.859 57.4862 149.215 52.5801H155.144C154.567 55.2883 154.199 57.5641 157.457 57.5641C159.461 57.5641 160.717 56.2704 161.126 54.3451C162.21 49.2436 150.345 48.9302 152.141 40.4904C153.083 36.0559 155.954 32.5235 163.176 32.5235C168.946 32.5235 171.261 35.113 169.608 41.0416H163.837C164.288 38.9208 164.394 36.7622 162 36.7622C160.077 36.7622 158.714 37.8229 158.297 39.7837C157.152 45.1603 169.184 44.6894 167.289 53.6005C165.728 60.9407 160.168 61.8032 155.654 61.8032ZM190.305 61.3324L196.333 32.9949H211.798L210.871 37.3518H201.334L199.848 44.338H208.639L207.713 48.6946H198.919L197.16 56.9769H207.012L206.086 61.3324H190.305ZM184.539 44.3378L186.953 32.9943H192.88L186.851 61.3344H180.927L183.615 48.6947H176.824L174.136 61.3344H168.208L174.234 32.9943H180.162L177.75 44.3378H184.539ZM140.328 41.0417L130.392 61.3345H124.417L138.293 32.9948H146.105L147.771 61.3345H141.526L140.328 41.0417ZM224.035 32.9925C231.807 32.9925 232.159 38.1741 230.28 47.0059C229.353 51.365 227.9 61.3326 217.772 61.3326H208.118C210.127 51.8858 212.135 42.4383 214.144 32.9925H224.035ZM224.242 47.1634C225.35 41.9433 226.329 37.3516 222.207 37.3516H219.144C217.754 43.8927 216.362 50.4338 214.971 56.977H217.836C221.448 56.977 222.729 54.2675 224.242 47.1634ZM123.005 61.3345H117.08L119.767 48.6956H112.976L110.288 61.3345H104.36L110.389 32.9952H116.314L113.902 44.3379H120.694L123.105 32.9952H129.031L123.005 61.3345ZM92.5673 44.3378L94.0522 37.3517H87.264L85.7763 44.3378H92.5673ZM105.905 37.3517H99.9801L98.4949 44.3378H104.42L103.493 48.6955H97.5687L94.8786 61.3344H88.9532L91.6404 48.6955H84.8504L82.1625 61.3344H76.2364L78.924 48.6955H73L73.9262 44.3378H79.8502L81.3351 37.3517H75.4111L76.3376 32.9951H82.262L84.6741 21.6587H90.5995L88.1899 32.9951H94.9809L97.3913 21.6587H103.318L100.907 32.9951H106.832L105.905 37.3517Z" fill="black"/>
</g>
</g>
<defs>
<clipPath id="clip0">
<rect width="158.4" height="56" fill="white" transform="translate(73 14)"/>
</clipPath>
<clipPath id="clip1">
<rect width="158.261" height="41.1478" fill="white" transform="translate(73 21.3042)"/>
</clipPath>
</defs>
</svg>
