<svg fill="none" height="37" viewBox="0 0 145 37" width="145" xmlns="http://www.w3.org/2000/svg" xmlns:xlink="http://www.w3.org/1999/xlink"><clipPath id="a"><path d="m0 .775879h144.147v36.2179h-144.147z"/></clipPath><g clip-path="url(#a)"><path clip-rule="evenodd" d="m.563841 1.48192c3.596939 4.40962 7.546069 9.94928 8.184899 10.84538l.0735.1029c.3405.4754.62159.8288.83504 1.0971.47402.5958.61452.7725.33179.9349-.22799.131-.46349.1742-.69823.1742-.2655 0-.56474-.129-.78254-.3378-.15405-.1476-1.20763-1.6933-2.6425-3.9419-1.09783-1.72066-2.01657-3.14804-2.04147-3.17188-.05805-.05535-.057-.0534 1.92957 3.53698 1.24738 2.2544 2.10071 3.9206 2.10071 4.0271 0 .2169-.0585.3309-.32339.6291-.44145.4975-.63869 1.0564-.78119 2.213-.1596 1.2966-.60869 2.2126-1.85307 3.7801-.72838.9177-.84763 1.0858-1.03153 1.4557-.23144.4658-.29504.7266-.32099 1.3148-.02715.6219.02595 1.0235.21404 1.618.1647.5205.33645.8643.77594 1.5516.37919.5932.59744 1.034.59744 1.2065 0 .1373.02595.1374.61349.0035 1.40622-.3209 2.548-.8848 3.19014-1.5762.39749-.4279.49079-.6642.49379-1.2505.0021-.3836-.0114-.4638-.114-.6845-.16709-.3592-.47129-.6577-1.14147-1.1206-.87854-.6066-1.25368-1.0948-1.35733-1.7663-.08505-.551.0135-.9398.49949-1.9685.50294-1.0648.62759-1.5185.71204-2.5919.05445-.6935.12975-.9669.32699-1.1863.2058-.2289.3909-.3065.89999-.3768.83011-.1145 1.35851-.3315 1.79291-.7358.3769-.3507.5346-.6888.5589-1.1976l.0183-.3855-.2106-.248c-.7626-.8982-11.3613998-12.656821-11.40834899-12.656821-.01004982 0 .24089599.317691.55768999.706041zm4.996259 23.36328c.1725-.3085.0807-.705-.20774-.8988-.27255-.183-.69584-.0967-.69584.1418 0 .0727.0399.1257.1296.1725.15119.0786.16229.1669.0432.3475-.12045.183-.1107.3438.02744.453.22275.1762.5382.0793.70334-.216zm5.1901-16.8207c-.3402-.0534-.3546-.0597-.1944-.08445.3067-.0477 1.0313.01725 1.5305.1371 1.1657.27989 2.2263.99688 3.3585 2.27005l.3007.3383.4304-.0698c1.8127-.2943 3.6567-.0604 5.1992.6592.4243.198 1.0933.5922 1.1768.6935.0266.0322.0756.24.1086.4618.1146.7671.0573 1.3549-.175 1.7941-.1263.239-.1334.3147-.0485.5193.0678.1632.257.284.4443.2837.3833-.0005.7958-.6264.987-1.4971l.0759-.3459.1505.172c.825.9442 1.4731 2.232 1.5844 3.1485l.0289.2389-.1386-.2172c-.2388-.3738-.4784-.6283-.7856-.8335-.5535-.3701-1.139-.4959-2.689-.5784-1.4001-.0746-2.1924-.1955-2.9781-.4542-1.3369-.4403-2.0107-1.0266-3.5987-3.1309-.7053-.9346-1.1412-1.452-1.575-1.86823-.9852-.94648-1.9534-1.44267-3.1928-1.63692zm12.1175 2.0869c.0352-.62638.1194-1.03947.2884-1.41671.0669-.1494.1296-.2715.1392-.2715.0098 0-.0193.1101-.0646.2448-.1229.36614-.1431.86698-.0584 1.44961.1074.7394.1686.8459.9422 1.6445.3628.3747.7849.8471.9379 1.05l.2782.3687-.2782-.2635c-.3402-.3224-1.1226-.951-1.2954-1.0407-.1159-.0603-.1332-.0593-.2046.0126-.0658.0661-.0798.1657-.0889.636-.0143.7332-.1131 1.2038-.3519 1.6742-.1292.2546-.1496.2003-.0327-.087.0873-.2145.0961-.3088.0955-1.0184-.0013-1.4261-.169-1.7688-1.1519-2.356-.2489-.1488-.6593-.3635-.9117-.477-.2523-.1134-.4529-.2123-.4457-.2196.0279-.0281.9866.2545 1.3724.4045.5738.2229.6685.2519.7382.225.0467-.018.0693-.1555.092-.5595zm-12.4822-1.09482c-.0925 1.10102.3348 2.57362 1.0255 3.53422.5355.7446 1.3656 1.3233 1.9785 1.3791.4011.0366.5217-.0903.3402-.358-.252-.3717-.562-.9441-.6441-1.1892-.051-.1523-.1615-.602-.246-.9993-.2881-1.3567-.5715-1.88518-1.2255-2.28642-.2385-.14625-.7475-.33764-1.0427-.39209l-.1572-.02895zm11.6445 10.68312c-3.2281-1.3128-4.3651-2.4523-4.3651-4.375 0-.283.0097-.5145.0214-.5145.0119 0 .1367.0935.2775.2076.6546.5303 1.3877.7568 3.417 1.0559 1.1939.1759 1.8659.318 2.4859.5257 1.9702.66 3.1892 1.9993 3.4799 3.8237.0845.5301.035 1.5242-.102 2.0481-.1081.4138-.4381 1.1596-.5256 1.1883-.0243.0079-.0481-.086-.0543-.2138-.0331-.685-.3759-1.3519-.9514-1.8515-.6544-.5681-1.5337-1.0202-3.6833-1.8945zm-2.4222-.1445c.0453.1364.1155.4467.1558.6899.2586 1.5543-.5491 2.81-2.1203 3.2966-.1664.0515-.8215.1811-1.456.2877-1.2845.216-1.8576.369-2.4336.6492-.4083.1988-.9028.4963-.8734.5259.0094.0096.1027-.0129.2071-.05.7263-.2575 1.5345-.3908 2.7624-.4553.4873-.0255 1.0415-.0663 1.2317-.0905 1.094-.1392 1.8522-.4749 2.4419-1.081.328-.3374.5236-.6516.6812-1.0947.0999-.2809.1134-.3855.1142-.8835.0009-.5074-.0113-.6003-.1196-.9124-.1417-.4092-.309-.7163-.5208-.9564l-.1529-.1734zm1.6357 3.3444c-.429-.9313-.5274-1.8304-.2925-2.6689.0252-.0897.0656-.1631.09-.1631.0243 0 .1254.0554.2249.1229.1975.1344.594.3607 1.6499.9423 1.3179.7257 2.0693 1.2875 2.5801 1.9297.4475.5622.7244 1.2025.8576 1.9834.0756.4423.0313 1.5067-.081 1.9521-.3543 1.4044-1.1778 2.5075-2.3523 3.1513-.172.0942-.3265.1716-.3433.172-.0167.0003.046-.1606.1393-.3579.3951-.8343.4401-1.6458.1415-2.5489-.183-.553-.5559-1.2279-1.3089-2.3685-.8754-1.3259-1.09-1.6789-1.3053-2.1464zm-8.0788 3.0545c-1.3575.2228-2.8482.9485-4.04606 1.9701l-.35654.3042.31349.0495c1.63541.2578 2.07601.4866 3.21041 1.6671.6528.6791.8733.8303 1.4149.97.7953.205 1.5793-.1718 1.8483-.8884.1201-.3203.1041-.8505-.0338-1.1169-.3279-.6339-1.2832-.8388-1.745-.3744-.3849.3868-.2727.9696.2058 1.0698.1095.0231.1064.0181-.0279-.0432-.2094-.0957-.3005-.2283-.3015-.4394-.0027-.4948.5579-.7726 1.0793-.535.3819.1741.5336.4015.5336.8002 0 .614-.5174 1.0766-1.1193 1.001-.3219-.0405-.7155-.2484-.9264-.4895-.531-.6063-.3241-1.5633.4172-1.9305.5644-.2794 1.3145-.2105 1.8964.1742.6684.4422.9526.8463 1.5283 2.1726.1875.4318.4287.9179.5359 1.0801.5454.8247 1.1988 1.2291 1.9859 1.2291.434 0 .7606-.0801 1.1714-.2873.3053-.154.738-.4467.7068-.478-.0088-.0089-.1354.0309-.2814.0883-.8593.3386-1.7329.3153-2.2402-.0598-.3195-.2361-.5772-.7065-.7096-1.2948-.023-.1018-.0986-.5515-.1682-.9994-.1764-1.1352-.3457-1.6455-.7407-2.2311-.4041-.5991-1.1809-1.1019-2.0494-1.3264-.5418-.1401-1.5164-.1782-2.1017-.0821zm-1.9014-8.7768c.1171-.4374.4959-.8545.8856-.9754.2478-.0768.7599-.0277 1.0008.0959.4665.2396.8055.7855.732 1.1795-.0899.4805-.8612.8649-1.7486.8712-.4533.0032-.6207-.0583-.7936-.2917-.1072-.1446-.1477-.6126-.0762-.8795zm1.7671-.7082c.2328.1435.2925.3557.1559.5521-.0944.1353-.3861.2638-.5994.2638-.3204 0-.6699-.2298-.6699-.4402 0-.4228.6703-.6492 1.1134-.3757zm69.5539 1.2106c-.724-2.4079.47-4.4051 3.0171-5.0468.7306-.1842 4.0385-.1011 4.6052.1158.208.0793.2986.3843.3006 1.0109.0013.4935.0553 1.0931.1194 1.332.0976.3624.0406.4338-.3419.428-.3457-.0054-.5548-.2081-.8468-.8213-.4665-.9795-1.0313-1.2908-2.347-1.2944-1.6802-.005-2.9094 1.1261-2.7092 2.4928.1304.8893 1.019 1.7644 3.013 2.9674 1.8974 1.1443 3.0046 2.0854 3.4459 2.9285 1.1799 2.2542.1724 4.6664-2.4565 5.8819-1.3494.6238-3.6109.6883-5.2007.1483l-1.0182-.3459v-1.6269c0-1.4732.0351-1.6271.3708-1.6271.281 0 .4025.1857.501.7673.2453 1.4465 1.3444 2.3246 2.91 2.3246 1.5335 0 2.6057-.8379 3.0163-2.3572.1749-.6473.1449-.8859-.2021-1.5999-.4158-.8561-1.1319-1.4241-3.5635-2.8269-1.3492-.7785-2.3033-1.8193-2.6134-2.8511zm-47.6663-4.0856c-.3318 0-.4611-.1085-.4611-.3866 0-.3681.1293-.3864 2.7292-.3864 2.4132 0 2.7222.0363 2.6667.3132-.0345.1725-.3681.4115-.7414.5314l-.6788.2183-.058 4.9279c-.0387 3.2882.0157 5.1851.1639 5.7008.4403 1.5337 1.783 2.4157 3.6778 2.4157 1.3191 0 2.0896-.3084 3.0578-1.2243 1.0412-.9846 1.2072-1.9201 1.2039-6.7824-.0031-4.7962-.0867-5.1921-1.1167-5.2915-.4688-.0454-.6258-.1545-.6258-.4348 0-.3495.1548-.3743 2.3272-.3743 2.1979 0 2.3272.0215 2.3272.3864 0 .2382-.1302.3878-.3393.3894-.8983.008-.9148.0934-1.0356 5.3525-.1255 5.4616-.2426 6.108-1.3495 7.4459-.3192.3859-1.0804.9463-1.6915 1.2454-.9958.4873-1.3125.5434-3.0505.5401-1.6021-.0033-2.1079-.0807-2.909-.4453-1.1696-.5323-1.9299-1.2213-2.4906-2.2566-.3913-.7226-.4249-1.1137-.5155-6.0101-.1037-5.6046-.1539-5.8747-1.0904-5.8747zm18.1476 0c-.4432 0-.5727-.0873-.5727-.3866 0-.3622.1241-.3855 1.9879-.3705l1.9878.0158.9511 1.0952c.5229.6024 2.2273 2.4869 3.7876 4.1875 1.5603 1.7005 3.3514 3.6789 3.9803 4.3963.6291.7176 1.2213 1.3045 1.316 1.3045.097 0 .1456-2.0267.1108-4.655l-.061-4.655-.5442-.4661c-.2993-.2565-.7574-.4661-1.0182-.4661-.3469 0-.474-.105-.474-.392 0-.3774.0991-.39 2.6666-.3381 2.1831.044 2.6667.105 2.6667.3357 0 .1644-.27.3369-.6484.414-.3564.0728-.7491.2328-.8727.3556-.1592.1587-.2405 2.2101-.2798 7.0744l-.0556 6.8508h-.5621c-.4838 0-1.0598-.5445-4.1394-3.9133-1.9675-2.1524-4.264-4.7105-5.1034-5.6846-.8395-.9742-1.5919-1.7787-1.6717-1.7875-.2252-.0252-.1707 8.6785.0595 9.5047.1796.6438.3029.7547 1.0656.9581.6143.1636.8627.3297.8627.5763 0 .3166-.234.3463-2.7151.3463-2.5254 0-2.7151-.0252-2.7151-.3622 0-.2468.1827-.3987.5731-.4766 1.1841-.2359 1.2627-.6105 1.3293-6.3359.0372-3.2066-.0176-5.4503-.1446-5.9201-.2232-.826-.7794-1.2056-1.767-1.2056zm20.3354 0c-.4153 0-.5447-.0918-.5447-.3866 0-.3693.1294-.3864 2.909-.3864 2.7797 0 2.909.0171 2.909.3864 0 .2835-.1292.3866-.4847.3866-.2667 0-.6629.1774-.8805.3943-.3842.3828-.3941.573-.3395 6.4896.0534 5.7757.0761 6.1099.4328 6.3695.2071.1508.5779.2741.8242.2741.3185 0 .4477.1116.4477.3865 0 .3693-.1293.3864-2.909.3864-2.7136 0-2.909-.0243-2.909-.3616 0-.2721.1904-.3921.7684-.4844 1.1475-.1828 1.2063-.5572 1.1347-7.238-.0573-5.3501-.0819-5.6837-.4372-5.9424-.207-.1508-.6215-.274-.9212-.274zm20.2921 0c-.2652 0-.4669-.147-.5298-.3866-.0979-.3736-.0058-.3864 2.7897-.3864 2.7614 0 2.8907.0171 2.8907.3864 0 .297-.1293.3866-.5581.3866-1.2208 0-1.1935.221.6543 5.2749.9405 2.5726 1.8541 5.0164 2.0291 5.4305l.319.7531 1.481-3.9417c1.744-4.6399 1.971-5.4979 1.674-6.3442-.206-.5898-1.008-1.1726-1.614-1.1726-.171 0-.3-.1662-.3-.3866 0-.3699.129-.3864 3.006-.3864 2.876 0 3.006.0165 3.006.3864 0 .2751-.13.3866-.448.3866-.816 0-1.175.4333-1.058 1.2749.121.8667 3.456 10.1799 3.596 10.0405.228-.2266 3.922-10.2523 3.922-10.6432 0-.4681-.329-.6722-1.083-.6722-.34 0-.469-.1065-.469-.3866 0-.3649.129-.3864 2.327-.3864 1.974 0 2.327.0456 2.327.3 0 .165-.241.384-.537.4865-.665.2309-.832.4945-1.666 2.6297-.848 2.1737-1.698 4.3473-2.547 6.5208-.66 1.6907-1.321 3.3817-1.98 5.0729-.054.1413-.375.2568-.713.2568h-.614l-1.393-3.6234c-.672-1.7481-1.343-3.4969-2.011-5.2465-.583-1.5298-.632-1.5963-.851-1.1596-.128.2551-1.049 2.6203-2.046 5.256l-1.813 4.7924-.676-.0577-.677-.0578-2.5807-6.7486c-1.4416-3.7705-2.7676-6.9475-3.0046-7.1987-.2332-.2475-.6169-.4498-.8526-.4498zm38.7779.0819c-.032-.0734-.032-.3372-.032-.3372s-.008-.0951.032-.146c.04-.0505.054-.0519.197-.0654l.001-.0001c.524-.0498 1.575-.1337 2.451-.1719.081-.0035.171-.0075.269-.012h.002c.965-.044 2.691-.1025 3.878-.0432 2.277.1138 3.896 1.2143 4.448 3.0332.552 1.8187.26 3.526-.492 4.6127-.752 1.0868-2.017 2.0224-4.12 1.9615-1.736-.0502-2.2-.3753-2.571-.6349-.079-.0549-.153-.1069-.234-.1527v2.3194c.018 1.5819.031 2.3416.154 2.6229.165.3786.538.6118 1.265.7906 0 0 .329.0771.414.1593.084.0822.084.2647.084.2647s.018.1707-.05.2577c-.069.087-.2.0696-.2.0696l-3.219-.0259-1.941-.0051s-.204.0391-.28-.0429c-.076-.0821-.069-.2529-.069-.2529s.016-.184.106-.2664c.089-.0823.42-.1746.42-.1746.749-.2101 1.073-.4324 1.243-.8512.136-.3375.137-.9638.136-6.0731-.001-4.8454-.008-5.7493-.119-6.0092-.165-.3848-.577-.4868-1.163-.6318-.123-.0301-.246-.0615-.369-.0941 0 0-.208-.0276-.241-.101zm9.373 3.9537c0 .7946-.014 2.0385-.86 2.8336-.846.7952-2.511 1.0128-3.642.7914-.356-.0697-.56-.1773-.717-.2602l-.016-.0083-.289-.1524-.017-2.7916c-.01-1.7491.008-2.8886.049-3.0515.038-.9225 1.398-1.0371 2.063-1.0029 2.844 0 3.346 2.3961 3.429 3.6419zm-18.409-4.6599-.244.0927-.759.3922-.547 1.365c-.3.7509-.85 2.129-1.222 3.0628-.528 1.3293-1.06 2.6574-1.594 3.9842-.139.343-.556 1.3876-.928 2.3214-.373.9335-.745 1.8221-.827 1.9745l-.044.0816c-.208.3911-.57 1.0706-1.208 1.1733 0 0-.351.0345-.481.1629-.13.1286-.118.2335-.118.2335v.1619s.012.0784.086.1174c.074.0392.173.0414.173.0414l2.336-.0265h2.414s.171.0199.237-.0347c.065-.0546.084-.1356.084-.1356v-.1703s-.034-.1848-.129-.257c-.096-.072-.454-.1213-.454-.1213-.967-.1271-1.133-.858-1.014-1.5153.059-.323.447-1.5175.885-2.7202l.151-.4157 2.529-.0193c1.391-.0107 2.593-.0035 2.669.016.11.0278.264.3399.715 1.4517.684 1.6845.739 1.8897.587 2.2048-.009.0192-.019.0404-.029.0632-.142.3048-.418.897-1.113.9573 0 0-.369.0127-.461.123-.092.1104-.072.2372-.072.2372v.1686s.025.0989.072.138c.048.0392.128.0293.128.0293l2.296-.0165 3.227-.0002s.127.0135.161-.0351c.035-.0487.042-.106.042-.106v-.2239s-.014-.1191-.076-.1848c-.062-.0656-.481-.1349-.481-.1349-.534-.0862-.801-.5275-.999-.8562-.051-.0838-.097-.1603-.142-.2217-.092-.1252-.42-.8116-.677-1.4717-.257-.6602-.837-2.1515-1.289-3.3138-.451-1.1623-1.082-2.7838-1.4-3.6031-.512-1.3153-1.023-2.6308-1.533-3.9464v-.0003c-.283-.7296-.397-1.024-.429-1.0639-.101-.1293-.416 0-.416 0s-.039.015-.106.0405zm-.044 4.398c-.135-.3283-.268-.6574-.399-.9872-.213-.5369-.294-.6605-.359-.5496-.02.0324-.154.3993-.298.8153-.936 2.694-1.36 3.907-1.445 4.1356-.054.1437-.097.2918-.097.3291 0 .0429.761.068 2.065.068 1.137 0 2.066-.0141 2.066-.0314 0-.0172-.101-.2743-.225-.5716-.124-.2972-.427-1.0394-.674-1.6491-.21-.5201-.422-1.0398-.634-1.5591z" fill="#737d8c" fill-rule="evenodd"/></g></svg>