<svg width="304" height="85" viewBox="0 0 304 85" fill="none" xmlns="http://www.w3.org/2000/svg">
<g clip-path="url(#clip0)">
<path fill-rule="evenodd" clip-rule="evenodd" d="M82.4894 23.5968L82.7843 25.3782C83.0169 27.0355 83.1246 28.7078 83.1067 30.3812C83.1047 34.0791 82.6581 37.7633 81.7763 41.3548C80.5839 46.2341 78.5069 50.8541 75.6482 54.986C72.3449 59.7314 67.5686 64.3987 60.6064 68.149L59.7547 68.6075L58.9029 68.149C51.9407 64.3987 47.1664 59.7314 43.8611 54.986C41.0024 50.854 38.9255 46.2341 37.733 41.3548C36.8514 37.764 36.4048 34.0804 36.4027 30.3831C36.3847 28.7098 36.4924 27.0374 36.725 25.3802L37.02 23.5987C37.0451 23.4534 37.0413 23.3046 37.0086 23.1608C36.976 23.017 36.9151 22.8811 36.8296 22.7609C36.7441 22.6407 36.6357 22.5386 36.5105 22.4605C36.3853 22.3823 36.2459 22.3297 36.1002 22.3056C35.9546 22.2816 35.8056 22.2865 35.6619 22.3202C35.5182 22.3539 35.3826 22.4157 35.2629 22.502C35.1432 22.5882 35.0418 22.6973 34.9645 22.8229C34.8872 22.9486 34.8355 23.0882 34.8125 23.2339L34.5175 25.0153C34.2638 26.7931 34.1456 28.5875 34.164 30.3831C34.1654 34.2625 34.6337 38.1276 35.5587 41.8953C36.818 47.0405 39.0102 51.9118 42.0267 56.268C45.5137 61.2807 50.5713 66.2095 57.85 70.1217L59.2331 70.8651C59.396 70.953 59.5783 70.9991 59.7634 70.9991C59.9486 70.9991 60.1309 70.953 60.2938 70.8651L61.6749 70.1217C68.9458 66.2075 74.0054 61.2807 77.4982 56.268C80.5132 51.9121 82.704 47.0415 83.9623 41.8973C84.8874 38.1296 85.3557 34.2644 85.3571 30.3851C85.3754 28.5894 85.2572 26.795 85.0035 25.0173L84.7085 23.2358C84.6855 23.0902 84.6339 22.9505 84.5565 22.8249C84.4792 22.6993 84.3778 22.5902 84.2581 22.5039C84.1384 22.4176 84.0028 22.3559 83.8591 22.3222C83.7154 22.2885 83.5664 22.2835 83.4208 22.3076C83.2752 22.3317 83.1357 22.3843 83.0105 22.4624C82.8854 22.5406 82.7769 22.6427 82.6914 22.7629C82.6059 22.8831 82.5451 23.019 82.5124 23.1628C82.4797 23.3066 82.4759 23.4554 82.5011 23.6007L82.4894 23.5968Z" fill="black"/>
<path fill-rule="evenodd" clip-rule="evenodd" d="M43.1334 22.3835L59.7576 17.3103L76.7529 22.4927C77.0374 22.5777 77.3441 22.5466 77.6057 22.4063C77.8674 22.266 78.0627 22.0278 78.149 21.744C78.2353 21.4602 78.2055 21.1538 78.0661 20.8918C77.9267 20.6299 77.6892 20.4338 77.4054 20.3464L60.0838 15.0644C59.8712 14.9994 59.6439 14.9994 59.4313 15.0644L42.479 20.2332C42.3373 20.2755 42.2054 20.3454 42.0908 20.4387C41.9762 20.5321 41.8813 20.6471 41.8113 20.7772C41.7414 20.9073 41.6978 21.05 41.6832 21.1969C41.6686 21.3439 41.6832 21.4923 41.7262 21.6336C41.7691 21.7749 41.8396 21.9064 41.9336 22.0204C42.0275 22.1345 42.1431 22.2289 42.2737 22.2982C42.4042 22.3675 42.5472 22.4103 42.6944 22.4243C42.8416 22.4383 42.9901 22.4231 43.1314 22.3796L43.1334 22.3835Z" fill="black"/>
<path fill-rule="evenodd" clip-rule="evenodd" d="M34.924 23.9247L58.7565 70.3872C58.8494 70.5688 58.9904 70.7215 59.164 70.8287C59.3377 70.9359 59.5375 70.9935 59.7416 70.9954C59.9458 70.9972 60.1465 70.9431 60.3221 70.8389C60.4976 70.7348 60.6412 70.5847 60.7374 70.4047L75.2713 43.2535L75.2928 43.2106L84.5953 23.8935C84.7214 23.6269 84.7371 23.3214 84.6389 23.0434C84.5407 22.7653 84.3366 22.5372 84.0709 22.4087C83.8053 22.2801 83.4996 22.2615 83.2203 22.3569C82.941 22.4522 82.7106 22.6538 82.5793 22.9179L73.2924 42.2194L59.786 67.4681L36.9146 22.9023C36.8487 22.77 36.7571 22.652 36.6452 22.5553C36.5333 22.4586 36.4034 22.385 36.2628 22.3388C36.1222 22.2926 35.9739 22.2747 35.8264 22.2862C35.6789 22.2977 35.5351 22.3383 35.4034 22.4057C35.2717 22.4731 35.1547 22.5659 35.0592 22.6788C34.9637 22.7916 34.8915 22.9223 34.8469 23.0633C34.8023 23.2042 34.7862 23.3526 34.7994 23.4998C34.8126 23.647 34.855 23.7901 34.924 23.9208V23.9247Z" fill="black"/>
<path fill-rule="evenodd" clip-rule="evenodd" d="M46.3313 44.6179H72.8342C73.1309 44.6179 73.4153 44.5003 73.6251 44.2908C73.8348 44.0813 73.9526 43.7971 73.9526 43.5009C73.9526 43.2046 73.8348 42.9205 73.6251 42.711C73.4153 42.5015 73.1309 42.3838 72.8342 42.3838H46.3313C46.0347 42.3838 45.7502 42.5015 45.5405 42.711C45.3307 42.9205 45.2129 43.2046 45.2129 43.5009C45.2129 43.7971 45.3307 44.0813 45.5405 44.2908C45.7502 44.5003 46.0347 44.6179 46.3313 44.6179ZM120.255 34.9789H103.014C102.716 34.9805 102.43 35.0994 102.22 35.3098C102.009 35.5202 101.89 35.8052 101.888 36.1028V49.9253C101.891 50.2227 102.01 50.5074 102.22 50.7177C102.431 50.9281 102.716 51.0471 103.014 51.0492H120.255V53.3906H103.014C102.559 53.3927 102.108 53.3047 101.687 53.1318C101.267 52.9589 100.884 52.7044 100.563 52.3831C100.241 52.0618 99.9863 51.6801 99.8132 51.2599C99.6401 50.8397 99.552 50.3894 99.5541 49.935V36.1126C99.552 35.6582 99.6401 35.2079 99.8132 34.7877C99.9863 34.3675 100.241 33.9858 100.563 33.6645C100.884 33.3432 101.267 33.0887 101.687 32.9158C102.108 32.7429 102.559 32.6549 103.014 32.657H120.255V34.9789ZM152.63 32.6453V34.9867H136.026V41.8297H149.372V44.1906H136.024V51.0453H152.628V53.3867H133.68V32.6453H152.63Z" fill="black"/>
<path d="M186.824 36.1298V42.2059C186.826 42.6602 186.738 43.1104 186.565 43.5305C186.391 43.9505 186.137 44.3322 185.815 44.6534C185.493 44.9747 185.111 45.2292 184.691 45.4022C184.27 45.5752 183.819 45.6633 183.365 45.6615H180.194L186.709 53.3786H183.624L177.137 45.6615H169.518C169.141 45.6424 168.766 45.6039 168.393 45.5464V53.3786H166.049V32.6742H183.347C183.802 32.6724 184.252 32.7606 184.673 32.9336C185.094 33.1066 185.476 33.3611 185.797 33.6823C186.119 34.0036 186.374 34.3852 186.547 34.8053C186.72 35.2254 186.808 35.6755 186.807 36.1298H186.824ZM169.526 43.3006H183.365C183.509 43.3024 183.652 43.2753 183.786 43.221C183.92 43.1666 184.041 43.0861 184.144 42.984C184.246 42.882 184.326 42.7606 184.381 42.627C184.435 42.4934 184.462 42.3502 184.46 42.2059V36.1298C184.463 35.9835 184.436 35.8381 184.382 35.7021C184.327 35.5661 184.247 35.4423 184.144 35.3376C184.044 35.2305 183.923 35.1456 183.789 35.0884C183.654 35.0313 183.509 35.0032 183.363 35.0059H169.524C169.226 35.0075 168.941 35.1264 168.73 35.3368C168.519 35.5473 168.4 35.8322 168.399 36.1298V42.2059C168.396 42.3521 168.424 42.4972 168.481 42.6317C168.538 42.7663 168.624 42.8872 168.731 42.9864C168.836 43.089 168.96 43.1696 169.097 43.2235C169.233 43.2775 169.379 43.3036 169.526 43.3006Z" fill="black"/>
<path fill-rule="evenodd" clip-rule="evenodd" d="M199.221 32.6453H219.971V34.9867H210.789V53.3887H208.445V34.9867H199.221V32.6453ZM232.547 53.3789V32.6453H234.891V53.3789H232.547ZM266.048 32.6453H269.046L260.369 43.0121L269.075 53.3789H266.048L258.322 44.1926H251.633V53.3789H249.273V32.6453H251.637V41.8297H258.325L266.048 32.6453Z" fill="black"/>
</g>
<defs>
<clipPath id="clip0">
<rect width="235.2" height="56" fill="white" transform="translate(34 15)"/>
</clipPath>
</defs>
</svg>
