<svg fill="none" height="50" viewBox="0 0 111 50" width="111" xmlns="http://www.w3.org/2000/svg"><g fill="#737d8c"><path d="m33.637 36.2664c-1.4038 0-2.546-.4594-3.4265-1.3783-.8806-.9252-1.3209-2.1599-1.3209-3.704v-.3254c0-1.0274.1947-1.943.5839-2.747.3956-.8104.9444-1.4421 1.6463-1.8951.7082-.4594 1.4739-.6891 2.2971-.6891 1.3463 0 2.3928.4434 3.1393 1.3304.7466.8869 1.1199 2.1567 1.1199 3.8093v.737h-7.0158c.0256 1.0209.3223 1.8473.8902 2.479.5742.6253 1.3016.938 2.1822.938.6253 0 1.1549-.1277 1.5888-.3829s.8136-.5934 1.139-1.0146l1.0816.8423c-.8678 1.3336-2.1695 2.0004-3.9051 2.0004zm-.2201-9.2841c-.7147 0-1.3145.2616-1.7994.7848-.485.5169-.7849 1.2443-.8997 2.1823h5.1876v-.134c-.0511-.8997-.2935-1.5952-.7274-2.0866-.4339-.4977-1.021-.7465-1.7611-.7465z"/><path d="m42.1363 23.2112v2.5077h1.9334v1.3687h-1.9334v6.4223c0 .4147.0861.7274.2584.938.1723.2042.4658.3063.8805.3063.2042 0 .485-.0383.8423-.1149v1.4357c-.4658.1276-.9188.1914-1.3591.1914-.7912 0-1.3878-.2393-1.7898-.7178-.402-.4786-.603-1.1582-.603-2.0387v-6.4223h-1.8856v-1.3687h1.8856v-2.5077z"/><path d="m47.9173 26.9727c.7848-.9635 1.8058-1.4452 3.0628-1.4452 2.1886 0 3.2925 1.2347 3.3117 3.704v6.8435h-1.7707v-6.853c-.0064-.7466-.1787-1.2985-.5169-1.6559-.3318-.3573-.8518-.536-1.5601-.536-.5743 0-1.0783.1532-1.5122.4595-.4339.3062-.7721.7082-1.0146 1.2059v7.3795h-1.7707v-14.7015h1.7707z"/><path d="m61.2405 36.2664c-1.4038 0-2.546-.4594-3.4265-1.3783-.8806-.9252-1.3208-2.1599-1.3208-3.704v-.3254c0-1.0274.1946-1.943.5838-2.747.3956-.8104.9444-1.4421 1.6463-1.8951.7082-.4594 1.4739-.6891 2.2971-.6891 1.3463 0 2.3928.4434 3.1393 1.3304.7466.8869 1.1199 2.1567 1.1199 3.8093v.737h-7.0158c.0256 1.0209.3223 1.8473.8902 2.479.5742.6253 1.3017.938 2.1822.938.6253 0 1.1549-.1277 1.5888-.3829s.8136-.5934 1.139-1.0146l1.0816.8423c-.8678 1.3336-2.1695 2.0004-3.9051 2.0004zm-.2201-9.2841c-.7147 0-1.3145.2616-1.7994.7848-.485.5169-.7849 1.2443-.8997 2.1823h5.1876v-.134c-.0511-.8997-.2935-1.5952-.7274-2.0866-.4339-.4977-1.021-.7465-1.7611-.7465z"/><path d="m72.3432 27.3077c-.268-.0447-.5584-.067-.871-.067-1.1613 0-1.9494.4945-2.3641 1.4836v7.3507h-1.7707v-10.3561h1.7228l.0287 1.1964c.5807-.9252 1.4038-1.3878 2.4694-1.3878.3446 0 .6062.0446.7849.134z"/><path d="m78.0859 36.2664c-1.4038 0-2.5459-.4594-3.4265-1.3783-.8806-.9252-1.3208-2.1599-1.3208-3.704v-.3254c0-1.0274.1946-1.943.5838-2.747.3956-.8104.9444-1.4421 1.6463-1.8951.7082-.4594 1.4739-.6891 2.2971-.6891 1.3463 0 2.3928.4434 3.1393 1.3304.7466.8869 1.1199 2.1567 1.1199 3.8093v.737h-7.0158c.0256 1.0209.3223 1.8473.8902 2.479.5743.6253 1.3017.938 2.1822.938.6253 0 1.155-.1277 1.5888-.3829.4339-.2552.8136-.5934 1.139-1.0146l1.0816.8423c-.8678 1.3336-2.1695 2.0004-3.9051 2.0004zm-.2201-9.2841c-.7147 0-1.3145.2616-1.7994.7848-.485.5169-.7849 1.2443-.8997 2.1823h5.1876v-.134c-.0511-.8997-.2935-1.5952-.7274-2.0866-.4339-.4977-1.021-.7465-1.7611-.7465z"/><path d="m90.5764 35.0509c-.6891.8103-1.7005 1.2155-3.0341 1.2155-1.1039 0-1.9461-.319-2.5268-.9571-.5743-.6445-.8646-1.5952-.871-2.8523v-6.7381h1.7707v6.6903c0 1.5697.6381 2.3545 1.9142 2.3545 1.3528 0 2.2525-.5041 2.6991-1.5122v-7.5326h1.7707v10.3561h-1.6845z"/><path d="m96.6637 25.7189.0479 1.1485c.7593-.8933 1.7834-1.3399 3.0723-1.3399 1.4481 0 2.4341.5551 2.9571 1.6654.345-.4977.792-.8997 1.34-1.206.556-.3063 1.21-.4594 1.963-.4594 2.271 0 3.426 1.2027 3.464 3.6083v6.9392h-1.77v-6.8339c0-.7402-.169-1.2921-.508-1.6558-.338-.3701-.906-.5552-1.703-.5552-.658 0-1.203.1979-1.637.5935-.434.3892-.686.9156-.756 1.5792v6.8722h-1.78v-6.786c0-1.5059-.737-2.2589-2.2113-2.2589-1.1613 0-1.9558.4946-2.3833 1.4836v7.5613h-1.7707v-10.3561z"/><path d="m30.3571 14.4646h1.9016c.2796 0 .5126-.0777.6991-.233.1864-.1616.2796-.3915.2796-.6898 0-.3356-.0839-.5717-.2517-.7084-.1678-.1368-.4101-.2051-.727-.2051h-1.9016zm-1.1652-2.7871h3.2345c.5966 0 1.0751.1367 1.4356.4101.3604.2735.5406.6867.5406 1.2398 0 .3356-.0839.6245-.2517.8669-.1616.2361-.3946.4195-.6991.55v.0186c.4102.087.7209.2828.9322.5873.2112.2982.3169.6742.3169 1.1279 0 .261-.0466.5064-.1398.7363-.0932.2238-.2393.4195-.4381.5873-.1989.1616-.4537.2921-.7644.3915-.3107.0932-.6805.1398-1.1093.1398h-3.0574zm1.1652 5.7047h2.06c.3542 0 .6277-.0901.8203-.2703.1989-.1864.2983-.4474.2983-.783 0-.3294-.0994-.581-.2983-.755-.1926-.1802-.4661-.2704-.8203-.2704h-2.06z"/><path d="m39.838 18.333h-1.044v-.6711h-.0187c-.1305.2423-.3262.4381-.5872.5872-.2548.143-.5158.2144-.783.2144-.6339 0-1.0938-.1553-1.3796-.466-.2797-.317-.4195-.7924-.4195-1.4262v-3.0575h1.0627v2.9549c0 .4226.0808.7209.2423.8949.1616.174.3884.261.6805.261.2237 0 .4101-.0342.5593-.1025.1491-.0684.2703-.1585.3635-.2704.0932-.118.1585-.2579.1958-.4194.0435-.1616.0652-.3356.0652-.522v-2.7965h1.0627z"/><path d="m40.9865 11.6775h1.0627v1.0067h-1.0627zm0 1.8363h1.0627v4.8192h-1.0627z"/><path d="m43.235 11.6775h1.0626v6.6555h-1.0626z"/><path d="m44.9708 13.5138h.8016v-1.4448h1.0626v1.4448h.9602v.7923h-.9602v2.5728c0 .1118.0032.2082.0094.2889.0124.0808.0341.1492.0652.2051.0373.0559.0901.0994.1585.1305.0683.0249.1616.0373.2796.0373h.2237c.0746-.0062.1492-.0186.2238-.0373v.8203c-.1181.0124-.2331.0249-.3449.0373-.1119.0124-.2269.0186-.3449.0186-.2797 0-.5065-.0248-.6805-.0745-.1678-.056-.3014-.1336-.4008-.2331-.0932-.1056-.1585-.2361-.1958-.3915-.031-.1553-.0497-.3324-.0559-.5313v-2.8431h-.8016z"/><path d="m53.3631 18.4635c-.3853 0-.7301-.0621-1.0346-.1864-.2983-.1305-.5531-.3076-.7644-.5313-.2051-.2237-.3635-.491-.4754-.8017-.1056-.3107-.1585-.6525-.1585-1.0253 0-.3667.0529-.7054.1585-1.0161.1119-.3107.2703-.5779.4754-.8016.2113-.2237.4661-.3977.7644-.522.3045-.1305.6493-.1958 1.0346-.1958s.7271.0653 1.0254.1958c.3045.1243.5593.2983.7644.522.2112.2237.3697.4909.4754.8016.1118.3107.1677.6494.1677 1.0161 0 .3728-.0559.7146-.1677 1.0253-.1057.3107-.2642.578-.4754.8017-.2051.2237-.4599.4008-.7644.5313-.2983.1243-.6401.1864-1.0254.1864zm0-.8389c.2362 0 .4413-.0497.6153-.1492.174-.0994.3169-.2299.4287-.3915.1119-.1615.1927-.3417.2424-.5406.0559-.2051.0839-.4133.0839-.6245 0-.2051-.028-.4102-.0839-.6153-.0497-.205-.1305-.3852-.2424-.5406-.1118-.1616-.2547-.2921-.4287-.3915s-.3791-.1491-.6153-.1491c-.2361 0-.4412.0497-.6152.1491s-.3169.2299-.4288.3915c-.1118.1554-.1957.3356-.2516.5406-.0498.2051-.0746.4102-.0746.6153 0 .2112.0248.4194.0746.6245.0559.1989.1398.3791.2516.5406.1119.1616.2548.2921.4288.3915.174.0995.3791.1492.6152.1492z"/><path d="m56.6795 13.5138h1.0067v.7085l.0186.0186c.1616-.2672.3729-.4754.6339-.6245.261-.1554.55-.2331.8669-.2331.5282 0 .9446.1367 1.2491.4102.3045.2734.4567.6835.4567 1.2304v3.3091h-1.0626v-3.0295c-.0125-.379-.0932-.6525-.2424-.8202-.1491-.174-.3822-.261-.6991-.261-.1802 0-.3418.0341-.4847.1025-.1429.0621-.2641.1522-.3635.2703-.0995.1119-.1772.2455-.2331.4008-.0559.1554-.0839.3201-.0839.4941v2.843h-1.0626z"/><path d="m10.3113 9-.242.76543v22.21057l.2244.2243 10.3332-6.0926z"/><path d="m10.3112 9.00049-10.3112 17.10771 10.3112 6.0926z"/><path d="m10.3112 34.1404-.1276.154v7.9182l.1276.3695 10.3156-14.5211z" stroke="#f6faff" stroke-miterlimit="10" stroke-width=".109975"/><path d="m10.3112 42.5909v-8.4504l-10.3112-6.0795z"/><path d="m10.311 32.2004 10.3157-6.0926-10.3157-4.6849z"/><path d="m0 26.1078 10.3112 6.0926v-10.7775z"/></g></svg>