<svg fill="none" height="26" viewBox="0 0 26 26" width="26" xmlns="http://www.w3.org/2000/svg"><path d="m7.66251 8.37746c.01953-.19746-.05404-.39261-.1981-.52551l-1.46747-1.80923v-.27026h4.55646l3.522 7.90504 3.0963-7.90504h4.3437v.27026l-1.2547 1.23118c-.1081.08438-.1618.22307-.1394.36034v9.04616c-.0224.1373.0313.276.1394.3604l1.2254 1.2311v.2703h-6.1634v-.2703l1.2694-1.2612c.1247-.1276.1247-.1651.1247-.3603v-7.31202l-3.5293 9.17382h-.4769l-4.10891-9.17382v6.14842c-.03425.2585.04963.5187.22746.7056l1.65095 2.0495v.2703h-4.68127v-.2703l1.6509-2.0495c.17654-.1872.25553-.4492.21278-.7056z" fill="#4e576d"/></svg>