<svg width="80" height="80" viewBox="0 0 80 80" fill="none" xmlns="http://www.w3.org/2000/svg">
<path d="M27.286 12.269C24.4531 14.4948 15.3691 23.1752 15.3691 23.1752L22.2273 34.9319L28.7122 31.0873V55.8654H46.2529C49.891 45.0252 55.452 21.6211 48.5917 14.7252C40.1721 14.7252 39.3846 11.0553 38.2152 9.09619C38.2152 9.09619 30.1189 10.0432 27.286 12.269Z" fill="#8AD0FF"/>
<path d="M62.9967 12.269C65.8296 14.4948 74.9136 23.1752 74.9136 23.1752L68.0554 34.9319L61.5705 31.0873V55.8654H44.0298C40.3917 45.0252 34.8307 21.6211 41.691 14.7252C50.1106 14.7252 50.8981 11.0553 52.0675 9.09619C52.0675 9.09619 60.1639 10.0432 62.9967 12.269Z" fill="#8AD0FF"/>
<path d="M52.0262 9.80176C52.0262 12.2896 49.0474 14.3064 45.3729 14.3064C41.6985 14.3064 38.7197 12.2896 38.7197 9.80176" stroke="#29193E" stroke-width="2.84773" stroke-linecap="round" stroke-linejoin="round"/>
<circle cx="26.8197" cy="58.3055" r="5.15271" fill="#29193E"/>
<circle cx="26.82" cy="58.3053" r="18.1183" stroke="#29193E" stroke-width="2.84773" stroke-linecap="round" stroke-linejoin="round"/>
</svg>
