<svg width="113" height="37" viewBox="0 0 113 37" fill="none" xmlns="http://www.w3.org/2000/svg">
<path d="M35.1917 26.2403L37.7892 22.3691C39.5042 23.8734 41.9211 24.9064 43.9871 24.9064C45.6118 24.9064 46.9958 24.2545 46.9958 23.2215C46.9958 22.1284 45.4012 21.7172 43.2149 21.1857C38.9626 20.1527 36.0141 18.1469 36.0141 14.5465C36.0141 10.7957 39.2334 8.34863 44.0473 8.34863C47.2064 8.34863 49.834 9.44179 51.3684 10.8559L49.0316 14.727C47.8181 13.6339 45.8424 12.8617 43.9871 12.8617C42.3624 12.8617 41.2392 13.4834 41.2392 14.366C41.2392 15.399 42.8338 15.9606 44.6289 16.3718C46.4041 16.7529 52.1908 18.177 52.1908 23.0109C52.1908 26.852 48.6205 29.4194 44.0172 29.4194C40.828 29.4295 37.378 28.1558 35.1917 26.2403Z" fill="#737D8C"/>
<path d="M53.976 23.0512V14.0151H58.7598V22.3692C58.7598 23.8435 59.7326 24.7862 61.1767 24.7862C62.6209 24.7862 63.5937 23.8435 63.5937 22.3692V14.0151H68.3775V23.0512C68.3775 26.8923 65.5193 29.4296 61.1767 29.4296C56.8342 29.4296 53.976 26.8823 53.976 23.0512Z" fill="#737D8C"/>
<path d="M70.1325 27.1831L72.2586 24.1744C73.4721 25.087 74.8261 25.7389 76.541 25.7389C77.7846 25.7389 78.637 25.3879 78.637 24.736C78.637 24.024 77.6041 23.7632 76.19 23.4624C73.8532 22.9609 70.6139 22.2188 70.6139 18.6184C70.6139 15.2787 73.5022 13.6541 77.0224 13.6541C79.7402 13.6541 81.6858 14.5968 83.13 15.5997L81.0039 18.6083C79.8205 17.8662 78.637 17.3347 77.1929 17.3347C76.19 17.3347 75.3676 17.5954 75.3676 18.2172C75.3676 18.9293 76.4006 19.1599 77.7846 19.4608C80.1213 19.9021 83.3908 20.6743 83.3908 24.2747C83.3908 27.6444 80.4723 29.4095 76.6914 29.4095C73.763 29.4296 71.6368 28.3364 70.1325 27.1831Z" fill="#737D8C"/>
<path d="M100.29 19.3003V29.0685H95.5058V20.8949C95.5058 19.3304 94.533 18.2974 93.0286 18.2974C91.3738 18.2974 90.2807 19.3604 90.2807 20.955V29.0785H85.4969V7.81714H90.2807V15.4291C91.434 14.2457 92.9083 13.654 94.6232 13.654C98.013 13.654 100.29 15.9005 100.29 19.3003Z" fill="#737D8C"/>
<path d="M102.686 9.49191C102.686 7.80705 103.96 6.57349 105.605 6.57349C107.29 6.57349 108.523 7.81707 108.523 9.49191C108.523 11.1467 107.28 12.3802 105.605 12.3802C103.96 12.3903 102.686 11.1467 102.686 9.49191ZM103.218 14.015H108.002V29.0684H103.218V14.015Z" fill="#737D8C"/>
<path fill-rule="evenodd" clip-rule="evenodd" d="M30.8934 23.1453L24.9091 31.5075C23.9584 32.8323 22.1311 33.4701 19.7462 33.2736C16.6713 33.0218 12.6066 31.3992 8.70033 28.5991C4.81512 25.808 1.96892 22.4724 0.72533 19.6462C-0.218393 17.4589 -0.211372 15.5234 0.752409 14.1985L6.74268 5.8334C7.70245 4.50456 9.52972 3.86672 11.8935 4.06329C14.9574 4.31501 19.0331 5.94472 22.9324 8.74179C26.8316 11.5389 29.6849 14.8765 30.9074 17.6956C31.8722 19.8889 31.8451 21.8185 30.8934 23.1504V23.1453ZM8.34029 6.99073C8.9661 6.13527 10.2017 5.91062 11.7441 6.03999C14.5522 6.27066 18.2378 7.79907 21.7911 10.3524C25.3443 12.9058 27.986 15.9095 29.1122 18.4909C29.714 19.904 29.9145 21.1466 29.2887 22.0101L30.091 22.5807L29.2887 22.0101L23.2974 30.3652C22.6857 31.2277 21.4421 31.4453 19.9137 31.3229C17.1056 31.0923 13.4129 29.5639 9.84664 27.0105C6.28035 24.4571 3.65377 21.4404 2.54659 18.865C1.9278 17.4459 1.74427 16.2093 2.35604 15.3468L8.34029 6.99073Z" fill="white"/>
<path fill-rule="evenodd" clip-rule="evenodd" d="M7.553 6.61784C9.51567 3.87994 16.1328 5.286 22.3617 9.74486C28.5907 14.2037 32.0417 20.0406 30.092 22.7825L24.1078 31.1446C22.1511 33.8755 15.507 32.4764 9.285 28.0136C3.06305 23.5507 -0.408958 17.7149 1.55471 14.976L7.553 6.61784Z" fill="white"/>
<path fill-rule="evenodd" clip-rule="evenodd" d="M7.213 6.47505C8.08251 5.27157 9.92984 4.68087 12.1111 4.85136C15.1068 5.09607 18.9448 6.86818 22.7689 9.59906C26.5929 12.3299 29.2696 15.109 30.452 17.88C31.3286 19.8707 31.3547 21.6438 30.4861 22.8663L24.5079 31.2285C23.6314 32.445 21.9405 32.9885 19.7732 32.811C16.7706 32.5463 12.7831 30.9567 8.96606 28.2128C7.70913 27.3161 6.5213 26.326 5.4128 25.2512C3.52436 23.457 2.4914 20.8967 1.67003 19.0142C0.793497 17.0084 0.800517 16.5832 1.67003 15.3667L7.213 6.47505ZM29.6638 22.2546C30.3708 21.2968 30.2284 19.8707 29.5354 18.2741C28.3941 15.6525 25.7645 12.2016 22.114 9.59304C18.4635 6.98452 14.9664 5.37387 12.1111 5.1432C10.3651 5.00079 8.67321 5.13117 7.98021 6.10097L7.57304 6.7027C6.92116 7.67651 6.32343 8.03956 7.01643 9.59906C8.15672 12.2417 11.5565 16.841 15.2081 19.4565C18.0412 21.4874 21.3016 22.4381 24.1208 23.1451C24.6887 23.2788 25.2656 23.3717 25.8468 23.4229C27.5517 23.5523 28.9106 23.2464 29.6096 22.3298L29.6638 22.2546ZM20.1533 13.1112C21.9816 14.415 22.9394 15.5091 23.51 16.8339C23.842 17.5741 23.6183 17.2692 23.2854 17.7235C22.9524 18.1778 22.9053 17.9552 22.11 17.887C20.6628 17.7646 19.4333 17.1198 17.606 15.808C15.7787 14.5112 15.0667 13.6417 14.509 12.3239C14.1761 11.5828 13.6797 11.321 13.9855 10.8697C14.2914 10.4184 14.3937 10.5779 15.2081 10.6391C16.6422 10.7674 18.3401 11.8074 20.1533 13.1112Z" fill="#737D8C"/>
<mask id="mask0" style="mask-type:alpha" maskUnits="userSpaceOnUse" x="0" y="4" width="32" height="29">
<path d="M7.05429 6.10209C7.93082 4.89861 9.60866 4.35805 11.796 4.52855C14.7916 4.77225 18.7781 6.3829 22.6042 9.11077C26.4151 11.8547 29.2232 15.1161 30.4026 17.8811C31.2792 19.8708 31.3053 21.6439 30.4367 22.8665L24.4585 31.2246C23.582 32.4411 21.8911 32.9846 19.7238 32.8081C16.7212 32.5424 12.7337 30.9528 8.91566 28.2089C5.08461 25.485 2.29655 22.2176 1.09308 19.4596C0.21655 17.4619 0.190476 15.6827 1.05898 14.4732L7.05429 6.10209ZM29.6013 22.2647C30.3034 21.307 30.165 19.8808 29.472 18.2842C28.3307 15.6617 25.6469 12.5677 21.9924 9.96022C18.3378 7.35269 14.5539 5.80122 11.7007 5.56052C9.96168 5.41109 8.5827 5.73001 7.8897 6.70884L7.8566 6.76299C7.1977 7.74081 7.34513 9.11077 8.03311 10.6823C9.17441 13.3229 11.8581 16.4158 15.4987 19.0314C19.1392 21.6469 22.9301 23.1954 25.7833 23.4331C27.4882 23.5625 28.8472 23.2566 29.5462 22.3399L29.6013 22.2647ZM20.2945 12.32C22.1218 13.6238 23.4666 15.1733 24.0373 16.4971C24.3702 17.2382 24.4655 17.8901 24.1255 18.3384C23.7856 18.7867 23.1537 18.9231 22.3594 18.8479C20.9123 18.7255 19.0379 17.9453 17.2106 16.6415C15.3833 15.3377 14.0244 13.7943 13.4628 12.4765C13.1368 11.7353 13.0556 11.0724 13.3745 10.6281C13.6934 10.1839 14.3463 10.0445 15.1617 10.1056C16.5858 10.248 18.4772 11.0223 20.2945 12.32Z" fill="#737D8C"/>
</mask>
<g mask="url(#mask0)">
<path d="M-0.779053 22.5819C-0.616584 22.5819 -0.357837 22.955 -0.208406 23.0573C0.284486 23.437 0.797004 23.7905 1.32702 24.1163C2.84841 25.054 4.41794 25.5705 5.99349 25.2195C8.4596 24.6699 10.7071 20.3695 13.1812 20.9542C14.5732 21.2551 15.5591 23.2298 16.7816 24.5646C17.9359 25.9105 19.2196 26.4942 20.5104 26.2294C24.3555 25.4552 25.8026 17.9054 29.7089 18.2945C32.9422 18.6546 31.6786 22.5267 34.7896 23.9057C34.8166 23.9398 30.797 15.1745 30.8522 14.0192C31.0688 9.67164 10.4985 3.39453 10.694 3.39453L0.773427 6.00205L-0.779053 22.5819Z" fill="#8F99A8"/>
<path fill-rule="evenodd" clip-rule="evenodd" d="M24.4066 24.5646C25.5339 24.7551 26.5869 24.7962 27.4494 24.6468C27.5058 24.6395 27.5571 24.6107 27.5926 24.5664C27.6281 24.522 27.6451 24.4657 27.64 24.4091C27.6293 24.3531 27.5987 24.3027 27.5536 24.2676C27.5086 24.2326 27.4522 24.2152 27.3953 24.2186C26.5528 24.361 25.568 24.3189 24.4809 24.1233C24.4215 24.1191 24.3627 24.1374 24.3163 24.1745C24.2698 24.2118 24.2391 24.265 24.2301 24.3239C24.2233 24.3789 24.2379 24.4345 24.2706 24.4792C24.3034 24.524 24.3521 24.5545 24.4066 24.5646ZM22.6947 24.1865C22.9865 24.2617 23.2653 24.3429 23.5502 24.3971C23.6006 24.4108 23.6544 24.4043 23.7 24.379C23.7457 24.3538 23.7797 24.3116 23.7949 24.2617C23.7949 24.2547 23.8019 24.2406 23.8019 24.2336C23.8119 24.1772 23.8008 24.1189 23.7706 24.07C23.7405 24.0212 23.6935 23.9852 23.6384 23.9688C23.3606 23.9147 23.0888 23.8405 22.81 23.7683C22.7842 23.7584 22.7566 23.7538 22.7289 23.7546C22.7012 23.7554 22.674 23.7618 22.6488 23.7731C22.6236 23.7844 22.6008 23.8007 22.5819 23.8208C22.5628 23.841 22.5481 23.8647 22.5383 23.8906C22.5383 23.8976 22.5312 23.9037 22.5312 23.9107C22.5222 23.9679 22.5336 24.0266 22.5635 24.0764C22.5934 24.126 22.6398 24.1636 22.6947 24.1825V24.1865ZM6.49296 10.4468C7.30129 13.7704 10.4945 16.8754 13.0609 19.0717C13.1044 19.1109 13.1615 19.1316 13.2201 19.1291C13.2785 19.1267 13.3338 19.1014 13.3738 19.0587C13.4086 19.0141 13.4245 18.9575 13.418 18.9013C13.4117 18.8451 13.3835 18.7936 13.3397 18.7578C10.8405 16.5966 7.71549 13.5809 6.93423 10.3465C6.92721 10.318 6.91458 10.291 6.89713 10.2673C6.87958 10.2437 6.85751 10.2237 6.83224 10.2086C6.80697 10.1935 6.77898 10.1835 6.7498 10.1793C6.72072 10.1752 6.69103 10.1768 6.66245 10.1841H6.65643C6.62985 10.1885 6.60448 10.1982 6.58182 10.2128C6.55915 10.2272 6.53949 10.2461 6.52425 10.2682C6.50901 10.2904 6.49838 10.3155 6.49306 10.3418C6.48764 10.3682 6.48764 10.3954 6.49296 10.4218C6.48965 10.4218 6.48644 10.4231 6.48413 10.4255C6.48173 10.4278 6.48042 10.431 6.48042 10.4343C6.48042 10.4376 6.48173 10.4408 6.48413 10.4431C6.48644 10.4455 6.48965 10.4468 6.49296 10.4468ZM6.30241 9.116C6.30241 9.26543 6.31645 9.41687 6.32949 9.56429C6.34072 9.62065 6.37301 9.6707 6.41975 9.7043C6.46648 9.73779 6.52415 9.75223 6.58121 9.74481C6.60879 9.74361 6.63577 9.73679 6.66054 9.72465C6.68531 9.71252 6.70738 9.69547 6.72523 9.67451C6.74308 9.65355 6.75652 9.62908 6.76444 9.6027C6.77247 9.57633 6.77497 9.54855 6.77176 9.52117V9.51415C6.75772 9.3577 6.73767 9.22231 6.73767 9.09293C6.73837 9.06595 6.73365 9.03908 6.72393 9.0139C6.7142 8.98863 6.69966 8.96566 6.681 8.94611C6.66245 8.92655 6.64008 8.91081 6.61541 8.89988C6.59074 8.88894 6.56406 8.88293 6.53709 8.88232H6.51001C6.48123 8.88323 6.45284 8.88985 6.42667 8.90198C6.40049 8.91402 6.37702 8.93127 6.35767 8.95253C6.33831 8.97389 6.32347 8.99896 6.31394 9.02614C6.30442 9.05342 6.3005 9.0822 6.30241 9.11098V9.116Z" fill="white"/>
</g>
</svg>
