<svg width="74" height="74" viewBox="0 0 74 74" fill="none" xmlns="http://www.w3.org/2000/svg">
<path d="M61.53 62.3746C58.2759 65.638 54.3972 68.2118 50.1258 69.942C45.8544 71.6722 41.2779 72.5234 36.67 72.4446C32.0814 72.5231 27.5239 71.6774 23.2689 69.9581C19.0139 68.2388 15.1482 65.6809 11.9022 62.4367C8.65616 59.1925 6.09604 55.3284 4.37426 51.0743C2.65249 46.8203 1.80424 42.2633 1.88003 37.6746C1.88003 27.6146 5.25003 19.2346 11.99 12.5346C15.2031 9.26783 19.0494 6.69145 23.2931 4.96333C27.5369 3.23521 32.0888 2.39175 36.67 2.48463C41.2767 2.40212 45.8526 3.24962 50.1241 4.97644C54.3956 6.70326 58.275 9.27392 61.53 12.5346C68.4167 19.2013 71.8634 27.5813 71.87 37.6746C71.9562 42.287 71.0814 46.8668 69.3013 51.1227C67.5211 55.3786 64.8746 59.2173 61.53 62.3946V62.3746Z" fill="#F6F7F9"/>
<path d="M36.88 13.4546L22.88 37.3146L36.88 30.7746V13.4546Z" fill="#B3E4FF"/>
<path d="M36.88 30.7746L22.88 37.3146L36.88 45.8046V30.7746Z" fill="#99E0FF"/>
<path d="M36.88 13.4546V30.7746L50.88 37.3146L36.88 13.4546Z" fill="#8AD1FF"/>
<path d="M36.88 30.7746V45.7746L50.88 37.2846L36.88 30.7746Z" fill="#5FC6FF"/>
<path d="M22.88 40.0346L36.88 60.2946V48.5346L22.88 40.0346Z" fill="#B3E4FF"/>
<path d="M50.88 40.0346L36.88 48.5346V60.2946L50.88 40.0346Z" fill="#8AD1FF"/>
<path d="M60.47 61.1646C55.2348 66.2392 48.5164 69.5101 41.293 70.5012C34.0697 71.4922 26.7185 70.1517 20.31 66.6746C14.3307 63.3039 9.51779 58.1945 6.51003 52.0246C3.5021 45.4915 2.58364 38.1892 3.88002 31.1146C4.99225 24.7274 7.95357 18.8067 12.3972 14.0858C16.8409 9.36482 22.5717 6.05098 28.88 4.55463C34.036 3.27958 39.4213 3.24911 44.5913 4.46577C49.7614 5.68242 54.5679 8.11131 58.6142 11.5519C62.6604 14.9925 65.8304 19.3461 67.8622 24.2533C69.8941 29.1606 70.7297 34.4808 70.3 39.7746C69.8532 47.8875 66.3265 55.5239 60.44 61.1246C59.04 62.4646 61.17 64.5846 62.56 63.2446C73.46 52.7846 76.29 35.9646 70.26 22.2446C67.4004 15.919 62.8017 10.5366 57 6.72463C50.227 2.36391 42.2262 0.308469 34.19 0.864632C26.9015 1.31838 19.9223 3.9731 14.1748 8.47793C8.42723 12.9828 4.18195 19.1256 2.00002 26.0946C-0.172571 33.3289 -0.217697 41.0354 1.87003 48.2946C4.09787 55.5123 8.51949 61.8564 14.52 66.4446C27.03 76.1246 45.6 76.3046 58.35 66.9246C59.8579 65.8181 61.2818 64.6014 62.61 63.2846C64 61.9246 61.84 59.8046 60.47 61.1646Z" fill="#231A37"/>
</svg>
