<svg width="74" height="74" viewBox="0 0 74 74" fill="none" xmlns="http://www.w3.org/2000/svg">
<path d="M61.83 62.2846C58.5796 65.5452 54.706 68.1181 50.4402 69.8499C46.1743 71.5816 41.6034 72.4369 37 72.3646C32.4094 72.446 27.8495 71.6016 23.5923 69.8819C19.3352 68.1622 15.4682 65.6025 12.2221 62.3554C8.97599 59.1084 6.41737 55.2406 4.6989 50.983C2.98043 46.7254 2.13736 42.1652 2.22002 37.5746C2.22002 27.5146 5.58669 19.1346 12.32 12.4346C15.5323 9.166 19.3781 6.58778 23.6219 4.85793C27.8657 3.12807 32.4181 2.28304 37 2.37462C41.6069 2.29685 46.1823 3.1475 50.4533 4.87586C54.7244 6.60421 58.6037 9.17489 61.86 12.4346C68.76 19.1346 72.2067 27.5146 72.2 37.5746C72.2935 42.1865 71.4219 46.767 69.6413 51.0223C67.8606 55.2776 65.2102 59.1137 61.86 62.2846H61.83Z" fill="#F6F7F9"/>
<path d="M60.77 61.0846C55.5424 66.1693 48.8287 69.4533 41.6058 70.4587C34.3828 71.464 27.0275 70.1384 20.61 66.6746C14.636 63.3003 9.82726 58.1917 6.82004 52.0246C3.81253 45.4914 2.89071 38.1903 4.18002 31.1146C5.29226 24.7274 8.25357 18.8067 12.6972 14.0858C17.1409 9.36483 22.8717 6.05099 29.18 4.55464C34.3358 3.28191 39.7203 3.25312 44.8893 4.47067C50.0584 5.68822 54.8639 8.11722 58.9096 11.5573C62.9552 14.9974 66.1251 19.35 68.1577 24.2561C70.1904 29.1623 71.0275 34.4814 70.6 39.7746C70.1397 47.8862 66.6111 55.519 60.73 61.1246C59.34 62.4646 61.46 64.5846 62.86 63.2446C73.76 52.7746 76.59 35.9646 70.56 22.2446C67.6933 15.8982 63.0804 10.4981 57.26 6.67464C50.4907 2.31402 42.4931 0.258493 34.46 0.814635C27.1741 1.27308 20.1984 3.92972 14.4533 8.43402C8.70826 12.9383 4.46381 19.0786 2.28003 26.0446C0.115767 33.2806 0.074123 40.9857 2.16004 48.2446C4.3864 55.4604 8.80417 61.804 14.8 66.3946C27.31 76.0746 45.89 76.2546 58.63 66.8746C60.1391 65.7657 61.5662 64.5492 62.9 63.2346C64.27 61.8446 62.15 59.7246 60.77 61.0846Z" fill="#231A37"/>
<path d="M38.87 42.8646V45.6046C38.8694 46.1564 39.0118 46.6989 39.2835 47.1791C39.5552 47.6594 39.9468 48.061 40.42 48.3446V48.3446L45.16 51.1146C45.6346 51.3711 46.1656 51.5053 46.705 51.5053C47.2445 51.5053 47.7754 51.3711 48.25 51.1146V51.1146L52.89 48.3446C53.3587 48.0592 53.7463 47.6583 54.0159 47.1804C54.2855 46.7024 54.4281 46.1634 54.43 45.6146V40.0746C54.4319 39.5228 54.2888 38.9802 54.015 38.5011C53.7412 38.0219 53.3464 37.6232 52.87 37.3446V37.3446L48.13 34.5646C47.6564 34.3108 47.1274 34.178 46.59 34.178C46.0527 34.178 45.5236 34.3108 45.05 34.5646V34.5646L39 38.1046L34.8 40.5446L28.75 44.0846C28.4132 44.265 28.0371 44.3593 27.655 44.3593C27.273 44.3593 26.8968 44.265 26.56 44.0846V44.0846L17.63 38.8746C17.296 38.6749 17.0193 38.3922 16.8265 38.0541C16.6338 37.716 16.5317 37.3338 16.53 36.9446V26.5346C16.5246 26.165 16.6218 25.8012 16.8106 25.4834C16.9995 25.1657 17.2728 24.9065 17.6 24.7346V24.7346L26.6 19.4246C26.9369 19.2443 27.313 19.15 27.695 19.15C28.0771 19.15 28.4532 19.2443 28.79 19.4246L37.6 24.6346C37.9366 24.8324 38.2159 25.1143 38.4105 25.4527C38.6051 25.7911 38.7083 26.1743 38.71 26.5646V30.0646L35.44 31.9646V29.1146C35.4409 28.5642 35.2985 28.023 35.0267 27.5443C34.7549 27.0656 34.3632 26.6659 33.89 26.3846L29.15 23.5046C28.6746 23.2508 28.144 23.118 27.605 23.118C27.0661 23.118 26.5354 23.2508 26.06 23.5046V23.5046L21.32 26.2846C20.8521 26.5708 20.4649 26.9718 20.1954 27.4496C19.9259 27.9274 19.7829 28.4661 19.78 29.0146V34.5546C19.7781 35.1053 19.9202 35.6469 20.192 36.1257C20.4639 36.6046 20.8562 37.0041 21.33 37.2846L26.07 40.1646C26.5428 40.4211 27.0722 40.5554 27.61 40.5554C28.1479 40.5554 28.6772 40.4211 29.15 40.1646V40.1646L35.21 36.5146L39.4 34.1846L45.56 30.5346C45.8968 30.3543 46.273 30.26 46.655 30.26C47.0371 30.26 47.4132 30.3543 47.75 30.5346L56.68 35.7446C57.0134 35.9451 57.2896 36.2279 57.4822 36.5659C57.6749 36.9038 57.7774 37.2856 57.78 37.6746V48.2046C57.7814 48.5932 57.6816 48.9755 57.4905 49.3139C57.2994 49.6523 57.0235 49.9351 56.69 50.1346V50.1346L47.76 55.3446C47.4232 55.5249 47.0471 55.6193 46.665 55.6193C46.283 55.6193 45.9069 55.5249 45.57 55.3446L36.64 50.1446C36.3066 49.9418 36.0304 49.6571 35.8379 49.3176C35.6454 48.9781 35.5429 48.5949 35.54 48.2046V44.8146L38.87 42.8646Z" fill="#8AD1FF"/>
</svg>
