<svg width="75" height="74" viewBox="0 0 75 74" fill="none" xmlns="http://www.w3.org/2000/svg">
<path d="M62.23 62.2046C58.9735 65.4683 55.0932 68.0427 50.8204 69.7745C46.5476 71.5063 41.9698 72.36 37.36 72.2846C32.7694 72.366 28.2094 71.5216 23.9523 69.8019C19.6952 68.0822 15.8282 65.5225 12.5821 62.2754C9.33596 59.0284 6.77734 55.1607 5.05887 50.903C3.3404 46.6454 2.49734 42.0852 2.58 37.4946C2.58 27.4346 5.94666 19.0513 12.68 12.3446C17.6468 7.56925 23.8796 4.31947 30.6385 2.98118C37.3973 1.64288 44.3982 2.27227 50.81 4.79462C55.0819 6.52485 58.9647 9.09184 62.23 12.3446C69.1167 19.058 72.56 27.4413 72.56 37.4946C72.6522 42.1054 71.7811 46.6848 70.0024 50.9396C68.2236 55.1945 65.5764 59.0313 62.23 62.2046Z" fill="#F6F7F9"/>
<path d="M61.16 61.0046C55.9278 66.0829 49.2118 69.3594 41.989 70.3576C34.7663 71.3557 27.4134 70.0235 21 66.5546C15.026 63.1803 10.2172 58.0716 7.20999 51.9046C4.20248 45.3714 3.28068 38.0703 4.56999 30.9946C5.68101 24.6069 8.64191 18.6856 13.0858 13.9644C17.5296 9.24327 23.2611 5.92979 29.57 4.43463C34.7282 3.1593 40.1157 3.12926 45.2878 4.34697C50.4599 5.56468 55.2681 7.99521 59.3155 11.4379C63.3629 14.8805 66.5333 19.2366 68.565 24.1463C70.5967 29.0561 71.4313 34.3787 71 39.6746C70.5396 47.7862 67.011 55.419 61.13 61.0246C59.74 62.3646 61.86 64.4846 63.26 63.1446C74.16 52.6746 76.99 35.8546 70.96 22.1446C68.0744 15.8114 63.4479 10.4288 57.62 6.62463C50.8506 2.26402 42.853 0.20849 34.82 0.764632C27.5341 1.22308 20.5584 3.87972 14.8133 8.38402C9.0682 12.8883 4.82376 19.0286 2.63999 25.9946C0.475722 33.2306 0.434078 40.9357 2.51999 48.1946C4.74398 55.4088 9.16243 61.7499 15.16 66.3346C27.67 76.0246 46.25 76.2046 58.99 66.8246C60.4991 65.7157 61.9261 64.4992 63.26 63.1846C64.66 61.7646 62.54 59.6746 61.16 61.0046Z" fill="#231A37"/>
<path d="M37.57 23.4446L27.86 33.1546L22.21 27.5046L37.57 12.1446L52.94 27.5146L47.29 33.1646L37.57 23.4446Z" fill="#8AD1FF"/>
<path d="M18.22 31.4946L12.57 37.1446L18.22 42.7946L23.87 37.1446L18.22 31.4946Z" fill="#8AD1FF"/>
<path d="M37.57 50.8446L27.86 41.1346L22.2 46.7846L37.57 62.1446L52.94 46.7846L47.29 41.1346L37.57 50.8446Z" fill="#8AD1FF"/>
<path d="M56.92 31.5046L51.27 37.1546L56.92 42.8046L62.57 37.1546L56.92 31.5046Z" fill="#8AD1FF"/>
<path d="M43.3 37.1446L37.57 42.8746L31.84 37.1446L37.57 31.4146L43.3 37.1446Z" fill="#8AD1FF"/>
</svg>
