<svg width="80" height="81" viewBox="0 0 80 81" fill="none" xmlns="http://www.w3.org/2000/svg">
<path fill-rule="evenodd" clip-rule="evenodd" d="M43.3246 4.33813C28.4197 4.33813 16.3369 16.421 16.3369 31.3259V31.9067C16.3369 46.8116 28.4197 58.8944 43.3246 58.8944C58.2295 58.8944 70.3123 46.8116 70.3123 31.9067V31.3259C70.3123 16.421 58.2295 4.33813 43.3246 4.33813ZM32.7574 30.062C32.7574 31.2912 31.761 32.2876 30.5318 32.2876C29.3026 32.2876 28.3062 31.2912 28.3062 30.062C28.3062 28.8328 29.3026 27.8363 30.5318 27.8363C31.761 27.8363 32.7574 28.8328 32.7574 30.062ZM60.6551 30.062C60.6551 31.2912 59.6587 32.2876 58.4295 32.2876C57.2003 32.2876 56.2039 31.2912 56.2039 30.062C56.2039 28.8328 57.2003 27.8363 58.4295 27.8363C59.6587 27.8363 60.6551 28.8328 60.6551 30.062ZM44.2693 31.5397C43.4489 31.5206 42.6285 31.5015 41.8081 31.5133C41.5092 31.5133 41.2226 31.6321 41.0112 31.8434C40.7999 32.0547 40.6812 32.3414 40.6812 32.6402C40.6565 33.0554 40.7297 33.4705 40.8949 33.8522C41.06 34.2339 41.3125 34.5715 41.632 34.8377C42.3267 35.3569 43.1736 35.6318 44.0408 35.6195C44.8689 35.6536 45.6807 35.383 46.3227 34.8588C46.6728 34.5525 46.9394 34.1623 47.0975 33.7249C47.2884 33.3089 47.3567 32.8472 47.2947 32.3937C47.2283 32.1557 47.0854 31.946 46.8881 31.7971C46.6909 31.6482 46.4502 31.5683 46.203 31.5697C45.5584 31.5697 44.9139 31.5547 44.2693 31.5397ZM45.1317 32.7626C45.136 32.7095 45.1456 32.6567 45.1606 32.605C45.1639 32.626 45.1639 32.6474 45.1606 32.6684C45.1523 32.7002 45.1426 32.7316 45.1317 32.7626ZM44.8219 33.2859C44.8428 33.2672 44.8696 33.2444 44.8913 33.2288C44.8804 33.2395 44.8692 33.2499 44.8577 33.26L44.8394 33.2762L44.8219 33.2859ZM42.9631 32.8872C42.9658 32.9028 42.9674 32.9156 42.9682 32.9259L42.9632 32.9079V32.9078L42.9631 32.8872Z" fill="#8AD0FF"/>
<path d="M4.6449 45.4058V62.9877L18.108 70.5823" stroke="#29193E" stroke-width="2.84773" stroke-linecap="round" stroke-linejoin="round"/>
<path d="M31.9117 45.4058V62.9877L18.4485 70.5823" stroke="#29193E" stroke-width="2.84773" stroke-linecap="round" stroke-linejoin="round"/>
<path d="M5.15244 45.1436L18.6156 37.9703L31.7989 45.3151" stroke="#29193E" stroke-width="2.84773" stroke-linecap="round" stroke-linejoin="round"/>
<circle cx="18.0316" cy="38.4481" r="3.79758" fill="#29193E"/>
<circle cx="18.0316" cy="70.7728" r="3.79758" fill="#29193E"/>
<circle cx="31.8475" cy="62.431" r="3.79758" fill="#29193E"/>
<circle cx="32.1078" cy="46.0082" r="3.79758" fill="#29193E"/>
<circle cx="4.99741" cy="46.0082" r="3.79758" fill="#29193E"/>
<circle cx="4.73667" cy="63.7342" r="3.79758" fill="#29193E"/>
</svg>
