<svg
  xmlns="http://www.w3.org/2000/svg"
  xmlns:xlink="http://www.w3.org/1999/xlink"
  width="527"
  height="680"
  fill="none"
  xmlns:v="https://vecta.io/nano"
><style
  ><![CDATA[.B{fill-rule:evenodd}.C{fill:#fff}.D{fill:#636f8c}.E{fill-opacity:.5}.F{fill:#47516b}.G{fill:#dce1ee}]]></style><g
    filter="url(#A)"
  ><path
      d="M6 51C6 26.147 26.147 6 51 6h397c24.853 0 45 20.147 45 45v550c0 24.853-20.147 45-45 45H51c-24.853 0-45-20.147-45-45V51z"
      fill="#eef2f8"
    /></g><g filter="url(#A)" class="B"><path
      d="M450 7H49C25.804 7 7 25.804 7 49v554c0 23.196 18.804 42 42 42h401c23.196 0 42-18.804 42-42V49c0-23.196-18.804-42-42-42zM49 6C25.252 6 6 25.252 6 49v554c0 23.748 19.252 43 43 43h401c23.748 0 43-19.252 43-43V49c0-23.748-19.252-43-43-43H49z"
      fill="url(#B)"
    /></g><path
    d="M74.751 38.909l-4.643 6.242V34.032h-4.604v19.82h4.604v-5.969l4.721 5.969h6.086l-6.437-7.296 6.437-7.647h-6.164z"
    fill="url(#C)"
  /><path d="M87.586 38.909h-4.565v14.943h4.565V38.909z" fill="url(#D)" /><path
    d="M85.286 38.012c.741 0 1.366-.273 1.912-.78a2.65 2.65 0 0 0 .78-1.912 2.65 2.65 0 0 0-2.692-2.692c-.741 0-1.365.273-1.912.78a2.65 2.65 0 0 0-.78 1.912 2.65 2.65 0 0 0 .78 1.912c.546.507 1.171.78 1.912.78z"
    fill="url(#E)"
  /><use xlink:href="#M" fill="url(#F)" /><use
    xlink:href="#M"
    fill="url(#G)"
    style="mix-blend-mode:multiply"
  /><path
    d="M63.514 46.4c0-.273 0-.546-.039-.78l-9.832-7.53c-3.98.663-6.984 4.136-6.984 8.31 0 4.643 3.784 8.427 8.427 8.427a8.5 8.5 0 0 0 4.604-1.365l3.433-4.487c.234-.819.39-1.678.39-2.575z"
    fill="url(#H)"
    style="mix-blend-mode:multiply"
  /><use xlink:href="#M" fill="url(#I)" style="mix-blend-mode:multiply" /><path
    d="M46.66 51.394a8.43 8.43 0 0 0 8.427-8.427 8.43 8.43 0 0 0-8.427-8.427 8.43 8.43 0 0 0-8.427 8.427 8.43 8.43 0 0 0 8.427 8.427z"
    fill="url(#J)"
  /><path
    d="M96.637 43.73h3.652c.411 0 .862.041 1.272.082s.821.164 1.15.369c.328.164.615.452.82.739.205.328.329.739.329 1.272s-.165 1.026-.452 1.395c-.328.369-.697.616-1.231.78v.041c.328.041.616.123.862.287.246.123.492.287.697.492s.329.451.452.739c.082.287.164.575.164.903 0 .533-.123.944-.328 1.313a2.37 2.37 0 0 1-.862.821c-.369.164-.78.328-1.19.41-.452.082-.862.123-1.313.123h-4.022V43.73zm2.175 3.899h1.559c.164 0 .329 0 .493-.041a2 2 0 0 0 .451-.164 1.25 1.25 0 0 0 .328-.328c.083-.123.124-.287.124-.492s-.041-.369-.124-.492a1.25 1.25 0 0 0-.328-.328c-.123-.082-.287-.123-.451-.164-.246-.041-.452-.041-.616-.041h-1.436v2.052zm0 4.063h1.929c.164 0 .328 0 .492-.041s.328-.082.452-.205a.97.97 0 0 0 .328-.369c.082-.164.123-.328.123-.533 0-.246-.041-.41-.164-.575-.123-.123-.246-.246-.452-.328-.164-.082-.369-.123-.574-.164s-.411-.041-.575-.041H98.73v2.257h.082zm6.812-3.078c0-.78.123-1.477.41-2.134a4.17 4.17 0 0 1 1.108-1.642c.452-.451 1.026-.78 1.683-1.026.616-.205 1.313-.328 2.093-.328s1.477.123 2.134.369a5.02 5.02 0 0 1 1.683 1.026 5.25 5.25 0 0 1 1.108 1.642 5.99 5.99 0 0 1 .41 2.134c0 .78-.123 1.477-.41 2.134a4.16 4.16 0 0 1-1.108 1.642c-.452.451-1.026.78-1.683 1.026s-1.354.369-2.134.369-1.477-.123-2.134-.369a5.02 5.02 0 0 1-1.683-1.026c-.451-.451-.82-.985-1.108-1.642-.246-.657-.369-1.395-.369-2.175zm2.257 0c0 .451.082.903.205 1.272a2.5 2.5 0 0 0 .616.985c.287.287.575.492.944.657s.78.246 1.272.246a3.34 3.34 0 0 0 1.272-.246c.37-.164.698-.369.944-.657a2.5 2.5 0 0 0 .616-.985c.123-.369.205-.821.205-1.272s-.082-.862-.205-1.272c-.123-.369-.329-.739-.616-.985-.287-.287-.574-.492-.944-.657s-.779-.246-1.272-.246a3.34 3.34 0 0 0-1.272.246c-.369.164-.698.369-.944.657a2.5 2.5 0 0 0-.616.985c-.164.41-.205.821-.205 1.272zm10.343-4.884h3.775c.493 0 .985.041 1.437.164a3.06 3.06 0 0 1 1.19.492c.328.246.615.534.821.903s.287.862.287 1.436c0 .698-.164 1.272-.534 1.765s-.903.78-1.559.903l2.503 4.145h-2.585l-2.052-3.899h-1.067v3.899h-2.175V43.73h-.041zm2.134 4.063h1.272c.205 0 .41 0 .615-.041s.411-.041.575-.123.328-.164.451-.328.165-.369.165-.616-.041-.451-.165-.575c-.082-.164-.205-.287-.369-.369a2.03 2.03 0 0 0-.533-.164c-.205-.041-.411-.041-.575-.041h-1.395v2.257h-.041zm7.387-4.063h3.776c.492 0 .985.041 1.436.164a3.05 3.05 0 0 1 1.19.492c.329.246.616.534.821.903.164.369.246.862.246 1.436 0 .698-.164 1.272-.533 1.765s-.903.78-1.56.903l2.504 4.145h-2.586l-2.052-3.899h-1.108v3.899h-2.175V43.73h.041zm2.134 4.063h1.272c.206 0 .411 0 .616-.041s.41-.041.575-.123.328-.164.451-.328.164-.369.164-.616-.041-.451-.164-.575c-.082-.164-.246-.246-.369-.328-.165-.082-.329-.123-.534-.164s-.41-.041-.574-.041h-1.437v2.216zm6.852.821c0-.78.124-1.477.411-2.134a4.15 4.15 0 0 1 1.108-1.642c.451-.451 1.026-.78 1.683-1.026s1.354-.369 2.134-.369a5.98 5.98 0 0 1 2.134.369c.656.246 1.19.575 1.682 1.026a5.24 5.24 0 0 1 1.108 1.642 5.99 5.99 0 0 1 .411 2.134c0 .78-.123 1.477-.411 2.134a4.15 4.15 0 0 1-1.108 1.642c-.451.451-1.026.78-1.682 1.026a5.98 5.98 0 0 1-2.134.369c-.78 0-1.478-.123-2.134-.369a5.02 5.02 0 0 1-1.683-1.026 5.24 5.24 0 0 1-1.108-1.642c-.287-.615-.411-1.354-.411-2.134zm2.217 0c0 .451.082.903.205 1.272s.328.698.615.985a3.02 3.02 0 0 0 .944.657c.37.164.78.246 1.272.246a3.35 3.35 0 0 0 1.273-.246c.369-.164.697-.369.944-.657.287-.287.492-.616.615-.985s.205-.821.205-1.272-.082-.862-.205-1.272c-.123-.369-.328-.739-.615-.985a3.02 3.02 0 0 0-.944-.657c-.37-.164-.78-.246-1.273-.246a3.35 3.35 0 0 0-1.272.246c-.369.164-.697.369-.944.657-.287.287-.492.616-.615.985-.123.41-.205.821-.205 1.272zm9.358-4.884h2.339l1.559 6.279h.041l2.052-6.279h2.011l2.052 6.443h.041l1.642-6.443h2.175l-2.873 9.808h-1.97l-2.134-6.771h-.041l-2.175 6.771h-1.847l-2.872-9.808z"
    fill="#0096fa"
  /><g fill="#8695ac"><path
      d="M61.5 85.707h-2.651L58.394 87H57.31l2.268-6.34h1.202L63.049 87h-1.093l-.455-1.293zm-.291-.847l-1.029-2.942-1.038 2.942h2.068zm4.83 2.222a2.62 2.62 0 0 1-1.066-.209c-.31-.146-.556-.34-.738-.583-.182-.249-.279-.525-.291-.829h1.075a.75.75 0 0 0 .301.538c.188.14.422.209.701.209.291 0 .516-.055.674-.164.164-.115.246-.261.246-.437 0-.188-.091-.328-.273-.419-.176-.091-.459-.191-.847-.301l-.92-.301a1.65 1.65 0 0 1-.619-.446c-.17-.2-.255-.465-.255-.793 0-.267.079-.51.237-.729.158-.225.383-.401.674-.528.298-.128.638-.191 1.02-.191.571 0 1.029.146 1.376.437.352.285.54.677.565 1.175h-1.038a.74.74 0 0 0-.273-.537c-.164-.134-.386-.2-.665-.2-.273 0-.483.052-.629.155a.48.48 0 0 0-.219.41c0 .134.049.246.146.337a1.11 1.11 0 0 0 .355.219l.619.191c.364.097.662.197.893.301.237.097.44.243.61.437s.258.452.264.774a1.3 1.3 0 0 1-.237.765c-.158.225-.383.401-.674.528-.285.127-.622.191-1.011.191zm5.048 0a2.62 2.62 0 0 1-1.066-.209c-.31-.146-.556-.34-.738-.583-.182-.249-.279-.525-.291-.829h1.075a.75.75 0 0 0 .301.538c.188.14.422.209.701.209.291 0 .516-.055.674-.164.164-.115.246-.261.246-.437 0-.188-.091-.328-.273-.419-.176-.091-.459-.191-.847-.301l-.92-.301a1.65 1.65 0 0 1-.619-.446c-.17-.2-.255-.465-.255-.793 0-.267.079-.51.237-.729.158-.225.383-.401.674-.528.298-.128.638-.191 1.02-.191.571 0 1.029.146 1.376.437.352.285.541.677.565 1.175h-1.038a.74.74 0 0 0-.273-.537c-.164-.134-.386-.2-.665-.2-.273 0-.483.052-.629.155a.48.48 0 0 0-.219.41c0 .134.049.246.146.337a1.11 1.11 0 0 0 .355.219l.619.191c.364.097.662.197.893.301.237.097.44.243.61.437s.258.452.264.774a1.3 1.3 0 0 1-.237.765c-.158.225-.383.401-.674.528-.285.127-.623.191-1.011.191zm7.827-2.715c0 .188-.012.358-.036.51h-3.835c.03.401.179.723.446.966s.595.364.984.364c.559 0 .954-.234 1.184-.701h1.12c-.152.462-.428.841-.829 1.139-.395.291-.887.437-1.476.437-.48 0-.911-.106-1.293-.319-.377-.219-.674-.522-.893-.911-.213-.395-.319-.85-.319-1.366s.103-.969.31-1.357a2.24 2.24 0 0 1 .884-.911c.383-.213.82-.319 1.312-.319.474 0 .896.103 1.266.31a2.18 2.18 0 0 1 .865.874c.206.37.31.799.31 1.284zm-1.084-.328c-.006-.383-.143-.689-.41-.92s-.598-.346-.993-.346c-.358 0-.665.115-.92.346-.255.225-.407.531-.455.92h2.778zm3.499-1.211v2.778c0 .188.043.325.128.41.091.079.243.118.455.118h.638V87h-.82c-.468 0-.826-.109-1.075-.328s-.374-.574-.374-1.066v-2.778h-.592v-.847h.592v-1.248h1.048v1.248h1.221v.847h-1.221z"
    /><path
      d="M217.91 78.799a.51.51 0 0 0-.721 0 .51.51 0 0 0-.149.36v8.961l-1.168-1.169a.51.51 0 0 0-.722 0 .51.51 0 0 0-.149.361c0 .135.054.265.149.361l2.039 2.038c.047.047.103.085.165.111a.51.51 0 0 0 .391 0c.062-.026.118-.063.165-.111l2.039-2.038c.047-.047.085-.104.11-.166s.039-.128.039-.195-.013-.133-.039-.195-.063-.118-.11-.165-.104-.085-.166-.111a.51.51 0 0 0-.195-.039c-.067 0-.134.013-.196.039s-.118.063-.165.111l-1.168 1.168v-8.961a.51.51 0 0 0-.149-.36z"
      class="B"
    /><path
      d="M228.1 85.707h-2.65L224.994 87h-1.084l2.268-6.34h1.203l2.268 6.34h-1.093l-.456-1.293zm-.291-.847l-1.029-2.942-1.039 2.942h2.068zm7.436-2.305a1.91 1.91 0 0 1-.228.911c-.152.285-.395.519-.729.701-.334.176-.762.264-1.284.264h-1.148V87h-1.039v-6.331h2.187c.486 0 .895.085 1.229.255.341.164.593.389.757.674a1.83 1.83 0 0 1 .255.956zm-2.241 1.029c.394 0 .689-.088.883-.264.195-.182.292-.437.292-.765 0-.692-.392-1.038-1.175-1.038h-1.148v2.068h1.148zM239.706 87l-1.458-2.532h-.792V87h-1.039v-6.331h2.186c.486 0 .896.085 1.23.255.34.17.592.398.756.683.17.285.255.604.255.957a1.9 1.9 0 0 1-.364 1.129c-.237.334-.604.562-1.102.683L240.945 87h-1.239zm-2.25-3.361h1.147c.389 0 .681-.097.875-.291.2-.194.301-.456.301-.783s-.098-.583-.292-.765c-.194-.188-.489-.282-.884-.282h-1.147v2.123zm11.173-2.97v.847h-2.687v1.867h2.095v.847h-2.095V87h-1.038v-6.331h3.725zm2.183 0V87h-1.038v-6.331h1.038zm4.452 3.17L257.231 87h-1.166l-1.43-2.296L253.296 87h-1.157l1.968-3.161-1.977-3.17h1.166l1.439 2.314 1.349-2.314h1.156l-1.976 3.17zm4.328-2.332v1.858h2.186v.847h-2.186v1.94h2.46V87h-3.498v-6.34h3.498v.847h-2.46zm5.989-.838c.674 0 1.263.131 1.767.392a2.7 2.7 0 0 1 1.175 1.111c.279.48.419 1.041.419 1.685s-.14 1.202-.419 1.676a2.73 2.73 0 0 1-1.175 1.093c-.504.249-1.093.374-1.767.374h-2.068v-6.331h2.068zm0 5.484c.741 0 1.308-.201 1.703-.601s.592-.966.592-1.694c0-.735-.197-1.309-.592-1.722s-.962-.619-1.703-.619h-1.03v4.637h1.03z"
    /></g><g class="C"><use xlink:href="#N" class="E" /><use
      xlink:href="#O"
      class="B"
    /></g><path
    d="M79.692 145.618c-1.239 1.241-2.715 2.221-4.34 2.879s-3.366.983-5.118.954a12.8 12.8 0 0 1-5.088-.948 12.82 12.82 0 0 1-4.299-2.885c-1.251-1.219-2.237-2.683-2.899-4.301a12.76 12.76 0 0 1-.946-5.102c0-3.826 1.281-7.014 3.844-9.563a12.82 12.82 0 0 1 4.3-2.88 12.81 12.81 0 0 1 5.087-.943c1.752-.031 3.492.292 5.117.949s3.101 1.634 4.341 2.874c2.622 2.549 3.933 5.737 3.933 9.563a12.63 12.63 0 0 1-.975 5.117c-.677 1.619-1.684 3.079-2.957 4.286h0z"
    fill="#dfe4eb"
  /><path
    d="M70.314 127.011l-5.326 9.075 5.326-2.487v-6.588z"
    fill="#8b8b8b"
  /><path
    d="M70.314 133.599l-5.326 2.487 5.326 3.231v-5.718z"
    fill="#393939"
  /><path d="M70.314 127.01v6.589l5.32 2.487-5.32-9.076z" fill="#343434" /><path
    d="M70.314 133.599v5.718l5.32-3.231-5.32-2.487z"
    fill="#161616"
  /><path
    d="M64.988 137.121l5.326 7.709v-4.475l-5.326-3.234z"
    fill="#8b8b8b"
  /><path
    d="M75.639 137.121l-5.325 3.234v4.475l5.325-7.709z"
    fill="#343434"
  /><path
    d="M95.589 132.839v2.453h3.293v1.556h-3.293v2.592h3.714v1.598h-5.676v-9.796h5.676v1.597h-3.714zm12.154-1.583v1.583h-2.607v8.199h-1.962v-8.199h-2.607v-1.583h7.176zm9.545 0v9.782h-1.962v-4.162h-4.19v4.162h-1.962v-9.782h1.962v4.022h4.19v-4.022h1.962z"
    class="F"
  /><g class="D"><path
      d="M216.222 139.885v-1.926l5.728-8.199h2.855v7.988h1.542v2.137h-1.542v2.488h-2.452v-2.488h-6.131zm6.289-7.497l-3.592 5.36h3.592v-5.36z"
    /><use xlink:href="#P" /><path
      d="M233.23 139.605l2.68-2.33c.666-.63 1.221-1.284 1.664-1.962s.666-1.343.666-1.997c0-.595-.14-1.063-.42-1.401s-.713-.508-1.297-.508-1.033.198-1.349.595c-.315.386-.478.917-.49 1.595h-2.383c.047-1.402.462-2.465 1.244-3.189.794-.724 1.799-1.086 3.013-1.086 1.332 0 2.354.356 3.066 1.069.712.7 1.069 1.629 1.069 2.785 0 .911-.246 1.781-.736 2.61a10.56 10.56 0 0 1-1.682 2.173l-2.47 2.207h5.168v2.032h-8.654v-1.822l.911-.771zm9.288-3.784c0-2.02.362-3.603 1.086-4.747.736-1.145 1.951-1.717 3.644-1.717s2.902.572 3.626 1.717c.736 1.144 1.104 2.727 1.104 4.747 0 2.032-.368 3.627-1.104 4.783-.724 1.156-1.933 1.734-3.626 1.734s-2.908-.578-3.644-1.734c-.724-1.156-1.086-2.751-1.086-4.783zm7.042 0c0-.864-.058-1.588-.175-2.172-.105-.596-.327-1.08-.665-1.454-.327-.374-.818-.56-1.472-.56s-1.15.186-1.489.56c-.327.374-.549.858-.666 1.454-.105.584-.157 1.308-.157 2.172 0 .888.052 1.635.157 2.243.105.595.327 1.08.666 1.454.339.362.835.543 1.489.543s1.15-.181 1.489-.543c.339-.374.561-.859.666-1.454.105-.608.157-1.355.157-2.243zm4.003-3.083c0-.887.257-1.582.771-2.084.525-.503 1.197-.754 2.014-.754s1.484.251 1.997.754c.526.502.789 1.197.789 2.084 0 .899-.263 1.6-.789 2.102-.513.502-1.179.754-1.997.754s-1.489-.252-2.014-.754c-.514-.502-.771-1.203-.771-2.102zm11.247-2.628l-6.885 12.263h-2.382l6.867-12.263h2.4zm-8.479 1.262c-.642 0-.964.455-.964 1.366 0 .923.322 1.384.964 1.384.315 0 .56-.111.736-.333.175-.233.262-.584.262-1.051 0-.911-.332-1.366-.998-1.366zm4.922 8.356c0-.899.257-1.594.771-2.085.526-.502 1.197-.753 2.015-.753s1.477.251 1.979.753c.514.491.771 1.186.771 2.085s-.257 1.6-.771 2.102c-.502.502-1.162.753-1.979.753-.829 0-1.501-.251-2.015-.753s-.771-1.203-.771-2.102zm2.768-1.367c-.665 0-.998.456-.998 1.367 0 .922.333 1.384.998 1.384.654 0 .981-.462.981-1.384 0-.911-.327-1.367-.981-1.367z"
    /></g><path
    d="M434 122.633h-73A13.37 13.37 0 0 0 347.633 136 13.37 13.37 0 0 0 361 149.367h73A13.37 13.37 0 0 0 447.367 136 13.37 13.37 0 0 0 434 122.633zM361 122c-7.732 0-14 6.268-14 14s6.268 14 14 14h73c7.732 0 14-6.268 14-14s-6.268-14-14-14h-73z"
    class="B G"
  /><g class="D"><use xlink:href="#Q" /><use xlink:href="#R" /><path
      d="M392.964 140l-1.46-2.65h-.41V140h-1.71v-7.02h2.87c.553 0 1.023.097 1.41.29.393.193.686.46.88.8.193.333.29.707.29 1.12 0 .467-.134.883-.4 1.25-.26.367-.647.627-1.16.78l1.62 2.78h-1.93zm-1.87-3.86h1.06c.313 0 .546-.077.7-.23.16-.153.24-.37.24-.65 0-.267-.08-.477-.24-.63-.154-.153-.387-.23-.7-.23h-1.06v1.74zm8.893 3.86l-1.46-2.65h-.41V140h-1.71v-7.02h2.87c.554 0 1.024.097 1.41.29.394.193.687.46.88.8.194.333.29.707.29 1.12a2.07 2.07 0 0 1-.4 1.25c-.26.367-.646.627-1.16.78l1.62 2.78h-1.93zm-1.87-3.86h1.06c.314 0 .547-.077.7-.23.16-.153.24-.37.24-.65 0-.267-.08-.477-.24-.63-.153-.153-.386-.23-.7-.23h-1.06v1.74z"
    /><use xlink:href="#S" /><use xlink:href="#T" /></g><g class="C"><use
      xlink:href="#N"
      y="74"
      class="E"
    /><use xlink:href="#O" y="74" class="B" /></g><path
    d="M83.627 210.14c0 7.353-5.961 13.314-13.314 13.314S57 217.493 57 210.14s5.961-13.314 13.314-13.314 13.314 5.961 13.314 13.314z"
    fill="#f8a608"
  /><g class="C"><path
      d="M65.481 204.329h4.968c3.21 0 5.811 2.602 5.811 5.812s-2.602 5.812-5.811 5.812h-4.968v-11.624zm1.279 1.28v9.064h3.688c2.503 0 4.532-2.029 4.532-4.532s-2.029-4.532-4.532-4.532H66.76z"
      class="B"
    /><path
      d="M63.847 209.43h13.542v-1.279H63.847v1.279zm0 2.722h13.542v-1.279H63.847v1.279z"
    /></g><g class="F"><path
      d="M97.047 205.256c1.028 0 1.929.201 2.705.602a4.24 4.24 0 0 1 1.808 1.724c.43.738.645 1.598.645 2.579s-.215 1.84-.645 2.579c-.42.728-1.023 1.294-1.808 1.695-.775.402-1.677.603-2.705.603h-3.419v-9.782h3.419zm-.07 8.114c1.028 0 1.822-.28 2.382-.841s.841-1.35.841-2.368-.281-1.813-.841-2.383c-.561-.579-1.355-.868-2.382-.868h-1.387v6.46h1.387z"
    /><use xlink:href="#U" /><path
      d="M115.666 205.256v9.782h-1.962v-9.782h1.962z"
    /></g><path
    d="M219.165 212.782c.093.514.303.911.63 1.191.339.269.789.403 1.349.403.724 0 1.25-.298 1.577-.893.327-.608.49-1.624.49-3.048-.268.373-.648.665-1.138.875-.479.211-.999.316-1.559.316-.748 0-1.425-.152-2.032-.456-.596-.315-1.069-.776-1.419-1.384-.351-.619-.526-1.366-.526-2.242 0-1.296.386-2.324 1.156-3.083.771-.771 1.822-1.156 3.154-1.156 1.658 0 2.826.531 3.503 1.594.689 1.063 1.034 2.663 1.034 4.8 0 1.518-.135 2.762-.403 3.731-.257.969-.707 1.705-1.349 2.207-.631.503-1.495.754-2.593.754-.864 0-1.6-.164-2.207-.491-.607-.339-1.074-.777-1.401-1.314-.316-.549-.497-1.15-.544-1.804h2.278zm1.857-3.153c.607 0 1.086-.187 1.436-.561s.526-.876.526-1.506c0-.689-.187-1.221-.561-1.595-.362-.385-.858-.578-1.489-.578s-1.133.199-1.506.596c-.362.385-.543.899-.543 1.542 0 .618.175 1.127.525 1.524.362.385.899.578 1.612.578zm7.637 6.867c-.444 0-.812-.135-1.103-.403-.281-.28-.421-.625-.421-1.034s.14-.747.421-1.016c.291-.28.659-.42 1.103-.42a1.45 1.45 0 0 1 1.069.42 1.35 1.35 0 0 1 .42 1.016c0 .409-.14.754-.42 1.034-.281.268-.637.403-1.069.403zm3.955-2.891l2.68-2.33c.666-.63 1.221-1.284 1.665-1.962s.665-1.343.665-1.997c0-.595-.14-1.062-.42-1.401s-.713-.508-1.297-.508-1.033.198-1.348.595c-.316.386-.479.917-.491 1.595h-2.382c.046-1.402.461-2.465 1.243-3.189.795-.724 1.799-1.086 3.014-1.086 1.331 0 2.353.356 3.065 1.069.713.701 1.069 1.629 1.069 2.785 0 .911-.245 1.781-.736 2.61a10.5 10.5 0 0 1-1.682 2.173l-2.47 2.207h5.168v2.032h-8.654v-1.822l.911-.771zm9.288-3.784c0-2.02.363-3.602 1.087-4.747.735-1.145 1.95-1.717 3.643-1.717s2.902.572 3.627 1.717c.735 1.145 1.103 2.727 1.103 4.747 0 2.032-.368 3.627-1.103 4.783-.725 1.156-1.933 1.734-3.627 1.734s-2.908-.578-3.643-1.734c-.724-1.156-1.087-2.751-1.087-4.783zm7.043 0c0-.864-.059-1.588-.175-2.172-.106-.595-.327-1.08-.666-1.454-.327-.374-.818-.56-1.472-.56s-1.15.186-1.489.56c-.327.374-.549.859-.665 1.454-.105.584-.158 1.308-.158 2.172 0 .888.053 1.635.158 2.243.105.595.327 1.08.665 1.454.339.362.835.543 1.489.543s1.151-.181 1.489-.543c.339-.374.561-.859.666-1.454.105-.608.158-1.355.158-2.243zm4.002-3.083c0-.887.257-1.582.771-2.084.526-.503 1.197-.754 2.015-.754s1.483.251 1.997.754c.525.502.788 1.197.788 2.084 0 .899-.263 1.6-.788 2.102-.514.503-1.18.754-1.997.754s-1.489-.251-2.015-.754c-.514-.502-.771-1.203-.771-2.102zm11.247-2.627l-6.885 12.262h-2.382l6.867-12.262h2.4zm-8.479 1.261c-.642 0-.963.455-.963 1.366 0 .923.321 1.384.963 1.384.315 0 .561-.111.736-.333.175-.233.263-.584.263-1.051 0-.911-.333-1.366-.999-1.366zm4.923 8.356c0-.899.257-1.594.77-2.085.526-.502 1.198-.753 2.015-.753s1.477.251 1.98.753c.513.491.77 1.186.77 2.085s-.257 1.6-.77 2.102c-.503.502-1.162.753-1.98.753-.829 0-1.501-.251-2.015-.753s-.77-1.203-.77-2.102zm2.768-1.367c-.666 0-.999.456-.999 1.367 0 .923.333 1.384.999 1.384.654 0 .981-.461.981-1.384 0-.911-.327-1.367-.981-1.367z"
    class="D"
  /><path
    d="M434 196.633h-73A13.37 13.37 0 0 0 347.633 210 13.37 13.37 0 0 0 361 223.367h73A13.37 13.37 0 0 0 447.367 210 13.37 13.37 0 0 0 434 196.633zM361 196c-7.732 0-14 6.268-14 14s6.268 14 14 14h73c7.732 0 14-6.268 14-14s-6.268-14-14-14h-73z"
    class="B G"
  /><g class="D"><use xlink:href="#Q" y="74" /><use
      xlink:href="#R"
      y="74"
    /><path
      d="M392.964 214l-1.46-2.65h-.41V214h-1.71v-7.02h2.87c.553 0 1.023.097 1.41.29.393.193.686.46.88.8.193.333.29.707.29 1.12 0 .467-.134.883-.4 1.25-.26.367-.647.627-1.16.78l1.62 2.78h-1.93zm-1.87-3.86h1.06c.313 0 .546-.077.7-.23.16-.153.24-.37.24-.65 0-.267-.08-.477-.24-.63-.154-.153-.387-.23-.7-.23h-1.06v1.74zm8.893 3.86l-1.46-2.65h-.41V214h-1.71v-7.02h2.87c.554 0 1.024.097 1.41.29.394.193.687.46.88.8.194.333.29.707.29 1.12a2.07 2.07 0 0 1-.4 1.25c-.26.367-.646.627-1.16.78l1.62 2.78h-1.93zm-1.87-3.86h1.06c.314 0 .547-.077.7-.23.16-.153.24-.37.24-.65 0-.267-.08-.477-.24-.63-.153-.153-.386-.23-.7-.23h-1.06v1.74z"
    /><use xlink:href="#S" y="74" /><use xlink:href="#T" y="74" /></g><g
    class="C"
  ><use xlink:href="#N" y="148" class="E" /><use
      xlink:href="#O"
      y="148"
      class="B"
    /></g><path
    d="M83.606 284.165a13.3 13.3 0 0 0-13.272-13.313c-7.341-.014-13.302 5.923-13.314 13.262a13.3 13.3 0 0 0 13.272 13.314 13.29 13.29 0 0 0 13.314-13.263z"
    fill="#3574b9"
  /><path
    d="M68.161 292.439c0 .3-.195.405-.488.405-1.775-.587-3.323-1.75-4.422-3.319a9.41 9.41 0 0 1-1.686-5.406c.003-1.943.6-3.834 1.703-5.399s2.656-2.723 4.433-3.304c.287-.099.488.102.485.408v.723a.58.58 0 0 1-.074.296.55.55 0 0 1-.213.211c-1.397.525-2.606 1.486-3.461 2.753s-1.316 2.779-1.319 4.329a7.78 7.78 0 0 0 1.301 4.335c.85 1.271 2.055 2.238 3.45 2.769.089.048.162.121.213.21s.076.193.074.297l.003.692zm2.919-2.518a.44.44 0 0 1-.117.287.41.41 0 0 1-.271.132h-.779a.41.41 0 0 1-.268-.127c-.071-.075-.114-.175-.12-.28v-1.2c-1.557-.207-2.333-1.118-2.623-2.438 0-.201.101-.404.287-.404h.876c.193 0 .287.101.388.299.193.711.575 1.32 1.844 1.323.971 0 1.652-.504 1.655-1.314s-.388-1.115-1.747-1.322c-2.043-.3-3.014-.918-3.011-2.639 0-1.316.977-2.33 2.338-2.528v-1.241a.44.44 0 0 1 .12-.279c.072-.075.167-.12.267-.126h.779a.4.4 0 0 1 .267.126.44.44 0 0 1 .12.279v1.217c1.166.204 1.942.915 2.135 2.03 0 .201-.098.405-.287.405h-.773c-.195 0-.287-.102-.388-.3-.193-.71-.678-1.016-1.554-1.016-.971 0-1.459.504-1.459 1.199s.287 1.116 1.747 1.323c2.04.3 3.011.917 3.008 2.638 0 1.317-.974 2.429-2.433 2.732l-.003 1.224zm1.356 2.536c0 .303.198.507.486.405 1.776-.582 3.329-1.739 4.433-3.303s1.703-3.455 1.709-5.399c.006-4.051-2.611-7.502-6.108-8.726-.293 0-.488.105-.488.405v.711a.58.58 0 0 0 .074.296.55.55 0 0 0 .213.211c1.395.531 2.6 1.498 3.449 2.769s1.304 2.785 1.3 4.335a7.77 7.77 0 0 1-1.32 4.329c-.856 1.267-2.064 2.228-3.462 2.753a.54.54 0 0 0-.213.209.57.57 0 0 0-.074.295v.71z"
    class="C"
  /><g class="F"><use xlink:href="#V" /><use xlink:href="#W" /><use
      xlink:href="#X"
    /><path
      d="M121.536 284.147c0-.963.215-1.822.644-2.579.44-.766 1.033-1.359 1.78-1.78.757-.429 1.603-.644 2.537-.644 1.093 0 2.051.28 2.873.841s1.397 1.336 1.724 2.326h-2.257c-.224-.467-.542-.818-.953-1.051-.401-.234-.869-.351-1.401-.351-.57 0-1.079.136-1.528.407-.439.261-.785.635-1.037 1.121-.243.486-.364 1.056-.364 1.71 0 .644.121 1.214.364 1.71.252.485.598.864 1.037 1.135.449.261.958.392 1.528.392.532 0 1-.117 1.401-.35a2.41 2.41 0 0 0 .953-1.065h2.257c-.327.999-.902 1.779-1.724 2.34-.813.551-1.771.827-2.873.827-.934 0-1.78-.21-2.537-.631-.747-.43-1.34-1.023-1.78-1.78-.429-.756-.644-1.616-.644-2.578z"
    /></g><g class="D"><path
      d="M224.455 279.459l-4.659 10.914h-2.488l4.695-10.633h-5.991v-2.103h8.443v1.822z"
    /><use xlink:href="#Y" /><use xlink:href="#Z" /><use xlink:href="#a" /><use
      xlink:href="#b"
    /></g><path
    d="M434 270.633h-73A13.37 13.37 0 0 0 347.633 284 13.37 13.37 0 0 0 361 297.367h73A13.37 13.37 0 0 0 447.367 284 13.37 13.37 0 0 0 434 270.633zM361 270c-7.732 0-14 6.268-14 14s6.268 14 14 14h73c7.732 0 14-6.268 14-14s-6.268-14-14-14h-73z"
    class="B G"
  /><g class="D"><use xlink:href="#Q" y="148" /><use
      xlink:href="#R"
      y="148"
    /><path
      d="M392.964 288l-1.46-2.65h-.41V288h-1.71v-7.02h2.87c.553 0 1.023.097 1.41.29.393.193.686.46.88.8.193.333.29.707.29 1.12 0 .467-.134.883-.4 1.25-.26.367-.647.627-1.16.78l1.62 2.78h-1.93zm-1.87-3.86h1.06c.313 0 .546-.077.7-.23.16-.153.24-.37.24-.65 0-.267-.08-.477-.24-.63-.154-.153-.387-.23-.7-.23h-1.06v1.74zm8.893 3.86l-1.46-2.65h-.41V288h-1.71v-7.02h2.87c.554 0 1.024.097 1.41.29.394.193.687.46.88.8.194.333.29.707.29 1.12a2.07 2.07 0 0 1-.4 1.25c-.26.367-.646.627-1.16.78l1.62 2.78h-1.93zm-1.87-3.86h1.06c.314 0 .547-.077.7-.23.16-.153.24-.37.24-.65 0-.267-.08-.477-.24-.63-.153-.153-.386-.23-.7-.23h-1.06v1.74z"
    /><use xlink:href="#S" y="148" /><use xlink:href="#T" y="148" /></g><g
    class="C"
  ><use xlink:href="#N" y="222" class="E" /><use
      xlink:href="#O"
      y="222"
      class="B"
    /></g><path
    d="M83.627 358.14c0 7.353-5.961 13.314-13.314 13.314S57 365.493 57 358.14s5.961-13.314 13.314-13.314 13.314 5.961 13.314 13.314z"
    fill="#26a17b"
  /><path
    d="M71.784 359.265v-.002a26.61 26.61 0 0 1-1.645.034 35.32 35.32 0 0 1-1.669-.034v.002c-3.293-.143-5.749-.706-5.749-1.383s2.458-1.24 5.749-1.383v2.205l1.684.051 1.63-.051v-2.203c3.286.145 5.736.709 5.736 1.383s-2.452 1.238-5.736 1.384v-.003zm0-2.992V354.3h4.585v-3.007H63.888v3.007h4.584v1.973c-3.726.168-6.527.894-6.527 1.765s2.803 1.597 6.527 1.767v6.323h3.314v-6.323c3.72-.168 6.516-.894 6.516-1.765s-2.796-1.596-6.516-1.765"
    class="C"
  /><g class="F"><use xlink:href="#V" y="74" /><use
      xlink:href="#W"
      y="74"
    /><use xlink:href="#X" y="74" /><path
      d="M128.669 353.27v1.583h-2.607v8.199H124.1v-8.199h-2.606v-1.583h7.175z"
    /></g><g class="D"><path
      d="M224.455 353.459l-4.659 10.914h-2.488l4.695-10.633h-5.991v-2.103h8.443v1.822z"
    /><use xlink:href="#Y" y="74" /><use xlink:href="#Z" y="74" /><use
      xlink:href="#a"
      y="74"
    /><use xlink:href="#b" y="74" /></g><path
    d="M434 344.633h-73A13.37 13.37 0 0 0 347.633 358 13.37 13.37 0 0 0 361 371.367h73A13.37 13.37 0 0 0 447.367 358 13.37 13.37 0 0 0 434 344.633zM361 344c-7.732 0-14 6.268-14 14s6.268 14 14 14h73c7.732 0 14-6.268 14-14s-6.268-14-14-14h-73z"
    class="B G"
  /><g class="D"><use xlink:href="#Q" y="222" /><use
      xlink:href="#R"
      y="222"
    /><path
      d="M392.964 362l-1.46-2.65h-.41V362h-1.71v-7.02h2.87c.553 0 1.023.097 1.41.29.393.193.686.46.88.8.193.333.29.707.29 1.12 0 .467-.134.883-.4 1.25-.26.367-.647.627-1.16.78l1.62 2.78h-1.93zm-1.87-3.86h1.06c.313 0 .546-.077.7-.23.16-.153.24-.37.24-.65 0-.267-.08-.477-.24-.63-.154-.153-.387-.23-.7-.23h-1.06v1.74zm8.893 3.86l-1.46-2.65h-.41V362h-1.71v-7.02h2.87c.554 0 1.024.097 1.41.29.394.193.687.46.88.8.194.333.29.707.29 1.12a2.07 2.07 0 0 1-.4 1.25c-.26.367-.646.627-1.16.78l1.62 2.78h-1.93zm-1.87-3.86h1.06c.314 0 .547-.077.7-.23.16-.153.24-.37.24-.65 0-.267-.08-.477-.24-.63-.153-.153-.386-.23-.7-.23h-1.06v1.74z"
    /><use xlink:href="#S" y="222" /><use xlink:href="#T" y="222" /></g><g
    class="C"
  ><use xlink:href="#N" y="296" class="E" /><use
      xlink:href="#O"
      y="296"
      class="B"
    /></g><path
    d="M83.627 432.14c0 7.353-5.961 13.314-13.314 13.314S57 439.493 57 432.14s5.961-13.314 13.314-13.314 13.314 5.961 13.314 13.314z"
    fill="#41365b"
  /><g class="C"><path
      d="M72.849 431.7c.596-.322.968-.89.881-1.835-.117-1.293-1.168-1.726-2.493-1.85v-1.792h-1.027v1.745l-.82.012v-1.757h-1.026v1.792l-.654.009v-.005H66.29v1.165l.746-.001c.416.001.552.257.591.479v4.911c-.018.139-.095.361-.386.361.013.013-.747 0-.747 0l-.204 1.303h1.337l.484.004.25.003.001 1.813h1.026v-1.794l.821.008v1.786h1.027v-1.81c1.727-.105 2.936-.567 3.086-2.29.121-1.388-.493-2.007-1.474-2.257zm-3.436-2.438l.211-.004c.719-.02 2.191-.061 2.191 1.094 0 1.13-1.531 1.104-2.233 1.091l-.169-.002v-2.179zm0 5.681v-2.402l.25-.005c.861-.021 2.63-.066 2.63 1.206 0 1.243-1.839 1.216-2.68 1.203l-.2-.002z"
      class="B"
    /><path
      d="M70.314 424.63a7.49 7.49 0 0 0-5.413 2.303l-.619-.594c1.523-1.583 3.662-2.568 6.032-2.568s4.512.986 6.034 2.57l-.616.598a7.49 7.49 0 0 0-5.418-2.309zm-6.595 2.358l.622.598c-.965 1.263-1.538 2.842-1.538 4.554 0 2.041.814 3.891 2.135 5.245l-.617.597a8.34 8.34 0 0 1-2.376-5.842 8.33 8.33 0 0 1 1.773-5.152zm1.854 10.977l-.621.601c1.452 1.213 3.322 1.942 5.361 1.942a8.34 8.34 0 0 0 5.375-1.953l-.621-.601a7.48 7.48 0 0 1-4.754 1.696c-1.798 0-3.448-.631-4.741-1.685zm10.745.005l-.617-.597c1.314-1.353 2.123-3.198 2.123-5.233a7.48 7.48 0 0 0-1.533-4.548l.62-.601a8.33 8.33 0 0 1 1.771 5.149 8.34 8.34 0 0 1-2.365 5.83z"
    /><path
      d="M80.965 432.14c0 5.882-4.769 10.651-10.651 10.651s-10.651-4.769-10.651-10.651 4.769-10.651 10.651-10.651 10.651 4.768 10.651 10.651zm-10.651 9.89c5.462 0 9.89-4.428 9.89-9.89s-4.428-9.89-9.89-9.89-9.89 4.428-9.89 9.89 4.428 9.89 9.89 9.89z"
      class="B"
    /></g><path
    d="M107.361 427.27l-2.733 9.782h-2.312l-1.836-6.965-1.92 6.965-2.298.014-2.635-9.796h2.102l1.724 7.596 1.99-7.596h2.186l1.878 7.554 1.738-7.554h2.116zm6.831 4.765c.551.103 1.004.378 1.359.827s.533.962.533 1.541c0 .523-.131.986-.393 1.388-.252.392-.621.7-1.107.925s-1.06.336-1.724.336h-4.218v-9.782h4.036c.664 0 1.234.107 1.71.322.486.215.85.514 1.093.897a2.32 2.32 0 0 1 .379 1.303c0 .57-.155 1.047-.463 1.43a2.4 2.4 0 0 1-1.205.813zm-3.588-.729h1.794c.467 0 .827-.103 1.079-.308.252-.215.379-.519.379-.911s-.127-.696-.379-.911-.612-.323-1.079-.323h-1.794v2.453zm1.976 4.148c.477 0 .846-.112 1.107-.336.271-.224.407-.542.407-.953 0-.42-.14-.747-.421-.981-.28-.243-.658-.364-1.135-.364h-1.934v2.634h1.976zm11.724-8.184v1.583h-2.606v8.199h-1.962v-8.199h-2.607v-1.583h7.175zm.955 4.877c0-.962.215-1.822.645-2.579.439-.766 1.032-1.359 1.78-1.78.757-.429 1.602-.644 2.536-.644 1.094 0 2.051.28 2.873.841s1.397 1.336 1.724 2.326h-2.256c-.224-.467-.542-.818-.953-1.051-.402-.234-.869-.35-1.402-.35-.569 0-1.079.135-1.527.406a2.74 2.74 0 0 0-1.037 1.121c-.243.486-.365 1.056-.365 1.71 0 .645.122 1.214.365 1.71.252.485.598.864 1.037 1.135a2.98 2.98 0 0 0 1.527.392c.533 0 1-.117 1.402-.35a2.41 2.41 0 0 0 .953-1.065h2.256c-.327.999-.901 1.78-1.724 2.34-.812.551-1.77.827-2.873.827-.934 0-1.779-.21-2.536-.631-.748-.429-1.341-1.023-1.78-1.779-.43-.757-.645-1.617-.645-2.579z"
    class="F"
  /><g class="D"><use xlink:href="#c" /><use
      xlink:href="#P"
      x="-1.095"
      y="296"
    /><use xlink:href="#d" /><path
      d="M243.34 435.605l2.68-2.33c.666-.63 1.221-1.284 1.665-1.962s.665-1.343.665-1.997c0-.595-.14-1.063-.42-1.401s-.712-.508-1.296-.508-1.034.198-1.349.595c-.316.386-.479.917-.491 1.595h-2.382c.046-1.402.461-2.465 1.244-3.189.794-.724 1.798-1.086 3.013-1.086 1.331 0 2.353.356 3.065 1.069.713.7 1.069 1.629 1.069 2.785 0 .911-.245 1.781-.736 2.61a10.56 10.56 0 0 1-1.682 2.173l-2.47 2.207h5.168v2.032h-8.654v-1.822l.911-.771zm9.008-6.867c0-.887.257-1.582.771-2.084.526-.503 1.197-.754 2.015-.754s1.483.251 1.997.754c.525.502.788 1.197.788 2.084 0 .899-.263 1.6-.788 2.102-.514.502-1.18.754-1.997.754s-1.489-.252-2.015-.754c-.514-.502-.771-1.203-.771-2.102zm11.247-2.628l-6.885 12.263h-2.382l6.867-12.263h2.4zm-8.479 1.262c-.642 0-.963.455-.963 1.366 0 .923.321 1.384.963 1.384.315 0 .561-.111.736-.333.175-.233.263-.584.263-1.051 0-.911-.333-1.366-.999-1.366zm4.923 8.356c0-.899.257-1.594.77-2.085.526-.502 1.198-.753 2.015-.753s1.477.251 1.98.753c.513.491.77 1.186.77 2.085s-.257 1.6-.77 2.102c-.503.502-1.162.753-1.98.753-.829 0-1.501-.251-2.015-.753s-.77-1.203-.77-2.102zm2.768-1.367c-.666 0-.999.456-.999 1.367 0 .922.333 1.384.999 1.384.654 0 .981-.462.981-1.384 0-.911-.327-1.367-.981-1.367z"
    /></g><path
    d="M434 418.633h-73A13.37 13.37 0 0 0 347.633 432 13.37 13.37 0 0 0 361 445.367h73A13.37 13.37 0 0 0 447.367 432 13.37 13.37 0 0 0 434 418.633zM361 418c-7.732 0-14 6.268-14 14s6.268 14 14 14h73c7.732 0 14-6.268 14-14s-6.268-14-14-14h-73z"
    class="B G"
  /><g class="D"><use xlink:href="#Q" y="296" /><use
      xlink:href="#R"
      y="296"
    /><path
      d="M392.964 436l-1.46-2.65h-.41V436h-1.71v-7.02h2.87c.553 0 1.023.097 1.41.29.393.193.686.46.88.8.193.333.29.707.29 1.12 0 .467-.134.883-.4 1.25-.26.367-.647.627-1.16.78l1.62 2.78h-1.93zm-1.87-3.86h1.06c.313 0 .546-.077.7-.23.16-.153.24-.37.24-.65 0-.267-.08-.477-.24-.63-.154-.153-.387-.23-.7-.23h-1.06v1.74zm8.893 3.86l-1.46-2.65h-.41V436h-1.71v-7.02h2.87c.554 0 1.024.097 1.41.29.394.193.687.46.88.8.194.333.29.707.29 1.12a2.07 2.07 0 0 1-.4 1.25c-.26.367-.646.627-1.16.78l1.62 2.78h-1.93zm-1.87-3.86h1.06c.314 0 .547-.077.7-.23.16-.153.24-.37.24-.65 0-.267-.08-.477-.24-.63-.153-.153-.386-.23-.7-.23h-1.06v1.74z"
    /><use xlink:href="#S" y="296" /><use xlink:href="#T" y="296" /></g><g
    class="C"
  ><use xlink:href="#N" y="370" class="E" /><use
      xlink:href="#O"
      y="370"
      class="B"
    /></g><path
    d="M79.686 515.627a13.07 13.07 0 0 1-4.342 2.875 13.04 13.04 0 0 1-5.118.949c-1.741.034-3.472-.287-5.085-.946a12.8 12.8 0 0 1-4.297-2.882 12.72 12.72 0 0 1-2.898-4.303c-.661-1.619-.982-3.356-.943-5.105 0-3.825 1.282-7.012 3.847-9.562a12.82 12.82 0 0 1 4.299-2.881c1.614-.657 3.344-.978 5.086-.943 1.752-.03 3.492.294 5.117.951a13.08 13.08 0 0 1 4.341 2.876c2.621 2.552 3.932 5.741 3.932 9.566.033 1.756-.3 3.499-.978 5.119s-1.687 3.079-2.96 4.286h0z"
    fill="#2a5ada"
  /><path
    d="M70.313 497.912l7.227 4.216v8.404l-7.227 4.216-7.227-4.216v-8.404l7.227-4.216zm-4.184 5.964v4.909l4.184 2.44 4.184-2.44v-4.909l-4.184-2.441-4.184 2.441z"
    class="B C"
  /><path
    d="M95.589 509.482h3.223v1.556h-5.185v-9.782h1.962v8.226zm6.432-8.226v9.782h-1.962v-9.782h1.962zm10.305 9.782h-1.962l-4.442-6.713v6.713h-1.962v-9.796h1.962l4.442 6.727v-6.727h1.962v9.796zm7.461 0l-3.56-4.359v4.359h-1.962v-9.782h1.962v4.386l3.56-4.386h2.368l-4.036 4.849 4.149 4.933h-2.481z"
    class="F"
  /><g class="D"><use xlink:href="#c" y="74" /><use
      xlink:href="#P"
      x="-1.095"
      y="370"
    /><use xlink:href="#d" y="74" /><path
      d="M242.569 505.821c0-2.02.362-3.603 1.087-4.747.735-1.145 1.95-1.717 3.643-1.717s2.902.572 3.627 1.717c.735 1.144 1.103 2.727 1.103 4.747 0 2.032-.368 3.627-1.103 4.783-.725 1.156-1.933 1.734-3.627 1.734s-2.908-.578-3.643-1.734c-.725-1.156-1.087-2.751-1.087-4.783zm7.043 0c0-.864-.059-1.588-.176-2.172-.105-.596-.327-1.08-.665-1.454-.327-.374-.818-.56-1.472-.56s-1.15.186-1.489.56c-.327.374-.549.858-.665 1.454-.106.584-.158 1.308-.158 2.172 0 .888.052 1.635.158 2.243.105.595.327 1.08.665 1.454.339.362.835.543 1.489.543s1.151-.181 1.489-.543c.339-.374.561-.859.666-1.454.105-.608.158-1.355.158-2.243zm4.002-3.083c0-.887.257-1.582.771-2.084.526-.503 1.197-.754 2.015-.754s1.483.251 1.997.754c.525.502.788 1.197.788 2.084 0 .899-.263 1.6-.788 2.102-.514.502-1.18.754-1.997.754s-1.489-.252-2.015-.754c-.514-.502-.771-1.203-.771-2.102zm11.247-2.628l-6.885 12.263h-2.382l6.867-12.263h2.4zm-8.479 1.262c-.642 0-.963.455-.963 1.366 0 .923.321 1.384.963 1.384.315 0 .561-.111.736-.333.175-.233.263-.584.263-1.051 0-.911-.333-1.366-.999-1.366zm4.923 8.356c0-.899.257-1.594.77-2.085.526-.502 1.197-.753 2.015-.753s1.477.251 1.98.753c.513.491.77 1.186.77 2.085s-.257 1.6-.77 2.102c-.503.502-1.162.753-1.98.753-.829 0-1.501-.251-2.015-.753s-.77-1.203-.77-2.102zm2.767-1.367c-.665 0-.998.456-.998 1.367 0 .922.333 1.384.998 1.384.654 0 .981-.462.981-1.384 0-.911-.327-1.367-.981-1.367z"
    /></g><path
    d="M434 492.633h-73A13.37 13.37 0 0 0 347.633 506 13.37 13.37 0 0 0 361 519.367h73A13.37 13.37 0 0 0 447.367 506 13.37 13.37 0 0 0 434 492.633zM361 492c-7.732 0-14 6.268-14 14s6.268 14 14 14h73c7.732 0 14-6.268 14-14s-6.268-14-14-14h-73z"
    class="B G"
  /><g class="D"><use xlink:href="#Q" y="370" /><use
      xlink:href="#R"
      y="370"
    /><path
      d="M392.964 510l-1.46-2.65h-.41V510h-1.71v-7.02h2.87c.553 0 1.023.097 1.41.29.393.193.686.46.88.8.193.333.29.707.29 1.12 0 .467-.134.883-.4 1.25-.26.367-.647.627-1.16.78l1.62 2.78h-1.93zm-1.87-3.86h1.06c.313 0 .546-.077.7-.23.16-.153.24-.37.24-.65 0-.267-.08-.477-.24-.63-.154-.153-.387-.23-.7-.23h-1.06v1.74zm8.893 3.86l-1.46-2.65h-.41V510h-1.71v-7.02h2.87c.554 0 1.024.097 1.41.29.394.193.687.46.88.8.194.333.29.707.29 1.12a2.07 2.07 0 0 1-.4 1.25c-.26.367-.646.627-1.16.78l1.62 2.78h-1.93zm-1.87-3.86h1.06c.314 0 .547-.077.7-.23.16-.153.24-.37.24-.65 0-.267-.08-.477-.24-.63-.153-.153-.386-.23-.7-.23h-1.06v1.74z"
    /><use xlink:href="#S" y="370" /><use xlink:href="#T" y="370" /></g><g
    class="C"
  ><use xlink:href="#N" y="444" class="E" /><use
      xlink:href="#O"
      y="444"
      class="B"
    /></g><g clip-path="url(#L)"><path
      d="M70.314 593.454c7.353 0 13.314-5.961 13.314-13.314s-5.961-13.314-13.314-13.314S57 572.787 57 580.14s5.961 13.314 13.314 13.314z"
      fill="url(#K)"
    /><path
      d="M76.036 585.507l-4.416-11.048c-.249-.571-.618-.85-1.107-.85h-.391c-.488 0-.857.279-1.107.85l-1.92 4.813h-1.454c-.209.001-.41.088-.558.241s-.232.36-.234.577v.011a.84.84 0 0 0 .234.577.78.78 0 0 0 .558.24h.781l-1.833 4.589a1 1 0 0 0-.054.313c0 .258.076.459.217.616s.336.235.586.235a.77.77 0 0 0 .456-.157c.141-.1.239-.246.315-.414l2.018-5.182h1.4a.78.78 0 0 0 .558-.24.84.84 0 0 0 .234-.577v-.023c-.002-.217-.086-.424-.234-.577a.78.78 0 0 0-.558-.24h-.749l1.541-3.973 4.199 10.812c.076.168.174.314.315.414a.77.77 0 0 0 .456.157c.249 0 .445-.078.586-.235s.217-.358.217-.616c.004-.107-.014-.214-.054-.313z"
      class="C"
    /></g><g class="F"><path
      d="M100.228 583.174h-3.896l-.645 1.864h-2.06l3.518-9.796h2.284l3.518 9.796h-2.075l-.644-1.864zm-.533-1.57l-1.415-4.092-1.415 4.092h2.831z"
    /><use xlink:href="#U" x="0.589" y="370" /><path
      d="M123.08 575.256l-3.588 9.782h-2.382l-3.588-9.782h2.103l2.69 7.778 2.677-7.778h2.088zm3.139 1.583v2.453h3.293v1.556h-3.293v2.592h3.713v1.598h-5.676v-9.796h5.676v1.597h-3.713z"
    /></g><g class="D"><path
      d="M222.949 576.791c-.117-.491-.321-.859-.613-1.104-.28-.245-.689-.368-1.226-.368-.806 0-1.402.327-1.787.981-.374.643-.567 1.694-.578 3.153.28-.467.689-.829 1.226-1.086a3.87 3.87 0 0 1 1.752-.403c.759 0 1.43.164 2.014.491a3.39 3.39 0 0 1 1.367 1.436c.327.619.49 1.367.49 2.243 0 .829-.169 1.57-.508 2.224-.327.643-.812 1.145-1.454 1.507s-1.407.543-2.295.543c-1.214 0-2.172-.269-2.873-.806-.689-.537-1.173-1.284-1.454-2.242-.268-.969-.403-2.161-.403-3.574 0-2.137.368-3.749 1.104-4.835.736-1.097 1.898-1.646 3.486-1.646 1.226 0 2.178.332 2.856.998s1.068 1.495 1.173 2.488h-2.277zm-1.787 3.188c-.619 0-1.139.181-1.559.543s-.631.888-.631 1.577.193 1.232.578 1.629c.398.397.952.595 1.665.595.63 0 1.127-.192 1.489-.578.373-.385.56-.905.56-1.559 0-.677-.181-1.214-.543-1.611-.35-.397-.87-.596-1.559-.596z"
    /><use xlink:href="#Y" x="1.608" y="296" /><path
      d="M231.785 575.862v-2.26h4.222v12.771h-2.523v-10.511h-1.699z"
    /><use xlink:href="#Z" x="7.955" y="296" /><path
      d="M249.475 576.738c0-.887.257-1.582.771-2.084.525-.503 1.197-.754 2.014-.754s1.483.251 1.997.754c.526.502.788 1.197.788 2.084 0 .899-.262 1.6-.788 2.102-.514.502-1.179.754-1.997.754s-1.489-.252-2.014-.754c-.514-.502-.771-1.203-.771-2.102zm11.246-2.628l-6.884 12.263h-2.383l6.867-12.263h2.4zm-8.478 1.262c-.643 0-.964.455-.964 1.366 0 .923.321 1.384.964 1.384.315 0 .56-.111.735-.333.176-.233.263-.584.263-1.051 0-.911-.333-1.366-.998-1.366zm4.922 8.356c0-.899.257-1.594.771-2.085.525-.502 1.197-.753 2.014-.753s1.478.251 1.98.753c.514.491.771 1.186.771 2.085s-.257 1.6-.771 2.102c-.502.502-1.162.753-1.98.753-.829 0-1.5-.251-2.014-.753s-.771-1.203-.771-2.102zm2.768-1.367c-.666 0-.999.456-.999 1.367 0 .922.333 1.384.999 1.384.654 0 .981-.462.981-1.384 0-.911-.327-1.367-.981-1.367z"
    /></g><path
    d="M434 566.633h-73A13.37 13.37 0 0 0 347.633 580 13.37 13.37 0 0 0 361 593.367h73A13.37 13.37 0 0 0 447.367 580 13.37 13.37 0 0 0 434 566.633zM361 566c-7.732 0-14 6.268-14 14s6.268 14 14 14h73c7.732 0 14-6.268 14-14s-6.268-14-14-14h-73z"
    class="B G"
  /><g class="D"><use xlink:href="#Q" y="444" /><use
      xlink:href="#R"
      y="444"
    /><path
      d="M392.964 584l-1.46-2.65h-.41V584h-1.71v-7.02h2.87c.553 0 1.023.097 1.41.29.393.193.686.46.88.8.193.333.29.707.29 1.12 0 .467-.134.883-.4 1.25-.26.367-.647.627-1.16.78l1.62 2.78h-1.93zm-1.87-3.86h1.06c.313 0 .546-.077.7-.23.16-.153.24-.37.24-.65 0-.267-.08-.477-.24-.63-.154-.153-.387-.23-.7-.23h-1.06v1.74zm8.893 3.86l-1.46-2.65h-.41V584h-1.71v-7.02h2.87c.554 0 1.024.097 1.41.29.394.193.687.46.88.8.194.333.29.707.29 1.12a2.07 2.07 0 0 1-.4 1.25c-.26.367-.646.627-1.16.78l1.62 2.78h-1.93zm-1.87-3.86h1.06c.314 0 .547-.077.7-.23.16-.153.24-.37.24-.65 0-.267-.08-.477-.24-.63-.153-.153-.386-.23-.7-.23h-1.06v1.74z"
    /><use xlink:href="#S" y="444" /><use xlink:href="#T" y="444" /></g><defs
  ><filter
      id="A"
      x="0"
      y="0"
      width="527"
      height="680"
      filterUnits="userSpaceOnUse"
      color-interpolation-filters="sRGB"
    ><feFlood flood-opacity="0" result="A" /><feColorMatrix
        in="SourceAlpha"
        values="0 0 0 0 0 0 0 0 0 0 0 0 0 0 0 0 0 0 127 0"
      /><feOffset dx="14" dy="14" /><feGaussianBlur
        stdDeviation="10"
      /><feColorMatrix
        values="0 0 0 0 0.644097 0 0 0 0 0.644097 0 0 0 0 0.729167 0 0 0 0.2 0"
      /><feBlend in2="A" /><feBlend
        in="SourceGraphic"
      /></filter><radialGradient
      id="B"
      cx="0"
      cy="0"
      r="1"
      gradientTransform="translate(136.5 78.2942) rotate(90) scale(575.552 437.959)"
      xlink:href="#e"
    ><stop stop-color="#fff" /><stop
        offset="1"
        stop-color="#fff"
        stop-opacity=".63"
      /></radialGradient><linearGradient
      id="C"
      x1="88.741"
      y1="60.334"
      x2="57.822"
      y2="32.582"
      xlink:href="#e"
    ><stop stop-color="#004cff" /><stop
        offset="1"
        stop-color="#66d4ff"
      /></linearGradient><linearGradient
      id="D"
      x1="94.136"
      y1="54.322"
      x2="63.217"
      y2="26.571"
      xlink:href="#e"
    ><stop stop-color="#004cff" /><stop
        offset="1"
        stop-color="#66d4ff"
      /></linearGradient><linearGradient
      id="E"
      x1="99.637"
      y1="48.195"
      x2="68.718"
      y2="20.443"
      xlink:href="#e"
    ><stop stop-color="#004cff" /><stop
        offset="1"
        stop-color="#66d4ff"
      /></linearGradient><linearGradient
      id="F"
      x1="80.65"
      y1="69.348"
      x2="49.731"
      y2="41.596"
      xlink:href="#e"
    ><stop stop-color="#004cff" /><stop
        offset="1"
        stop-color="#66d4ff"
      /></linearGradient><radialGradient
      id="G"
      cx="0"
      cy="0"
      r="1"
      gradientTransform="matrix(14.680622997696263,3.309336700837735,-3.309336700837735,14.680622997696263,53.4289,44.6017)"
      xlink:href="#e"
    ><stop stop-color="#fff" /><stop offset=".373" stop-color="#fdfeff" /><stop
        offset=".507"
        stop-color="#f6f9ff"
      /><stop offset=".603" stop-color="#ebf1ff" /><stop
        offset=".68"
        stop-color="#dae5ff"
      /><stop offset=".746" stop-color="#c4d5ff" /><stop
        offset=".805"
        stop-color="#a8c2ff"
      /><stop offset=".858" stop-color="#88abff" /><stop
        offset=".907"
        stop-color="#6291ff"
      /><stop offset=".952" stop-color="#3773ff" /><stop
        offset=".993"
        stop-color="#0952ff"
      /><stop offset="1" stop-color="#004cff" /></radialGradient><linearGradient
      id="H"
      x1="40.455"
      y1="37.29"
      x2="61.783"
      y2="52.896"
      xlink:href="#e"
    ><stop offset="0" stop-color="#004cff" /><stop
        offset=".133"
        stop-color="#2767ff"
      /><stop offset=".434" stop-color="#89acff" /><stop
        offset=".772"
        stop-color="#fff"
      /></linearGradient><radialGradient
      id="I"
      cx="0"
      cy="0"
      r="1"
      gradientTransform="matrix(13.9905,0,0,13.9905,46.6301,41.0981)"
      xlink:href="#e"
    ><stop offset=".508" stop-color="#004cff" /><stop
        offset=".541"
        stop-color="#195dff"
        stop-opacity=".933"
      /><stop offset=".639" stop-color="#5e8eff" stop-opacity=".733" /><stop
        offset=".732"
        stop-color="#97b6ff"
        stop-opacity=".544"
      /><stop offset=".818" stop-color="#c4d6ff" stop-opacity=".37" /><stop
        offset=".893"
        stop-color="#e4ecff"
        stop-opacity=".217"
      /><stop offset=".957" stop-color="#f8faff" stop-opacity=".088" /><stop
        offset="1"
        stop-color="#fff"
        stop-opacity="0"
      /></radialGradient><radialGradient
      id="J"
      cx="0"
      cy="0"
      r="1"
      gradientTransform="translate(38.005 36.359) scale(27.9456)"
      xlink:href="#e"
    ><stop stop-color="#ffbe3b" /><stop
        offset=".134"
        stop-color="#ffb445"
      /><stop offset=".364" stop-color="#ff995e" /><stop
        offset=".66"
        stop-color="#ff6d88"
      /><stop
        offset=".713"
        stop-color="#ff6490"
      /></radialGradient><linearGradient
      id="K"
      x1="81.151"
      y1="572.871"
      x2="61.34"
      y2="589.539"
      xlink:href="#e"
    ><stop stop-color="#b6509e" /><stop
        offset="1"
        stop-color="#2ebac6"
      /></linearGradient><clipPath id="L"><path
        transform="translate(57 566.826)"
        d="M0 0h26.627v26.627H0z"
        class="C"
      /></clipPath><path
      id="M"
      d="M55.086 54.827a8.43 8.43 0 0 0 8.427-8.427 8.43 8.43 0 0 0-8.427-8.427 8.43 8.43 0 0 0-8.427 8.427 8.43 8.43 0 0 0 8.427 8.427z"
    /><path
      id="N"
      d="M38 117c0-7.732 6.268-14 14-14h395c7.732 0 14 6.268 14 14v38c0 7.732-6.268 14-14 14H52c-7.732 0-14-6.268-14-14v-38z"
    /><path
      id="O"
      d="M447 104H52c-7.18 0-13 5.82-13 13v38c0 7.18 5.82 13 13 13h395c7.18 0 13-5.82 13-13v-38c0-7.18-5.82-13-13-13zm-395-1c-7.732 0-14 6.268-14 14v38c0 7.732 6.268 14 14 14h395c7.732 0 14-6.268 14-14v-38c0-7.732-6.268-14-14-14H52z"
    /><path
      id="P"
      d="M229.275 142.496c-.444 0-.812-.135-1.104-.403-.28-.281-.42-.625-.42-1.034s.14-.747.42-1.016c.292-.28.66-.42 1.104-.42a1.45 1.45 0 0 1 1.069.42c.28.269.42.607.42 1.016s-.14.753-.42 1.034c-.281.268-.637.403-1.069.403z"
    /><path
      id="Q"
      d="M378.181 136.4c.406.087.733.29.98.61a1.7 1.7 0 0 1 .37 1.08c0 .587-.207 1.053-.62 1.4-.407.34-.977.51-1.71.51h-3.27v-7.02h3.16c.713 0 1.27.163 1.67.49.406.327.61.77.61 1.33 0 .413-.11.757-.33 1.03a1.66 1.66 0 0 1-.86.57zm-2.54-.58h1.12c.28 0 .493-.06.64-.18.153-.127.23-.31.23-.55s-.077-.423-.23-.55c-.147-.127-.36-.19-.64-.19h-1.12v1.47zm1.26 2.8c.286 0 .506-.063.66-.19.16-.133.24-.323.24-.57s-.084-.44-.25-.58c-.16-.14-.384-.21-.67-.21h-1.24v1.55h1.26z"
    /><path
      id="R"
      d="M384.342 140.07a3.69 3.69 0 0 1-1.82-.46c-.546-.307-.983-.733-1.31-1.28-.32-.553-.48-1.173-.48-1.86s.16-1.303.48-1.85c.327-.547.764-.973 1.31-1.28a3.69 3.69 0 0 1 1.82-.46 3.63 3.63 0 0 1 1.81.46c.554.307.987.733 1.3 1.28.32.547.48 1.163.48 1.85s-.16 1.307-.48 1.86a3.42 3.42 0 0 1-1.3 1.28 3.63 3.63 0 0 1-1.81.46zm0-1.56c.56 0 1.007-.187 1.34-.56.34-.373.51-.867.51-1.48 0-.62-.17-1.113-.51-1.48-.333-.373-.78-.56-1.34-.56-.566 0-1.02.183-1.36.55-.333.367-.5.863-.5 1.49 0 .62.167 1.117.5 1.49.34.367.794.55 1.36.55z"
    /><path
      id="S"
      d="M406.751 140.07c-.66 0-1.267-.153-1.82-.46a3.49 3.49 0 0 1-1.31-1.28c-.32-.553-.48-1.173-.48-1.86s.16-1.303.48-1.85a3.49 3.49 0 0 1 1.31-1.28c.553-.307 1.16-.46 1.82-.46s1.263.153 1.81.46a3.34 3.34 0 0 1 1.3 1.28c.32.547.48 1.163.48 1.85s-.16 1.307-.48 1.86a3.43 3.43 0 0 1-1.3 1.28c-.547.307-1.15.46-1.81.46zm0-1.56c.56 0 1.006-.187 1.34-.56.34-.373.51-.867.51-1.48 0-.62-.17-1.113-.51-1.48-.334-.373-.78-.56-1.34-.56-.567 0-1.02.183-1.36.55-.334.367-.5.863-.5 1.49 0 .62.166 1.117.5 1.49.34.367.793.55 1.36.55z"
    /><path
      id="T"
      d="M421.452 132.98l-1.83 7.02h-2.07l-1.12-4.62-1.16 4.62h-2.07l-1.78-7.02h1.83l1.01 5.11 1.25-5.11h1.88l1.2 5.11 1.02-5.11h1.84z"
    /><path
      id="U"
      d="M109.671 213.174h-3.896l-.645 1.864h-2.06l3.517-9.796h2.285l3.517 9.796h-2.074l-.644-1.864zm-.533-1.57l-1.415-4.092-1.416 4.092h2.831z"
    /><path
      id="V"
      d="M95.589 279.27v6.054c0 .663.173 1.173.519 1.528.346.345.831.518 1.457.518.635 0 1.126-.173 1.472-.518.346-.355.519-.865.519-1.528v-6.054h1.976v6.04c0 .832-.182 1.537-.546 2.116-.356.57-.837 1-1.444 1.289-.598.29-1.266.435-2.004.435a4.5 4.5 0 0 1-1.99-.435c-.589-.289-1.056-.719-1.401-1.289-.346-.579-.519-1.284-.519-2.116v-6.04h1.962z"
    /><path
      id="W"
      d="M106.804 289.15c-.682 0-1.298-.117-1.85-.35-.542-.234-.971-.57-1.289-1.009s-.481-.958-.491-1.556h2.103c.028.402.168.719.42.953.262.233.617.35 1.065.35.458 0 .818-.107 1.079-.322a1.09 1.09 0 0 0 .393-.869c0-.29-.089-.528-.267-.715s-.401-.331-.672-.434c-.262-.112-.626-.234-1.093-.365-.636-.186-1.154-.369-1.556-.546-.392-.187-.733-.463-1.023-.827-.28-.374-.42-.869-.42-1.485 0-.58.144-1.084.434-1.514s.696-.757 1.219-.981c.523-.234 1.121-.35 1.794-.35 1.009 0 1.827.247 2.453.742.635.486.985 1.168 1.051 2.047h-2.159c-.018-.337-.163-.612-.434-.827-.262-.225-.612-.337-1.051-.337-.383 0-.691.098-.925.295-.224.196-.336.481-.336.854a.92.92 0 0 0 .252.659 2.27 2.27 0 0 0 .645.421c.261.102.626.224 1.093.364.635.187 1.153.374 1.555.561s.748.467 1.037.84.435.865.435 1.472c0 .523-.136 1.009-.407 1.457s-.668.809-1.191 1.08c-.523.261-1.144.392-1.864.392z"
    /><path
      id="X"
      d="M115.386 279.27c1.028 0 1.93.201 2.705.602.785.402 1.387.977 1.808 1.724.43.738.645 1.598.645 2.579s-.215 1.84-.645 2.578c-.421.729-1.023 1.294-1.808 1.696-.775.402-1.677.603-2.705.603h-3.419v-9.782h3.419zm-.07 8.114c1.028 0 1.822-.28 2.383-.841s.84-1.35.84-2.368-.28-1.813-.84-2.383c-.561-.579-1.355-.869-2.383-.869h-1.387v6.461h1.387z"
    /><path
      id="Y"
      d="M227.291 290.496c-.444 0-.812-.135-1.104-.403-.28-.281-.42-.625-.42-1.034s.14-.747.42-1.016c.292-.28.66-.42 1.104-.42.432 0 .788.14 1.068.42.281.269.421.607.421 1.016s-.14.753-.421 1.034c-.28.268-.636.403-1.068.403z"
    /><path
      id="Z"
      d="M230.475 283.821c0-2.02.362-3.603 1.086-4.747.736-1.145 1.95-1.717 3.644-1.717s2.902.572 3.626 1.717c.736 1.144 1.104 2.727 1.104 4.747 0 2.032-.368 3.627-1.104 4.783-.724 1.156-1.933 1.734-3.626 1.734s-2.908-.578-3.644-1.734c-.724-1.156-1.086-2.751-1.086-4.783zm7.042 0c0-.864-.058-1.588-.175-2.172-.105-.596-.327-1.08-.666-1.454-.327-.374-.817-.56-1.471-.56s-1.151.186-1.489.56c-.327.374-.549.858-.666 1.454-.105.584-.158 1.308-.158 2.172 0 .888.053 1.635.158 2.243.105.595.327 1.08.666 1.454.338.362.835.543 1.489.543s1.15-.181 1.489-.543c.338-.374.56-.859.665-1.454.106-.608.158-1.355.158-2.243z"
    /><path
      id="a"
      d="M241.8 283.821c0-2.02.362-3.603 1.086-4.747.736-1.145 1.95-1.717 3.644-1.717s2.902.572 3.626 1.717c.736 1.144 1.104 2.727 1.104 4.747 0 2.032-.368 3.627-1.104 4.783-.724 1.156-1.933 1.734-3.626 1.734s-2.908-.578-3.644-1.734c-.724-1.156-1.086-2.751-1.086-4.783zm7.042 0c0-.864-.058-1.588-.175-2.172-.105-.596-.327-1.08-.666-1.454-.327-.374-.817-.56-1.471-.56s-1.151.186-1.489.56c-.327.374-.549.858-.666 1.454-.105.584-.158 1.308-.158 2.172 0 .888.053 1.635.158 2.243.105.595.327 1.08.666 1.454.338.362.835.543 1.489.543s1.15-.181 1.489-.543c.339-.374.56-.859.666-1.454.105-.608.157-1.355.157-2.243z"
    /><path
      id="b"
      d="M252.845 280.738c0-.887.257-1.582.771-2.084.525-.503 1.197-.754 2.014-.754s1.483.251 1.997.754c.526.502.789 1.197.789 2.084 0 .899-.263 1.6-.789 2.102-.514.502-1.179.754-1.997.754s-1.489-.252-2.014-.754c-.514-.502-.771-1.203-.771-2.102zm11.246-2.628l-6.884 12.263h-2.383l6.867-12.263h2.4zm-8.478 1.262c-.643 0-.964.455-.964 1.366 0 .923.321 1.384.964 1.384.315 0 .56-.111.735-.333.176-.233.263-.584.263-1.051 0-.911-.333-1.366-.998-1.366zm4.922 8.356c0-.899.257-1.594.771-2.085.526-.502 1.197-.753 2.015-.753s1.477.251 1.979.753c.514.491.771 1.186.771 2.085s-.257 1.6-.771 2.102c-.502.502-1.162.753-1.979.753-.83 0-1.501-.251-2.015-.753s-.771-1.203-.771-2.102zm2.768-1.367c-.666 0-.998.456-.998 1.367 0 .922.332 1.384.998 1.384.654 0 .981-.462.981-1.384 0-.911-.327-1.367-.981-1.367z"
    /><path
      id="c"
      d="M216.362 428.966c.058-1.168.467-2.067 1.226-2.698.771-.642 1.781-.963 3.031-.963.852 0 1.582.151 2.189.455.608.292 1.063.695 1.367 1.209.315.502.473 1.074.473 1.717 0 .735-.193 1.36-.578 1.874-.374.502-.824.841-1.349 1.016v.07c.677.21 1.203.584 1.576 1.121.386.538.578 1.227.578 2.067 0 .701-.163 1.326-.49 1.875-.315.549-.788.981-1.419 1.296-.619.304-1.366.456-2.242.456-1.32 0-2.394-.333-3.224-.999s-1.267-1.647-1.313-2.943h2.382c.023.572.216 1.034.578 1.384.374.339.882.508 1.524.508.596 0 1.051-.163 1.367-.49.327-.339.49-.771.49-1.297 0-.701-.222-1.203-.666-1.506s-1.132-.456-2.067-.456h-.508v-2.014h.508c1.659 0 2.488-.555 2.488-1.665 0-.502-.152-.893-.456-1.173-.292-.281-.718-.421-1.278-.421-.549 0-.976.152-1.279.456-.292.292-.462.665-.508 1.121h-2.4z"
    /><path
      id="d"
      d="M237.986 428.791c-.117-.491-.321-.859-.613-1.104-.281-.245-.689-.368-1.227-.368-.805 0-1.401.327-1.786.981-.374.643-.567 1.694-.578 3.153.28-.467.689-.829 1.226-1.086a3.87 3.87 0 0 1 1.752-.403c.759 0 1.43.164 2.014.491a3.39 3.39 0 0 1 1.367 1.436c.327.619.49 1.367.49 2.243 0 .829-.169 1.57-.508 2.224-.327.643-.812 1.145-1.454 1.507s-1.407.543-2.295.543c-1.214 0-2.172-.269-2.873-.806-.689-.537-1.173-1.284-1.454-2.242-.268-.969-.403-2.161-.403-3.574 0-2.137.368-3.749 1.104-4.835.736-1.097 1.898-1.646 3.486-1.646 1.226 0 2.178.332 2.856.998s1.068 1.495 1.173 2.488h-2.277zm-1.787 3.188c-.619 0-1.139.181-1.559.543s-.631.888-.631 1.577.193 1.232.578 1.629c.397.397.952.595 1.665.595.63 0 1.127-.192 1.489-.578.373-.385.56-.905.56-1.559 0-.677-.181-1.214-.543-1.611-.35-.397-.87-.596-1.559-.596z"
    /><linearGradient id="e" gradientUnits="userSpaceOnUse" /></defs></svg>
