<svg fill="none" height="26" viewBox="0 0 26 26" width="26" xmlns="http://www.w3.org/2000/svg"><path d="m9.51207 21.6558c8.18243 0 12.65923-6.7807 12.65923-12.65916 0-.19063-.0043-.38549-.0127-.57611.8708-.62979 1.6224-1.40988 2.2193-2.3036-.8111.36085-1.6722.59652-2.554.69896.9285-.55653 1.6236-1.4308 1.9567-2.46076-.8735.51763-1.8287.88278-2.8247 1.07978-.6711-.71306-1.5584-1.1852-2.5247-1.34341-.9663-.1582-1.9579.00633-2.8213.46816-.8635.46184-1.5507 1.19525-1.9555 2.08685s-.5047 1.89173-.2841 2.84575c-1.7686-.08875-3.49875-.54818-5.07839-1.3485-1.57963-.80033-2.97344-1.92368-4.09108-3.29724-.56804.97937-.74186 2.13828-.48613 3.2412.25572 1.10292.9218 2.06708 1.86287 2.69658-.7065-.0225-1.39752-.2127-2.01597-.555v.0551c-.00063 1.0278.35468 2.0241 1.00554 2.8195s1.5571 1.3409 2.56466 1.5437c-.65446.1791-1.34134.2052-2.00749.0763.28431.8839.83749 1.6569 1.58232 2.2113s1.64415.8624 2.57246.881c-1.57599 1.238-3.5228 1.9095-5.52686 1.9063-.35541-.0006-.71046-.0223-1.06327-.0653 2.03592 1.3062 4.40424 1.9999 6.82311 1.9986z" fill="#4e576d"/></svg>