<svg fill="none" height="26" viewBox="0 0 26 26" width="26" xmlns="http://www.w3.org/2000/svg"><path d="m23.6535 8.50679s-.2118-1.49535-.8641-2.15194c-.8261-.86417-1.7496-.86841-2.1732-.91924-3.033-.22028-7.5868-.22028-7.5868-.22028h-.0085s-4.55384 0-7.5869.22028c-.42361.05083-1.34708.05507-2.17313.91924-.65236.65659-.85993 2.15194-.85993 2.15194s-.22028 1.75801-.22028 3.51171v1.6436c0 1.7538.21605 3.5118.21605 3.5118s.2118 1.4953.85993 2.1519c.82604.8642 1.91048.8345 2.3934.9277 1.73681.1652 7.37506.2161 7.37506.2161s4.5581-.0085 7.5911-.2245c.4236-.0509 1.3471-.0551 2.1732-.9193.6523-.6566.8641-2.1519.8641-2.1519s.2161-1.7538.2161-3.5118v-1.6436c0-1.7537-.2161-3.51171-.2161-3.51171zm-12.8693 7.15061v-6.09582l5.8586 3.05852z" fill="#4e576d"/></svg>